# This file uses centimeters as units for non-parametric coordinates.

mtllib couch.mtl
g couch_default1
v -1.710419 0.000000 -0.699243
v -1.723873 0.001612 0.924996
v -1.916565 0.593743 0.972637
v -1.916574 0.593755 0.952214
v -1.908722 0.583741 -0.084314
v -1.908722 0.583741 -0.089422
v -1.908722 0.583741 -0.781616
v 1.893933 0.000000 -0.699243
v 2.092235 0.583741 -0.781616
v 1.893933 0.000000 0.935386
v 2.092235 0.632433 0.914461
v 2.092235 0.631768 0.894263
v 1.689911 0.628823 0.894463
v 1.689911 0.583741 -0.084314
v -1.506493 0.583696 -0.084314
v -1.518869 0.578160 0.933630
v 2.092235 0.583741 -0.089422
v 2.092235 0.583741 -0.084314
v -2.286717 0.986917 -0.103172
v -2.286717 0.986917 -0.109001
v -2.624378 1.341908 -0.119872
v -2.447016 1.466331 -1.002661
v -2.183741 1.070903 0.998894
v 2.624378 1.767332 -1.002661
v 1.915372 1.076584 -0.103172
v 2.374454 1.208948 -0.103172
v 2.624378 1.767332 -0.119872
v -1.745762 1.044353 -0.103172
v -1.719386 1.059688 1.002661
v 2.374454 1.208948 -0.109001
v 1.915372 1.155025 0.973905
v 2.374454 1.111034 0.973905
vt 0.375000 0.000000
vt 0.625000 0.000000
vt 0.625000 0.250000
vt 0.621881 0.250000
vt 0.479892 0.250000
vt 0.479124 0.250000
vt 0.375000 0.250000
vt 0.125000 0.000000
vt 0.125000 0.250000
vt 0.375000 0.750000
vt 0.625000 0.750000
vt 0.625000 1.000000
vt 0.375000 1.000000
vt 0.875000 0.000000
vt 0.875000 0.250000
vt 0.625000 0.500000
vt 0.621881 0.500000
vt 0.621881 0.474861
vt 0.479892 0.474861
vt 0.479892 0.275139
vt 0.621881 0.275139
vt 0.375000 0.500000
vt 0.479124 0.500000
vt 0.479892 0.500000
vt 0.623169 0.000000
vt 0.625000 0.000000
vt 0.625000 0.132586
vt 0.623169 0.132586
vt 0.375000 0.000000
vt 0.625000 0.250000
vt 0.375000 0.250000
vt 0.376346 0.000000
vt 0.625000 0.000000
vt 0.625000 0.250000
vt 0.376346 0.250000
vt 0.125000 0.000000
vt 0.125000 0.250000
vt 0.650139 0.000000
vt 0.849861 0.000000
vt 0.849861 0.132586
vt 0.875000 0.132586
vt 0.875000 0.250000
vt 0.650139 0.132586
vt 0.625000 0.500000
vt 0.375000 0.500000
vt 0.875000 0.000000
vt 0.875000 0.250000
vt 0.625000 0.500000
vt 0.376346 0.500000
vt 0.625000 0.617414
vt 0.623169 0.617414
vt 0.623169 0.750000
vt 0.375000 0.750000
vt 0.625000 0.750000
vt 0.376346 0.750000
vt 0.376346 0.000000
vt 0.625000 0.000000
vt 0.625000 0.250000
vt 0.376346 0.250000
vt 0.625000 0.500000
vt 0.376346 0.500000
vt 0.376346 0.750000
vt 0.375000 0.750000
vt 0.375000 0.500000
vt 0.875000 0.000000
vt 0.875000 0.250000
vt 0.625000 0.750000
vn -0.949299 -0.314338 -0.004915
vn -0.949299 -0.314338 -0.004915
vn -0.949299 -0.314338 -0.004915
vn -0.924298 -0.381527 0.010521
vn -0.925124 -0.379534 0.009961
vn -0.913948 -0.403696 -0.041577
vn -0.879455 -0.470758 -0.070331
vn -0.000000 -0.139728 -0.990190
vn -0.000000 -0.139728 -0.990190
vn 0.005438 -0.194221 -0.980943
vn 0.005369 -0.193531 -0.981080
vn -0.000224 -1.000000 0.000494
vn -0.000224 -1.000000 0.000494
vn -0.000224 -1.000000 0.000494
vn -0.000224 -1.000000 0.000494
vn 0.006370 -0.021840 0.999741
vn 0.006370 -0.021840 0.999741
vn 0.006370 -0.021840 0.999741
vn 0.006370 -0.021840 0.999741
vn -0.008256 0.999527 -0.029619
vn -0.008256 0.999527 -0.029619
vn -0.008256 0.999527 -0.029619
vn -0.008256 0.999527 -0.029619
vn -0.008256 0.999527 -0.029619
vn -0.008256 0.999527 -0.029619
vn -0.008256 0.999527 -0.029619
vn -0.008256 0.999527 -0.029619
vn 0.930379 -0.366594 0.001761
vn 0.938305 -0.345796 0.002900
vn 0.937499 -0.347988 0.000943
vn 0.936439 -0.350830 0.000622
vn 0.949280 -0.314399 0.004596
vn 0.949280 -0.314399 0.004596
vn 0.949280 -0.314399 0.004596
vn -0.913948 -0.403696 -0.041577
vn -0.925124 -0.379534 0.009961
vn -0.792041 -0.608117 -0.053532
vn -0.776994 -0.614981 -0.134458
vn -0.879455 -0.470758 -0.070331
vn -0.913948 -0.403696 -0.041577
vn -0.776994 -0.614981 -0.134458
vn -0.792041 -0.608117 -0.053532
vn -0.777133 -0.614699 -0.134947
vn -0.777132 -0.614699 -0.134947
vn -0.925124 -0.379534 0.009961
vn -0.924298 -0.381527 0.010521
vn -0.804113 -0.591260 0.061756
vn -0.792041 -0.608117 -0.053532
vn 0.005369 -0.193531 -0.981080
vn 0.005438 -0.194221 -0.980943
vn 0.006941 -0.209205 -0.977847
vn 0.006941 -0.209205 -0.977847
vn -0.001401 0.036168 0.999345
vn -0.001401 0.036168 0.999345
vn -0.001401 0.036168 0.999345
vn -0.001401 0.036168 0.999345
vn -0.001401 0.036168 0.999345
vn -0.001401 0.036168 0.999345
vn -0.001401 0.036168 0.999345
vn -0.001401 0.036168 0.999345
vn -0.070075 0.995543 0.063118
vn -0.070075 0.995543 0.063118
vn -0.070075 0.995543 0.063118
vn -0.070075 0.995543 0.063118
vn 0.013552 -0.113298 0.993469
vn 0.013552 -0.113298 0.993469
vn 0.013552 -0.113298 0.993469
vn 0.013552 -0.113298 0.993469
vn -0.045729 0.998061 -0.042217
vn -0.045729 0.998061 -0.042217
vn -0.045729 0.998061 -0.042217
vn -0.045729 0.998061 -0.042217
vn 0.912053 -0.410073 -0.000653
vn 0.912053 -0.410073 -0.000653
vn 0.904386 -0.426691 -0.004499
vn 0.912050 -0.410078 -0.000650
vn 0.938305 -0.345796 0.002900
vn 0.930379 -0.366594 0.001761
vn 0.905956 0.423297 -0.007925
vn 0.905956 0.423297 -0.007925
vn 0.905956 0.423297 -0.007925
vn 0.905956 0.423297 -0.007925
vn -0.913663 0.405741 -0.024378
vn -0.913663 0.405741 -0.024378
vn -0.913663 0.405741 -0.024378
vn -0.913663 0.405741 -0.024378
vn -0.095803 0.995360 0.008997
vn -0.095803 0.995360 0.008997
vn -0.095803 0.995360 0.008997
vn -0.095803 0.995360 0.008997
vn 0.937499 -0.347988 0.000943
vn 0.938305 -0.345796 0.002900
vn 0.912050 -0.410078 -0.000650
vn 0.904386 -0.426691 -0.004499
vn -0.007052 -0.152794 0.988233
vn -0.007052 -0.152794 0.988233
vn -0.007052 -0.152794 0.988233
vn -0.007052 -0.152794 0.988233
vn 0.904386 -0.426691 -0.004499
vn 0.890649 -0.454557 -0.011031
vn 0.936439 -0.350830 0.000622
vn 0.937499 -0.347988 0.000943
s off
g couch_couch_LOD_2_Mesh couch_group1 couch_polySurface1 group
usemtl couch_initialShadingGroup
f 1/1/1 2/2/2 3/3/3 4/4/4 5/5/5 6/6/6 7/7/7
f 8/8/8 1/1/9 7/7/10 9/9/11
f 8/10/12 10/11/13 2/12/14 1/13/15
f 2/2/16 10/14/17 11/15/18 3/3/19
f 4/4/20 3/3/21 11/16/22 12/17/23 13/18/24 14/19/25 15/20/26 16/21/27
f 9/22/28 17/23/29 18/24/30 12/17/31 11/16/32 10/11/33 8/10/34
f 6/25/35 5/26/36 19/27/37 20/28/38
f 7/29/39 6/25/40 20/28/41 19/27/42 21/30/43 22/31/44
f 5/32/45 4/33/46 23/34/47 19/35/48
f 9/36/49 7/29/50 22/31/51 24/37/52
f 15/38/53 14/39/54 25/40/55 26/41/56 27/42/57 21/30/58 19/27/59 28/43/60
f 22/31/61 21/30/62 27/44/63 24/45/64
f 4/33/65 16/46/66 29/47/67 23/34/68
f 19/35/69 23/34/70 29/48/71 28/49/72
f 24/45/73 27/44/74 26/50/75 30/51/76 17/52/77 9/53/78
f 28/49/79 29/48/80 16/54/81 15/55/82
f 14/56/83 13/57/84 31/58/85 25/59/86
f 25/59/87 31/58/88 32/60/89 26/61/90
f 18/62/91 17/63/92 30/64/93 26/61/94
f 13/57/95 12/65/96 32/66/97 31/58/98
f 26/61/99 32/60/100 12/67/101 18/62/102
