# This file uses centimeters as units for non-parametric coordinates.

v -2.651509 -0.042190 14.672032
v -2.651509 3.523700 14.672032
v -5.846477 3.181690 14.503865
v -5.846477 0.000000 14.503865
v -5.846477 0.000000 41.087334
v -5.846477 3.181690 41.087334
v 5.889254 0.000000 41.087334
v 5.889254 3.181690 41.087334
v 5.889254 0.000000 14.624645
v 5.889254 3.181690 14.624645
v 2.878173 -0.042190 14.716145
v 2.878173 3.523700 14.716145
v -5.924642 5.092105 11.985903
v -1.836253 4.257127 11.787262
v -5.924641 -0.294003 11.985903
v -1.836252 -0.085588 11.787262
v 1.764714 -0.085286 11.863124
v 1.764714 4.159273 11.863124
v 5.983155 5.092105 12.032507
v 5.983156 -0.294003 12.032507
v 5.937397 5.092105 -2.764158
v 5.937397 -0.294003 -2.764158
v -5.970741 -0.294003 -2.764158
v -5.970742 5.092105 -2.764158
v -6.618573 -0.354466 7.776516
v -5.148429 -0.354466 8.556598
v -6.618573 0.652037 7.776516
v -5.148429 0.652037 8.556598
v -4.482090 0.652037 3.845556
v -3.011945 0.652037 4.625637
v -4.482090 -0.354466 3.845556
v -3.011945 -0.354466 4.625637
v -5.877444 -0.088006 8.734347
v -4.218710 -0.088006 8.598506
v -5.877444 2.118093 8.734347
v -4.218710 2.118093 8.598506
v -6.009197 2.118093 7.125533
v -4.350463 2.118093 6.989691
v -6.009197 -0.088006 7.125533
v -4.350463 -0.088006 6.989691
v -2.939405 -0.413993 12.275221
v -2.939405 0.607546 12.275221
v -4.767959 0.667073 7.793470
v -4.767959 -0.354466 7.793470
v -4.506087 -0.088006 -0.128289
v -2.299988 -0.088006 -0.128289
v -4.506087 2.118093 -0.128289
v -2.299988 2.118093 -0.128289
v -4.506087 2.118093 -2.334388
v -2.299988 2.118093 -2.334388
v -4.506087 -0.088006 -2.334388
v -2.299988 -0.088006 -2.334388
v 2.470099 -0.088006 -0.390687
v 4.676198 -0.088006 -0.390687
v 2.470099 2.118093 -0.390687
v 4.676198 2.118093 -0.390687
v 2.470099 2.118093 -2.071990
v 4.676198 2.118093 -2.071990
v 2.470099 -0.088006 -2.071990
v 4.676198 -0.088006 -2.071990
v 3.874068 -0.088006 6.628937
v 6.182735 -0.088006 6.628937
v 3.874068 2.118093 6.628937
v 6.182735 2.118093 6.628937
v 3.874068 2.118093 4.865164
v 6.182735 2.118093 4.865164
v 3.874068 -0.088006 4.865164
v 6.182735 -0.088006 4.865164
v 3.954070 -0.017151 9.661592
v 6.347900 -0.017151 9.661592
v 3.954070 0.684942 9.661592
v 6.347900 0.684942 9.661592
v 3.954070 0.684942 6.599288
v 6.270722 0.684942 6.599288
v 3.954070 -0.017151 6.599288
v 6.270722 -0.017151 6.599288
v 4.304953 -0.287290 12.179268
v 4.304953 2.317376 12.179268
v 6.110080 2.317376 12.217878
v 4.304953 2.317376 9.538592
v 6.446312 2.317376 9.538592
v 4.304953 -0.287290 9.538592
v 6.446312 -0.287290 9.538592
v 2.013216 0.000000 16.605099
v 2.481961 0.000000 16.605099
v 2.013216 4.935140 16.605099
v 2.481961 4.935140 16.605099
v 2.013216 4.935140 16.136353
v 2.481961 4.935140 16.136353
v 2.013216 0.000000 16.136353
v 2.481961 0.000000 16.136353
v -2.480494 0.000000 16.605099
v -2.011750 0.000000 16.605099
v -2.480494 4.935140 16.605099
v -2.011750 4.935140 16.605099
v -2.480494 4.935140 16.136353
v -2.011750 4.935140 16.136353
v -2.480494 0.000000 16.136353
v -2.011750 0.000000 16.136353
v 4.947703 0.684942 9.661592
v 4.947703 -0.017151 9.661592
v 4.947703 -0.017151 6.599288
v 4.947703 0.684942 6.599288
v 4.947703 1.971087 6.599288
v 4.947703 1.971087 9.661592
v 6.347900 1.971087 9.661592
v 6.270722 1.971087 6.599288
v -3.925678 0.652037 4.140797
v -6.062162 0.652037 8.071756
v -3.925678 -0.354466 4.140797
v -6.062162 1.872556 8.071756
v -6.618573 1.872556 7.776516
v -3.925678 1.872556 4.140797
v -4.482090 1.872556 3.845556
v -3.957669 0.607546 12.633197
v -5.786222 0.667073 8.151445
v -3.957669 1.647376 12.812644
v -5.496052 1.647376 13.773206
v -5.786222 1.706903 7.943401
v -7.324605 1.706903 8.903963
vt 0.464208 0.250000
vt 0.625000 0.000000
vt 0.625000 0.250000
vt 0.464208 0.000000
vt 0.464208 0.000000
vt 0.464208 0.250000
vt 0.464208 0.250000
vt 0.464208 0.000000
vt 0.464208 0.250000
vt 0.464208 0.000000
vt 0.464208 0.000000
vt 0.464208 0.250000
vt 0.625000 0.500000
vt 0.375000 0.500000
vt 0.625000 0.750000
vt 0.375000 0.750000
vt 0.625000 0.500000
vt 0.375000 0.500000
vt 0.625000 0.750000
vt 0.375000 0.750000
vt 0.250000 0.000000
vt 0.625000 0.000000
vt 0.625000 0.250000
vt 0.250000 0.250000
vt 0.625000 0.500000
vt 0.375000 0.500000
vt 0.625000 0.750000
vt 0.375000 0.750000
vt 0.375000 0.000000
vt 0.375000 0.250000
vt 0.125000 0.000000
vt 0.125000 0.250000
vt 0.375000 0.000000
vt 0.625000 0.000000
vt 0.625000 0.250000
vt 0.375000 0.250000
vt 0.625000 0.000000
vt 0.625000 0.250000
vt 0.875000 0.000000
vt 0.875000 0.250000
vt 0.625000 0.000000
vt 0.625000 0.250000
vt 0.469619 0.250000
vt 0.625000 0.500000
vt 0.469619 0.500000
vt 0.469619 0.750000
vt 0.625000 0.750000
vt 0.875000 0.000000
vt 0.875000 0.250000
vt 0.125000 0.000000
vt 0.375000 0.000000
vt 0.375000 0.250000
vt 0.125000 0.250000
vt 0.375000 0.000000
vt 0.625000 0.000000
vt 0.625000 0.250000
vt 0.375000 0.250000
vt 0.625000 0.500000
vt 0.375000 0.500000
vt 0.625000 0.750000
vt 0.375000 0.750000
vt 0.875000 0.000000
vt 0.875000 0.250000
vt 0.625000 0.000000
vt 0.625000 0.250000
vt 0.462865 0.250000
vt 0.462865 0.500000
vt 0.625000 0.500000
vt 0.875000 0.000000
vt 0.875000 0.250000
vt 0.375000 0.000000
vt 0.625000 0.000000
vt 0.625000 0.250000
vt 0.375000 0.250000
vt 0.625000 0.500000
vt 0.375000 0.500000
vt 0.625000 0.750000
vt 0.375000 0.750000
vt 0.875000 0.000000
vt 0.875000 0.250000
vt 0.125000 0.000000
vt 0.125000 0.250000
vt 0.375000 0.000000
vt 0.625000 0.000000
vt 0.625000 0.250000
vt 0.375000 0.250000
vt 0.625000 0.500000
vt 0.375000 0.500000
vt 0.625000 0.750000
vt 0.375000 0.750000
vt 0.875000 0.000000
vt 0.875000 0.250000
vt 0.125000 0.000000
vt 0.125000 0.250000
vt 0.375000 0.000000
vt 0.625000 0.000000
vt 0.625000 0.250000
vt 0.375000 0.250000
vt 0.625000 0.500000
vt 0.375000 0.500000
vt 0.625000 0.750000
vt 0.375000 0.750000
vt 0.125000 0.000000
vt 0.125000 0.250000
vt 0.550981 0.000000
vt 0.625000 0.000000
vt 0.625000 0.250000
vt 0.550981 0.250000
vt 0.550981 0.500000
vt 0.550981 0.250000
vt 0.625000 0.250000
vt 0.625000 0.500000
vt 0.550981 0.500000
vt 0.625000 0.500000
vt 0.625000 0.750000
vt 0.550981 0.750000
vt 0.125000 0.000000
vt 0.375000 0.000000
vt 0.375000 0.250000
vt 0.125000 0.250000
vt 0.375000 0.000000
vt 0.625000 0.250000
vt 0.375000 0.250000
vt 0.625000 0.500000
vt 0.375000 0.500000
vt 0.625000 0.750000
vt 0.375000 0.750000
vt 0.125000 0.000000
vt 0.125000 0.250000
vt 0.375000 0.000000
vt 0.625000 0.000000
vt 0.625000 0.250000
vt 0.375000 0.250000
vt 0.625000 0.500000
vt 0.375000 0.500000
vt 0.625000 0.750000
vt 0.375000 0.750000
vt 0.875000 0.000000
vt 0.875000 0.250000
vt 0.125000 0.000000
vt 0.125000 0.250000
vt 0.375000 0.000000
vt 0.625000 0.000000
vt 0.625000 0.250000
vt 0.375000 0.250000
vt 0.625000 0.500000
vt 0.375000 0.500000
vt 0.625000 0.750000
vt 0.375000 0.750000
vt 0.875000 0.000000
vt 0.875000 0.250000
vt 0.125000 0.000000
vt 0.125000 0.250000
vt 0.375000 0.750000
vt 0.375000 0.500000
vt 0.375000 0.250000
vt 0.469619 0.250000
vt 0.469619 0.500000
vt 0.375000 0.500000
vt 0.375000 0.750000
vt 0.375000 0.500000
vt 0.375000 0.250000
vt 0.462865 0.250000
vt 0.462865 0.500000
vt 0.375000 0.500000
vn 0.000000 0.000000 1.000000
vn 0.000000 0.000000 1.000000
vn 0.000000 0.000000 1.000000
vn 0.000000 0.000000 1.000000
vn 1.000000 0.000000 0.000000
vn 1.000000 0.000000 0.000000
vn 1.000000 0.000000 0.000000
vn 1.000000 0.000000 0.000000
vn 0.000000 0.000000 -1.000000
vn 0.000000 0.000000 -1.000000
vn 0.000000 0.000000 -1.000000
vn 0.000000 0.000000 -1.000000
vn -1.000000 0.000000 0.000000
vn -1.000000 0.000000 0.000000
vn -1.000000 0.000000 0.000000
vn -1.000000 0.000000 0.000000
vn 0.000000 0.000000 1.000000
vn 0.000000 0.000000 1.000000
vn 0.000000 0.000000 1.000000
vn 0.000000 0.000000 1.000000
vn -0.000001 0.000000 -1.000000
vn -0.000001 0.000000 -1.000000
vn -0.000001 0.000000 -1.000000
vn -0.000001 0.000000 -1.000000
vn 0.964512 0.000000 0.264041
vn 0.964512 0.000000 0.264041
vn 0.964512 0.000000 0.264041
vn 0.964512 0.000000 0.264041
vn -0.931442 0.000000 0.363891
vn -0.931442 0.000000 0.363891
vn -0.931442 0.000000 0.363891
vn -0.931442 0.000000 0.363891
vn -0.000001 0.000000 -1.000000
vn -0.000001 0.000000 -1.000000
vn -0.000001 0.000000 -1.000000
vn -0.000001 0.000000 -1.000000
vn -1.000000 0.000000 0.000000
vn -1.000000 0.000000 0.000000
vn -1.000000 0.000000 0.000000
vn -1.000000 0.000000 0.000000
vn 0.000000 0.000000 1.000000
vn 0.000000 0.000000 1.000000
vn 0.000000 0.000000 1.000000
vn 0.000000 0.000000 1.000000
vn 1.000000 0.000000 0.000000
vn 1.000000 0.000000 0.000000
vn 1.000000 0.000000 0.000000
vn 1.000000 0.000000 0.000000
vn 0.000000 1.000000 0.000000
vn 0.000000 1.000000 0.000000
vn 0.000000 1.000000 0.000000
vn 0.000000 1.000000 0.000000
vn 0.468718 0.000000 -0.883348
vn 0.468718 0.000000 -0.883348
vn 0.468718 0.000000 -0.883348
vn 0.468718 0.000000 -0.883348
vn 0.883348 0.000000 0.468718
vn 0.883348 0.000000 0.468718
vn 0.883348 0.000000 0.468718
vn 0.883348 0.000000 0.468718
vn -0.883348 0.000000 -0.468718
vn -0.883348 0.000000 -0.468718
vn -0.883348 0.000000 -0.468718
vn -0.883348 0.000000 -0.468718
vn 0.081621 0.000000 0.996663
vn 0.081621 0.000000 0.996663
vn 0.081621 0.000000 0.996663
vn 0.081621 0.000000 0.996663
vn 0.000000 1.000000 0.000000
vn 0.000000 1.000000 0.000000
vn 0.000000 1.000000 0.000000
vn 0.000000 1.000000 0.000000
vn -0.081621 0.000000 -0.996663
vn -0.081621 0.000000 -0.996663
vn -0.081621 0.000000 -0.996663
vn -0.081621 0.000000 -0.996663
vn 0.996663 0.000000 -0.081621
vn 0.996663 0.000000 -0.081621
vn 0.996663 0.000000 -0.081621
vn 0.996663 0.000000 -0.081621
vn 0.000000 1.000000 0.000000
vn 0.000000 1.000000 0.000000
vn 0.000000 1.000000 0.000000
vn 0.000000 1.000000 0.000000
vn 0.943400 0.000000 -0.331657
vn 0.943400 0.000000 -0.331657
vn 0.943400 0.000000 -0.331657
vn 0.943400 0.000000 -0.331657
vn 0.000000 0.000000 1.000000
vn 0.000000 0.000000 1.000000
vn 0.000000 0.000000 1.000000
vn 0.000000 0.000000 1.000000
vn 0.000000 1.000000 0.000000
vn 0.000000 1.000000 0.000000
vn 0.000000 1.000000 0.000000
vn 0.000000 1.000000 0.000000
vn 0.000000 0.000000 -1.000000
vn 0.000000 0.000000 -1.000000
vn 0.000000 0.000000 -1.000000
vn 0.000000 0.000000 -1.000000
vn 1.000000 0.000000 0.000000
vn 1.000000 0.000000 0.000000
vn 1.000000 0.000000 0.000000
vn 1.000000 0.000000 0.000000
vn -1.000000 0.000000 0.000000
vn -1.000000 0.000000 0.000000
vn -1.000000 0.000000 0.000000
vn -1.000000 0.000000 0.000000
vn 0.000000 0.000000 1.000000
vn 0.000000 0.000000 1.000000
vn 0.000000 0.000000 1.000000
vn 0.000000 0.000000 1.000000
vn 0.000000 1.000000 0.000000
vn 0.000000 1.000000 0.000000
vn 0.000000 1.000000 0.000000
vn 0.000000 1.000000 0.000000
vn 0.000000 0.000000 -1.000000
vn 0.000000 0.000000 -1.000000
vn 0.000000 0.000000 -1.000000
vn 0.000000 0.000000 -1.000000
vn 1.000000 0.000000 0.000000
vn 1.000000 0.000000 0.000000
vn 1.000000 0.000000 0.000000
vn 1.000000 0.000000 0.000000
vn -1.000000 0.000000 0.000000
vn -1.000000 0.000000 0.000000
vn -1.000000 0.000000 0.000000
vn -1.000000 0.000000 0.000000
vn 0.000000 0.000000 1.000000
vn 0.000000 0.000000 1.000000
vn 0.000000 0.000000 1.000000
vn 0.000000 0.000000 1.000000
vn 0.000000 1.000000 0.000000
vn 0.000000 1.000000 0.000000
vn 0.000000 1.000000 0.000000
vn 0.000000 1.000000 0.000000
vn 0.000000 0.000000 -1.000000
vn 0.000000 0.000000 -1.000000
vn 0.000000 0.000000 -1.000000
vn 0.000000 0.000000 -1.000000
vn -1.000000 0.000000 0.000000
vn -1.000000 0.000000 0.000000
vn -1.000000 0.000000 0.000000
vn -1.000000 0.000000 0.000000
vn 0.000000 0.000000 1.000000
vn 0.000000 0.000000 1.000000
vn 0.000000 0.000000 1.000000
vn 0.000000 0.000000 1.000000
vn 0.000000 1.000000 0.000000
vn 0.000000 1.000000 0.000000
vn 0.000000 1.000000 0.000000
vn 0.000000 1.000000 0.000000
vn 0.000000 0.000000 -1.000000
vn 0.000000 0.000000 -1.000000
vn 0.000000 0.000000 -1.000000
vn 0.000000 0.000000 -1.000000
vn -1.000000 0.000000 0.000000
vn -1.000000 0.000000 0.000000
vn -1.000000 0.000000 0.000000
vn -1.000000 0.000000 0.000000
vn 0.000000 1.000000 0.000000
vn 0.000000 1.000000 0.000000
vn 0.000000 1.000000 0.000000
vn 0.000000 1.000000 0.000000
vn 0.000000 0.000000 -1.000000
vn 0.000000 0.000000 -1.000000
vn 0.000000 0.000000 -1.000000
vn 0.000000 0.000000 -1.000000
vn -1.000000 0.000000 0.000000
vn -1.000000 0.000000 0.000000
vn -1.000000 0.000000 0.000000
vn -1.000000 0.000000 0.000000
vn 0.000000 0.000000 1.000000
vn 0.000000 0.000000 1.000000
vn 0.000000 0.000000 1.000000
vn 0.000000 0.000000 1.000000
vn 0.000000 0.000000 -1.000000
vn 0.000000 0.000000 -1.000000
vn 0.000000 0.000000 -1.000000
vn 0.000000 0.000000 -1.000000
vn 1.000000 0.000000 0.000000
vn 1.000000 0.000000 0.000000
vn 1.000000 0.000000 0.000000
vn 1.000000 0.000000 0.000000
vn -1.000000 0.000000 0.000000
vn -1.000000 0.000000 0.000000
vn -1.000000 0.000000 0.000000
vn -1.000000 0.000000 0.000000
vn 0.000000 0.000000 1.000000
vn 0.000000 0.000000 1.000000
vn 0.000000 0.000000 1.000000
vn 0.000000 0.000000 1.000000
vn 0.000000 0.000000 -1.000000
vn 0.000000 0.000000 -1.000000
vn 0.000000 0.000000 -1.000000
vn 0.000000 0.000000 -1.000000
vn 1.000000 0.000000 0.000000
vn 1.000000 0.000000 0.000000
vn 1.000000 0.000000 0.000000
vn 1.000000 0.000000 0.000000
vn -1.000000 0.000000 0.000000
vn -1.000000 0.000000 0.000000
vn -1.000000 0.000000 0.000000
vn -1.000000 0.000000 0.000000
vn 0.000000 0.000000 1.000000
vn 0.000000 0.000000 1.000000
vn 0.000000 0.000000 1.000000
vn 0.000000 0.000000 1.000000
vn 0.000000 0.000000 -1.000000
vn 0.000000 0.000000 -1.000000
vn 0.000000 0.000000 -1.000000
vn 0.000000 0.000000 -1.000000
vn 0.000000 1.000000 0.000000
vn 0.000000 1.000000 0.000000
vn 0.000000 1.000000 0.000000
vn 0.000000 1.000000 0.000000
vn -1.000000 0.000000 0.000000
vn -1.000000 0.000000 0.000000
vn -1.000000 0.000000 0.000000
vn -1.000000 0.000000 0.000000
vn 0.000000 0.000000 1.000000
vn 0.000000 0.000000 1.000000
vn 0.000000 1.000000 0.000000
vn 0.000000 0.000000 1.000000
vn 0.000000 0.000000 -1.000000
vn 0.000000 0.000000 -1.000000
vn 0.000000 0.000000 -1.000000
vn 0.000000 1.000000 0.000000
vn 0.000000 1.000000 0.000000
vn 0.000000 1.000000 0.000000
vn 0.000000 1.000000 0.000000
vn 0.000000 1.000000 0.000000
vn 0.468718 0.000000 -0.883348
vn 0.468718 0.000000 -0.883348
vn 0.468718 0.000000 -0.883348
vn 0.468718 0.000000 -0.883348
vn 0.883348 0.000000 0.468718
vn 0.883348 0.000000 0.468718
vn 0.883348 0.000000 0.468718
vn 0.883348 0.000000 0.468718
vn 0.468718 0.000000 -0.883348
vn 0.468718 0.000000 -0.883348
vn 0.000000 1.000000 0.000000
vn 0.468718 0.000000 -0.883348
vn -0.883348 0.000000 -0.468718
vn -0.883348 0.000000 -0.468718
vn 0.000000 1.000000 0.000000
vn 0.000000 1.000000 0.000000
vn 0.000000 1.000000 0.000000
vn -0.000000 1.000000 -0.000000
vn -0.000000 1.000000 -0.000000
vn 0.000000 1.000000 0.000000
vn 0.950347 -0.004279 -0.311164
vn 0.950347 -0.004279 -0.311164
vn 0.950347 -0.004279 -0.311164
vn 0.950347 -0.004279 -0.311164
g introRoom_collider_pCube52
f 3/1/1 4/4/2 1/2/3 2/3/4
f 4/4/5 3/1/6 6/6/7 5/5/8
f 5/5/9 6/6/10 8/7/11 7/8/12
f 7/8/13 8/7/14 10/9/15 9/10/16
f 9/10/17 10/9/18 12/12/19 11/11/20
f 13/14/21 14/13/22 16/15/23 15/16/24
f 14/18/25 2/17/26 1/19/27 16/20/28
f 17/21/29 11/22/30 12/23/31 18/24/32
f 18/26/33 19/25/34 20/27/35 17/28/36
f 22/31/37 20/29/38 19/30/39 21/32/40
f 23/33/41 22/34/42 21/35/43 24/36/44
f 15/37/45 23/39/46 24/40/47 13/38/48
f 109/43/49 28/42/50 30/44/51 108/45/52
f 110/46/53 108/45/54 30/44/55 32/47/56
f 26/41/57 32/48/58 30/49/59 28/42/60
f 31/50/61 25/51/62 27/52/63 29/53/64
f 33/54/65 34/55/66 36/56/67 35/57/68
f 35/57/69 36/56/70 38/58/71 37/59/72
f 37/59/73 38/58/74 40/60/75 39/61/76
f 34/55/77 40/62/78 38/63/79 36/56/80
f 116/67/81 115/66/82 42/65/83 43/68/84
f 41/64/85 44/69/86 43/70/87 42/65/88
f 45/71/89 46/72/90 48/73/91 47/74/92
f 47/74/93 48/73/94 50/75/95 49/76/96
f 49/76/97 50/75/98 52/77/99 51/78/100
f 46/72/101 52/79/102 50/80/103 48/73/104
f 51/81/105 45/71/106 47/74/107 49/82/108
f 53/83/109 54/84/110 56/85/111 55/86/112
f 55/86/113 56/85/114 58/87/115 57/88/116
f 57/88/117 58/87/118 60/89/119 59/90/120
f 54/84/121 60/91/122 58/92/123 56/85/124
f 59/93/125 53/83/126 55/86/127 57/94/128
f 61/95/129 62/96/130 64/97/131 63/98/132
f 63/98/133 64/97/134 66/99/135 65/100/136
f 65/100/137 66/99/138 68/101/139 67/102/140
f 67/103/141 61/95/142 63/98/143 65/104/144
f 101/105/145 70/106/146 72/107/147 100/108/148
f 104/109/149 105/110/150 106/111/151 107/112/152
f 103/113/153 74/114/154 76/115/155 102/116/156
f 75/117/157 69/118/158 71/119/159 73/120/160
f 78/123/161 79/122/162 81/124/163 80/125/164
f 80/125/165 81/124/166 83/126/167 82/127/168
f 82/128/169 77/121/170 78/123/171 80/129/172
f 84/130/173 85/131/174 87/132/175 86/133/176
f 88/135/177 89/134/178 91/136/179 90/137/180
f 85/131/181 91/138/182 89/139/183 87/132/184
f 90/140/185 84/130/186 86/133/187 88/141/188
f 92/142/189 93/143/190 95/144/191 94/145/192
f 96/147/193 97/146/194 99/148/195 98/149/196
f 93/143/197 99/150/198 97/151/199 95/144/200
f 98/152/201 92/142/202 94/145/203 96/153/204
f 69/118/205 101/105/206 100/108/207 71/119/208
f 73/155/209 103/113/210 102/116/211 75/154/212
f 71/119/213 100/108/214 103/113/215 73/155/216
f 103/113/217 100/108/218 105/110/219 104/109/220
f 100/108/221 72/107/222 106/111/223 105/110/224
f 74/114/225 103/113/226 104/109/227 107/112/228
f 112/156/229 111/157/230 113/158/231 114/159/232
f 29/161/233 108/45/234 110/46/235 31/160/236
f 109/43/237 108/45/238 113/158/239 111/157/240
f 108/45/241 29/161/242 114/159/243 113/158/244
f 29/161/245 27/52/246 112/156/247 114/159/248
f 118/162/249 117/163/250 119/164/251 120/165/252
f 115/66/253 116/67/254 119/164/255 117/163/256
