# This file uses centimeters as units for non-parametric coordinates.

g default
v -2.095220 3.732321 12.117455
v 2.225056 3.732321 12.117455
v -2.095220 5.013592 12.117455
v 2.225056 5.013592 12.117455
v -2.095220 5.013592 11.816826
v 2.225056 5.013592 11.816823
v -2.095220 3.732321 11.816826
v 2.225056 3.732321 11.816823
v -6.049013 -0.088006 12.117455
v -1.988217 -0.088006 12.117455
v -6.049013 5.039958 12.117455
v -1.988217 5.039958 12.117455
v -6.049013 5.039958 11.816826
v -1.988217 5.039958 11.816823
v -6.049013 -0.088006 11.816826
v -1.988217 -0.088006 11.816823
v -1.945403 -0.084379 11.721800
v -2.771339 -0.084379 14.738835
v -1.945403 3.865711 11.721800
v -2.771339 3.865711 14.738835
v -1.575137 3.865711 11.823162
v -2.401068 3.865711 14.840199
v -1.575137 -0.084379 11.823162
v -2.401068 -0.084379 14.840199
v 1.566677 -0.084379 11.894051
v 2.704944 -0.084379 14.807644
v 1.566677 3.865711 11.894051
v 2.704944 3.865711 14.807644
v 1.924248 3.865711 11.754357
v 3.062520 3.865711 14.667948
v 1.924248 -0.084379 11.754357
v 3.062520 -0.084379 14.667948
v 2.001253 -0.088006 12.177826
v 6.062050 -0.088006 12.177826
v 2.001253 5.039958 12.177826
v 6.062050 5.039958 12.177826
v 2.001253 5.039958 11.910038
v 6.062050 5.039958 11.910034
v 2.001253 -0.088006 11.910038
v 6.062050 -0.088006 11.910034
v 5.904262 -0.500000 12.154981
v 6.149970 -0.500000 12.154981
v 5.904261 5.144253 12.154981
v 6.149969 5.144253 12.154981
v 5.904261 5.144253 -2.854703
v 6.149969 5.144253 -2.854703
v 5.904262 -0.500000 -2.854703
v 6.149970 -0.500000 -2.854703
v -6.141214 -0.088006 -2.673613
v 5.970533 -0.088006 -2.673613
v -6.141214 5.039958 -2.673613
v 5.970533 5.039958 -2.673613
v -6.141214 5.039958 -2.941402
v 5.970533 5.039958 -2.941405
v -6.141214 -0.088006 -2.941402
v 5.970533 -0.088006 -2.941405
v -6.045977 -0.500000 12.154981
v -5.800269 -0.500000 12.154981
v -6.045978 5.144253 12.154981
v -5.800270 5.144253 12.154981
v -6.045978 5.144253 -2.854703
v -5.800270 5.144253 -2.854703
v -6.045977 -0.500000 -2.854703
v -5.800269 -0.500000 -2.854703
v -5.788105 -0.354466 6.306881
v -4.317961 -0.354466 7.086962
v -5.788105 1.851633 6.306881
v -4.317961 1.851633 7.086962
v -4.482090 1.851633 3.845556
v -3.011945 1.851633 4.625637
v -4.482090 -0.354466 3.845556
v -3.011945 -0.354466 4.625637
v -5.877444 -0.088006 8.734347
v -4.218710 -0.088006 8.598506
v -5.877444 2.118093 8.734347
v -4.218710 2.118093 8.598506
v -6.009197 2.118093 7.125533
v -4.350463 2.118093 6.989691
v -6.009197 -0.088006 7.125533
v -4.350463 -0.088006 6.989691
v -4.860011 -0.354466 11.853691
v -3.289922 -0.354466 11.301719
v -4.860011 1.851633 11.853691
v -3.289922 1.851633 11.301719
v -5.784126 1.851633 9.225039
v -4.214038 1.851633 8.673067
v -5.784126 -0.354466 9.225039
v -4.214038 -0.354466 8.673067
v -4.506087 -0.088006 -0.128289
v -2.299988 -0.088006 -0.128289
v -4.506087 2.118093 -0.128289
v -2.299988 2.118093 -0.128289
v -4.506087 2.118093 -2.334388
v -2.299988 2.118093 -2.334388
v -4.506087 -0.088006 -2.334388
v -2.299988 -0.088006 -2.334388
v 2.470099 -0.088006 -0.390687
v 4.676198 -0.088006 -0.390687
v 2.470099 2.118093 -0.390687
v 4.676198 2.118093 -0.390687
v 2.470099 2.118093 -2.071990
v 4.676198 2.118093 -2.071990
v 2.470099 -0.088006 -2.071990
v 4.676198 -0.088006 -2.071990
v 3.874068 -0.088006 6.234244
v 5.285629 -0.088006 6.234244
v 3.874068 2.118093 6.234244
v 5.285629 2.118093 6.234244
v 3.874068 2.118093 4.865164
v 5.285629 2.118093 4.865164
v 3.874068 -0.088006 4.865164
v 5.285629 -0.088006 4.865164
v 3.954070 -0.017151 9.661592
v 5.365631 -0.017151 9.661592
v 3.954070 1.861830 9.661592
v 5.365631 1.861830 9.661592
v 3.954070 1.861830 6.599288
v 5.365631 1.861830 6.599288
v 3.954070 -0.017151 6.599288
v 5.365631 -0.017151 6.599288
v 4.304953 -0.287290 11.155470
v 5.464043 -0.287290 11.155470
v 4.304953 2.317376 11.155470
v 5.464043 2.317376 11.155470
v 4.304953 2.317376 10.031263
v 5.464043 2.317376 10.031263
v 4.304953 -0.287290 10.031263
v 5.464043 -0.287290 10.031263
vt 0.375000 0.000000
vt 0.625000 0.000000
vt 0.375000 0.250000
vt 0.625000 0.250000
vt 0.375000 0.500000
vt 0.625000 0.500000
vt 0.375000 0.750000
vt 0.625000 0.750000
vt 0.375000 1.000000
vt 0.625000 1.000000
vt 0.875000 0.000000
vt 0.875000 0.250000
vt 0.125000 0.000000
vt 0.125000 0.250000
vt 0.375000 0.000000
vt 0.625000 0.000000
vt 0.625000 0.250000
vt 0.375000 0.250000
vt 0.625000 0.500000
vt 0.375000 0.500000
vt 0.625000 0.750000
vt 0.375000 0.750000
vt 0.625000 1.000000
vt 0.375000 1.000000
vt 0.875000 0.000000
vt 0.875000 0.250000
vt 0.125000 0.000000
vt 0.125000 0.250000
vt 0.375000 0.000000
vt 0.625000 0.000000
vt 0.625000 0.250000
vt 0.375000 0.250000
vt 0.625000 0.500000
vt 0.375000 0.500000
vt 0.625000 0.750000
vt 0.375000 0.750000
vt 0.625000 1.000000
vt 0.375000 1.000000
vt 0.875000 0.000000
vt 0.875000 0.250000
vt 0.125000 0.000000
vt 0.125000 0.250000
vt 0.375000 0.000000
vt 0.625000 0.000000
vt 0.625000 0.250000
vt 0.375000 0.250000
vt 0.625000 0.500000
vt 0.375000 0.500000
vt 0.625000 0.750000
vt 0.375000 0.750000
vt 0.625000 1.000000
vt 0.375000 1.000000
vt 0.875000 0.000000
vt 0.875000 0.250000
vt 0.125000 0.000000
vt 0.125000 0.250000
vt 0.375000 0.000000
vt 0.625000 0.000000
vt 0.625000 0.250000
vt 0.375000 0.250000
vt 0.625000 0.500000
vt 0.375000 0.500000
vt 0.625000 0.750000
vt 0.375000 0.750000
vt 0.625000 1.000000
vt 0.375000 1.000000
vt 0.875000 0.000000
vt 0.875000 0.250000
vt 0.125000 0.000000
vt 0.125000 0.250000
vt 0.375000 0.000000
vt 0.625000 0.000000
vt 0.625000 0.250000
vt 0.375000 0.250000
vt 0.625000 0.500000
vt 0.375000 0.500000
vt 0.625000 0.750000
vt 0.375000 0.750000
vt 0.625000 1.000000
vt 0.375000 1.000000
vt 0.875000 0.000000
vt 0.875000 0.250000
vt 0.125000 0.000000
vt 0.125000 0.250000
vt 0.375000 0.000000
vt 0.625000 0.000000
vt 0.625000 0.250000
vt 0.375000 0.250000
vt 0.625000 0.500000
vt 0.375000 0.500000
vt 0.625000 0.750000
vt 0.375000 0.750000
vt 0.625000 1.000000
vt 0.375000 1.000000
vt 0.875000 0.000000
vt 0.875000 0.250000
vt 0.125000 0.000000
vt 0.125000 0.250000
vt 0.375000 0.000000
vt 0.625000 0.000000
vt 0.625000 0.250000
vt 0.375000 0.250000
vt 0.625000 0.500000
vt 0.375000 0.500000
vt 0.625000 0.750000
vt 0.375000 0.750000
vt 0.625000 1.000000
vt 0.375000 1.000000
vt 0.875000 0.000000
vt 0.875000 0.250000
vt 0.125000 0.000000
vt 0.125000 0.250000
vt 0.375000 0.000000
vt 0.625000 0.000000
vt 0.625000 0.250000
vt 0.375000 0.250000
vt 0.625000 0.500000
vt 0.375000 0.500000
vt 0.625000 0.750000
vt 0.375000 0.750000
vt 0.625000 1.000000
vt 0.375000 1.000000
vt 0.875000 0.000000
vt 0.875000 0.250000
vt 0.125000 0.000000
vt 0.125000 0.250000
vt 0.375000 0.000000
vt 0.625000 0.000000
vt 0.625000 0.250000
vt 0.375000 0.250000
vt 0.625000 0.500000
vt 0.375000 0.500000
vt 0.625000 0.750000
vt 0.375000 0.750000
vt 0.625000 1.000000
vt 0.375000 1.000000
vt 0.875000 0.000000
vt 0.875000 0.250000
vt 0.125000 0.000000
vt 0.125000 0.250000
vt 0.375000 0.000000
vt 0.625000 0.000000
vt 0.625000 0.250000
vt 0.375000 0.250000
vt 0.625000 0.500000
vt 0.375000 0.500000
vt 0.625000 0.750000
vt 0.375000 0.750000
vt 0.625000 1.000000
vt 0.375000 1.000000
vt 0.875000 0.000000
vt 0.875000 0.250000
vt 0.125000 0.000000
vt 0.125000 0.250000
vt 0.375000 0.000000
vt 0.625000 0.000000
vt 0.625000 0.250000
vt 0.375000 0.250000
vt 0.625000 0.500000
vt 0.375000 0.500000
vt 0.625000 0.750000
vt 0.375000 0.750000
vt 0.625000 1.000000
vt 0.375000 1.000000
vt 0.875000 0.000000
vt 0.875000 0.250000
vt 0.125000 0.000000
vt 0.125000 0.250000
vt 0.375000 0.000000
vt 0.625000 0.000000
vt 0.625000 0.250000
vt 0.375000 0.250000
vt 0.625000 0.500000
vt 0.375000 0.500000
vt 0.625000 0.750000
vt 0.375000 0.750000
vt 0.625000 1.000000
vt 0.375000 1.000000
vt 0.875000 0.000000
vt 0.875000 0.250000
vt 0.125000 0.000000
vt 0.125000 0.250000
vt 0.375000 0.000000
vt 0.625000 0.000000
vt 0.625000 0.250000
vt 0.375000 0.250000
vt 0.625000 0.500000
vt 0.375000 0.500000
vt 0.625000 0.750000
vt 0.375000 0.750000
vt 0.625000 1.000000
vt 0.375000 1.000000
vt 0.875000 0.000000
vt 0.875000 0.250000
vt 0.125000 0.000000
vt 0.125000 0.250000
vt 0.375000 0.000000
vt 0.625000 0.000000
vt 0.625000 0.250000
vt 0.375000 0.250000
vt 0.625000 0.500000
vt 0.375000 0.500000
vt 0.625000 0.750000
vt 0.375000 0.750000
vt 0.625000 1.000000
vt 0.375000 1.000000
vt 0.875000 0.000000
vt 0.875000 0.250000
vt 0.125000 0.000000
vt 0.125000 0.250000
vt 0.375000 0.000000
vt 0.625000 0.000000
vt 0.625000 0.250000
vt 0.375000 0.250000
vt 0.625000 0.500000
vt 0.375000 0.500000
vt 0.625000 0.750000
vt 0.375000 0.750000
vt 0.625000 1.000000
vt 0.375000 1.000000
vt 0.875000 0.000000
vt 0.875000 0.250000
vt 0.125000 0.000000
vt 0.125000 0.250000
vn 0.000000 0.000000 1.000000
vn 0.000000 0.000000 1.000000
vn 0.000000 0.000000 1.000000
vn 0.000000 0.000000 1.000000
vn 0.000000 1.000000 0.000000
vn 0.000000 1.000000 0.000000
vn 0.000000 1.000000 0.000000
vn 0.000000 1.000000 0.000000
vn -0.000001 0.000000 -1.000000
vn -0.000001 0.000000 -1.000000
vn -0.000001 0.000000 -1.000000
vn -0.000001 0.000000 -1.000000
vn 0.000000 -1.000000 0.000000
vn 0.000000 -1.000000 0.000000
vn 0.000000 -1.000000 0.000000
vn 0.000000 -1.000000 0.000000
vn 1.000000 0.000000 0.000000
vn 1.000000 0.000000 0.000000
vn 1.000000 0.000000 0.000000
vn 1.000000 0.000000 0.000000
vn -1.000000 0.000000 0.000000
vn -1.000000 0.000000 0.000000
vn -1.000000 0.000000 0.000000
vn -1.000000 0.000000 0.000000
vn 0.000000 0.000000 1.000000
vn 0.000000 0.000000 1.000000
vn 0.000000 0.000000 1.000000
vn 0.000000 0.000000 1.000000
vn 0.000000 1.000000 0.000000
vn 0.000000 1.000000 0.000000
vn 0.000000 1.000000 0.000000
vn 0.000000 1.000000 0.000000
vn -0.000001 0.000000 -1.000000
vn -0.000001 0.000000 -1.000000
vn -0.000001 0.000000 -1.000000
vn -0.000001 0.000000 -1.000000
vn 0.000000 -1.000000 0.000000
vn 0.000000 -1.000000 0.000000
vn 0.000000 -1.000000 0.000000
vn 0.000000 -1.000000 0.000000
vn 1.000000 0.000000 0.000000
vn 1.000000 0.000000 0.000000
vn 1.000000 0.000000 0.000000
vn 1.000000 0.000000 0.000000
vn -1.000000 0.000000 0.000000
vn -1.000000 0.000000 0.000000
vn -1.000000 0.000000 0.000000
vn -1.000000 0.000000 0.000000
vn -0.964511 0.000000 -0.264042
vn -0.964511 0.000000 -0.264042
vn -0.964511 0.000000 -0.264042
vn -0.964511 0.000000 -0.264042
vn 0.000000 1.000000 0.000000
vn 0.000000 1.000000 0.000000
vn 0.000000 1.000000 0.000000
vn 0.000000 1.000000 0.000000
vn 0.964512 0.000000 0.264041
vn 0.964512 0.000000 0.264041
vn 0.964512 0.000000 0.264041
vn 0.964512 0.000000 0.264041
vn 0.000000 -1.000000 -0.000000
vn 0.000000 -1.000000 -0.000000
vn 0.000000 -1.000000 -0.000000
vn 0.000000 -1.000000 -0.000000
vn -0.264042 0.000000 0.964511
vn -0.264042 0.000000 0.964511
vn -0.264042 0.000000 0.964511
vn -0.264042 0.000000 0.964511
vn 0.264040 0.000000 -0.964512
vn 0.264040 0.000000 -0.964512
vn 0.264040 0.000000 -0.964512
vn 0.264040 0.000000 -0.964512
vn -0.931442 0.000000 0.363891
vn -0.931442 0.000000 0.363891
vn -0.931442 0.000000 0.363891
vn -0.931442 0.000000 0.363891
vn 0.000000 1.000000 0.000000
vn 0.000000 1.000000 0.000000
vn 0.000000 1.000000 0.000000
vn 0.000000 1.000000 0.000000
vn 0.931441 0.000000 -0.363892
vn 0.931441 0.000000 -0.363892
vn 0.931441 0.000000 -0.363892
vn 0.931441 0.000000 -0.363892
vn 0.000000 -1.000000 -0.000000
vn 0.000000 -1.000000 -0.000000
vn 0.000000 -1.000000 -0.000000
vn 0.000000 -1.000000 -0.000000
vn 0.363891 0.000000 0.931442
vn 0.363891 0.000000 0.931442
vn 0.363891 0.000000 0.931442
vn 0.363891 0.000000 0.931442
vn -0.363888 0.000000 -0.931443
vn -0.363888 0.000000 -0.931443
vn -0.363888 0.000000 -0.931443
vn -0.363888 0.000000 -0.931443
vn 0.000000 0.000000 1.000000
vn 0.000000 0.000000 1.000000
vn 0.000000 0.000000 1.000000
vn 0.000000 0.000000 1.000000
vn 0.000000 1.000000 0.000000
vn 0.000000 1.000000 0.000000
vn 0.000000 1.000000 0.000000
vn 0.000000 1.000000 0.000000
vn -0.000001 0.000000 -1.000000
vn -0.000001 0.000000 -1.000000
vn -0.000001 0.000000 -1.000000
vn -0.000001 0.000000 -1.000000
vn 0.000000 -1.000000 0.000000
vn 0.000000 -1.000000 0.000000
vn 0.000000 -1.000000 0.000000
vn 0.000000 -1.000000 0.000000
vn 1.000000 0.000000 0.000000
vn 1.000000 0.000000 0.000000
vn 1.000000 0.000000 0.000000
vn 1.000000 0.000000 0.000000
vn -1.000000 0.000000 0.000000
vn -1.000000 0.000000 0.000000
vn -1.000000 0.000000 0.000000
vn -1.000000 0.000000 0.000000
vn 0.000000 0.000000 1.000000
vn 0.000000 0.000000 1.000000
vn 0.000000 0.000000 1.000000
vn 0.000000 0.000000 1.000000
vn 0.000000 1.000000 0.000000
vn 0.000000 1.000000 0.000000
vn 0.000000 1.000000 0.000000
vn 0.000000 1.000000 0.000000
vn 0.000000 0.000000 -1.000000
vn 0.000000 0.000000 -1.000000
vn 0.000000 0.000000 -1.000000
vn 0.000000 0.000000 -1.000000
vn 0.000000 -1.000000 0.000000
vn 0.000000 -1.000000 0.000000
vn 0.000000 -1.000000 0.000000
vn 0.000000 -1.000000 0.000000
vn 1.000000 0.000000 0.000000
vn 1.000000 0.000000 0.000000
vn 1.000000 0.000000 0.000000
vn 1.000000 0.000000 0.000000
vn -1.000000 -0.000000 0.000000
vn -1.000000 -0.000000 0.000000
vn -1.000000 -0.000000 0.000000
vn -1.000000 -0.000000 0.000000
vn 0.000000 0.000000 1.000000
vn 0.000000 0.000000 1.000000
vn 0.000000 0.000000 1.000000
vn 0.000000 0.000000 1.000000
vn 0.000000 1.000000 0.000000
vn 0.000000 1.000000 0.000000
vn 0.000000 1.000000 0.000000
vn 0.000000 1.000000 0.000000
vn -0.000000 0.000000 -1.000000
vn -0.000000 0.000000 -1.000000
vn -0.000000 0.000000 -1.000000
vn -0.000000 0.000000 -1.000000
vn 0.000000 -1.000000 0.000000
vn 0.000000 -1.000000 0.000000
vn 0.000000 -1.000000 0.000000
vn 0.000000 -1.000000 0.000000
vn 1.000000 0.000000 0.000000
vn 1.000000 0.000000 0.000000
vn 1.000000 0.000000 0.000000
vn 1.000000 0.000000 0.000000
vn -1.000000 0.000000 0.000000
vn -1.000000 0.000000 0.000000
vn -1.000000 0.000000 0.000000
vn -1.000000 0.000000 0.000000
vn 0.000000 0.000000 1.000000
vn 0.000000 0.000000 1.000000
vn 0.000000 0.000000 1.000000
vn 0.000000 0.000000 1.000000
vn 0.000000 1.000000 0.000000
vn 0.000000 1.000000 0.000000
vn 0.000000 1.000000 0.000000
vn 0.000000 1.000000 0.000000
vn 0.000000 0.000000 -1.000000
vn 0.000000 0.000000 -1.000000
vn 0.000000 0.000000 -1.000000
vn 0.000000 0.000000 -1.000000
vn 0.000000 -1.000000 0.000000
vn 0.000000 -1.000000 0.000000
vn 0.000000 -1.000000 0.000000
vn 0.000000 -1.000000 0.000000
vn 1.000000 0.000000 0.000000
vn 1.000000 0.000000 0.000000
vn 1.000000 0.000000 0.000000
vn 1.000000 0.000000 0.000000
vn -1.000000 -0.000000 0.000000
vn -1.000000 -0.000000 0.000000
vn -1.000000 -0.000000 0.000000
vn -1.000000 -0.000000 0.000000
vn -0.468718 0.000000 0.883348
vn -0.468718 0.000000 0.883348
vn -0.468718 0.000000 0.883348
vn -0.468718 0.000000 0.883348
vn 0.000000 1.000000 -0.000000
vn 0.000000 1.000000 -0.000000
vn 0.000000 1.000000 -0.000000
vn 0.000000 1.000000 -0.000000
vn 0.468718 0.000000 -0.883348
vn 0.468718 0.000000 -0.883348
vn 0.468718 0.000000 -0.883348
vn 0.468718 0.000000 -0.883348
vn 0.000000 -1.000000 0.000000
vn 0.000000 -1.000000 0.000000
vn 0.000000 -1.000000 0.000000
vn 0.000000 -1.000000 0.000000
vn 0.883348 0.000000 0.468718
vn 0.883348 0.000000 0.468718
vn 0.883348 0.000000 0.468718
vn 0.883348 0.000000 0.468718
vn -0.883348 0.000000 -0.468718
vn -0.883348 0.000000 -0.468718
vn -0.883348 0.000000 -0.468718
vn -0.883348 0.000000 -0.468718
vn 0.081621 0.000000 0.996663
vn 0.081621 0.000000 0.996663
vn 0.081621 0.000000 0.996663
vn 0.081621 0.000000 0.996663
vn 0.000000 1.000000 0.000000
vn 0.000000 1.000000 0.000000
vn 0.000000 1.000000 0.000000
vn 0.000000 1.000000 0.000000
vn -0.081621 0.000000 -0.996663
vn -0.081621 0.000000 -0.996663
vn -0.081621 0.000000 -0.996663
vn -0.081621 0.000000 -0.996663
vn 0.000000 -1.000000 0.000000
vn 0.000000 -1.000000 0.000000
vn 0.000000 -1.000000 0.000000
vn 0.000000 -1.000000 0.000000
vn 0.996663 0.000000 -0.081621
vn 0.996663 0.000000 -0.081621
vn 0.996663 0.000000 -0.081621
vn 0.996663 0.000000 -0.081621
vn -0.996663 0.000000 0.081621
vn -0.996663 0.000000 0.081621
vn -0.996663 0.000000 0.081621
vn -0.996663 0.000000 0.081621
vn 0.331657 0.000000 0.943400
vn 0.331657 0.000000 0.943400
vn 0.331657 0.000000 0.943400
vn 0.331657 0.000000 0.943400
vn 0.000000 1.000000 0.000000
vn 0.000000 1.000000 0.000000
vn 0.000000 1.000000 0.000000
vn 0.000000 1.000000 0.000000
vn -0.331657 0.000000 -0.943400
vn -0.331657 0.000000 -0.943400
vn -0.331657 0.000000 -0.943400
vn -0.331657 0.000000 -0.943400
vn 0.000000 -1.000000 -0.000000
vn 0.000000 -1.000000 -0.000000
vn 0.000000 -1.000000 -0.000000
vn 0.000000 -1.000000 -0.000000
vn 0.943400 0.000000 -0.331657
vn 0.943400 0.000000 -0.331657
vn 0.943400 0.000000 -0.331657
vn 0.943400 0.000000 -0.331657
vn -0.943400 0.000000 0.331657
vn -0.943400 0.000000 0.331657
vn -0.943400 0.000000 0.331657
vn -0.943400 0.000000 0.331657
vn 0.000000 0.000000 1.000000
vn 0.000000 0.000000 1.000000
vn 0.000000 0.000000 1.000000
vn 0.000000 0.000000 1.000000
vn 0.000000 1.000000 0.000000
vn 0.000000 1.000000 0.000000
vn 0.000000 1.000000 0.000000
vn 0.000000 1.000000 0.000000
vn 0.000000 0.000000 -1.000000
vn 0.000000 0.000000 -1.000000
vn 0.000000 0.000000 -1.000000
vn 0.000000 0.000000 -1.000000
vn 0.000000 -1.000000 0.000000
vn 0.000000 -1.000000 0.000000
vn 0.000000 -1.000000 0.000000
vn 0.000000 -1.000000 0.000000
vn 1.000000 0.000000 0.000000
vn 1.000000 0.000000 0.000000
vn 1.000000 0.000000 0.000000
vn 1.000000 0.000000 0.000000
vn -1.000000 0.000000 0.000000
vn -1.000000 0.000000 0.000000
vn -1.000000 0.000000 0.000000
vn -1.000000 0.000000 0.000000
vn 0.000000 0.000000 1.000000
vn 0.000000 0.000000 1.000000
vn 0.000000 0.000000 1.000000
vn 0.000000 0.000000 1.000000
vn 0.000000 1.000000 0.000000
vn 0.000000 1.000000 0.000000
vn 0.000000 1.000000 0.000000
vn 0.000000 1.000000 0.000000
vn 0.000000 0.000000 -1.000000
vn 0.000000 0.000000 -1.000000
vn 0.000000 0.000000 -1.000000
vn 0.000000 0.000000 -1.000000
vn 0.000000 -1.000000 0.000000
vn 0.000000 -1.000000 0.000000
vn 0.000000 -1.000000 0.000000
vn 0.000000 -1.000000 0.000000
vn 1.000000 0.000000 0.000000
vn 1.000000 0.000000 0.000000
vn 1.000000 0.000000 0.000000
vn 1.000000 0.000000 0.000000
vn -1.000000 0.000000 0.000000
vn -1.000000 0.000000 0.000000
vn -1.000000 0.000000 0.000000
vn -1.000000 0.000000 0.000000
vn 0.000000 0.000000 1.000000
vn 0.000000 0.000000 1.000000
vn 0.000000 0.000000 1.000000
vn 0.000000 0.000000 1.000000
vn 0.000000 1.000000 0.000000
vn 0.000000 1.000000 0.000000
vn 0.000000 1.000000 0.000000
vn 0.000000 1.000000 0.000000
vn 0.000000 0.000000 -1.000000
vn 0.000000 0.000000 -1.000000
vn 0.000000 0.000000 -1.000000
vn 0.000000 0.000000 -1.000000
vn 0.000000 -1.000000 0.000000
vn 0.000000 -1.000000 0.000000
vn 0.000000 -1.000000 0.000000
vn 0.000000 -1.000000 0.000000
vn 1.000000 0.000000 0.000000
vn 1.000000 0.000000 0.000000
vn 1.000000 0.000000 0.000000
vn 1.000000 0.000000 0.000000
vn -1.000000 0.000000 0.000000
vn -1.000000 0.000000 0.000000
vn -1.000000 0.000000 0.000000
vn -1.000000 0.000000 0.000000
vn 0.000000 0.000000 1.000000
vn 0.000000 0.000000 1.000000
vn 0.000000 0.000000 1.000000
vn 0.000000 0.000000 1.000000
vn 0.000000 1.000000 0.000000
vn 0.000000 1.000000 0.000000
vn 0.000000 1.000000 0.000000
vn 0.000000 1.000000 0.000000
vn 0.000000 0.000000 -1.000000
vn 0.000000 0.000000 -1.000000
vn 0.000000 0.000000 -1.000000
vn 0.000000 0.000000 -1.000000
vn 0.000000 -1.000000 0.000000
vn 0.000000 -1.000000 0.000000
vn 0.000000 -1.000000 0.000000
vn 0.000000 -1.000000 0.000000
vn 1.000000 0.000000 0.000000
vn 1.000000 0.000000 0.000000
vn 1.000000 0.000000 0.000000
vn 1.000000 0.000000 0.000000
vn -1.000000 0.000000 0.000000
vn -1.000000 0.000000 0.000000
vn -1.000000 0.000000 0.000000
vn -1.000000 0.000000 0.000000
vn 0.000000 0.000000 1.000000
vn 0.000000 0.000000 1.000000
vn 0.000000 0.000000 1.000000
vn 0.000000 0.000000 1.000000
vn 0.000000 1.000000 0.000000
vn 0.000000 1.000000 0.000000
vn 0.000000 1.000000 0.000000
vn 0.000000 1.000000 0.000000
vn 0.000000 0.000000 -1.000000
vn 0.000000 0.000000 -1.000000
vn 0.000000 0.000000 -1.000000
vn 0.000000 0.000000 -1.000000
vn 0.000000 -1.000000 0.000000
vn 0.000000 -1.000000 0.000000
vn 0.000000 -1.000000 0.000000
vn 0.000000 -1.000000 0.000000
vn 1.000000 0.000000 0.000000
vn 1.000000 0.000000 0.000000
vn 1.000000 0.000000 0.000000
vn 1.000000 0.000000 0.000000
vn -1.000000 0.000000 0.000000
vn -1.000000 0.000000 0.000000
vn -1.000000 0.000000 0.000000
vn -1.000000 0.000000 0.000000
s off
g pCube22
f 1/1/1 2/2/2 4/4/3 3/3/4
f 3/3/5 4/4/6 6/6/7 5/5/8
f 5/5/9 6/6/10 8/8/11 7/7/12
f 7/7/13 8/8/14 2/10/15 1/9/16
f 2/2/17 8/11/18 6/12/19 4/4/20
f 7/13/21 1/1/22 3/3/23 5/14/24
f 9/15/25 10/16/26 12/17/27 11/18/28
f 11/18/29 12/17/30 14/19/31 13/20/32
f 13/20/33 14/19/34 16/21/35 15/22/36
f 15/22/37 16/21/38 10/23/39 9/24/40
f 10/16/41 16/25/42 14/26/43 12/17/44
f 15/27/45 9/15/46 11/18/47 13/28/48
f 17/29/49 18/30/50 20/31/51 19/32/52
f 19/32/53 20/31/54 22/33/55 21/34/56
f 21/34/57 22/33/58 24/35/59 23/36/60
f 23/36/61 24/35/62 18/37/63 17/38/64
f 18/30/65 24/39/66 22/40/67 20/31/68
f 23/41/69 17/29/70 19/32/71 21/42/72
f 25/43/73 26/44/74 28/45/75 27/46/76
f 27/46/77 28/45/78 30/47/79 29/48/80
f 29/48/81 30/47/82 32/49/83 31/50/84
f 31/50/85 32/49/86 26/51/87 25/52/88
f 26/44/89 32/53/90 30/54/91 28/45/92
f 31/55/93 25/43/94 27/46/95 29/56/96
f 33/57/97 34/58/98 36/59/99 35/60/100
f 35/60/101 36/59/102 38/61/103 37/62/104
f 37/62/105 38/61/106 40/63/107 39/64/108
f 39/64/109 40/63/110 34/65/111 33/66/112
f 34/58/113 40/67/114 38/68/115 36/59/116
f 39/69/117 33/57/118 35/60/119 37/70/120
f 41/71/121 42/72/122 44/73/123 43/74/124
f 43/74/125 44/73/126 46/75/127 45/76/128
f 45/76/129 46/75/130 48/77/131 47/78/132
f 47/78/133 48/77/134 42/79/135 41/80/136
f 42/72/137 48/81/138 46/82/139 44/73/140
f 47/83/141 41/71/142 43/74/143 45/84/144
f 49/85/145 50/86/146 52/87/147 51/88/148
f 51/88/149 52/87/150 54/89/151 53/90/152
f 53/90/153 54/89/154 56/91/155 55/92/156
f 55/92/157 56/91/158 50/93/159 49/94/160
f 50/86/161 56/95/162 54/96/163 52/87/164
f 55/97/165 49/85/166 51/88/167 53/98/168
f 57/99/169 58/100/170 60/101/171 59/102/172
f 59/102/173 60/101/174 62/103/175 61/104/176
f 61/104/177 62/103/178 64/105/179 63/106/180
f 63/106/181 64/105/182 58/107/183 57/108/184
f 58/100/185 64/109/186 62/110/187 60/101/188
f 63/111/189 57/99/190 59/102/191 61/112/192
f 65/113/193 66/114/194 68/115/195 67/116/196
f 67/116/197 68/115/198 70/117/199 69/118/200
f 69/118/201 70/117/202 72/119/203 71/120/204
f 71/120/205 72/119/206 66/121/207 65/122/208
f 66/114/209 72/123/210 70/124/211 68/115/212
f 71/125/213 65/113/214 67/116/215 69/126/216
f 73/127/217 74/128/218 76/129/219 75/130/220
f 75/130/221 76/129/222 78/131/223 77/132/224
f 77/132/225 78/131/226 80/133/227 79/134/228
f 79/134/229 80/133/230 74/135/231 73/136/232
f 74/128/233 80/137/234 78/138/235 76/129/236
f 79/139/237 73/127/238 75/130/239 77/140/240
f 81/141/241 82/142/242 84/143/243 83/144/244
f 83/144/245 84/143/246 86/145/247 85/146/248
f 85/146/249 86/145/250 88/147/251 87/148/252
f 87/148/253 88/147/254 82/149/255 81/150/256
f 82/142/257 88/151/258 86/152/259 84/143/260
f 87/153/261 81/141/262 83/144/263 85/154/264
f 89/155/265 90/156/266 92/157/267 91/158/268
f 91/158/269 92/157/270 94/159/271 93/160/272
f 93/160/273 94/159/274 96/161/275 95/162/276
f 95/162/277 96/161/278 90/163/279 89/164/280
f 90/156/281 96/165/282 94/166/283 92/157/284
f 95/167/285 89/155/286 91/158/287 93/168/288
f 97/169/289 98/170/290 100/171/291 99/172/292
f 99/172/293 100/171/294 102/173/295 101/174/296
f 101/174/297 102/173/298 104/175/299 103/176/300
f 103/176/301 104/175/302 98/177/303 97/178/304
f 98/170/305 104/179/306 102/180/307 100/171/308
f 103/181/309 97/169/310 99/172/311 101/182/312
f 105/183/313 106/184/314 108/185/315 107/186/316
f 107/186/317 108/185/318 110/187/319 109/188/320
f 109/188/321 110/187/322 112/189/323 111/190/324
f 111/190/325 112/189/326 106/191/327 105/192/328
f 106/184/329 112/193/330 110/194/331 108/185/332
f 111/195/333 105/183/334 107/186/335 109/196/336
f 113/197/337 114/198/338 116/199/339 115/200/340
f 115/200/341 116/199/342 118/201/343 117/202/344
f 117/202/345 118/201/346 120/203/347 119/204/348
f 119/204/349 120/203/350 114/205/351 113/206/352
f 114/198/353 120/207/354 118/208/355 116/199/356
f 119/209/357 113/197/358 115/200/359 117/210/360
f 121/211/361 122/212/362 124/213/363 123/214/364
f 123/214/365 124/213/366 126/215/367 125/216/368
f 125/216/369 126/215/370 128/217/371 127/218/372
f 127/218/373 128/217/374 122/219/375 121/220/376
f 122/212/377 128/221/378 126/222/379 124/213/380
f 127/223/381 121/211/382 123/214/383 125/224/384
