# This file uses centimeters as units for non-parametric coordinates.

g default
v 0.823954 0.290429 -0.438604
v 0.627829 0.258304 -0.810435
v 0.347539 0.188880 -1.061956
v 0.091248 0.105393 -1.178745
v -0.000565 0.080929 1.240110
v 0.320931 0.212584 1.009541
v 0.616788 0.262711 0.771869
v 0.828264 0.290497 0.433579
v 0.910772 0.294291 0.000000
v 0.992907 0.205364 -0.527619
v 0.744853 0.182649 -0.955765
v 0.397663 0.133558 -1.200990
v 0.097119 0.074524 -1.264309
v 0.036085 0.063230 1.294424
v 0.403813 0.163209 1.152559
v 0.738596 0.187768 0.918441
v 0.997247 0.205412 0.522634
v 1.095536 0.208095 0.000000
v 1.062889 0.000000 -0.564491
v 0.793326 0.000000 -1.015962
v 0.418425 0.000000 -1.258579
v 0.099551 0.000000 -1.299751
v 0.053813 0.011456 1.318686
v 0.443048 0.023854 1.216579
v 0.789808 0.003700 0.979905
v 1.067242 0.000000 0.559522
v 1.172068 0.000000 0.000000
v -0.040778 -0.029881 1.174463
v 0.013702 0.026162 -1.119139
v -0.279351 0.001123 1.458897
v -0.292126 0.038189 1.441548
v -0.318543 0.050860 1.402688
v -0.254412 0.059959 1.380455
v -0.224139 0.045439 1.424987
v -0.209499 0.002961 1.444869
v 0.719757 -0.214732 -0.924598
v 0.956674 -0.241438 -0.508530
v 0.386914 -0.157019 -1.171173
v 0.095860 -0.087615 -1.245960
v 0.035185 -0.054457 1.287600
v 0.714545 -0.214452 0.889063
v 0.399443 -0.151224 1.134954
v 0.961008 -0.241494 0.503536
v 1.055913 -0.244648 0.000000
v 0.595549 -0.253293 -0.770346
v 0.777349 -0.284795 -0.414049
v 0.333712 -0.185216 -1.023604
v 0.089629 -0.103349 -1.155142
v -0.001715 -0.070583 1.231337
v 0.585854 -0.255117 0.734082
v 0.315324 -0.192223 0.986910
v 0.781650 -0.284862 0.409013
v 0.859804 -0.288582 0.000000
v 0.474931 -0.098849 -0.620553
v 0.603207 -0.111142 -0.322300
v 0.282049 -0.072281 -0.880300
v 0.083578 -0.040332 -1.066950
v 0.459922 -0.100540 0.582628
v 0.227418 -0.081244 0.837083
v 0.607477 -0.111168 0.317223
v 0.669365 -0.112620 0.000000
v 0.474931 0.098849 -0.620553
v 0.603207 0.111143 -0.322300
v 0.282049 0.072281 -0.880300
v 0.083578 0.040332 -1.066950
v -0.044105 0.028186 1.172158
v 0.458932 0.099398 0.581646
v 0.221011 0.074112 0.830838
v 0.607477 0.111168 0.317223
v 0.669365 0.112620 0.000000
v 0.013702 -0.056833 -1.237301
v 0.013702 -0.067039 -1.177353
v -0.349928 0.013098 1.354054
v -0.347534 -0.028474 1.355691
v -0.323757 -0.049739 1.398277
v -0.301044 -0.039880 1.432657
v 0.013702 0.068365 -1.192933
v 0.013702 0.048341 -1.249414
v 0.013702 0.000000 -1.272808
v 0.013702 -0.026162 -1.119139
v -0.290379 0.016685 1.324721
v -0.287635 -0.030956 1.326597
v -0.255371 -0.064349 1.373223
v -0.224890 -0.051118 1.419362
v -0.033361 0.018049 -1.142834
v -0.033361 0.046968 -1.193401
v -0.033361 0.033247 -1.232104
v -0.033361 0.000121 -1.248134
v -0.033361 -0.038822 -1.223804
v -0.033361 -0.045816 -1.182725
v -0.033361 -0.017806 -1.142834
vt 0.860031 0.161757
vt 0.860258 0.157051
vt 0.819305 0.162851
vt 0.815311 0.168717
vt 0.859541 0.165855
vt 0.809602 0.172686
vt 0.858907 0.169102
vt 0.803788 0.174752
vt 0.860041 0.142789
vt 0.859575 0.138858
vt 0.809060 0.140002
vt 0.815086 0.143752
vt 0.860258 0.146961
vt 0.819393 0.149090
vt 0.860285 0.151966
vt 0.821073 0.155931
vt 0.823168 0.164481
vt 0.818034 0.171440
vt 0.810623 0.174879
vt 0.803788 0.176043
vt 0.810749 0.137746
vt 0.817810 0.141050
vt 0.823323 0.147380
vt 0.862320 0.194857
vt 0.862245 0.186306
vt 0.862320 0.177755
vt 0.861909 0.170796
vt 0.858409 0.177400
vt 0.858409 0.169771
vt 0.846152 0.176610
vt 0.846152 0.184623
vt 0.846152 0.191880
vt 0.851269 0.183900
vt 0.850829 0.176610
vt 0.861917 0.201186
vt 0.858409 0.202214
vt 0.858410 0.195134
vt 0.858410 0.186306
vt 0.851328 0.145138
vt 0.846172 0.138758
vt 0.839393 0.134867
vt 0.832777 0.133530
vt 0.839648 0.171253
vt 0.846066 0.167373
vt 0.851483 0.161553
vt 0.853900 0.194514
vt 0.853900 0.186306
vt 0.853900 0.178098
vt 0.847345 0.146813
vt 0.843642 0.141191
vt 0.838309 0.137196
vt 0.832777 0.134873
vt 0.837935 0.168917
vt 0.843445 0.164928
vt 0.847432 0.159799
vt 0.849024 0.153346
vt 0.856160 0.157051
vt 0.856387 0.161757
vt 0.856876 0.165855
vt 0.857511 0.169102
vt 0.856711 0.138759
vt 0.856356 0.142774
vt 0.856160 0.146961
vt 0.856133 0.151966
vt 0.120565 0.739192
vt 0.123641 0.743795
vt 0.122181 0.747318
vt 0.118658 0.748777
vt 0.114596 0.746510
vt 0.113866 0.742842
vt 0.116752 0.739192
vt 0.161961 0.826921
vt 0.158475 0.826699
vt 0.156118 0.824083
vt 0.157068 0.821666
vt 0.160908 0.819957
vt 0.164065 0.821566
vt 0.165127 0.824013
vt 0.842715 0.176678
vt 0.843784 0.176610
vt 0.843816 0.182122
vt 0.842946 0.182177
vt 0.831478 0.172773
vt 0.825806 0.175278
vt 0.825154 0.174546
vt 0.830666 0.171892
vt 0.832229 0.173661
vt 0.826410 0.175986
vt 0.850866 0.197705
vt 0.851040 0.191827
vt 0.797446 0.133192
vt 0.803259 0.135508
vt 0.796836 0.133888
vt 0.802513 0.136365
vt 0.796110 0.134759
vt 0.801609 0.137420
vt 0.817349 0.210426
vt 0.822294 0.211400
vt 0.827423 0.208071
vt 0.822478 0.208071
vt 0.827423 0.214221
vt 0.822478 0.212422
vt 0.823347 0.216114
vt 0.828291 0.214315
vt 0.828291 0.220465
vt 0.823347 0.220465
vt 0.823203 0.215726
vt 0.818258 0.217112
vt 0.823203 0.222129
vt 0.818258 0.221642
vt 0.822294 0.204743
vt 0.817349 0.205717
vt 0.168551 0.828714
vt 0.168767 0.832109
vt 0.164637 0.832191
vt 0.164416 0.828705
vt 0.165256 0.821816
vt 0.168111 0.819269
vt 0.168516 0.823330
vt 0.165585 0.825945
vt 0.170872 0.816915
vt 0.171351 0.820913
vt 0.160974 0.816417
vt 0.170668 0.826822
vt 0.170178 0.830818
vt 0.173384 0.829206
vt 0.172967 0.833265
vt 0.857660 0.133420
vt 0.858728 0.133456
vt 0.120565 0.739192
vt 0.123641 0.743795
vt 0.122181 0.747318
vt 0.118658 0.748777
vt 0.114596 0.746510
vt 0.113866 0.742842
vt 0.116752 0.739192
vn -0.553583 0.804653 0.214661
vn -0.553583 0.804653 0.214661
vn -0.553583 0.804653 0.214661
vn -0.553583 0.804653 0.214661
vn -0.498251 0.810090 0.309030
vn -0.498251 0.810090 0.309030
vn -0.458676 0.802190 0.382240
vn -0.458676 0.802190 0.382240
vn -0.444497 0.820128 -0.360295
vn -0.444497 0.820128 -0.360295
vn -0.444497 0.820128 -0.360295
vn -0.444497 0.820128 -0.360295
vn -0.523865 0.811253 -0.259679
vn -0.523865 0.811253 -0.259679
vn -0.594735 0.796523 -0.108815
vn -0.594735 0.796523 -0.108815
vn 0.318787 0.916973 -0.239865
vn 0.318787 0.916973 -0.239865
vn 0.111054 0.925862 -0.361174
vn -0.111993 0.918082 -0.380240
vn 0.124734 0.940645 0.315640
vn 0.124734 0.940645 0.315640
vn 0.302776 0.919470 0.250803
vn 0.416815 0.905014 0.084939
vn 0.416815 0.905014 0.084939
vn 0.798675 0.363750 -0.479380
vn 0.798674 0.363750 -0.479380
vn 0.495298 0.396394 -0.773015
vn 0.112577 0.415988 -0.902375
vn 0.510868 0.431370 0.743595
vn 0.510868 0.431370 0.743595
vn 0.773410 0.370561 0.514317
vn 0.923181 0.342663 0.174125
vn 0.765017 -0.450224 -0.460486
vn 0.765017 -0.450224 -0.460486
vn 0.469426 -0.486905 -0.736589
vn 0.104650 -0.508396 -0.854741
vn 0.480591 -0.469995 0.740363
vn 0.480591 -0.469995 0.740363
vn 0.740147 -0.451454 0.498368
vn 0.888924 -0.426024 0.168277
vn 0.141016 -0.978548 -0.150195
vn 0.141016 -0.978548 -0.150195
vn -0.016703 -0.974149 -0.225287
vn -0.184815 -0.957258 -0.222485
vn 0.008557 -0.967009 0.254597
vn 0.008557 -0.967009 0.254597
vn 0.135210 -0.977440 0.162264
vn 0.214716 -0.975493 0.048068
vn -0.624008 -0.741692 0.245981
vn -0.624008 -0.741692 0.245981
vn -0.557775 -0.749727 0.356084
vn -0.506170 -0.742737 0.438332
vn -0.488655 -0.796780 -0.355469
vn -0.488655 -0.796780 -0.355469
vn -0.588955 -0.753990 -0.290915
vn -0.670354 -0.731598 -0.124056
vn -1.000000 0.000000 -0.000001
vn -1.000000 0.000000 -0.000001
vn -1.000000 0.000000 -0.000001
vn -1.000000 0.000000 -0.000001
vn -1.000000 0.000000 -0.000001
vn -1.000000 0.000000 -0.000001
vn -1.000000 0.000000 -0.000001
vn -0.836378 0.016152 0.547915
vn -0.836378 0.016152 0.547915
vn -0.836378 0.016152 0.547915
vn -0.836378 0.016152 0.547915
vn -0.836378 0.016152 0.547915
vn -0.836378 0.016152 0.547915
vn -0.836378 0.016152 0.547915
vn -0.523396 -0.063674 -0.849707
vn -0.523396 -0.063674 -0.849707
vn -0.523396 -0.063674 -0.849707
vn -0.523396 -0.063674 -0.849707
vn -0.264093 -0.861105 -0.434458
vn -0.264093 -0.861105 -0.434458
vn 0.096480 -0.971810 0.215123
vn 0.096480 -0.971810 0.215123
vn 0.391382 -0.480977 0.784526
vn 0.391382 -0.480977 0.784526
vn 0.362568 0.494497 0.789947
vn 0.362568 0.494497 0.789947
vn 0.068279 0.961248 0.267097
vn 0.068279 0.961248 0.267097
vn -0.462649 0.775715 0.429212
vn -0.462649 0.775715 0.429212
vn -0.346425 0.878469 -0.329061
vn -0.278139 0.410373 -0.868466
vn -0.266334 -0.501910 -0.822893
vn -0.372281 -0.911987 -0.172298
vn -0.497413 -0.717054 0.488276
vn -0.438132 -0.060558 -0.896869
vn -0.438132 -0.060558 -0.896869
vn -0.274748 -0.887095 -0.370913
vn -0.082369 -0.942248 0.324629
vn 0.126102 -0.511704 0.849857
vn 0.162695 0.463715 0.870918
vn -0.022080 0.945984 0.323462
vn -0.281292 0.837395 -0.468662
vn -0.371078 0.806091 0.460997
vn -0.371078 0.806091 0.460997
vn -0.391299 0.867368 -0.307502
vn -0.425950 0.394119 -0.814393
vn -0.407322 -0.483908 -0.774547
vn -0.391448 -0.907148 -0.154440
vn -0.398623 -0.750566 0.527020
s 1
g ghost_pTorus1
f 62/1/1 63/2/2 1/3/3 2/4/4
f 64/5/5 62/1/1 2/4/4 3/6/6
f 65/7/7 64/5/5 3/6/6 4/8/8
f 67/9/9 68/10/10 6/11/11 7/12/12
f 69/13/13 67/9/9 7/12/12 8/14/14
f 70/15/15 69/13/13 8/14/14 9/16/16
f 63/2/2 70/15/15 9/16/16 1/3/3
f 2/4/4 1/3/3 10/17/17 11/18/18
f 3/6/6 2/4/4 11/18/18 12/19/19
f 4/8/8 3/6/6 12/19/19 13/20/20
f 7/12/12 6/11/11 15/21/21 16/22/22
f 8/14/14 7/12/12 16/22/22 17/23/23
f 9/16/24 8/14/14 17/24/23 18/25/25
f 1/3/3 9/16/24 18/25/25 10/26/17
f 11/27/18 10/26/17 19/28/26 20/29/27
f 12/19/19 11/18/18 20/30/27 21/31/28
f 13/20/20 12/19/19 21/31/28 22/32/29
f 16/22/22 15/21/21 24/33/30 25/34/31
f 17/24/23 16/35/22 25/36/31 26/37/32
f 18/25/25 17/24/23 26/37/32 27/38/33
f 10/26/17 18/25/25 27/38/33 19/28/26
f 20/29/27 19/28/26 37/39/34 36/40/35
f 21/31/28 20/30/27 36/40/35 38/41/36
f 22/32/29 21/31/28 38/41/36 39/42/37
f 25/34/31 24/33/30 42/43/38 41/44/39
f 26/37/32 25/36/31 41/44/39 43/45/40
f 27/38/33 26/37/32 43/46/40 44/47/41
f 19/28/26 27/38/33 44/47/41 37/48/34
f 36/40/35 37/39/34 46/49/42 45/50/43
f 38/41/36 36/40/35 45/50/43 47/51/44
f 39/42/37 38/41/36 47/51/44 48/52/45
f 41/44/39 42/43/38 51/53/46 50/54/47
f 43/45/40 41/44/39 50/54/47 52/55/48
f 44/47/41 43/46/40 52/55/48 53/56/49
f 46/49/42 37/48/34 44/47/41 53/56/49
f 45/50/43 46/49/42 55/57/50 54/58/51
f 47/51/44 45/50/43 54/58/51 56/59/52
f 48/52/45 47/51/44 56/59/52 57/60/53
f 50/54/47 51/53/46 59/61/54 58/62/55
f 52/55/48 50/54/47 58/62/55 60/63/56
f 53/56/49 52/55/48 60/63/56 61/64/57
f 55/57/50 46/49/42 53/56/49 61/64/57
f 62/1/1 54/58/51 55/57/50 63/2/2
f 64/5/5 56/59/52 54/58/51 62/1/1
f 65/7/7 57/60/53 56/59/52 64/5/5
f 67/9/9 58/62/55 59/61/54 68/10/10
f 69/13/13 60/63/56 58/62/55 67/9/9
f 70/15/15 61/64/57 60/63/56 69/13/13
f 63/2/2 55/57/50 61/64/57 70/15/15
s off
f 85/65/58 86/66/59 87/67/60 88/68/61 89/69/62 90/70/63 91/71/64
f 73/72/65 74/73/66 75/74/67 76/75/68 30/76/69 31/77/70 32/78/71
s 1
f 66/79/72 28/80/73 82/81/74 81/82/75
f 49/83/76 83/84/77 82/85/74 28/86/73
f 40/87/78 84/88/79 83/84/77 49/83/76
f 35/89/80 84/88/79 40/87/78 23/90/81
f 34/91/82 35/89/80 23/90/81 14/92/83
f 33/93/84 34/91/82 14/92/83 5/94/85
f 81/95/75 33/93/84 5/94/85 66/96/72
f 29/97/86 65/98/7 4/99/8 77/100/87
f 77/100/87 4/99/8 13/101/20 78/102/88
f 78/103/88 13/104/20 22/105/29 79/106/89
f 79/106/89 22/105/29 39/107/37 71/108/90
f 71/108/90 39/107/37 48/109/45 72/110/91
f 72/110/91 48/109/45 57/111/53 80/112/92
f 57/111/53 65/98/7 29/97/86 80/112/92
f 81/113/75 82/114/74 74/115/93 73/116/94
f 82/117/74 83/118/77 75/119/95 74/120/93
f 83/118/77 84/121/79 76/122/96 75/119/95
f 76/122/96 84/121/79 35/123/80 30/76/97
f 30/76/97 35/123/80 34/124/82 31/125/98
f 31/125/98 34/124/82 33/126/84 32/127/99
f 32/127/99 33/126/84 81/113/75 73/116/100
f 59/61/54 51/53/46 49/83/76 28/128/73
f 51/53/46 42/43/38 40/87/78 49/83/76
f 42/43/38 24/33/30 23/90/81 40/87/78
f 24/33/30 15/21/21 14/92/83 23/90/81
f 15/21/21 6/11/11 5/94/85 14/92/83
f 6/11/11 68/10/10 66/129/72 5/94/85
f 68/10/10 59/61/54 28/128/73 66/129/72
f 85/65/101 29/130/86 77/131/87 86/66/102
f 86/66/102 77/131/87 78/132/88 87/67/103
f 87/67/103 78/132/88 79/133/89 88/68/104
f 88/68/104 79/133/89 71/134/90 89/69/105
f 89/69/105 71/134/90 72/135/91 90/70/106
f 90/70/106 72/135/91 80/136/92 91/71/107
f 80/136/92 29/130/86 85/65/101 91/71/107
