# This file uses centimeters as units for non-parametric coordinates.

v 1.560248 1.049745 -0.538298
v 1.194162 1.597632 -0.538298
v 0.646277 1.963717 -0.538298
v 0.000001 2.092270 -0.538298
v -0.646275 1.963719 -0.538298
v -1.194161 1.597633 -0.538298
v -1.560247 1.049747 -0.538298
v -1.688800 0.403471 -0.538298
v 1.688800 0.403471 -0.538298
v 1.560248 1.049745 0.538298
v 1.194162 1.597632 0.538298
v 0.646277 1.963717 0.538298
v 0.000001 2.092270 0.538298
v -0.646275 1.963719 0.538298
v -1.194161 1.597633 0.538298
v -1.560247 1.049747 0.538298
v -1.688800 0.403471 0.538298
v 1.688800 0.403471 0.538298
v 0.000000 0.403471 -0.538298
v 0.000000 0.403471 0.538298
v 0.944997 0.403471 0.248298
v 0.944997 0.403471 -0.248298
v 1.474596 0.403471 -0.248298
v 1.474596 0.403471 0.248298
v -1.474596 0.403471 -0.248298
v -1.474596 0.403471 0.248298
v -0.944997 0.403471 -0.248298
v -0.944997 0.403471 0.248298
v 0.878797 0.000000 0.310373
v 0.878797 0.000000 -0.310373
v 1.540795 0.000000 -0.310373
v 1.540795 0.000000 0.310373
v -1.540795 0.000000 -0.310373
v -1.540795 0.000000 0.310373
v -0.878797 0.000000 -0.310373
v -0.878797 0.000000 0.310373
v 1.428371 0.995120 0.538298
v 1.093228 1.496697 0.538298
v 0.000000 0.543471 0.538298
v 0.591651 1.831840 0.538298
v 0.000001 1.949528 0.538298
v -0.591650 1.831842 0.538298
v -1.093227 1.496698 0.538298
v -1.428370 0.995122 0.538298
v -1.518210 0.543471 0.538298
v 1.518210 0.543471 0.538298
v 1.390692 0.979513 0.578298
v 1.064390 1.467859 0.578298
v 0.000000 0.583471 0.578298
v 0.576044 1.794161 0.578298
v 0.000001 1.908745 0.578298
v -0.576043 1.794163 0.578298
v -1.064389 1.467860 0.578298
v -1.390691 0.979514 0.578298
v -1.469469 0.583471 0.578298
v 1.469469 0.583471 0.578298
v 1.258815 0.924888 0.578298
v 0.963455 1.366925 0.578298
v 0.000000 0.723471 0.578298
v 0.521419 1.662284 0.578298
v 0.000001 1.766002 0.578298
v -0.521417 1.662286 0.578298
v -0.963455 1.366926 0.578298
v -1.258814 0.924889 0.578298
v -1.298879 0.723471 0.578298
v 1.298879 0.723471 0.578298
v 1.221136 0.909281 0.538298
v 0.934617 1.338086 0.538298
v 0.000000 0.763471 0.538298
v 0.505812 1.624605 0.538298
v 0.000000 1.725218 0.538298
v -0.505810 1.624606 0.538298
v -0.934616 1.338087 0.538298
v -1.221135 0.909282 0.538298
v -1.250139 0.763471 0.538298
v 1.250139 0.763471 0.538298
v 1.134284 0.949265 0.538298
v 0.919791 1.270277 0.538298
v 0.220120 0.840109 0.538298
v -0.522087 1.553596 0.538298
v -0.841998 1.339838 0.538298
v -0.144728 0.911146 0.538298
v 1.082173 0.973256 0.578298
v 0.910896 1.229592 0.578298
v 0.352191 0.886092 0.578298
v -0.531854 1.510989 0.578298
v -0.786427 1.340889 0.578298
v -0.231565 0.999751 0.578298
vt 0.308567 0.641808
vt 0.323997 0.631499
vt 0.342198 0.675439
vt 0.342198 0.627878
vt 0.298257 0.657238
vt 0.294637 0.675439
vt 0.298257 0.693640
vt 0.308567 0.709070
vt 0.323997 0.719380
vt 0.342198 0.723000
vt 0.747087 0.629567
vt 0.754306 0.634391
vt 0.744632 0.650125
vt 0.271739 0.737416
vt 0.279808 0.749492
vt 0.255556 0.763737
vt 0.282641 0.763737
vt 0.257714 0.757538
vt 0.269829 0.737833
vt 0.279808 0.777982
vt 0.259662 0.729347
vt 0.260789 0.731793
vt 0.277808 0.778440
vt 0.259715 0.767813
vt 0.255556 0.728530
vt 0.271739 0.790058
vt 0.271788 0.787450
vt 0.259662 0.798127
vt 0.255556 0.798944
vt 0.685986 0.837735
vt 0.681196 0.844905
vt 0.671588 0.829279
vt 0.634422 0.845582
vt 0.634422 0.830667
vt 0.645785 0.828803
vt 0.645785 0.847447
vt 0.662534 0.831133
vt 0.662534 0.846048
vt 0.651171 0.847912
vt 0.651171 0.829268
vt 0.667920 0.845582
vt 0.667920 0.830667
vt 0.679282 0.828803
vt 0.679282 0.847447
vt 0.695566 0.831133
vt 0.695566 0.846048
vt 0.684203 0.847912
vt 0.684203 0.829268
vt 0.312838 0.719895
vt 0.328268 0.730205
vt 0.325425 0.733048
vt 0.311299 0.723609
vt 0.338577 0.745635
vt 0.334863 0.747174
vt 0.294637 0.716275
vt 0.298580 0.721079
vt 0.342198 0.763836
vt 0.338178 0.763836
vt 0.294637 0.763836
vt 0.298580 0.763836
vt 0.338577 0.782037
vt 0.334863 0.780498
vt 0.294637 0.811397
vt 0.298580 0.806593
vt 0.328268 0.797466
vt 0.325425 0.794624
vt 0.312838 0.807776
vt 0.311299 0.804062
vt 0.808359 0.720434
vt 0.822112 0.729624
vt 0.819269 0.732466
vt 0.806821 0.724148
vt 0.831302 0.743377
vt 0.827588 0.744915
vt 0.797205 0.718215
vt 0.801148 0.723020
vt 0.834529 0.759599
vt 0.830508 0.759599
vt 0.797205 0.759599
vt 0.801148 0.759599
vt 0.831302 0.775822
vt 0.827588 0.774284
vt 0.797205 0.800983
vt 0.801148 0.796179
vt 0.822112 0.789575
vt 0.819269 0.786733
vt 0.808359 0.798765
vt 0.806821 0.795051
vt 0.271526 0.628314
vt 0.289726 0.628314
vt 0.289726 0.723436
vt 0.271526 0.723436
vt 0.256096 0.628314
vt 0.256096 0.723436
vt 0.245786 0.628314
vt 0.245786 0.723436
vt 0.155528 0.628314
vt 0.173729 0.628314
vt 0.173729 0.723436
vt 0.155528 0.723436
vt 0.189158 0.628314
vt 0.189158 0.723436
vt 0.199468 0.628314
vt 0.199468 0.723436
vt 0.856345 0.836457
vt 0.856345 0.792581
vt 0.867708 0.787096
vt 0.867708 0.841942
vt 0.823510 0.806538
vt 0.823510 0.850414
vt 0.812147 0.855899
vt 0.812147 0.801053
vt 0.840062 0.848088
vt 0.840062 0.804212
vt 0.851424 0.798728
vt 0.851424 0.853573
vt 0.807226 0.818169
vt 0.807226 0.862045
vt 0.795863 0.867530
vt 0.795863 0.812684
vt 0.804927 0.828793
vt 0.804927 0.841512
vt 0.801393 0.840386
vt 0.801393 0.829232
vt 0.804927 0.814667
vt 0.801393 0.815479
vt 0.804927 0.805228
vt 0.801393 0.806290
vt 0.710669 0.840117
vt 0.710669 0.827397
vt 0.714203 0.827837
vt 0.714203 0.838990
vt 0.710669 0.813271
vt 0.714203 0.814084
vt 0.710669 0.803833
vt 0.714203 0.804894
vt 0.818884 0.650402
vt 0.818884 0.656074
vt 0.815350 0.654948
vt 0.815350 0.650841
vt 0.818884 0.637953
vt 0.815350 0.638765
vt 0.818884 0.629635
vt 0.815350 0.630696
vt 0.805580 0.656539
vt 0.805580 0.650867
vt 0.809114 0.651306
vt 0.809114 0.655413
vt 0.805580 0.638418
vt 0.809114 0.639230
vt 0.805580 0.630100
vt 0.809114 0.631161
vt 0.744632 0.834278
vt 0.744632 0.816185
vt 0.748166 0.817384
vt 0.748166 0.831782
vt 0.744632 0.822204
vt 0.748166 0.822175
vt 0.204379 0.628314
vt 0.222579 0.628314
vt 0.222579 0.723436
vt 0.204379 0.723436
vt 0.240780 0.628314
vt 0.240780 0.723436
vt 0.840527 0.715394
vt 0.840527 0.660549
vt 0.859170 0.660549
vt 0.859170 0.715394
vt 0.749803 0.853108
vt 0.749803 0.798262
vt 0.768447 0.798262
vt 0.768447 0.853108
vt 0.203089 0.823930
vt 0.203089 0.728808
vt 0.229702 0.754431
vt 0.229702 0.798307
vt 0.176475 0.798307
vt 0.176475 0.754431
vt 0.250650 0.728808
vt 0.244617 0.754431
vt 0.250650 0.823930
vt 0.244617 0.798307
vt 0.155528 0.823930
vt 0.161560 0.798307
vt 0.155528 0.728808
vt 0.161560 0.754431
vt 0.760728 0.814617
vt 0.760728 0.831279
vt 0.757194 0.831279
vt 0.757194 0.815056
vt 0.760728 0.847941
vt 0.757194 0.847502
vt 0.797205 0.713526
vt 0.797205 0.670769
vt 0.800740 0.670769
vt 0.800740 0.712153
vt 0.797205 0.628013
vt 0.800740 0.629385
vt 0.838890 0.630496
vt 0.838890 0.645181
vt 0.835356 0.645181
vt 0.835356 0.630936
vt 0.838890 0.659865
vt 0.835356 0.659426
vt 0.835356 0.738055
vt 0.835356 0.701476
vt 0.838890 0.701476
vt 0.838890 0.736683
vt 0.835356 0.664896
vt 0.838890 0.666269
vt 0.823725 0.656192
vt 0.823725 0.630447
vt 0.827259 0.631915
vt 0.827259 0.652473
vt 0.823725 0.636488
vt 0.827259 0.636738
vn 0.923880 0.382683 -0.000000
vn 0.707107 0.707107 -0.000000
vn 0.707107 0.707107 -0.000000
vn 0.923880 0.382683 -0.000000
vn 0.382684 0.923879 -0.000000
vn 0.382684 0.923879 -0.000000
vn 0.000001 1.000000 -0.000000
vn 0.000001 1.000000 -0.000000
vn -0.382683 0.923880 -0.000000
vn -0.382683 0.923880 -0.000000
vn -0.707107 0.707107 -0.000000
vn -0.707107 0.707107 -0.000000
vn -0.923879 0.382684 -0.000000
vn -0.923879 0.382684 -0.000000
vn -0.980785 0.195091 -0.000000
vn -0.980785 0.195091 -0.000000
vn 0.980785 0.195090 -0.000000
vn 0.980785 0.195090 -0.000000
vn 0.000000 -0.000000 -1.000000
vn 0.000000 -0.000000 -1.000000
vn 0.000000 -0.000000 -1.000000
vn 0.000000 -0.000000 -1.000000
vn 0.000000 -0.000000 -1.000000
vn 0.000000 -0.000000 -1.000000
vn 0.000000 -0.000000 -1.000000
vn 0.000000 -0.000000 -1.000000
vn 0.000000 -0.000000 -1.000000
vn 0.000000 -0.000000 -1.000000
vn 0.000000 0.000000 1.000000
vn 0.000000 0.000000 1.000000
vn 0.000000 0.000000 1.000000
vn 0.000000 -0.000000 1.000000
vn 0.000000 -0.000000 1.000000
vn 0.000000 -0.000000 1.000000
vn 0.000000 -0.000000 1.000000
vn 0.000000 -0.000000 1.000000
vn 0.000000 0.000000 1.000000
vn 0.000000 0.000000 1.000000
vn 0.000000 0.000000 1.000000
vn 0.000000 0.000000 1.000000
vn 0.000000 0.000000 1.000000
vn 0.000000 0.000000 1.000000
vn 0.000000 0.000000 1.000000
vn 0.000000 -0.000000 1.000000
vn 0.000000 -1.000000 0.000000
vn 0.000000 -1.000000 0.000000
vn 0.000000 -1.000000 0.000000
vn 0.000000 -1.000000 0.000000
vn -0.000000 -1.000000 0.000000
vn -0.000000 -1.000000 0.000000
vn -0.000000 -1.000000 0.000000
vn -0.000000 -1.000000 0.000000
vn -0.000000 -1.000000 0.000000
vn -0.000000 -1.000000 -0.000000
vn 0.000000 -1.000000 0.000000
vn 0.000000 -1.000000 0.000000
vn -0.000000 -1.000000 0.000000
vn -0.000000 -1.000000 0.000000
vn -0.000000 -1.000000 0.000000
vn -0.000000 -1.000000 0.000000
vn -0.000000 -1.000000 0.000000
vn -0.000000 -1.000000 -0.000000
vn -0.000001 -1.000000 -0.000000
vn -0.000000 -1.000000 0.000000
vn -0.000000 -1.000000 -0.000000
vn -0.000000 -1.000000 0.000000
vn -0.986805 0.161911 -0.000000
vn -0.986805 0.161911 -0.000000
vn -0.986805 0.161911 -0.000000
vn -0.986805 0.161911 -0.000000
vn 0.000000 0.152062 -0.988371
vn 0.000000 0.152062 -0.988371
vn 0.000000 0.152062 -0.988371
vn 0.000000 0.152062 -0.988371
vn 0.986805 0.161911 -0.000000
vn 0.986805 0.161911 -0.000000
vn 0.986805 0.161911 -0.000000
vn 0.986805 0.161911 -0.000000
vn 0.000000 0.152062 0.988371
vn 0.000000 0.152062 0.988371
vn 0.000000 0.152062 0.988371
vn 0.000000 0.152062 0.988371
vn -0.986805 0.161911 -0.000000
vn -0.986805 0.161911 -0.000000
vn -0.986805 0.161911 -0.000000
vn -0.986805 0.161911 -0.000000
vn 0.000000 0.152062 -0.988371
vn 0.000000 0.152062 -0.988371
vn 0.000000 0.152062 -0.988371
vn 0.000000 0.152062 -0.988371
vn 0.986805 0.161910 -0.000000
vn 0.986805 0.161910 -0.000000
vn 0.986805 0.161910 -0.000000
vn 0.986805 0.161910 -0.000000
vn -0.000000 0.152062 0.988371
vn -0.000000 0.152062 0.988371
vn -0.000000 0.152062 0.988371
vn -0.000000 0.152062 0.988371
vn 0.000000 0.000000 1.000000
vn 0.000000 0.000000 1.000000
vn 0.000000 0.000000 1.000000
vn 0.000000 0.000000 1.000000
vn 0.000000 0.000000 1.000000
vn 0.000000 0.000000 1.000000
vn 0.000000 -0.000000 1.000000
vn 0.000000 -0.000000 1.000000
vn 0.000000 -0.000000 1.000000
vn 0.000000 -0.000000 1.000000
vn 0.000000 0.000000 1.000000
vn 0.000000 0.000000 1.000000
vn 0.000000 0.000000 1.000000
vn 0.000000 0.000000 1.000000
vn 0.000000 0.000000 1.000000
vn 0.000000 0.000000 1.000000
vn 0.000000 -0.000000 1.000000
vn 0.000000 -0.000000 1.000000
vn 0.000000 -0.000000 1.000000
vn 0.000000 -0.000000 1.000000
vn 0.638296 0.288322 0.713757
vn 0.495128 0.495127 0.713931
vn 0.495128 0.495127 0.713931
vn 0.638296 0.288322 0.713757
vn 0.267962 0.646916 0.713930
vn 0.267962 0.646916 0.713930
vn 0.000001 0.700217 0.713930
vn 0.000001 0.700217 0.713930
vn -0.267961 0.646915 0.713931
vn -0.267961 0.646915 0.713931
vn -0.495126 0.495127 0.713932
vn -0.495126 0.495127 0.713932
vn -0.638295 0.288322 0.713758
vn -0.638295 0.288322 0.713758
vn -0.693520 0.137950 0.707106
vn -0.693520 0.137950 0.707106
vn -0.000000 -0.707107 0.707107
vn -0.000000 -0.707107 0.707107
vn -0.000000 -0.707107 0.707107
vn -0.000000 -0.707107 0.707107
vn 0.693521 0.137950 0.707105
vn 0.693521 0.137950 0.707106
vn 0.000000 -0.707107 0.707107
vn 0.000000 -0.707107 0.707107
vn 0.000000 0.000000 1.000000
vn 0.000000 0.000000 1.000000
vn 0.000000 0.000000 1.000000
vn 0.000000 0.000000 1.000000
vn 0.000000 -0.000000 1.000000
vn 0.000000 -0.000000 1.000000
vn 0.000000 -0.000000 1.000000
vn 0.000000 -0.000000 1.000000
vn 0.000000 0.000000 1.000000
vn 0.000000 0.000000 1.000000
vn 0.000000 -0.000000 1.000000
vn 0.000000 -0.000000 1.000000
vn 0.000000 0.000000 1.000000
vn 0.000000 0.000000 1.000000
vn 0.000000 0.000000 1.000000
vn 0.000000 0.000000 1.000000
vn 0.000000 0.000000 1.000000
vn 0.000000 0.000000 1.000000
vn 0.000000 0.000000 1.000000
vn 0.000000 0.000000 1.000000
vn -0.619077 -0.330839 0.712242
vn -0.495128 -0.495127 0.713931
vn -0.495128 -0.495127 0.713931
vn -0.619077 -0.330839 0.712242
vn -0.267961 -0.646914 0.713932
vn -0.267961 -0.646914 0.713932
vn -0.000001 -0.700215 0.713932
vn -0.000001 -0.700215 0.713932
vn 0.267961 -0.646914 0.713932
vn 0.267961 -0.646914 0.713932
vn 0.495127 -0.495127 0.713932
vn 0.495127 -0.495127 0.713932
vn 0.619077 -0.330840 0.712242
vn 0.619077 -0.330840 0.712242
vn 0.693521 -0.137951 0.707106
vn 0.693521 -0.137951 0.707105
vn 0.000000 0.707106 0.707107
vn 0.000000 0.707106 0.707107
vn 0.000000 0.707106 0.707107
vn 0.000000 0.707106 0.707107
vn -0.693521 -0.137950 0.707106
vn -0.693521 -0.137950 0.707106
vn 0.000000 0.707106 0.707107
vn 0.000000 0.707106 0.707107
vn 0.000000 0.000000 1.000000
vn 0.000000 -0.000000 1.000000
vn 0.000000 -0.000000 1.000000
vn 0.000000 0.000000 1.000000
vn 0.000000 0.000000 1.000000
vn 0.000000 0.000000 1.000000
vn 0.665175 0.444456 0.600001
vn 0.665175 0.444456 0.600000
vn 0.665175 0.444456 0.600001
vn 0.665175 0.444456 0.600001
vn -0.418995 0.681499 0.600002
vn -0.418995 0.681499 0.600002
vn -0.418995 0.681499 0.600002
vn -0.418995 0.681499 0.600002
vn 0.094851 -0.794357 0.600000
vn 0.094851 -0.794357 0.600000
vn 0.094851 -0.794357 0.600000
vn 0.094851 -0.794357 0.600000
vn -0.444456 0.665176 0.600000
vn -0.444456 0.665176 0.600000
vn -0.444456 0.665176 0.600000
vn -0.444456 0.665176 0.600000
vn -0.418996 -0.681499 0.600001
vn -0.418996 -0.681499 0.600001
vn -0.418996 -0.681500 0.600001
vn -0.418996 -0.681499 0.600001
vn 0.689806 0.405175 0.600001
vn 0.689806 0.405175 0.600001
vn 0.689806 0.405175 0.600001
vn 0.689806 0.405175 0.600001
g pCylinder1
f 1/98/1 2/101/2 11/102/3 10/99/4
f 2/101/2 3/103/5 12/104/6 11/102/3
f 3/159/5 4/160/7 13/161/8 12/162/6
f 4/160/7 5/163/9 14/164/10 13/161/8
f 5/95/9 6/93/11 15/94/12 14/96/10
f 6/93/11 7/89/13 16/92/14 15/94/12
f 7/89/13 8/90/15 17/91/16 16/92/14
f 9/97/17 1/98/1 10/99/4 18/100/18
f 2/1/19 1/2/20 19/3/21
f 3/5/22 2/1/19 19/3/21
f 4/6/23 3/5/22 19/3/21
f 5/7/24 4/6/23 19/3/21
f 6/8/25 5/7/24 19/3/21
f 7/9/26 6/8/25 19/3/21
f 8/10/27 7/9/26 19/3/21
f 1/2/20 9/4/28 19/3/21
f 83/11/29 84/12/30 85/13/31
f 68/14/32 70/15/33 69/16/34
f 70/15/33 71/17/35 69/16/34
f 71/17/35 72/20/36 69/16/34
f 86/30/37 87/31/38 88/32/39
f 73/26/40 74/28/41 69/16/34
f 74/28/41 75/29/42 69/16/34
f 76/25/43 67/21/44 69/16/34
f 29/165/45 30/166/46 31/167/47 32/168/48
f 34/169/49 33/170/50 35/171/51 36/172/52
f 20/173/53 19/174/54 22/175/55 21/176/56
f 19/174/54 9/179/57 23/180/58 22/175/55
f 9/179/57 18/181/59 24/182/60 23/180/58
f 18/181/59 20/173/53 21/176/56 24/182/60
f 17/183/61 8/185/62 25/186/63 26/184/64
f 8/185/62 19/174/54 27/178/65 25/186/63
f 19/174/54 20/173/53 28/177/66 27/178/65
f 20/173/53 17/183/61 26/184/64 28/177/66
f 21/105/67 22/106/68 30/107/69 29/108/70
f 22/33/71 23/34/72 31/35/73 30/36/74
f 23/109/75 24/110/76 32/111/77 31/112/78
f 24/37/79 21/38/80 29/39/81 32/40/82
f 26/113/83 25/114/84 33/115/85 34/116/86
f 25/41/87 27/42/88 35/43/89 33/44/90
f 27/117/91 28/118/92 36/119/93 35/120/94
f 28/45/95 26/46/96 34/47/97 36/48/98
f 10/49/99 11/50/100 38/51/101 37/52/102
f 11/50/100 12/53/103 40/54/104 38/51/101
f 12/53/103 13/57/105 41/58/106 40/54/104
f 13/57/105 14/61/107 42/62/108 41/58/106
f 14/61/107 15/65/109 43/66/110 42/62/108
f 15/65/109 16/67/111 44/68/112 43/66/110
f 16/67/111 17/63/113 45/64/114 44/68/112
f 17/63/113 20/59/115 39/60/116 45/64/114
f 18/55/117 10/49/99 37/52/102 46/56/118
f 20/59/115 18/55/117 46/56/118 39/60/116
f 37/130/119 38/133/120 48/134/121 47/131/122
f 38/133/120 40/135/123 50/136/124 48/134/121
f 40/187/123 41/188/125 51/189/126 50/190/124
f 41/188/125 42/191/127 52/192/128 51/189/126
f 42/127/127 43/125/129 53/126/130 52/128/128
f 43/125/129 44/121/131 54/124/132 53/126/130
f 44/121/131 45/122/133 55/123/134 54/124/132
f 45/193/135 39/194/136 49/195/137 55/196/138
f 46/129/139 37/130/119 47/131/122 56/132/140
f 39/194/136 46/197/141 56/198/142 49/195/137
f 47/69/143 48/70/144 58/71/145 57/72/146
f 48/70/144 50/73/147 60/74/148 58/71/145
f 50/73/147 51/77/149 61/78/150 60/74/148
f 51/77/149 52/81/151 62/82/152 61/78/150
f 52/81/151 53/85/153 63/86/154 62/82/152
f 53/85/153 54/87/155 64/88/156 63/86/154
f 54/87/155 55/83/157 65/84/158 64/88/156
f 55/83/157 49/79/159 59/80/160 65/84/158
f 56/75/161 47/69/143 57/72/146 66/76/162
f 49/79/159 56/75/161 66/76/162 59/80/160
f 57/146/163 58/149/164 68/150/165 67/147/166
f 58/149/164 60/151/167 70/152/168 68/150/165
f 60/199/167 61/200/169 71/201/170 70/202/168
f 61/200/169 62/203/171 72/204/172 71/201/170
f 62/143/171 63/141/173 73/142/174 72/144/172
f 63/141/173 64/137/175 74/140/176 73/142/174
f 64/137/175 65/138/177 75/139/178 74/140/176
f 65/205/179 59/206/180 69/207/181 75/208/182
f 66/145/183 57/146/163 67/147/166 76/148/184
f 59/206/180 66/209/185 76/210/186 69/207/181
f 67/21/44 68/14/32 78/19/187 77/22/188
f 68/14/32 69/16/34 79/18/189 78/19/187
f 69/16/34 67/21/44 77/22/188 79/18/189
f 72/20/36 73/26/40 81/27/190 80/23/191
f 73/26/40 69/16/34 82/24/192 81/27/190
f 69/16/34 72/20/36 80/23/191 82/24/192
f 77/212/193 78/215/194 84/216/195 83/213/196
f 78/215/197 79/211/198 85/214/199 84/216/200
f 79/211/201 77/212/202 83/213/203 85/214/204
f 80/154/205 81/157/206 87/158/207 86/155/208
f 81/157/209 82/153/210 88/156/211 87/158/212
f 82/153/213 80/154/214 86/155/215 88/156/216
