# This file uses centimeters as units for non-parametric coordinates.

g default
v 0.497095 0.000000 -0.361161
v 0.189873 0.000000 -0.584370
v -0.189873 0.000000 -0.584370
v -0.497095 0.000000 -0.361161
v -0.614443 0.000000 0.000000
v -0.497095 0.000000 0.361161
v -0.189873 0.000000 0.584370
v 0.189873 0.000000 0.584370
v 0.497095 0.000000 0.361161
v 0.614443 0.000000 0.000000
v 0.497095 1.609580 -0.361161
v 0.189873 1.609580 -0.584370
v -0.189873 1.609580 -0.584370
v -0.497095 1.609580 -0.361161
v -0.614443 1.609580 0.000000
v -0.497095 1.609580 0.361161
v -0.189873 1.609580 0.584370
v 0.189873 1.609580 0.584370
v 0.497095 1.609580 0.361161
v 0.614443 1.609580 0.000000
v 0.428027 1.609580 -0.310980
v 0.163492 1.609580 -0.503176
v -0.163492 1.609580 -0.503176
v -0.428027 1.609580 -0.310980
v -0.529070 1.609580 0.000000
v -0.428027 1.609580 0.310980
v -0.163492 1.609580 0.503176
v 0.163492 1.609580 0.503176
v 0.428027 1.609580 0.310980
v 0.529070 1.609580 0.000000
v 0.000000 0.000000 0.000000
v 0.428027 0.046838 -0.310980
v 0.163492 0.046838 -0.503175
v 0.000000 0.046838 0.000000
v -0.163492 0.046838 -0.503176
v -0.428027 0.046838 -0.310979
v -0.529070 0.046838 0.000001
v -0.428027 0.046838 0.310980
v -0.163492 0.046838 0.503176
v 0.163492 0.046838 0.503176
v 0.428027 0.046838 0.310980
v 0.529070 0.046838 0.000000
vt 0.626409 0.064409
vt 0.548284 0.007647
vt 0.451716 0.007647
vt 0.373591 0.064409
vt 0.343750 0.156250
vt 0.373591 0.248091
vt 0.451716 0.304853
vt 0.548284 0.304853
vt 0.626409 0.248091
vt 0.656250 0.156250
vt 0.375000 0.312500
vt 0.400000 0.312500
vt 0.425000 0.312500
vt 0.450000 0.312500
vt 0.475000 0.312500
vt 0.500000 0.312500
vt 0.525000 0.312500
vt 0.550000 0.312500
vt 0.575000 0.312500
vt 0.600000 0.312500
vt 0.625000 0.312500
vt 0.375000 0.688440
vt 0.400000 0.688440
vt 0.425000 0.688440
vt 0.450000 0.688440
vt 0.475000 0.688440
vt 0.500000 0.688440
vt 0.525000 0.688440
vt 0.550000 0.688440
vt 0.575000 0.688440
vt 0.600000 0.688440
vt 0.625000 0.688440
vt 0.626409 0.751909
vt 0.548284 0.695147
vt 0.451716 0.695147
vt 0.373591 0.751909
vt 0.343750 0.843750
vt 0.373591 0.935591
vt 0.451716 0.992353
vt 0.548284 0.992353
vt 0.626409 0.935591
vt 0.656250 0.843750
vt 0.563204 0.797829
vt 0.524142 0.769449
vt 0.475858 0.769449
vt 0.436796 0.797829
vt 0.421875 0.843750
vt 0.436796 0.889671
vt 0.475858 0.918051
vt 0.524142 0.918051
vt 0.563204 0.889671
vt 0.578125 0.843750
vt 0.500000 0.150000
vt 0.500000 0.837500
vt 0.563204 0.889671
vt 0.524142 0.918051
vt 0.475858 0.918051
vt 0.436796 0.889671
vt 0.421875 0.843750
vt 0.436796 0.797829
vt 0.475858 0.769449
vt 0.524142 0.769449
vt 0.563204 0.797829
vt 0.578125 0.843750
vn 0.000000 -1.000000 -0.000000
vn 0.000000 -1.000000 -0.000000
vn 0.000000 -1.000000 -0.000000
vn 0.000000 -1.000000 -0.000000
vn 0.000000 -1.000000 0.000000
vn 0.000000 -1.000000 0.000000
vn 0.000000 -1.000000 -0.000000
vn 0.000000 -1.000000 -0.000000
vn 0.000000 -1.000000 0.000000
vn 0.000000 -1.000000 0.000000
vn 0.000000 -1.000000 0.000000
vn 0.587785 0.000000 -0.809017
vn 0.587785 0.000000 -0.809017
vn 0.587785 0.000000 -0.809017
vn 0.587785 0.000000 -0.809017
vn -0.000000 0.000000 -1.000000
vn -0.000000 0.000000 -1.000000
vn -0.000000 0.000000 -1.000000
vn -0.000000 0.000000 -1.000000
vn -0.587785 0.000000 -0.809017
vn -0.587785 0.000000 -0.809017
vn -0.587785 0.000000 -0.809017
vn -0.587785 0.000000 -0.809017
vn -0.951057 0.000000 -0.309017
vn -0.951057 0.000000 -0.309017
vn -0.951057 0.000000 -0.309017
vn -0.951057 0.000000 -0.309017
vn -0.951057 0.000000 0.309017
vn -0.951057 0.000000 0.309017
vn -0.951057 0.000000 0.309017
vn -0.951057 0.000000 0.309017
vn -0.587785 0.000000 0.809017
vn -0.587785 0.000000 0.809017
vn -0.587785 0.000000 0.809017
vn -0.587785 0.000000 0.809017
vn 0.000000 0.000000 1.000000
vn 0.000000 0.000000 1.000000
vn 0.000000 0.000000 1.000000
vn 0.000000 0.000000 1.000000
vn 0.587785 0.000000 0.809017
vn 0.587785 0.000000 0.809017
vn 0.587785 0.000000 0.809017
vn 0.587785 0.000000 0.809017
vn 0.951057 0.000000 0.309017
vn 0.951057 0.000000 0.309017
vn 0.951057 0.000000 0.309017
vn 0.951057 0.000000 0.309017
vn 0.951057 0.000000 -0.309017
vn 0.951057 0.000000 -0.309017
vn 0.951057 0.000000 -0.309017
vn 0.951057 0.000000 -0.309017
vn 0.000000 1.000000 0.000000
vn 0.000000 1.000000 0.000000
vn 0.000000 1.000000 0.000000
vn 0.000000 1.000000 0.000000
vn 0.000000 1.000000 0.000000
vn 0.000000 1.000000 0.000000
vn 0.000000 1.000000 0.000000
vn 0.000000 1.000000 0.000000
vn 0.000000 1.000000 0.000000
vn 0.000000 1.000000 0.000000
vn 0.000000 1.000000 -0.000000
vn 0.000000 1.000000 -0.000000
vn 0.000000 1.000000 -0.000000
vn 0.000000 1.000000 -0.000000
vn 0.000000 1.000000 -0.000000
vn 0.000000 1.000000 -0.000000
vn 0.000000 1.000000 -0.000000
vn 0.000000 1.000000 -0.000000
vn 0.000000 1.000000 0.000000
vn 0.000000 1.000000 0.000000
vn 0.000000 1.000000 0.000000
vn 0.000000 1.000000 0.000000
vn 0.000000 1.000000 0.000000
vn 0.000000 1.000000 0.000000
vn 0.000000 1.000000 0.000000
vn 0.000000 1.000000 0.000000
vn 0.000000 1.000000 0.000000
vn 0.000000 1.000000 0.000000
vn 0.000000 1.000000 -0.000000
vn 0.000000 1.000000 -0.000000
vn 0.000000 1.000000 0.000000
vn -0.587785 0.000000 0.809017
vn -0.587785 0.000000 0.809017
vn -0.587785 0.000000 0.809017
vn -0.587785 0.000000 0.809017
vn -0.000000 0.000000 1.000000
vn -0.000000 0.000000 1.000000
vn -0.000000 0.000000 1.000000
vn -0.000000 0.000000 1.000000
vn 0.587785 0.000000 0.809017
vn 0.587785 0.000000 0.809017
vn 0.587785 0.000000 0.809017
vn 0.587785 0.000000 0.809017
vn 0.951057 0.000000 0.309017
vn 0.951057 0.000000 0.309017
vn 0.951057 0.000000 0.309017
vn 0.951057 0.000000 0.309017
vn 0.951056 -0.000000 -0.309017
vn 0.951056 -0.000000 -0.309017
vn 0.951056 -0.000000 -0.309017
vn 0.951056 -0.000000 -0.309017
vn 0.587785 0.000000 -0.809017
vn 0.587785 0.000000 -0.809017
vn 0.587785 0.000000 -0.809017
vn 0.587785 0.000000 -0.809017
vn -0.000000 0.000000 -1.000000
vn -0.000000 0.000000 -1.000000
vn -0.000000 0.000000 -1.000000
vn -0.000000 0.000000 -1.000000
vn -0.587785 0.000000 -0.809017
vn -0.587785 0.000000 -0.809017
vn -0.587785 0.000000 -0.809017
vn -0.587785 0.000000 -0.809017
vn -0.951057 0.000000 -0.309017
vn -0.951057 0.000000 -0.309017
vn -0.951057 0.000000 -0.309017
vn -0.951057 0.000000 -0.309017
vn -0.951057 0.000000 0.309017
vn -0.951057 0.000000 0.309017
vn -0.951057 0.000000 0.309017
vn -0.951057 0.000000 0.309017
s 1
g pCylinder1
f 2/2/1 1/1/2 31/53/3
f 3/3/4 2/2/1 31/53/3
f 4/4/5 3/3/4 31/53/3
f 5/5/6 4/4/5 31/53/3
f 6/6/7 5/5/6 31/53/3
f 7/7/8 6/6/7 31/53/3
f 8/8/9 7/7/8 31/53/3
f 9/9/10 8/8/9 31/53/3
f 10/10/11 9/9/10 31/53/3
f 1/1/2 10/10/11 31/53/3
s off
f 2/12/12 12/23/13 11/22/14 1/11/15
f 3/13/16 13/24/17 12/23/18 2/12/19
f 4/14/20 14/25/21 13/24/22 3/13/23
f 5/15/24 15/26/25 14/25/26 4/14/27
f 6/16/28 16/27/29 15/26/30 5/15/31
f 7/17/32 17/28/33 16/27/34 6/16/35
f 8/18/36 18/29/37 17/28/38 7/17/39
f 9/19/40 19/30/41 18/29/42 8/18/43
f 10/20/44 20/31/45 19/30/46 9/19/47
f 1/21/48 11/32/49 20/31/50 10/20/51
s 2
f 11/41/52 12/40/53 22/50/54 21/51/55
f 12/40/53 13/39/56 23/49/57 22/50/54
f 13/39/56 14/38/58 24/48/59 23/49/57
f 14/38/58 15/37/60 25/47/61 24/48/59
f 15/37/60 16/36/62 26/46/63 25/47/61
f 16/36/62 17/35/64 27/45/65 26/46/63
f 17/35/64 18/34/66 28/44/67 27/45/65
f 18/34/66 19/33/68 29/43/69 28/44/67
f 19/33/68 20/42/70 30/52/71 29/43/69
f 20/42/70 11/41/52 21/51/55 30/52/71
s 3
f 32/55/72 33/56/73 34/54/74
f 33/56/73 35/57/75 34/54/74
f 35/57/75 36/58/76 34/54/74
f 36/58/76 37/59/77 34/54/74
f 37/59/77 38/60/78 34/54/74
f 38/60/78 39/61/79 34/54/74
f 39/61/79 40/62/80 34/54/74
f 40/62/80 41/63/81 34/54/74
f 41/63/81 42/64/82 34/54/74
f 42/64/82 32/55/72 34/54/74
s off
f 21/51/83 22/50/84 33/56/85 32/55/86
f 22/50/87 23/49/88 35/57/89 33/56/90
f 23/49/91 24/48/92 36/58/93 35/57/94
f 24/48/95 25/47/96 37/59/97 36/58/98
f 25/47/99 26/46/100 38/60/101 37/59/102
f 26/46/103 27/45/104 39/61/105 38/60/106
f 27/45/107 28/44/108 40/62/109 39/61/110
f 28/44/111 29/43/112 41/63/113 40/62/114
f 29/43/115 30/52/116 42/64/117 41/63/118
f 30/52/119 21/51/120 32/55/121 42/64/122
