# This file uses centimeters as units for non-parametric coordinates.

v -0.121865 0.053199 0.799768
v 0.121865 0.053199 0.799768
v -0.145620 0.063876 0.479861
v 0.145620 0.063876 0.479861
v -0.124664 0.055186 0.159954
v 0.124664 0.055186 0.159954
v -0.103280 0.046319 -0.159954
v 0.103280 0.046319 -0.159954
v -0.088035 0.039997 -0.479861
v 0.088035 0.039997 -0.479861
v -0.081844 0.014154 -0.799768
v 0.081844 0.014154 -0.799768
v -0.081844 -0.014262 -0.799768
v 0.081844 -0.014262 -0.799768
v -0.088035 -0.039997 -0.479861
v 0.088035 -0.039997 -0.479861
v -0.103280 -0.046319 -0.159954
v 0.103280 -0.046319 -0.159954
v -0.124664 -0.055186 0.159954
v 0.124664 -0.055186 0.159954
v -0.145620 -0.063876 0.479861
v 0.145620 -0.063876 0.479861
v -0.121865 -0.053199 0.799768
v 0.121865 -0.053199 0.799768
vt 0.375000 0.000000
vt 0.625000 0.000000
vt 0.375000 0.050000
vt 0.625000 0.050000
vt 0.375000 0.100000
vt 0.625000 0.100000
vt 0.375000 0.150000
vt 0.625000 0.150000
vt 0.375000 0.200000
vt 0.625000 0.200000
vt 0.375000 0.250000
vt 0.625000 0.250000
vt 0.375000 0.500000
vt 0.625000 0.500000
vt 0.375000 0.550000
vt 0.625000 0.550000
vt 0.375000 0.600000
vt 0.625000 0.600000
vt 0.375000 0.650000
vt 0.625000 0.650000
vt 0.375000 0.700000
vt 0.625000 0.700000
vt 0.375000 0.750000
vt 0.625000 0.750000
vt 0.375000 1.000000
vt 0.625000 1.000000
vt 0.875000 0.000000
vt 0.875000 0.050000
vt 0.875000 0.100000
vt 0.875000 0.150000
vt 0.875000 0.200000
vt 0.875000 0.250000
vt 0.125000 0.000000
vt 0.125000 0.050000
vt 0.125000 0.100000
vt 0.125000 0.150000
vt 0.125000 0.200000
vt 0.125000 0.250000
vn 0.000000 0.999443 0.033359
vn 0.000000 0.999443 0.033359
vn 0.000000 0.999997 0.002582
vn 0.000000 0.999997 0.002582
vn 0.000000 0.999626 -0.027356
vn 0.000000 0.999626 -0.027356
vn 0.000000 0.999695 -0.024718
vn 0.000000 0.999695 -0.024718
vn 0.000000 0.998955 -0.045711
vn 0.000000 0.998955 -0.045711
vn 0.000000 0.996753 -0.080521
vn 0.000000 0.996753 -0.080521
vn 0.000000 -0.000000 -1.000000
vn 0.000000 -0.000000 -1.000000
vn 0.000000 -0.000000 -1.000000
vn 0.000000 -0.000000 -1.000000
vn 0.000000 -0.996780 -0.080185
vn 0.000000 -0.996780 -0.080185
vn 0.000000 -0.998961 -0.045566
vn 0.000000 -0.998961 -0.045566
vn 0.000000 -0.999694 -0.024718
vn 0.000000 -0.999694 -0.024718
vn 0.000000 -0.999626 -0.027356
vn 0.000000 -0.999626 -0.027356
vn 0.000000 -0.999997 0.002582
vn 0.000000 -0.999997 0.002582
vn 0.000000 -0.999444 0.033359
vn 0.000000 -0.999444 0.033359
vn 0.000000 0.000000 1.000000
vn 0.000000 0.000000 1.000000
vn 0.000000 0.000000 1.000000
vn 0.000000 0.000000 1.000000
vn 0.997254 0.000000 0.074052
vn 0.997254 0.000000 0.074052
vn 0.999997 0.000000 0.002231
vn 0.999997 0.000000 0.002231
vn 0.997829 0.000000 -0.065861
vn 0.997829 0.000000 -0.065861
vn 0.998235 0.000000 -0.059387
vn 0.998235 0.000000 -0.059387
vn 0.999152 -0.000000 -0.041176
vn 0.999151 -0.000000 -0.041188
vn 0.999813 -0.000000 -0.019347
vn 0.999813 -0.000000 -0.019347
vn -0.997254 0.000000 0.074052
vn -0.997254 0.000000 0.074052
vn -0.999997 0.000000 0.002231
vn -0.999997 0.000000 0.002231
vn -0.997829 0.000000 -0.065861
vn -0.997829 0.000000 -0.065861
vn -0.998235 0.000000 -0.059387
vn -0.998235 0.000000 -0.059387
vn -0.999151 -0.000000 -0.041188
vn -0.999152 -0.000000 -0.041176
vn -0.999813 -0.000000 -0.019347
vn -0.999813 -0.000000 -0.019347
g pCube1
f 1/1/1 2/2/2 4/4/3 3/3/4
f 3/3/4 4/4/3 6/6/5 5/5/6
f 5/5/6 6/6/5 8/8/7 7/7/8
f 7/7/8 8/8/7 10/10/9 9/9/10
f 9/9/10 10/10/9 12/12/11 11/11/12
f 11/11/13 12/12/14 14/14/15 13/13/16
f 13/13/17 14/14/18 16/16/19 15/15/20
f 15/15/20 16/16/19 18/18/21 17/17/22
f 17/17/22 18/18/21 20/20/23 19/19/24
f 19/19/24 20/20/23 22/22/25 21/21/26
f 21/21/26 22/22/25 24/24/27 23/23/28
f 23/23/29 24/24/30 2/26/31 1/25/32
f 2/2/33 24/27/34 22/28/35 4/4/36
f 4/4/36 22/28/35 20/29/37 6/6/38
f 6/6/38 20/29/37 18/30/39 8/8/40
f 8/8/40 18/30/39 16/31/41 10/10/42
f 10/10/42 16/31/41 14/32/43 12/12/44
f 23/33/45 1/1/46 3/3/47 21/34/48
f 21/34/48 3/3/47 5/5/49 19/35/50
f 19/35/50 5/5/49 7/7/51 17/36/52
f 17/36/52 7/7/51 9/9/53 15/37/54
f 15/37/54 9/9/53 11/11/55 13/38/56
v -0.131515 -0.040527 -0.868485
v -0.065758 -0.040527 -0.868485
v 0.000000 -0.040527 -0.868485
v 0.065758 -0.040527 -0.868485
v 0.131515 -0.040527 -0.868485
v -0.131515 0.040527 -0.868485
v -0.065758 0.040527 -0.868485
v 0.000000 0.040527 -0.868485
v 0.065758 0.040527 -0.868485
v 0.131515 0.040527 -0.868485
v -0.131515 0.015202 -0.995329
v -0.065758 0.015202 -0.995329
v 0.000000 0.015202 -0.995329
v 0.065758 0.015202 -0.995329
v 0.131515 0.015202 -0.995329
v -0.131515 -0.040527 -0.995329
v -0.065758 -0.040527 -0.995329
v 0.000000 -0.040527 -0.995329
v 0.065758 -0.040527 -0.995329
v 0.131515 -0.040527 -0.995329
v -0.111515 0.000000 -1.321515
v -0.085758 0.000000 -1.321515
v -0.045758 0.000000 -1.321515
v -0.020000 0.000000 -1.321515
v 0.020000 0.000000 -1.321515
v 0.045758 0.000000 -1.321515
v 0.085758 0.000000 -1.321515
v 0.111515 0.000000 -1.321515
v -0.124403 0.010584 -1.026894
v -0.072864 0.010597 -1.026788
v -0.072864 -0.036186 -1.026788
v -0.124403 -0.036172 -1.026894
v -0.058653 0.010601 -1.026758
v -0.007098 0.010614 -1.026652
v -0.007098 -0.036202 -1.026652
v -0.058653 -0.036189 -1.026758
v 0.007096 0.010618 -1.026623
v 0.058668 0.010631 -1.026516
v 0.058668 -0.036219 -1.026516
v 0.007096 -0.036206 -1.026623
v 0.072845 0.010634 -1.026487
v 0.124434 0.010648 -1.026381
v 0.124434 -0.036236 -1.026381
v 0.072845 -0.036223 -1.026487
v -0.121515 -0.030527 -0.818485
v -0.065758 -0.030527 -0.818485
v -0.065758 0.030527 -0.818485
v -0.121515 0.030527 -0.818485
v 0.000000 -0.030527 -0.818485
v 0.000000 0.030527 -0.818485
v 0.065758 -0.030527 -0.818485
v 0.065758 0.030527 -0.818485
v 0.121515 -0.030527 -0.818485
v 0.121515 0.030527 -0.818485
v -0.101515 -0.010527 -0.788485
v -0.065758 -0.010527 -0.788485
v -0.065758 0.010527 -0.788485
v -0.101515 0.010527 -0.788485
v 0.000000 -0.010527 -0.788485
v 0.000000 0.010527 -0.788485
v 0.065758 -0.010527 -0.788485
v 0.065758 0.010527 -0.788485
v 0.101515 -0.010527 -0.788485
v 0.101515 0.010527 -0.788485
vt 0.375000 0.000000
vt 0.437500 0.000000
vt 0.437500 0.250000
vt 0.375000 0.250000
vt 0.500000 0.000000
vt 0.500000 0.250000
vt 0.562500 0.000000
vt 0.562500 0.250000
vt 0.625000 0.000000
vt 0.625000 0.250000
vt 0.375000 0.250000
vt 0.437500 0.250000
vt 0.437500 0.500000
vt 0.375000 0.500000
vt 0.500000 0.250000
vt 0.500000 0.500000
vt 0.562500 0.250000
vt 0.562500 0.500000
vt 0.625000 0.250000
vt 0.625000 0.500000
vt 0.375000 0.750000
vt 0.437500 0.750000
vt 0.437500 1.000000
vt 0.375000 1.000000
vt 0.500000 0.750000
vt 0.500000 1.000000
vt 0.562500 0.750000
vt 0.562500 1.000000
vt 0.625000 0.750000
vt 0.625000 1.000000
vt 0.625000 0.000000
vt 0.875000 0.000000
vt 0.875000 0.250000
vt 0.125000 0.000000
vt 0.375000 0.000000
vt 0.125000 0.250000
vt 0.437500 0.544414
vt 0.375000 0.544454
vt 0.437500 0.705586
vt 0.375000 0.705546
vt 0.500000 0.544362
vt 0.437500 0.544402
vt 0.500000 0.705638
vt 0.437500 0.705598
vt 0.562500 0.544310
vt 0.500000 0.544350
vt 0.562500 0.705690
vt 0.500000 0.705650
vt 0.625000 0.544258
vt 0.562500 0.544298
vt 0.625000 0.705742
vt 0.562500 0.705702
vt 0.437500 0.625000
vt 0.375000 0.625000
vt 0.500000 0.625000
vt 0.437500 0.625000
vt 0.562500 0.625000
vt 0.500000 0.625000
vt 0.625000 0.625000
vt 0.562500 0.625000
vt 0.437500 0.000000
vt 0.437500 0.000000
vt 0.375000 0.000000
vt 0.375000 0.250000
vt 0.437500 0.250000
vt 0.500000 0.000000
vt 0.500000 0.000000
vt 0.500000 0.250000
vt 0.562500 0.000000
vt 0.562500 0.000000
vt 0.562500 0.250000
vt 0.625000 0.000000
vt 0.625000 0.250000
vn 0.000000 0.000000 1.000000
vn 0.000000 0.000000 1.000000
vn 0.000000 0.000000 1.000000
vn 0.000000 0.000000 1.000000
vn 0.000000 0.000000 1.000000
vn 0.000000 0.000000 1.000000
vn 0.000000 0.000000 1.000000
vn 0.000000 0.000000 1.000000
vn 0.000000 0.000000 1.000000
vn 0.000000 0.000000 1.000000
vn 0.000000 0.994745 -0.102383
vn 0.000000 0.995995 -0.089410
vn 0.000003 0.982218 -0.187743
vn 0.000003 0.982223 -0.187719
vn 0.000000 0.996267 -0.086332
vn 0.000003 0.982209 -0.187790
vn 0.000000 0.995995 -0.089410
vn 0.000003 0.982201 -0.187836
vn 0.000000 0.994745 -0.102383
vn 0.000003 0.982196 -0.187860
vn 0.000002 -0.999756 -0.022081
vn 0.000002 -0.999757 -0.022039
vn 0.000000 -0.998492 0.054905
vn 0.000000 -0.998830 0.048349
vn 0.000002 -0.999759 -0.021962
vn 0.000000 -0.998405 0.056457
vn 0.000002 -0.999761 -0.021885
vn 0.000000 -0.998492 0.054905
vn 0.000002 -0.999761 -0.021843
vn 0.000000 -0.998830 0.048349
vn 0.998607 0.000000 0.052764
vn 0.999463 0.000000 -0.032782
vn 0.999566 0.000000 -0.029460
vn 0.998310 0.000000 0.058112
vn -0.999461 0.000000 -0.032818
vn -0.998607 0.000000 0.052764
vn -0.998310 0.000000 0.058112
vn -0.999565 0.000000 -0.029500
vn -0.000099 0.998565 -0.053551
vn -0.000099 0.998569 -0.053472
vn 0.975425 0.000000 -0.220333
vn 0.975425 0.000000 -0.220333
vn 0.996569 0.000000 -0.082770
vn 0.996700 0.000000 -0.081175
vn 0.000000 -0.992254 -0.124229
vn 0.000000 -0.992252 -0.124240
vn -0.996700 0.000000 -0.081174
vn -0.996569 0.000000 -0.082769
vn -0.000098 0.998566 -0.053534
vn -0.000099 0.998570 -0.053456
vn 0.975275 0.000000 -0.220996
vn 0.975275 0.000000 -0.220996
vn 0.996569 0.000000 -0.082771
vn 0.996700 0.000000 -0.081176
vn 0.000001 -0.992253 -0.124230
vn 0.000001 -0.992252 -0.124241
vn -0.975392 0.000000 -0.220476
vn -0.975392 0.000000 -0.220476
vn -0.996700 0.000000 -0.081175
vn -0.996569 0.000000 -0.082770
vn -0.000099 0.998567 -0.053517
vn -0.000099 0.998571 -0.053439
vn 0.975124 0.000000 -0.221662
vn 0.975124 0.000000 -0.221662
vn 0.996569 0.000000 -0.082772
vn 0.996700 0.000000 -0.081177
vn 0.000000 -0.992253 -0.124231
vn 0.000000 -0.992252 -0.124242
vn -0.975242 0.000000 -0.221140
vn -0.975242 0.000000 -0.221140
vn -0.996700 0.000000 -0.081177
vn -0.996569 0.000000 -0.082771
vn -0.000099 0.998568 -0.053501
vn -0.000099 0.998572 -0.053423
vn 0.996568 0.000000 -0.082773
vn 0.996700 0.000000 -0.081178
vn 0.000000 -0.992253 -0.124232
vn 0.000000 -0.992252 -0.124243
vn -0.975091 0.000000 -0.221807
vn -0.975091 0.000000 -0.221807
vn -0.996700 0.000000 -0.081177
vn -0.996569 0.000000 -0.082772
vn -0.000121 0.999355 -0.035916
vn -0.000121 0.999355 -0.035916
vn 0.999044 0.000000 -0.043707
vn -0.000002 -0.992547 -0.121861
vn -0.000002 -0.992547 -0.121861
vn -0.999045 0.000000 -0.043700
vn -0.000121 0.999353 -0.035957
vn -0.000121 0.999353 -0.035957
vn 0.999044 0.000000 -0.043715
vn -0.000002 -0.992547 -0.121862
vn -0.000002 -0.992547 -0.121862
vn -0.999044 0.000000 -0.043708
vn -0.000121 0.999352 -0.035997
vn -0.000121 0.999352 -0.035997
vn 0.999044 0.000000 -0.043723
vn -0.000002 -0.992547 -0.121863
vn -0.000002 -0.992547 -0.121863
vn -0.999044 0.000000 -0.043716
vn -0.000121 0.999350 -0.036038
vn -0.000121 0.999350 -0.036038
vn 0.999043 0.000000 -0.043731
vn -0.000002 -0.992547 -0.121863
vn -0.000002 -0.992547 -0.121863
vn -0.999044 0.000000 -0.043724
vn 0.000000 -0.940458 0.339909
vn 0.000000 -0.957838 0.287310
vn 0.000000 0.957838 0.287310
vn 0.000000 0.940458 0.339909
vn -0.962786 0.000000 0.270264
vn -0.962786 0.000000 0.270264
vn 0.000000 -0.936329 0.351123
vn 0.000000 0.936329 0.351123
vn 0.000000 -0.940458 0.339909
vn 0.000000 0.940458 0.339909
vn 0.000000 -0.957838 0.287310
vn 0.962786 0.000000 0.270264
vn 0.962786 0.000000 0.270264
vn 0.000000 0.957838 0.287310
vn 0.000000 -0.832050 0.554700
vn 0.000000 -0.832050 0.554700
vn 0.000000 0.832050 0.554700
vn 0.000000 0.832050 0.554700
vn -0.832051 0.000000 0.554699
vn -0.832051 0.000000 0.554699
vn 0.000000 -0.832050 0.554701
vn 0.000000 0.832050 0.554701
vn 0.000000 -0.832050 0.554701
vn 0.000000 0.832050 0.554701
vn 0.000000 -0.832050 0.554700
vn 0.832051 0.000000 0.554700
vn 0.832051 0.000000 0.554700
vn 0.000000 0.832050 0.554700
g polySurface2 pCube5
f 79/39/57 80/40/58 81/41/59 82/42/60
f 80/40/58 83/43/61 84/44/62 81/41/59
f 83/43/61 85/45/63 86/46/64 84/44/62
f 85/45/63 87/47/65 88/48/66 86/46/64
f 30/49/67 31/50/68 36/51/69 35/52/70
f 31/50/68 32/53/71 37/54/72 36/51/69
f 32/53/71 33/55/73 38/56/74 37/54/72
f 33/55/73 34/57/75 39/58/76 38/56/74
f 40/59/77 41/60/78 26/61/79 25/62/80
f 41/60/78 42/63/81 27/64/82 26/61/79
f 42/63/81 43/65/83 28/66/84 27/64/82
f 43/65/83 44/67/85 29/68/86 28/66/84
f 29/69/87 44/70/88 39/71/89 34/57/90
f 40/72/91 25/73/92 30/49/93 35/74/94
f 35/52/70 36/51/69 54/75/95 53/76/96
f 36/51/97 41/60/98 55/77/99 54/75/100
f 41/60/78 40/59/77 56/78/101 55/77/102
f 40/59/91 35/52/94 53/76/103 56/78/104
f 36/51/69 37/54/72 58/79/105 57/80/106
f 37/54/107 42/63/108 59/81/109 58/79/110
f 42/63/81 41/60/78 60/82/111 59/81/112
f 41/60/113 36/51/114 57/80/115 60/82/116
f 37/54/72 38/56/74 62/83/117 61/84/118
f 38/56/119 43/65/120 63/85/121 62/83/122
f 43/65/83 42/63/81 64/86/123 63/85/124
f 42/63/125 37/54/126 61/84/127 64/86/128
f 38/56/74 39/58/76 66/87/129 65/88/130
f 39/58/89 44/67/88 67/89/131 66/87/132
f 44/67/85 43/65/83 68/90/133 67/89/134
f 43/65/135 38/56/136 65/88/137 68/90/138
f 53/76/96 54/75/95 46/91/139 45/92/140
f 54/75/100 55/77/99 46/91/141
f 55/77/102 56/78/101 45/92/142 46/91/143
f 56/78/104 53/76/103 45/92/144
f 57/80/106 58/79/105 48/93/145 47/94/146
f 58/79/110 59/81/109 48/93/147
f 59/81/112 60/82/111 47/94/148 48/93/149
f 60/82/116 57/80/115 47/94/150
f 61/84/118 62/83/117 50/95/151 49/96/152
f 62/83/122 63/85/121 50/95/153
f 63/85/124 64/86/123 49/96/154 50/95/155
f 64/86/128 61/84/127 49/96/156
f 65/88/130 66/87/129 52/97/157 51/98/158
f 66/87/132 67/89/131 52/97/159
f 67/89/134 68/90/133 51/98/160 52/97/161
f 68/90/138 65/88/137 51/98/162
f 25/73/80 26/99/79 70/100/163 69/101/164
f 31/50/68 30/49/67 72/102/165 71/103/166
f 30/49/93 25/73/92 69/101/167 72/102/168
f 26/99/79 27/104/82 73/105/169 70/100/163
f 32/53/71 31/50/68 71/103/166 74/106/170
f 27/104/82 28/107/84 75/108/171 73/105/169
f 33/55/73 32/53/71 74/106/170 76/109/172
f 28/107/84 29/69/86 77/110/173 75/108/171
f 29/69/87 34/57/90 78/111/174 77/110/175
f 34/57/75 33/55/73 76/109/172 78/111/176
f 69/101/164 70/100/163 80/40/177 79/39/178
f 71/103/166 72/102/165 82/42/179 81/41/180
f 72/102/168 69/101/167 79/39/181 82/42/182
f 70/100/163 73/105/169 83/43/183 80/40/177
f 74/106/170 71/103/166 81/41/180 84/44/184
f 73/105/169 75/108/171 85/45/185 83/43/183
f 76/109/172 74/106/170 84/44/184 86/46/186
f 75/108/171 77/110/173 87/47/187 85/45/185
f 77/110/175 78/111/174 88/48/188 87/47/189
f 78/111/176 76/109/172 86/46/186 88/48/190
