# This file uses centimeters as units for non-parametric coordinates.

mtllib pencil.mtl
g default
v 0.049836 0.024000 -1.000000
v 0.034488 0.043246 -1.000000
v 0.012308 0.053927 -1.000000
v -0.012308 0.053927 -1.000000
v -0.034488 0.043246 -1.000000
v -0.049836 0.024000 -1.000000
v -0.055314 0.000000 -1.000000
v -0.049836 -0.024000 -1.000000
v -0.034488 -0.043246 -1.000000
v -0.012308 -0.053927 -1.000000
v 0.012308 -0.053927 -1.000000
v 0.034488 -0.043246 -1.000000
v 0.049836 -0.024000 -1.000000
v 0.055314 -0.000000 -1.000000
v 0.018223 0.008776 1.102589
v 0.012611 0.015814 1.102589
v 0.004501 0.019719 1.102589
v -0.004501 0.019719 1.102589
v -0.012611 0.015814 1.102589
v -0.018223 0.008776 1.102589
v -0.020227 0.000000 1.102589
v -0.018223 -0.008776 1.102589
v -0.012611 -0.015814 1.102589
v -0.004501 -0.019719 1.102589
v 0.004501 -0.019719 1.102589
v 0.012611 -0.015814 1.102589
v 0.018223 -0.008776 1.102589
v 0.020227 -0.000000 1.102589
v 0.000000 -0.000000 -1.000000
v 0.000000 0.000000 1.170614
v 0.012308 0.053927 0.964067
v 0.034488 0.043246 0.964067
v 0.049836 0.024000 0.964067
v 0.055314 0.000000 0.964067
v 0.049836 -0.024000 0.964067
v 0.034488 -0.043246 0.964067
v 0.012308 -0.053927 0.964067
v -0.012308 -0.053927 0.964067
v -0.034488 -0.043246 0.964067
v -0.049836 -0.024000 0.964067
v -0.055314 0.000000 0.964067
v -0.049836 0.024000 0.964067
v -0.034488 0.043246 0.964067
v -0.012308 0.053927 0.964067
v 0.034488 0.043246 -0.708078
v 0.049836 0.024000 -0.708078
v 0.055314 -0.000000 -0.708078
v 0.049836 -0.024000 -0.708078
v 0.034488 -0.043246 -0.708078
v 0.012308 -0.053927 -0.708078
v -0.012308 -0.053927 -0.708078
v -0.034488 -0.043246 -0.708078
v -0.049836 -0.024000 -0.708078
v -0.055314 0.000000 -0.708078
v -0.049836 0.024000 -0.708078
v -0.034488 0.043246 -0.708078
v -0.012308 0.053927 -0.708078
v 0.012308 0.053927 -0.708078
v 0.012308 0.053927 -0.898337
v 0.034488 0.043246 -0.898337
v 0.049836 0.024000 -0.898337
v 0.055314 -0.000000 -0.898337
v 0.049836 -0.024000 -0.898337
v 0.034488 -0.043246 -0.898337
v 0.012308 -0.053927 -0.898337
v -0.012308 -0.053927 -0.898337
v -0.034488 -0.043246 -0.898337
v -0.049836 -0.024000 -0.898337
v -0.055314 0.000000 -0.898337
v -0.049836 0.024000 -0.898337
v -0.034488 0.043246 -0.898337
v -0.012308 0.053927 -0.898337
vt 0.931616 0.870562
vt 0.919480 0.855344
vt 0.901944 0.846899
vt 0.882480 0.846899
vt 0.864943 0.855344
vt 0.852807 0.870562
vt 0.848476 0.889538
vt 0.852807 0.908514
vt 0.864943 0.923732
vt 0.882480 0.932177
vt 0.901944 0.932177
vt 0.919480 0.923732
vt 0.931616 0.908514
vt 0.935947 0.889538
vt 0.857223 0.933274
vt 0.862221 0.933274
vt 0.867220 0.933274
vt 0.872218 0.933274
vt 0.877217 0.933274
vt 0.882215 0.933274
vt 0.887213 0.933274
vt 0.892212 0.933274
vt 0.897210 0.933274
vt 0.902208 0.933274
vt 0.907207 0.933274
vt 0.912205 0.933274
vt 0.917203 0.933274
vt 0.922202 0.933274
vt 0.927200 0.933274
vt 0.402818 0.497044
vt 0.414154 0.497044
vt 0.425490 0.497044
vt 0.436827 0.497044
vt 0.448163 0.497044
vt 0.459499 0.497044
vt 0.470836 0.497044
vt 0.482172 0.497044
vt 0.493508 0.497044
vt 0.504845 0.497044
vt 0.516181 0.497044
vt 0.527517 0.497044
vt 0.538854 0.497044
vt 0.550190 0.497044
vt 0.561526 0.497044
vt 0.950188 0.078619
vt 0.937823 0.063114
vt 0.919955 0.054509
vt 0.900123 0.054509
vt 0.882256 0.063114
vt 0.869891 0.078619
vt 0.865478 0.097954
vt 0.869891 0.117288
vt 0.882256 0.132793
vt 0.900123 0.141398
vt 0.919955 0.141398
vt 0.937823 0.132793
vt 0.950188 0.117288
vt 0.954601 0.097954
vt 0.892212 0.887789
vt 0.910039 0.096171
vt 0.071428 0.134512
vt 0.067127 0.134512
vt 0.123037 0.134512
vt 0.402818 0.492756
vt 0.118736 0.134512
vt 0.114435 0.134512
vt 0.109618 0.125419
vt 0.105834 0.134512
vt 0.101533 0.134512
vt 0.097233 0.134512
vt 0.092932 0.134512
vt 0.088631 0.134512
vt 0.084330 0.134512
vt 0.080030 0.134512
vt 0.075729 0.134512
vt 0.056440 0.901332
vt 0.152504 0.901332
vt 0.062827 0.058812
vt 0.145115 0.901332
vt 0.137725 0.901332
vt 0.130336 0.901332
vt 0.122946 0.901332
vt 0.115557 0.901332
vt 0.108167 0.901332
vt 0.100778 0.901332
vt 0.093388 0.901332
vt 0.085999 0.901332
vt 0.078609 0.901332
vt 0.071219 0.901332
vt 0.063830 0.901332
vt 0.867220 0.938623
vt 0.056440 0.886533
vt 0.152504 0.886533
vt 0.049051 0.886533
vt 0.145115 0.886533
vt 0.137725 0.886533
vt 0.130336 0.886533
vt 0.122946 0.886533
vt 0.115557 0.886533
vt 0.108167 0.886533
vt 0.100778 0.886533
vt 0.093388 0.886533
vt 0.085999 0.886533
vt 0.078609 0.886533
vt 0.071219 0.886533
vt 0.071219 0.886533
vt 0.872218 0.938623
vt 0.063830 0.886533
vt 0.063830 0.886533
vt 0.078609 0.886533
vt 0.877217 0.938623
vt 0.075729 0.058812
vt 0.071219 0.901332
vt 0.085999 0.886533
vt 0.882215 0.938623
vt 0.080030 0.058812
vt 0.078609 0.901332
vt 0.093388 0.886533
vt 0.887213 0.938623
vt 0.084330 0.058812
vt 0.085999 0.901332
vt 0.100778 0.886533
vt 0.892212 0.938623
vt 0.088631 0.058812
vt 0.093388 0.901332
vt 0.108167 0.886533
vt 0.897210 0.938623
vt 0.092932 0.058812
vt 0.100778 0.901332
vt 0.115557 0.886533
vt 0.902208 0.938623
vt 0.097233 0.058812
vt 0.108167 0.901332
vt 0.122946 0.886533
vt 0.907207 0.938623
vt 0.101533 0.058812
vt 0.115557 0.901332
vt 0.130336 0.886533
vt 0.912205 0.938623
vt 0.105834 0.058812
vt 0.122946 0.901332
vt 0.137725 0.886533
vt 0.917203 0.938623
vt 0.109618 0.067905
vt 0.130336 0.901332
vt 0.145115 0.886533
vt 0.922202 0.938623
vt 0.114435 0.058812
vt 0.137725 0.901332
vt 0.857223 0.938623
vt 0.927200 0.938623
vt 0.118736 0.058812
vt 0.145115 0.901332
vt 0.056440 0.886533
vt 0.862221 0.938623
vt 0.123037 0.058812
vt 0.049051 0.901332
vt 0.067127 0.058812
vt 0.056440 0.901332
vt 0.071428 0.058812
vt 0.063830 0.901332
vt 0.071428 0.058812
vt 0.067127 0.058812
vt 0.075729 0.058812
vt 0.425490 0.492756
vt 0.071428 0.134512
vt 0.080030 0.058812
vt 0.436827 0.492756
vt 0.075729 0.134512
vt 0.084330 0.058812
vt 0.448163 0.492756
vt 0.080030 0.134512
vt 0.088631 0.058812
vt 0.459499 0.492756
vt 0.084330 0.134512
vt 0.092932 0.058812
vt 0.470836 0.492756
vt 0.088631 0.134512
vt 0.097233 0.058812
vt 0.482172 0.492756
vt 0.092932 0.134512
vt 0.101533 0.058812
vt 0.493508 0.492756
vt 0.097233 0.134512
vt 0.106351 0.067905
vt 0.504845 0.492756
vt 0.101533 0.134512
vt 0.110135 0.058812
vt 0.516181 0.492756
vt 0.106351 0.125419
vt 0.114435 0.058812
vt 0.527517 0.492756
vt 0.110135 0.134512
vt 0.118736 0.058812
vt 0.538854 0.492756
vt 0.114435 0.134512
vt 0.550190 0.492756
vt 0.118736 0.134512
vt 0.561526 0.492756
vt 0.062827 0.134512
vt 0.414154 0.492756
vt 0.067127 0.134512
vn 0.900969 0.433884 -0.000000
vn 0.623490 0.781831 -0.000000
vn 0.623490 0.781831 -0.000000
vn 0.900969 0.433884 -0.000000
vn 0.222521 0.974928 -0.000000
vn 0.222521 0.974928 0.000000
vn -0.222521 0.974928 -0.000000
vn -0.222521 0.974928 0.000000
vn -0.623490 0.781832 -0.000000
vn -0.623490 0.781832 -0.000000
vn -0.900969 0.433884 -0.000000
vn -0.900969 0.433884 -0.000000
vn -1.000000 0.000000 -0.000000
vn -1.000000 0.000000 0.000000
vn -0.900969 -0.433883 -0.000000
vn -0.900969 -0.433883 0.000000
vn -0.623490 -0.781831 -0.000000
vn -0.623490 -0.781832 0.000000
vn -0.222521 -0.974928 -0.000000
vn -0.222521 -0.974928 -0.000000
vn 0.222521 -0.974928 -0.000000
vn 0.222521 -0.974928 -0.000000
vn 0.623490 -0.781832 -0.000000
vn 0.623490 -0.781832 -0.000000
vn 0.900969 -0.433884 -0.000000
vn 0.900969 -0.433884 -0.000000
vn 1.000000 -0.000000 -0.000000
vn 1.000000 -0.000000 -0.000000
vn 0.000000 0.000001 -1.000000
vn 0.000000 -0.000000 -1.000000
vn 0.000000 -0.000000 -1.000000
vn 0.000000 -0.000000 -1.000000
vn 0.000000 -0.000001 -1.000000
vn 0.000000 -0.000000 -1.000000
vn 0.000000 -0.000000 -1.000000
vn 0.000000 -0.000000 -1.000000
vn 0.000000 -0.000000 -1.000000
vn 0.000000 -0.000000 -1.000000
vn 0.000000 -0.000000 -1.000000
vn 0.000000 -0.000000 -1.000000
vn 0.000000 -0.000000 -1.000000
vn 0.000000 -0.000000 -1.000000
vn 0.000000 -0.000000 -1.000000
vn 0.863602 0.415887 0.285007
vn 0.597631 0.749405 0.285007
vn -0.000000 0.000001 1.000000
vn 0.213292 0.934494 0.285006
vn -0.213291 0.934493 0.285007
vn -0.597629 0.749407 0.285006
vn -0.863601 0.415889 0.285007
vn -0.958525 0.000000 0.285007
vn -0.863602 -0.415887 0.285007
vn -0.597631 -0.749405 0.285007
vn -0.213292 -0.934493 0.285007
vn 0.213292 -0.934493 0.285007
vn 0.597631 -0.749406 0.285007
vn 0.863601 -0.415889 0.285007
vn 0.958525 -0.000000 0.285007
vn 0.623447 0.781777 0.011756
vn 0.222506 0.974861 0.011756
vn 0.215709 0.945081 0.245543
vn 0.604403 0.757896 0.245543
vn 0.900907 0.433854 0.011756
vn 0.873387 0.420600 0.245543
vn 0.999931 -0.000000 0.011756
vn 0.969386 -0.000001 0.245543
vn 0.900907 -0.433854 0.011756
vn 0.873386 -0.420601 0.245543
vn 0.623447 -0.781778 0.011756
vn 0.604402 -0.757896 0.245543
vn 0.222505 -0.974861 0.011756
vn 0.215708 -0.945081 0.245543
vn -0.222506 -0.974861 0.011756
vn -0.215709 -0.945081 0.245543
vn -0.623447 -0.781777 0.011756
vn -0.604403 -0.757896 0.245543
vn -0.900907 -0.433854 0.011756
vn -0.873387 -0.420600 0.245543
vn -0.999931 0.000000 0.011756
vn -0.969386 -0.000001 0.245543
vn -0.900907 0.433854 0.011756
vn -0.873387 0.420600 0.245543
vn -0.623447 0.781778 0.011756
vn -0.604402 0.757896 0.245543
vn -0.222505 0.974861 0.011756
vn -0.215709 0.945081 0.245543
vn 0.900969 0.433884 -0.000000
vn 0.623490 0.781831 0.000000
vn 1.000000 -0.000000 0.000000
vn 0.900969 -0.433884 0.000000
vn 0.623490 -0.781832 0.000000
vn 0.222521 -0.974928 0.000000
vn -0.222521 -0.974928 0.000000
vn -0.623490 -0.781831 0.000000
vn -0.900969 -0.433884 0.000000
vn -1.000000 0.000000 -0.000000
vn -0.900969 0.433884 -0.000000
vn -0.623490 0.781832 -0.000000
vn -0.222521 0.974928 0.000000
vn 0.222521 0.974928 0.000000
s 1
g pCylinder1
usemtl initialShadingGroup
f 1/15/1 2/16/2 60/155/3 61/150/4
f 2/16/2 3/17/5 59/91/6 60/155/3
f 3/17/5 4/18/7 72/107/8 59/91/6
f 4/18/7 5/19/9 71/111/10 72/107/8
f 5/19/9 6/20/11 70/115/12 71/111/10
f 6/20/11 7/21/13 69/119/14 70/115/12
f 7/21/13 8/22/15 68/123/16 69/119/14
f 8/22/15 9/23/17 67/127/18 68/123/16
f 9/23/17 10/24/19 66/131/20 67/127/18
f 10/24/19 11/25/21 65/135/22 66/131/20
f 11/25/21 12/26/23 64/139/24 65/135/22
f 12/26/23 13/27/25 63/143/26 64/139/24
f 13/27/25 14/28/27 62/147/28 63/143/26
f 14/28/27 1/29/1 61/151/4 62/147/28
s 2
f 2/2/29 1/1/30 29/59/31
f 3/3/32 2/2/29 29/59/31
f 4/4/33 3/3/32 29/59/31
f 5/5/34 4/4/33 29/59/31
f 6/6/35 5/5/34 29/59/31
f 7/7/36 6/6/35 29/59/31
f 8/8/37 7/7/36 29/59/31
f 9/9/38 8/8/37 29/59/31
f 10/10/39 9/9/38 29/59/31
f 11/11/40 10/10/39 29/59/31
f 12/12/41 11/11/40 29/59/31
f 13/13/42 12/12/41 29/59/31
f 14/14/43 13/13/42 29/59/31
f 1/1/30 14/14/43 29/59/31
s 3
f 15/57/44 16/56/45 30/60/46
f 16/56/45 17/55/47 30/60/46
f 17/55/47 18/54/48 30/60/46
f 18/54/48 19/53/49 30/60/46
f 19/53/49 20/52/50 30/60/46
f 20/52/50 21/51/51 30/60/46
f 21/51/51 22/50/52 30/60/46
f 22/50/52 23/49/53 30/60/46
f 23/49/53 24/48/54 30/60/46
f 24/48/54 25/47/55 30/60/46
f 25/47/55 26/46/56 30/60/46
f 26/46/56 27/45/57 30/60/46
f 27/45/57 28/58/58 30/60/46
f 28/58/58 15/57/44 30/60/46
s 1
f 32/201/59 31/165/60 17/32/61 16/31/62
f 33/64/63 32/201/59 16/31/62 15/30/64
f 34/197/65 33/199/63 15/44/64 28/43/66
f 35/195/67 34/197/65 28/43/66 27/42/68
f 36/192/69 35/195/67 27/42/68 26/41/70
f 37/189/71 36/192/69 26/41/70 25/40/72
f 38/186/73 37/189/71 25/40/72 24/39/74
f 39/183/75 38/186/73 24/39/74 23/38/76
f 40/180/77 39/183/75 23/38/76 22/37/78
f 41/177/79 40/180/77 22/37/78 21/36/80
f 42/174/81 41/177/79 21/36/80 20/35/82
f 43/171/83 42/174/81 20/35/82 19/34/84
f 44/168/85 43/171/83 19/34/84 18/33/86
f 31/165/60 44/168/85 18/33/86 17/32/61
f 46/78/87 45/158/88 32/62/59 33/200/63
f 47/194/89 46/156/87 33/63/63 34/198/65
f 48/191/90 47/152/89 34/65/65 35/196/67
f 49/188/91 48/148/90 35/66/67 36/193/69
f 50/185/92 49/144/91 36/67/69 37/190/71
f 51/182/93 50/140/92 37/68/71 38/187/73
f 52/179/94 51/136/93 38/69/73 39/184/75
f 53/176/95 52/132/94 39/70/75 40/181/77
f 54/173/96 53/128/95 40/71/77 41/178/79
f 55/170/97 54/124/96 41/72/79 42/175/81
f 56/167/98 55/120/97 42/73/81 43/172/83
f 57/164/99 56/116/98 43/74/83 44/169/85
f 58/162/100 57/112/99 44/75/85 31/166/60
f 45/163/88 58/160/100 31/61/60 32/202/59
f 60/154/3 59/108/6 58/90/100 45/159/88
f 61/94/4 60/92/3 45/76/88 46/157/87
f 62/146/28 61/93/4 46/77/87 47/153/89
f 63/142/26 62/95/28 47/79/89 48/149/90
f 64/138/24 63/96/26 48/80/90 49/145/91
f 65/134/22 64/97/24 49/81/91 50/141/92
f 66/130/20 65/98/22 50/82/92 51/137/93
f 67/126/18 66/99/20 51/83/93 52/133/94
f 68/122/16 67/100/18 52/84/94 53/129/95
f 69/118/14 68/101/16 53/85/95 54/125/96
f 70/114/12 69/102/14 54/86/96 55/121/97
f 71/110/10 70/103/12 55/87/97 56/117/98
f 72/106/8 71/104/10 56/88/98 57/113/99
f 59/109/6 72/105/8 57/89/99 58/161/100
