# This file uses centimeters as units for non-parametric coordinates.

g default
v -0.229037 0.000000 0.229037
v 0.229037 0.000000 0.229037
v -0.229037 0.145096 0.229037
v 0.229037 0.145096 0.229037
v -0.229037 0.145096 -0.229037
v 0.229037 0.145096 -0.229037
v -0.229037 0.000000 -0.229037
v 0.229037 0.000000 -0.229037
v -0.095079 0.095432 0.095079
v 0.095079 0.095432 0.095079
v 0.095079 0.095432 -0.095079
v -0.095079 0.095432 -0.095079
v -0.127561 0.095432 0.000000
v -0.229037 0.145096 -0.000000
v -0.229037 0.000000 -0.000000
v 0.229037 0.000000 0.000000
v 0.229037 0.145096 0.000000
v 0.127561 0.095432 0.000000
v -0.000000 0.145096 -0.229037
v -0.000000 0.000000 -0.229037
v 0.000000 0.000000 0.000000
v 0.000000 0.000000 0.229037
v 0.000000 0.145096 0.229037
v 0.000000 0.095432 0.127561
v 0.000000 0.095432 0.000000
v 0.000000 0.095432 -0.127561
v -0.229037 0.213634 0.229037
v 0.000000 0.213634 0.228416
v 0.000000 0.213634 0.206359
v -0.150083 0.213634 0.150083
v 0.229037 0.213634 0.229037
v 0.228416 0.213634 -0.000000
v 0.206359 0.213634 -0.000000
v 0.150083 0.213634 0.150083
v 0.000000 0.213634 -0.206359
v 0.000000 0.213634 -0.228416
v -0.229037 0.213634 -0.229037
v -0.150083 0.213634 -0.150083
v -0.228416 0.213634 -0.000000
v -0.206359 0.213634 -0.000000
v 0.229037 0.213634 -0.229037
v 0.150083 0.213634 -0.150083
v -0.239719 0.728804 0.239719
v 0.000000 0.728804 0.329604
v 0.000000 0.728804 0.297775
v -0.216570 0.728804 0.216570
v 0.239719 0.728804 0.239719
v 0.329604 0.728804 -0.000000
v 0.297775 0.728804 -0.000000
v 0.216570 0.728804 0.216570
v -0.000000 0.728804 -0.297775
v -0.000000 0.728804 -0.329604
v -0.239719 0.728804 -0.239719
v -0.216570 0.728804 -0.216570
v -0.329604 0.728804 -0.000000
v -0.297775 0.728804 -0.000000
v 0.239719 0.728804 -0.239719
v 0.216570 0.728804 -0.216570
vt 0.375000 0.000000
vt 0.625000 0.000000
vt 0.375000 0.250000
vt 0.625000 0.250000
vt 0.375000 0.500000
vt 0.625000 0.500000
vt 0.375000 0.750000
vt 0.625000 0.750000
vt 0.375000 1.000000
vt 0.625000 1.000000
vt 0.875000 0.000000
vt 0.875000 0.250000
vt 0.125000 0.000000
vt 0.125000 0.250000
vt 0.375000 0.250000
vt 0.625000 0.250000
vt 0.625000 0.500000
vt 0.375000 0.500000
vt 0.375000 0.375000
vt 0.250000 0.250000
vt 0.375000 0.375000
vt 0.250000 0.000000
vt 0.375000 0.875000
vt 0.625000 0.875000
vt 0.750000 0.000000
vt 0.625000 0.375000
vt 0.750000 0.250000
vt 0.625000 0.375000
vt 0.500000 0.500000
vt 0.500000 0.750000
vt 0.500000 0.875000
vt 0.500000 0.000000
vt 0.500000 1.000000
vt 0.500000 0.250000
vt 0.500000 0.250000
vt 0.500000 0.375000
vt 0.500000 0.500000
vt 0.375000 0.250000
vt 0.500000 0.250000
vt 0.500000 0.250000
vt 0.375000 0.250000
vt 0.625000 0.250000
vt 0.625000 0.375000
vt 0.625000 0.375000
vt 0.625000 0.250000
vt 0.500000 0.500000
vt 0.375000 0.500000
vt 0.375000 0.500000
vt 0.500000 0.500000
vt 0.375000 0.375000
vt 0.375000 0.375000
vt 0.625000 0.500000
vt 0.625000 0.500000
vt 0.375000 0.250000
vt 0.500000 0.250000
vt 0.500000 0.250000
vt 0.375000 0.250000
vt 0.625000 0.250000
vt 0.625000 0.375000
vt 0.625000 0.375000
vt 0.625000 0.250000
vt 0.500000 0.500000
vt 0.375000 0.500000
vt 0.375000 0.500000
vt 0.500000 0.500000
vt 0.375000 0.375000
vt 0.375000 0.375000
vt 0.625000 0.500000
vt 0.625000 0.500000
vn -0.000000 0.000000 1.000000
vn -0.000000 0.000000 1.000000
vn -0.000000 0.001453 0.999999
vn 0.000435 0.001453 0.999999
vn -0.000000 1.000000 0.000000
vn 0.000000 1.000000 0.000000
vn -0.000000 1.000000 0.000000
vn -0.000000 1.000000 0.000000
vn 0.000435 0.001453 -0.999999
vn -0.000000 0.001453 -0.999999
vn -0.000000 -0.000000 -1.000000
vn -0.000000 0.000000 -1.000000
vn 0.000000 -1.000000 0.000000
vn 0.000000 -1.000000 0.000000
vn 0.000000 -1.000000 0.000000
vn 0.000000 -1.000000 0.000000
vn 1.000000 0.000000 0.000000
vn 1.000000 0.000000 0.000000
vn 0.999999 0.001453 0.000000
vn 0.999999 0.001453 -0.000435
vn -1.000000 0.000000 0.000000
vn -1.000000 0.000000 0.000000
vn -0.999999 0.001453 -0.000435
vn -0.999999 0.001453 0.000000
vn 0.000000 1.000000 0.000001
vn 0.000000 1.000000 0.000000
vn 0.000000 1.000000 0.000000
vn 0.000000 1.000000 0.000001
vn 0.000000 1.000000 0.000000
vn 0.000000 1.000000 -0.000000
vn 0.000000 1.000000 -0.000000
vn 0.000000 1.000000 0.000000
vn 0.000000 1.000000 -0.000000
vn 0.000000 1.000000 -0.000000
vn 0.000000 1.000000 -0.000000
vn 0.000000 1.000000 -0.000000
vn 0.000000 1.000000 -0.000000
vn 0.000000 1.000000 -0.000000
vn -1.000000 0.000000 0.000000
vn -0.999999 0.001453 0.000435
vn 0.000000 -1.000000 0.000000
vn 0.000000 -1.000000 0.000000
vn 1.000000 0.000000 0.000000
vn 0.999999 0.001453 0.000435
vn 0.000000 1.000000 -0.000001
vn 0.000000 1.000000 -0.000001
vn -0.000000 1.000000 0.000000
vn -0.000000 1.000000 0.000000
vn -0.000435 0.001453 -0.999999
vn 0.000000 -0.000000 -1.000000
vn 0.000000 -1.000000 0.000000
vn 0.000000 -1.000000 0.000000
vn 0.000000 -1.000000 0.000000
vn 0.000000 0.000000 1.000000
vn -0.000435 0.001453 0.999999
vn 0.000000 1.000000 0.000000
vn 0.000000 1.000000 0.000000
vn 0.000000 1.000000 0.000000
vn -0.000000 -0.096849 0.995299
vn -0.165509 -0.095665 0.981557
vn -0.000000 0.545119 -0.838359
vn 0.290431 0.521622 -0.802222
vn 0.290431 0.521622 -0.802222
vn -0.000000 0.545119 -0.838359
vn 0.995299 -0.096849 0.000000
vn 0.981557 -0.095666 0.165510
vn -0.838358 0.545119 -0.000000
vn -0.802222 0.521622 -0.290431
vn -0.802222 0.521622 -0.290431
vn -0.838358 0.545119 -0.000000
vn -0.165509 -0.095666 -0.981557
vn 0.000000 -0.096849 -0.995299
vn 0.290431 0.521622 0.802222
vn 0.000000 0.545119 0.838359
vn 0.000000 0.545119 0.838359
vn 0.290431 0.521622 0.802222
vn -0.981557 -0.095666 0.165510
vn -0.995299 -0.096849 0.000000
vn 0.802222 0.521623 -0.290431
vn 0.838358 0.545119 0.000000
vn 0.838358 0.545119 0.000000
vn 0.802222 0.521622 -0.290431
vn -0.981557 -0.095666 -0.165510
vn 0.802222 0.521622 0.290431
vn 0.802222 0.521622 0.290431
vn 0.981557 -0.095666 -0.165510
vn -0.802222 0.521623 0.290431
vn -0.802222 0.521622 0.290431
vn 0.165509 -0.095666 0.981557
vn -0.290431 0.521622 -0.802222
vn -0.290431 0.521622 -0.802222
vn 0.165509 -0.095666 -0.981557
vn -0.290431 0.521622 0.802222
vn -0.290431 0.521622 0.802222
vn -0.185974 -0.107963 0.976605
vn -0.185974 -0.107963 0.976605
vn 0.346344 0.163906 -0.923678
vn 0.346344 0.163906 -0.923678
vn 0.346344 0.163906 -0.923678
vn 0.346344 0.163906 -0.923678
vn 0.976605 -0.107964 0.185974
vn 0.976605 -0.107964 0.185974
vn -0.923678 0.163906 -0.346344
vn -0.923678 0.163906 -0.346344
vn -0.923678 0.163906 -0.346344
vn -0.923678 0.163906 -0.346344
vn -0.185973 -0.107963 -0.976605
vn -0.185973 -0.107963 -0.976605
vn 0.346344 0.163906 0.923678
vn 0.346344 0.163906 0.923678
vn 0.346344 0.163906 0.923678
vn 0.346344 0.163906 0.923678
vn -0.976605 -0.107964 0.185974
vn -0.976605 -0.107964 0.185974
vn 0.923678 0.163906 -0.346344
vn 0.923678 0.163906 -0.346344
vn 0.923678 0.163906 -0.346344
vn 0.923678 0.163906 -0.346344
vn -0.976605 -0.107964 -0.185974
vn -0.976605 -0.107964 -0.185974
vn 0.923678 0.163906 0.346344
vn 0.923678 0.163906 0.346344
vn 0.923678 0.163906 0.346344
vn 0.923678 0.163906 0.346344
vn 0.976605 -0.107963 -0.185974
vn 0.976605 -0.107963 -0.185974
vn -0.923678 0.163906 0.346344
vn -0.923678 0.163906 0.346344
vn -0.923678 0.163906 0.346344
vn -0.923678 0.163906 0.346344
vn 0.185973 -0.107963 0.976605
vn 0.185973 -0.107963 0.976605
vn -0.346344 0.163906 -0.923678
vn -0.346344 0.163906 -0.923678
vn -0.346344 0.163906 -0.923678
vn -0.346344 0.163906 -0.923678
vn 0.185973 -0.107963 -0.976605
vn 0.185973 -0.107963 -0.976605
vn -0.346344 0.163906 0.923678
vn -0.346344 0.163906 0.923678
vn -0.346344 0.163906 0.923678
vn -0.346344 0.163906 0.923678
s 1
g pCube1
f 1/1/1 22/32/2 23/34/3 3/3/4
s 2
f 9/15/5 24/35/6 25/36/7 13/19/8
s 3
f 5/5/9 19/29/10 20/30/11 7/7/12
s 4
f 15/23/13 21/31/14 22/33/15 1/9/16
s 5
f 2/2/17 16/25/18 17/27/19 4/4/20
s 6
f 15/22/21 1/1/22 3/3/23 14/20/24
s 7
f 43/54/25 44/55/26 45/56/27 46/57/28
f 47/58/29 48/59/30 49/60/31 50/61/32
f 51/65/33 52/62/34 53/63/35 54/64/36
f 55/66/37 43/54/25 46/57/28 56/67/38
f 53/63/35 55/66/37 56/67/38 54/64/36
s 6
f 7/13/39 15/22/21 14/20/24 5/14/40
s 4
f 7/7/41 20/30/42 21/31/14 15/23/13
s 5
f 17/27/19 16/25/18 8/11/43 6/12/44
s 7
f 49/60/31 48/59/30 57/68/45 58/69/46
s 2
f 13/19/8 25/36/7 26/37/47 12/18/48
s 3
f 19/29/10 6/6/49 8/8/50 20/30/11
s 4
f 21/31/14 20/30/42 8/8/51 16/24/52
f 22/33/15 21/31/14 16/24/52 2/10/53
s 1
f 23/34/3 22/32/2 2/2/54 4/4/55
s 7
f 45/56/27 44/55/26 47/58/29 50/61/32
s 2
f 25/36/7 24/35/6 10/16/56 18/28/57
f 26/37/47 25/36/7 18/28/57 11/17/58
s 7
f 57/68/45 52/62/34 51/65/33 58/69/46
s 1
f 3/3/4 23/34/3 28/39/59 27/38/60
s 10
f 24/35/61 9/15/62 30/41/63 29/40/64
s 5
f 4/4/20 17/26/19 32/43/65 31/42/66
s 11
f 18/28/67 10/16/68 34/45/69 33/44/70
s 3
f 19/29/10 5/5/9 37/47/71 36/46/72
s 12
f 12/18/73 26/37/74 35/49/75 38/48/76
s 6
f 14/21/24 3/3/23 27/38/77 39/50/78
s 13
f 9/15/79 13/19/80 40/51/81 30/41/82
s 6
f 5/5/40 14/21/24 39/50/78 37/47/83
s 13
f 13/19/80 12/18/84 38/48/85 40/51/81
s 5
f 17/26/19 6/6/44 41/52/86 32/43/65
s 11
f 11/17/87 18/28/67 33/44/70 42/53/88
s 1
f 23/34/3 4/4/55 31/42/89 28/39/59
s 10
f 10/16/90 24/35/61 29/40/64 34/45/91
s 3
f 6/6/49 19/29/10 36/46/72 41/52/92
s 12
f 26/37/74 11/17/93 42/53/94 35/49/75
s 1
f 27/38/60 28/39/59 44/55/95 43/54/96
s off
f 29/40/97 30/41/98 46/57/99 45/56/100
s 5
f 31/42/66 32/43/65 48/59/101 47/58/102
s off
f 33/44/103 34/45/104 50/61/105 49/60/106
s 3
f 36/46/72 37/47/71 53/63/107 52/62/108
s off
f 38/48/109 35/49/110 51/65/111 54/64/112
s 6
f 39/50/78 27/38/77 43/54/113 55/66/114
s off
f 30/41/115 40/51/116 56/67/117 46/57/118
s 6
f 37/47/83 39/50/78 55/66/119 53/63/120
s off
f 40/51/121 38/48/122 54/64/123 56/67/124
s 5
f 32/43/65 41/52/86 57/68/125 48/59/126
s off
f 42/53/127 33/44/128 49/60/129 58/69/130
s 1
f 28/39/59 31/42/89 47/58/131 44/55/132
s off
f 34/45/133 29/40/134 45/56/135 50/61/136
s 3
f 41/52/92 36/46/72 52/62/137 57/68/138
s off
f 35/49/139 42/53/140 58/69/141 51/65/142
