# This file uses centimeters as units for non-parametric coordinates.

v -6.606376 0.000000 10.714015
v -6.849648 0.000000 10.537267
v -7.150351 0.000000 10.537267
v -7.393624 0.000000 10.714016
v -7.486547 0.000000 11.000000
v -7.393624 0.000000 11.285985
v -7.150352 0.000000 11.462733
v -6.849648 0.000000 11.462733
v -6.606375 0.000000 11.285984
v -6.513453 0.000000 11.000000
v -6.606376 0.042083 10.714015
v -6.849648 0.042083 10.537267
v -7.150351 0.042083 10.537267
v -7.393624 0.042083 10.714016
v -7.486547 0.042083 11.000000
v -7.393624 0.042083 11.285985
v -7.150352 0.042083 11.462733
v -6.849648 0.042083 11.462733
v -6.606375 0.042083 11.285984
v -6.513453 0.042083 11.000000
v -7.000000 0.000000 11.000000
v -7.000000 0.042083 11.000000
vt 0.626409 0.064409
vt 0.548284 0.007647
vt 0.451716 0.007647
vt 0.373591 0.064409
vt 0.343750 0.156250
vt 0.373591 0.248091
vt 0.451716 0.304853
vt 0.548284 0.304853
vt 0.626409 0.248091
vt 0.656250 0.156250
vt 0.375000 0.312500
vt 0.400000 0.312500
vt 0.425000 0.312500
vt 0.450000 0.312500
vt 0.475000 0.312500
vt 0.500000 0.312500
vt 0.525000 0.312500
vt 0.550000 0.312500
vt 0.575000 0.312500
vt 0.600000 0.312500
vt 0.625000 0.312500
vt 0.375000 0.688440
vt 0.400000 0.688440
vt 0.425000 0.688440
vt 0.450000 0.688440
vt 0.475000 0.688440
vt 0.500000 0.688440
vt 0.525000 0.688440
vt 0.550000 0.688440
vt 0.575000 0.688440
vt 0.600000 0.688440
vt 0.625000 0.688440
vt 0.626409 0.751909
vt 0.548284 0.695147
vt 0.451716 0.695147
vt 0.373591 0.751909
vt 0.343750 0.843750
vt 0.373591 0.935591
vt 0.451716 0.992353
vt 0.548284 0.992353
vt 0.626409 0.935591
vt 0.656250 0.843750
vt 0.500000 0.150000
vt 0.500000 0.837500
vn 0.587786 0.000000 -0.809017
vn 0.587786 0.000000 -0.809017
vn 0.587786 0.000000 -0.809017
vn 0.587786 0.000000 -0.809017
vn 0.000000 0.000000 -1.000000
vn 0.000000 0.000000 -1.000000
vn 0.000000 0.000000 -1.000000
vn 0.000000 0.000000 -1.000000
vn -0.587788 0.000000 -0.809015
vn -0.587788 0.000000 -0.809015
vn -0.587788 0.000000 -0.809015
vn -0.587788 0.000000 -0.809015
vn -0.951056 0.000000 -0.309018
vn -0.951056 0.000000 -0.309018
vn -0.951056 0.000000 -0.309018
vn -0.951056 0.000000 -0.309018
vn -0.951057 0.000000 0.309017
vn -0.951057 0.000000 0.309017
vn -0.951057 0.000000 0.309017
vn -0.951057 0.000000 0.309017
vn -0.587786 0.000000 0.809017
vn -0.587786 0.000000 0.809017
vn -0.587786 0.000000 0.809017
vn -0.587786 0.000000 0.809017
vn 0.000000 0.000000 1.000000
vn 0.000000 0.000000 1.000000
vn 0.000000 0.000000 1.000000
vn 0.000000 0.000000 1.000000
vn 0.587788 0.000000 0.809015
vn 0.587788 0.000000 0.809015
vn 0.587788 0.000000 0.809015
vn 0.587788 0.000000 0.809015
vn 0.951057 0.000000 0.309017
vn 0.951057 0.000000 0.309017
vn 0.951057 0.000000 0.309017
vn 0.951057 0.000000 0.309017
vn 0.951057 0.000000 -0.309017
vn 0.951057 0.000000 -0.309017
vn 0.951057 0.000000 -0.309017
vn 0.951057 0.000000 -0.309017
vn 0.000000 -1.000000 0.000000
vn 0.000000 -1.000000 0.000000
vn 0.000000 -1.000000 0.000000
vn 0.000000 -1.000000 0.000000
vn 0.000000 -1.000000 0.000000
vn 0.000000 -1.000000 0.000000
vn 0.000000 -1.000000 0.000000
vn 0.000000 -1.000000 0.000000
vn 0.000000 -1.000000 0.000000
vn 0.000000 -1.000000 0.000000
vn 0.000000 -1.000000 0.000000
vn 0.000000 1.000000 -0.000000
vn 0.000000 1.000000 -0.000000
vn 0.000000 1.000000 -0.000000
vn 0.000000 1.000000 -0.000000
vn 0.000000 1.000000 -0.000000
vn 0.000000 1.000000 0.000000
vn 0.000000 1.000000 0.000000
vn 0.000000 1.000000 0.000000
vn 0.000000 1.000000 0.000000
vn 0.000000 1.000000 0.000000
vn 0.000000 1.000000 -0.000000
f 1/11/1 2/12/2 12/23/3 11/22/4
f 2/12/5 3/13/6 13/24/7 12/23/8
f 3/13/9 4/14/10 14/25/11 13/24/12
f 4/14/13 5/15/14 15/26/15 14/25/16
f 5/15/17 6/16/18 16/27/19 15/26/20
f 6/16/21 7/17/22 17/28/23 16/27/24
f 7/17/25 8/18/26 18/29/27 17/28/28
f 8/18/29 9/19/30 19/30/31 18/29/32
f 9/19/33 10/20/34 20/31/35 19/30/36
f 10/20/37 1/21/38 11/32/39 20/31/40
f 2/2/41 1/1/42 21/43/43
f 3/3/44 2/2/41 21/43/43
f 4/4/45 3/3/44 21/43/43
f 5/5/46 4/4/45 21/43/43
f 6/6/47 5/5/46 21/43/43
f 7/7/48 6/6/47 21/43/43
f 8/8/49 7/7/48 21/43/43
f 9/9/50 8/8/49 21/43/43
f 10/10/51 9/9/50 21/43/43
f 1/1/42 10/10/51 21/43/43
f 11/41/52 12/40/53 22/44/54
f 12/40/53 13/39/55 22/44/54
f 13/39/55 14/38/56 22/44/54
f 14/38/56 15/37/57 22/44/54
f 15/37/57 16/36/58 22/44/54
f 16/36/58 17/35/59 22/44/54
f 17/35/59 18/34/60 22/44/54
f 18/34/60 19/33/61 22/44/54
f 19/33/61 20/42/62 22/44/54
f 20/42/62 11/41/52 22/44/54
v -6.448545 4.027188 10.599344
v -6.789363 4.027188 10.351726
v -7.210637 4.027188 10.351726
v -7.551455 4.027188 10.599344
v -7.681636 4.027188 11.000000
v -7.551455 4.027188 11.400656
v -7.210637 4.027188 11.648274
v -6.789363 4.027188 11.648274
v -6.448545 4.027188 11.400656
v -6.318364 4.027188 11.000000
v -6.775364 4.929575 10.836793
v -6.914197 4.929575 10.735925
v -7.085803 4.929575 10.735926
v -7.224636 4.929575 10.836793
v -7.277665 4.929575 11.000000
v -7.224636 4.929575 11.163207
v -7.085803 4.929575 11.264074
v -6.914197 4.929575 11.264074
v -6.775364 4.929575 11.163207
v -6.722335 4.929575 11.000000
v -7.000000 4.929575 11.000000
v -6.559391 4.027188 10.679879
v -6.830343 4.027188 10.477849
v -7.173600 4.027188 10.465714
v -7.428817 4.027188 10.688447
v -7.536089 4.027188 11.000000
v -7.439268 4.027188 11.319146
v -7.166366 4.027188 11.512023
v -6.831271 4.027188 11.519295
v -6.570934 4.027188 11.311735
v -6.461100 4.027188 11.000000
v -6.730438 4.740355 11.196749
v -6.663633 4.740355 10.998558
v -7.000000 4.740355 11.000000
v -6.725470 4.740355 10.799277
v -6.895417 4.740355 10.672485
v -7.105348 4.740355 10.669686
v -7.269446 4.740355 10.800968
v -7.334969 4.740355 11.001308
v -7.273352 4.740355 11.198885
v -7.104003 4.740355 11.321096
v -6.896061 4.740355 11.322487
vt 0.626409 0.064409
vt 0.548284 0.007647
vt 0.451716 0.007647
vt 0.373591 0.064409
vt 0.343750 0.156250
vt 0.373591 0.248091
vt 0.451716 0.304853
vt 0.548284 0.304853
vt 0.626409 0.248091
vt 0.656250 0.156250
vt 0.375000 0.312500
vt 0.400000 0.312500
vt 0.425000 0.312500
vt 0.450000 0.312500
vt 0.475000 0.312500
vt 0.500000 0.312500
vt 0.525000 0.312500
vt 0.550000 0.312500
vt 0.575000 0.312500
vt 0.600000 0.312500
vt 0.625000 0.312500
vt 0.375000 0.688440
vt 0.400000 0.688440
vt 0.425000 0.688440
vt 0.450000 0.688440
vt 0.475000 0.688440
vt 0.500000 0.688440
vt 0.525000 0.688440
vt 0.550000 0.688440
vt 0.575000 0.688440
vt 0.600000 0.688440
vt 0.625000 0.688440
vt 0.626409 0.751909
vt 0.548284 0.695147
vt 0.451716 0.695147
vt 0.373591 0.751909
vt 0.343750 0.843750
vt 0.373591 0.935591
vt 0.451716 0.992353
vt 0.548284 0.992353
vt 0.626409 0.935591
vt 0.656250 0.843750
vt 0.500000 0.150000
vt 0.500000 0.837500
vt 0.601000 0.081613
vt 0.538890 0.035342
vt 0.460206 0.032678
vt 0.401703 0.083443
vt 0.377113 0.154915
vt 0.399308 0.228136
vt 0.461864 0.272306
vt 0.538677 0.274043
vt 0.598354 0.226321
vt 0.623531 0.154941
vt 0.623531 0.154941
vt 0.598354 0.226321
vt 0.601000 0.081613
vt 0.538890 0.035342
vt 0.460206 0.032678
vt 0.401703 0.083443
vt 0.377113 0.154915
vt 0.399308 0.228136
vt 0.461864 0.272306
vt 0.538677 0.274043
vn 0.000000 1.000000 -0.000003
vn 0.000000 1.000000 0.000000
vn 0.000000 1.000000 0.000000
vn 0.000000 1.000000 0.000001
vn 0.000000 1.000000 -0.000002
vn 0.000000 1.000000 0.000000
vn 0.000000 1.000000 0.000003
vn 0.000000 1.000000 0.000000
vn 0.000000 1.000000 -0.000001
vn 0.000000 1.000000 0.000002
vn 0.000000 1.000000 0.000000
vn 0.540810 0.391732 -0.744359
vn 0.540810 0.391732 -0.744360
vn 0.540810 0.391732 -0.744359
vn 0.540810 0.391732 -0.744359
vn 0.000000 0.391733 -0.920079
vn 0.000000 0.391733 -0.920079
vn 0.000000 0.391733 -0.920079
vn 0.000000 0.391733 -0.920079
vn -0.540810 0.391732 -0.744359
vn -0.540810 0.391732 -0.744359
vn -0.540810 0.391732 -0.744359
vn -0.540810 0.391732 -0.744359
vn -0.875047 0.391733 -0.284320
vn -0.875047 0.391733 -0.284320
vn -0.875047 0.391733 -0.284320
vn -0.875047 0.391733 -0.284320
vn -0.875048 0.391732 0.284320
vn -0.875048 0.391732 0.284320
vn -0.875048 0.391732 0.284320
vn -0.875048 0.391732 0.284320
vn -0.540810 0.391731 0.744360
vn -0.540810 0.391731 0.744360
vn -0.540810 0.391731 0.744360
vn -0.540810 0.391731 0.744360
vn 0.000000 0.391733 0.920079
vn 0.000000 0.391733 0.920079
vn 0.000000 0.391733 0.920079
vn 0.000000 0.391733 0.920079
vn 0.540810 0.391732 0.744359
vn 0.540810 0.391732 0.744359
vn 0.540810 0.391732 0.744359
vn 0.540810 0.391732 0.744359
vn 0.875048 0.391732 0.284319
vn 0.875048 0.391732 0.284319
vn 0.875048 0.391732 0.284319
vn 0.875048 0.391732 0.284319
vn 0.875047 0.391733 -0.284321
vn 0.875047 0.391733 -0.284321
vn 0.875047 0.391733 -0.284320
vn 0.875047 0.391733 -0.284320
vn 0.000000 -1.000000 -0.000001
vn 0.000000 -1.000000 -0.000001
vn 0.000000 -1.000000 -0.000001
vn 0.000000 -1.000000 -0.000001
vn 0.000000 -1.000000 -0.000001
vn 0.000000 -1.000000 -0.000001
vn 0.000000 -1.000000 0.000000
vn 0.000000 -1.000000 0.000000
vn 0.000000 -1.000000 0.000000
vn 0.000000 -1.000000 0.000000
vn 0.000000 -1.000000 0.000000
vn 0.000000 -1.000000 0.000000
vn 0.000000 -1.000000 0.000000
vn 0.000000 -1.000000 0.000000
vn 0.000000 -1.000000 -0.000001
vn 0.000000 -1.000000 -0.000001
vn 0.000000 -1.000000 -0.000001
vn 0.000000 -1.000000 -0.000001
vn 0.000000 -1.000000 0.000000
vn 0.000000 -1.000000 0.000000
vn -0.000001 -1.000000 0.000000
vn -0.000001 -1.000000 0.000000
vn -0.000001 -1.000000 0.000000
vn -0.000001 -1.000000 0.000000
vn -0.000002 -1.000000 0.000001
vn -0.000000 -1.000000 0.000001
vn 0.000001 -1.000000 0.000003
vn -0.000001 -1.000000 -0.000000
vn 0.000000 -1.000000 -0.000004
vn -0.000000 -1.000000 -0.000001
vn -0.000002 -1.000000 -0.000000
vn -0.913033 -0.257567 -0.316276
vn -0.913033 -0.257567 -0.316276
vn -0.913033 -0.257567 -0.316276
vn -0.913033 -0.257567 -0.316276
vn -0.922272 -0.261859 0.284331
vn -0.922272 -0.261859 0.284331
vn -0.922272 -0.261859 0.284331
vn -0.922272 -0.261859 0.284331
vn -0.576684 -0.263701 0.773239
vn -0.576684 -0.263701 0.773239
vn -0.576684 -0.263701 0.773239
vn -0.576684 -0.263700 0.773239
vn -0.025994 -0.269007 0.962787
vn -0.025994 -0.269007 0.962787
vn -0.025994 -0.269007 0.962787
vn -0.025994 -0.269007 0.962787
vn 0.622409 -0.262911 0.737214
vn 0.622409 -0.262911 0.737214
vn 0.622409 -0.262911 0.737214
vn 0.622409 -0.262911 0.737214
vn 0.915865 -0.256148 0.309160
vn 0.915865 -0.256148 0.309160
vn 0.915865 -0.256148 0.309160
vn 0.915865 -0.256148 0.309160
vn 0.922905 -0.261089 -0.282981
vn 0.922905 -0.261089 -0.282981
vn 0.922905 -0.261089 -0.282981
vn 0.922905 -0.261089 -0.282981
vn 0.560112 -0.261167 -0.786172
vn 0.560112 -0.261167 -0.786172
vn 0.560112 -0.261167 -0.786172
vn 0.560112 -0.261167 -0.786172
vn 0.015397 -0.262265 -0.964873
vn 0.015397 -0.262265 -0.964873
vn 0.015397 -0.262265 -0.964873
vn 0.015397 -0.262265 -0.964873
vn -0.595074 -0.259823 -0.760512
vn -0.595074 -0.259823 -0.760512
vn -0.595074 -0.259823 -0.760512
vn -0.595074 -0.259823 -0.760512
f 33/85/63 34/84/64 43/88/65
f 34/84/64 35/83/66 43/88/65
f 35/83/66 36/82/67 43/88/65
f 36/82/67 37/81/68 43/88/65
f 37/81/68 38/80/69 43/88/65
f 38/80/69 39/79/70 43/88/65
f 39/79/70 40/78/71 43/88/65
f 40/78/71 41/77/72 43/88/65
f 41/77/72 42/86/73 43/88/65
f 42/86/73 33/85/63 43/88/65
f 33/66/74 23/55/75 24/56/76 34/67/77
f 34/67/78 24/56/79 25/57/80 35/68/81
f 35/68/82 25/57/83 26/58/84 36/69/85
f 36/69/86 26/58/87 27/59/88 37/70/89
f 37/70/90 27/59/91 28/60/92 38/71/93
f 38/71/94 28/60/95 29/61/96 39/72/97
f 39/72/98 29/61/99 30/62/100 40/73/101
f 40/73/102 30/62/103 31/63/104 41/74/105
f 41/74/106 31/63/107 32/64/108 42/75/109
f 42/75/110 32/64/111 23/65/112 33/76/113
f 44/89/114 45/90/115 24/46/116 23/45/117
f 45/90/115 46/91/118 25/47/119 24/46/116
f 46/91/118 47/92/120 26/48/121 25/47/119
f 47/92/120 48/93/122 27/49/123 26/48/121
f 48/93/122 49/94/124 28/50/125 27/49/123
f 49/94/124 50/95/126 29/51/127 28/50/125
f 50/95/126 51/96/128 30/52/129 29/51/127
f 51/96/128 52/97/130 31/53/131 30/52/129
f 52/97/130 53/98/132 32/54/133 31/53/131
f 53/98/132 44/89/114 23/45/117 32/54/133
f 55/99/134 54/100/135 56/87/136
f 57/101/137 55/99/134 56/87/136
f 58/102/138 57/101/137 56/87/136
f 59/103/139 58/102/138 56/87/136
f 60/104/140 59/103/139 56/87/136
f 61/105/141 60/104/140 56/87/136
f 62/106/142 61/105/141 56/87/136
f 63/107/143 62/106/142 56/87/136
f 64/108/144 63/107/143 56/87/136
f 54/100/135 64/108/144 56/87/136
f 53/98/145 52/97/146 54/100/147 55/99/148
f 44/89/149 53/98/150 55/99/151 57/101/152
f 45/90/153 44/89/154 57/101/155 58/102/156
f 46/91/157 45/90/158 58/102/159 59/103/160
f 47/92/161 46/91/162 59/103/163 60/104/164
f 48/93/165 47/92/166 60/104/167 61/105/168
f 49/94/169 48/93/170 61/105/171 62/106/172
f 50/95/173 49/94/174 62/106/175 63/107/176
f 51/96/177 50/95/178 63/107/179 64/108/180
f 52/97/181 51/96/182 64/108/183 54/100/184
v -6.943483 0.000000 10.958939
v -6.978413 0.000000 10.933561
v -7.021587 0.000000 10.933561
v -7.056517 0.000000 10.958939
v -7.069858 0.000000 11.000000
v -7.056517 0.000000 11.041061
v -7.021587 0.000000 11.066439
v -6.978413 0.000000 11.066439
v -6.943483 0.000000 11.041061
v -6.930142 0.000000 11.000000
v -6.943483 4.718002 10.958939
v -6.978413 4.718002 10.933561
v -7.021587 4.718002 10.933561
v -7.056517 4.718002 10.958939
v -7.069858 4.718002 11.000000
v -7.056517 4.718002 11.041061
v -7.021587 4.718002 11.066439
v -6.978413 4.718002 11.066439
v -6.943483 4.718002 11.041061
v -6.930142 4.718002 11.000000
v -7.000000 0.000000 11.000000
v -7.000000 4.718002 11.000000
vt 0.626409 0.064409
vt 0.548284 0.007647
vt 0.451716 0.007647
vt 0.373591 0.064409
vt 0.343750 0.156250
vt 0.373591 0.248091
vt 0.451716 0.304853
vt 0.548284 0.304853
vt 0.626409 0.248091
vt 0.656250 0.156250
vt 0.375000 0.312500
vt 0.400000 0.312500
vt 0.425000 0.312500
vt 0.450000 0.312500
vt 0.475000 0.312500
vt 0.500000 0.312500
vt 0.525000 0.312500
vt 0.550000 0.312500
vt 0.575000 0.312500
vt 0.600000 0.312500
vt 0.625000 0.312500
vt 0.375000 0.688440
vt 0.400000 0.688440
vt 0.425000 0.688440
vt 0.450000 0.688440
vt 0.475000 0.688440
vt 0.500000 0.688440
vt 0.525000 0.688440
vt 0.550000 0.688440
vt 0.575000 0.688440
vt 0.600000 0.688440
vt 0.625000 0.688440
vt 0.626409 0.751909
vt 0.548284 0.695147
vt 0.451716 0.695147
vt 0.373591 0.751909
vt 0.343750 0.843750
vt 0.373591 0.935591
vt 0.451716 0.992353
vt 0.548284 0.992353
vt 0.626409 0.935591
vt 0.656250 0.843750
vt 0.500000 0.150000
vt 0.500000 0.837500
vn 0.587774 0.000000 -0.809025
vn 0.587774 0.000000 -0.809025
vn 0.587774 0.000000 -0.809025
vn 0.587774 0.000000 -0.809025
vn 0.000000 0.000000 -1.000000
vn 0.000000 0.000000 -1.000000
vn 0.000000 0.000000 -1.000000
vn 0.000000 0.000000 -1.000000
vn -0.587774 0.000000 -0.809025
vn -0.587774 0.000000 -0.809025
vn -0.587774 0.000000 -0.809025
vn -0.587774 0.000000 -0.809025
vn -0.951059 0.000000 -0.309010
vn -0.951059 0.000000 -0.309010
vn -0.951059 0.000000 -0.309010
vn -0.951059 0.000000 -0.309010
vn -0.951057 0.000000 0.309015
vn -0.951057 0.000000 0.309015
vn -0.951057 0.000000 0.309015
vn -0.951057 0.000000 0.309015
vn -0.587786 0.000000 0.809016
vn -0.587786 0.000000 0.809016
vn -0.587786 0.000000 0.809016
vn -0.587786 0.000000 0.809016
vn 0.000000 0.000000 1.000000
vn 0.000000 0.000000 1.000000
vn 0.000000 0.000000 1.000000
vn 0.000000 0.000000 1.000000
vn 0.587786 0.000000 0.809016
vn 0.587786 0.000000 0.809016
vn 0.587786 0.000000 0.809016
vn 0.587786 0.000000 0.809016
vn 0.951057 0.000000 0.309015
vn 0.951057 0.000000 0.309015
vn 0.951057 0.000000 0.309015
vn 0.951057 0.000000 0.309015
vn 0.951059 0.000000 -0.309010
vn 0.951059 0.000000 -0.309010
vn 0.951059 0.000000 -0.309010
vn 0.951059 0.000000 -0.309010
vn 0.000000 -1.000000 0.000000
vn 0.000000 -1.000000 0.000000
vn 0.000000 -1.000000 0.000000
vn 0.000000 -1.000000 0.000000
vn 0.000000 -1.000000 0.000000
vn 0.000000 -1.000000 0.000000
vn 0.000000 -1.000000 0.000000
vn 0.000000 -1.000000 0.000000
vn 0.000000 -1.000000 0.000000
vn 0.000000 -1.000000 0.000000
vn 0.000000 -1.000000 0.000000
vn 0.000000 1.000000 -0.000010
vn 0.000000 1.000000 0.000000
vn 0.000000 1.000000 0.000000
vn 0.000000 1.000000 0.000000
vn 0.000000 1.000000 -0.000010
vn 0.000000 1.000000 0.000000
vn 0.000000 1.000000 0.000010
vn 0.000000 1.000000 0.000000
vn 0.000000 1.000000 0.000000
vn 0.000000 1.000000 0.000010
vn 0.000000 1.000000 0.000000
f 65/119/185 66/120/186 76/131/187 75/130/188
f 66/120/189 67/121/190 77/132/191 76/131/192
f 67/121/193 68/122/194 78/133/195 77/132/196
f 68/122/197 69/123/198 79/134/199 78/133/200
f 69/123/201 70/124/202 80/135/203 79/134/204
f 70/124/205 71/125/206 81/136/207 80/135/208
f 71/125/209 72/126/210 82/137/211 81/136/212
f 72/126/213 73/127/214 83/138/215 82/137/216
f 73/127/217 74/128/218 84/139/219 83/138/220
f 74/128/221 65/129/222 75/140/223 84/139/224
f 66/110/225 65/109/226 85/151/227
f 67/111/228 66/110/225 85/151/227
f 68/112/229 67/111/228 85/151/227
f 69/113/230 68/112/229 85/151/227
f 70/114/231 69/113/230 85/151/227
f 71/115/232 70/114/231 85/151/227
f 72/116/233 71/115/232 85/151/227
f 73/117/234 72/116/233 85/151/227
f 74/118/235 73/117/234 85/151/227
f 65/109/226 74/118/235 85/151/227
f 75/149/236 76/148/237 86/152/238
f 76/148/237 77/147/239 86/152/238
f 77/147/239 78/146/240 86/152/238
f 78/146/240 79/145/241 86/152/238
f 79/145/241 80/144/242 86/152/238
f 80/144/242 81/143/243 86/152/238
f 81/143/243 82/142/244 86/152/238
f 82/142/244 83/141/245 86/152/238
f 83/141/245 84/150/246 86/152/238
f 84/150/246 75/149/236 86/152/238
