# This file uses centimeters as units for non-parametric coordinates.

v -8.295732 6.127130 2.443488
v -8.295732 5.786877 2.443488
v -8.295732 4.203056 2.443488
v -8.295732 3.965290 2.443488
v -8.295732 2.381469 2.443488
v -8.295732 2.041216 2.443488
v -7.980877 6.127130 2.443488
v -7.980877 5.786877 2.443488
v -7.980877 4.203056 2.443488
v -7.980877 3.965290 2.443488
v -7.980877 2.381469 2.443488
v -7.980877 2.041216 2.443488
v -7.980877 6.127130 2.158924
v -7.980877 5.786877 2.158924
v -7.980877 4.203056 2.158924
v -7.980877 3.965290 2.158924
v -7.980877 2.381469 2.158924
v -7.980877 2.041216 2.158924
v -7.980877 6.127130 1.135773
v -7.980877 5.786877 1.135773
v -7.980877 4.203056 1.135773
v -7.980877 3.965290 1.135773
v -7.980877 2.381469 1.135773
v -7.980877 2.041216 1.135773
v -7.980877 6.127130 0.863337
v -7.980877 5.786877 0.863337
v -7.980877 4.203056 0.863337
v -7.980877 3.965290 0.863337
v -7.980877 2.381469 0.863337
v -7.980877 2.041216 0.863337
v -7.980877 6.127130 -0.159814
v -7.980877 5.786877 -0.159814
v -7.980877 4.203056 -0.159814
v -7.980877 3.965290 -0.159814
v -7.980877 2.381469 -0.159814
v -7.980877 2.041216 -0.159814
v -7.980877 6.127130 -0.444378
v -7.980877 5.786877 -0.444378
v -7.980877 4.203056 -0.444378
v -7.980877 3.965290 -0.444378
v -7.980877 2.381469 -0.444378
v -7.980877 2.041216 -0.444378
v -8.295732 6.127130 -0.444378
v -8.295732 5.786877 -0.444378
v -8.295732 4.203056 -0.444378
v -8.295732 3.965290 -0.444378
v -8.295732 2.381469 -0.444378
v -8.295732 2.041216 -0.444378
v -8.295732 6.127130 -0.159814
v -8.295732 5.786877 -0.159814
v -8.295732 4.203056 -0.159814
v -8.295732 3.965290 -0.159814
v -8.295732 2.381469 -0.159814
v -8.295732 2.041216 -0.159814
v -8.295732 6.127130 0.863337
v -8.295732 5.786877 0.863337
v -8.295732 4.203056 0.863337
v -8.295732 3.965290 0.863337
v -8.295732 2.381469 0.863337
v -8.295732 2.041216 0.863337
v -8.295732 6.127130 1.135773
v -8.295732 5.786877 1.135773
v -8.295732 4.203056 1.135773
v -8.295732 3.965290 1.135773
v -8.295732 2.381469 1.135773
v -8.295732 2.041216 1.135773
v -8.295732 6.127130 2.158924
v -8.295732 5.786877 2.158924
v -8.295732 4.203056 2.158924
v -8.295732 3.965290 2.158924
v -8.295732 2.381469 2.158924
v -8.295732 2.041216 2.158924
vt 0.375000 0.000000
vt 0.425000 0.000000
vt 0.475000 0.000000
vt 0.525000 0.000000
vt 0.575000 0.000000
vt 0.625000 0.000000
vt 0.375000 0.250000
vt 0.425000 0.250000
vt 0.475000 0.250000
vt 0.525000 0.250000
vt 0.575000 0.250000
vt 0.625000 0.250000
vt 0.375000 0.300000
vt 0.425000 0.300000
vt 0.475000 0.300000
vt 0.525000 0.300000
vt 0.575000 0.300000
vt 0.625000 0.300000
vt 0.375000 0.350000
vt 0.425000 0.350000
vt 0.475000 0.350000
vt 0.525000 0.350000
vt 0.575000 0.350000
vt 0.625000 0.350000
vt 0.375000 0.400000
vt 0.425000 0.400000
vt 0.475000 0.400000
vt 0.525000 0.400000
vt 0.575000 0.400000
vt 0.625000 0.400000
vt 0.375000 0.450000
vt 0.425000 0.450000
vt 0.475000 0.450000
vt 0.525000 0.450000
vt 0.575000 0.450000
vt 0.625000 0.450000
vt 0.375000 0.500000
vt 0.425000 0.500000
vt 0.475000 0.500000
vt 0.525000 0.500000
vt 0.575000 0.500000
vt 0.625000 0.500000
vt 0.375000 0.750000
vt 0.425000 0.750000
vt 0.475000 0.750000
vt 0.525000 0.750000
vt 0.575000 0.750000
vt 0.625000 0.750000
vt 0.375000 0.800000
vt 0.425000 0.800000
vt 0.475000 0.800000
vt 0.525000 0.800000
vt 0.575000 0.800000
vt 0.625000 0.800000
vt 0.375000 0.850000
vt 0.425000 0.850000
vt 0.475000 0.850000
vt 0.525000 0.850000
vt 0.575000 0.850000
vt 0.625000 0.850000
vt 0.375000 0.900000
vt 0.425000 0.900000
vt 0.475000 0.900000
vt 0.525000 0.900000
vt 0.575000 0.900000
vt 0.625000 0.900000
vt 0.375000 0.950000
vt 0.425000 0.950000
vt 0.475000 0.950000
vt 0.525000 0.950000
vt 0.575000 0.950000
vt 0.625000 0.950000
vt 0.375000 1.000000
vt 0.425000 1.000000
vt 0.475000 1.000000
vt 0.525000 1.000000
vt 0.575000 1.000000
vt 0.625000 1.000000
vt 0.875000 0.000000
vt 0.825000 0.000000
vt 0.775000 0.000000
vt 0.725000 0.000000
vt 0.675000 0.000000
vt 0.875000 0.250000
vt 0.825000 0.250000
vt 0.775000 0.250000
vt 0.725000 0.250000
vt 0.675000 0.250000
vt 0.125000 0.000000
vt 0.175000 0.000000
vt 0.225000 0.000000
vt 0.275000 0.000000
vt 0.325000 0.000000
vt 0.125000 0.250000
vt 0.175000 0.250000
vt 0.225000 0.250000
vt 0.275000 0.250000
vt 0.325000 0.250000
vn 0.000000 0.000000 1.000000
vn 0.000000 0.000000 1.000000
vn 0.000000 0.000000 1.000000
vn 0.000000 0.000000 1.000000
vn 0.000000 0.000000 1.000000
vn 0.000000 0.000000 1.000000
vn 0.000000 0.000000 1.000000
vn 0.000000 0.000000 1.000000
vn 0.000000 0.000000 1.000000
vn 0.000000 0.000000 1.000000
vn 0.000000 0.000000 1.000000
vn 0.000000 0.000000 1.000000
vn 1.000000 0.000000 0.000000
vn 1.000000 0.000000 0.000000
vn 1.000000 0.000000 0.000000
vn 1.000000 0.000000 0.000000
vn 1.000000 0.000000 0.000000
vn 1.000000 0.000000 0.000000
vn 1.000000 0.000000 0.000000
vn 1.000000 0.000000 0.000000
vn 1.000000 0.000000 0.000000
vn 1.000000 0.000000 0.000000
vn 1.000000 0.000000 0.000000
vn 1.000000 0.000000 0.000000
vn 1.000000 0.000000 0.000000
vn 1.000000 0.000000 0.000000
vn 1.000000 0.000000 0.000000
vn 1.000000 0.000000 0.000000
vn 1.000000 0.000000 0.000000
vn 1.000000 0.000000 0.000000
vn 1.000000 0.000000 0.000000
vn 1.000000 0.000000 0.000000
vn 1.000000 0.000000 0.000000
vn 1.000000 0.000000 0.000000
vn 1.000000 0.000000 0.000000
vn 1.000000 0.000000 0.000000
vn 1.000000 0.000000 0.000000
vn 1.000000 0.000000 0.000000
vn 1.000000 0.000000 0.000000
vn 1.000000 0.000000 0.000000
vn 1.000000 0.000000 0.000000
vn 1.000000 0.000000 0.000000
vn 1.000000 0.000000 0.000000
vn 1.000000 0.000000 0.000000
vn 1.000000 0.000000 0.000000
vn 1.000000 0.000000 0.000000
vn 1.000000 0.000000 0.000000
vn 1.000000 0.000000 0.000000
vn 0.000000 0.000000 -1.000000
vn 0.000000 0.000000 -1.000000
vn 0.000000 0.000000 -1.000000
vn 0.000000 0.000000 -1.000000
vn 0.000000 0.000000 -1.000000
vn 0.000000 0.000000 -1.000000
vn 0.000000 0.000000 -1.000000
vn 0.000000 0.000000 -1.000000
vn 0.000000 0.000000 -1.000000
vn 0.000000 0.000000 -1.000000
vn 0.000000 0.000000 -1.000000
vn 0.000000 0.000000 -1.000000
vn -1.000000 0.000000 0.000000
vn -1.000000 0.000000 0.000000
vn -1.000000 0.000000 0.000000
vn -1.000000 0.000000 0.000000
vn -1.000000 0.000000 0.000000
vn -1.000000 0.000000 0.000000
vn -1.000000 0.000000 0.000000
vn -1.000000 0.000000 0.000000
vn -1.000000 0.000000 0.000000
vn -1.000000 0.000000 0.000000
vn -1.000000 0.000000 0.000000
vn -1.000000 0.000000 0.000000
vn -1.000000 0.000000 0.000000
vn -1.000000 0.000000 0.000000
vn -1.000000 0.000000 0.000000
vn -1.000000 0.000000 0.000000
vn -1.000000 0.000000 0.000000
vn -1.000000 0.000000 0.000000
vn -1.000000 0.000000 0.000000
vn -1.000000 0.000000 0.000000
vn -1.000000 0.000000 0.000000
vn -1.000000 0.000000 0.000000
vn -1.000000 0.000000 0.000000
vn -1.000000 0.000000 0.000000
vn -1.000000 0.000000 0.000000
vn -1.000000 0.000000 0.000000
vn -1.000000 0.000000 0.000000
vn -1.000000 0.000000 0.000000
vn -1.000000 0.000000 0.000000
vn -1.000000 0.000000 0.000000
vn -1.000000 0.000000 0.000000
vn -1.000000 0.000000 0.000000
vn -1.000000 0.000000 0.000000
vn -1.000000 0.000000 0.000000
vn -1.000000 0.000000 0.000000
vn -1.000000 0.000000 0.000000
vn 0.000000 -1.000000 0.000000
vn 0.000000 -1.000000 0.000000
vn 0.000000 -1.000000 0.000000
vn 0.000000 -1.000000 0.000000
vn 0.000000 -1.000000 0.000000
vn 0.000000 -1.000000 0.000000
vn 0.000000 -1.000000 0.000000
vn 0.000000 -1.000000 0.000000
vn 0.000000 -1.000000 0.000000
vn 0.000000 -1.000000 0.000000
vn 0.000000 -1.000000 0.000000
vn 0.000000 -1.000000 0.000000
vn 0.000000 1.000000 0.000000
vn 0.000000 1.000000 0.000000
vn 0.000000 1.000000 0.000000
vn 0.000000 1.000000 0.000000
vn 0.000000 1.000000 0.000000
vn 0.000000 1.000000 0.000000
vn 0.000000 1.000000 0.000000
vn 0.000000 1.000000 0.000000
vn 0.000000 1.000000 0.000000
vn 0.000000 1.000000 0.000000
vn 0.000000 1.000000 0.000000
vn 0.000000 1.000000 0.000000
vn 0.000000 0.000000 -1.000000
vn 0.000000 0.000000 -1.000000
vn 0.000000 0.000000 -1.000000
vn 0.000000 0.000000 -1.000000
vn 0.000000 -1.000000 0.000000
vn 0.000000 -1.000000 0.000000
vn 0.000000 -1.000000 0.000000
vn 0.000000 -1.000000 0.000000
vn 0.000000 0.000000 1.000000
vn 0.000000 0.000000 1.000000
vn 0.000000 0.000000 1.000000
vn 0.000000 0.000000 1.000000
vn 0.000000 1.000000 0.000000
vn 0.000000 1.000000 0.000000
vn 0.000000 1.000000 0.000000
vn 0.000000 1.000000 0.000000
vn 0.000000 0.000000 -1.000000
vn 0.000000 0.000000 -1.000000
vn 0.000000 0.000000 -1.000000
vn 0.000000 0.000000 -1.000000
vn 0.000000 1.000000 0.000000
vn 0.000000 1.000000 0.000000
vn 0.000000 1.000000 0.000000
vn 0.000000 1.000000 0.000000
vn 0.000000 0.000000 1.000000
vn 0.000000 0.000000 1.000000
vn 0.000000 0.000000 1.000000
vn 0.000000 0.000000 1.000000
vn 0.000000 -1.000000 0.000000
vn 0.000000 -1.000000 0.000000
vn 0.000000 -1.000000 0.000000
vn 0.000000 -1.000000 0.000000
vn 0.000000 -1.000000 0.000000
vn 0.000000 -1.000000 0.000000
vn 0.000000 -1.000000 0.000000
vn 0.000000 -1.000000 0.000000
vn 0.000000 0.000000 1.000000
vn 0.000000 0.000000 1.000000
vn 0.000000 0.000000 1.000000
vn 0.000000 0.000000 1.000000
vn 0.000000 0.000000 -1.000000
vn 0.000000 0.000000 -1.000000
vn 0.000000 0.000000 -1.000000
vn 0.000000 0.000000 -1.000000
vn 0.000000 1.000000 0.000000
vn 0.000000 1.000000 0.000000
vn 0.000000 1.000000 0.000000
vn 0.000000 1.000000 0.000000
vn 0.000000 0.000000 1.000000
vn 0.000000 0.000000 1.000000
vn 0.000000 0.000000 1.000000
vn 0.000000 0.000000 1.000000
vn 0.000000 1.000000 0.000000
vn 0.000000 1.000000 0.000000
vn 0.000000 1.000000 0.000000
vn 0.000000 1.000000 0.000000
vn 0.000000 0.000000 -1.000000
vn 0.000000 0.000000 -1.000000
vn 0.000000 0.000000 -1.000000
vn 0.000000 0.000000 -1.000000
vn 0.000000 -1.000000 0.000000
vn 0.000000 -1.000000 0.000000
vn 0.000000 -1.000000 0.000000
vn 0.000000 -1.000000 0.000000
f 1/1/1 2/2/2 8/8/3 7/7/4
f 2/2/2 3/3/5 9/9/6 8/8/3
f 3/3/5 4/4/7 10/10/8 9/9/6
f 4/4/7 5/5/9 11/11/10 10/10/8
f 5/5/9 6/6/11 12/12/12 11/11/10
f 7/7/13 8/8/14 14/14/15 13/13/16
f 8/8/14 9/9/17 15/15/18 14/14/15
f 9/9/17 10/10/19 16/16/20 15/15/18
f 10/10/19 11/11/21 17/17/22 16/16/20
f 11/11/21 12/12/23 18/18/24 17/17/22
f 13/13/16 14/14/15 20/20/25 19/19/26
f 15/15/18 16/16/20 22/22/27 21/21/28
f 17/17/22 18/18/24 24/24/29 23/23/30
f 19/19/26 20/20/25 26/26/31 25/25/32
f 20/20/25 21/21/28 27/27/33 26/26/31
f 21/21/28 22/22/27 28/28/34 27/27/33
f 22/22/27 23/23/30 29/29/35 28/28/34
f 23/23/30 24/24/29 30/30/36 29/29/35
f 25/25/32 26/26/31 32/32/37 31/31/38
f 27/27/33 28/28/34 34/34/39 33/33/40
f 29/29/35 30/30/36 36/36/41 35/35/42
f 31/31/38 32/32/37 38/38/43 37/37/44
f 32/32/37 33/33/40 39/39/45 38/38/43
f 33/33/40 34/34/39 40/40/46 39/39/45
f 34/34/39 35/35/42 41/41/47 40/40/46
f 35/35/42 36/36/41 42/42/48 41/41/47
f 37/37/49 38/38/50 44/44/51 43/43/52
f 38/38/50 39/39/53 45/45/54 44/44/51
f 39/39/53 40/40/55 46/46/56 45/45/54
f 40/40/55 41/41/57 47/47/58 46/46/56
f 41/41/57 42/42/59 48/48/60 47/47/58
f 43/43/61 44/44/62 50/50/63 49/49/64
f 44/44/62 45/45/65 51/51/66 50/50/63
f 45/45/65 46/46/67 52/52/68 51/51/66
f 46/46/67 47/47/69 53/53/70 52/52/68
f 47/47/69 48/48/71 54/54/72 53/53/70
f 49/49/64 50/50/63 56/56/73 55/55/74
f 51/51/66 52/52/68 58/58/75 57/57/76
f 53/53/70 54/54/72 60/60/77 59/59/78
f 55/55/74 56/56/73 62/62/79 61/61/80
f 56/56/73 57/57/76 63/63/81 62/62/79
f 57/57/76 58/58/75 64/64/82 63/63/81
f 58/58/75 59/59/78 65/65/83 64/64/82
f 59/59/78 60/60/77 66/66/84 65/65/83
f 61/61/80 62/62/79 68/68/85 67/67/86
f 63/63/81 64/64/82 70/70/87 69/69/88
f 65/65/83 66/66/84 72/72/89 71/71/90
f 67/67/86 68/68/85 2/74/91 1/73/92
f 68/68/85 69/69/88 3/75/93 2/74/91
f 69/69/88 70/70/87 4/76/94 3/75/93
f 70/70/87 71/71/90 5/77/95 4/76/94
f 71/71/90 72/72/89 6/78/96 5/77/95
f 54/80/97 48/79/98 42/84/99 36/85/100
f 60/81/101 54/80/97 36/85/100 30/86/102
f 66/82/103 60/81/101 30/86/102 24/87/104
f 72/83/105 66/82/103 24/87/104 18/88/106
f 6/6/107 72/83/105 18/88/106 12/12/108
f 43/89/109 49/90/110 31/95/111 37/94/112
f 49/90/110 55/91/113 25/96/114 31/95/111
f 55/91/113 61/92/115 19/97/116 25/96/114
f 61/92/115 67/93/117 13/98/118 19/97/116
f 67/93/117 1/1/119 7/7/120 13/98/118
f 16/16/121 17/17/122 71/71/123 70/70/124
f 22/22/125 16/16/126 70/70/127 64/64/128
f 23/23/129 22/22/130 64/64/131 65/65/132
f 17/17/133 23/23/134 65/65/135 71/71/136
f 28/28/137 29/29/138 59/59/139 58/58/140
f 29/29/141 35/35/142 53/53/143 59/59/144
f 35/35/145 34/34/146 52/52/147 53/53/148
f 34/34/149 28/28/150 58/58/151 52/52/152
f 32/32/153 26/26/154 56/56/155 50/50/156
f 33/33/157 32/32/158 50/50/159 51/51/160
f 26/26/161 27/27/162 57/57/163 56/56/164
f 27/27/165 33/33/166 51/51/167 57/57/168
f 21/21/169 20/20/170 62/62/171 63/63/172
f 15/15/173 21/21/174 63/63/175 69/69/176
f 14/14/177 15/15/178 69/69/179 68/68/180
f 20/20/181 14/14/182 68/68/183 62/62/184
