# This file uses centimeters as units for non-parametric coordinates.

v -6.606376 0.000000 10.714015
v -6.849648 0.000000 10.537267
v -7.150351 0.000000 10.537267
v -7.393624 0.000000 10.714016
v -7.486547 0.000000 11.000000
v -7.393624 0.000000 11.285985
v -7.150352 0.000000 11.462733
v -6.849648 0.000000 11.462733
v -6.606375 0.000000 11.285984
v -6.513453 0.000000 11.000000
v -6.606376 0.042083 10.714015
v -6.849648 0.042083 10.537267
v -7.150351 0.042083 10.537267
v -7.393624 0.042083 10.714016
v -7.486547 0.042083 11.000000
v -7.393624 0.042083 11.285985
v -7.150352 0.042083 11.462733
v -6.849648 0.042083 11.462733
v -6.606375 0.042083 11.285984
v -6.513453 0.042083 11.000000
v -7.000000 0.000000 11.000000
v -7.000000 0.042083 11.000000
vt 0.626409 0.064409
vt 0.548284 0.007647
vt 0.451716 0.007647
vt 0.373591 0.064409
vt 0.343750 0.156250
vt 0.373591 0.248091
vt 0.451716 0.304853
vt 0.548284 0.304853
vt 0.626409 0.248091
vt 0.656250 0.156250
vt 0.375000 0.312500
vt 0.400000 0.312500
vt 0.425000 0.312500
vt 0.450000 0.312500
vt 0.475000 0.312500
vt 0.500000 0.312500
vt 0.525000 0.312500
vt 0.550000 0.312500
vt 0.575000 0.312500
vt 0.600000 0.312500
vt 0.625000 0.312500
vt 0.375000 0.688440
vt 0.400000 0.688440
vt 0.425000 0.688440
vt 0.450000 0.688440
vt 0.475000 0.688440
vt 0.500000 0.688440
vt 0.525000 0.688440
vt 0.550000 0.688440
vt 0.575000 0.688440
vt 0.600000 0.688440
vt 0.625000 0.688440
vt 0.626409 0.751909
vt 0.548284 0.695147
vt 0.451716 0.695147
vt 0.373591 0.751909
vt 0.343750 0.843750
vt 0.373591 0.935591
vt 0.451716 0.992353
vt 0.548284 0.992353
vt 0.626409 0.935591
vt 0.656250 0.843750
vt 0.500000 0.150000
vt 0.500000 0.837500
vn 0.587786 0.000000 -0.809017
vn 0.587786 0.000000 -0.809017
vn 0.587786 0.000000 -0.809017
vn 0.587786 0.000000 -0.809017
vn 0.000000 0.000000 -1.000000
vn 0.000000 0.000000 -1.000000
vn 0.000000 0.000000 -1.000000
vn 0.000000 0.000000 -1.000000
vn -0.587788 0.000000 -0.809015
vn -0.587788 0.000000 -0.809015
vn -0.587788 0.000000 -0.809015
vn -0.587788 0.000000 -0.809015
vn -0.951056 0.000000 -0.309018
vn -0.951056 0.000000 -0.309018
vn -0.951056 0.000000 -0.309018
vn -0.951056 0.000000 -0.309018
vn -0.951057 0.000000 0.309017
vn -0.951057 0.000000 0.309017
vn -0.951057 0.000000 0.309017
vn -0.951057 0.000000 0.309017
vn -0.587786 0.000000 0.809017
vn -0.587786 0.000000 0.809017
vn -0.587786 0.000000 0.809017
vn -0.587786 0.000000 0.809017
vn 0.000000 0.000000 1.000000
vn 0.000000 0.000000 1.000000
vn 0.000000 0.000000 1.000000
vn 0.000000 0.000000 1.000000
vn 0.587788 0.000000 0.809015
vn 0.587788 0.000000 0.809015
vn 0.587788 0.000000 0.809015
vn 0.587788 0.000000 0.809015
vn 0.951057 0.000000 0.309017
vn 0.951057 0.000000 0.309017
vn 0.951057 0.000000 0.309017
vn 0.951057 0.000000 0.309017
vn 0.951057 0.000000 -0.309017
vn 0.951057 0.000000 -0.309017
vn 0.951057 0.000000 -0.309017
vn 0.951057 0.000000 -0.309017
vn 0.000000 -1.000000 0.000000
vn 0.000000 -1.000000 0.000000
vn 0.000000 -1.000000 0.000000
vn 0.000000 -1.000000 0.000000
vn 0.000000 -1.000000 0.000000
vn 0.000000 -1.000000 0.000000
vn 0.000000 -1.000000 0.000000
vn 0.000000 -1.000000 0.000000
vn 0.000000 -1.000000 0.000000
vn 0.000000 -1.000000 0.000000
vn 0.000000 -1.000000 0.000000
vn 0.000000 1.000000 -0.000000
vn 0.000000 1.000000 -0.000000
vn 0.000000 1.000000 -0.000000
vn 0.000000 1.000000 -0.000000
vn 0.000000 1.000000 -0.000000
vn 0.000000 1.000000 0.000000
vn 0.000000 1.000000 0.000000
vn 0.000000 1.000000 0.000000
vn 0.000000 1.000000 0.000000
vn 0.000000 1.000000 0.000000
vn 0.000000 1.000000 -0.000000
f 1/11/1 2/12/2 12/23/3 11/22/4
f 2/12/5 3/13/6 13/24/7 12/23/8
f 3/13/9 4/14/10 14/25/11 13/24/12
f 4/14/13 5/15/14 15/26/15 14/25/16
f 5/15/17 6/16/18 16/27/19 15/26/20
f 6/16/21 7/17/22 17/28/23 16/27/24
f 7/17/25 8/18/26 18/29/27 17/28/28
f 8/18/29 9/19/30 19/30/31 18/29/32
f 9/19/33 10/20/34 20/31/35 19/30/36
f 10/20/37 1/21/38 11/32/39 20/31/40
f 2/2/41 1/1/42 21/43/43
f 3/3/44 2/2/41 21/43/43
f 4/4/45 3/3/44 21/43/43
f 5/5/46 4/4/45 21/43/43
f 6/6/47 5/5/46 21/43/43
f 7/7/48 6/6/47 21/43/43
f 8/8/49 7/7/48 21/43/43
f 9/9/50 8/8/49 21/43/43
f 10/10/51 9/9/50 21/43/43
f 1/1/42 10/10/51 21/43/43
f 11/41/52 12/40/53 22/44/54
f 12/40/53 13/39/55 22/44/54
f 13/39/55 14/38/56 22/44/54
f 14/38/56 15/37/57 22/44/54
f 15/37/57 16/36/58 22/44/54
f 16/36/58 17/35/59 22/44/54
f 17/35/59 18/34/60 22/44/54
f 18/34/60 19/33/61 22/44/54
f 19/33/61 20/42/62 22/44/54
f 20/42/62 11/41/52 22/44/54
v -6.364948 4.174185 10.594460
v -6.730881 4.089482 10.274428
v -7.188562 3.983542 10.210517
v -7.537250 3.902830 10.514469
v -7.664078 3.873473 10.987974
v -7.537250 3.902830 11.400656
v -7.187814 3.983715 11.648274
v -6.730881 4.089482 11.648274
v -6.364948 4.174185 11.400656
v -6.238120 4.203542 11.000000
v -6.983811 4.957182 10.836793
v -7.119704 4.925726 10.735925
v -7.287089 4.886982 10.735926
v -7.422345 4.855674 10.836793
v -7.474008 4.843715 11.000000
v -7.422345 4.855674 11.163207
v -7.287089 4.886982 11.264074
v -7.119635 4.925742 11.264074
v -6.983695 4.957209 11.163207
v -6.932147 4.969140 11.000000
v -7.203496 4.906331 11.000000
v -6.472939 4.149188 10.666978
v -6.761982 4.082283 10.397442
v -7.142493 3.994205 10.329744
v -7.413716 3.931425 10.597804
v -7.522280 3.906296 10.976619
v -7.423830 3.929084 11.319146
v -7.132349 3.996553 11.512023
v -6.762214 4.082229 11.519295
v -6.484184 4.146585 11.311735
v -6.377179 4.171353 11.000000
v -6.882755 4.786349 11.196749
v -6.817849 4.801373 10.998558
v -7.157869 4.722669 11.000000
v -6.878093 4.787429 10.798985
v -7.048523 4.747979 10.663832
v -7.260980 4.698802 10.654335
v -7.423330 4.661222 10.792893
v -7.487165 4.646447 11.001017
v -7.427136 4.660341 11.198885
v -7.259280 4.699195 11.321096
v -7.048716 4.747934 11.322487
vt 0.626409 0.064409
vt 0.548284 0.007647
vt 0.451716 0.007647
vt 0.373591 0.064409
vt 0.343750 0.156250
vt 0.373591 0.248091
vt 0.451716 0.304853
vt 0.548284 0.304853
vt 0.626409 0.248091
vt 0.656250 0.156250
vt 0.375000 0.312500
vt 0.400000 0.312500
vt 0.425000 0.312500
vt 0.450000 0.312500
vt 0.475000 0.312500
vt 0.500000 0.312500
vt 0.525000 0.312500
vt 0.550000 0.312500
vt 0.575000 0.312500
vt 0.600000 0.312500
vt 0.625000 0.312500
vt 0.375000 0.688440
vt 0.400000 0.688440
vt 0.425000 0.688440
vt 0.450000 0.688440
vt 0.475000 0.688440
vt 0.500000 0.688440
vt 0.525000 0.688440
vt 0.550000 0.688440
vt 0.575000 0.688440
vt 0.600000 0.688440
vt 0.625000 0.688440
vt 0.626409 0.751909
vt 0.548284 0.695147
vt 0.451716 0.695147
vt 0.373591 0.751909
vt 0.343750 0.843750
vt 0.373591 0.935591
vt 0.451716 0.992353
vt 0.548284 0.992353
vt 0.626409 0.935591
vt 0.656250 0.843750
vt 0.500000 0.150000
vt 0.500000 0.837500
vt 0.601000 0.081613
vt 0.538890 0.035342
vt 0.460206 0.032678
vt 0.401703 0.083443
vt 0.377113 0.154915
vt 0.399308 0.228136
vt 0.461864 0.272306
vt 0.538677 0.274043
vt 0.598354 0.226321
vt 0.623531 0.154941
vt 0.623531 0.154941
vt 0.598354 0.226321
vt 0.601000 0.081613
vt 0.538890 0.035342
vt 0.460206 0.032678
vt 0.401703 0.083443
vt 0.377113 0.154915
vt 0.399308 0.228136
vt 0.461864 0.272306
vt 0.538677 0.274043
vn -0.225509 0.974241 -0.000003
vn -0.225509 0.974241 0.000000
vn -0.225509 0.974241 -0.000001
vn -0.225509 0.974241 0.000001
vn -0.225509 0.974241 -0.000002
vn -0.225509 0.974241 0.000000
vn -0.225509 0.974241 0.000003
vn -0.225509 0.974241 -0.000001
vn -0.225509 0.974241 -0.000001
vn -0.225509 0.974241 0.000000
vn -0.225509 0.974241 -0.000003
vn 0.443590 0.574905 -0.687540
vn 0.443590 0.574905 -0.687540
vn 0.443590 0.574905 -0.687540
vn 0.443590 0.574905 -0.687540
vn -0.023812 0.488228 -0.872391
vn -0.023812 0.488228 -0.872391
vn -0.023812 0.488228 -0.872391
vn -0.023812 0.488228 -0.872391
vn -0.650335 0.320308 -0.688815
vn -0.650335 0.320308 -0.688815
vn -0.650335 0.320308 -0.688815
vn -0.650335 0.320308 -0.688815
vn -0.947736 0.194296 -0.253072
vn -0.947736 0.194296 -0.253072
vn -0.947736 0.194296 -0.253072
vn -0.947736 0.194296 -0.253072
vn -0.942800 0.182235 0.279138
vn -0.942800 0.182235 0.279138
vn -0.942800 0.182235 0.279138
vn -0.942801 0.182235 0.279138
vn -0.602657 0.257988 0.755147
vn -0.602657 0.257988 0.755147
vn -0.602657 0.257988 0.755147
vn -0.602657 0.257988 0.755147
vn -0.088339 0.381642 0.920079
vn -0.088339 0.381642 0.920079
vn -0.088339 0.381642 0.920079
vn -0.088339 0.381642 0.920079
vn 0.395735 0.533259 0.747682
vn 0.395735 0.533260 0.747682
vn 0.395735 0.533259 0.747682
vn 0.395735 0.533259 0.747682
vn 0.712832 0.646100 0.272811
vn 0.712832 0.646100 0.272811
vn 0.712832 0.646100 0.272811
vn 0.712832 0.646100 0.272811
vn 0.712970 0.646818 -0.270740
vn 0.712970 0.646818 -0.270740
vn 0.712970 0.646818 -0.270740
vn 0.712970 0.646818 -0.270740
vn 0.225509 -0.974241 0.000000
vn 0.225509 -0.974241 -0.000000
vn 0.225509 -0.974241 -0.000000
vn 0.225509 -0.974241 0.000000
vn 0.225509 -0.974241 -0.000000
vn 0.225509 -0.974241 -0.000000
vn 0.225509 -0.974241 0.000000
vn 0.225509 -0.974241 0.000000
vn 0.225509 -0.974241 0.000000
vn 0.225509 -0.974241 0.000000
vn 0.225509 -0.974241 -0.000000
vn 0.225509 -0.974241 -0.000000
vn 0.225509 -0.974241 0.000000
vn 0.225509 -0.974241 0.000000
vn 0.225509 -0.974241 -0.000000
vn 0.225509 -0.974241 -0.000000
vn 0.225509 -0.974241 -0.000001
vn 0.225509 -0.974241 -0.000001
vn 0.225509 -0.974241 0.000000
vn 0.225509 -0.974241 0.000000
vn 0.225507 -0.974241 0.000000
vn 0.225508 -0.974241 0.000000
vn 0.225508 -0.974241 -0.000000
vn 0.225508 -0.974241 0.000000
vn 0.225507 -0.974242 0.000001
vn 0.225509 -0.974241 -0.000001
vn 0.225509 -0.974241 0.000001
vn 0.225507 -0.974242 -0.000000
vn 0.225509 -0.974241 -0.000003
vn 0.225509 -0.974241 0.000000
vn 0.225507 -0.974241 -0.000001
vn -0.781142 -0.544324 -0.305823
vn -0.781142 -0.544324 -0.305823
vn -0.781142 -0.544324 -0.305823
vn -0.781142 -0.544324 -0.305823
vn -0.788427 -0.553453 0.268464
vn -0.788427 -0.553453 0.268464
vn -0.788427 -0.553453 0.268464
vn -0.788427 -0.553453 0.268464
vn -0.510893 -0.487371 0.708137
vn -0.510893 -0.487371 0.708137
vn -0.510893 -0.487371 0.708137
vn -0.510893 -0.487371 0.708137
vn -0.025999 -0.402357 0.915114
vn -0.025999 -0.402357 0.915114
vn -0.025999 -0.402357 0.915114
vn -0.025999 -0.402357 0.915114
vn 0.694657 -0.189385 0.693963
vn 0.694657 -0.189385 0.693963
vn 0.694657 -0.189385 0.693963
vn 0.694657 -0.189385 0.693963
vn 0.958908 -0.058102 0.277706
vn 0.958908 -0.058102 0.277706
vn 0.958908 -0.058102 0.277706
vn 0.958908 -0.058102 0.277706
vn 0.959571 -0.038905 -0.278766
vn 0.959571 -0.038905 -0.278766
vn 0.959571 -0.038905 -0.278766
vn 0.959571 -0.038905 -0.278766
vn 0.580485 -0.121998 -0.805080
vn 0.580485 -0.121998 -0.805080
vn 0.580485 -0.121998 -0.805080
vn 0.580485 -0.121998 -0.805080
vn 0.072624 -0.251533 -0.965120
vn 0.072624 -0.251533 -0.965120
vn 0.072624 -0.251533 -0.965120
vn 0.072624 -0.251533 -0.965120
vn -0.475181 -0.432387 -0.766319
vn -0.475181 -0.432387 -0.766319
vn -0.475181 -0.432387 -0.766319
vn -0.475181 -0.432387 -0.766319
f 33/85/63 34/84/64 43/88/65
f 34/84/64 35/83/66 43/88/65
f 35/83/66 36/82/67 43/88/65
f 36/82/67 37/81/68 43/88/65
f 37/81/68 38/80/69 43/88/65
f 38/80/69 39/79/70 43/88/65
f 39/79/70 40/78/71 43/88/65
f 40/78/71 41/77/72 43/88/65
f 41/77/72 42/86/73 43/88/65
f 42/86/73 33/85/63 43/88/65
f 33/66/74 23/55/75 24/56/76 34/67/77
f 34/67/78 24/56/79 25/57/80 35/68/81
f 35/68/82 25/57/83 26/58/84 36/69/85
f 36/69/86 26/58/87 27/59/88 37/70/89
f 37/70/90 27/59/91 28/60/92 38/71/93
f 38/71/94 28/60/95 29/61/96 39/72/97
f 39/72/98 29/61/99 30/62/100 40/73/101
f 40/73/102 30/62/103 31/63/104 41/74/105
f 41/74/106 31/63/107 32/64/108 42/75/109
f 42/75/110 32/64/111 23/65/112 33/76/113
f 44/89/114 45/90/115 24/46/116 23/45/117
f 45/90/115 46/91/118 25/47/119 24/46/116
f 46/91/118 47/92/120 26/48/121 25/47/119
f 47/92/120 48/93/122 27/49/123 26/48/121
f 48/93/122 49/94/124 28/50/125 27/49/123
f 49/94/124 50/95/126 29/51/127 28/50/125
f 50/95/126 51/96/128 30/52/129 29/51/127
f 51/96/128 52/97/130 31/53/131 30/52/129
f 52/97/130 53/98/132 32/54/133 31/53/131
f 53/98/132 44/89/114 23/45/117 32/54/133
f 55/99/134 54/100/135 56/87/136
f 57/101/137 55/99/134 56/87/136
f 58/102/138 57/101/137 56/87/136
f 59/103/139 58/102/138 56/87/136
f 60/104/140 59/103/139 56/87/136
f 61/105/141 60/104/140 56/87/136
f 62/106/142 61/105/141 56/87/136
f 63/107/143 62/106/142 56/87/136
f 64/108/144 63/107/143 56/87/136
f 54/100/135 64/108/144 56/87/136
f 53/98/145 52/97/146 54/100/147 55/99/148
f 44/89/149 53/98/150 55/99/151 57/101/152
f 45/90/153 44/89/154 57/101/155 58/102/156
f 46/91/157 45/90/158 58/102/159 59/103/160
f 47/92/161 46/91/162 59/103/163 60/104/164
f 48/93/165 47/92/166 60/104/167 61/105/168
f 49/94/169 48/93/170 61/105/171 62/106/172
f 50/95/173 49/94/174 62/106/175 63/107/176
f 51/96/177 50/95/178 63/107/179 64/108/180
f 52/97/181 51/96/182 64/108/183 54/100/184
v -6.942019 0.000000 10.967570
v -6.978667 0.000000 10.940945
v -7.023967 0.000000 10.940945
v -7.060604 0.000000 10.967548
v -7.074561 0.000000 11.010537
v -7.060537 0.000000 11.053494
v -7.023910 0.000000 11.080029
v -6.978661 0.000000 11.080029
v -6.942047 0.000000 11.053494
v -6.928027 0.000000 11.010626
v -6.943483 4.718002 10.958939
v -6.978413 4.718002 10.933561
v -7.021587 4.718002 10.933561
v -7.056517 4.718002 10.958939
v -7.069858 4.718002 11.000000
v -7.056517 4.718002 11.041061
v -7.021587 4.718002 11.066439
v -6.978413 4.718002 11.066439
v -6.943483 4.718002 11.041061
v -6.930142 4.718002 11.000000
v -7.001314 0.000000 11.010626
v -7.000000 4.718002 11.000000
v -6.882383 1.969579 10.783519
v -6.899734 1.969579 10.836921
v -6.945161 1.969579 10.869925
v -7.001312 1.969579 10.869925
v -7.046739 1.969579 10.836921
v -7.064089 1.969579 10.783519
v -7.046739 1.969579 10.730117
v -7.001312 1.969579 10.697113
v -6.945161 1.969579 10.697113
v -6.899734 1.969579 10.730117
v -6.936164 2.713565 11.002094
v -6.919582 2.713565 11.053041
v -6.936230 2.713565 11.103850
v -6.979670 2.713565 11.135147
v -7.033330 2.713565 11.135147
v -7.076793 2.713565 11.103765
v -7.093488 2.713565 11.052941
v -7.076977 2.713565 11.002035
v -7.033501 2.713565 10.970531
v -6.979688 2.713565 10.970531
v -6.616901 3.360301 11.189512
v -6.632378 3.360301 11.235466
v -6.671853 3.360301 11.264145
v -6.720365 3.360301 11.264682
v -6.759557 3.360301 11.236664
v -6.774354 3.360301 11.190789
v -6.759004 3.360301 11.144538
v -6.719321 3.360301 11.115707
v -6.670567 3.360301 11.115383
v -6.631429 3.360301 11.143653
vt 0.626409 0.064409
vt 0.548284 0.007647
vt 0.451716 0.007647
vt 0.373591 0.064409
vt 0.343750 0.156250
vt 0.373591 0.248091
vt 0.451716 0.304853
vt 0.548284 0.304853
vt 0.626409 0.248091
vt 0.656250 0.156250
vt 0.375000 0.312500
vt 0.400000 0.312500
vt 0.425000 0.312500
vt 0.450000 0.312500
vt 0.475000 0.312500
vt 0.500000 0.312500
vt 0.525000 0.312500
vt 0.550000 0.312500
vt 0.575000 0.312500
vt 0.600000 0.312500
vt 0.625000 0.312500
vt 0.375000 0.688440
vt 0.400000 0.688440
vt 0.425000 0.688440
vt 0.450000 0.688440
vt 0.475000 0.688440
vt 0.500000 0.688440
vt 0.525000 0.688440
vt 0.550000 0.688440
vt 0.575000 0.688440
vt 0.600000 0.688440
vt 0.625000 0.688440
vt 0.626409 0.751909
vt 0.548284 0.695147
vt 0.451716 0.695147
vt 0.373591 0.751909
vt 0.343750 0.843750
vt 0.373591 0.935591
vt 0.451716 0.992353
vt 0.548284 0.992353
vt 0.626409 0.935591
vt 0.656250 0.843750
vt 0.500000 0.150000
vt 0.500000 0.837500
vt 0.600000 0.469440
vt 0.575000 0.469440
vt 0.550000 0.469440
vt 0.525000 0.469440
vt 0.500000 0.469440
vt 0.475000 0.469440
vt 0.450000 0.469440
vt 0.425000 0.469440
vt 0.400000 0.469440
vt 0.625000 0.469440
vt 0.375000 0.469440
vt 0.625000 0.528722
vt 0.375000 0.528722
vt 0.600000 0.528722
vt 0.575000 0.528722
vt 0.550000 0.528722
vt 0.525000 0.528722
vt 0.500000 0.528722
vt 0.475000 0.528722
vt 0.450000 0.528722
vt 0.425000 0.528722
vt 0.400000 0.528722
vt 0.600000 0.580256
vt 0.575000 0.580256
vt 0.550000 0.580256
vt 0.525000 0.580256
vt 0.500000 0.580256
vt 0.475000 0.580256
vt 0.450000 0.580256
vt 0.425000 0.580256
vt 0.400000 0.580256
vt 0.625000 0.580256
vt 0.375000 0.580256
vn 0.584237 -0.109493 -0.804163
vn 0.584237 -0.109493 -0.804163
vn 0.587650 0.009482 -0.809060
vn 0.587522 0.022169 -0.808905
vn 0.000000 -0.122861 -0.992424
vn 0.000000 -0.122861 -0.992424
vn 0.000000 0.020775 -0.999784
vn 0.000000 0.017175 -0.999853
vn -0.585148 -0.092995 -0.805576
vn -0.585148 -0.092995 -0.805576
vn -0.587453 0.019725 -0.809018
vn -0.587579 0.004539 -0.809154
vn -0.950645 -0.030534 -0.308775
vn -0.950645 -0.030534 -0.308775
vn -0.951101 0.002697 -0.308868
vn -0.951095 -0.003705 -0.308877
vn -0.950078 0.040689 0.309346
vn -0.950078 0.040689 0.309346
vn -0.950594 -0.019380 0.309831
vn -0.950753 -0.008701 0.309827
vn -0.584766 0.092693 0.805889
vn -0.584766 0.092693 0.805889
vn -0.586812 -0.030744 0.809139
vn -0.587005 -0.018865 0.809364
vn 0.000000 0.106074 0.994358
vn 0.000000 0.106074 0.994358
vn 0.000000 -0.026126 0.999659
vn 0.000000 -0.029520 0.999564
vn 0.585649 0.076139 0.806980
vn 0.585650 0.076139 0.806980
vn 0.586986 -0.014211 0.809472
vn 0.586763 -0.028260 0.809266
vn 0.950704 0.013667 0.309798
vn 0.950704 0.013667 0.309797
vn 0.950746 -0.006428 0.309903
vn 0.950700 -0.011221 0.309910
vn 0.949469 -0.057582 -0.308533
vn 0.949469 -0.057582 -0.308533
vn 0.951029 -0.001339 -0.309098
vn 0.950971 0.010832 -0.309092
vn 0.000000 -1.000000 0.000000
vn 0.000000 -1.000000 0.000000
vn 0.000000 -1.000000 0.000000
vn 0.000000 -1.000000 0.000000
vn 0.000000 -1.000000 0.000000
vn 0.000000 -1.000000 0.000000
vn 0.000000 -1.000000 0.000000
vn 0.000000 -1.000000 0.000000
vn 0.000000 -1.000000 0.000000
vn 0.000000 -1.000000 0.000000
vn 0.000000 -1.000000 0.000000
vn 0.000000 1.000000 -0.000010
vn 0.000000 1.000000 0.000000
vn 0.000000 1.000000 0.000000
vn 0.000000 1.000000 0.000000
vn 0.000000 1.000000 -0.000010
vn 0.000000 1.000000 0.000000
vn 0.000000 1.000000 0.000010
vn 0.000000 1.000000 0.000000
vn 0.000000 1.000000 0.000000
vn 0.000000 1.000000 0.000010
vn 0.000000 1.000000 0.000000
vn 0.924026 -0.232480 0.303527
vn 0.911263 -0.282153 0.299982
vn 0.554653 -0.323378 0.766673
vn 0.554694 -0.323171 0.766730
vn 0.002544 -0.268934 0.963155
vn 0.001885 -0.286415 0.958104
vn -0.583114 -0.080112 0.808431
vn -0.577517 -0.165624 0.799402
vn -0.939840 0.150845 0.306507
vn -0.949800 0.042641 0.309938
vn -0.907474 0.297987 -0.296134
vn -0.921347 0.246879 -0.300283
vn -0.552675 0.338130 -0.761721
vn -0.552667 0.338168 -0.761710
vn -0.001129 0.299984 -0.953943
vn -0.001522 0.284125 -0.958786
vn 0.577580 0.179018 -0.796464
vn 0.584150 0.095727 -0.805981
vn 0.950962 -0.028662 -0.307976
vn 0.942854 -0.135003 -0.304632
vn 0.951876 -0.025038 -0.305459
vn 0.952166 -0.005754 -0.305528
vn 0.949209 -0.003764 0.314625
vn 0.949187 -0.007580 0.314621
vn 0.587026 0.026101 0.809147
vn 0.587156 -0.002177 0.809471
vn 0.005658 0.039300 0.999212
vn 0.005624 0.016309 0.999851
vn -0.583969 0.029207 0.811251
vn -0.583747 0.037613 0.811064
vn -0.950994 0.021839 0.308438
vn -0.950393 0.041218 0.308309
vn -0.949810 0.024137 -0.311895
vn -0.949888 0.020405 -0.311924
vn -0.587481 0.018984 -0.809015
vn -0.587582 -0.009532 -0.809109
vn -0.003393 0.000154 -0.999994
vn -0.003416 -0.023443 -0.999719
vn 0.586381 -0.021492 -0.809750
vn 0.586480 -0.013516 -0.809851
vn 0.918137 0.254094 0.304072
vn 0.918137 0.254094 0.304072
vn 0.570157 0.243016 0.784770
vn 0.570157 0.243016 0.784770
vn 0.005775 0.145558 0.989333
vn 0.005775 0.145558 0.989333
vn -0.584458 -0.011076 0.811349
vn -0.584458 -0.011076 0.811349
vn -0.938898 -0.161609 0.303897
vn -0.938898 -0.161609 0.303897
vn -0.921491 -0.243222 -0.302817
vn -0.921491 -0.243222 -0.302817
vn -0.571633 -0.232815 -0.786786
vn -0.571633 -0.232815 -0.786786
vn -0.003498 -0.133620 -0.991026
vn -0.003498 -0.133620 -0.991027
vn 0.586440 0.024589 -0.809620
vn 0.586440 0.024589 -0.809620
vn 0.937639 0.174486 -0.300645
vn 0.937639 0.174486 -0.300645
f 65/119/185 66/120/186 95/161/187 96/163/188
f 66/120/189 67/121/190 94/160/191 95/161/192
f 67/121/193 68/122/194 93/159/195 94/160/196
f 68/122/197 69/123/198 92/158/199 93/159/200
f 69/123/201 70/124/202 91/157/203 92/158/204
f 70/124/205 71/125/206 90/156/207 91/157/208
f 71/125/209 72/126/210 89/155/211 90/156/212
f 72/126/213 73/127/214 88/154/215 89/155/216
f 73/127/217 74/128/218 87/153/219 88/154/220
f 74/128/221 65/129/222 96/162/223 87/153/224
f 66/110/225 65/109/226 85/151/227
f 67/111/228 66/110/225 85/151/227
f 68/112/229 67/111/228 85/151/227
f 69/113/230 68/112/229 85/151/227
f 70/114/231 69/113/230 85/151/227
f 71/115/232 70/114/231 85/151/227
f 72/116/233 71/115/232 85/151/227
f 73/117/234 72/116/233 85/151/227
f 74/118/235 73/117/234 85/151/227
f 65/109/226 74/118/235 85/151/227
f 75/149/236 76/148/237 86/152/238
f 76/148/237 77/147/239 86/152/238
f 77/147/239 78/146/240 86/152/238
f 78/146/240 79/145/241 86/152/238
f 79/145/241 80/144/242 86/152/238
f 80/144/242 81/143/243 86/152/238
f 81/143/243 82/142/244 86/152/238
f 82/142/244 83/141/245 86/152/238
f 83/141/245 84/150/246 86/152/238
f 84/150/246 75/149/236 86/152/238
f 88/154/220 87/153/219 98/166/247 99/167/248
f 89/155/216 88/154/215 99/167/249 100/168/250
f 90/156/212 89/155/211 100/168/251 101/169/252
f 91/157/208 90/156/207 101/169/253 102/170/254
f 92/158/204 91/157/203 102/170/255 103/171/256
f 93/159/200 92/158/199 103/171/257 104/172/258
f 94/160/196 93/159/195 104/172/259 105/173/260
f 95/161/192 94/160/191 105/173/261 106/174/262
f 96/163/188 95/161/187 106/174/263 97/165/264
f 87/153/224 96/162/223 97/164/265 98/166/266
f 98/166/266 97/164/265 116/184/267 107/175/268
f 99/167/248 98/166/247 107/175/269 108/176/270
f 100/168/250 99/167/249 108/176/271 109/177/272
f 101/169/252 100/168/251 109/177/273 110/178/274
f 102/170/254 101/169/253 110/178/275 111/179/276
f 103/171/256 102/170/255 111/179/277 112/180/278
f 104/172/258 103/171/257 112/180/279 113/181/280
f 105/173/260 104/172/259 113/181/281 114/182/282
f 106/174/262 105/173/261 114/182/283 115/183/284
f 97/165/264 106/174/263 115/183/285 116/185/286
f 108/176/270 107/175/269 84/139/287 83/138/288
f 109/177/272 108/176/271 83/138/289 82/137/290
f 110/178/274 109/177/273 82/137/291 81/136/292
f 111/179/276 110/178/275 81/136/293 80/135/294
f 112/180/278 111/179/277 80/135/295 79/134/296
f 113/181/280 112/180/279 79/134/297 78/133/298
f 114/182/282 113/181/281 78/133/299 77/132/300
f 115/183/284 114/182/283 77/132/301 76/131/302
f 116/185/286 115/183/285 76/131/303 75/130/304
f 107/175/268 116/184/267 75/140/305 84/139/306
