# This file uses centimeters as units for non-parametric coordinates.

v -7.784340 0.000000 8.362037
v -6.160101 0.001612 8.375491
v -6.112460 0.593743 8.568183
v -6.132883 0.593755 8.568192
v -7.169411 0.583741 8.560340
v -7.174519 0.583741 8.560340
v -7.866713 0.583741 8.560340
v -7.784340 0.000000 4.757685
v -7.866713 0.583741 4.559383
v -6.149711 0.000000 4.757685
v -6.170636 0.632433 4.559383
v -6.190834 0.631768 4.559383
v -6.190634 0.628823 4.961707
v -7.169411 0.583741 4.961707
v -7.169411 0.583696 8.158111
v -6.151467 0.578160 8.170487
v -7.174519 0.583741 4.559383
v -7.169411 0.583741 4.559383
v -7.188269 0.986917 8.938335
v -7.194098 0.986917 8.938335
v -7.204969 1.341908 9.275996
v -8.087758 1.466331 9.098634
v -6.086203 1.070903 8.835359
v -8.087758 1.767332 4.027240
v -7.188269 1.076584 4.736246
v -7.188269 1.208948 4.277164
v -7.204969 1.767332 4.027240
v -7.188269 1.044353 8.397380
v -6.082436 1.059688 8.371004
v -7.194098 1.208948 4.277164
v -6.111192 1.155025 4.736246
v -6.111192 1.111034 4.277164
vt 0.375000 0.000000
vt 0.625000 0.000000
vt 0.625000 0.250000
vt 0.621881 0.250000
vt 0.479892 0.250000
vt 0.479124 0.250000
vt 0.375000 0.250000
vt 0.125000 0.000000
vt 0.125000 0.250000
vt 0.375000 0.750000
vt 0.625000 0.750000
vt 0.625000 1.000000
vt 0.375000 1.000000
vt 0.875000 0.000000
vt 0.875000 0.250000
vt 0.625000 0.500000
vt 0.621881 0.500000
vt 0.621881 0.474861
vt 0.479892 0.474861
vt 0.479892 0.275139
vt 0.621881 0.275139
vt 0.375000 0.500000
vt 0.479124 0.500000
vt 0.479892 0.500000
vt 0.623169 0.000000
vt 0.625000 0.000000
vt 0.625000 0.132586
vt 0.623169 0.132586
vt 0.375000 0.000000
vt 0.625000 0.250000
vt 0.375000 0.250000
vt 0.376346 0.000000
vt 0.625000 0.000000
vt 0.625000 0.250000
vt 0.376346 0.250000
vt 0.125000 0.000000
vt 0.125000 0.250000
vt 0.650139 0.000000
vt 0.849861 0.000000
vt 0.849861 0.132586
vt 0.875000 0.132586
vt 0.875000 0.250000
vt 0.650139 0.132586
vt 0.625000 0.500000
vt 0.375000 0.500000
vt 0.875000 0.000000
vt 0.875000 0.250000
vt 0.625000 0.500000
vt 0.376346 0.500000
vt 0.625000 0.617414
vt 0.623169 0.617414
vt 0.623169 0.750000
vt 0.375000 0.750000
vt 0.625000 0.750000
vt 0.376346 0.750000
vt 0.376346 0.000000
vt 0.625000 0.000000
vt 0.625000 0.250000
vt 0.376346 0.250000
vt 0.625000 0.500000
vt 0.376346 0.500000
vt 0.376346 0.750000
vt 0.375000 0.750000
vt 0.375000 0.500000
vt 0.875000 0.000000
vt 0.875000 0.250000
vt 0.625000 0.750000
vn -0.004915 -0.314338 0.949299
vn -0.004915 -0.314338 0.949299
vn -0.004915 -0.314338 0.949299
vn 0.010521 -0.381527 0.924298
vn 0.009961 -0.379534 0.925124
vn -0.041577 -0.403696 0.913948
vn -0.070331 -0.470758 0.879455
vn -0.990190 -0.139728 0.000000
vn -0.990190 -0.139728 0.000000
vn -0.980943 -0.194221 -0.005438
vn -0.981080 -0.193531 -0.005369
vn 0.000494 -1.000000 0.000224
vn 0.000494 -1.000000 0.000224
vn 0.000494 -1.000000 0.000224
vn 0.000494 -1.000000 0.000224
vn 0.999741 -0.021840 -0.006370
vn 0.999741 -0.021840 -0.006370
vn 0.999741 -0.021840 -0.006370
vn 0.999741 -0.021840 -0.006370
vn -0.029619 0.999527 0.008256
vn -0.029619 0.999527 0.008256
vn -0.029619 0.999527 0.008256
vn -0.029619 0.999527 0.008256
vn -0.029619 0.999527 0.008256
vn -0.029619 0.999527 0.008256
vn -0.029619 0.999527 0.008256
vn -0.029619 0.999527 0.008256
vn 0.001761 -0.366594 -0.930380
vn 0.002900 -0.345796 -0.938305
vn 0.000943 -0.347988 -0.937499
vn 0.000622 -0.350830 -0.936439
vn 0.004596 -0.314399 -0.949280
vn 0.004596 -0.314399 -0.949280
vn 0.004596 -0.314399 -0.949280
vn -0.053532 -0.608117 0.792041
vn -0.134458 -0.614981 0.776994
vn -0.134947 -0.614699 0.777133
vn -0.134947 -0.614699 0.777132
vn 0.061756 -0.591260 0.804113
vn -0.977847 -0.209205 -0.006941
vn -0.977847 -0.209205 -0.006941
vn 0.999345 0.036168 0.001401
vn 0.999345 0.036168 0.001401
vn 0.999345 0.036168 0.001401
vn 0.999345 0.036168 0.001401
vn 0.999345 0.036168 0.001401
vn 0.999345 0.036168 0.001401
vn 0.999345 0.036168 0.001401
vn 0.999345 0.036168 0.001401
vn 0.063118 0.995543 0.070075
vn 0.063118 0.995543 0.070075
vn 0.063118 0.995543 0.070075
vn 0.063118 0.995543 0.070075
vn 0.993469 -0.113298 -0.013552
vn 0.993469 -0.113298 -0.013552
vn 0.993469 -0.113298 -0.013552
vn 0.993469 -0.113298 -0.013552
vn -0.042217 0.998061 0.045729
vn -0.042217 0.998061 0.045729
vn -0.042217 0.998061 0.045729
vn -0.042217 0.998061 0.045729
vn -0.000653 -0.410073 -0.912053
vn -0.000653 -0.410073 -0.912053
vn -0.004499 -0.426691 -0.904386
vn -0.000650 -0.410078 -0.912050
vn -0.007925 0.423297 -0.905956
vn -0.007925 0.423297 -0.905956
vn -0.007925 0.423297 -0.905956
vn -0.007925 0.423297 -0.905956
vn -0.024378 0.405741 0.913663
vn -0.024378 0.405741 0.913663
vn -0.024378 0.405741 0.913663
vn -0.024378 0.405741 0.913663
vn 0.008997 0.995360 0.095803
vn 0.008997 0.995360 0.095803
vn 0.008997 0.995360 0.095803
vn 0.008997 0.995360 0.095803
vn 0.988233 -0.152794 0.007052
vn 0.988233 -0.152794 0.007052
vn 0.988233 -0.152794 0.007052
vn 0.988233 -0.152794 0.007052
vn -0.011031 -0.454557 -0.890649
f 1/1/1 2/2/2 3/3/3 4/4/4 5/5/5 6/6/6 7/7/7
f 8/8/8 1/1/9 7/7/10 9/9/11
f 8/10/12 10/11/13 2/12/14 1/13/15
f 2/2/16 10/14/17 11/15/18 3/3/19
f 4/4/20 3/3/21 11/16/22 12/17/23 13/18/24 14/19/25 15/20/26 16/21/27
f 9/22/28 17/23/29 18/24/30 12/17/31 11/16/32 10/11/33 8/10/34
f 6/25/6 5/26/5 19/27/35 20/28/36
f 7/29/7 6/25/6 20/28/36 19/27/35 21/30/37 22/31/38
f 5/32/5 4/33/4 23/34/39 19/35/35
f 9/36/11 7/29/10 22/31/40 24/37/41
f 15/38/42 14/39/43 25/40/44 26/41/45 27/42/46 21/30/47 19/27/48 28/43/49
f 22/31/50 21/30/51 27/44/52 24/45/53
f 4/33/54 16/46/55 29/47/56 23/34/57
f 19/35/58 23/34/59 29/48/60 28/49/61
f 24/45/62 27/44/63 26/50/64 30/51/65 17/52/29 9/53/28
f 28/49/66 29/48/67 16/54/68 15/55/69
f 14/56/70 13/57/71 31/58/72 25/59/73
f 25/59/74 31/58/75 32/60/76 26/61/77
f 18/62/30 17/63/29 30/64/65 26/61/64
f 13/57/78 12/65/79 32/66/80 31/58/81
f 26/61/64 32/60/82 12/67/31 18/62/30
