# This file uses centimeters as units for non-parametric coordinates.

mtllib bathroom_sink_base_3.mtl
v -0.983785 2.348993 4.786074
v -0.590311 2.348993 5.179548
v -0.868539 2.348993 5.064302
v -0.983785 7.993776 4.786074
v -0.868539 7.993776 5.064302
v -0.590311 7.993776 5.179548
v 0.983785 2.348993 4.786074
v 0.868539 2.348993 5.064302
v 0.590311 2.348993 5.179548
v 0.983785 7.993776 4.786074
v 0.590311 7.993776 5.179548
v 0.868539 7.993776 5.064302
v -0.868539 7.993776 3.327224
v -0.983785 7.993776 3.605453
v -0.590311 7.993776 3.211978
v -0.983785 2.348993 3.605453
v -0.868539 2.348993 3.327224
v -0.590311 2.348993 3.211978
v 0.868539 7.993776 3.327224
v 0.590311 7.993776 3.211978
v 0.983785 7.993776 3.605453
v 0.983785 2.348993 3.605453
v 0.590311 2.348993 3.211978
v 0.868539 2.348993 3.327224
v 1.791140 2.348993 3.444860
v 1.791140 2.348993 4.946666
v 1.416837 2.348993 5.612600
v 0.750903 2.348993 5.986903
v -0.750903 2.348993 5.986903
v -1.416837 2.348993 5.612600
v -1.791139 2.348993 4.946666
v -1.791140 2.348993 3.444860
v -1.416837 2.348993 2.778926
v -0.750903 2.348993 2.404624
v 0.750903 2.348993 2.404624
v 1.416837 2.348993 2.778926
v 2.077058 2.348993 3.370013
v 2.077058 2.348993 5.021513
v 2.077058 1.168853 5.021513
v 2.077058 1.168853 3.370013
v 1.624846 2.348993 5.820610
v 1.624846 1.168853 5.820610
v 0.825750 2.348993 6.272821
v 0.825750 1.168853 6.272821
v -0.825750 2.348993 6.272821
v -0.825750 1.168853 6.272821
v -1.624846 2.348993 5.820610
v -1.624846 1.168853 5.820610
v -2.077058 2.348993 5.021513
v -2.077058 1.168853 5.021513
v -2.077058 2.348993 3.370013
v -2.077058 1.168853 3.370013
v -1.624846 2.348993 2.570917
v -1.624846 1.168853 2.570917
v -0.825750 2.348993 2.118705
v -0.825750 1.168853 2.118705
v 0.825750 2.348993 2.118705
v 0.825750 1.168853 2.118705
v 1.624846 2.348993 2.570917
v 1.624846 1.168853 2.570917
v 1.791140 2.715619 3.444860
v 1.791140 2.715619 4.946666
v 2.077058 2.715619 5.021513
v 2.077058 2.715619 3.370013
v 1.416837 2.715619 5.612600
v 1.624846 2.715619 5.820610
v 0.750903 2.715619 5.986903
v 0.825750 2.715619 6.272821
v -0.750903 2.715619 5.986903
v -0.825750 2.715619 6.272821
v -1.416837 2.715619 5.612600
v -1.624846 2.715619 5.820610
v -1.791139 2.715619 4.946666
v -2.077058 2.715619 5.021513
v -1.791140 2.715619 3.444860
v -2.077058 2.715619 3.370013
v -1.416837 2.715619 2.778926
v -1.624846 2.715619 2.570917
v -0.750903 2.715619 2.404624
v -0.825750 2.715619 2.118705
v 0.750903 2.715619 2.404624
v 0.825750 2.715619 2.118705
v 1.416837 2.715619 2.778926
v 1.624846 2.715619 2.570917
v 2.760035 1.168853 3.190164
v 2.760035 1.168853 5.201362
v 2.760035 0.000000 5.201362
v 2.760035 0.000000 3.190164
v 2.122504 1.168853 6.318267
v 2.122504 0.000000 6.318267
v 1.005599 1.168853 6.955798
v 1.005599 0.000000 6.955798
v -1.005599 1.168853 6.955798
v -1.005599 0.000000 6.955798
v -2.122504 1.168853 6.318267
v -2.122504 0.000000 6.318267
v -2.760035 1.168853 5.201362
v -2.760035 0.000000 5.201362
v -2.760035 1.168853 3.190164
v -2.760035 0.000000 3.190164
v -2.122504 1.168853 2.073259
v -2.122504 0.000000 2.073259
v -1.005599 1.168853 1.435728
v -1.005599 0.000000 1.435729
v 1.005599 1.168853 1.435728
v 1.005599 0.000000 1.435729
v 2.122504 1.168853 2.073259
v 2.122504 0.000000 2.073259
v 0.317307 7.993776 3.666954
v 0.466861 7.993776 3.728902
v -0.317307 7.993776 3.666954
v -0.466861 7.993776 3.728902
v -0.528809 7.993776 3.878457
v -0.528809 7.993776 4.513069
v -0.466861 7.993776 4.662624
v -0.317307 7.993776 4.724572
v 0.317307 7.993776 4.724572
v 0.466861 7.993776 4.662624
v 0.528809 7.993776 4.513069
v 0.528809 7.993776 3.878457
vt 0.087215 0.068790
vt 0.087309 0.046531
vt 0.103415 0.046531
vt 0.103510 0.068790
vt 0.087209 0.117596
vt 0.087209 0.097079
vt 0.103515 0.097079
vt 0.103515 0.117596
vt 0.111632 0.070853
vt 0.111632 0.046531
vt 0.127737 0.046531
vt 0.127737 0.070853
vt 0.062986 0.070853
vt 0.062986 0.046531
vt 0.079092 0.046531
vt 0.079092 0.070853
vt 0.083201 0.046531
vt 0.083201 0.070853
vt 0.107523 0.046531
vt 0.107523 0.070853
vt 0.058878 0.070853
vt 0.058878 0.046531
vt 0.083201 0.095176
vt 0.083201 0.119499
vt 0.107523 0.095176
vt 0.107523 0.119499
vt 0.131846 0.070853
vt 0.131846 0.046531
vt 0.107523 0.123608
vt 0.107523 0.139713
vt 0.107523 0.139713
vt 0.107523 0.123608
vt 0.107523 0.143822
vt 0.107523 0.143822
vt 0.103415 0.143822
vt 0.103415 0.143822
vt 0.087309 0.143822
vt 0.087309 0.143822
vt 0.083201 0.143822
vt 0.083201 0.143822
vt 0.083201 0.139713
vt 0.083201 0.139713
vt 0.083201 0.123608
vt 0.083201 0.123608
vt 0.083201 0.119499
vt 0.083201 0.119499
vt 0.087209 0.117596
vt 0.087209 0.117596
vt 0.103515 0.117596
vt 0.103515 0.117596
vt 0.107523 0.119499
vt 0.107523 0.119499
vt 0.107523 0.123608
vt 0.107523 0.139713
vt 0.107523 0.139713
vt 0.107523 0.123608
vt 0.107523 0.143822
vt 0.107523 0.143822
vt 0.103415 0.143822
vt 0.103415 0.143822
vt 0.087309 0.143822
vt 0.087309 0.143822
vt 0.083201 0.143822
vt 0.083201 0.143822
vt 0.083201 0.139713
vt 0.083201 0.139713
vt 0.083201 0.123608
vt 0.083201 0.123608
vt 0.083201 0.119499
vt 0.087209 0.117596
vt 0.103515 0.117596
vt 0.107523 0.119499
vt 0.107523 0.123608
vt 0.107523 0.139713
vt 0.107523 0.139713
vt 0.107523 0.123608
vt 0.107523 0.143822
vt 0.107523 0.143822
vt 0.103415 0.143822
vt 0.103415 0.143822
vt 0.087309 0.143822
vt 0.087309 0.143822
vt 0.083201 0.143822
vt 0.083201 0.143822
vt 0.083201 0.139713
vt 0.083201 0.139713
vt 0.083201 0.123608
vt 0.083201 0.123608
vt 0.083201 0.119499
vt 0.083201 0.119499
vt 0.087209 0.117596
vt 0.087209 0.117596
vt 0.103515 0.117596
vt 0.103515 0.117596
vt 0.107523 0.119499
vt 0.107523 0.119499
vt 0.107523 0.123608
vt 0.107523 0.139713
vt 0.107523 0.139713
vt 0.107523 0.123608
vt 0.107523 0.143822
vt 0.107523 0.143822
vt 0.103415 0.143822
vt 0.103415 0.143822
vt 0.087309 0.143822
vt 0.087309 0.143822
vt 0.083201 0.143822
vt 0.083201 0.143822
vt 0.083201 0.139713
vt 0.083201 0.139713
vt 0.083201 0.123608
vt 0.083201 0.123608
vt 0.083201 0.119499
vt 0.083201 0.119499
vt 0.087209 0.117596
vt 0.087209 0.117596
vt 0.103515 0.117596
vt 0.103515 0.117596
vt 0.107523 0.119499
vt 0.107523 0.119499
vt 0.103515 0.097079
vt 0.107523 0.095176
vt 0.087209 0.097079
vt 0.083201 0.095176
vt 0.083201 0.091068
vt 0.083201 0.091068
vt 0.083201 0.074961
vt 0.083201 0.074961
vt 0.083201 0.070853
vt 0.087215 0.068790
vt 0.103510 0.068790
vt 0.107523 0.070853
vt 0.107523 0.074961
vt 0.107523 0.074961
vt 0.107523 0.091068
vt 0.107523 0.091068
vn -0.078752 0.000000 0.996894
vn -0.078752 0.000000 0.996894
vn 0.078752 0.000000 0.996894
vn 0.078752 0.000000 0.996894
vn -0.078753 0.000000 -0.996894
vn -0.078753 0.000000 -0.996894
vn 0.078753 0.000000 -0.996894
vn 0.078753 0.000000 -0.996894
vn 0.996894 0.000000 0.078753
vn 0.996894 0.000000 0.078753
vn 0.996894 0.000000 -0.078753
vn 0.996894 0.000000 -0.078753
vn -0.996894 0.000000 -0.078753
vn -0.996894 0.000000 -0.078753
vn -0.996894 0.000000 0.078753
vn -0.996894 0.000000 0.078753
vn -0.996894 0.000000 0.078753
vn -0.923880 0.000000 0.382683
vn -0.923880 0.000000 0.382683
vn -0.996894 0.000000 0.078753
vn -0.382683 0.000000 0.923880
vn -0.078752 0.000000 0.996894
vn -0.078752 0.000000 0.996894
vn -0.382683 0.000000 0.923880
vn 0.078752 0.000000 0.996894
vn 0.382683 0.000000 0.923880
vn 0.382683 0.000000 0.923880
vn 0.078752 0.000000 0.996894
vn 0.923880 0.000000 0.382683
vn 0.996894 0.000000 0.078753
vn 0.996894 0.000000 0.078753
vn 0.923880 0.000000 0.382683
vn -0.996894 0.000000 -0.078753
vn -0.923880 0.000000 -0.382683
vn -0.923880 0.000000 -0.382683
vn -0.996894 0.000000 -0.078753
vn -0.382684 0.000000 -0.923879
vn -0.078753 0.000000 -0.996894
vn -0.078753 0.000000 -0.996894
vn -0.382684 0.000000 -0.923879
vn 0.078753 0.000000 -0.996894
vn 0.382684 0.000000 -0.923879
vn 0.382684 0.000000 -0.923879
vn 0.078753 0.000000 -0.996894
vn 0.923880 0.000000 -0.382683
vn 0.996894 0.000000 -0.078753
vn 0.996894 0.000000 -0.078753
vn 0.923880 0.000000 -0.382683
vn 0.983397 0.000000 -0.181467
vn 0.983397 0.000000 0.181467
vn 0.983397 0.000000 0.181467
vn 0.983397 0.000000 -0.181467
vn 0.983397 0.000000 0.181467
vn 0.870307 0.000000 0.492509
vn 0.870307 0.000000 0.492509
vn 0.983397 0.000000 0.181467
vn 0.492510 0.000000 0.870307
vn 0.181467 0.000000 0.983397
vn 0.181467 0.000000 0.983397
vn 0.492510 0.000000 0.870307
vn 0.181467 0.000000 0.983397
vn -0.181467 0.000000 0.983397
vn -0.181467 0.000000 0.983397
vn 0.181467 0.000000 0.983397
vn -0.181467 0.000000 0.983397
vn -0.492510 0.000000 0.870307
vn -0.492510 0.000000 0.870307
vn -0.181467 0.000000 0.983397
vn -0.870307 0.000000 0.492509
vn -0.983397 0.000000 0.181467
vn -0.983397 0.000000 0.181467
vn -0.870307 0.000000 0.492509
vn -0.983397 0.000000 0.181467
vn -0.983397 0.000000 -0.181467
vn -0.983397 0.000000 -0.181467
vn -0.983397 0.000000 0.181467
vn -0.983397 0.000000 -0.181467
vn -0.870307 0.000000 -0.492509
vn -0.870307 0.000000 -0.492509
vn -0.983397 0.000000 -0.181467
vn -0.492510 0.000000 -0.870307
vn -0.181467 0.000000 -0.983397
vn -0.181467 0.000000 -0.983397
vn -0.492510 0.000000 -0.870307
vn -0.181467 0.000000 -0.983397
vn 0.181467 0.000000 -0.983397
vn 0.181467 0.000000 -0.983397
vn -0.181467 0.000000 -0.983397
vn 0.181467 0.000000 -0.983397
vn 0.492510 0.000000 -0.870307
vn 0.492510 0.000000 -0.870307
vn 0.181467 0.000000 -0.983397
vn 0.870307 0.000000 -0.492509
vn 0.983397 0.000000 -0.181467
vn 0.983397 0.000000 -0.181467
vn 0.870307 0.000000 -0.492509
vn 0.000000 1.000000 0.000000
vn 0.000000 1.000000 0.000000
vn 0.000000 1.000000 0.000000
vn 0.000000 1.000000 0.000000
vn 0.000000 1.000000 0.000000
vn 0.000000 1.000000 0.000000
vn 0.000000 1.000000 0.000000
vn 0.000000 1.000000 0.000000
vn 0.000000 1.000000 0.000000
vn 0.000000 1.000000 0.000000
vn 0.000000 1.000000 0.000000
vn 0.000000 1.000000 0.000000
vn 0.000000 1.000000 0.000000
vn 0.000000 1.000000 0.000000
vn 0.000000 1.000000 0.000000
vn 0.000000 1.000000 0.000000
vn 0.000000 1.000000 0.000000
vn 0.000000 1.000000 0.000000
vn 0.000000 1.000000 0.000000
vn 0.000000 1.000000 0.000000
vn 0.000000 1.000000 0.000000
vn 0.000000 1.000000 0.000000
vn 0.000000 1.000000 0.000000
vn 0.000000 1.000000 0.000000
vn 0.000000 1.000000 0.000000
vn 0.000000 1.000000 0.000000
vn 0.000000 1.000000 0.000000
vn 0.000000 1.000000 0.000000
vn 0.000000 1.000000 0.000000
vn 0.000000 1.000000 0.000000
vn 0.000000 1.000000 0.000000
vn 0.000000 1.000000 0.000000
vn 0.000000 1.000000 0.000000
vn 0.000000 1.000000 0.000000
vn 0.000000 1.000000 0.000000
vn 0.000000 1.000000 0.000000
vn 0.000000 1.000000 0.000000
vn 0.000000 1.000000 0.000000
vn 0.000000 1.000000 0.000000
vn 0.000000 1.000000 0.000000
vn 0.000000 1.000000 0.000000
vn 0.000000 1.000000 0.000000
vn 0.000000 1.000000 0.000000
vn 0.000000 1.000000 0.000000
vn 0.000000 1.000000 0.000000
vn 0.000000 1.000000 0.000000
vn 0.000000 1.000000 0.000000
vn 0.000000 1.000000 0.000000
vn 0.000000 1.000000 0.000000
vn 0.000000 1.000000 0.000000
vn 0.000000 1.000000 0.000000
vn 0.000000 1.000000 0.000000
vn 0.000000 1.000000 0.000000
vn 0.000000 1.000000 0.000000
vn 0.000000 1.000000 0.000000
vn 0.000000 1.000000 0.000000
vn 0.000000 1.000000 0.000000
vn 0.000000 1.000000 0.000000
vn 0.000000 1.000000 0.000000
vn 0.000000 1.000000 0.000000
vn 0.000000 1.000000 0.000000
vn 0.000000 1.000000 0.000000
vn 0.000000 1.000000 0.000000
vn 0.000000 1.000000 0.000000
vn 0.000000 1.000000 0.000000
vn 0.000000 1.000000 0.000000
vn 0.000000 1.000000 0.000000
vn 0.000000 1.000000 0.000000
vn 0.000000 1.000000 0.000000
vn 0.000000 1.000000 0.000000
vn 0.000000 1.000000 0.000000
vn 0.000000 1.000000 0.000000
vn 0.000000 1.000000 0.000000
vn 0.000000 1.000000 0.000000
vn 0.000000 1.000000 0.000000
vn 0.000000 1.000000 0.000000
vn 0.000000 1.000000 0.000000
vn 0.000000 1.000000 0.000000
vn 0.000000 1.000000 0.000000
vn 0.000000 1.000000 0.000000
vn 0.000000 1.000000 0.000000
vn 0.000000 1.000000 0.000000
vn 0.000000 1.000000 0.000000
vn 0.000000 1.000000 0.000000
vn 0.000000 1.000000 0.000000
vn 0.000000 1.000000 0.000000
vn 0.000000 1.000000 0.000000
vn 0.000000 1.000000 0.000000
vn 0.000000 1.000000 0.000000
vn 0.000000 1.000000 0.000000
vn 0.000000 1.000000 0.000000
vn 0.000000 1.000000 0.000000
vn 0.000000 1.000000 0.000000
vn 0.000000 1.000000 0.000000
vn 0.000000 1.000000 0.000000
vn 0.000000 1.000000 0.000000
vn -0.985418 0.000000 0.170152
vn -0.985418 0.000000 -0.170152
vn -0.985418 0.000000 -0.170152
vn -0.985418 0.000000 0.170152
vn 0.983397 0.000000 0.181467
vn 0.983397 0.000000 -0.181467
vn 0.983397 0.000000 -0.181467
vn 0.983397 0.000000 0.181467
vn -0.985418 0.000000 -0.170152
vn -0.871735 0.000000 -0.489978
vn -0.871735 0.000000 -0.489978
vn -0.985418 0.000000 -0.170152
vn 0.870307 0.000000 0.492509
vn 0.983397 0.000000 0.181467
vn 0.983397 0.000000 0.181467
vn 0.870307 0.000000 0.492510
vn -0.489978 0.000000 -0.871735
vn -0.170152 0.000000 -0.985418
vn -0.170152 0.000000 -0.985418
vn -0.489978 0.000000 -0.871735
vn 0.181467 0.000000 0.983397
vn 0.492510 0.000000 0.870307
vn 0.492510 0.000000 0.870307
vn 0.181467 0.000000 0.983397
vn -0.170152 0.000000 -0.985418
vn 0.170152 0.000000 -0.985418
vn 0.170152 0.000000 -0.985418
vn -0.170152 0.000000 -0.985418
vn -0.181467 0.000000 0.983397
vn 0.181467 0.000000 0.983397
vn 0.181467 0.000000 0.983397
vn -0.181467 0.000000 0.983397
vn 0.170152 0.000000 -0.985418
vn 0.489978 0.000000 -0.871735
vn 0.489978 0.000000 -0.871735
vn 0.170152 0.000000 -0.985418
vn -0.492510 0.000000 0.870307
vn -0.181467 0.000000 0.983397
vn -0.181467 0.000000 0.983397
vn -0.492510 0.000000 0.870307
vn 0.871735 0.000000 -0.489977
vn 0.985418 0.000000 -0.170152
vn 0.985418 0.000000 -0.170152
vn 0.871735 0.000000 -0.489977
vn -0.983397 0.000000 0.181467
vn -0.870307 0.000000 0.492509
vn -0.870307 0.000000 0.492510
vn -0.983397 0.000000 0.181467
vn 0.985418 0.000000 -0.170152
vn 0.985418 0.000000 0.170151
vn 0.985418 0.000000 0.170151
vn 0.985418 0.000000 -0.170152
vn -0.983397 0.000000 -0.181467
vn -0.983397 0.000000 0.181467
vn -0.983397 0.000000 0.181467
vn -0.983397 0.000000 -0.181467
vn 0.985418 0.000000 0.170151
vn 0.871735 0.000000 0.489977
vn 0.871735 0.000000 0.489977
vn 0.985418 0.000000 0.170151
vn -0.870307 0.000000 -0.492509
vn -0.983397 0.000000 -0.181467
vn -0.983397 0.000000 -0.181467
vn -0.870307 0.000000 -0.492509
vn 0.489977 0.000000 0.871735
vn 0.170152 0.000000 0.985418
vn 0.170152 0.000000 0.985418
vn 0.489977 0.000000 0.871735
vn -0.181467 0.000000 -0.983397
vn -0.492510 0.000000 -0.870307
vn -0.492510 0.000000 -0.870307
vn -0.181467 0.000000 -0.983397
vn 0.170152 0.000000 0.985418
vn -0.170152 0.000000 0.985418
vn -0.170152 0.000000 0.985418
vn 0.170152 0.000000 0.985418
vn 0.181467 0.000000 -0.983397
vn -0.181467 0.000000 -0.983397
vn -0.181467 0.000000 -0.983397
vn 0.181467 0.000000 -0.983397
vn -0.170152 0.000000 0.985418
vn -0.489977 0.000000 0.871735
vn -0.489977 0.000000 0.871735
vn -0.170152 0.000000 0.985418
vn 0.492510 0.000000 -0.870307
vn 0.181467 0.000000 -0.983397
vn 0.181467 0.000000 -0.983397
vn 0.492510 0.000000 -0.870307
vn -0.871735 0.000000 0.489977
vn -0.985418 0.000000 0.170152
vn -0.985418 0.000000 0.170152
vn -0.871735 0.000000 0.489977
vn 0.983397 0.000000 -0.181467
vn 0.870307 0.000000 -0.492509
vn 0.870307 0.000000 -0.492509
vn 0.983397 0.000000 -0.181467
vn 0.979857 0.000000 -0.199702
vn 0.979857 0.000000 0.199702
vn 0.979857 0.000000 0.199702
vn 0.979857 0.000000 -0.199702
vn 0.979857 0.000000 0.199702
vn 0.868478 0.000000 0.495728
vn 0.868478 0.000000 0.495728
vn 0.979857 0.000000 0.199702
vn 0.495729 0.000000 0.868477
vn 0.199702 0.000000 0.979857
vn 0.199702 0.000000 0.979857
vn 0.495729 0.000000 0.868477
vn 0.199702 0.000000 0.979857
vn -0.199702 0.000000 0.979857
vn -0.199702 0.000000 0.979857
vn 0.199702 0.000000 0.979857
vn -0.199702 0.000000 0.979857
vn -0.495729 0.000000 0.868477
vn -0.495729 0.000000 0.868477
vn -0.199702 0.000000 0.979857
vn -0.868478 0.000000 0.495728
vn -0.979857 0.000000 0.199702
vn -0.979857 0.000000 0.199702
vn -0.868478 0.000000 0.495728
vn -0.979857 0.000000 0.199702
vn -0.979857 0.000000 -0.199702
vn -0.979857 0.000000 -0.199702
vn -0.979857 0.000000 0.199702
vn -0.979857 0.000000 -0.199702
vn -0.868478 0.000000 -0.495728
vn -0.868478 0.000000 -0.495728
vn -0.979857 0.000000 -0.199702
vn -0.495728 0.000000 -0.868478
vn -0.199702 0.000000 -0.979857
vn -0.199702 0.000000 -0.979857
vn -0.495728 0.000000 -0.868478
vn -0.199702 0.000000 -0.979857
vn 0.199702 0.000000 -0.979857
vn 0.199702 0.000000 -0.979857
vn -0.199702 0.000000 -0.979857
vn 0.199702 0.000000 -0.979857
vn 0.495728 0.000000 -0.868478
vn 0.495728 0.000000 -0.868478
vn 0.199702 0.000000 -0.979857
vn 0.868478 0.000000 -0.495728
vn 0.979857 0.000000 -0.199702
vn 0.979857 0.000000 -0.199702
vn 0.868478 0.000000 -0.495728
vn 0.000000 1.000000 0.000000
vn 0.000000 1.000000 0.000000
vn 0.000000 1.000000 0.000000
vn 0.000000 1.000000 0.000000
vn 0.000000 1.000000 0.000000
vn 0.000000 1.000000 0.000000
vn 0.000000 1.000000 0.000000
vn 0.000000 1.000000 0.000000
vn 0.000000 1.000000 0.000000
vn 0.000000 1.000000 0.000000
vn 0.000000 1.000000 0.000000
vn 0.000000 1.000000 0.000000
vn 0.000000 1.000000 0.000000
vn 0.000000 1.000000 0.000000
vn 0.000000 1.000000 0.000000
vn 0.000000 1.000000 0.000000
vn 0.000000 1.000000 0.000000
vn 0.000000 1.000000 0.000000
vn 0.000000 1.000000 0.000000
vn 0.000000 1.000000 0.000000
vn 0.000000 1.000000 0.000000
vn 0.000000 1.000000 0.000000
vn 0.000000 1.000000 0.000000
vn 0.000000 1.000000 0.000000
vn 0.000000 1.000000 0.000000
vn 0.000000 1.000000 0.000000
vn 0.000000 1.000000 0.000000
vn 0.000000 1.000000 0.000000
vn 0.000000 1.000000 0.000000
vn 0.000000 1.000000 0.000000
vn 0.000000 1.000000 0.000000
vn 0.000000 1.000000 0.000000
vn 0.000000 1.000000 0.000000
vn 0.000000 1.000000 0.000000
vn 0.000000 1.000000 0.000000
vn 0.000000 1.000000 0.000000
vn 0.000000 1.000000 0.000000
vn 0.000000 1.000000 0.000000
vn 0.000000 1.000000 0.000000
vn 0.000000 1.000000 0.000000
vn 0.000000 1.000000 0.000000
vn 0.000000 1.000000 0.000000
vn 0.000000 1.000000 0.000000
vn 0.000000 1.000000 0.000000
vn 0.000000 1.000000 0.000000
vn 0.000000 1.000000 0.000000
vn 0.000000 1.000000 0.000000
vn 0.000000 1.000000 0.000000
vn 0.000000 1.000000 0.000000
vn 0.000000 1.000000 -0.000001
vn 0.000000 1.000000 -0.000001
vn 0.000000 1.000000 0.000000
vn 0.000000 1.000000 -0.000001
vn 0.000000 1.000000 -0.000001
vn 0.000000 1.000000 -0.000001
vn 0.000000 1.000000 -0.000001
vn 0.000000 1.000000 -0.000001
vn 0.000000 1.000000 -0.000001
vn 0.000000 1.000000 -0.000001
vn 0.000000 1.000000 -0.000001
vn 0.000000 1.000000 -0.000001
vn 0.000000 1.000000 0.000000
vn 0.000000 1.000000 0.000000
vn 0.000000 1.000000 -0.000001
vn 0.000000 1.000000 0.000000
vn 0.000000 1.000000 0.000000
vn 0.000000 1.000000 0.000000
vn 0.000000 1.000000 0.000000
vn 0.000000 1.000000 0.000000
vn 0.000000 1.000000 0.000000
vn 0.000000 1.000000 0.000000
vn 0.000000 1.000000 0.000000
vn 0.000000 1.000000 0.000000
vn 0.000000 1.000000 0.000001
vn 0.000000 1.000000 0.000001
vn 0.000000 1.000000 0.000000
vn 0.000000 1.000000 0.000001
vn 0.000000 1.000000 0.000001
vn 0.000000 1.000000 0.000001
vn 0.000000 1.000000 0.000001
vn 0.000000 1.000000 0.000001
vn 0.000000 1.000000 0.000001
vn 0.000000 1.000000 0.000001
vn 0.000000 1.000000 0.000001
vn 0.000000 1.000000 0.000001
vn 0.000000 1.000000 0.000000
vn 0.000000 1.000000 0.000000
vn 0.000000 1.000000 0.000001
vn 0.000000 1.000000 0.000000
vn 0.000000 1.000000 0.000000
vn 0.000000 1.000000 0.000000
vn 0.000000 1.000000 0.000000
vn 0.000000 1.000000 0.000000
vn 0.000000 1.000000 0.000000
vn 0.000000 1.000000 0.000000
vn 0.000000 1.000000 0.000000
s off
usemtl bathroom_sink_base_3_initialShadingGroup
f 6/1/1 2/2/2 9/3/3 11/4/4
f 18/5/5 15/6/6 20/7/7 23/8/8
f 10/9/9 7/10/10 22/11/11 21/12/12
f 14/13/13 16/14/14 1/15/15 4/16/16
f 1/15/17 3/17/18 5/18/19 4/16/20
f 3/17/21 2/2/22 6/1/23 5/18/24
f 9/3/25 8/19/26 12/20/27 11/4/28
f 8/19/29 7/10/30 10/9/31 12/20/32
f 14/13/33 13/21/34 17/22/35 16/14/36
f 13/23/37 15/6/38 18/5/39 17/24/40
f 20/7/41 19/25/42 24/26/43 23/8/44
f 19/27/45 21/12/46 22/11/47 24/28/48
f 37/29/49 38/30/50 39/31/51 40/32/52
f 38/30/53 41/33/54 42/34/55 39/31/56
f 41/33/57 43/35/58 44/36/59 42/34/60
f 43/35/61 45/37/62 46/38/63 44/36/64
f 45/37/65 47/39/66 48/40/67 46/38/68
f 47/39/69 49/41/70 50/42/71 48/40/72
f 49/41/73 51/43/74 52/44/75 50/42/76
f 51/43/77 53/45/78 54/46/79 52/44/80
f 53/45/81 55/47/82 56/48/83 54/46/84
f 55/47/85 57/49/86 58/50/87 56/48/88
f 57/49/89 59/51/90 60/52/91 58/50/92
f 59/51/93 37/29/94 40/32/95 60/52/96
f 22/53/97 7/54/98 26/55/99 25/56/100
f 7/54/101 8/57/102 27/58/103 26/55/104
f 8/57/105 9/59/106 28/60/107 27/58/108
f 9/59/109 2/61/110 29/62/111 28/60/112
f 2/61/113 3/63/114 30/64/115 29/62/116
f 3/63/117 1/65/118 31/66/119 30/64/120
f 1/65/121 16/67/122 32/68/123 31/66/124
f 16/67/125 17/24/126 33/69/127 32/68/128
f 17/24/129 18/5/130 34/70/131 33/69/132
f 18/5/133 23/8/134 35/71/135 34/70/136
f 23/8/137 24/26/138 36/72/139 35/71/140
f 24/26/141 22/53/142 25/56/143 36/72/144
f 61/73/145 62/74/146 63/75/147 64/76/148
f 62/74/149 65/77/150 66/78/151 63/75/152
f 65/77/153 67/79/154 68/80/155 66/78/156
f 67/79/157 69/81/158 70/82/159 68/80/160
f 69/81/161 71/83/162 72/84/163 70/82/164
f 71/83/165 73/85/166 74/86/167 72/84/168
f 73/85/169 75/87/170 76/88/171 74/86/172
f 75/87/173 77/89/174 78/90/175 76/88/176
f 77/89/177 79/91/178 80/92/179 78/90/180
f 79/91/181 81/93/182 82/94/183 80/92/184
f 81/93/185 83/95/186 84/96/187 82/94/188
f 83/95/189 61/73/190 64/76/191 84/96/192
f 25/56/193 26/55/194 62/74/195 61/73/196
f 38/30/197 37/29/198 64/76/199 63/75/200
f 26/55/201 27/58/202 65/77/203 62/74/204
f 41/33/205 38/30/206 63/75/207 66/78/208
f 27/58/209 28/60/210 67/79/211 65/77/212
f 43/35/213 41/33/214 66/78/215 68/80/216
f 28/60/217 29/62/218 69/81/219 67/79/220
f 45/37/221 43/35/222 68/80/223 70/82/224
f 29/62/225 30/64/226 71/83/227 69/81/228
f 47/39/229 45/37/230 70/82/231 72/84/232
f 30/64/233 31/66/234 73/85/235 71/83/236
f 49/41/237 47/39/238 72/84/239 74/86/240
f 31/66/241 32/68/242 75/87/243 73/85/244
f 51/43/245 49/41/246 74/86/247 76/88/248
f 32/68/249 33/69/250 77/89/251 75/87/252
f 53/45/253 51/43/254 76/88/255 78/90/256
f 33/69/257 34/70/258 79/91/259 77/89/260
f 55/47/261 53/45/262 78/90/263 80/92/264
f 34/70/265 35/71/266 81/93/267 79/91/268
f 57/49/269 55/47/270 80/92/271 82/94/272
f 35/71/273 36/72/274 83/95/275 81/93/276
f 59/51/277 57/49/278 82/94/279 84/96/280
f 36/72/281 25/56/282 61/73/283 83/95/284
f 37/29/285 59/51/286 84/96/287 64/76/288
f 85/97/289 86/98/290 87/99/291 88/100/292
f 86/98/293 89/101/294 90/102/295 87/99/296
f 89/101/297 91/103/298 92/104/299 90/102/300
f 91/103/301 93/105/302 94/106/303 92/104/304
f 93/105/305 95/107/306 96/108/307 94/106/308
f 95/107/309 97/109/310 98/110/311 96/108/312
f 97/109/313 99/111/314 100/112/315 98/110/316
f 99/111/317 101/113/318 102/114/319 100/112/320
f 101/113/321 103/115/322 104/116/323 102/114/324
f 103/115/325 105/117/326 106/118/327 104/116/328
f 105/117/329 107/119/330 108/120/331 106/118/332
f 107/119/333 85/97/334 88/100/335 108/120/336
f 40/32/337 39/31/338 86/98/339 85/97/340
f 39/31/341 42/34/342 89/101/343 86/98/344
f 42/34/345 44/36/346 91/103/347 89/101/348
f 44/36/349 46/38/350 93/105/351 91/103/352
f 46/38/353 48/40/354 95/107/355 93/105/356
f 48/40/357 50/42/358 97/109/359 95/107/360
f 50/42/361 52/44/362 99/111/363 97/109/364
f 52/44/365 54/46/366 101/113/367 99/111/368
f 54/46/369 56/48/370 103/115/371 101/113/372
f 56/48/373 58/50/374 105/117/375 103/115/376
f 58/50/377 60/52/378 107/119/379 105/117/380
f 60/52/381 40/32/382 85/97/383 107/119/384
f 19/25/385 20/7/386 109/121/387 110/122/388
f 20/7/389 15/6/390 111/123/391 109/121/392
f 15/6/393 13/23/394 112/124/395 111/123/396
f 13/23/397 14/125/398 113/126/399 112/124/400
f 14/125/401 4/127/402 114/128/403 113/126/404
f 4/127/405 5/18/406 115/129/407 114/128/408
f 5/18/409 6/1/410 116/130/411 115/129/412
f 6/1/413 11/4/414 117/131/415 116/130/416
f 11/4/417 12/20/418 118/132/419 117/131/420
f 12/20/421 10/133/422 119/134/423 118/132/424
f 10/133/425 21/135/426 120/136/427 119/134/428
f 21/135/429 19/25/430 110/122/431 120/136/432
