# This file uses centimeters as units for non-parametric coordinates.

mtllib bathtub_faucet_5.mtl
v 0.577348 4.356847 0.000000
v -0.577348 4.356847 0.000000
v -0.577348 3.802133 0.000000
v 0.577348 3.802133 0.000000
v 0.424645 3.912779 2.728191
v -0.424645 3.912779 2.728191
v -0.424645 3.504783 2.728191
v 0.424645 3.504784 2.728191
v 0.424645 3.766510 3.113772
v -0.424645 3.766509 3.113771
v -0.424645 3.448948 2.857616
v 0.424645 3.448948 2.857616
v 0.424645 3.175920 3.362949
v -0.424645 3.175920 3.362949
v -0.424644 3.174703 2.955665
v 0.424644 3.174702 2.955667
v 0.379401 3.175920 3.342399
v -0.379401 3.175920 3.342398
v -0.379401 3.175920 2.976216
v 0.379401 3.175919 2.976218
v 0.291366 3.519167 3.203543
v 0.000000 3.510715 3.060817
v -0.291366 3.519167 3.203543
v -0.291366 3.502264 2.918091
v 0.291366 3.502264 2.918091
vt 0.709395 0.518308
vt 0.756023 0.518308
vt 0.787108 0.518308
vt 0.833735 0.518308
vt 0.864820 0.518308
vt 0.709395 0.752030
vt 0.756023 0.752030
vt 0.787108 0.752030
vt 0.833735 0.752030
vt 0.864820 0.752030
vt 0.865696 0.791489
vt 0.708519 0.791489
vt 0.708519 0.905685
vt 0.865696 0.905685
vt 0.787108 0.844701
vt 0.865696 0.905685
vt 0.708519 0.905685
vt 0.708519 0.791489
vt 0.865696 0.791489
vt 0.865696 0.905685
vt 0.708519 0.905685
vt 0.708519 0.791489
vt 0.865696 0.791489
vt 0.865696 0.905685
vt 0.708519 0.905685
vt 0.708519 0.791489
vt 0.865696 0.791489
vt 0.865696 0.905685
vt 0.708519 0.905685
vt 0.708519 0.791489
vt 0.865696 0.791489
vn -0.000000 0.983273 0.182136
vn 0.000000 0.987011 0.160656
vn 0.000000 0.987011 0.160656
vn -0.000000 0.983273 0.182136
vn -0.998600 -0.000000 0.052905
vn -0.998437 0.000000 0.055885
vn -0.998437 0.000000 0.055885
vn -0.998730 -0.000000 0.050382
vn 0.000000 -0.992754 -0.120168
vn 0.000000 -0.994113 -0.108350
vn 0.000000 -0.994113 -0.108350
vn 0.000000 -0.992754 -0.120168
vn 0.998730 0.000000 0.050382
vn 0.998437 0.000000 0.055885
vn 0.998437 0.000000 0.055885
vn 0.998600 0.000000 0.052905
vn -0.000000 -0.998252 0.059109
vn -0.000000 -0.998251 0.059111
vn -0.000000 -0.998251 0.059111
vn -0.000000 -0.998251 0.059110
vn -0.000000 -0.998251 0.059110
vn -0.000001 0.652665 0.757647
vn -0.000001 0.652665 0.757647
vn -1.000000 -0.000000 -0.000000
vn -1.000000 -0.000000 -0.000000
vn 0.000001 -0.567450 -0.823408
vn 0.000001 -0.567450 -0.823408
vn 1.000000 -0.000000 0.000000
vn 1.000000 -0.000000 0.000000
vn -0.000001 0.388730 0.921352
vn -0.000001 0.388730 0.921352
vn -1.000000 -0.000000 -0.000000
vn -1.000000 -0.000000 -0.000000
vn 0.000001 -0.336656 -0.941628
vn 0.000001 -0.336656 -0.941628
vn 1.000000 -0.000000 -0.000000
vn 1.000000 -0.000000 -0.000000
vn -0.005888 -0.999982 0.000689
vn -0.009948 -0.999950 0.001164
vn 0.009948 -0.999950 0.001163
vn 0.005888 -0.999982 0.000689
vn 0.009942 -0.999813 0.016589
vn 0.005885 -0.999406 0.033954
vn -0.009942 -0.999813 0.016590
vn -0.005885 -0.999406 0.033955
vn 0.000001 -0.375011 -0.927020
vn 0.000001 -0.375011 -0.927020
vn 0.000001 -0.375011 -0.927020
vn 0.000001 -0.375011 -0.927020
vn 0.967575 -0.252499 0.006550
vn 0.967575 -0.252499 0.006550
vn 0.967575 -0.252499 0.006550
vn 0.967575 -0.252499 0.006550
vn -0.000001 0.175353 0.984506
vn -0.000001 0.175353 0.984506
vn -0.000001 0.175353 0.984506
vn -0.000001 0.175353 0.984506
vn -0.967575 -0.252498 0.006550
vn -0.967575 -0.252498 0.006550
vn -0.967575 -0.252498 0.006550
vn -0.967575 -0.252498 0.006550
s 1
usemtl initialShadingGroup
f 5/6/1 1/1/2 2/2/3 6/7/4
s 2
f 6/7/5 2/2/6 3/3/7 7/8/8
s 3
f 7/8/9 3/3/10 4/4/11 8/9/12
s 4
f 8/9/13 4/4/14 1/5/15 5/10/16
s 5
f 22/15/17 21/28/18 23/29/19
f 22/15/17 23/29/19 24/30/20
f 22/15/17 24/30/20 25/31/21
f 22/15/17 25/31/21 21/28/18
s 1
f 9/16/22 5/14/1 6/13/4 10/17/23
s 2
f 10/17/24 6/13/5 7/12/8 11/18/25
s 3
f 11/18/26 7/12/9 8/11/12 12/19/27
s 4
f 12/19/28 8/11/13 5/14/16 9/16/29
s 1
f 13/20/30 9/16/22 10/17/23 14/21/31
s 2
f 14/21/32 10/17/24 11/18/25 15/22/33
s 3
f 15/22/34 11/18/26 12/19/27 16/23/35
s 4
f 16/23/36 12/19/28 9/16/29 13/20/37
s 6
f 17/24/38 13/20/39 14/21/40 18/25/41
f 18/25/41 14/21/40 15/22/42 19/26/43
f 19/26/43 15/22/42 16/23/44 20/27/45
f 20/27/45 16/23/44 13/20/39 17/24/38
s off
f 21/28/46 17/24/47 18/25/48 23/29/49
f 23/29/50 18/25/51 19/26/52 24/30/53
f 24/30/54 19/26/55 20/27/56 25/31/57
f 25/31/58 20/27/59 17/24/60 21/28/61
