# This file uses centimeters as units for non-parametric coordinates.

mtllib bathtub_faucet_4.mtl
v 0.577348 3.986139 0.000000
v -0.577348 3.986139 0.000000
v -0.577348 3.431425 0.000000
v 0.577348 3.431425 0.000000
v 0.424645 3.912779 2.728191
v -0.424645 3.912779 2.728191
v -0.424645 3.504783 2.728191
v 0.424645 3.504784 2.728191
v 0.424645 3.766510 3.113772
v -0.424645 3.766509 3.113771
v -0.424645 3.448948 2.857616
v 0.424645 3.448948 2.857616
v 0.424645 3.198819 3.362949
v -0.424645 3.198820 3.362949
v -0.424644 3.174703 2.955665
v 0.424644 3.174702 2.955667
v 0.379401 3.197602 3.342399
v -0.379401 3.197603 3.342398
v -0.379401 3.175920 2.976216
v 0.379401 3.175919 2.976218
v 0.291366 3.519167 3.203543
v 0.000000 3.510715 3.060817
v -0.291366 3.519167 3.203543
v -0.291366 3.502264 2.918091
v 0.291366 3.502264 2.918091
v 0.913545 4.115519 0.159741
v 0.669131 4.451927 0.159741
v 0.309017 4.659839 0.159741
v -0.104528 4.703304 0.159741
v -0.500000 4.574808 0.159741
v -0.809017 4.296567 0.159741
v -0.978147 3.916694 0.159741
v -0.978148 3.500871 0.159741
v -0.809017 3.120997 0.159741
v -0.500000 2.842757 0.159741
v -0.104529 2.714260 0.159741
v 0.309017 2.757726 0.159741
v 0.669131 2.965637 0.159741
v 0.913545 3.302046 0.159741
v 1.000000 3.708782 0.159741
v 0.000000 3.708782 0.159741
v 1.034427 4.169339 0.000000
v 0.757671 4.550261 0.000000
v 0.757671 4.550261 0.159741
v 1.034427 4.169339 0.159741
v 0.349907 4.785684 0.000000
v 0.349907 4.785684 0.159741
v -0.118360 4.834901 0.000000
v -0.118360 4.834901 0.159741
v -0.566161 4.689402 0.000000
v -0.566161 4.689402 0.159741
v -0.916067 4.374344 0.000000
v -0.916067 4.374344 0.159741
v -1.107578 3.944205 0.000000
v -1.107578 3.944205 0.159741
v -1.107578 3.473359 0.000000
v -1.107578 3.473359 0.159741
v -0.916068 3.043220 0.000000
v -0.916068 3.043220 0.159741
v -0.566161 2.728163 0.000000
v -0.566161 2.728163 0.159741
v -0.118360 2.582664 0.000000
v -0.118360 2.582664 0.159741
v 0.349907 2.631880 0.000000
v 0.349907 2.631880 0.159741
v 0.757671 2.867303 0.000000
v 0.757671 2.867303 0.159741
v 1.034428 3.248225 0.000000
v 1.034428 3.248225 0.159741
v 1.132322 3.708782 0.000000
v 1.132322 3.708782 0.159741
v 0.913545 4.115519 0.231906
v 0.669131 4.451927 0.231906
v 1.034427 4.169339 0.231906
v 0.757671 4.550261 0.231906
v 0.309017 4.659839 0.231906
v 0.349907 4.785684 0.231906
v -0.104528 4.703304 0.231906
v -0.118360 4.834901 0.231906
v -0.500000 4.574808 0.231906
v -0.566161 4.689402 0.231906
v -0.809017 4.296567 0.231906
v -0.916067 4.374344 0.231906
v -0.978147 3.916694 0.231906
v -1.107578 3.944205 0.231906
v -0.978148 3.500871 0.231906
v -1.107578 3.473359 0.231906
v -0.809017 3.120997 0.231906
v -0.916068 3.043220 0.231906
v -0.500000 2.842757 0.231906
v -0.566161 2.728163 0.231906
v -0.104529 2.714260 0.231906
v -0.118360 2.582664 0.231906
v 0.309017 2.757726 0.231906
v 0.349907 2.631880 0.231906
v 0.669131 2.965637 0.231906
v 0.757671 2.867303 0.231906
v 0.913545 3.302046 0.231906
v 1.034428 3.248225 0.231906
v 1.000000 3.708782 0.231906
v 1.132322 3.708782 0.231906
vt 0.709395 0.518308
vt 0.756023 0.518308
vt 0.787108 0.518308
vt 0.833735 0.518308
vt 0.864820 0.518308
vt 0.709395 0.752030
vt 0.756023 0.752030
vt 0.787108 0.752030
vt 0.833735 0.752030
vt 0.864820 0.752030
vt 0.865696 0.791489
vt 0.708519 0.791489
vt 0.708519 0.905685
vt 0.865696 0.905685
vt 0.787108 0.844701
vt 0.865696 0.905685
vt 0.708519 0.905685
vt 0.708519 0.791489
vt 0.865696 0.791489
vt 0.865696 0.905685
vt 0.708519 0.905685
vt 0.708519 0.791489
vt 0.865696 0.791489
vt 0.865696 0.905685
vt 0.708519 0.905685
vt 0.708519 0.791489
vt 0.865696 0.791489
vt 0.865696 0.905685
vt 0.708519 0.905685
vt 0.708519 0.791489
vt 0.865696 0.791489
vt 0.709395 0.518308
vt 0.719757 0.518308
vt 0.719757 0.752030
vt 0.709395 0.752030
vt 0.730119 0.518308
vt 0.730119 0.752030
vt 0.740480 0.518308
vt 0.740480 0.752030
vt 0.750842 0.518308
vt 0.750842 0.752030
vt 0.761204 0.518308
vt 0.761204 0.752030
vt 0.771565 0.518308
vt 0.771565 0.752030
vt 0.781927 0.518308
vt 0.781927 0.752030
vt 0.792289 0.518308
vt 0.792289 0.752030
vt 0.802650 0.518308
vt 0.802650 0.752030
vt 0.813012 0.518308
vt 0.813012 0.752030
vt 0.823374 0.518308
vt 0.823374 0.752030
vt 0.833736 0.518308
vt 0.833736 0.752030
vt 0.844097 0.518308
vt 0.844097 0.752030
vt 0.854459 0.518308
vt 0.854459 0.752030
vt 0.864821 0.518308
vt 0.864821 0.752030
vt 0.875850 0.888098
vt 0.852108 0.920777
vt 0.787108 0.844701
vt 0.817126 0.940973
vt 0.776954 0.945195
vt 0.738537 0.932713
vt 0.708519 0.905685
vt 0.692090 0.868784
vt 0.692090 0.828390
vt 0.708519 0.791489
vt 0.738537 0.764460
vt 0.776954 0.751978
vt 0.817126 0.756200
vt 0.852108 0.776397
vt 0.875850 0.809076
vt 0.884249 0.848587
vt 0.719757 0.752030
vt 0.709395 0.752030
vt 0.709395 0.752030
vt 0.719757 0.752030
vt 0.730119 0.752030
vt 0.730119 0.752030
vt 0.740480 0.752030
vt 0.740480 0.752030
vt 0.750842 0.752030
vt 0.750842 0.752030
vt 0.761204 0.752030
vt 0.761204 0.752030
vt 0.771565 0.752030
vt 0.771565 0.752030
vt 0.781927 0.752030
vt 0.781927 0.752030
vt 0.792289 0.752030
vt 0.792289 0.752030
vt 0.802650 0.752030
vt 0.802650 0.752030
vt 0.813012 0.752030
vt 0.813012 0.752030
vt 0.823374 0.752030
vt 0.823374 0.752030
vt 0.833736 0.752030
vt 0.833736 0.752030
vt 0.844097 0.752030
vt 0.844097 0.752030
vt 0.854459 0.752030
vt 0.854459 0.752030
vt 0.864821 0.752030
vt 0.864821 0.752030
vt 0.719757 0.752030
vt 0.709395 0.752030
vt 0.730119 0.752030
vt 0.740480 0.752030
vt 0.750842 0.752030
vt 0.761204 0.752030
vt 0.771565 0.752030
vt 0.781927 0.752030
vt 0.792289 0.752030
vt 0.802650 0.752030
vt 0.813012 0.752030
vt 0.823374 0.752030
vt 0.833736 0.752030
vt 0.844097 0.752030
vt 0.854459 0.752030
vt 0.864821 0.752030
vn -0.000000 0.997994 0.063307
vn 0.000000 0.999639 0.026880
vn 0.000000 0.999639 0.026880
vn -0.000000 0.997994 0.063307
vn -0.998612 -0.000000 0.052669
vn -0.998437 0.000000 0.055885
vn -0.998437 0.000000 0.055885
vn -0.998709 -0.000000 0.050805
vn 0.000000 -0.999952 0.009759
vn 0.000000 -0.999639 0.026880
vn 0.000000 -0.999639 0.026880
vn 0.000000 -0.999952 0.009759
vn 0.998709 0.000000 0.050805
vn 0.998437 0.000000 0.055885
vn 0.998437 0.000000 0.055885
vn 0.998612 0.000000 0.052669
vn -0.000000 -0.998252 0.059109
vn -0.000000 -0.998251 0.059111
vn -0.000000 -0.998251 0.059111
vn -0.000000 -0.998251 0.059110
vn -0.000000 -0.998251 0.059110
vn -0.000001 0.664438 0.747343
vn -0.000001 0.664438 0.747343
vn -1.000000 -0.000000 -0.000000
vn -1.000000 -0.000000 -0.000000
vn 0.000001 -0.567450 -0.823408
vn 0.000001 -0.567450 -0.823408
vn 1.000000 -0.000000 0.000000
vn 1.000000 -0.000000 0.000000
vn -0.000001 0.401919 0.915675
vn -0.000001 0.401919 0.915675
vn -1.000000 -0.000000 -0.000000
vn -1.000000 -0.000000 -0.000000
vn 0.000001 -0.336656 -0.941628
vn 0.000001 -0.336656 -0.941628
vn 1.000000 -0.000000 0.000000
vn 1.000000 -0.000000 0.000000
vn -0.000000 -0.998252 0.059103
vn -0.000000 -0.998252 0.059107
vn -0.000000 -0.998252 0.059107
vn -0.000000 -0.998252 0.059104
vn -0.000000 -0.998251 0.059111
vn -0.000000 -0.998251 0.059111
vn -0.000000 -0.998252 0.059110
vn -0.000000 -0.998251 0.059111
vn 0.000001 -0.396431 -0.918064
vn 0.000001 -0.396431 -0.918065
vn 0.000001 -0.396431 -0.918064
vn 0.000001 -0.396431 -0.918064
vn 0.966055 -0.257885 0.015271
vn 0.966055 -0.257885 0.015271
vn 0.966055 -0.257885 0.015271
vn 0.966055 -0.257885 0.015271
vn -0.000001 0.175353 0.984506
vn -0.000001 0.175353 0.984506
vn -0.000001 0.175353 0.984506
vn -0.000001 0.175353 0.984506
vn -0.966055 -0.257884 0.015270
vn -0.966055 -0.257884 0.015270
vn -0.966055 -0.257884 0.015270
vn -0.966055 -0.257884 0.015270
vn 0.913545 0.406737 0.000000
vn 0.669131 0.743145 0.000000
vn 0.669131 0.743145 0.000000
vn 0.913545 0.406737 0.000000
vn 0.309017 0.951056 0.000000
vn 0.309017 0.951057 0.000000
vn -0.104528 0.994522 0.000000
vn -0.104528 0.994522 0.000000
vn -0.500000 0.866026 0.000000
vn -0.500000 0.866026 0.000000
vn -0.809017 0.587785 0.000000
vn -0.809017 0.587785 0.000000
vn -0.978148 0.207912 0.000000
vn -0.978148 0.207912 0.000000
vn -0.978148 -0.207912 0.000000
vn -0.978148 -0.207912 0.000000
vn -0.809017 -0.587785 0.000000
vn -0.809017 -0.587785 0.000000
vn -0.500000 -0.866026 0.000000
vn -0.500000 -0.866026 0.000000
vn -0.104529 -0.994522 0.000000
vn -0.104529 -0.994522 0.000000
vn 0.309017 -0.951057 0.000000
vn 0.309017 -0.951057 0.000000
vn 0.669131 -0.743145 0.000000
vn 0.669131 -0.743145 0.000000
vn 0.913545 -0.406737 0.000000
vn 0.913545 -0.406737 0.000000
vn 1.000000 0.000000 0.000000
vn 1.000000 0.000000 0.000000
vn 0.000000 0.000000 1.000000
vn 0.000000 0.000000 1.000000
vn -0.000000 0.000000 1.000000
vn -0.000000 0.000000 1.000000
vn -0.000000 0.000000 1.000000
vn 0.000000 0.000000 1.000000
vn 0.000000 0.000000 1.000000
vn 0.000000 0.000000 1.000000
vn 0.000000 0.000000 1.000000
vn -0.000000 0.000000 1.000000
vn -0.000000 0.000000 1.000000
vn 0.000000 0.000000 1.000000
vn 0.000000 0.000000 1.000000
vn 0.000000 0.000000 1.000000
vn 0.000000 0.000000 1.000000
vn 0.000000 0.000000 1.000000
vn -0.000000 0.000000 1.000000
vn -0.000000 0.000000 1.000000
vn -0.000000 0.000000 1.000000
vn -0.000000 0.000000 1.000000
vn 0.000000 0.000000 1.000000
vn 0.000000 0.000000 1.000000
vn 0.000000 0.000000 1.000000
vn 0.000000 0.000000 1.000000
vn -0.000000 0.000000 1.000000
vn -0.000000 0.000000 1.000000
vn 0.000000 0.000000 1.000000
vn 0.000000 0.000000 1.000000
vn 0.000000 0.000000 1.000000
vn 0.000000 0.000000 1.000000
vn -0.000000 0.000000 1.000000
vn -0.000000 0.000000 1.000000
vn 0.000000 0.000000 1.000000
vn 0.000000 0.000000 1.000000
vn 0.000000 0.000000 1.000000
vn 0.000000 0.000000 1.000000
vn 0.000000 0.000000 1.000000
vn 0.000000 0.000000 1.000000
vn 0.000000 0.000000 1.000000
vn -0.000000 0.000000 1.000000
vn -0.000000 0.000000 1.000000
vn -0.000000 0.000000 1.000000
vn 0.000000 0.000000 1.000000
vn 0.000000 0.000000 1.000000
vn 0.000000 0.000000 1.000000
vn 0.000000 0.000000 1.000000
vn -0.669131 -0.743145 0.000000
vn -0.913545 -0.406737 0.000000
vn -0.913545 -0.406737 0.000000
vn -0.669131 -0.743145 0.000000
vn 0.669131 0.743145 0.000000
vn 0.913545 0.406737 0.000000
vn -0.309017 -0.951057 0.000000
vn -0.309017 -0.951057 0.000000
vn 0.309017 0.951057 0.000000
vn 0.104528 -0.994522 0.000000
vn 0.104528 -0.994522 0.000000
vn -0.104528 0.994522 0.000000
vn 0.500000 -0.866026 0.000000
vn 0.500000 -0.866026 0.000000
vn -0.500000 0.866026 0.000000
vn 0.809017 -0.587785 0.000000
vn 0.809017 -0.587785 0.000000
vn -0.809017 0.587785 0.000000
vn 0.978148 -0.207912 0.000000
vn 0.978148 -0.207912 0.000000
vn -0.978148 0.207912 0.000000
vn 0.978148 0.207912 0.000000
vn 0.978148 0.207912 0.000000
vn -0.978148 -0.207912 0.000000
vn 0.809017 0.587785 0.000000
vn 0.809017 0.587785 0.000000
vn -0.809017 -0.587785 0.000000
vn 0.500000 0.866025 0.000000
vn 0.500000 0.866025 0.000000
vn -0.500000 -0.866026 0.000000
vn 0.104529 0.994522 0.000000
vn 0.104529 0.994522 0.000000
vn -0.104529 -0.994522 0.000000
vn -0.309017 0.951057 0.000000
vn -0.309017 0.951057 0.000000
vn 0.309017 -0.951057 0.000000
vn -0.669131 0.743145 0.000000
vn -0.669131 0.743145 0.000000
vn 0.669131 -0.743145 0.000000
vn -0.913545 0.406737 0.000000
vn -0.913545 0.406737 0.000000
vn 0.913545 -0.406737 0.000000
vn -1.000000 -0.000000 0.000000
vn -1.000000 -0.000000 0.000000
vn 1.000000 0.000000 0.000000
s 1
usemtl initialShadingGroup
f 5/6/1 1/1/2 2/2/3 6/7/4
s 2
f 6/7/5 2/2/6 3/3/7 7/8/8
s 3
f 7/8/9 3/3/10 4/4/11 8/9/12
s 4
f 8/9/13 4/4/14 1/5/15 5/10/16
s 5
f 22/15/17 21/28/18 23/29/19
f 22/15/17 23/29/19 24/30/20
f 22/15/17 24/30/20 25/31/21
f 22/15/17 25/31/21 21/28/18
s 1
f 9/16/22 5/14/1 6/13/4 10/17/23
s 2
f 10/17/24 6/13/5 7/12/8 11/18/25
s 3
f 11/18/26 7/12/9 8/11/12 12/19/27
s 4
f 12/19/28 8/11/13 5/14/16 9/16/29
s 1
f 13/20/30 9/16/22 10/17/23 14/21/31
s 2
f 14/21/32 10/17/24 11/18/25 15/22/33
s 3
f 15/22/34 11/18/26 12/19/27 16/23/35
s 4
f 16/23/36 12/19/28 9/16/29 13/20/37
s 6
f 17/24/38 13/20/39 14/21/40 18/25/41
f 18/25/41 14/21/40 15/22/42 19/26/43
f 19/26/43 15/22/42 16/23/44 20/27/45
f 20/27/45 16/23/44 13/20/39 17/24/38
s off
f 21/28/46 17/24/47 18/25/48 23/29/49
f 23/29/50 18/25/51 19/26/52 24/30/53
f 24/30/54 19/26/55 20/27/56 25/31/57
f 25/31/58 20/27/59 17/24/60 21/28/61
s 7
f 42/32/62 43/33/63 44/34/64 45/35/65
f 43/33/63 46/36/66 47/37/67 44/34/64
f 46/36/66 48/38/68 49/39/69 47/37/67
f 48/38/68 50/40/70 51/41/71 49/39/69
f 50/40/70 52/42/72 53/43/73 51/41/71
f 52/42/72 54/44/74 55/45/75 53/43/73
f 54/44/74 56/46/76 57/47/77 55/45/75
f 56/46/76 58/48/78 59/49/79 57/47/77
f 58/48/78 60/50/80 61/51/81 59/49/79
f 60/50/80 62/52/82 63/53/83 61/51/81
f 62/52/82 64/54/84 65/55/85 63/53/83
f 64/54/84 66/56/86 67/57/87 65/55/85
f 66/56/86 68/58/88 69/59/89 67/57/87
f 68/58/88 70/60/90 71/61/91 69/59/89
f 70/60/90 42/62/62 45/63/65 71/61/91
s 8
f 26/64/92 27/65/93 41/66/94
f 27/65/93 28/67/95 41/66/94
f 28/67/95 29/68/96 41/66/94
f 29/68/96 30/69/97 41/66/94
f 30/69/97 31/70/98 41/66/94
f 31/70/98 32/71/99 41/66/94
f 32/71/99 33/72/100 41/66/94
f 33/72/100 34/73/101 41/66/94
f 34/73/101 35/74/102 41/66/94
f 35/74/102 36/75/103 41/66/94
f 36/75/103 37/76/104 41/66/94
f 37/76/104 38/77/105 41/66/94
f 38/77/105 39/78/106 41/66/94
f 39/78/106 40/79/107 41/66/94
f 40/79/107 26/64/92 41/66/94
s 9
f 73/80/108 72/81/109 74/82/110 75/83/111
f 76/84/112 73/80/108 75/83/111 77/85/113
f 78/86/114 76/84/112 77/85/113 79/87/115
f 80/88/116 78/86/114 79/87/115 81/89/117
f 82/90/118 80/88/116 81/89/117 83/91/119
f 84/92/120 82/90/118 83/91/119 85/93/121
f 86/94/122 84/92/120 85/93/121 87/95/123
f 88/96/124 86/94/122 87/95/123 89/97/125
f 90/98/126 88/96/124 89/97/125 91/99/127
f 92/100/128 90/98/126 91/99/127 93/101/129
f 94/102/130 92/100/128 93/101/129 95/103/131
f 96/104/132 94/102/130 95/103/131 97/105/133
f 98/106/134 96/104/132 97/105/133 99/107/135
f 100/108/136 98/106/134 99/107/135 101/109/137
f 72/110/109 100/108/136 101/109/137 74/111/110
s 10
f 27/112/138 26/113/139 72/81/140 73/80/141
s 7
f 45/35/65 44/34/64 75/83/142 74/82/143
s 10
f 28/114/144 27/112/138 73/80/141 76/84/145
s 7
f 44/34/64 47/37/67 77/85/146 75/83/142
s 10
f 29/115/147 28/114/144 76/84/145 78/86/148
s 7
f 47/37/67 49/39/69 79/87/149 77/85/146
s 10
f 30/116/150 29/115/147 78/86/148 80/88/151
s 7
f 49/39/69 51/41/71 81/89/152 79/87/149
s 10
f 31/117/153 30/116/150 80/88/151 82/90/154
s 7
f 51/41/71 53/43/73 83/91/155 81/89/152
s 10
f 32/118/156 31/117/153 82/90/154 84/92/157
s 7
f 53/43/73 55/45/75 85/93/158 83/91/155
s 10
f 33/119/159 32/118/156 84/92/157 86/94/160
s 7
f 55/45/75 57/47/77 87/95/161 85/93/158
s 10
f 34/120/162 33/119/159 86/94/160 88/96/163
s 7
f 57/47/77 59/49/79 89/97/164 87/95/161
s 10
f 35/121/165 34/120/162 88/96/163 90/98/166
s 7
f 59/49/79 61/51/81 91/99/167 89/97/164
s 10
f 36/122/168 35/121/165 90/98/166 92/100/169
s 7
f 61/51/81 63/53/83 93/101/170 91/99/167
s 10
f 37/123/171 36/122/168 92/100/169 94/102/172
s 7
f 63/53/83 65/55/85 95/103/173 93/101/170
s 10
f 38/124/174 37/123/171 94/102/172 96/104/175
s 7
f 65/55/85 67/57/87 97/105/176 95/103/173
s 10
f 39/125/177 38/124/174 96/104/175 98/106/178
s 7
f 67/57/87 69/59/89 99/107/179 97/105/176
s 10
f 40/126/180 39/125/177 98/106/178 100/108/181
s 7
f 69/59/89 71/61/91 101/109/182 99/107/179
s 10
f 26/127/139 40/126/180 100/108/181 72/110/140
s 7
f 71/61/91 45/63/65 74/111/143 101/109/182
