# This file uses centimeters as units for non-parametric coordinates.

mtllib bathroom_sink_base_2.mtl
v 0.416300 7.817636 2.440738
v 0.267077 7.817636 2.319800
v 0.056671 7.817636 2.262506
v -0.166718 7.817636 2.281982
v -0.351914 7.817636 2.373764
v -0.456491 7.817636 2.516828
v -0.456491 4.613439 2.678398
v -0.351914 4.474748 2.821462
v -0.166719 4.385772 2.913244
v 0.056671 4.366891 2.932720
v 0.267077 4.422434 2.875426
v 0.416300 4.539674 2.754488
v 0.470153 4.691755 2.597613
v 0.416300 7.818867 3.977272
v 0.267077 7.818867 3.808835
v 0.056671 7.818867 3.729038
v -0.166718 7.818867 3.756163
v -0.351914 7.818867 3.883994
v -0.456491 7.818867 4.083248
v -0.456491 7.818867 4.308278
v -0.351914 7.818867 4.507532
v -0.166719 7.818867 4.635364
v 0.056671 7.818867 4.662488
v 0.267077 7.818867 4.582691
v 0.416300 7.818867 4.414254
v 0.470153 7.818867 4.195763
v 0.416300 7.817636 3.667696
v 0.470153 6.062647 4.132266
v 0.416300 5.910567 4.289141
v 0.267077 5.793327 4.410079
v 0.056671 5.737785 4.467372
v -0.166719 5.756665 4.447897
v -0.351914 5.845641 4.356115
v -0.456491 5.984332 4.213051
v -0.456491 7.817636 3.743786
v -0.351914 7.817636 3.600722
v -0.166718 7.817636 3.508940
v 0.056671 7.817636 3.489464
v 0.267077 7.817636 3.546758
v 0.416300 7.817636 0.000000
v 0.267077 7.817636 0.000000
v 0.056669 7.817636 0.000000
v -0.166719 7.817636 0.000000
v -0.351914 7.817636 0.000000
v -0.456491 7.817636 0.000000
v -0.456492 4.613734 0.000000
v -0.351914 4.414591 0.000000
v -0.166719 4.286831 0.000000
v 0.056670 4.259724 0.000000
v 0.267077 4.339474 0.000000
v 0.416299 4.507815 0.000000
v 0.470153 4.726185 0.000000
v 0.357677 7.818867 4.008040
v 0.229468 7.818867 3.863322
v 0.048690 7.818867 3.794762
v -0.143241 7.818867 3.818066
v -0.302358 7.818867 3.927897
v -0.392209 7.818867 4.099092
v -0.392209 7.818867 4.292434
v -0.302358 7.818867 4.463629
v -0.143241 7.818867 4.573460
v 0.048690 7.818867 4.596765
v 0.229468 7.818867 4.528204
v 0.357677 7.818867 4.383487
v 0.403947 7.818867 4.195763
v 0.335049 6.196009 3.941445
v 0.214951 6.196009 3.805882
v 0.000000 6.196009 4.117295
v 0.045610 6.196009 3.741662
v -0.134179 6.196009 3.763495
v -0.283230 6.196009 3.866380
v -0.367396 6.196009 4.026742
v -0.367396 6.196009 4.207847
v -0.283230 6.196009 4.368217
v -0.134179 6.196009 4.471102
v 0.045610 6.196009 4.492923
v 0.214951 6.196011 4.428692
v 0.335049 6.196010 4.293145
v 0.378391 6.196009 4.117302
v -0.456491 7.581931 0.000000
v -0.456491 7.581908 2.528714
v -0.456491 7.682763 3.778309
v -0.456491 7.818867 4.099803
v -0.392209 7.818867 4.113317
v -0.367396 6.196009 4.040066
v -0.351914 7.715482 4.499599
v -0.456491 7.722748 4.303289
v -0.456491 7.811737 4.082959
v -0.456491 7.818802 4.065463
v -0.351914 7.818802 3.869152
v -0.166718 7.818802 3.743210
v 0.056671 7.818802 3.716486
v 0.267077 7.818802 3.795104
v 0.416300 7.818802 3.961052
v 0.470153 7.726852 4.192436
v 0.416300 7.718884 4.407699
v 0.267077 7.712741 4.573647
v 0.056671 7.709831 4.652265
v -0.166719 7.710820 4.625542
v -0.500000 0.000000 2.382110
v 0.500000 0.000000 2.382110
v -0.500000 0.000000 1.882110
v 0.500000 0.000000 1.882110
vt 0.076385 0.063825
vt 0.079543 0.063825
vt 0.079543 0.096549
vt 0.076385 0.096549
vt 0.082701 0.063825
vt 0.082701 0.096549
vt 0.085860 0.063825
vt 0.085860 0.096549
vt 0.089018 0.063825
vt 0.089018 0.096549
vt 0.092176 0.063825
vt 0.092176 0.096549
vt 0.092408 0.063825
vt 0.092408 0.096549
vt 0.095334 0.063825
vt 0.098493 0.063825
vt 0.098493 0.096549
vt 0.095334 0.096549
vt 0.101651 0.063825
vt 0.101651 0.096549
vt 0.104809 0.063825
vt 0.104809 0.096549
vt 0.107967 0.063825
vt 0.107967 0.096549
vt 0.111126 0.063825
vt 0.111126 0.096549
vt 0.114284 0.063825
vt 0.114284 0.096549
vt 0.117442 0.063825
vt 0.117442 0.096549
vt 0.119635 0.162998
vt 0.111490 0.172191
vt 0.096913 0.150046
vt 0.100007 0.176546
vt 0.087814 0.175066
vt 0.077706 0.168089
vt 0.071998 0.157214
vt 0.071998 0.156310
vt 0.071998 0.144931
vt 0.077706 0.134056
vt 0.087814 0.127079
vt 0.100007 0.125599
vt 0.111490 0.129954
vt 0.119635 0.139147
vt 0.122574 0.151072
vt 0.117442 0.124046
vt 0.114284 0.124046
vt 0.111126 0.124046
vt 0.107967 0.124046
vt 0.104809 0.124046
vt 0.101651 0.124046
vt 0.098493 0.124046
vt 0.095334 0.124046
vt 0.092408 0.124046
vt 0.092176 0.124046
vt 0.089018 0.124046
vt 0.085860 0.124046
vt 0.082701 0.124046
vt 0.079543 0.124046
vt 0.076385 0.124046
vt 0.111490 0.017046
vt 0.119635 0.026239
vt 0.119635 0.026239
vt 0.111490 0.017046
vt 0.100007 0.012690
vt 0.100007 0.012690
vt 0.087814 0.014171
vt 0.087814 0.014171
vt 0.077706 0.021148
vt 0.077706 0.021148
vt 0.071998 0.032023
vt 0.071998 0.032023
vt 0.071998 0.032927
vt 0.071998 0.032927
vt 0.077706 0.055180
vt 0.071998 0.044306
vt 0.071998 0.044306
vt 0.077706 0.055180
vt 0.087814 0.062157
vt 0.087814 0.062157
vt 0.100007 0.063638
vt 0.100007 0.063638
vt 0.111490 0.059283
vt 0.111490 0.059283
vt 0.119635 0.050090
vt 0.119635 0.050090
vt 0.122574 0.038164
vt 0.122574 0.038164
vt 0.119635 0.162998
vt 0.111490 0.172191
vt 0.111490 0.172191
vt 0.119635 0.162998
vt 0.100007 0.176546
vt 0.100007 0.176546
vt 0.087814 0.175066
vt 0.087814 0.175066
vt 0.077706 0.168089
vt 0.077706 0.168089
vt 0.071998 0.157214
vt 0.071998 0.157214
vt 0.071998 0.156310
vt 0.071998 0.156310
vt 0.071998 0.144931
vt 0.077706 0.134056
vt 0.077706 0.134056
vt 0.071998 0.144931
vt 0.087814 0.127079
vt 0.087814 0.127079
vt 0.100007 0.125599
vt 0.100007 0.125599
vt 0.111490 0.129954
vt 0.111490 0.129954
vt 0.119635 0.139147
vt 0.119635 0.139147
vt 0.122574 0.151072
vt 0.122574 0.151072
vt 0.098493 0.125566
vt 0.095334 0.125566
vt 0.092408 0.125566
vt 0.092176 0.125566
vt 0.089018 0.125566
vt 0.085860 0.125566
vt 0.082701 0.125566
vt 0.079543 0.125566
vt 0.076385 0.125566
vt 0.117442 0.125566
vt 0.114284 0.125566
vt 0.111126 0.125566
vt 0.107967 0.125566
vt 0.104809 0.125566
vt 0.101651 0.125566
vt 0.938487 0.961039
vt 0.988343 0.961039
vt 0.988343 0.976725
vt 0.938487 0.976725
vn 0.000000 1.000000 0.000000
vn 0.000000 1.000000 0.000000
vn 0.000000 1.000000 0.000000
vn 0.000000 1.000000 0.000000
vn 0.000000 1.000000 0.000000
vn 0.000000 1.000000 0.000000
vn 0.000000 1.000000 0.000000
vn 0.000000 1.000000 0.000000
vn 0.000000 1.000000 0.000000
vn 0.000000 1.000000 0.000000
vn 0.000000 1.000000 0.000000
vn 0.000000 1.000000 0.000000
vn 0.000000 1.000000 0.000000
vn 0.000000 1.000000 0.000000
vn 0.000000 1.000000 0.000000
vn 0.000000 1.000000 0.000000
vn 0.000000 1.000000 0.000000
vn 0.000000 1.000000 0.000000
vn 0.000000 1.000000 0.000000
vn 0.000000 1.000000 0.000000
vn -1.000000 0.000000 0.000000
vn -1.000000 0.000000 0.000000
vn -1.000000 0.000000 0.000000
vn -1.000000 0.000000 0.000000
vn -0.998453 -0.053931 0.013496
vn -0.707157 -0.672219 0.219204
vn -0.723515 -0.315780 0.613847
vn -0.996615 -0.033494 0.075076
vn -0.707157 -0.672219 0.219204
vn -0.327546 -0.891759 0.312216
vn -0.339541 -0.442909 0.829786
vn -0.723515 -0.315780 0.613847
vn -0.327546 -0.891759 0.312216
vn 0.110817 -0.936792 0.331874
vn 0.115214 -0.469935 0.875150
vn -0.339541 -0.442909 0.829786
vn 0.110817 -0.936792 0.331874
vn 0.529572 -0.802814 0.273940
vn 0.545915 -0.390475 0.741287
vn 0.115214 -0.469935 0.875150
vn 0.529572 -0.802814 0.273940
vn 0.850634 -0.503476 0.151441
vn 0.862969 -0.223344 0.453214
vn 0.545915 -0.390475 0.741287
vn 0.850634 -0.503476 0.151441
vn 0.999924 -0.011435 0.004699
vn 0.999622 0.000899 0.027473
vn 0.862969 -0.223344 0.453214
vn 0.999924 -0.011435 0.004699
vn 0.999827 0.018353 -0.003011
vn 0.999628 0.020769 -0.017691
vn 0.999622 0.000899 0.027473
vn -0.878971 0.088173 0.468653
vn -0.563161 0.071429 0.823255
vn -0.000001 1.000000 -0.000001
vn -0.563161 0.071429 0.823255
vn -0.119403 0.063509 0.990813
vn -0.000001 1.000000 -0.000001
vn -0.119403 0.063509 0.990813
vn 0.351385 0.066202 0.933887
vn -0.000001 1.000000 -0.000001
vn 0.351385 0.066202 0.933887
vn 0.742514 0.078899 0.665167
vn -0.000001 1.000000 -0.000001
vn 0.742514 0.078899 0.665167
vn 0.887353 0.161553 0.431863
vn -0.000001 1.000000 -0.000001
vn 0.887353 0.161553 0.431863
vn 0.972437 0.233168 0.000000
vn 0.962753 0.125200 -0.239648
vn -0.000001 1.000000 -0.000001
vn 0.962753 0.125200 -0.239648
vn 0.744623 0.140924 -0.652439
vn -0.000001 1.000000 -0.000001
vn 0.744623 0.140924 -0.652439
vn 0.352774 0.153612 -0.923014
vn -0.000001 1.000000 -0.000001
vn 0.352774 0.153612 -0.923014
vn -0.119939 0.156306 -0.980399
vn -0.000001 1.000000 -0.000001
vn -0.119939 0.156306 -0.980399
vn -0.565135 0.148392 -0.811543
vn -0.000001 1.000000 -0.000001
vn -0.565135 0.148392 -0.811543
vn -0.880709 0.131650 -0.454995
vn -0.000001 1.000000 -0.000001
vn -0.880709 0.131650 -0.454995
vn -0.993914 0.109915 0.007296
vn -0.000001 1.000000 -0.000001
vn -0.993914 0.109915 0.007296
vn -0.878971 0.088173 0.468653
vn -0.000001 1.000000 -0.000001
vn 0.999622 0.000899 0.027473
vn 0.999628 0.020769 -0.017691
vn 0.994919 0.020907 -0.098489
vn 0.998985 0.007650 0.044389
vn 0.862969 -0.223344 0.453214
vn 0.999622 0.000899 0.027473
vn 0.998985 0.007650 0.044389
vn 0.849872 -0.036659 0.525712
vn 0.545915 -0.390475 0.741287
vn 0.862969 -0.223344 0.453214
vn 0.849872 -0.036659 0.525712
vn 0.510604 -0.072013 0.856795
vn 0.115214 -0.469935 0.875150
vn 0.545915 -0.390475 0.741287
vn 0.510604 -0.072013 0.856795
vn 0.104404 -0.090126 0.990443
vn -0.339541 -0.442909 0.829786
vn 0.115214 -0.469935 0.875150
vn 0.104404 -0.090126 0.990443
vn -0.311132 -0.083922 0.946654
vn -0.723515 -0.315780 0.613847
vn -0.339541 -0.442909 0.829786
vn -0.311132 -0.083922 0.946654
vn -0.694574 -0.055560 0.717272
vn -0.996615 -0.033494 0.075076
vn -0.723515 -0.315780 0.613847
vn -0.694574 -0.055560 0.717272
vn -0.978362 -0.013374 0.206466
vn -1.000000 0.000001 0.000000
vn -1.000000 0.000001 0.000000
vn -1.000000 0.000001 0.000000
vn -1.000000 0.000001 0.000000
vn -0.006414 0.999972 -0.003956
vn -0.006414 0.999972 -0.003956
vn -0.006414 0.999972 -0.003956
vn -0.006414 0.999972 -0.003956
vn -0.002728 0.999986 -0.004639
vn -0.002728 0.999986 -0.004639
vn -0.002728 0.999986 -0.004639
vn -0.002728 0.999986 -0.004639
vn -0.000523 0.999987 -0.005058
vn -0.000523 0.999987 -0.005058
vn -0.000523 0.999987 -0.005058
vn -0.000523 0.999987 -0.005058
vn 0.001585 0.999987 -0.004910
vn 0.001585 0.999987 -0.004910
vn 0.001585 0.999987 -0.004910
vn 0.001585 0.999987 -0.004910
vn 0.004139 0.999982 -0.004306
vn 0.004139 0.999982 -0.004306
vn 0.004139 0.999982 -0.004306
vn 0.004139 0.999982 -0.004306
vn 0.000000 1.000000 0.000000
vn 0.000000 1.000000 0.000000
vn 0.000000 1.000000 0.000000
vn 0.000000 1.000000 0.000000
vn 0.000000 1.000000 0.000000
vn 0.000000 1.000000 0.000000
vn 0.000000 1.000000 0.000000
vn 0.000000 1.000000 0.000000
vn 0.000000 1.000000 0.000000
vn 0.000000 1.000000 0.000000
vn 0.000000 1.000000 0.000000
vn 0.000000 1.000000 0.000000
vn 0.000000 1.000000 0.000000
vn 0.000000 1.000000 0.000000
vn 0.000000 1.000000 0.000000
vn 0.000000 1.000000 0.000000
vn 0.000000 1.000000 0.000000
vn 0.000000 1.000000 0.000000
vn 0.000000 1.000000 0.000000
vn 0.000000 1.000000 0.000000
vn -1.000000 0.000000 0.000000
vn -1.000000 0.000000 0.000000
vn -1.000000 0.000000 0.000000
vn -1.000000 0.000000 0.000000
vn -0.707157 -0.672219 0.219204
vn -0.998453 -0.053931 0.013496
vn -0.999385 -0.035067 0.000382
vn -0.688462 -0.725098 0.015877
vn -0.327546 -0.891759 0.312216
vn -0.707157 -0.672219 0.219204
vn -0.688462 -0.725098 0.015877
vn -0.305792 -0.951614 0.030370
vn 0.110817 -0.936792 0.331874
vn -0.327546 -0.891759 0.312216
vn -0.305792 -0.951614 0.030370
vn 0.102418 -0.994166 0.033842
vn 0.529572 -0.802814 0.273940
vn 0.110817 -0.936792 0.331874
vn 0.102418 -0.994166 0.033842
vn 0.503662 -0.863568 0.023980
vn 0.850634 -0.503476 0.151441
vn 0.529572 -0.802814 0.273940
vn 0.503662 -0.863568 0.023980
vn 0.846636 -0.532112 0.008041
vn 0.999924 -0.011435 0.004699
vn 0.850634 -0.503476 0.151441
vn 0.846636 -0.532112 0.008041
vn 1.000000 -0.000730 0.000103
vn 0.999827 0.018353 -0.003011
vn 0.999924 -0.011435 0.004699
vn 1.000000 -0.000730 0.000103
vn 0.999850 0.017324 0.000118
vn 0.000000 1.000000 0.000000
vn 0.000000 1.000000 0.000000
vn 0.000000 1.000000 0.000000
vn 0.000000 1.000000 0.000000
vn 0.000000 1.000000 -0.000002
vn 0.000000 1.000000 -0.000002
vn 0.000000 1.000000 -0.000002
vn 0.000000 1.000000 -0.000002
vn 0.000000 1.000000 0.000004
vn 0.000000 1.000000 0.000004
vn 0.000000 1.000000 0.000004
vn 0.000000 1.000000 0.000004
vn 0.000000 1.000000 0.000002
vn 0.000000 1.000000 0.000002
vn 0.000000 1.000000 0.000002
vn 0.000000 1.000000 0.000002
vn 0.000000 1.000000 0.000000
vn 0.000000 1.000000 0.000000
vn 0.000000 1.000000 0.000000
vn 0.000000 1.000000 0.000000
vn 0.000000 1.000000 0.000000
vn 0.000000 1.000000 0.000000
vn 0.000000 1.000000 0.000000
vn 0.000000 1.000000 0.000000
vn 0.000000 1.000000 -0.000009
vn 0.000000 1.000000 -0.000009
vn 0.000000 1.000000 -0.000009
vn 0.000000 1.000000 -0.000009
vn 0.000000 1.000000 0.000018
vn 0.000000 1.000000 0.000018
vn 0.000000 1.000000 0.000018
vn 0.000000 1.000000 0.000018
vn 0.000000 1.000000 0.000004
vn 0.000000 1.000000 0.000004
vn 0.000000 1.000000 0.000004
vn 0.000000 1.000000 0.000004
vn 0.000000 1.000000 -0.000006
vn 0.000000 1.000000 -0.000006
vn 0.000000 1.000000 -0.000006
vn 0.000000 1.000000 -0.000006
vn 0.000000 1.000000 0.000004
vn 0.000000 1.000000 0.000004
vn 0.000000 1.000000 0.000004
vn 0.000000 1.000000 0.000004
vn 0.000000 1.000000 0.000004
vn 0.000000 1.000000 0.000004
vn 0.000000 1.000000 0.000004
vn 0.000000 1.000000 0.000004
vn 0.000000 1.000000 0.000004
vn 0.000000 1.000000 0.000004
vn 0.000000 1.000000 0.000004
vn 0.000000 1.000000 0.000004
vn -0.888448 -0.006444 0.458932
vn -0.571324 -0.023925 0.820376
vn -0.563161 0.071429 0.823255
vn -0.878971 0.088173 0.468653
vn -0.571324 -0.023925 0.820376
vn -0.121344 -0.032231 0.992087
vn -0.119403 0.063509 0.990813
vn -0.563161 0.071429 0.823255
vn -0.121344 -0.032231 0.992087
vn 0.356886 -0.029404 0.933685
vn 0.351385 0.066202 0.933887
vn -0.119403 0.063509 0.990813
vn 0.356886 -0.029404 0.933685
vn 0.752047 -0.016114 0.658913
vn 0.742514 0.078899 0.665167
vn 0.351385 0.066202 0.933887
vn 0.752047 -0.016114 0.658913
vn 0.900674 -0.005598 0.434460
vn 0.887353 0.161553 0.431863
vn 0.742514 0.078899 0.665167
vn 0.900674 -0.005598 0.434460
vn 0.999883 0.015288 0.000000
vn 0.972437 0.233168 0.000000
vn 0.887353 0.161553 0.431863
vn 0.966463 0.028081 -0.255268
vn 0.743970 0.047954 -0.666490
vn 0.744623 0.140924 -0.652439
vn 0.962753 0.125200 -0.239648
vn 0.743970 0.047954 -0.666490
vn 0.351482 0.060888 -0.934213
vn 0.352774 0.153612 -0.923014
vn 0.744623 0.140924 -0.652439
vn 0.351482 0.060888 -0.934213
vn -0.119429 0.063625 -0.990802
vn -0.119939 0.156306 -0.980399
vn 0.352774 0.153612 -0.923014
vn -0.119429 0.063625 -0.990802
vn -0.563713 0.055573 -0.824099
vn -0.565135 0.148392 -0.811543
vn -0.119939 0.156306 -0.980399
vn -0.563713 0.055573 -0.824099
vn -0.881733 0.038470 -0.470178
vn -0.880709 0.131650 -0.454995
vn -0.565135 0.148392 -0.811543
vn -0.881733 0.038470 -0.470178
vn -0.999843 0.016101 -0.007376
vn -0.993914 0.109915 0.007296
vn -0.880709 0.131650 -0.454995
vn -0.999843 0.016101 -0.007376
vn -0.888448 -0.006444 0.458932
vn -0.878971 0.088173 0.468653
vn -0.993914 0.109915 0.007296
vn -0.998453 -0.053931 0.013496
vn -1.000000 0.000000 0.000000
vn -1.000000 0.000000 0.000000
vn -0.999385 -0.035067 0.000382
vn -1.000000 0.000000 0.000000
vn -1.000000 0.000000 0.000000
vn -0.998453 -0.053931 0.013496
vn -0.996615 -0.033494 0.075076
vn -1.000000 0.000000 0.000000
vn -1.000000 0.000000 0.000000
vn -0.996615 -0.033494 0.075076
vn -0.978362 -0.013374 0.206466
vn 0.000000 1.000000 0.000000
vn 0.000000 1.000000 0.000000
vn 0.000000 1.000000 0.000000
vn 0.000000 1.000000 0.000000
vn 0.972437 0.233168 0.000000
vn 0.999883 0.015288 0.000000
vn 0.966463 0.028081 -0.255268
vn 0.962753 0.125200 -0.239648
vn -0.883855 -0.030235 0.466782
vn -0.883855 -0.030235 0.466782
vn -0.883855 -0.030235 0.466782
vn -0.883855 -0.030235 0.466782
vn -1.000000 0.000000 0.000000
vn -1.000000 0.000000 0.000000
vn -1.000000 0.000000 0.000000
vn -1.000000 0.000000 0.000000
vn -1.000000 0.000008 0.000000
vn -1.000000 0.000008 0.000000
vn -1.000000 0.000008 0.000000
vn -1.000000 0.000008 0.000000
vn -0.007518 0.999964 -0.003913
vn -0.007518 0.999964 -0.003913
vn -0.007518 0.999964 -0.003913
vn -0.007518 0.999964 -0.003913
vn -0.003197 0.999984 -0.004648
vn -0.003197 0.999984 -0.004648
vn -0.003197 0.999984 -0.004648
vn -0.003197 0.999984 -0.004648
vn -0.000613 0.999987 -0.005105
vn -0.000613 0.999987 -0.005105
vn -0.000613 0.999987 -0.005105
vn -0.000613 0.999987 -0.005105
vn 0.001858 0.999986 -0.004915
vn 0.001858 0.999986 -0.004915
vn 0.001858 0.999986 -0.004915
vn 0.001858 0.999986 -0.004915
vn 0.004852 0.999979 -0.004321
vn 0.004852 0.999979 -0.004321
vn 0.004852 0.999979 -0.004321
vn 0.004852 0.999979 -0.004321
vn 0.973574 0.047422 -0.223392
vn 0.973574 0.047422 -0.223392
vn 0.973574 0.047422 -0.223392
vn 0.973574 0.047422 -0.223392
vn 0.970506 -0.012392 0.240758
vn 0.970506 -0.012392 0.240758
vn 0.970506 -0.012392 0.240758
vn 0.970506 -0.012392 0.240758
vn 0.745579 -0.050292 0.664517
vn 0.745579 -0.050292 0.664517
vn 0.745579 -0.050292 0.664517
vn 0.745579 -0.050292 0.664517
vn 0.351588 -0.083494 0.932424
vn 0.351588 -0.083494 0.932424
vn 0.351588 -0.083494 0.932424
vn 0.351588 -0.083494 0.932424
vn -0.119358 -0.091289 0.988646
vn -0.119358 -0.091289 0.988646
vn -0.119358 -0.091289 0.988646
vn -0.119358 -0.091289 0.988646
vn -0.564454 -0.069077 0.822569
vn -0.564454 -0.069077 0.822569
vn -0.564454 -0.069077 0.822569
vn -0.564454 -0.069077 0.822569
vn 0.000000 1.000000 0.000000
vn 0.000000 1.000000 0.000000
vn 0.000000 1.000000 0.000000
vn 0.000000 1.000000 0.000000
s off
usemtl bathroom_sink_base_2_initialShadingGroup
f 1/1/1 2/2/2 39/3/3 27/4/4
f 2/2/5 3/5/6 38/6/7 39/3/8
f 3/5/9 4/7/10 37/8/11 38/6/12
f 4/7/13 5/9/14 36/10/15 37/8/16
f 5/9/17 6/11/18 35/12/19 36/10/20
f 6/11/21 81/13/22 82/14/23 35/12/24
f 7/15/25 8/16/26 33/17/27 34/18/28
f 8/16/29 9/19/30 32/20/31 33/17/32
f 9/19/33 10/21/34 31/22/35 32/20/36
f 10/21/37 11/23/38 30/24/39 31/22/40
f 11/23/41 12/25/42 29/26/43 30/24/44
f 12/25/45 13/27/46 28/28/47 29/26/48
f 13/27/49 1/29/50 27/30/51 28/28/52
f 66/31/53 67/32/54 68/33/55
f 67/32/56 69/34/57 68/33/58
f 69/34/59 70/35/60 68/33/61
f 70/35/62 71/36/63 68/33/64
f 71/36/65 72/37/66 68/33/67
f 72/37/68 85/38/69 73/39/70 68/33/71
f 73/39/72 74/40/73 68/33/74
f 74/40/75 75/41/76 68/33/77
f 75/41/78 76/42/79 68/33/80
f 76/42/81 77/43/82 68/33/83
f 77/43/84 78/44/85 68/33/86
f 78/44/87 79/45/88 68/33/89
f 79/45/90 66/31/91 68/33/92
f 28/28/93 27/30/94 94/46/95 95/47/96
f 29/26/97 28/28/98 95/47/99 96/48/100
f 30/24/101 29/26/102 96/48/103 97/49/104
f 31/22/105 30/24/106 97/49/107 98/50/108
f 32/20/109 31/22/110 98/50/111 99/51/112
f 33/17/113 32/20/114 99/51/115 86/52/116
f 34/18/117 33/17/118 86/52/119 87/53/120
f 35/12/121 82/14/122 88/54/123 89/55/124
f 36/10/125 35/12/126 89/55/127 90/56/128
f 37/8/129 36/10/130 90/56/131 91/57/132
f 38/6/133 37/8/134 91/57/135 92/58/136
f 39/3/137 38/6/138 92/58/139 93/59/140
f 27/4/141 39/3/142 93/59/143 94/60/144
f 2/61/145 1/62/146 40/63/147 41/64/148
f 3/65/149 2/61/150 41/64/151 42/66/152
f 4/67/153 3/65/154 42/66/155 43/68/156
f 5/69/157 4/67/158 43/68/159 44/70/160
f 6/71/161 5/69/162 44/70/163 45/72/164
f 81/73/165 6/71/166 45/72/167 80/74/168
f 8/75/169 7/76/170 46/77/171 47/78/172
f 9/79/173 8/75/174 47/78/175 48/80/176
f 10/81/177 9/79/178 48/80/179 49/82/180
f 11/83/181 10/81/182 49/82/183 50/84/184
f 12/85/185 11/83/186 50/84/187 51/86/188
f 13/87/189 12/85/190 51/86/191 52/88/192
f 1/62/193 13/87/194 52/88/195 40/63/196
f 14/89/197 15/90/198 54/91/199 53/92/200
f 15/90/201 16/93/202 55/94/203 54/91/204
f 16/93/205 17/95/206 56/96/207 55/94/208
f 17/95/209 18/97/210 57/98/211 56/96/212
f 18/97/213 19/99/214 58/100/215 57/98/216
f 19/99/217 83/101/218 84/102/219 58/100/220
f 20/103/221 21/104/222 60/105/223 59/106/224
f 21/104/225 22/107/226 61/108/227 60/105/228
f 22/107/229 23/109/230 62/110/231 61/108/232
f 23/109/233 24/111/234 63/112/235 62/110/236
f 24/111/237 25/113/238 64/114/239 63/112/240
f 25/113/241 26/115/242 65/116/243 64/114/244
f 26/115/245 14/89/246 53/92/247 65/116/248
f 53/92/249 54/91/250 67/32/251 66/31/252
f 54/91/253 55/94/254 69/34/255 67/32/256
f 55/94/257 56/96/258 70/35/259 69/34/260
f 56/96/261 57/98/262 71/36/263 70/35/264
f 57/98/265 58/100/266 72/37/267 71/36/268
f 58/100/269 84/102/270 85/38/271 72/37/272
f 59/106/273 60/105/274 74/40/275 73/39/276
f 60/105/277 61/108/278 75/41/279 74/40/280
f 61/108/281 62/110/282 76/42/283 75/41/284
f 62/110/285 63/112/286 77/43/287 76/42/288
f 63/112/289 64/114/290 78/44/291 77/43/292
f 64/114/293 65/116/294 79/45/295 78/44/296
f 65/116/297 53/92/298 66/31/299 79/45/300
f 7/76/301 81/73/302 80/74/303 46/77/304
f 82/14/305 81/13/306 7/15/307 34/18/308
f 88/54/309 82/14/310 34/18/311 87/53/312
f 84/102/313 83/101/314 20/103/315 59/106/316
f 85/38/317 84/102/318 59/106/319 73/39/320
f 87/53/321 86/52/322 21/117/323 20/118/324
f 83/119/325 88/54/326 87/53/327 20/118/328
f 89/55/329 88/54/330 83/119/331 19/120/332
f 90/56/333 89/55/334 19/120/335 18/121/336
f 91/57/337 90/56/338 18/121/339 17/122/340
f 92/58/341 91/57/342 17/122/343 16/123/344
f 93/59/345 92/58/346 16/123/347 15/124/348
f 94/60/349 93/59/350 15/124/351 14/125/352
f 95/47/353 94/46/354 14/126/355 26/127/356
f 96/48/357 95/47/358 26/127/359 25/128/360
f 97/49/361 96/48/362 25/128/363 24/129/364
f 98/50/365 97/49/366 24/129/367 23/130/368
f 99/51/369 98/50/370 23/130/371 22/131/372
f 86/52/373 99/51/374 22/131/375 21/117/376
usemtl bathroom_sink_base_2_initialShadingGroup2
f 100/132/377 101/133/378 103/134/379 102/135/380
