# This file uses centimeters as units for non-parametric coordinates.

mtllib bathroom_sink_basin_1.mtl
v 4.416155 0.245445 -4.195763
v -4.416152 0.245445 -4.195763
v -4.416152 0.245445 -1.717324
v -3.978819 0.245445 2.025764
v -2.753429 0.245445 3.562357
v -0.982688 0.245445 4.415100
v 0.982688 0.245445 4.415100
v 2.753429 0.245445 3.562357
v 3.978819 0.245445 2.025764
v 4.416155 0.245445 -1.717324
v 4.416155 2.558703 -4.195763
v -4.416152 2.558703 -4.195763
v -4.416152 2.558703 -1.717324
v -3.978819 2.245445 2.025764
v -2.753429 2.245445 3.562357
v -0.982688 2.245445 4.415100
v 0.982688 2.245445 4.415100
v 2.753429 2.245445 3.562357
v 3.978819 2.245445 2.025764
v 4.416155 2.558703 -1.717324
v 0.000000 2.558703 -2.740659
v -4.040159 2.245445 -1.333751
v -3.616147 2.245445 1.747134
v 0.000000 2.245445 -2.357086
v -2.480845 2.245445 3.166875
v -0.884778 2.245445 3.931180
v 0.884778 2.245445 3.931180
v 2.480845 2.245445 3.166875
v 3.616147 2.245445 1.747134
v 4.040160 2.245445 -1.333751
v -2.669057 0.445507 -0.440376
v -2.388942 0.445507 1.594954
v 0.000000 0.445507 -1.463711
v -1.638925 0.445507 2.532880
v -0.584512 0.445507 3.037804
v 0.584513 0.445507 3.037804
v 1.638926 0.445507 2.532881
v 2.388942 0.445507 1.594955
v 2.669059 0.445507 -0.440376
v -3.213008 0.077319 -1.714461
v -3.325942 0.044817 1.319249
v -2.261549 0.041467 2.645664
v -0.805914 0.041204 3.338403
v 0.805914 0.041204 3.338403
v 2.261549 0.041467 2.645664
v 3.325942 0.044817 1.319248
v 3.213010 0.077319 -1.714461
v -2.685402 0.058691 -3.718120
v 2.685405 0.058691 -3.718120
v -2.436342 -0.210069 -1.700203
v -2.804543 -0.262395 0.799990
v 0.000000 -0.442557 -1.725572
v -1.895271 -0.269601 1.945349
v -0.672853 -0.270318 2.520026
v 0.672853 -0.270317 2.520026
v 1.895271 -0.269601 1.945349
v 2.804543 -0.262395 0.799990
v 2.436344 -0.210069 -1.700203
v -1.708433 -0.242373 -3.345612
v 1.708436 -0.242373 -3.345612
v -2.355658 0.062253 -0.357700
v -2.094518 0.062253 1.202365
v 0.000000 0.062253 -1.093987
v -1.423483 0.062253 2.025432
v -0.506794 0.062253 2.459895
v 0.506794 0.062253 2.459895
v 1.423484 0.062253 2.025432
v 2.094519 0.062253 1.202365
v 2.355659 0.062253 -0.357699
v -0.596228 0.062253 -0.239332
v -0.520012 0.062253 0.056956
v 0.000000 0.062253 -0.613398
v -0.342572 0.062252 0.360480
v -0.120673 0.062253 0.510776
v 0.120674 0.062253 0.510776
v 0.342573 0.062254 0.360480
v 0.520013 0.062253 0.056957
v 0.596228 0.062253 -0.239332
v 0.421054 -0.915813 0.000000
v 0.379357 -0.915813 -0.182689
v 0.262523 -0.915813 -0.329194
v 0.093693 -0.915813 -0.410498
v -0.093693 -0.915813 -0.410498
v -0.262523 -0.915813 -0.329194
v -0.379357 -0.915813 -0.182689
v -0.421054 -0.915813 0.000000
v -0.379357 -0.915813 0.182689
v -0.262523 -0.915813 0.329194
v -0.093693 -0.915813 0.410498
v 0.093694 -0.915813 0.410498
v 0.262523 -0.915813 0.329194
v 0.379357 -0.915813 0.182688
v 0.421054 0.084187 0.000000
v 0.379357 0.084187 -0.182689
v 0.262523 0.084187 -0.329194
v 0.093693 0.084187 -0.410498
v -0.093693 0.084187 -0.410498
v -0.262523 0.084187 -0.329194
v -0.379357 0.084187 -0.182689
v -0.421054 0.084187 0.000000
v -0.379357 0.084187 0.182689
v -0.262523 0.084187 0.329194
v -0.093693 0.084187 0.410498
v 0.093694 0.084187 0.410498
v 0.262523 0.084187 0.329194
v 0.379357 0.084187 0.182688
v 0.704842 0.067768 0.000000
v 0.635041 0.067768 -0.305820
v 0.439462 0.067768 -0.551067
v 0.156842 0.067768 -0.687170
v -0.156842 0.067768 -0.687170
v -0.439462 0.067768 -0.551067
v -0.635041 0.067768 -0.305819
v -0.704842 0.067768 0.000000
v -0.635041 0.067768 0.305820
v -0.439462 0.067768 0.551067
v -0.156842 0.067768 0.687170
v 0.156842 0.067768 0.687170
v 0.439462 0.067768 0.551067
v 0.635041 0.067768 0.305819
vt 0.090023 0.075095
vt 0.092737 0.075095
vt 0.092737 0.132235
vt 0.090023 0.132235
vt 0.100879 0.132235
vt 0.100879 0.075095
vt 0.103593 0.075095
vt 0.103593 0.132235
vt 0.106308 0.075095
vt 0.106308 0.132235
vt 0.109022 0.075095
vt 0.109022 0.132235
vt 0.111736 0.075095
vt 0.111736 0.132235
vt 0.114450 0.075095
vt 0.114450 0.132235
vt 0.117164 0.075095
vt 0.117164 0.132235
vt 0.119878 0.075095
vt 0.119878 0.132235
vt 0.082197 0.061650
vt 0.079845 0.051346
vt 0.103593 0.050396
vt 0.088786 0.069914
vt 0.098309 0.074500
vt 0.108878 0.074500
vt 0.118400 0.069914
vt 0.124990 0.061650
vt 0.127342 0.051346
vt 0.098309 0.028193
vt 0.108878 0.028193
vt 0.103593 0.154891
vt 0.127342 0.155841
vt 0.108878 0.178994
vt 0.098309 0.178994
vt 0.079845 0.155841
vt 0.082197 0.145536
vt 0.082197 0.145536
vt 0.079845 0.155841
vt 0.103593 0.154891
vt 0.088786 0.137273
vt 0.088786 0.137273
vt 0.098309 0.132687
vt 0.098309 0.132687
vt 0.108878 0.132687
vt 0.108878 0.132687
vt 0.118400 0.137273
vt 0.118400 0.137273
vt 0.124990 0.145536
vt 0.124990 0.145536
vt 0.127342 0.155841
vt 0.082197 0.145536
vt 0.079845 0.155841
vt 0.103593 0.154891
vt 0.088786 0.137273
vt 0.098309 0.132687
vt 0.108878 0.132687
vt 0.118400 0.137273
vt 0.124990 0.145536
vt 0.127342 0.155841
vt 0.082197 0.061650
vt 0.079845 0.051346
vt 0.079845 0.051346
vt 0.082197 0.061650
vt 0.088786 0.069914
vt 0.088786 0.069914
vt 0.098309 0.074500
vt 0.098309 0.074500
vt 0.108878 0.074500
vt 0.108878 0.074500
vt 0.118400 0.069914
vt 0.118400 0.069914
vt 0.124990 0.061650
vt 0.124990 0.061650
vt 0.127342 0.051346
vt 0.127342 0.051346
vt 0.098309 0.028193
vt 0.098309 0.028193
vt 0.108878 0.028193
vt 0.108878 0.028193
vt 0.082197 0.145536
vt 0.079845 0.155841
vt 0.103593 0.154891
vt 0.088786 0.137273
vt 0.098309 0.132687
vt 0.108878 0.132687
vt 0.118400 0.137273
vt 0.124990 0.145536
vt 0.127342 0.155841
vt 0.082197 0.145536
vt 0.079845 0.155841
vt 0.103593 0.154891
vt 0.088786 0.137273
vt 0.098309 0.132687
vt 0.108878 0.132687
vt 0.118400 0.137273
vt 0.124990 0.145536
vt 0.127342 0.155841
vt 0.229300 0.325982
vt 0.218063 0.325982
vt 0.218063 0.286653
vt 0.229300 0.286653
vt 0.240537 0.325982
vt 0.240537 0.286653
vt 0.251774 0.325982
vt 0.251774 0.286653
vt 0.263011 0.325982
vt 0.263011 0.286653
vt 0.274248 0.325982
vt 0.274248 0.286653
vt 0.285485 0.325982
vt 0.285485 0.286653
vt 0.296722 0.325982
vt 0.296722 0.286653
vt 0.307959 0.325982
vt 0.307959 0.286653
vt 0.319196 0.325982
vt 0.319196 0.286653
vt 0.330433 0.325982
vt 0.330433 0.286653
vt 0.341670 0.325982
vt 0.341670 0.286653
vt 0.352907 0.325982
vt 0.352907 0.286653
vt 0.364144 0.325982
vt 0.364144 0.286653
vt 0.375381 0.325982
vt 0.375381 0.286653
vt 0.218063 0.247324
vt 0.229300 0.247324
vt 0.240537 0.247324
vt 0.251774 0.247324
vt 0.263011 0.247324
vt 0.274248 0.247324
vt 0.285485 0.247324
vt 0.296722 0.247324
vt 0.307959 0.247324
vt 0.319196 0.247324
vt 0.330433 0.247324
vt 0.341670 0.247324
vt 0.352907 0.247324
vt 0.364144 0.247324
vt 0.375381 0.247324
vn 0.000000 0.000000 -1.000000
vn 0.000000 0.000000 -1.000000
vn 0.000000 0.000000 -1.000000
vn 0.000000 0.000000 -1.000000
vn -1.000000 0.000000 0.000000
vn -1.000000 0.000000 0.000000
vn -1.000000 0.000000 0.000000
vn -1.000000 0.000000 0.000000
vn -0.993244 0.000000 0.116048
vn -0.956631 0.000000 0.291303
vn -0.958458 0.000000 0.285234
vn -0.993244 0.000000 0.116048
vn -0.956631 0.000000 0.291303
vn -0.623490 0.000000 0.781831
vn -0.623490 0.000000 0.781831
vn -0.958458 0.000000 0.285234
vn -0.623490 0.000000 0.781831
vn -0.222521 0.000000 0.974928
vn -0.222521 0.000000 0.974928
vn -0.623490 0.000000 0.781831
vn -0.222521 0.000000 0.974928
vn 0.222520 0.000000 0.974928
vn 0.222520 0.000000 0.974928
vn -0.222521 0.000000 0.974928
vn 0.222520 0.000000 0.974928
vn 0.623490 0.000000 0.781831
vn 0.623490 0.000000 0.781831
vn 0.222520 0.000000 0.974928
vn 0.623490 0.000000 0.781831
vn 0.956631 0.000000 0.291303
vn 0.958458 0.000000 0.285234
vn 0.623490 0.000000 0.781831
vn 0.956631 0.000000 0.291303
vn 0.993244 0.000000 0.116049
vn 0.993244 0.000000 0.116049
vn 0.958458 0.000000 0.285234
vn 1.000000 0.000000 0.000000
vn 1.000000 0.000000 0.000000
vn 1.000000 0.000000 0.000000
vn 1.000000 0.000000 0.000000
vn -0.230131 -0.972962 0.019627
vn -0.145225 -0.987598 -0.059667
vn 0.000000 -0.999035 -0.043920
vn -0.108871 -0.985748 0.128252
vn -0.230131 -0.972962 0.019627
vn 0.000000 -0.999035 -0.043920
vn -0.035575 -0.987374 0.154360
vn -0.108871 -0.985748 0.128252
vn 0.000000 -0.999035 -0.043920
vn 0.035576 -0.987374 0.154360
vn -0.035575 -0.987374 0.154360
vn 0.000000 -0.999035 -0.043920
vn 0.108871 -0.985748 0.128252
vn 0.035576 -0.987374 0.154360
vn 0.000000 -0.999035 -0.043920
vn 0.230131 -0.972962 0.019627
vn 0.108871 -0.985748 0.128252
vn 0.000000 -0.999035 -0.043920
vn 0.145225 -0.987598 -0.059667
vn 0.230131 -0.972962 0.019627
vn 0.000000 -0.999035 -0.043920
vn -0.145225 -0.987598 -0.059667
vn -0.051008 -0.996334 -0.068683
vn 0.051008 -0.996334 -0.068683
vn 0.145225 -0.987598 -0.059667
vn 0.000000 -0.999035 -0.043920
vn 0.000000 0.997457 0.071266
vn -0.028706 0.998059 0.055268
vn 0.000000 1.000000 0.000000
vn 0.000000 1.000000 0.000000
vn 0.028706 0.998059 0.055268
vn 0.028706 0.998059 0.055268
vn 0.202862 0.979200 -0.003704
vn 0.267186 0.963633 -0.004878
vn 0.256513 0.895966 0.362554
vn 0.000000 0.997457 0.071266
vn 0.028706 0.998059 0.055268
vn 0.256513 0.895966 0.362554
vn 0.000000 0.807656 0.589654
vn 0.202862 0.979200 -0.003704
vn 0.000000 1.000000 0.000001
vn 0.000000 1.000000 0.000001
vn 0.267186 0.963633 -0.004878
vn 0.000000 1.000000 0.000001
vn 0.000000 1.000000 0.000001
vn 0.000000 1.000000 0.000001
vn 0.000000 1.000000 0.000001
vn 0.000000 1.000000 0.000001
vn 0.000000 1.000000 0.000000
vn 0.000000 1.000000 0.000000
vn 0.000000 1.000000 0.000001
vn 0.000000 1.000000 0.000000
vn 0.000000 1.000000 0.000000
vn 0.000000 1.000000 0.000000
vn 0.000000 1.000000 0.000000
vn 0.000000 1.000000 0.000000
vn -0.202862 0.979200 -0.003704
vn -0.267186 0.963633 -0.004878
vn 0.000000 1.000000 0.000000
vn -0.202862 0.979200 -0.003704
vn -0.028706 0.998059 0.055268
vn -0.256512 0.895966 0.362555
vn -0.267186 0.963633 -0.004878
vn -0.028706 0.998059 0.055268
vn 0.000000 0.997457 0.071266
vn 0.000000 0.807656 0.589654
vn -0.256512 0.895966 0.362555
vn 0.816551 0.566229 -0.112379
vn 0.816551 0.566229 -0.112379
vn 0.760361 0.580997 -0.290332
vn 0.811089 0.573992 -0.112557
vn 0.000000 0.522327 0.852745
vn 0.251754 0.505503 0.825280
vn 0.253428 0.510750 0.821528
vn 0.000000 0.530381 0.847759
vn 0.674037 0.505132 -0.538996
vn 0.555712 0.495164 -0.667830
vn 0.508200 0.551479 -0.661516
vn 0.760361 0.580997 -0.290332
vn 0.555712 0.495164 -0.667830
vn 0.202496 0.462271 -0.863308
vn 0.181118 0.536459 -0.824262
vn 0.508200 0.551479 -0.661516
vn 0.202496 0.462271 -0.863308
vn -0.202496 0.462272 -0.863308
vn -0.181118 0.536459 -0.824262
vn 0.181118 0.536459 -0.824262
vn -0.202496 0.462272 -0.863308
vn -0.555711 0.495164 -0.667830
vn -0.508200 0.551479 -0.661516
vn -0.181118 0.536459 -0.824262
vn -0.555711 0.495164 -0.667830
vn -0.674036 0.505131 -0.538997
vn -0.760361 0.580997 -0.290332
vn -0.508200 0.551479 -0.661516
vn -0.816551 0.566229 -0.112379
vn -0.816551 0.566229 -0.112379
vn -0.811089 0.573991 -0.112557
vn -0.760361 0.580997 -0.290332
vn -0.251754 0.505503 0.825280
vn 0.000000 0.522327 0.852745
vn 0.000000 0.530381 0.847759
vn -0.253428 0.510750 0.821528
vn -0.177840 -0.981635 0.069036
vn -0.153858 -0.988088 -0.003047
vn -0.226647 -0.973657 -0.024966
vn -0.234039 -0.970595 0.056319
vn -0.116573 -0.981045 0.154797
vn -0.177840 -0.981635 0.069036
vn -0.234039 -0.970595 0.056319
vn -0.159548 -0.966837 0.199427
vn -0.039051 -0.982835 0.180305
vn -0.116573 -0.981045 0.154797
vn -0.159548 -0.966837 0.199427
vn -0.053169 -0.970332 0.235859
vn 0.039051 -0.982835 0.180306
vn -0.039051 -0.982835 0.180305
vn -0.053169 -0.970332 0.235859
vn 0.053169 -0.970332 0.235859
vn 0.116573 -0.981045 0.154798
vn 0.039051 -0.982835 0.180306
vn 0.053169 -0.970332 0.235859
vn 0.159548 -0.966837 0.199427
vn 0.177840 -0.981635 0.069036
vn 0.116573 -0.981045 0.154798
vn 0.159548 -0.966837 0.199427
vn 0.234039 -0.970595 0.056319
vn 0.153858 -0.988088 -0.003046
vn 0.177840 -0.981635 0.069036
vn 0.234039 -0.970595 0.056319
vn 0.226647 -0.973657 -0.024965
vn -0.153858 -0.988088 -0.003047
vn -0.096752 -0.992171 -0.078962
vn -0.075618 -0.965921 -0.247544
vn -0.226647 -0.973657 -0.024966
vn -0.096752 -0.992171 -0.078962
vn 0.096752 -0.992171 -0.078962
vn 0.075618 -0.965921 -0.247544
vn -0.075618 -0.965921 -0.247544
vn 0.096752 -0.992171 -0.078962
vn 0.153858 -0.988088 -0.003046
vn 0.226647 -0.973657 -0.024965
vn 0.075618 -0.965921 -0.247544
vn -0.234039 -0.970595 0.056319
vn -0.226647 -0.973657 -0.024966
vn -0.145225 -0.987598 -0.059667
vn -0.230131 -0.972962 0.019627
vn -0.159548 -0.966837 0.199427
vn -0.234039 -0.970595 0.056319
vn -0.230131 -0.972962 0.019627
vn -0.108871 -0.985748 0.128252
vn -0.053169 -0.970332 0.235859
vn -0.159548 -0.966837 0.199427
vn -0.108871 -0.985748 0.128252
vn -0.035575 -0.987374 0.154360
vn 0.053169 -0.970332 0.235859
vn -0.053169 -0.970332 0.235859
vn -0.035575 -0.987374 0.154360
vn 0.035576 -0.987374 0.154360
vn 0.159548 -0.966837 0.199427
vn 0.053169 -0.970332 0.235859
vn 0.035576 -0.987374 0.154360
vn 0.108871 -0.985748 0.128252
vn 0.234039 -0.970595 0.056319
vn 0.159548 -0.966837 0.199427
vn 0.108871 -0.985748 0.128252
vn 0.230131 -0.972962 0.019627
vn 0.226647 -0.973657 -0.024965
vn 0.234039 -0.970595 0.056319
vn 0.230131 -0.972962 0.019627
vn 0.145225 -0.987598 -0.059667
vn -0.226647 -0.973657 -0.024966
vn -0.075618 -0.965921 -0.247544
vn -0.051008 -0.996334 -0.068683
vn -0.145225 -0.987598 -0.059667
vn -0.075618 -0.965921 -0.247544
vn 0.075618 -0.965921 -0.247544
vn 0.000000 -0.777746 -0.628579
vn 0.000000 -0.777746 -0.628579
vn 0.075618 -0.965921 -0.247544
vn 0.226647 -0.973657 -0.024965
vn 0.145225 -0.987598 -0.059667
vn 0.051008 -0.996334 -0.068683
vn 0.811089 0.573992 -0.112557
vn 0.760361 0.580997 -0.290332
vn 0.679284 0.703469 -0.209057
vn 0.755559 0.645130 -0.113743
vn 0.000000 0.530381 0.847759
vn 0.253428 0.510750 0.821528
vn 0.271762 0.569137 0.776034
vn 0.271762 0.569137 0.776034
vn 0.760361 0.580997 -0.290332
vn 0.508200 0.551479 -0.661516
vn 0.379942 0.807556 -0.451107
vn 0.679284 0.703469 -0.209057
vn 0.508200 0.551479 -0.661516
vn 0.181118 0.536459 -0.824262
vn 0.126764 0.833936 -0.537105
vn 0.379942 0.807556 -0.451107
vn 0.181118 0.536459 -0.824262
vn -0.181118 0.536459 -0.824262
vn -0.126764 0.833936 -0.537105
vn 0.126764 0.833936 -0.537105
vn -0.181118 0.536459 -0.824262
vn -0.508200 0.551479 -0.661516
vn -0.379942 0.807556 -0.451107
vn -0.126764 0.833936 -0.537105
vn -0.508200 0.551479 -0.661516
vn -0.760361 0.580997 -0.290332
vn -0.679284 0.703469 -0.209057
vn -0.379942 0.807556 -0.451107
vn -0.760361 0.580997 -0.290332
vn -0.811089 0.573991 -0.112557
vn -0.755559 0.645130 -0.113743
vn -0.679284 0.703469 -0.209057
vn -0.253428 0.510750 0.821528
vn 0.000000 0.530381 0.847759
vn -0.271762 0.569138 0.776033
vn -0.271762 0.569138 0.776033
vn 0.000000 1.000000 -0.000001
vn 0.000000 1.000000 0.000000
vn 0.000000 1.000000 0.000000
vn 0.000000 1.000000 -0.000001
vn 0.000000 1.000000 0.000001
vn 0.000000 1.000000 -0.000001
vn 0.000000 1.000000 -0.000001
vn 0.000000 1.000000 0.000001
vn 0.000000 1.000000 0.000000
vn 0.000000 1.000000 0.000000
vn 0.000000 1.000000 0.000000
vn 0.000000 1.000000 0.000000
vn 0.000000 1.000000 0.000000
vn -0.000000 1.000000 -0.000001
vn -0.000000 1.000000 -0.000001
vn 0.000000 1.000000 0.000000
vn -0.000000 1.000000 -0.000001
vn 0.000000 1.000000 0.000000
vn 0.000000 1.000000 0.000000
vn -0.000000 1.000000 -0.000001
vn 0.000000 1.000000 0.000000
vn 0.000000 1.000000 0.000001
vn 0.000000 1.000000 0.000001
vn 0.000000 1.000000 0.000000
vn 0.000000 1.000000 0.000001
vn 0.000000 1.000000 0.000000
vn 0.000000 1.000000 0.000000
vn 0.000000 1.000000 0.000001
vn 0.000000 1.000000 0.000000
vn 0.000000 1.000000 -0.000001
vn 0.000000 1.000000 0.000000
vn 0.000000 1.000000 0.000000
vn 0.000000 1.000000 -0.000001
vn 0.000000 1.000000 0.000001
vn 0.000000 1.000000 0.000001
vn 0.000000 1.000000 0.000000
vn -0.900969 0.000000 0.433884
vn -1.000000 0.000000 -0.000000
vn -1.000000 0.000000 -0.000000
vn -0.900969 0.000000 0.433884
vn -0.623490 0.000000 0.781832
vn -0.900969 0.000000 0.433884
vn -0.900969 0.000000 0.433884
vn -0.623490 0.000000 0.781832
vn -0.222521 0.000000 0.974928
vn -0.623490 0.000000 0.781832
vn -0.623490 0.000000 0.781832
vn -0.222521 0.000000 0.974928
vn 0.222521 0.000000 0.974928
vn -0.222521 0.000000 0.974928
vn -0.222521 0.000000 0.974928
vn 0.222521 0.000000 0.974928
vn 0.623490 0.000000 0.781831
vn 0.222521 0.000000 0.974928
vn 0.222521 0.000000 0.974928
vn 0.623490 0.000000 0.781831
vn 0.900969 0.000000 0.433883
vn 0.623490 0.000000 0.781831
vn 0.623490 0.000000 0.781831
vn 0.900969 0.000000 0.433883
vn 1.000000 0.000000 0.000000
vn 0.900969 0.000000 0.433883
vn 0.900969 0.000000 0.433883
vn 1.000000 0.000000 0.000000
vn 0.900969 0.000000 -0.433884
vn 1.000000 0.000000 0.000000
vn 1.000000 0.000000 0.000000
vn 0.900969 0.000000 -0.433884
vn 0.623490 0.000000 -0.781831
vn 0.900969 0.000000 -0.433884
vn 0.900969 0.000000 -0.433884
vn 0.623490 0.000000 -0.781831
vn 0.222521 0.000000 -0.974928
vn 0.623490 0.000000 -0.781831
vn 0.623490 0.000000 -0.781831
vn 0.222521 0.000000 -0.974928
vn -0.222521 0.000000 -0.974928
vn 0.222521 0.000000 -0.974928
vn 0.222521 0.000000 -0.974928
vn -0.222521 0.000000 -0.974928
vn -0.623491 0.000000 -0.781831
vn -0.222521 0.000000 -0.974928
vn -0.222521 0.000000 -0.974928
vn -0.623491 0.000000 -0.781831
vn -0.900969 0.000000 -0.433883
vn -0.623491 0.000000 -0.781831
vn -0.623491 0.000000 -0.781831
vn -0.900969 0.000000 -0.433883
vn -1.000000 0.000000 -0.000000
vn -0.900969 0.000000 -0.433883
vn -0.900969 0.000000 -0.433883
vn -1.000000 0.000000 -0.000000
vn 0.052041 0.998330 -0.025064
vn 0.057761 0.998330 -0.000002
vn 0.057761 0.998330 -0.000002
vn 0.052041 0.998330 -0.025064
vn 0.036014 0.998330 -0.045161
vn 0.052041 0.998330 -0.025064
vn 0.052041 0.998330 -0.025064
vn 0.036014 0.998330 -0.045160
vn 0.012853 0.998330 -0.056317
vn 0.036014 0.998330 -0.045161
vn 0.036014 0.998330 -0.045160
vn 0.012853 0.998330 -0.056317
vn -0.012853 0.998330 -0.056316
vn 0.012853 0.998330 -0.056317
vn 0.012853 0.998330 -0.056317
vn -0.012853 0.998330 -0.056316
vn -0.036014 0.998330 -0.045160
vn -0.012853 0.998330 -0.056316
vn -0.012853 0.998330 -0.056316
vn -0.036014 0.998330 -0.045160
vn -0.052041 0.998330 -0.025062
vn -0.036014 0.998330 -0.045160
vn -0.036014 0.998330 -0.045160
vn -0.052041 0.998330 -0.025062
vn -0.057761 0.998330 0.000000
vn -0.052041 0.998330 -0.025062
vn -0.052041 0.998330 -0.025062
vn -0.057761 0.998330 -0.000000
vn -0.052041 0.998330 0.025065
vn -0.057761 0.998330 0.000000
vn -0.057761 0.998330 -0.000000
vn -0.052041 0.998330 0.025065
vn -0.036014 0.998330 0.045160
vn -0.052041 0.998330 0.025065
vn -0.052041 0.998330 0.025065
vn -0.036014 0.998330 0.045160
vn -0.012853 0.998331 0.056311
vn -0.036014 0.998330 0.045160
vn -0.036014 0.998330 0.045160
vn -0.012853 0.998331 0.056311
vn 0.012853 0.998331 0.056311
vn -0.012853 0.998331 0.056311
vn -0.012853 0.998331 0.056311
vn 0.012853 0.998331 0.056311
vn 0.036014 0.998331 0.045157
vn 0.012853 0.998331 0.056311
vn 0.012853 0.998331 0.056311
vn 0.036014 0.998331 0.045157
vn 0.052041 0.998330 0.025062
vn 0.036014 0.998331 0.045157
vn 0.036014 0.998331 0.045157
vn 0.052041 0.998330 0.025062
vn 0.057761 0.998330 -0.000002
vn 0.052041 0.998330 0.025062
vn 0.052041 0.998330 0.025062
vn 0.057761 0.998330 -0.000002
s off
usemtl bathroom_sink_basin_1_initialShadingGroup
f 1/1/1 2/2/2 12/3/3 11/4/4
f 13/5/5 12/3/6 2/2/7 3/6/8
f 3/6/9 4/7/10 14/8/11 13/5/12
f 4/7/13 5/9/14 15/10/15 14/8/16
f 5/9/17 6/11/18 16/12/19 15/10/20
f 6/11/21 7/13/22 17/14/23 16/12/24
f 7/13/25 8/15/26 18/16/27 17/14/28
f 8/15/29 9/17/30 19/18/31 18/16/32
f 9/17/33 10/19/34 20/20/35 19/18/36
f 11/4/37 20/20/38 10/19/39 1/1/40
f 51/21/41 50/22/42 52/23/43
f 53/24/44 51/21/45 52/23/46
f 54/25/47 53/24/48 52/23/49
f 55/26/50 54/25/51 52/23/52
f 56/27/53 55/26/54 52/23/55
f 57/28/56 56/27/57 52/23/58
f 58/29/59 57/28/60 52/23/61
f 50/22/62 59/30/63 60/31/64 58/29/65 52/23/66
f 21/32/67 20/33/68 11/34/69 12/35/70 13/36/71
f 13/36/72 14/37/73 23/38/74 22/39/75
f 21/32/76 13/36/77 22/39/78 24/40/79
f 14/37/80 15/41/81 25/42/82 23/38/83
f 15/41/84 16/43/85 26/44/86 25/42/87
f 16/43/88 17/45/89 27/46/90 26/44/91
f 17/45/92 18/47/93 28/48/94 27/46/95
f 18/47/96 19/49/97 29/50/98 28/48/99
f 19/49/100 20/33/101 30/51/102 29/50/103
f 20/33/104 21/32/105 24/40/106 30/51/107
f 22/39/108 23/38/109 32/52/110 31/53/111
f 24/40/112 22/39/113 31/53/114 33/54/115
f 23/38/116 25/42/117 34/55/118 32/52/119
f 25/42/120 26/44/121 35/56/122 34/55/123
f 26/44/124 27/46/125 36/57/126 35/56/127
f 27/46/128 28/48/129 37/58/130 36/57/131
f 28/48/132 29/50/133 38/59/134 37/58/135
f 29/50/136 30/51/137 39/60/138 38/59/139
f 30/51/140 24/40/141 33/54/142 39/60/143
f 4/61/144 3/62/145 40/63/146 41/64/147
f 5/65/148 4/61/149 41/64/150 42/66/151
f 6/67/152 5/65/153 42/66/154 43/68/155
f 7/69/156 6/67/157 43/68/158 44/70/159
f 8/71/160 7/69/161 44/70/162 45/72/163
f 9/73/164 8/71/165 45/72/166 46/74/167
f 10/75/168 9/73/169 46/74/170 47/76/171
f 3/62/172 2/77/173 48/78/174 40/63/175
f 2/77/176 1/79/177 49/80/178 48/78/179
f 1/79/180 10/75/181 47/76/182 49/80/183
f 41/64/184 40/63/185 50/22/186 51/21/187
f 42/66/188 41/64/189 51/21/190 53/24/191
f 43/68/192 42/66/193 53/24/194 54/25/195
f 44/70/196 43/68/197 54/25/198 55/26/199
f 45/72/200 44/70/201 55/26/202 56/27/203
f 46/74/204 45/72/205 56/27/206 57/28/207
f 47/76/208 46/74/209 57/28/210 58/29/211
f 40/63/212 48/78/213 59/30/214 50/22/215
f 48/78/216 49/80/217 60/31/218 59/30/219
f 49/80/220 47/76/221 58/29/222 60/31/223
f 31/53/224 32/52/225 62/81/226 61/82/227
f 33/54/228 31/53/229 61/82/230 63/83/231
f 32/52/232 34/55/233 64/84/234 62/81/235
f 34/55/236 35/56/237 65/85/238 64/84/239
f 35/56/240 36/57/241 66/86/242 65/85/243
f 36/57/244 37/58/245 67/87/246 66/86/247
f 37/58/248 38/59/249 68/88/250 67/87/251
f 38/59/252 39/60/253 69/89/254 68/88/255
f 39/60/256 33/54/257 63/83/258 69/89/259
f 61/82/260 62/81/261 71/90/262 70/91/263
f 63/83/264 61/82/265 70/91/266 72/92/267
f 62/81/268 64/84/269 73/93/270 71/90/271
f 64/84/272 65/85/273 74/94/274 73/93/275
f 65/85/276 66/86/277 75/95/278 74/94/279
f 66/86/280 67/87/281 76/96/282 75/95/283
f 67/87/284 68/88/285 77/97/286 76/96/287
f 68/88/288 69/89/289 78/98/290 77/97/291
f 69/89/292 63/83/293 72/92/294 78/98/295
f 80/99/296 79/100/297 93/101/298 94/102/299
f 81/103/300 80/99/301 94/102/302 95/104/303
f 82/105/304 81/103/305 95/104/306 96/106/307
f 83/107/308 82/105/309 96/106/310 97/108/311
f 84/109/312 83/107/313 97/108/314 98/110/315
f 85/111/316 84/109/317 98/110/318 99/112/319
f 86/113/320 85/111/321 99/112/322 100/114/323
f 87/115/324 86/113/325 100/114/326 101/116/327
f 88/117/328 87/115/329 101/116/330 102/118/331
f 89/119/332 88/117/333 102/118/334 103/120/335
f 90/121/336 89/119/337 103/120/338 104/122/339
f 91/123/340 90/121/341 104/122/342 105/124/343
f 92/125/344 91/123/345 105/124/346 106/126/347
f 79/127/348 92/125/349 106/126/350 93/128/351
f 94/102/352 93/101/353 107/129/354 108/130/355
f 95/104/356 94/102/357 108/130/358 109/131/359
f 96/106/360 95/104/361 109/131/362 110/132/363
f 97/108/364 96/106/365 110/132/366 111/133/367
f 98/110/368 97/108/369 111/133/370 112/134/371
f 99/112/372 98/110/373 112/134/374 113/135/375
f 100/114/376 99/112/377 113/135/378 114/136/379
f 101/116/380 100/114/381 114/136/382 115/137/383
f 102/118/384 101/116/385 115/137/386 116/138/387
f 103/120/388 102/118/389 116/138/390 117/139/391
f 104/122/392 103/120/393 117/139/394 118/140/395
f 105/124/396 104/122/397 118/140/398 119/141/399
f 106/126/400 105/124/401 119/141/402 120/142/403
f 93/128/404 106/126/405 120/142/406 107/143/407
