# This file uses centimeters as units for non-parametric coordinates.

mtllib bookshelf_4_case_1.mtl
v -13.909965 -0.000000 3.803549
v 13.909965 -0.000000 3.803549
v -13.909965 33.995329 3.803549
v 13.909965 33.995329 3.803549
v -13.909965 33.995329 -3.803549
v 13.909965 33.995329 -3.803549
v -13.909965 -0.000000 -3.803549
v 13.909965 -0.000000 -3.803549
v 12.720887 33.995329 3.803549
v 12.720887 33.995329 -3.803549
v 12.720887 -0.000000 -3.803549
v 12.720887 -0.000000 3.803549
v -12.720890 33.995329 3.803549
v -12.720890 33.995329 -3.803549
v -12.720890 -0.000000 -3.803549
v -12.720890 -0.000000 3.803549
v -13.909965 32.809847 3.803549
v -13.909965 32.809847 -3.803549
v -12.720890 32.809847 -3.803549
v 12.720887 32.809847 -3.803549
v 13.909965 32.809847 -3.803549
v 13.909965 32.809847 3.803549
v 12.720887 32.809847 3.803549
v -12.720890 32.809847 3.803549
v -13.909965 1.185477 3.803549
v -13.909965 1.185477 -3.803549
v -12.720890 1.185477 -3.803549
v 12.720887 1.185477 -3.803549
v 13.909965 1.185477 -3.803549
v 13.909965 1.185477 3.803549
v 12.720887 1.185477 3.803549
v -12.720890 1.185477 3.803549
v -12.720890 1.185477 -2.895019
v -12.720890 32.809847 -2.895019
v 12.720887 1.185477 -2.895019
v 12.720887 32.809847 -2.895019
vt 0.375000 0.000000
vt 0.625000 0.000000
vt 0.375000 0.250000
vt 0.625000 0.250000
vt 0.375000 0.500000
vt 0.625000 0.500000
vt 0.375000 0.750000
vt 0.625000 0.750000
vt 0.375000 1.000000
vt 0.625000 1.000000
vt 0.875000 0.000000
vt 0.875000 0.250000
vt 0.125000 0.000000
vt 0.125000 0.250000
vt 0.541667 0.250000
vt 0.541667 0.500000
vt 0.541667 0.750000
vt 0.541667 0.000000
vt 0.541667 1.000000
vt 0.458333 0.250000
vt 0.458333 0.500000
vt 0.458333 0.750000
vt 0.458333 0.000000
vt 0.458333 1.000000
vt 0.375000 0.166667
vt 0.125000 0.166667
vt 0.375000 0.583333
vt 0.458333 0.583333
vt 0.541667 0.583333
vt 0.625000 0.583333
vt 0.875000 0.166667
vt 0.625000 0.166667
vt 0.541667 0.166667
vt 0.458333 0.166667
vt 0.375000 0.083333
vt 0.125000 0.083333
vt 0.375000 0.666667
vt 0.458333 0.666667
vt 0.541667 0.666667
vt 0.625000 0.666667
vt 0.875000 0.083333
vt 0.625000 0.083333
vt 0.541667 0.083333
vt 0.458333 0.083333
vt 0.458333 0.166667
vt 0.458333 0.083333
vt 0.541667 0.083333
vt 0.541667 0.166667
vn 0.000000 0.000000 1.000000
vn 0.000000 0.000000 1.000000
vn 0.000000 0.000000 1.000000
vn 0.000000 0.000000 1.000000
vn 0.000000 1.000000 0.000000
vn 0.000000 1.000000 0.000000
vn 0.000000 1.000000 0.000000
vn 0.000000 1.000000 0.000000
vn 0.000000 0.000000 -1.000000
vn 0.000000 0.000000 -1.000000
vn 0.000000 0.000000 -1.000000
vn 0.000000 0.000000 -1.000000
vn 0.000000 -1.000000 0.000000
vn 0.000000 -1.000000 0.000000
vn 0.000000 -1.000000 0.000000
vn 0.000000 -1.000000 0.000000
vn 1.000000 0.000000 0.000000
vn 1.000000 0.000000 0.000000
vn 1.000000 0.000000 0.000000
vn 1.000000 0.000000 0.000000
vn -1.000000 0.000000 0.000000
vn -1.000000 0.000000 0.000000
vn -1.000000 0.000000 0.000000
vn -1.000000 0.000000 0.000000
vn 0.000000 1.000000 0.000000
vn 0.000000 1.000000 0.000000
vn 0.000000 1.000000 0.000000
vn 0.000000 1.000000 0.000000
vn 0.000000 0.000000 -1.000000
vn 0.000000 0.000000 -1.000000
vn 0.000000 0.000000 -1.000000
vn 0.000000 0.000000 -1.000000
vn 0.000000 -1.000000 0.000000
vn 0.000000 -1.000000 0.000000
vn 0.000000 -1.000000 0.000000
vn 0.000000 -1.000000 0.000000
vn 0.000000 0.000000 1.000000
vn 0.000000 0.000000 1.000000
vn 0.000000 0.000000 1.000000
vn 0.000000 0.000000 1.000000
vn -1.000000 0.000000 0.000000
vn -1.000000 0.000000 0.000000
vn -1.000000 0.000000 0.000000
vn -1.000000 0.000000 0.000000
vn 0.000000 0.000000 -1.000000
vn 0.000000 0.000000 -1.000000
vn 0.000000 0.000000 -1.000000
vn 0.000000 0.000000 -1.000000
vn 0.000000 0.000000 -1.000000
vn 0.000000 0.000000 -1.000000
vn 0.000000 0.000000 -1.000000
vn 0.000000 0.000000 -1.000000
vn 1.000000 0.000000 0.000000
vn 1.000000 0.000000 0.000000
vn 1.000000 0.000000 0.000000
vn 1.000000 0.000000 0.000000
vn 0.000000 0.000000 1.000000
vn 0.000000 0.000000 1.000000
vn 0.000000 0.000000 1.000000
vn 0.000000 0.000000 1.000000
vn 0.000000 0.000000 1.000000
vn 0.000000 0.000000 1.000000
vn 0.000000 0.000000 1.000000
vn 0.000000 0.000000 1.000000
vn 0.000000 0.000000 1.000000
vn 0.000000 0.000000 1.000000
vn 0.000000 0.000000 1.000000
vn 0.000000 0.000000 1.000000
vn 1.000000 0.000000 0.000000
vn 1.000000 0.000000 0.000000
vn 1.000000 0.000000 0.000000
vn 1.000000 0.000000 0.000000
vn 0.000000 1.000000 0.000000
vn 0.000000 1.000000 0.000000
vn 0.000000 1.000000 0.000000
vn 0.000000 1.000000 0.000000
vn -1.000000 0.000000 0.000000
vn -1.000000 0.000000 0.000000
vn -1.000000 0.000000 0.000000
vn -1.000000 0.000000 0.000000
vn 0.000000 -1.000000 0.000000
vn 0.000000 -1.000000 0.000000
vn 0.000000 -1.000000 0.000000
vn 0.000000 -1.000000 0.000000
s 1
usemtl initialShadingGroup
f 1/1/1 16/23/2 32/44/3 25/35/4
s 2
f 3/3/5 13/20/6 14/21/7 5/5/8
s 3
f 26/37/9 27/38/10 15/22/11 7/7/12
s 4
f 7/7/13 15/22/14 16/24/15 1/9/16
s 5
f 2/2/17 8/11/18 29/41/19 30/42/20
s 6
f 7/13/21 1/1/22 25/35/23 26/36/24
s 2
f 9/15/25 4/4/26 6/6/27 10/16/28
s 3
f 11/17/29 28/39/30 29/40/31 8/8/32
s 4
f 12/19/33 11/17/34 8/8/35 2/10/36
s 1
f 31/43/37 12/18/38 2/2/39 30/42/40
s 2
f 13/20/6 9/15/25 10/16/28 14/21/7
s 3
f 15/22/11 27/38/10 28/39/30 11/17/29
s 4
f 16/24/15 15/22/14 11/17/34 12/19/33
s 1
f 32/44/3 16/23/2 12/18/38 31/43/37
s 6
f 18/26/41 17/25/42 3/3/43 5/14/44
s 3
f 5/5/45 14/21/46 19/28/47 18/27/48
f 20/29/49 19/28/47 14/21/46 10/16/50
f 21/30/51 20/29/49 10/16/50 6/6/52
s 5
f 22/32/53 21/31/54 6/12/55 4/4/56
s 1
f 9/15/57 23/33/58 22/32/59 4/4/60
f 13/20/61 24/34/62 23/33/58 9/15/57
f 17/25/63 24/34/62 13/20/61 3/3/64
s 6
f 26/36/24 25/35/23 17/25/42 18/26/41
s 3
f 18/27/48 19/28/47 27/38/10 26/37/9
f 28/39/30 27/38/10 19/28/47 20/29/49
f 29/40/31 28/39/30 20/29/49 21/30/51
s 5
f 30/42/20 29/41/19 21/31/54 22/32/53
s 1
f 23/33/58 31/43/37 30/42/40 22/32/59
s off
f 34/45/65 33/46/66 35/47/67 36/48/68
s 1
f 25/35/4 32/44/3 24/34/62 17/25/63
s off
f 24/34/69 32/44/70 33/46/71 34/45/72
f 32/44/73 31/43/74 35/47/75 33/46/76
f 31/43/77 23/33/78 36/48/79 35/47/80
f 23/33/81 24/34/82 34/45/83 36/48/84
