# This file uses centimeters as units for non-parametric coordinates.

mtllib bookshelf_4_case_1.mtl
v -13.909965 0.000000 3.803549
v 13.909965 0.000000 3.803549
v -13.909965 33.995331 3.803549
v 13.909965 33.995331 3.803549
v -13.909965 33.995331 -3.803549
v 13.909965 33.995331 -3.803549
v -13.909965 0.000000 -3.803549
v 13.909965 0.000000 -3.803549
v 12.720887 33.995331 3.803549
v 12.720887 33.995331 -3.803549
v 12.720887 0.000000 -3.803549
v 12.720887 0.000000 3.803549
v -12.720890 33.995331 3.803549
v -12.720890 33.995331 -3.803549
v -12.720890 0.000000 -3.803549
v -12.720890 0.000000 3.803549
v -13.909965 32.809849 3.803549
v -13.909965 32.809849 -3.803549
v -12.720890 32.809849 -3.803549
v 12.720887 32.809849 -3.803549
v 13.909965 32.809849 -3.803549
v 13.909965 32.809849 3.803549
v 12.720887 32.809849 3.803549
v -12.720890 32.809849 3.803549
v -13.909965 1.185477 3.803549
v -13.909965 1.185477 -3.803549
v -12.720890 1.185477 -3.803549
v 12.720887 1.185477 -3.803549
v 13.909965 1.185477 -3.803549
v 13.909965 1.185477 3.803549
v 12.720887 1.185477 3.803549
v -12.720890 1.185477 3.803549
v -12.720890 1.185477 -2.895019
v -12.720890 32.809849 -2.895019
v 12.720887 1.185477 -2.895019
v 12.720887 32.809849 -2.895019
v -12.720890 27.656507 3.803549
v -13.909965 27.656507 3.803549
v -13.909965 27.656507 -3.803549
v -12.720890 27.656507 -3.803549
v 12.720887 27.656507 -3.803549
v 13.909965 27.656507 -3.803549
v 13.909965 27.656507 3.803549
v 12.720887 27.656507 3.803549
v 12.720887 27.656507 -2.895019
v -12.720890 27.656507 -2.895019
v -12.720890 27.004189 3.803549
v -13.909965 27.004189 3.803549
v -13.909965 27.004189 -3.803549
v -12.720890 27.004189 -3.803549
v 12.720887 27.004189 -3.803549
v 13.909965 27.004189 -3.803549
v 13.909965 27.004189 3.803549
v 12.720887 27.004189 3.803549
v 12.720887 27.004189 -2.895019
v -12.720890 27.004189 -2.895019
v -12.720890 21.107300 3.803549
v -13.909965 21.107300 3.803549
v -13.909965 21.107300 -3.803549
v -12.720890 21.107300 -3.803549
v 12.720887 21.107300 -3.803549
v 13.909965 21.107300 -3.803549
v 13.909965 21.107300 3.803549
v 12.720887 21.107300 3.803549
v 12.720887 21.107300 -2.895019
v -12.720890 21.107300 -2.895019
v -12.720890 20.470287 3.803549
v -13.909965 20.470287 3.803549
v -13.909965 20.470287 -3.803549
v -12.720890 20.470287 -3.803549
v 12.720887 20.470287 -3.803549
v 13.909965 20.470287 -3.803549
v 13.909965 20.470287 3.803549
v 12.720887 20.470287 3.803549
v 12.720887 20.470287 -2.895019
v -12.720890 20.470287 -2.895019
v -12.720890 14.718925 3.803549
v -13.909965 14.718925 3.803549
v -13.909965 14.718925 -3.803549
v -12.720890 14.718925 -3.803549
v 12.720887 14.718925 -3.803549
v 13.909965 14.718925 -3.803549
v 13.909965 14.718925 3.803549
v 12.720887 14.718925 3.803549
v 12.720887 14.718925 -2.895019
v -12.720890 14.718925 -2.895019
v -12.720890 13.921225 3.803549
v -13.909965 13.921225 3.803549
v -13.909965 13.921225 -3.803549
v -12.720890 13.921225 -3.803549
v 12.720887 13.921225 -3.803549
v 13.909965 13.921225 -3.803549
v 13.909965 13.921225 3.803549
v 12.720887 13.921225 3.803549
v 12.720887 13.921225 -2.895019
v -12.720890 13.921225 -2.895019
v -12.720890 8.478299 3.803549
v -13.909965 8.478299 3.803549
v -13.909965 8.478299 -3.803549
v -12.720890 8.478299 -3.803549
v 12.720887 8.478299 -3.803549
v 13.909965 8.478299 -3.803549
v 13.909965 8.478299 3.803549
v 12.720887 8.478299 3.803549
v 12.720887 8.478299 -2.895019
v -12.720890 8.478299 -2.895019
v -12.720890 7.425011 3.803549
v -13.909965 7.425011 3.803549
v -13.909965 7.425011 -3.803549
v -12.720890 7.425011 -3.803549
v 12.720887 7.425011 -3.803549
v 13.909965 7.425011 -3.803549
v 13.909965 7.425011 3.803549
v 12.720887 7.425011 3.803549
v 12.720887 7.425011 -2.895019
v -12.720890 7.425011 -2.895019
vt 0.375000 0.000000
vt 0.458333 0.000000
vt 0.458333 0.083333
vt 0.375000 0.083333
vt 0.375000 0.250000
vt 0.458333 0.250000
vt 0.458333 0.500000
vt 0.375000 0.500000
vt 0.375000 0.666667
vt 0.458333 0.666667
vt 0.458333 0.750000
vt 0.375000 0.750000
vt 0.458333 1.000000
vt 0.375000 1.000000
vt 0.625000 0.000000
vt 0.875000 0.000000
vt 0.875000 0.083333
vt 0.625000 0.083333
vt 0.125000 0.000000
vt 0.125000 0.083333
vt 0.541667 0.250000
vt 0.625000 0.250000
vt 0.625000 0.500000
vt 0.541667 0.500000
vt 0.541667 0.750000
vt 0.541667 0.666667
vt 0.625000 0.666667
vt 0.625000 0.750000
vt 0.541667 1.000000
vt 0.625000 1.000000
vt 0.541667 0.083333
vt 0.541667 0.000000
vt 0.125000 0.166667
vt 0.375000 0.166667
vt 0.125000 0.250000
vt 0.458333 0.583333
vt 0.375000 0.583333
vt 0.541667 0.583333
vt 0.625000 0.583333
vt 0.625000 0.166667
vt 0.875000 0.166667
vt 0.875000 0.250000
vt 0.541667 0.166667
vt 0.458333 0.166667
vt 0.458333 0.166667
vt 0.458333 0.083333
vt 0.541667 0.083333
vt 0.541667 0.166667
vt 0.458333 0.153087
vt 0.375000 0.153087
vt 0.125000 0.153087
vt 0.375000 0.596913
vt 0.458333 0.596913
vt 0.541667 0.596913
vt 0.625000 0.596913
vt 0.875000 0.153087
vt 0.625000 0.153087
vt 0.541667 0.153087
vt 0.541667 0.153087
vt 0.458333 0.153087
vt 0.458333 0.151368
vt 0.375000 0.151368
vt 0.125000 0.151368
vt 0.375000 0.598632
vt 0.458333 0.598632
vt 0.541667 0.598632
vt 0.625000 0.598632
vt 0.875000 0.151368
vt 0.625000 0.151368
vt 0.541667 0.151368
vt 0.541667 0.151368
vt 0.458333 0.151368
vt 0.458333 0.135829
vt 0.375000 0.135829
vt 0.125000 0.135829
vt 0.375000 0.614171
vt 0.458333 0.614171
vt 0.541667 0.614171
vt 0.625000 0.614171
vt 0.875000 0.135829
vt 0.625000 0.135829
vt 0.541667 0.135829
vt 0.541667 0.135829
vt 0.458333 0.135829
vt 0.458333 0.134151
vt 0.375000 0.134151
vt 0.125000 0.134151
vt 0.375000 0.615849
vt 0.458333 0.615849
vt 0.541667 0.615849
vt 0.625000 0.615849
vt 0.875000 0.134151
vt 0.625000 0.134151
vt 0.541667 0.134151
vt 0.541667 0.134151
vt 0.458333 0.134151
vt 0.458333 0.118995
vt 0.375000 0.118995
vt 0.125000 0.118995
vt 0.375000 0.631005
vt 0.458333 0.631005
vt 0.541667 0.631005
vt 0.625000 0.631005
vt 0.875000 0.118995
vt 0.625000 0.118995
vt 0.541667 0.118995
vt 0.541667 0.118995
vt 0.458333 0.118995
vt 0.458333 0.116893
vt 0.375000 0.116893
vt 0.125000 0.116893
vt 0.375000 0.633107
vt 0.458333 0.633107
vt 0.541667 0.633107
vt 0.625000 0.633107
vt 0.875000 0.116893
vt 0.625000 0.116893
vt 0.541667 0.116893
vt 0.541667 0.116893
vt 0.458333 0.116893
vt 0.458333 0.102550
vt 0.375000 0.102550
vt 0.125000 0.102550
vt 0.375000 0.647450
vt 0.458333 0.647450
vt 0.541667 0.647450
vt 0.625000 0.647450
vt 0.875000 0.102550
vt 0.625000 0.102550
vt 0.541667 0.102550
vt 0.541667 0.102550
vt 0.458333 0.102550
vt 0.458333 0.099775
vt 0.375000 0.099775
vt 0.125000 0.099775
vt 0.375000 0.650225
vt 0.458333 0.650225
vt 0.541667 0.650225
vt 0.625000 0.650225
vt 0.875000 0.099775
vt 0.625000 0.099775
vt 0.541667 0.099775
vt 0.541667 0.099775
vt 0.458333 0.099775
vn 0.000000 0.000000 1.000000
vn 0.000000 0.000000 1.000000
vn 0.000000 0.000000 1.000000
vn 0.000000 0.000000 1.000000
vn 0.000000 1.000000 0.000000
vn 0.000000 1.000000 0.000000
vn 0.000000 1.000000 0.000000
vn 0.000000 1.000000 0.000000
vn 0.000000 0.000000 -1.000000
vn 0.000000 0.000000 -1.000000
vn 0.000000 0.000000 -1.000000
vn 0.000000 0.000000 -1.000000
vn 0.000000 -1.000000 0.000000
vn 0.000000 -1.000000 0.000000
vn 0.000000 -1.000000 0.000000
vn 0.000000 -1.000000 0.000000
vn 1.000000 0.000000 0.000000
vn 1.000000 0.000000 0.000000
vn 1.000000 0.000000 0.000000
vn 1.000000 0.000000 0.000000
vn -1.000000 0.000000 0.000000
vn -1.000000 0.000000 0.000000
vn -1.000000 0.000000 0.000000
vn -1.000000 0.000000 0.000000
vn 0.000000 1.000000 0.000000
vn 0.000000 1.000000 0.000000
vn 0.000000 1.000000 0.000000
vn 0.000000 1.000000 0.000000
vn 0.000000 0.000000 -1.000000
vn 0.000000 0.000000 -1.000000
vn 0.000000 0.000000 -1.000000
vn 0.000000 0.000000 -1.000000
vn 0.000000 -1.000000 0.000000
vn 0.000000 -1.000000 0.000000
vn 0.000000 -1.000000 0.000000
vn 0.000000 -1.000000 0.000000
vn 0.000000 0.000000 1.000000
vn 0.000000 0.000000 1.000000
vn 0.000000 0.000000 1.000000
vn 0.000000 0.000000 1.000000
vn 0.000000 1.000000 0.000000
vn 0.000000 1.000000 0.000000
vn 0.000000 1.000000 0.000000
vn 0.000000 1.000000 0.000000
vn 0.000000 0.000000 -1.000000
vn 0.000000 0.000000 -1.000000
vn 0.000000 0.000000 -1.000000
vn 0.000000 0.000000 -1.000000
vn 0.000000 -1.000000 0.000000
vn 0.000000 -1.000000 0.000000
vn 0.000000 -1.000000 0.000000
vn 0.000000 -1.000000 0.000000
vn 0.000000 0.000000 1.000000
vn 0.000000 0.000000 1.000000
vn 0.000000 0.000000 1.000000
vn 0.000000 0.000000 1.000000
vn -1.000000 0.000000 0.000000
vn -1.000000 0.000000 0.000000
vn -1.000000 0.000000 0.000000
vn -1.000000 0.000000 0.000000
vn 0.000000 0.000000 -1.000000
vn 0.000000 0.000000 -1.000000
vn 0.000000 0.000000 -1.000000
vn 0.000000 0.000000 -1.000000
vn 0.000000 0.000000 -1.000000
vn 0.000000 0.000000 -1.000000
vn 0.000000 0.000000 -1.000000
vn 0.000000 0.000000 -1.000000
vn 0.000000 0.000000 -1.000000
vn 0.000000 0.000000 -1.000000
vn 0.000000 0.000000 -1.000000
vn 0.000000 0.000000 -1.000000
vn 1.000000 0.000000 0.000000
vn 1.000000 0.000000 0.000000
vn 1.000000 0.000000 0.000000
vn 1.000000 0.000000 0.000000
vn 0.000000 0.000000 1.000000
vn 0.000000 0.000000 1.000000
vn 0.000000 0.000000 1.000000
vn 0.000000 0.000000 1.000000
vn 0.000000 0.000000 1.000000
vn 0.000000 0.000000 1.000000
vn 0.000000 0.000000 1.000000
vn 0.000000 0.000000 1.000000
vn 0.000000 0.000000 1.000000
vn 0.000000 0.000000 1.000000
vn 0.000000 0.000000 1.000000
vn 0.000000 0.000000 1.000000
vn -1.000000 0.000000 0.000000
vn -1.000000 0.000000 0.000000
vn -1.000000 0.000000 0.000000
vn -1.000000 0.000000 0.000000
vn 0.000000 -0.000000 -1.000000
vn 0.000000 -0.000000 -1.000000
vn 0.000000 -0.000000 -1.000000
vn 0.000000 -0.000000 -1.000000
vn 0.000000 -0.000000 -1.000000
vn 0.000000 -0.000000 -1.000000
vn 0.000000 -0.000000 -1.000000
vn 0.000000 -0.000000 -1.000000
vn 0.000000 -0.000000 -1.000000
vn 0.000000 -0.000000 -1.000000
vn 0.000000 -0.000000 -1.000000
vn 0.000000 -0.000000 -1.000000
vn 1.000000 0.000000 0.000000
vn 1.000000 0.000000 0.000000
vn 1.000000 0.000000 0.000000
vn 1.000000 0.000000 0.000000
vn 0.000000 -0.000000 1.000000
vn 0.000000 -0.000000 1.000000
vn 0.000000 -0.000000 1.000000
vn 0.000000 -0.000000 1.000000
vn 0.000000 0.000000 1.000000
vn 0.000000 0.000000 1.000000
vn 0.000000 0.000000 1.000000
vn 0.000000 0.000000 1.000000
vn 0.000000 -0.000000 1.000000
vn 0.000000 -0.000000 1.000000
vn 0.000000 -0.000000 1.000000
vn 0.000000 -0.000000 1.000000
vn 1.000000 0.000000 0.000000
vn 1.000000 0.000000 0.000000
vn 1.000000 0.000000 0.000000
vn 1.000000 0.000000 0.000000
vn 0.000000 1.000000 0.000000
vn 0.000000 1.000000 0.000000
vn 0.000000 1.000000 0.000000
vn 0.000000 1.000000 0.000000
vn -1.000000 0.000000 0.000000
vn -1.000000 0.000000 0.000000
vn -1.000000 0.000000 0.000000
vn -1.000000 0.000000 0.000000
vn 0.000000 -1.000000 0.000000
vn 0.000000 -1.000000 0.000000
vn 0.000000 -1.000000 0.000000
vn 0.000000 -1.000000 0.000000
vn 0.000000 0.000000 1.000000
vn 0.000000 0.000000 1.000000
vn 0.000000 0.000000 1.000000
vn 0.000000 0.000000 1.000000
vn -1.000000 -0.000000 0.000000
vn -1.000000 -0.000000 0.000000
vn -1.000000 -0.000000 0.000000
vn -1.000000 -0.000000 0.000000
vn 0.000000 0.000000 -1.000000
vn 0.000000 0.000000 -1.000000
vn 0.000000 0.000000 -1.000000
vn 0.000000 0.000000 -1.000000
vn 0.000000 0.000000 -1.000000
vn 0.000000 0.000000 -1.000000
vn 0.000000 0.000000 -1.000000
vn 0.000000 0.000000 -1.000000
vn 0.000000 0.000000 -1.000000
vn 0.000000 0.000000 -1.000000
vn 0.000000 0.000000 -1.000000
vn 0.000000 0.000000 -1.000000
vn 1.000000 -0.000000 0.000000
vn 1.000000 -0.000000 0.000000
vn 1.000000 -0.000000 0.000000
vn 1.000000 -0.000000 0.000000
vn 0.000000 0.000000 1.000000
vn 0.000000 0.000000 1.000000
vn 0.000000 0.000000 1.000000
vn 0.000000 0.000000 1.000000
vn -1.000000 0.000000 0.000000
vn -1.000000 0.000000 0.000000
vn -1.000000 0.000000 0.000000
vn -1.000000 0.000000 0.000000
vn 0.000000 0.000000 1.000000
vn 0.000000 0.000000 1.000000
vn 0.000000 0.000000 1.000000
vn 0.000000 0.000000 1.000000
vn 1.000000 0.000000 0.000000
vn 1.000000 0.000000 0.000000
vn 1.000000 0.000000 0.000000
vn 1.000000 0.000000 0.000000
vn 0.000000 0.000000 1.000000
vn 0.000000 0.000000 1.000000
vn -1.000000 0.000000 0.000000
vn -1.000000 0.000000 0.000000
vn 0.000000 0.000000 -1.000000
vn 0.000000 0.000000 -1.000000
vn 0.000000 0.000000 -1.000000
vn 0.000000 0.000000 -1.000000
vn 0.000000 0.000000 -1.000000
vn 0.000000 0.000000 -1.000000
vn 1.000000 0.000000 0.000000
vn 1.000000 0.000000 0.000000
vn 0.000000 0.000000 1.000000
vn 0.000000 0.000000 1.000000
vn 0.000000 0.000000 1.000000
vn 0.000000 0.000000 1.000000
vn -1.000000 0.000000 0.000000
vn -1.000000 0.000000 0.000000
vn 0.000000 0.000000 -1.000000
vn 0.000000 0.000000 -1.000000
vn 0.000000 0.000000 -1.000000
vn 0.000000 0.000000 -1.000000
vn 0.000000 0.000000 -1.000000
vn 0.000000 0.000000 -1.000000
vn 1.000000 0.000000 0.000000
vn 1.000000 0.000000 0.000000
vn 0.000000 0.000000 1.000000
vn 0.000000 0.000000 1.000000
vn -1.000000 0.000000 0.000000
vn -1.000000 0.000000 0.000000
vn -1.000000 0.000000 0.000000
vn -1.000000 0.000000 0.000000
vn 0.000000 0.000000 1.000000
vn 0.000000 0.000000 1.000000
vn 0.000000 0.000000 1.000000
vn 0.000000 0.000000 1.000000
vn 1.000000 0.000000 0.000000
vn 1.000000 0.000000 0.000000
vn 1.000000 0.000000 0.000000
vn 1.000000 0.000000 0.000000
vn 0.000000 0.000000 1.000000
vn 0.000000 0.000000 1.000000
vn -1.000000 0.000000 0.000000
vn -1.000000 0.000000 0.000000
vn 0.000000 0.000000 -1.000000
vn 0.000000 0.000000 -1.000000
vn 0.000000 0.000000 -1.000000
vn 0.000000 0.000000 -1.000000
vn 0.000000 0.000000 -1.000000
vn 0.000000 0.000000 -1.000000
vn 1.000000 0.000000 0.000000
vn 1.000000 0.000000 0.000000
vn 0.000000 0.000000 1.000000
vn 0.000000 0.000000 1.000000
vn 0.000000 0.000000 1.000000
vn 0.000000 0.000000 1.000000
vn -1.000000 0.000000 0.000000
vn -1.000000 0.000000 0.000000
vn 0.000000 0.000000 -1.000000
vn 0.000000 0.000000 -1.000000
vn 0.000000 0.000000 -1.000000
vn 0.000000 0.000000 -1.000000
vn 0.000000 0.000000 -1.000000
vn 0.000000 0.000000 -1.000000
vn 1.000000 0.000000 0.000000
vn 1.000000 0.000000 0.000000
vn 0.000000 0.000000 1.000000
vn 0.000000 0.000000 1.000000
vn -1.000000 0.000000 0.000000
vn -1.000000 0.000000 0.000000
vn -1.000000 0.000000 0.000000
vn -1.000000 0.000000 0.000000
vn 0.000000 0.000000 1.000000
vn 0.000000 0.000000 1.000000
vn 0.000000 0.000000 1.000000
vn 0.000000 0.000000 1.000000
vn 1.000000 0.000000 0.000000
vn 1.000000 0.000000 0.000000
vn 1.000000 0.000000 0.000000
vn 1.000000 0.000000 0.000000
vn 0.000000 0.000000 1.000000
vn 0.000000 0.000000 1.000000
vn -1.000000 0.000000 0.000000
vn -1.000000 0.000000 0.000000
vn 0.000000 0.000000 -1.000000
vn 0.000000 0.000000 -1.000000
vn 0.000000 0.000000 -1.000000
vn 0.000000 0.000000 -1.000000
vn 0.000000 0.000000 -1.000000
vn 0.000000 0.000000 -1.000000
vn 1.000000 0.000000 0.000000
vn 1.000000 0.000000 0.000000
vn 0.000000 0.000000 1.000000
vn 0.000000 0.000000 1.000000
vn 0.000000 0.000000 1.000000
vn 0.000000 0.000000 1.000000
vn -1.000000 0.000000 0.000000
vn -1.000000 0.000000 0.000000
vn 0.000000 0.000000 -1.000000
vn 0.000000 0.000000 -1.000000
vn 0.000000 0.000000 -1.000000
vn 0.000000 0.000000 -1.000000
vn 0.000000 0.000000 -1.000000
vn 0.000000 0.000000 -1.000000
vn 1.000000 0.000000 0.000000
vn 1.000000 0.000000 0.000000
vn 0.000000 0.000000 1.000000
vn 0.000000 0.000000 1.000000
vn -1.000000 0.000000 0.000000
vn -1.000000 0.000000 0.000000
vn -1.000000 0.000000 0.000000
vn -1.000000 0.000000 0.000000
vn 0.000000 0.000000 1.000000
vn 0.000000 0.000000 1.000000
vn 0.000000 0.000000 1.000000
vn 0.000000 0.000000 1.000000
vn 1.000000 0.000000 0.000000
vn 1.000000 0.000000 0.000000
vn 1.000000 0.000000 0.000000
vn 1.000000 0.000000 0.000000
vn 0.000000 1.000000 0.000000
vn 0.000000 1.000000 0.000000
vn 0.000000 1.000000 0.000000
vn 0.000000 1.000000 0.000000
vn 0.000000 -1.000000 0.000000
vn 0.000000 -1.000000 0.000000
vn 0.000000 -1.000000 0.000000
vn 0.000000 -1.000000 0.000000
vn 0.000000 0.000000 1.000000
vn 0.000000 0.000000 1.000000
vn 0.000000 0.000000 1.000000
vn 0.000000 0.000000 1.000000
vn 0.000000 1.000000 0.000000
vn 0.000000 1.000000 0.000000
vn 0.000000 1.000000 0.000000
vn 0.000000 1.000000 0.000000
vn 0.000000 -1.000000 0.000000
vn 0.000000 -1.000000 0.000000
vn 0.000000 -1.000000 0.000000
vn 0.000000 -1.000000 0.000000
vn 0.000000 0.000000 1.000000
vn 0.000000 0.000000 1.000000
vn 0.000000 0.000000 1.000000
vn 0.000000 0.000000 1.000000
vn 0.000000 1.000000 0.000000
vn 0.000000 1.000000 0.000000
vn 0.000000 1.000000 0.000000
vn 0.000000 1.000000 0.000000
vn 0.000000 -1.000000 0.000000
vn 0.000000 -1.000000 0.000000
vn 0.000000 -1.000000 0.000000
vn 0.000000 -1.000000 0.000000
vn 0.000000 0.000000 1.000000
vn 0.000000 0.000000 1.000000
vn 0.000000 0.000000 1.000000
vn 0.000000 0.000000 1.000000
vn 0.000000 1.000000 0.000000
vn 0.000000 1.000000 0.000000
vn 0.000000 1.000000 0.000000
vn 0.000000 1.000000 0.000000
vn 0.000000 -1.000000 0.000000
vn 0.000000 -1.000000 0.000000
vn 0.000000 -1.000000 0.000000
vn 0.000000 -1.000000 0.000000
vn 0.000000 0.000000 1.000000
vn 0.000000 0.000000 1.000000
vn 0.000000 0.000000 1.000000
vn 0.000000 0.000000 1.000000
s off
usemtl initialShadingGroup
f 1/1/1 16/2/2 32/3/3 25/4/4
f 3/5/5 13/6/6 14/7/7 5/8/8
f 26/9/9 27/10/10 15/11/11 7/12/12
f 7/12/13 15/11/14 16/13/15 1/14/16
f 2/15/17 8/16/18 29/17/19 30/18/20
f 7/19/21 1/1/22 25/4/23 26/20/24
f 9/21/25 4/22/26 6/23/27 10/24/28
f 11/25/29 28/26/30 29/27/31 8/28/32
f 12/29/33 11/25/34 8/28/35 2/30/36
f 31/31/37 12/32/38 2/15/39 30/18/40
f 13/6/41 9/21/42 10/24/43 14/7/44
f 15/11/45 27/10/46 28/26/47 11/25/48
f 16/13/49 15/11/50 11/25/51 12/29/52
f 32/3/53 16/2/54 12/32/55 31/31/56
f 18/33/57 17/34/58 3/5/59 5/35/60
f 5/8/61 14/7/62 19/36/63 18/37/64
f 20/38/65 19/36/66 14/7/67 10/24/68
f 21/39/69 20/38/70 10/24/71 6/23/72
f 22/40/73 21/41/74 6/42/75 4/22/76
f 9/21/77 23/43/78 22/40/79 4/22/80
f 13/6/81 24/44/82 23/43/83 9/21/84
f 17/34/85 24/44/86 13/6/87 3/5/88
s 1
f 26/20/89 25/4/90 108/134/91 109/135/92
s 2
f 109/136/93 110/137/94 27/10/95 26/9/96
s 3
f 28/26/97 27/10/98 110/137/99 111/138/100
s 4
f 29/27/101 28/26/102 111/138/103 112/139/104
s 5
f 30/18/105 29/17/106 112/140/107 113/141/108
s 6
f 114/142/109 31/31/110 30/18/111 113/141/112
s off
f 116/144/113 33/46/114 35/47/115 115/143/116
s 7
f 25/4/117 32/3/118 107/133/119 108/134/120
s off
f 116/144/121 107/133/122 32/3/123 33/46/124
f 32/3/125 31/31/126 35/47/127 33/46/128
f 31/31/129 114/142/130 115/143/131 35/47/132
f 23/43/133 24/44/134 34/45/135 36/48/136
s 7
f 38/50/137 37/49/138 24/44/139 17/34/140
s 1
f 39/51/141 38/50/142 17/34/143 18/33/144
s 2
f 18/37/145 19/36/146 40/53/147 39/52/148
s 3
f 41/54/149 40/53/150 19/36/151 20/38/152
s 4
f 42/55/153 41/54/154 20/38/155 21/39/156
s 5
f 43/57/157 42/56/158 21/41/159 22/40/160
s 6
f 23/43/161 44/58/162 43/57/163 22/40/164
s off
f 45/59/165 44/58/166 23/43/167 36/48/168
f 34/45/169 46/60/170 45/59/171 36/48/172
f 24/44/173 37/49/174 46/60/175 34/45/176
s 7
f 48/62/177 47/61/178 37/49/138 38/50/137
s 1
f 49/63/179 48/62/180 38/50/142 39/51/141
s 2
f 39/52/148 40/53/147 50/65/181 49/64/182
s 3
f 51/66/183 50/65/184 40/53/150 41/54/149
s 4
f 52/67/185 51/66/186 41/54/154 42/55/153
s 5
f 53/69/187 52/68/188 42/56/158 43/57/157
s 6
f 44/58/162 54/70/189 53/69/190 43/57/163
s 7
f 58/74/191 57/73/192 47/61/178 48/62/177
s 1
f 59/75/193 58/74/194 48/62/180 49/63/179
s 2
f 49/64/182 50/65/181 60/77/195 59/76/196
s 3
f 61/78/197 60/77/198 50/65/184 51/66/183
s 4
f 62/79/199 61/78/200 51/66/186 52/67/185
s 5
f 63/81/201 62/80/202 52/68/188 53/69/187
s 6
f 54/70/189 64/82/203 63/81/204 53/69/190
s off
f 65/83/205 64/82/206 54/70/207 55/71/208
f 56/72/209 66/84/210 65/83/211 55/71/212
f 56/72/213 47/61/214 57/73/215 66/84/216
s 7
f 68/86/217 67/85/218 57/73/192 58/74/191
s 1
f 69/87/219 68/86/220 58/74/194 59/75/193
s 2
f 59/76/196 60/77/195 70/89/221 69/88/222
s 3
f 71/90/223 70/89/224 60/77/198 61/78/197
s 4
f 72/91/225 71/90/226 61/78/200 62/79/199
s 5
f 73/93/227 72/92/228 62/80/202 63/81/201
s 6
f 64/82/203 74/94/229 73/93/230 63/81/204
s 7
f 78/98/231 77/97/232 67/85/218 68/86/217
s 1
f 79/99/233 78/98/234 68/86/220 69/87/219
s 2
f 69/88/222 70/89/221 80/101/235 79/100/236
s 3
f 81/102/237 80/101/238 70/89/224 71/90/223
s 4
f 82/103/239 81/102/240 71/90/226 72/91/225
s 5
f 83/105/241 82/104/242 72/92/228 73/93/227
s 6
f 74/94/229 84/106/243 83/105/244 73/93/230
s off
f 85/107/245 84/106/246 74/94/247 75/95/248
f 76/96/249 86/108/250 85/107/251 75/95/252
f 76/96/253 67/85/254 77/97/255 86/108/256
s 7
f 88/110/257 87/109/258 77/97/232 78/98/231
s 1
f 89/111/259 88/110/260 78/98/234 79/99/233
s 2
f 79/100/236 80/101/235 90/113/261 89/112/262
s 3
f 91/114/263 90/113/264 80/101/238 81/102/237
s 4
f 92/115/265 91/114/266 81/102/240 82/103/239
s 5
f 93/117/267 92/116/268 82/104/242 83/105/241
s 6
f 84/106/243 94/118/269 93/117/270 83/105/244
s 7
f 98/122/271 97/121/272 87/109/258 88/110/257
s 1
f 99/123/273 98/122/274 88/110/260 89/111/259
s 2
f 89/112/262 90/113/261 100/125/275 99/124/276
s 3
f 101/126/277 100/125/278 90/113/264 91/114/263
s 4
f 102/127/279 101/126/280 91/114/266 92/115/265
s 5
f 103/129/281 102/128/282 92/116/268 93/117/267
s 6
f 94/118/269 104/130/283 103/129/284 93/117/270
s off
f 105/131/285 104/130/286 94/118/287 95/119/288
f 96/120/289 106/132/290 105/131/291 95/119/292
f 96/120/293 87/109/294 97/121/295 106/132/296
s 7
f 108/134/120 107/133/119 97/121/272 98/122/271
s 1
f 109/135/92 108/134/91 98/122/274 99/123/273
s 2
f 99/124/276 100/125/275 110/137/94 109/136/93
s 3
f 111/138/100 110/137/99 100/125/278 101/126/277
s 4
f 112/139/104 111/138/103 101/126/280 102/127/279
s 5
f 113/141/108 112/140/107 102/128/282 103/129/281
s 6
f 104/130/283 114/142/109 113/141/112 103/129/284
s off
f 44/58/297 45/59/298 46/60/299 37/49/300
f 55/71/301 54/70/302 47/61/303 56/72/304
f 44/58/305 37/49/306 47/61/307 54/70/308
f 64/82/309 65/83/310 66/84/311 57/73/312
f 75/95/313 74/94/314 67/85/315 76/96/316
f 64/82/317 57/73/318 67/85/319 74/94/320
f 84/106/321 85/107/322 86/108/323 77/97/324
f 95/119/325 94/118/326 87/109/327 96/120/328
f 84/106/329 77/97/330 87/109/331 94/118/332
f 104/130/333 105/131/334 106/132/335 97/121/336
f 115/143/337 114/142/338 107/133/339 116/144/340
f 104/130/341 97/121/342 107/133/343 114/142/344
