# This file uses centimeters as units for non-parametric coordinates.

mtllib bookshelf_contents_1.mtl
v 0.000000 0.000000 0.327710
v 0.707107 0.000000 -0.000000
v 0.000000 1.000000 0.707107
v 2.032264 1.000000 -0.000000
v -2.032264 1.000000 0.000000
v -0.000000 1.000000 -0.707107
v -0.707107 0.000000 0.000000
v -0.000000 0.000000 -0.327710
v 0.000000 0.722432 0.428279
v 1.230898 0.722432 -0.000000
v -0.000000 0.722432 -0.428279
v -1.230898 0.722432 0.000000
v 0.000000 0.722432 0.079765
v 0.077148 0.722432 -0.000000
v -0.000000 0.722432 -0.079765
v -0.077148 0.722432 0.000000
v 0.000000 3.022811 0.079765
v 0.077148 3.022811 -0.000000
v -0.000000 3.022811 -0.079765
v -0.077148 3.022811 0.000000
v 0.077148 1.075937 -0.000000
v 0.000000 1.075937 0.079765
v -0.077148 1.075937 0.000000
v -0.000000 1.075937 -0.079765
v 1.196704 0.951824 -0.046660
v 1.298894 0.951824 -0.003399
v 1.196704 2.161008 -0.046660
v 1.298894 2.161008 -0.003399
vt 0.700021 0.265815
vt 0.689733 0.147063
vt 0.568734 0.044378
vt 0.637182 0.339862
vt 0.741088 0.217424
vt 0.747255 0.195878
vt 0.767510 0.186288
vt 0.761343 0.207834
vt 0.939864 0.359334
vt 0.871416 0.063850
vt 0.808577 0.137897
vt 0.818864 0.256649
vt 0.641906 0.106475
vt 0.683364 0.285443
vt 0.825234 0.118269
vt 0.866692 0.297237
vt 0.747255 0.195878
vt 0.741088 0.217424
vt 0.767510 0.186288
vt 0.761343 0.207834
vt 0.747255 0.195878
vt 0.741088 0.217424
vt 0.767510 0.186288
vt 0.761343 0.207834
vt 0.636261 0.100543
vt 0.652757 0.100018
vt 0.652757 0.100018
vt 0.636261 0.100543
vn 0.326785 -0.380622 0.865066
vn 0.326785 -0.380622 0.865066
vn 0.326785 -0.380622 0.865066
vn 0.326785 -0.380622 0.865066
vn -0.000000 1.000000 -0.000000
vn 0.425413 0.659134 -0.620134
vn 0.401677 0.704135 -0.585533
vn -0.000000 1.000000 -0.000000
vn -0.326785 -0.380622 -0.865066
vn -0.326785 -0.380622 -0.865066
vn -0.326785 -0.380622 -0.865066
vn -0.326785 -0.380622 -0.865066
vn 0.000000 -1.000000 0.000000
vn 0.000000 -1.000000 0.000000
vn 0.000000 -1.000000 0.000000
vn 0.000000 -1.000000 0.000000
vn 0.326785 -0.380622 -0.865066
vn 0.326785 -0.380622 -0.865066
vn 0.326785 -0.380622 -0.865066
vn 0.326785 -0.380622 -0.865066
vn -0.326785 -0.380622 0.865066
vn -0.326785 -0.380622 0.865066
vn -0.326785 -0.380622 0.865066
vn -0.326785 -0.380622 0.865066
vn 0.000000 0.708705 -0.705505
vn -0.238396 0.688272 -0.685164
vn -0.238396 0.688272 -0.685164
vn -0.000000 0.708705 -0.705505
vn -0.238396 0.688272 0.685164
vn 0.000000 0.708705 0.705505
vn 0.000000 0.708705 0.705505
vn -0.238396 0.688272 0.685164
vn 0.238396 0.688272 0.685164
vn 0.238396 0.688272 0.685164
vn 0.238396 0.688272 -0.685164
vn 0.238396 0.688272 -0.685164
vn -0.000000 1.000000 -0.000000
vn 0.000000 1.000000 0.000000
vn 0.000000 1.000000 0.000000
vn -0.000000 1.000000 -0.000000
vn 0.000000 1.000000 0.000000
vn 0.000000 1.000000 0.000000
vn -0.000000 1.000000 -0.000000
vn -0.000000 1.000000 -0.000000
vn 0.718800 -0.000000 0.695217
vn 0.718800 -0.000000 0.695217
vn 0.718800 0.000000 0.695217
vn 0.718800 0.000000 0.695217
vn 0.718800 0.000000 -0.695217
vn 0.718800 0.000000 -0.695217
vn 0.718800 0.000000 -0.695217
vn 0.718800 0.000000 -0.695217
vn -0.718800 -0.000000 -0.695217
vn -0.718800 -0.000000 -0.695217
vn -0.718800 0.000000 -0.695217
vn -0.718800 0.000000 -0.695217
vn -0.718800 0.000000 0.695217
vn -0.718800 0.000000 0.695217
vn -0.718800 -0.000000 0.695217
vn -0.718800 -0.000000 0.695217
vn 0.718800 0.000000 0.695217
vn 0.718800 0.000000 0.695217
vn -0.718800 -0.000000 0.695217
vn -0.718800 -0.000000 0.695217
vn -0.718800 0.000000 -0.695217
vn -0.718800 0.000000 -0.695217
vn 0.389846 0.000000 -0.920880
vn 0.389846 0.000000 -0.920880
vn 0.389846 0.000000 -0.920880
vn 0.389846 0.000000 -0.920880
vn -0.102770 -0.983359 0.149811
vn -0.102770 -0.983359 0.149811
vn -0.102770 -0.983359 0.149811
vn -0.102770 -0.983359 0.149811
vn 0.027653 0.000000 -0.999618
vn 0.027653 0.000000 -0.999618
vn 0.027653 0.000000 -0.999618
vn 0.027653 0.000000 -0.999618
vn 0.446151 0.614799 -0.650363
vn 0.446151 0.614799 -0.650363
vn 0.002782 0.000000 0.999996
vn 0.002782 0.000000 0.999996
vn 0.002782 0.000000 0.999996
vn 0.002782 0.000000 0.999996
s off
usemtl lambert2SG
f 1/1/1 2/2/2 4/3/3 3/4/4
s 1
f 17/5/5 18/6/6 19/7/7 20/8/8
s off
f 5/9/9 6/10/10 8/11/11 7/12/12
f 7/12/13 8/11/14 2/2/15 1/1/16
f 2/2/17 8/11/18 6/10/19 4/3/20
f 7/12/21 1/1/22 3/4/23 5/9/24
s 2
f 3/4/25 4/3/26 10/13/27 9/14/28
s 3
f 4/3/29 6/10/30 11/15/31 10/13/32
f 6/10/30 5/9/33 12/16/34 11/15/31
s 2
f 5/9/35 3/4/25 9/14/28 12/16/36
s 4
f 9/14/37 10/13/38 14/17/39 13/18/40
f 10/13/38 11/15/41 15/19/42 14/17/39
f 11/15/41 12/16/43 16/20/44 15/19/42
f 12/16/43 9/14/37 13/18/40 16/20/44
s 5
f 13/18/45 14/17/46 21/21/47 22/22/48
s off
f 14/17/49 15/19/50 24/23/51 21/21/52
s 6
f 15/19/53 16/20/54 23/24/55 24/23/56
s 7
f 16/20/57 13/18/58 22/22/59 23/24/60
s 5
f 22/22/48 21/21/47 18/6/61 17/5/62
s 7
f 23/24/60 22/22/59 17/5/63 20/8/64
s 6
f 24/23/56 23/24/55 20/8/65 19/7/66
s off
f 26/25/67 25/26/68 27/27/69 28/28/70
f 21/21/71 24/23/72 25/26/73 26/25/74
f 24/23/75 19/7/76 27/27/77 25/26/78
s 1
f 19/7/7 18/6/6 28/28/79 27/27/80
s off
f 18/6/81 21/21/82 26/25/83 28/28/84
