# This file uses centimeters as units for non-parametric coordinates.

mtllib bookshelf_4_3.mtl
v -13.909965 -0.000000 3.803549
v 13.909965 -0.000000 3.803549
v -13.909965 33.995329 3.803549
v 13.909965 33.995329 3.803549
v -13.909965 33.995329 -3.803549
v 13.909965 33.995329 -3.803549
v -13.909965 -0.000000 -3.803549
v 13.909965 -0.000000 -3.803549
v 12.720887 33.995329 3.803549
v 12.720887 33.995329 -3.803549
v 12.720887 -0.000000 -3.803549
v 12.720887 -0.000000 3.803549
v -12.720890 33.995329 3.803549
v -12.720890 33.995329 -3.803549
v -12.720890 -0.000000 -3.803549
v -12.720890 -0.000000 3.803549
v -13.909965 32.809847 3.803549
v -13.909965 32.809847 -3.803549
v -12.720890 32.809847 -3.803549
v 12.720887 32.809847 -3.803549
v 13.909965 32.809847 -3.803549
v 13.909965 32.809847 3.803549
v 12.720887 32.809847 3.803549
v -12.720890 32.809847 3.803549
v -13.909965 1.185477 3.803549
v -13.909965 1.185477 -3.803549
v -12.720890 1.185477 -3.803549
v 12.720887 1.185477 -3.803549
v 13.909965 1.185477 -3.803549
v 13.909965 1.185477 3.803549
v 12.720887 1.185477 3.803549
v -12.720890 1.185477 3.803549
v -12.720890 1.185477 -2.895019
v -12.720890 32.809847 -2.895019
v 12.720887 1.185477 -2.895019
v 12.720887 32.809847 -2.895019
vt 0.375000 0.000000
vt 0.625000 0.000000
vt 0.375000 0.250000
vt 0.625000 0.250000
vt 0.375000 0.500000
vt 0.625000 0.500000
vt 0.375000 0.750000
vt 0.625000 0.750000
vt 0.375000 1.000000
vt 0.625000 1.000000
vt 0.875000 0.000000
vt 0.875000 0.250000
vt 0.125000 0.000000
vt 0.125000 0.250000
vt 0.541667 0.250000
vt 0.541667 0.500000
vt 0.541667 0.750000
vt 0.541667 0.000000
vt 0.541667 1.000000
vt 0.458333 0.250000
vt 0.458333 0.500000
vt 0.458333 0.750000
vt 0.458333 0.000000
vt 0.458333 1.000000
vt 0.375000 0.166667
vt 0.125000 0.166667
vt 0.375000 0.583333
vt 0.458333 0.583333
vt 0.541667 0.583333
vt 0.625000 0.583333
vt 0.875000 0.166667
vt 0.625000 0.166667
vt 0.541667 0.166667
vt 0.458333 0.166667
vt 0.375000 0.083333
vt 0.125000 0.083333
vt 0.375000 0.666667
vt 0.458333 0.666667
vt 0.541667 0.666667
vt 0.625000 0.666667
vt 0.875000 0.083333
vt 0.625000 0.083333
vt 0.541667 0.083333
vt 0.458333 0.083333
vt 0.458333 0.166667
vt 0.458333 0.083333
vt 0.541667 0.083333
vt 0.541667 0.166667
vn 0.000000 0.000000 1.000000
vn 0.000000 0.000000 1.000000
vn 0.000000 0.000000 1.000000
vn 0.000000 0.000000 1.000000
vn 0.000000 1.000000 0.000000
vn 0.000000 1.000000 0.000000
vn 0.000000 1.000000 0.000000
vn 0.000000 1.000000 0.000000
vn 0.000000 0.000000 -1.000000
vn 0.000000 0.000000 -1.000000
vn 0.000000 0.000000 -1.000000
vn 0.000000 0.000000 -1.000000
vn 0.000000 -1.000000 0.000000
vn 0.000000 -1.000000 0.000000
vn 0.000000 -1.000000 0.000000
vn 0.000000 -1.000000 0.000000
vn 1.000000 0.000000 0.000000
vn 1.000000 0.000000 0.000000
vn 1.000000 0.000000 0.000000
vn 1.000000 0.000000 0.000000
vn -1.000000 0.000000 0.000000
vn -1.000000 0.000000 0.000000
vn -1.000000 0.000000 0.000000
vn -1.000000 0.000000 0.000000
vn 0.000000 1.000000 0.000000
vn 0.000000 1.000000 0.000000
vn 0.000000 1.000000 0.000000
vn 0.000000 1.000000 0.000000
vn 0.000000 0.000000 -1.000000
vn 0.000000 0.000000 -1.000000
vn 0.000000 0.000000 -1.000000
vn 0.000000 0.000000 -1.000000
vn 0.000000 -1.000000 0.000000
vn 0.000000 -1.000000 0.000000
vn 0.000000 -1.000000 0.000000
vn 0.000000 -1.000000 0.000000
vn 0.000000 0.000000 1.000000
vn 0.000000 0.000000 1.000000
vn 0.000000 0.000000 1.000000
vn 0.000000 0.000000 1.000000
vn -1.000000 0.000000 0.000000
vn -1.000000 0.000000 0.000000
vn -1.000000 0.000000 0.000000
vn -1.000000 0.000000 0.000000
vn 0.000000 0.000000 -1.000000
vn 0.000000 0.000000 -1.000000
vn 0.000000 0.000000 -1.000000
vn 0.000000 0.000000 -1.000000
vn 0.000000 0.000000 -1.000000
vn 0.000000 0.000000 -1.000000
vn 0.000000 0.000000 -1.000000
vn 0.000000 0.000000 -1.000000
vn 1.000000 0.000000 0.000000
vn 1.000000 0.000000 0.000000
vn 1.000000 0.000000 0.000000
vn 1.000000 0.000000 0.000000
vn 0.000000 0.000000 1.000000
vn 0.000000 0.000000 1.000000
vn 0.000000 0.000000 1.000000
vn 0.000000 0.000000 1.000000
vn 0.000000 0.000000 1.000000
vn 0.000000 0.000000 1.000000
vn 0.000000 0.000000 1.000000
vn 0.000000 0.000000 1.000000
vn 0.000000 0.000000 1.000000
vn 0.000000 0.000000 1.000000
vn 0.000000 0.000000 1.000000
vn 0.000000 0.000000 1.000000
vn 1.000000 0.000000 0.000000
vn 1.000000 0.000000 0.000000
vn 1.000000 0.000000 0.000000
vn 1.000000 0.000000 0.000000
vn 0.000000 1.000000 0.000000
vn 0.000000 1.000000 0.000000
vn 0.000000 1.000000 0.000000
vn 0.000000 1.000000 0.000000
vn -1.000000 0.000000 0.000000
vn -1.000000 0.000000 0.000000
vn -1.000000 0.000000 0.000000
vn -1.000000 0.000000 0.000000
vn 0.000000 -1.000000 0.000000
vn 0.000000 -1.000000 0.000000
vn 0.000000 -1.000000 0.000000
vn 0.000000 -1.000000 0.000000
s 1
usemtl initialShadingGroup
f 1/1/1 16/23/2 32/44/3 25/35/4
s 2
f 3/3/5 13/20/6 14/21/7 5/5/8
s 3
f 26/37/9 27/38/10 15/22/11 7/7/12
s 4
f 7/7/13 15/22/14 16/24/15 1/9/16
s 5
f 2/2/17 8/11/18 29/41/19 30/42/20
s 6
f 7/13/21 1/1/22 25/35/23 26/36/24
s 2
f 9/15/25 4/4/26 6/6/27 10/16/28
s 3
f 11/17/29 28/39/30 29/40/31 8/8/32
s 4
f 12/19/33 11/17/34 8/8/35 2/10/36
s 1
f 31/43/37 12/18/38 2/2/39 30/42/40
s 2
f 13/20/6 9/15/25 10/16/28 14/21/7
s 3
f 15/22/11 27/38/10 28/39/30 11/17/29
s 4
f 16/24/15 15/22/14 11/17/34 12/19/33
s 1
f 32/44/3 16/23/2 12/18/38 31/43/37
s 6
f 18/26/41 17/25/42 3/3/43 5/14/44
s 3
f 5/5/45 14/21/46 19/28/47 18/27/48
f 20/29/49 19/28/47 14/21/46 10/16/50
f 21/30/51 20/29/49 10/16/50 6/6/52
s 5
f 22/32/53 21/31/54 6/12/55 4/4/56
s 1
f 9/15/57 23/33/58 22/32/59 4/4/60
f 13/20/61 24/34/62 23/33/58 9/15/57
f 17/25/63 24/34/62 13/20/61 3/3/64
s 6
f 26/36/24 25/35/23 17/25/42 18/26/41
s 3
f 18/27/48 19/28/47 27/38/10 26/37/9
f 28/39/30 27/38/10 19/28/47 20/29/49
f 29/40/31 28/39/30 20/29/49 21/30/51
s 5
f 30/42/20 29/41/19 21/31/54 22/32/53
s 1
f 23/33/58 31/43/37 30/42/40 22/32/59
s off
f 34/45/65 33/46/66 35/47/67 36/48/68
s 1
f 25/35/4 32/44/3 24/34/62 17/25/63
s off
f 24/34/69 32/44/70 33/46/71 34/45/72
f 32/44/73 31/43/74 35/47/75 33/46/76
f 31/43/77 23/33/78 36/48/79 35/47/80
f 23/33/81 24/34/82 34/45/83 36/48/84
v 12.761089 37.304533 -3.803549
v 9.766917 40.109945 -3.803549
v 5.285824 41.984461 -3.803549
v 0.000007 42.642702 -3.803549
v -5.285812 41.984465 -3.803549
v -9.766912 40.109949 -3.803549
v -12.761084 37.304541 -3.803549
v -13.909966 33.995333 -3.803549
v 13.909966 33.995329 -3.803549
v 12.761089 37.304533 3.803549
v 9.766917 40.109945 3.803549
v 5.285824 41.984461 3.803549
v 0.000007 42.642702 3.803549
v -5.285812 41.984465 3.803549
v -9.766912 40.109949 3.803549
v -12.761084 37.304541 3.803549
v -13.909966 33.995333 3.803549
v 13.909966 33.995329 3.803549
v 0.000000 33.995329 -3.803549
v -12.008280 33.995333 3.803549
v -11.094198 36.872282 3.803549
v -8.491130 39.311243 3.803549
v -4.595365 40.940901 3.803549
v 0.000006 41.513159 3.803549
v 4.595377 40.940897 3.803549
v 8.491133 39.311239 3.803549
v 11.094203 36.872275 3.803549
v 12.008280 33.995329 3.803549
v -12.008280 33.995333 -3.174282
v -11.094198 36.872282 -3.174282
v 0.000000 33.995329 -3.174282
v -8.491130 39.311243 -3.174282
v -4.595365 40.940901 -3.174282
v 0.000006 41.513159 -3.174282
v 4.595377 40.940897 -3.174282
v 8.491133 39.311239 -3.174282
v 11.094203 36.872275 -3.174282
v 12.008280 33.995329 -3.174282
vt 0.644356 0.096456
vt 0.610485 0.045765
vt 0.559794 0.011894
vt 0.500000 0.000000
vt 0.440206 0.011894
vt 0.389515 0.045765
vt 0.355644 0.096456
vt 0.343750 0.156250
vt 0.656250 0.156250
vt 0.375000 0.312500
vt 0.390625 0.312500
vt 0.406250 0.312500
vt 0.421875 0.312500
vt 0.437500 0.312500
vt 0.453125 0.312500
vt 0.468750 0.312500
vt 0.484375 0.312500
vt 0.609375 0.312500
vt 0.625000 0.312500
vt 0.375000 0.688440
vt 0.390625 0.688440
vt 0.406250 0.688440
vt 0.421875 0.688440
vt 0.437500 0.688440
vt 0.453125 0.688440
vt 0.468750 0.688440
vt 0.484375 0.688440
vt 0.609375 0.688440
vt 0.625000 0.688440
vt 0.343750 0.843750
vt 0.355644 0.903544
vt 0.389515 0.954235
vt 0.440206 0.988106
vt 0.500000 1.000000
vt 0.559794 0.988106
vt 0.610485 0.954235
vt 0.644356 0.903544
vt 0.656250 0.843750
vt 0.500000 0.150000
vt 0.421875 0.840625
vt 0.427822 0.870522
vt 0.444757 0.895868
vt 0.470103 0.912803
vt 0.500000 0.918750
vt 0.529897 0.912803
vt 0.555243 0.895868
vt 0.572178 0.870522
vt 0.578125 0.840625
vt 0.427822 0.870522
vt 0.421875 0.840625
vt 0.500000 0.837500
vt 0.444757 0.895868
vt 0.470103 0.912803
vt 0.500000 0.918750
vt 0.529897 0.912803
vt 0.555243 0.895868
vt 0.572178 0.870522
vt 0.578125 0.840625
vn 0.827863 0.560931 -0.000000
vn 0.530642 0.847596 -0.000000
vn 0.530642 0.847596 -0.000000
vn 0.827863 0.560931 -0.000000
vn 0.251017 0.967983 -0.000000
vn 0.251017 0.967983 -0.000000
vn 0.000000 1.000000 -0.000000
vn 0.000000 1.000000 -0.000000
vn -0.251017 0.967983 -0.000000
vn -0.251017 0.967983 -0.000000
vn -0.530641 0.847597 -0.000000
vn -0.530641 0.847597 -0.000000
vn -0.827863 0.560931 -0.000000
vn -0.827863 0.560931 -0.000000
vn -0.944687 0.327974 -0.000000
vn -0.944687 0.327974 -0.000000
vn 0.944687 0.327973 -0.000000
vn 0.944687 0.327973 -0.000000
vn 0.000000 -0.000000 -1.000000
vn 0.000000 -0.000000 -1.000000
vn 0.000000 0.000000 -1.000000
vn 0.000000 -0.000000 -1.000000
vn 0.000000 0.000000 -1.000000
vn 0.000000 0.000000 -1.000000
vn 0.000000 -0.000000 -1.000000
vn 0.000000 0.000000 -1.000000
vn 0.000000 0.000000 -1.000000
vn 0.000000 -0.000000 -1.000000
vn 0.000000 -0.000000 1.000000
vn 0.000000 -0.000000 1.000000
vn 0.000000 -0.000000 1.000000
vn 0.000000 -0.000000 1.000000
vn 0.000000 0.000000 1.000000
vn 0.000000 0.000000 1.000000
vn 0.000000 0.000000 1.000000
vn 0.000000 0.000000 1.000000
vn 0.000000 0.000000 1.000000
vn 0.000000 0.000000 1.000000
vn 0.000000 0.000000 1.000000
vn 0.000000 0.000000 1.000000
vn 0.000000 0.000000 1.000000
vn 0.000000 0.000000 1.000000
vn 0.000000 0.000000 1.000000
vn 0.000000 0.000000 1.000000
vn 0.000000 0.000000 1.000000
vn 0.000000 0.000000 1.000000
vn 0.000000 0.000000 1.000000
vn 0.000000 0.000000 1.000000
vn 0.000000 -0.000000 1.000000
vn 0.000000 0.000000 1.000000
vn 0.000000 -0.000000 1.000000
vn 0.000000 -0.000000 1.000000
vn 0.000000 -0.000000 1.000000
vn 0.000000 0.000000 1.000000
vn 0.000000 0.000000 1.000000
vn 0.000000 0.000000 1.000000
vn 0.833985 -0.551787 0.000000
vn 0.953051 -0.302809 0.000000
vn 0.953051 -0.302809 0.000000
vn 0.833985 -0.551787 0.000000
vn 0.530641 -0.847597 0.000000
vn 0.530641 -0.847597 0.000000
vn 0.251017 -0.967983 0.000000
vn 0.251017 -0.967983 0.000000
vn -0.000000 -1.000000 0.000000
vn -0.000000 -1.000000 0.000000
vn -0.251017 -0.967983 0.000000
vn -0.251017 -0.967983 0.000000
vn -0.530642 -0.847596 0.000000
vn -0.530642 -0.847596 0.000000
vn -0.833985 -0.551787 0.000000
vn -0.833985 -0.551787 0.000000
vn -0.953052 -0.302808 0.000000
vn -0.953052 -0.302808 0.000000
s 1
f 37/58/85 38/59/86 47/69/87 46/68/88
f 38/59/86 39/60/89 48/70/90 47/69/87
f 39/60/89 40/61/91 49/71/92 48/70/90
f 40/61/91 41/62/93 50/72/94 49/71/92
f 41/62/93 42/63/95 51/73/96 50/72/94
f 42/63/95 43/64/97 52/74/98 51/73/96
f 43/64/97 44/65/99 53/75/100 52/74/98
f 45/66/101 37/67/85 46/77/88 54/76/102
s 2
f 38/50/103 37/49/104 55/87/105
f 39/51/106 38/50/103 55/87/105
f 40/52/107 39/51/106 55/87/105
f 41/53/108 40/52/107 55/87/105
f 42/54/109 41/53/108 55/87/105
f 43/55/110 42/54/109 55/87/105
f 44/56/111 43/55/110 55/87/105
f 37/49/104 45/57/112 55/87/105
s 3
f 46/85/113 47/84/114 62/94/115 63/95/116
f 47/84/114 48/83/117 61/93/118 62/94/115
f 48/83/117 49/82/119 60/92/120 61/93/118
f 49/82/119 50/81/121 59/91/122 60/92/120
f 50/81/121 51/80/123 58/90/124 59/91/122
f 51/80/123 52/79/125 57/89/126 58/90/124
f 52/79/125 53/78/127 56/88/128 57/89/126
f 54/86/129 46/85/113 63/95/116 64/96/130
s 4
f 66/97/131 65/98/132 67/99/133
f 68/100/134 66/97/131 67/99/133
f 69/101/135 68/100/134 67/99/133
f 70/102/136 69/101/135 67/99/133
f 71/103/137 70/102/136 67/99/133
f 72/104/138 71/103/137 67/99/133
f 73/105/139 72/104/138 67/99/133
f 74/106/140 73/105/139 67/99/133
s 5
f 57/89/141 56/88/142 65/98/143 66/97/144
f 58/90/145 57/89/141 66/97/144 68/100/146
f 59/91/147 58/90/145 68/100/146 69/101/148
f 60/92/149 59/91/147 69/101/148 70/102/150
f 61/93/151 60/92/149 70/102/150 71/103/152
f 62/94/153 61/93/151 71/103/152 72/104/154
f 63/95/155 62/94/153 72/104/154 73/105/156
f 64/96/157 63/95/155 73/105/156 74/106/158
