# This file uses centimeters as units for non-parametric coordinates.

mtllib bookshelf_4_case_2.mtl
v -0.500000 1.185477 3.686117
v 0.500000 1.185477 3.686117
v -0.500000 7.689628 3.686117
v 0.500000 7.689628 3.686117
v -0.500000 7.689628 -3.082022
v 0.500000 7.689628 -3.082022
v -0.500000 1.185477 -3.082022
v 0.500000 1.185477 -3.082022
vt 0.375000 0.000000
vt 0.625000 0.000000
vt 0.375000 0.250000
vt 0.625000 0.250000
vt 0.375000 0.500000
vt 0.625000 0.500000
vt 0.375000 0.750000
vt 0.625000 0.750000
vt 0.375000 1.000000
vt 0.625000 1.000000
vt 0.875000 0.000000
vt 0.875000 0.250000
vt 0.125000 0.000000
vt 0.125000 0.250000
vn 0.000000 0.000000 1.000000
vn 0.000000 0.000000 1.000000
vn 0.000000 0.000000 1.000000
vn 0.000000 0.000000 1.000000
vn 0.000000 1.000000 0.000000
vn 0.000000 1.000000 0.000000
vn 0.000000 1.000000 0.000000
vn 0.000000 1.000000 0.000000
vn 0.000000 0.000000 -1.000000
vn 0.000000 0.000000 -1.000000
vn 0.000000 0.000000 -1.000000
vn 0.000000 0.000000 -1.000000
vn 0.000000 -1.000000 0.000000
vn 0.000000 -1.000000 0.000000
vn 0.000000 -1.000000 0.000000
vn 0.000000 -1.000000 0.000000
vn 1.000000 0.000000 0.000000
vn 1.000000 0.000000 0.000000
vn 1.000000 0.000000 0.000000
vn 1.000000 0.000000 0.000000
vn -1.000000 0.000000 0.000000
vn -1.000000 0.000000 0.000000
vn -1.000000 0.000000 0.000000
vn -1.000000 0.000000 0.000000
s off
usemtl initialShadingGroup
f 1/1/1 2/2/2 4/4/3 3/3/4
f 3/3/5 4/4/6 6/6/7 5/5/8
f 5/5/9 6/6/10 8/8/11 7/7/12
f 7/7/13 8/8/14 2/10/15 1/9/16
f 2/2/17 8/11/18 6/12/19 4/4/20
f 7/13/21 1/1/22 3/3/23 5/14/24
v -13.909965 -0.000000 3.803549
v 13.909965 -0.000000 3.803549
v -13.909965 33.995329 3.803549
v 13.909965 33.995329 3.803549
v -13.909965 33.995329 -3.803549
v 13.909965 33.995329 -3.803549
v -13.909965 -0.000000 -3.803549
v 13.909965 -0.000000 -3.803549
v 12.720887 33.995329 3.803549
v 12.720887 33.995329 -3.803549
v 12.720887 -0.000000 -3.803549
v 12.720887 -0.000000 3.803549
v -12.720890 33.995329 3.803549
v -12.720890 33.995329 -3.803549
v -12.720890 -0.000000 -3.803549
v -12.720890 -0.000000 3.803549
v -13.909965 32.809847 3.803549
v -13.909965 32.809847 -3.803549
v -12.720890 32.809847 -3.803549
v 12.720887 32.809847 -3.803549
v 13.909965 32.809847 -3.803549
v 13.909965 32.809847 3.803549
v 12.720887 32.809847 3.803549
v -12.720890 32.809847 3.803549
v -13.909965 1.185477 3.803549
v -13.909965 1.185477 -3.803549
v -12.720890 1.185477 -3.803549
v 12.720887 1.185477 -3.803549
v 13.909965 1.185477 -3.803549
v 13.909965 1.185477 3.803549
v 12.720887 1.185477 3.803549
v -12.720890 1.185477 3.803549
v -12.720890 1.185477 -2.895019
v -12.720890 32.809847 -2.895019
v 12.720887 1.185477 -2.895019
v 12.720887 32.809847 -2.895019
vt 0.375000 0.000000
vt 0.625000 0.000000
vt 0.375000 0.250000
vt 0.625000 0.250000
vt 0.375000 0.500000
vt 0.625000 0.500000
vt 0.375000 0.750000
vt 0.625000 0.750000
vt 0.375000 1.000000
vt 0.625000 1.000000
vt 0.875000 0.000000
vt 0.875000 0.250000
vt 0.125000 0.000000
vt 0.125000 0.250000
vt 0.541667 0.250000
vt 0.541667 0.500000
vt 0.541667 0.750000
vt 0.541667 0.000000
vt 0.541667 1.000000
vt 0.458333 0.250000
vt 0.458333 0.500000
vt 0.458333 0.750000
vt 0.458333 0.000000
vt 0.458333 1.000000
vt 0.375000 0.166667
vt 0.125000 0.166667
vt 0.375000 0.583333
vt 0.458333 0.583333
vt 0.541667 0.583333
vt 0.625000 0.583333
vt 0.875000 0.166667
vt 0.625000 0.166667
vt 0.541667 0.166667
vt 0.458333 0.166667
vt 0.375000 0.083333
vt 0.125000 0.083333
vt 0.375000 0.666667
vt 0.458333 0.666667
vt 0.541667 0.666667
vt 0.625000 0.666667
vt 0.875000 0.083333
vt 0.625000 0.083333
vt 0.541667 0.083333
vt 0.458333 0.083333
vt 0.458333 0.166667
vt 0.458333 0.083333
vt 0.541667 0.083333
vt 0.541667 0.166667
vn 0.000000 0.000000 1.000000
vn 0.000000 0.000000 1.000000
vn 0.000000 0.000000 1.000000
vn 0.000000 0.000000 1.000000
vn 0.000000 1.000000 0.000000
vn 0.000000 1.000000 0.000000
vn 0.000000 1.000000 0.000000
vn 0.000000 1.000000 0.000000
vn 0.000000 0.000000 -1.000000
vn 0.000000 0.000000 -1.000000
vn 0.000000 0.000000 -1.000000
vn 0.000000 0.000000 -1.000000
vn 0.000000 -1.000000 0.000000
vn 0.000000 -1.000000 0.000000
vn 0.000000 -1.000000 0.000000
vn 0.000000 -1.000000 0.000000
vn 1.000000 0.000000 0.000000
vn 1.000000 0.000000 0.000000
vn 1.000000 0.000000 0.000000
vn 1.000000 0.000000 0.000000
vn -1.000000 0.000000 0.000000
vn -1.000000 0.000000 0.000000
vn -1.000000 0.000000 0.000000
vn -1.000000 0.000000 0.000000
vn 0.000000 1.000000 0.000000
vn 0.000000 1.000000 0.000000
vn 0.000000 1.000000 0.000000
vn 0.000000 1.000000 0.000000
vn 0.000000 0.000000 -1.000000
vn 0.000000 0.000000 -1.000000
vn 0.000000 0.000000 -1.000000
vn 0.000000 0.000000 -1.000000
vn 0.000000 -1.000000 0.000000
vn 0.000000 -1.000000 0.000000
vn 0.000000 -1.000000 0.000000
vn 0.000000 -1.000000 0.000000
vn 0.000000 0.000000 1.000000
vn 0.000000 0.000000 1.000000
vn 0.000000 0.000000 1.000000
vn 0.000000 0.000000 1.000000
vn -1.000000 0.000000 0.000000
vn -1.000000 0.000000 0.000000
vn -1.000000 0.000000 0.000000
vn -1.000000 0.000000 0.000000
vn 0.000000 0.000000 -1.000000
vn 0.000000 0.000000 -1.000000
vn 0.000000 0.000000 -1.000000
vn 0.000000 0.000000 -1.000000
vn 0.000000 0.000000 -1.000000
vn 0.000000 0.000000 -1.000000
vn 0.000000 0.000000 -1.000000
vn 0.000000 0.000000 -1.000000
vn 1.000000 0.000000 0.000000
vn 1.000000 0.000000 0.000000
vn 1.000000 0.000000 0.000000
vn 1.000000 0.000000 0.000000
vn 0.000000 0.000000 1.000000
vn 0.000000 0.000000 1.000000
vn 0.000000 0.000000 1.000000
vn 0.000000 0.000000 1.000000
vn 0.000000 0.000000 1.000000
vn 0.000000 0.000000 1.000000
vn 0.000000 0.000000 1.000000
vn 0.000000 0.000000 1.000000
vn 0.000000 0.000000 1.000000
vn 0.000000 0.000000 1.000000
vn 0.000000 0.000000 1.000000
vn 0.000000 0.000000 1.000000
vn 1.000000 0.000000 0.000000
vn 1.000000 0.000000 0.000000
vn 1.000000 0.000000 0.000000
vn 1.000000 0.000000 0.000000
vn 0.000000 1.000000 0.000000
vn 0.000000 1.000000 0.000000
vn 0.000000 1.000000 0.000000
vn 0.000000 1.000000 0.000000
vn -1.000000 0.000000 0.000000
vn -1.000000 0.000000 0.000000
vn -1.000000 0.000000 0.000000
vn -1.000000 0.000000 0.000000
vn 0.000000 -1.000000 0.000000
vn 0.000000 -1.000000 0.000000
vn 0.000000 -1.000000 0.000000
vn 0.000000 -1.000000 0.000000
s 1
f 9/15/25 24/37/26 40/58/27 33/49/28
s 2
f 11/17/29 21/34/30 22/35/31 13/19/32
s 3
f 34/51/33 35/52/34 23/36/35 15/21/36
s 4
f 15/21/37 23/36/38 24/38/39 9/23/40
s 5
f 10/16/41 16/25/42 37/55/43 38/56/44
s 6
f 15/27/45 9/15/46 33/49/47 34/50/48
s 2
f 17/29/49 12/18/50 14/20/51 18/30/52
s 3
f 19/31/53 36/53/54 37/54/55 16/22/56
s 4
f 20/33/57 19/31/58 16/22/59 10/24/60
s 1
f 39/57/61 20/32/62 10/16/63 38/56/64
s 2
f 21/34/30 17/29/49 18/30/52 22/35/31
s 3
f 23/36/35 35/52/34 36/53/54 19/31/53
s 4
f 24/38/39 23/36/38 19/31/58 20/33/57
s 1
f 40/58/27 24/37/26 20/32/62 39/57/61
s 6
f 26/40/65 25/39/66 11/17/67 13/28/68
s 3
f 13/19/69 22/35/70 27/42/71 26/41/72
f 28/43/73 27/42/71 22/35/70 18/30/74
f 29/44/75 28/43/73 18/30/74 14/20/76
s 5
f 30/46/77 29/45/78 14/26/79 12/18/80
s 1
f 17/29/81 31/47/82 30/46/83 12/18/84
f 21/34/85 32/48/86 31/47/82 17/29/81
f 25/39/87 32/48/86 21/34/85 11/17/88
s 6
f 34/50/48 33/49/47 25/39/66 26/40/65
s 3
f 26/41/72 27/42/71 35/52/34 34/51/33
f 36/53/54 35/52/34 27/42/71 28/43/73
f 37/54/55 36/53/54 28/43/73 29/44/75
s 5
f 38/56/44 37/55/43 29/45/78 30/46/77
s 1
f 31/47/82 39/57/61 38/56/64 30/46/83
s off
f 42/59/89 41/60/90 43/61/91 44/62/92
s 1
f 33/49/28 40/58/27 32/48/86 25/39/87
s off
f 32/48/93 40/58/94 41/60/95 42/59/96
f 40/58/97 39/57/98 43/61/99 41/60/100
f 39/57/101 31/47/102 44/62/103 43/61/104
f 31/47/105 32/48/106 42/59/107 44/62/108
