# This file uses centimeters as units for non-parametric coordinates.

mtllib chair_Arm_1.mtl
v 0.327702 -0.327702 7.340735
v 0.327702 -0.327702 -0.504350
v 0.327702 0.327702 7.340735
v 0.327702 0.327702 -0.504350
v -0.327702 0.327702 7.340735
v -0.327702 0.327702 -0.504350
v -0.327702 -0.327702 7.340735
v -0.327702 -0.327702 -0.504350
vt 0.055326 0.844166
vt 0.055326 0.869310
vt 0.055326 0.894455
vt 0.055326 0.919600
vt 0.055326 0.944744
vt 0.381451 0.869310
vt 0.381451 0.894455
vt 0.356306 0.894455
vt 0.356306 0.869310
vt 0.030182 0.894455
vt 0.030182 0.869310
vt 0.356306 0.919600
vt 0.356306 0.944744
vt 0.356306 0.844166
vn 1.000000 0.000000 0.000000
vn 1.000000 0.000000 0.000000
vn 1.000000 0.000000 0.000000
vn 1.000000 0.000000 0.000000
vn 0.000000 1.000000 0.000000
vn 0.000000 1.000000 0.000000
vn 0.000000 1.000000 0.000000
vn 0.000000 1.000000 0.000000
vn -1.000000 0.000000 -0.000000
vn -1.000000 0.000000 -0.000000
vn -1.000000 0.000000 -0.000000
vn -1.000000 0.000000 -0.000000
vn 0.000000 -1.000000 0.000000
vn 0.000000 -1.000000 0.000000
vn 0.000000 -1.000000 0.000000
vn 0.000000 -1.000000 0.000000
vn 0.000000 0.000000 -1.000000
vn 0.000000 0.000000 -1.000000
vn 0.000000 0.000000 -1.000000
vn 0.000000 0.000000 -1.000000
vn 0.000000 0.000000 1.000000
vn 0.000000 0.000000 1.000000
vn 0.000000 0.000000 1.000000
vn 0.000000 0.000000 1.000000
s off
usemtl chair_Arm_1_initialShadingGroup
f 3/2/1 1/1/2 2/14/3 4/9/4
f 5/3/5 3/2/6 4/9/7 6/8/8
f 7/4/9 5/3/10 6/8/11 8/12/12
f 1/5/13 7/4/14 8/12/15 2/13/16
f 2/6/17 8/7/18 6/8/19 4/9/20
f 7/10/21 1/11/22 3/2/23 5/3/24
