# This file uses centimeters as units for non-parametric coordinates.

mtllib chair_Arm_3.mtl
v 0.327702 -0.144134 6.441233
v 0.327702 -0.144134 -0.504350
v 0.327702 0.144134 6.441233
v 0.327702 0.144134 -0.504350
v -0.327702 0.144134 6.441233
v -0.327702 0.144134 -0.504350
v -0.327702 -0.144134 6.441233
v -0.327702 -0.144134 -0.504350
v -0.327702 0.144134 0.161486
v -0.327702 -0.144134 0.161486
v 0.327702 -0.144134 0.161486
v 0.327702 0.144134 0.161486
v 0.327702 -0.659055 6.884452
v -0.327702 -0.659055 6.884452
v 0.327702 -0.650722 7.264860
v -0.327702 -0.650722 7.264860
v -0.327702 -0.494086 7.258880
v 0.327702 -0.494086 7.258880
v 0.327702 -0.502419 6.878471
v -0.327702 -0.502419 6.878471
v -0.327702 -0.310812 7.237779
v 0.327702 -0.310812 7.237779
v 0.327702 -0.373914 6.866441
v -0.327702 -0.373914 6.866441
v -0.327702 -0.119993 7.131436
v 0.327702 -0.119993 7.131436
v 0.327702 -0.277537 6.812731
v -0.327702 -0.277537 6.812731
v -0.327702 0.030572 6.943659
v 0.327702 0.030572 6.943659
v 0.327702 -0.201491 6.717890
v -0.327702 -0.201491 6.717890
v -0.327702 0.121841 6.698195
v 0.327702 0.121841 6.698195
v 0.327702 -0.155394 6.593913
v -0.327702 -0.155394 6.593913
vt 0.375000 0.000000
vt 0.601034 0.000000
vt 0.601034 0.250000
vt 0.375000 0.250000
vt 0.601034 0.500000
vt 0.375000 0.500000
vt 0.601034 0.750000
vt 0.375000 0.750000
vt 0.601034 1.000000
vt 0.375000 1.000000
vt 0.625000 0.000000
vt 0.875000 0.000000
vt 0.875000 0.250000
vt 0.625000 0.250000
vt 0.125000 0.000000
vt 0.375000 0.000000
vt 0.375000 0.250000
vt 0.125000 0.250000
vt 0.625000 0.500000
vt 0.625000 0.750000
vt 0.625000 1.000000
vt 0.125000 0.000000
vt 0.375000 0.000000
vt 0.125000 0.000000
vt 0.375000 0.250000
vt 0.125000 0.250000
vt 0.125000 0.250000
vt 0.375000 0.250000
vt 0.125000 0.250000
vt 0.375000 0.000000
vt 0.125000 0.000000
vt 0.375000 0.250000
vt 0.125000 0.250000
vt 0.375000 0.000000
vt 0.125000 0.000000
vt 0.375000 0.250000
vt 0.125000 0.250000
vt 0.375000 0.000000
vt 0.125000 0.000000
vt 0.375000 0.250000
vt 0.125000 0.250000
vt 0.375000 0.000000
vt 0.125000 0.000000
vn 1.000000 0.000000 0.000000
vn 1.000000 0.000000 0.000000
vn 1.000000 0.000000 0.000000
vn 1.000000 0.000000 0.000000
vn 0.000000 1.000000 0.000000
vn 0.000000 1.000000 0.000000
vn 0.000000 1.000000 0.000000
vn 0.000000 1.000000 0.000000
vn -1.000000 0.000000 0.000000
vn -1.000000 0.000000 0.000000
vn -1.000000 0.000000 0.000000
vn -1.000000 0.000000 0.000000
vn 0.000000 -1.000000 0.000000
vn 0.000000 -1.000000 0.000000
vn 0.000000 -1.000000 0.000000
vn 0.000000 -1.000000 0.000000
vn 0.000000 0.000000 -1.000000
vn 0.000000 0.000000 -1.000000
vn 0.000000 0.000000 -1.000000
vn 0.000000 0.000000 -1.000000
vn 0.000000 0.000000 1.000000
vn 0.000000 0.000000 1.000000
vn 0.000000 0.000000 1.000000
vn 0.000000 0.000000 1.000000
vn -1.000000 0.000000 0.000000
vn -1.000000 0.000000 0.000000
vn -1.000000 0.000000 0.000000
vn -1.000000 0.000000 0.000000
vn 0.000000 -1.000000 0.000000
vn 0.000000 -1.000000 0.000000
vn 0.000000 -1.000000 0.000000
vn 0.000000 -1.000000 0.000000
vn 1.000000 0.000000 0.000000
vn 1.000000 0.000000 0.000000
vn 1.000000 0.000000 0.000000
vn 1.000000 0.000000 0.000000
vn 0.000000 1.000000 0.000000
vn 0.000000 1.000000 0.000000
vn 0.000000 1.000000 0.000000
vn 0.000000 1.000000 0.000000
vn 0.000000 -1.000000 0.000000
vn 0.000000 -1.000000 0.000000
vn 0.000000 -0.979178 -0.203005
vn 0.000000 -0.979178 -0.203005
vn 1.000000 0.000000 0.000000
vn 1.000000 0.000000 0.000000
vn 1.000000 -0.000000 0.000000
vn 1.000000 -0.000000 0.000000
vn 0.000000 1.000000 0.000000
vn 0.000000 1.000000 0.000000
vn 0.000000 0.975395 0.220466
vn 0.000000 0.975395 0.220466
vn -1.000000 0.000000 0.000000
vn -1.000000 0.000000 0.000000
vn -1.000000 0.000000 0.000000
vn -1.000000 0.000000 0.000000
vn 0.000000 0.079417 0.996841
vn 0.000000 0.079417 0.996841
vn 0.000000 0.000000 1.000000
vn 0.000000 0.000000 1.000000
vn 1.000000 -0.000000 0.000000
vn 1.000000 -0.000000 0.000000
vn 0.000000 0.000000 1.000000
vn 0.000000 0.000000 1.000000
vn 0.000000 -0.063033 -0.998011
vn 0.000000 -0.063033 -0.998011
vn 0.000000 0.000000 1.000000
vn 0.000000 0.000000 1.000000
vn -1.000000 0.000000 0.000000
vn -1.000000 0.000000 0.000000
vn 0.000000 0.000000 1.000000
vn 0.000000 0.000000 1.000000
vn 0.000000 0.322475 0.946578
vn 0.000000 0.322475 0.946578
vn 0.000000 0.079417 0.996841
vn 0.000000 0.079417 0.996841
vn 1.000000 -0.000000 0.000000
vn 1.000000 -0.000000 0.000000
vn 1.000000 -0.000000 0.000000
vn 1.000000 -0.000000 0.000000
vn 0.000000 -0.280585 -0.959829
vn 0.000000 -0.280585 -0.959829
vn 0.000000 -0.063033 -0.998011
vn 0.000000 -0.063033 -0.998011
vn -1.000000 0.000000 0.000000
vn -1.000000 0.000000 0.000000
vn -1.000000 0.000000 0.000000
vn -1.000000 0.000000 0.000000
vn 0.000000 0.652716 0.757603
vn 0.000000 0.652716 0.757603
vn 0.000000 0.322475 0.946578
vn 0.000000 0.322475 0.946578
vn 1.000000 0.000000 0.000000
vn 1.000000 0.000000 0.000000
vn 1.000000 -0.000000 0.000000
vn 1.000000 -0.000000 0.000000
vn 0.000000 -0.652717 -0.757602
vn 0.000000 -0.652717 -0.757602
vn 0.000000 -0.280585 -0.959829
vn 0.000000 -0.280585 -0.959829
vn -1.000000 0.000000 0.000000
vn -1.000000 0.000000 0.000000
vn -1.000000 0.000000 0.000000
vn -1.000000 0.000000 0.000000
vn 0.000000 0.873176 0.487406
vn 0.000000 0.873176 0.487406
vn 0.000000 0.652716 0.757603
vn 0.000000 0.652716 0.757603
vn 1.000000 -0.000000 0.000000
vn 1.000000 0.000000 0.000000
vn 1.000000 0.000000 0.000000
vn 1.000000 0.000000 0.000000
vn 0.000000 -0.873176 -0.487404
vn 0.000000 -0.873176 -0.487404
vn 0.000000 -0.652717 -0.757602
vn 0.000000 -0.652717 -0.757602
vn -1.000000 0.000000 0.000000
vn -1.000000 0.000000 0.000000
vn -1.000000 0.000000 0.000000
vn -1.000000 0.000000 0.000000
vn 0.000000 0.975395 0.220466
vn 0.000000 0.975395 0.220466
vn 0.000000 0.873176 0.487406
vn 0.000000 0.873176 0.487406
vn 1.000000 -0.000000 0.000000
vn 1.000000 -0.000000 0.000000
vn 1.000000 0.000000 0.000000
vn 1.000000 -0.000000 0.000000
vn 0.000000 -0.979178 -0.203005
vn 0.000000 -0.979178 -0.203005
vn 0.000000 -0.873176 -0.487404
vn 0.000000 -0.873176 -0.487404
vn -1.000000 0.000000 0.000000
vn -1.000000 0.000000 0.000000
vn -1.000000 0.000000 0.000000
vn -1.000000 0.000000 0.000000
s off
usemtl initialShadingGroup
f 1/1/1 11/2/2 12/3/3 3/4/4
f 3/4/5 12/3/6 9/5/7 5/6/8
f 5/6/9 9/5/10 10/7/11 7/8/12
f 7/8/13 10/7/14 11/9/15 1/10/16
f 2/11/17 8/12/18 6/13/19 4/14/20
f 14/15/21 13/16/22 15/17/23 16/18/24
f 9/5/25 6/19/26 8/20/27 10/7/28
f 11/9/29 10/7/30 8/20/31 2/21/32
f 12/3/33 11/2/34 2/11/35 4/14/36
f 9/5/37 12/3/38 4/14/39 6/19/40
f 7/22/41 1/1/42 35/23/43 36/24/44
f 1/1/45 3/4/46 34/25/47 35/23/48
f 3/4/49 5/26/50 33/27/51 34/25/52
f 5/26/53 7/22/54 36/24/55 33/27/56
f 18/28/57 17/29/58 16/18/59 15/17/60
f 19/30/61 18/28/62 15/17/63 13/16/64
f 20/31/65 19/30/66 13/16/67 14/15/68
f 17/29/69 20/31/70 14/15/71 16/18/72
f 22/32/73 21/33/74 17/29/75 18/28/76
f 23/34/77 22/32/78 18/28/79 19/30/80
f 24/35/81 23/34/82 19/30/83 20/31/84
f 21/33/85 24/35/86 20/31/87 17/29/88
f 26/36/89 25/37/90 21/33/91 22/32/92
f 27/38/93 26/36/94 22/32/95 23/34/96
f 28/39/97 27/38/98 23/34/99 24/35/100
f 25/37/101 28/39/102 24/35/103 21/33/104
f 30/40/105 29/41/106 25/37/107 26/36/108
f 31/42/109 30/40/110 26/36/111 27/38/112
f 32/43/113 31/42/114 27/38/115 28/39/116
f 29/41/117 32/43/118 28/39/119 25/37/120
f 34/25/121 33/27/122 29/41/123 30/40/124
f 35/23/125 34/25/126 30/40/127 31/42/128
f 36/24/129 35/23/130 31/42/131 32/43/132
f 33/27/133 36/24/134 32/43/135 29/41/136
