# This file uses centimeters as units for non-parametric coordinates.

v -3.708042 -0.290332 3.250205
v 3.708042 -0.290332 3.250205
v -3.708042 0.290332 3.250205
v 3.708042 0.290332 3.250205
v -3.708042 0.290345 -3.026015
v 3.708042 0.290345 -3.026015
v -3.708042 -0.290311 -3.029101
v 3.708042 -0.290311 -3.029101
v -3.708042 -1.192493 4.208030
v 3.708042 -1.192493 4.208030
v 3.708042 -1.200444 4.788640
v -3.708042 -1.200444 4.788640
v 3.708042 1.248380 -3.908654
v -3.708042 1.248380 -3.908654
v 3.708042 1.292794 -4.487617
v -3.708042 1.292794 -4.487617
v -3.708042 0.888595 -3.862095
v -3.708042 0.698268 -4.410681
v 3.708042 0.698268 -4.410681
v 3.708042 0.888595 -3.862095
v -3.708042 0.577283 -3.675822
v -3.708042 0.183840 -4.102874
v 3.708042 0.183840 -4.102874
v 3.708042 0.577283 -3.675822
v -3.708042 0.366173 -3.380787
v -3.708042 -0.165009 -3.615344
v 3.708042 -0.165009 -3.615344
v 3.708042 0.366173 -3.380787
v -3.708042 -0.611926 4.674502
v 3.708042 -0.611926 4.674502
v 3.708042 -0.836344 4.138958
v -3.708042 -0.836344 4.138958
v -3.708042 -0.117854 4.334982
v 3.708042 -0.117854 4.334982
v 3.708042 -0.537351 3.933494
v -3.708042 -0.537351 3.933494
v -3.708042 0.199675 3.826498
v 3.708042 0.199675 3.826498
v 3.708042 -0.345194 3.625778
v -3.708042 -0.345194 3.625778
vt 0.375000 0.000000
vt 0.625000 0.000000
vt 0.625000 0.250000
vt 0.375000 0.250000
vt 0.375000 0.250000
vt 0.625000 0.250000
vt 0.625000 0.500000
vt 0.375000 0.500000
vt 0.375000 0.500000
vt 0.625000 0.500000
vt 0.625000 0.750000
vt 0.375000 0.750000
vt 0.375000 0.750000
vt 0.625000 0.750000
vt 0.625000 1.000000
vt 0.375000 1.000000
vt 0.625000 0.000000
vt 0.875000 0.000000
vt 0.875000 0.250000
vt 0.125000 0.000000
vt 0.375000 0.000000
vt 0.125000 0.250000
vt 0.625000 0.000000
vt 0.375000 0.000000
vt 0.625000 0.250000
vt 0.375000 0.250000
vt 0.625000 0.500000
vt 0.375000 0.500000
vt 0.625000 0.750000
vt 0.375000 0.750000
vt 0.375000 0.750000
vt 0.375000 0.500000
vt 0.625000 0.750000
vt 0.625000 0.500000
vt 0.375000 0.750000
vt 0.375000 0.500000
vt 0.625000 0.750000
vt 0.625000 0.500000
vt 0.625000 0.250000
vt 0.375000 0.250000
vt 0.625000 0.000000
vt 0.375000 0.000000
vt 0.625000 0.250000
vt 0.375000 0.250000
vt 0.625000 0.000000
vt 0.375000 0.000000
vn 0.000000 -0.999906 -0.013693
vn 0.000000 -0.999906 -0.013693
vn 0.000000 -0.999906 -0.013693
vn 0.000000 -0.999906 -0.013693
vn 0.000000 0.999913 0.013230
vn 0.000000 0.999913 0.013230
vn 0.000000 0.999935 0.011437
vn 0.000000 0.999935 0.011437
vn 0.000000 0.997070 0.076489
vn 0.000000 0.997070 0.076489
vn 0.000000 0.997070 0.076489
vn 0.000000 0.997070 0.076489
vn 0.000000 -0.999833 -0.018251
vn 0.000000 -0.999833 -0.018251
vn 0.000000 -0.999966 -0.008247
vn 0.000000 -0.999966 -0.008247
vn 1.000000 0.000000 0.000000
vn 1.000000 -0.000000 0.000000
vn 1.000000 -0.000000 0.000000
vn 1.000000 0.000000 0.000000
vn -1.000000 -0.000000 0.000000
vn -1.000000 -0.000000 0.000000
vn -1.000000 -0.000000 0.000000
vn -1.000000 -0.000000 0.000000
vn 0.000000 -0.940433 -0.339980
vn 0.000000 -0.940433 -0.339980
vn 1.000000 0.000000 0.000000
vn 1.000000 0.000000 0.000000
vn 0.000000 0.935933 0.352178
vn 0.000000 0.935933 0.352178
vn -1.000000 0.000000 0.000000
vn -1.000000 0.000000 0.000000
vn 0.000000 0.914783 0.403945
vn 0.000000 0.914783 0.403945
vn 1.000000 -0.000000 0.000000
vn 1.000000 -0.000000 0.000000
vn 0.000000 -0.914783 -0.403945
vn 0.000000 -0.914783 -0.403945
vn -1.000000 -0.000000 0.000000
vn -1.000000 -0.000000 0.000000
vn -1.000000 0.000000 0.000000
vn -1.000000 0.000000 0.000000
vn -1.000000 -0.000000 0.000000
vn -1.000000 -0.000000 0.000000
vn 0.000000 -0.327776 -0.944756
vn 0.000000 -0.327776 -0.944756
vn 0.000000 -0.128338 -0.991731
vn 0.000000 -0.128338 -0.991731
vn 1.000000 -0.000000 0.000000
vn 1.000000 -0.000000 0.000000
vn 1.000000 0.000000 0.000000
vn 1.000000 0.000000 0.000000
vn 0.000000 0.327776 0.944756
vn 0.000000 0.327776 0.944756
vn 0.000000 0.128337 0.991731
vn 0.000000 0.128337 0.991731
vn -1.000000 0.000000 0.000000
vn -1.000000 0.000000 0.000000
vn 0.000000 -0.677574 -0.735455
vn 0.000000 -0.677574 -0.735455
vn 1.000000 -0.000000 0.000000
vn 1.000000 -0.000000 0.000000
vn 0.000000 0.677575 0.735454
vn 0.000000 0.677575 0.735454
vn 0.000000 0.386487 0.922295
vn 0.000000 0.386487 0.922295
vn 0.000000 0.190394 0.981708
vn 0.000000 0.190394 0.981708
vn 1.000000 0.000000 0.000000
vn 1.000000 0.000000 0.000000
vn 1.000000 -0.000000 0.000000
vn 1.000000 -0.000000 0.000000
vn 0.000000 -0.386486 -0.922295
vn 0.000000 -0.386486 -0.922295
vn 0.000000 -0.190394 -0.981708
vn 0.000000 -0.190394 -0.981708
vn -1.000000 0.000000 0.000000
vn -1.000000 0.000000 0.000000
vn -1.000000 0.000000 0.000000
vn -1.000000 0.000000 0.000000
vn 0.000000 0.722443 0.691430
vn 0.000000 0.722443 0.691430
vn 1.000000 0.000001 0.000000
vn 1.000000 0.000001 0.000000
vn 0.000000 -0.722443 -0.691430
vn 0.000000 -0.722443 -0.691430
vn -1.000000 0.000000 0.000000
vn -1.000000 0.000000 0.000000
f 9/1/1 10/2/2 11/3/3 12/4/4
f 3/5/5 4/6/6 6/7/7 5/8/8
f 14/9/9 13/10/10 15/11/11 16/12/12
f 7/13/13 8/14/14 2/15/15 1/16/16
f 2/17/17 8/18/18 6/19/19 4/6/20
f 7/20/21 1/21/22 3/5/23 5/22/24
f 1/21/16 2/17/15 39/23/25 40/24/26
f 2/17/17 4/6/20 38/25/27 39/23/28
f 4/6/6 3/5/5 37/26/29 38/25/30
f 3/5/23 1/21/22 40/24/31 37/26/32
f 5/8/8 6/7/7 28/27/33 25/28/34
f 6/7/19 8/14/18 27/29/35 28/27/36
f 8/14/14 7/13/13 26/30/37 27/29/38
f 7/13/21 5/8/24 25/28/39 26/30/40
f 18/31/41 17/32/42 14/9/43 16/12/44
f 19/33/45 18/31/46 16/12/47 15/11/48
f 20/34/49 19/33/50 15/11/51 13/10/52
f 17/32/53 20/34/54 13/10/55 14/9/56
f 22/35/57 21/36/58 17/32/42 18/31/41
f 23/37/59 22/35/60 18/31/46 19/33/45
f 24/38/61 23/37/62 19/33/50 20/34/49
f 21/36/63 24/38/64 20/34/54 17/32/53
f 26/30/40 25/28/39 21/36/58 22/35/57
f 27/29/38 26/30/37 22/35/60 23/37/59
f 28/27/36 27/29/35 23/37/62 24/38/61
f 25/28/34 28/27/33 24/38/64 21/36/63
f 30/39/65 29/40/66 12/4/67 11/3/68
f 31/41/69 30/39/70 11/3/71 10/2/72
f 32/42/73 31/41/74 10/2/75 9/1/76
f 29/40/77 32/42/78 9/1/79 12/4/80
f 34/43/81 33/44/82 29/40/66 30/39/65
f 35/45/83 34/43/84 30/39/70 31/41/69
f 36/46/85 35/45/86 31/41/74 32/42/73
f 33/44/87 36/46/88 32/42/78 29/40/77
f 38/25/30 37/26/29 33/44/82 34/43/81
f 39/23/28 38/25/27 34/43/84 35/45/83
f 40/24/26 39/23/25 35/45/86 36/46/85
f 37/26/32 40/24/31 36/46/88 33/44/87
