# This file uses centimeters as units for non-parametric coordinates.

mtllib chair_Leg_5.mtl
v -3.735448 -0.212348 -4.018935
v -3.693221 -0.212348 1.529781
v -2.826669 -0.212348 2.826668
v -1.529783 -0.212348 3.693220
v -0.000001 -0.212348 3.997513
v 1.529781 -0.212348 3.693220
v 2.826668 -0.212348 2.826669
v 3.693220 -0.212348 1.529782
v 3.735448 -0.212348 -4.018935
v -3.735448 0.212348 -4.018935
v -3.693221 0.212348 1.529781
v -2.826669 0.212348 2.826668
v -1.529783 0.212348 3.693220
v -0.000001 0.212348 3.997513
v 1.529781 0.212348 3.693220
v 2.826668 0.212348 2.826669
v 3.693220 0.212348 1.529782
v 3.735448 0.212348 -4.018935
v 0.000000 -0.212348 0.000000
v 0.000000 0.212348 0.000000
vt 0.484375 0.312500
vt 0.500000 0.312500
vt 0.500000 0.688440
vt 0.484375 0.688440
vt 0.515625 0.312500
vt 0.515625 0.688440
vt 0.531250 0.312500
vt 0.531250 0.688440
vt 0.546875 0.312500
vt 0.546875 0.688440
vt 0.562500 0.312500
vt 0.562500 0.688440
vt 0.578125 0.312500
vt 0.578125 0.688440
vt 0.593750 0.312500
vt 0.593750 0.688440
vt 0.609375 0.312500
vt 0.609375 0.688440
vt 0.355644 0.216044
vt 0.343750 0.156250
vt 0.500000 0.150000
vt 0.389515 0.266735
vt 0.440206 0.300606
vt 0.500000 0.312500
vt 0.559794 0.300606
vt 0.610485 0.266735
vt 0.644356 0.216044
vt 0.656250 0.156250
vt 0.343750 0.843750
vt 0.355644 0.783956
vt 0.500000 0.837500
vt 0.389515 0.733265
vt 0.440206 0.699394
vt 0.500000 0.687500
vt 0.559794 0.699394
vt 0.610485 0.733265
vt 0.644356 0.783956
vt 0.656250 0.843750
vn -0.598426 0.000000 -0.801178
vn -0.991303 0.000000 0.131599
vn -0.991303 0.000000 0.131599
vn -0.598426 0.000000 -0.801178
vn -0.991303 0.000000 0.131599
vn -0.707107 0.000000 0.707107
vn -0.707107 0.000000 0.707107
vn -0.991303 0.000000 0.131599
vn -0.707107 0.000000 0.707107
vn -0.382684 0.000000 0.923879
vn -0.382684 0.000000 0.923879
vn -0.707107 0.000000 0.707107
vn -0.382684 0.000000 0.923879
vn 0.000000 0.000000 1.000000
vn 0.000000 0.000000 1.000000
vn -0.382684 0.000000 0.923879
vn 0.000000 0.000000 1.000000
vn 0.382683 0.000000 0.923880
vn 0.382683 0.000000 0.923880
vn 0.000000 0.000000 1.000000
vn 0.382683 0.000000 0.923880
vn 0.707107 0.000000 0.707107
vn 0.707107 0.000000 0.707107
vn 0.382683 0.000000 0.923880
vn 0.707107 0.000000 0.707107
vn 0.991303 0.000000 0.131599
vn 0.991303 0.000000 0.131599
vn 0.707107 0.000000 0.707107
vn 0.991303 0.000000 0.131599
vn 0.598426 0.000000 -0.801178
vn 0.598426 0.000000 -0.801178
vn 0.991303 0.000000 0.131599
vn 0.598426 0.000000 -0.801178
vn 0.598426 0.000000 -0.801178
vn -0.598426 0.000000 -0.801178
vn -0.598426 0.000000 -0.801178
vn 0.000000 -1.000000 0.000000
vn 0.000000 -1.000000 0.000000
vn 0.000000 -1.000000 0.000000
vn 0.000000 -1.000000 0.000000
vn 0.000000 -1.000000 0.000000
vn 0.000000 -1.000000 0.000000
vn 0.000000 -1.000000 0.000000
vn 0.000000 -1.000000 0.000000
vn 0.000000 -1.000000 0.000000
vn 0.000000 -1.000000 0.000000
vn 0.000000 -1.000000 0.000000
vn 0.000000 -1.000000 0.000000
vn 0.000000 -1.000000 0.000000
vn 0.000000 -1.000000 0.000000
vn 0.000000 -1.000000 0.000000
vn 0.000000 -1.000000 0.000000
vn 0.000000 -1.000000 0.000000
vn 0.000000 -1.000000 0.000000
vn 0.000000 -1.000000 0.000000
vn 0.000000 -1.000000 0.000000
vn 0.000000 -1.000000 0.000000
vn 0.000000 -1.000000 0.000000
vn 0.000000 -1.000000 0.000000
vn 0.000000 -1.000000 0.000000
vn 0.000000 -1.000000 0.000000
vn 0.000000 -1.000000 0.000000
vn 0.000000 -1.000000 0.000000
vn 0.000000 1.000000 0.000000
vn 0.000000 1.000000 0.000000
vn 0.000000 1.000000 0.000000
vn 0.000000 1.000000 0.000000
vn 0.000000 1.000000 0.000000
vn 0.000000 1.000000 0.000000
vn 0.000000 1.000000 0.000000
vn 0.000000 1.000000 0.000000
vn 0.000000 1.000000 0.000000
vn 0.000000 1.000000 0.000000
vn 0.000000 1.000000 0.000000
vn 0.000000 1.000000 0.000000
vn 0.000000 1.000000 0.000000
vn 0.000000 1.000000 0.000000
vn 0.000000 1.000000 0.000000
vn 0.000000 1.000000 0.000000
vn 0.000000 1.000000 0.000000
vn 0.000000 1.000000 0.000000
vn 0.000000 1.000000 0.000000
vn 0.000000 1.000000 0.000000
vn 0.000000 1.000000 0.000000
vn 0.000000 1.000000 0.000000
vn 0.000000 1.000000 0.000000
vn 0.000000 1.000000 0.000000
vn 0.000000 1.000000 0.000000
vn 0.000000 1.000000 0.000000
vn 0.000000 1.000000 0.000000
s off
usemtl initialShadingGroup
f 1/1/1 2/2/2 11/3/3 10/4/4
f 2/2/5 3/5/6 12/6/7 11/3/8
f 3/5/9 4/7/10 13/8/11 12/6/12
f 4/7/13 5/9/14 14/10/15 13/8/16
f 5/9/17 6/11/18 15/12/19 14/10/20
f 6/11/21 7/13/22 16/14/23 15/12/24
f 7/13/25 8/15/26 17/16/27 16/14/28
f 8/15/29 9/17/30 18/18/31 17/16/32
f 18/18/33 9/17/34 1/1/35 10/4/36
f 2/19/37 1/20/38 19/21/39
f 3/22/40 2/19/41 19/21/42
f 4/23/43 3/22/44 19/21/45
f 5/24/46 4/23/47 19/21/48
f 6/25/49 5/24/50 19/21/51
f 7/26/52 6/25/53 19/21/54
f 8/27/55 7/26/56 19/21/57
f 9/28/58 8/27/59 19/21/60
f 1/20/61 9/28/62 19/21/63
f 10/29/64 11/30/65 20/31/66
f 11/30/67 12/32/68 20/31/69
f 12/32/70 13/33/71 20/31/72
f 13/33/73 14/34/74 20/31/75
f 14/34/76 15/35/77 20/31/78
f 15/35/79 16/36/80 20/31/81
f 16/36/82 17/37/83 20/31/84
f 17/37/85 18/38/86 20/31/87
f 20/31/88 18/38/89 10/29/90
v -3.375922 -0.006207 -2.603885
v -3.337759 -0.006207 1.623322
v -2.554610 -0.006207 2.611336
v -1.382545 -0.006207 3.271506
v -0.000001 -0.006207 3.503327
v 1.382544 -0.006207 3.271506
v 2.554609 -0.006207 2.611337
v 3.337758 -0.006207 1.623323
v 3.375922 -0.006207 -2.603885
v -3.054189 0.399375 -2.735695
v -3.019663 0.399375 1.088650
v -2.311150 0.399375 1.982504
v -1.250786 0.399375 2.579759
v 0.000000 0.399375 2.789487
v 1.250785 0.399375 2.579759
v 2.311149 0.399375 1.982505
v 3.019663 0.399375 1.088651
v 3.054189 0.399375 -2.735695
v 0.000000 -0.006207 0.457881
v 0.000000 0.399375 0.034278
vt 0.484375 0.312500
vt 0.500000 0.312500
vt 0.500000 0.688440
vt 0.484375 0.688440
vt 0.515625 0.312500
vt 0.515625 0.688440
vt 0.531250 0.312500
vt 0.531250 0.688440
vt 0.546875 0.312500
vt 0.546875 0.688440
vt 0.562500 0.312500
vt 0.562500 0.688440
vt 0.578125 0.312500
vt 0.578125 0.688440
vt 0.593750 0.312500
vt 0.593750 0.688440
vt 0.609375 0.312500
vt 0.609375 0.688440
vt 0.355644 0.216044
vt 0.343750 0.156250
vt 0.500000 0.150000
vt 0.389515 0.266735
vt 0.440206 0.300606
vt 0.500000 0.312500
vt 0.559794 0.300606
vt 0.610485 0.266735
vt 0.644356 0.216044
vt 0.656250 0.156250
vt 0.343750 0.843750
vt 0.355644 0.783956
vt 0.500000 0.837500
vt 0.389515 0.733265
vt 0.440206 0.699394
vt 0.500000 0.687500
vt 0.559794 0.699394
vt 0.610485 0.733265
vt 0.644356 0.783956
vt 0.656250 0.843750
vn -0.782298 0.622864 0.007063
vn -0.782298 0.622864 0.007063
vn -0.782298 0.622864 0.007063
vn -0.782298 0.622864 0.007063
vn -0.699762 0.704542 0.118126
vn -0.342751 0.844325 0.411870
vn -0.348956 0.843278 0.408793
vn -0.710958 0.695420 0.104546
vn -0.342751 0.844325 0.411870
vn -0.164368 0.864265 0.475425
vn -0.167356 0.864068 0.474740
vn -0.348956 0.843278 0.408793
vn -0.164368 0.864265 0.475425
vn 0.000000 0.869461 0.494002
vn 0.000000 0.869461 0.494002
vn -0.167356 0.864068 0.474740
vn 0.000000 0.869461 0.494002
vn 0.164368 0.864265 0.475425
vn 0.167356 0.864068 0.474740
vn 0.000000 0.869461 0.494002
vn 0.164368 0.864265 0.475425
vn 0.342751 0.844325 0.411871
vn 0.348955 0.843278 0.408794
vn 0.167356 0.864068 0.474740
vn 0.342751 0.844325 0.411871
vn 0.699762 0.704542 0.118126
vn 0.710958 0.695420 0.104546
vn 0.348955 0.843278 0.408794
vn 0.699762 0.704542 0.118126
vn 0.542517 0.162509 -0.824176
vn 0.511807 0.130014 -0.849205
vn 0.710958 0.695420 0.104546
vn 0.511807 0.130014 -0.849205
vn 0.542517 0.162509 -0.824176
vn -0.542517 0.162509 -0.824176
vn -0.511807 0.130014 -0.849205
vn 0.000000 -1.000000 0.000000
vn 0.000000 -1.000000 0.000000
vn 0.000000 -1.000000 0.000000
vn 0.000000 -1.000000 0.000000
vn 0.000000 -1.000000 0.000000
vn 0.000000 -1.000000 0.000000
vn 0.000000 -1.000000 0.000000
vn 0.000000 -1.000000 0.000000
vn 0.000000 -1.000000 0.000000
vn 0.000000 -1.000000 0.000000
vn 0.000000 -1.000000 0.000000
vn 0.000000 -1.000000 0.000000
vn 0.000000 -1.000000 0.000000
vn 0.000000 -1.000000 0.000000
vn 0.000000 -1.000000 0.000000
vn 0.000000 -1.000000 0.000000
vn 0.000000 -1.000000 0.000000
vn 0.000000 -1.000000 0.000000
vn 0.000000 -1.000000 0.000000
vn 0.000000 -1.000000 0.000000
vn 0.000000 -1.000000 0.000000
vn 0.000000 -1.000000 0.000000
vn 0.000000 -1.000000 0.000000
vn 0.000000 -1.000000 0.000000
vn 0.000000 -1.000000 0.000000
vn 0.000000 -1.000000 0.000000
vn 0.000000 -1.000000 0.000000
vn 0.000000 1.000000 0.000000
vn 0.000000 1.000000 0.000000
vn 0.000000 1.000000 0.000000
vn 0.000000 1.000000 0.000000
vn 0.000000 1.000000 0.000000
vn 0.000000 1.000000 0.000000
vn 0.000000 1.000000 0.000000
vn 0.000000 1.000000 0.000000
vn 0.000000 1.000000 0.000000
vn 0.000000 1.000000 0.000000
vn 0.000000 1.000000 0.000000
vn 0.000000 1.000000 0.000000
vn 0.000000 1.000000 0.000000
vn 0.000000 1.000000 0.000000
vn 0.000000 1.000000 0.000000
vn 0.000000 1.000000 0.000000
vn 0.000000 1.000000 0.000000
vn 0.000000 1.000000 0.000000
vn 0.000000 1.000000 0.000000
vn 0.000000 1.000000 0.000000
vn 0.000000 1.000000 0.000000
vn 0.000000 1.000000 0.000000
vn 0.000000 1.000000 0.000000
vn 0.000000 1.000000 0.000000
vn 0.000000 1.000000 0.000000
vn 0.000000 1.000000 0.000000
vn 0.000000 1.000000 0.000000
s off
f 21/39/91 22/40/92 31/41/93 30/42/94
f 22/40/95 23/43/96 32/44/97 31/41/98
f 23/43/99 24/45/100 33/46/101 32/44/102
f 24/45/103 25/47/104 34/48/105 33/46/106
f 25/47/107 26/49/108 35/50/109 34/48/110
f 26/49/111 27/51/112 36/52/113 35/50/114
f 27/51/115 28/53/116 37/54/117 36/52/118
f 28/53/119 29/55/120 38/56/121 37/54/122
f 38/56/123 29/55/124 21/39/125 30/42/126
f 22/57/127 21/58/128 39/59/129
f 23/60/130 22/57/131 39/59/132
f 24/61/133 23/60/134 39/59/135
f 25/62/136 24/61/137 39/59/138
f 26/63/139 25/62/140 39/59/141
f 27/64/142 26/63/143 39/59/144
f 28/65/145 27/64/146 39/59/147
f 29/66/148 28/65/149 39/59/150
f 21/58/151 29/66/152 39/59/153
f 30/67/154 31/68/155 40/69/156
f 31/68/157 32/70/158 40/69/159
f 32/70/160 33/71/161 40/69/162
f 33/71/163 34/72/164 40/69/165
f 34/72/166 35/73/167 40/69/168
f 35/73/169 36/74/170 40/69/171
f 36/74/172 37/75/173 40/69/174
f 37/75/175 38/76/176 40/69/177
f 40/69/178 38/76/179 30/67/180
