# This file uses centimeters as units for non-parametric coordinates.

mtllib chair_Seat_1.mtl
v -3.708042 -0.290332 4.018935
v 3.708042 -0.290332 4.018935
v -3.708042 0.290332 4.018935
v 3.708042 0.290332 4.018935
v -3.708042 0.290332 -4.018935
v 3.708042 0.290332 -4.018935
v -3.708042 -0.290332 -4.018935
v 3.708042 -0.290332 -4.018935
vt 0.010046 0.367686
vt 0.008127 0.140290
vt 0.016452 0.148475
vt 0.018232 0.359360
vt 0.245019 0.146547
vt 0.246799 0.357431
vt 0.253205 0.138221
vt 0.255125 0.365618
vt 0.490098 0.144478
vt 0.491877 0.355364
vn 0.000000 0.000000 1.000000
vn 0.000000 0.000000 1.000000
vn 0.000000 0.000000 1.000000
vn 0.000000 0.000000 1.000000
vn 0.000000 1.000000 0.000000
vn 0.000000 1.000000 0.000000
vn 0.000000 1.000000 0.000000
vn 0.000000 1.000000 0.000000
vn 0.000000 0.000000 -1.000000
vn 0.000000 0.000000 -1.000000
vn 0.000000 0.000000 -1.000000
vn 0.000000 0.000000 -1.000000
vn 0.000000 -1.000000 0.000000
vn 0.000000 -1.000000 0.000000
vn 0.000000 -1.000000 0.000000
vn 0.000000 -1.000000 0.000000
vn 1.000000 0.000000 0.000000
vn 1.000000 0.000000 0.000000
vn 1.000000 0.000000 0.000000
vn 1.000000 0.000000 0.000000
vn -1.000000 0.000000 0.000000
vn -1.000000 0.000000 0.000000
vn -1.000000 0.000000 0.000000
vn -1.000000 0.000000 0.000000
s off
usemtl chair_Seat_1_initialShadingGroup
f 1/1/1 2/2/2 4/3/3 3/4/4
f 3/4/5 4/3/6 6/5/7 5/6/8
f 5/6/9 6/5/10 8/7/11 7/8/12
f 7/8/13 8/7/14 2/9/15 1/10/16
f 2/2/17 8/7/18 6/5/19 4/3/20
f 7/8/21 1/1/22 3/4/23 5/6/24
