# This file uses centimeters as units for non-parametric coordinates.

mtllib chair_Seat_3.mtl
v -3.708042 -0.290332 3.250205
v 3.708042 -0.290332 3.250205
v -3.708042 0.290332 3.250205
v 3.708042 0.290332 3.250205
v -3.708042 0.290345 -3.026015
v 3.708042 0.290345 -3.026015
v -3.708042 -0.290311 -3.029101
v 3.708042 -0.290311 -3.029101
v -3.708042 -1.192493 4.208030
v 3.708042 -1.192493 4.208030
v 3.708042 -1.200444 4.788640
v -3.708042 -1.200444 4.788640
v 3.708042 1.248380 -3.908654
v -3.708042 1.248380 -3.908654
v 3.708042 1.292794 -4.487617
v -3.708042 1.292794 -4.487617
v -3.708042 0.888595 -3.862095
v -3.708042 0.698268 -4.410681
v 3.708042 0.698268 -4.410681
v 3.708042 0.888595 -3.862095
v -3.708042 0.577283 -3.675822
v -3.708042 0.183840 -4.102874
v 3.708042 0.183840 -4.102874
v 3.708042 0.577283 -3.675822
v -3.708042 0.366173 -3.380787
v -3.708042 -0.165009 -3.615344
v 3.708042 -0.165009 -3.615344
v 3.708042 0.366173 -3.380787
v -3.708042 -0.611926 4.674502
v 3.708042 -0.611926 4.674502
v 3.708042 -0.836344 4.138958
v -3.708042 -0.836344 4.138958
v -3.708042 -0.117854 4.334982
v 3.708042 -0.117854 4.334982
v 3.708042 -0.537351 3.933494
v -3.708042 -0.537351 3.933494
v -3.708042 0.199675 3.826498
v 3.708042 0.199675 3.826498
v 3.708042 -0.345194 3.625778
v -3.708042 -0.345194 3.625778
vt 0.244763 0.075467
vt 0.245176 0.196993
vt 0.235475 0.196947
vt 0.235202 0.075695
vt 0.197056 0.077660
vt 0.196496 0.195404
vt 0.097832 0.204407
vt 0.089476 0.074838
vt 0.422327 0.073145
vt 0.423392 0.195949
vt 0.413761 0.196039
vt 0.412697 0.073237
vt 0.372943 0.073645
vt 0.373975 0.196383
vt 0.269662 0.197037
vt 0.268968 0.074962
vt 0.199506 0.204545
vt 0.100989 0.213538
vt 0.091723 0.065328
vt 0.199455 0.068280
vt 0.263335 0.197034
vt 0.262705 0.075084
vt 0.205932 0.194647
vt 0.207409 0.203606
vt 0.206401 0.078267
vt 0.207533 0.069192
vt 0.091766 0.205116
vt 0.083412 0.074733
vt 0.093678 0.214805
vt 0.382879 0.073538
vt 0.383924 0.196302
vt 0.083626 0.064690
vt 0.067738 0.066878
vt 0.071317 0.075812
vt 0.065418 0.077007
vt 0.059668 0.070350
vt 0.403817 0.196129
vt 0.402756 0.073334
vt 0.079552 0.205378
vt 0.077594 0.215209
vt 0.068486 0.212753
vt 0.073521 0.204798
vt 0.075673 0.065322
vt 0.077341 0.075072
vt 0.393871 0.196217
vt 0.392817 0.073435
vt 0.085658 0.205447
vt 0.085938 0.215418
vt 0.225568 0.195350
vt 0.225643 0.077403
vt 0.222713 0.204478
vt 0.229151 0.206354
vt 0.250740 0.075333
vt 0.251232 0.197013
vt 0.222740 0.068636
vt 0.228954 0.066878
vt 0.215716 0.194627
vt 0.216028 0.078203
vt 0.215212 0.203686
vt 0.256721 0.075206
vt 0.257285 0.197026
vt 0.215320 0.069252
vn 0.000000 -0.999906 -0.013693
vn 0.000000 -0.999906 -0.013693
vn 0.000000 -0.999906 -0.013693
vn 0.000000 -0.999906 -0.013693
vn 0.000000 0.999913 0.013230
vn 0.000000 0.999913 0.013230
vn 0.000000 0.999935 0.011437
vn 0.000000 0.999935 0.011437
vn 0.000000 0.997070 0.076489
vn 0.000000 0.997070 0.076489
vn 0.000000 0.997070 0.076489
vn 0.000000 0.997070 0.076489
vn 0.000000 -0.999833 -0.018251
vn 0.000000 -0.999833 -0.018251
vn 0.000000 -0.999966 -0.008247
vn 0.000000 -0.999966 -0.008247
vn 1.000000 0.000000 0.000000
vn 1.000000 -0.000000 0.000000
vn 1.000000 -0.000000 0.000000
vn 1.000000 0.000000 0.000000
vn -1.000000 0.000000 0.000000
vn -1.000000 0.000000 0.000000
vn -1.000000 0.000000 0.000000
vn -1.000000 0.000000 0.000000
vn 0.000000 -0.999966 -0.008247
vn 0.000000 -0.999966 -0.008247
vn 0.000000 -0.940433 -0.339980
vn 0.000000 -0.940433 -0.339980
vn 1.000000 0.000000 0.000000
vn 1.000000 0.000000 0.000000
vn 1.000000 0.000000 0.000000
vn 1.000000 0.000000 0.000000
vn 0.000000 0.999913 0.013230
vn 0.000000 0.999913 0.013230
vn 0.000000 0.935933 0.352178
vn 0.000000 0.935933 0.352178
vn -1.000000 0.000000 0.000000
vn -1.000000 0.000000 0.000000
vn -1.000000 0.000000 0.000000
vn -1.000000 0.000000 0.000000
vn 0.000000 0.999935 0.011437
vn 0.000000 0.999935 0.011437
vn 0.000000 0.914783 0.403945
vn 0.000000 0.914783 0.403945
vn 1.000000 -0.000000 0.000000
vn 1.000000 -0.000000 0.000000
vn 1.000000 -0.000000 0.000000
vn 1.000000 -0.000000 0.000000
vn 0.000000 -0.999833 -0.018251
vn 0.000000 -0.999833 -0.018251
vn 0.000000 -0.914783 -0.403945
vn 0.000000 -0.914783 -0.403945
vn -1.000000 0.000000 0.000000
vn -1.000000 0.000000 0.000000
vn -1.000000 0.000000 0.000000
vn -1.000000 0.000000 0.000000
vn -1.000000 0.000000 0.000000
vn -1.000000 0.000000 0.000000
vn -1.000000 0.000000 0.000000
vn -1.000000 0.000000 0.000000
vn 0.000000 -0.327776 -0.944756
vn 0.000000 -0.327776 -0.944756
vn 0.000000 -0.128338 -0.991731
vn 0.000000 -0.128338 -0.991731
vn 1.000000 -0.000000 0.000000
vn 1.000000 -0.000000 0.000000
vn 1.000000 0.000000 0.000000
vn 1.000000 0.000000 0.000000
vn 0.000000 0.327776 0.944756
vn 0.000000 0.327776 0.944756
vn 0.000000 0.128337 0.991731
vn 0.000000 0.128337 0.991731
vn -1.000000 0.000000 0.000000
vn -1.000000 0.000000 0.000000
vn -1.000000 0.000000 0.000000
vn -1.000000 0.000000 0.000000
vn 0.000000 -0.677574 -0.735455
vn 0.000000 -0.677574 -0.735455
vn 0.000000 -0.327776 -0.944756
vn 0.000000 -0.327776 -0.944756
vn 1.000000 -0.000000 0.000000
vn 1.000000 -0.000000 0.000000
vn 1.000000 -0.000000 0.000000
vn 1.000000 -0.000000 0.000000
vn 0.000000 0.677575 0.735454
vn 0.000000 0.677575 0.735454
vn 0.000000 0.327776 0.944756
vn 0.000000 0.327776 0.944756
vn -1.000000 0.000000 0.000000
vn -1.000000 0.000000 0.000000
vn -1.000000 0.000000 0.000000
vn -1.000000 0.000000 0.000000
vn 0.000000 -0.914783 -0.403945
vn 0.000000 -0.914783 -0.403945
vn 0.000000 -0.677574 -0.735455
vn 0.000000 -0.677574 -0.735455
vn 1.000000 -0.000000 0.000000
vn 1.000000 -0.000000 0.000000
vn 1.000000 -0.000000 0.000000
vn 1.000000 -0.000000 0.000000
vn 0.000000 0.914783 0.403945
vn 0.000000 0.914783 0.403945
vn 0.000000 0.677575 0.735454
vn 0.000000 0.677575 0.735454
vn 0.000000 0.386487 0.922295
vn 0.000000 0.386487 0.922295
vn 0.000000 0.190394 0.981708
vn 0.000000 0.190394 0.981708
vn 1.000000 0.000000 0.000000
vn 1.000000 0.000000 0.000000
vn 1.000000 -0.000000 0.000000
vn 1.000000 -0.000000 0.000000
vn 0.000000 -0.386486 -0.922295
vn 0.000000 -0.386486 -0.922295
vn 0.000000 -0.190394 -0.981708
vn 0.000000 -0.190394 -0.981708
vn -1.000000 0.000000 0.000000
vn -1.000000 0.000000 0.000000
vn -1.000000 0.000000 0.000000
vn -1.000000 0.000000 0.000000
vn 0.000000 0.722443 0.691430
vn 0.000000 0.722443 0.691430
vn 0.000000 0.386487 0.922295
vn 0.000000 0.386487 0.922295
vn 1.000000 0.000001 0.000000
vn 1.000000 0.000001 0.000000
vn 1.000000 0.000000 0.000000
vn 1.000000 0.000000 0.000000
vn 0.000000 -0.722443 -0.691430
vn 0.000000 -0.722443 -0.691430
vn 0.000000 -0.386486 -0.922295
vn 0.000000 -0.386486 -0.922295
vn -1.000000 0.000000 0.000000
vn -1.000000 0.000000 0.000000
vn -1.000000 0.000000 0.000000
vn -1.000000 0.000000 0.000000
vn 0.000000 0.935933 0.352178
vn 0.000000 0.935933 0.352178
vn 0.000000 0.722443 0.691430
vn 0.000000 0.722443 0.691430
vn 1.000000 0.000000 0.000000
vn 1.000000 0.000000 0.000000
vn 1.000000 0.000001 0.000000
vn 1.000000 0.000001 0.000000
vn 0.000000 -0.940433 -0.339980
vn 0.000000 -0.940433 -0.339980
vn 0.000000 -0.722443 -0.691430
vn 0.000000 -0.722443 -0.691430
vn -1.000000 0.000000 0.000000
vn -1.000000 0.000000 0.000000
vn -1.000000 0.000000 0.000000
vn -1.000000 0.000000 0.000000
s off
usemtl chair_Seat_3_initialShadingGroup
f 9/1/1 10/2/2 11/3/3 12/4/4
f 3/5/5 4/6/6 6/7/7 5/8/8
f 14/9/9 13/10/10 15/11/11 16/12/12
f 7/13/13 8/14/14 2/15/15 1/16/16
f 2/17/17 8/18/18 6/7/19 4/6/20
f 7/19/21 1/20/22 3/5/23 5/8/24
f 1/16/25 2/15/26 39/21/27 40/22/28
f 2/17/29 4/6/30 38/23/31 39/24/32
f 4/6/33 3/5/34 37/25/35 38/23/36
f 3/5/37 1/20/38 40/26/39 37/25/40
f 5/8/41 6/7/42 28/27/43 25/28/44
f 6/7/45 8/18/46 27/29/47 28/27/48
f 8/14/49 7/13/50 26/30/51 27/31/52
f 7/19/53 5/8/54 25/28/55 26/32/56
f 18/33/57 17/34/58 14/35/59 16/36/60
f 19/37/61 18/38/62 16/12/63 15/11/64
f 20/39/65 19/40/66 15/41/67 13/42/68
f 17/34/69 20/39/70 13/42/71 14/35/72
f 22/43/73 21/44/74 17/34/75 18/33/76
f 23/45/77 22/46/78 18/38/79 19/37/80
f 24/47/81 23/48/82 19/40/83 20/39/84
f 21/44/85 24/47/86 20/39/87 17/34/88
f 26/32/89 25/28/90 21/44/91 22/43/92
f 27/31/93 26/30/94 22/46/95 23/45/96
f 28/27/97 27/29/98 23/48/99 24/47/100
f 25/28/101 28/27/102 24/47/103 21/44/104
f 30/49/105 29/50/106 12/4/107 11/3/108
f 31/51/109 30/49/110 11/3/111 10/52/112
f 32/53/113 31/54/114 10/2/115 9/1/116
f 29/50/117 32/55/118 9/56/119 12/4/120
f 34/57/121 33/58/122 29/50/123 30/49/124
f 35/59/125 34/57/126 30/49/127 31/51/128
f 36/60/129 35/61/130 31/54/131 32/53/132
f 33/58/133 36/62/134 32/55/135 29/50/136
f 38/23/137 37/25/138 33/58/139 34/57/140
f 39/24/141 38/23/142 34/57/143 35/59/144
f 40/22/145 39/21/146 35/61/147 36/60/148
f 37/25/149 40/26/150 36/62/151 33/58/152
