# This file uses centimeters as units for non-parametric coordinates.

g default
v -0.500000 -6.474298 0.500000
v 0.500000 -6.474298 0.500000
v -0.500000 0.000000 0.500000
v 0.500000 0.000000 0.500000
v -0.500000 0.000000 -0.500000
v 0.500000 0.000000 -0.500000
v -0.500000 -6.474298 -0.500000
v 0.500000 -6.474298 -0.500000
vt 0.997522 0.000977
vt 1.334577 0.000977
vt 1.334577 2.183171
vt 0.997522 2.183172
vt 0.323412 0.000977
vt 0.660467 0.000977
vt 0.660467 2.183171
vt 0.323412 2.183171
vt -0.013643 2.183171
vt -0.013643 0.000977
vt 0.997521 2.520227
vt 0.660466 2.520226
vt 0.660467 -0.336078
vt 0.997522 -0.336078
vn 0.000000 0.000000 1.000000
vn 0.000000 0.000000 1.000000
vn 0.000000 0.000000 1.000000
vn 0.000000 0.000000 1.000000
vn 0.000000 1.000000 0.000000
vn 0.000000 1.000000 0.000000
vn 0.000000 1.000000 0.000000
vn 0.000000 1.000000 0.000000
vn 0.000000 0.000000 -1.000000
vn 0.000000 0.000000 -1.000000
vn 0.000000 0.000000 -1.000000
vn 0.000000 0.000000 -1.000000
vn 0.000000 -1.000000 0.000000
vn 0.000000 -1.000000 0.000000
vn 0.000000 -1.000000 0.000000
vn 0.000000 -1.000000 0.000000
vn 1.000000 0.000000 0.000000
vn 1.000000 0.000000 0.000000
vn 1.000000 0.000000 0.000000
vn 1.000000 0.000000 0.000000
vn -1.000000 0.000000 0.000000
vn -1.000000 0.000000 0.000000
vn -1.000000 0.000000 0.000000
vn -1.000000 0.000000 0.000000
s off
g ghost_Mesh
f 1/6/1 2/1/2 4/4/3 3/7/4
f 3/7/5 4/4/6 6/11/7 5/12/8
f 5/8/9 6/9/10 8/10/11 7/5/12
f 7/13/13 8/14/14 2/1/15 1/6/16
f 2/1/17 8/2/18 6/3/19 4/4/20
f 7/5/21 1/6/22 3/7/23 5/8/24
