# This file uses centimeters as units for non-parametric coordinates.

g default
v -4.184502 -0.290332 3.833064
v 4.184502 -0.290332 3.833064
v -4.184502 0.290332 3.833064
v 4.184502 0.290332 3.833064
v -3.343044 0.290332 -4.018935
v 3.343044 0.290332 -4.018935
v -3.343044 -0.290332 -4.018935
v 3.343044 -0.290332 -4.018935
v -4.657388 0.290332 2.066313
v 4.657388 0.290332 2.066313
v 4.657388 -0.290332 2.066313
v -4.657388 -0.290332 2.066313
v -2.475495 0.290332 4.825397
v -2.475495 -0.290332 4.825397
v -2.096728 -0.290332 2.066313
v -1.669338 -0.290332 -4.018935
v -1.669338 0.290332 -4.018935
v -2.096728 0.290332 2.066313
v 2.475496 0.290332 4.825397
v 2.475496 -0.290332 4.825397
v 2.096729 -0.290332 2.066313
v 1.669338 -0.290332 -4.018935
v 1.669338 0.290332 -4.018935
v 2.096729 0.290332 2.066313
v -4.636341 0.290332 2.954730
v -2.287193 0.290332 3.453728
v 2.287193 0.290332 3.453728
v 4.636341 0.290332 2.954730
v 4.636341 -0.290332 2.954730
v 2.287193 -0.290332 3.453728
v -2.287193 -0.290332 3.453728
v -4.636341 -0.290332 2.954730
v -3.487836 0.290332 4.472145
v -3.487836 -0.290332 4.472145
v -3.353394 -0.290332 3.204229
v -3.377058 -0.290332 2.066313
v -2.688690 -0.290332 -4.018935
v -2.688690 0.290332 -4.018935
v -3.377058 0.290332 2.066313
v -3.353394 0.290332 3.204229
v 3.487837 0.290332 4.472145
v 3.487837 -0.290332 4.472145
v 3.353395 -0.290332 3.204229
v 3.377058 -0.290332 2.066313
v 2.688690 -0.290332 -4.018935
v 2.688690 0.290332 -4.018935
v 3.377058 0.290332 2.066313
v 3.353395 0.290332 3.204229
vt 0.375000 0.000000
vt 0.625000 0.000000
vt 0.625000 0.250000
vt 0.375000 0.250000
vt 0.625000 0.500000
vt 0.375000 0.500000
vt 0.625000 0.750000
vt 0.375000 0.750000
vt 0.625000 1.000000
vt 0.375000 1.000000
vt 0.875000 0.000000
vt 0.875000 0.250000
vt 0.125000 0.000000
vt 0.125000 0.250000
vt 0.375000 0.338504
vt 0.286496 0.250000
vt 0.625000 0.338504
vt 0.713504 0.250000
vt 0.625000 0.911496
vt 0.713504 0.000000
vt 0.375000 0.911496
vt 0.286496 0.000000
vt 0.458333 0.250000
vt 0.458333 0.000000
vt 0.458333 1.000000
vt 0.458333 0.911496
vt 0.458333 0.750000
vt 0.458333 0.500000
vt 0.458333 0.338504
vt 0.541667 0.250000
vt 0.541667 0.000000
vt 0.541667 1.000000
vt 0.541667 0.911496
vt 0.541667 0.750000
vt 0.541667 0.500000
vt 0.541667 0.338504
vt 0.375000 0.293999
vt 0.331001 0.250000
vt 0.458333 0.293999
vt 0.541667 0.293999
vt 0.625000 0.293999
vt 0.668999 0.250000
vt 0.625000 0.956001
vt 0.668999 0.000000
vt 0.541667 0.956001
vt 0.458333 0.956001
vt 0.375000 0.956001
vt 0.331001 0.000000
vt 0.416667 0.250000
vt 0.416667 0.000000
vt 0.416667 1.000000
vt 0.416667 0.956001
vt 0.416667 0.911496
vt 0.416667 0.750000
vt 0.416667 0.500000
vt 0.416667 0.338504
vt 0.416667 0.293999
vt 0.583333 0.250000
vt 0.583333 0.000000
vt 0.583333 1.000000
vt 0.583333 0.956001
vt 0.583333 0.911496
vt 0.583333 0.750000
vt 0.583333 0.500000
vt 0.583333 0.338504
vt 0.583333 0.293999
vn 0.502138 0.000000 0.864788
vn 0.000000 0.000000 1.000000
vn 0.000000 0.000000 1.000000
vn 0.502138 0.000000 0.864788
vn 0.000000 1.000000 0.000000
vn 0.000000 1.000000 0.000000
vn 0.000000 1.000000 0.000000
vn 0.000000 1.000000 -0.000000
vn 0.000000 0.000000 -1.000000
vn 0.000000 0.000000 -1.000000
vn 0.000000 0.000000 -1.000000
vn 0.000000 0.000000 -1.000000
vn 0.000000 -1.000000 -0.000000
vn 0.000000 -1.000000 0.000000
vn 0.000000 -1.000000 0.000000
vn 0.000000 -1.000000 0.000000
vn 0.983235 0.000000 -0.182345
vn 1.000000 0.000000 0.000000
vn 1.000000 0.000000 0.000000
vn 0.983235 0.000000 -0.182345
vn -1.000000 0.000000 0.000000
vn -0.983235 0.000000 -0.182345
vn -0.983235 0.000000 -0.182345
vn -1.000000 0.000000 0.000000
vn 0.000000 1.000000 -0.000000
vn 0.000000 1.000000 -0.000000
vn 0.965996 0.000000 0.258557
vn 0.965996 0.000000 0.258557
vn 0.000000 -1.000000 -0.000000
vn 0.000000 -1.000000 -0.000000
vn -0.965996 0.000000 0.258557
vn -0.965996 0.000000 0.258557
vn -0.502138 0.000000 0.864788
vn -0.059134 0.000000 0.998250
vn -0.059134 0.000000 0.998250
vn -0.502138 0.000000 0.864788
vn 0.000000 -1.000000 -0.000000
vn 0.000000 -1.000000 0.000000
vn 0.000000 -1.000000 -0.000000
vn 0.000000 -1.000000 0.000000
vn 0.000000 -1.000000 0.000000
vn 0.000000 -1.000000 0.000000
vn 0.000000 0.000000 -1.000000
vn 0.000000 0.000000 -1.000000
vn 0.000000 0.000000 -1.000000
vn 0.000000 0.000000 -1.000000
vn 0.000000 1.000000 -0.000000
vn 0.000000 1.000000 0.000000
vn 0.000000 1.000000 0.000000
vn 0.000000 1.000000 0.000000
vn 0.000000 1.000000 0.000000
vn 0.000000 1.000000 0.000000
vn 0.059134 0.000000 0.998250
vn 0.059134 0.000000 0.998250
vn 0.000000 -1.000000 0.000000
vn 0.000000 -1.000000 -0.000000
vn 0.000000 -1.000000 0.000000
vn 0.000000 0.000000 -1.000000
vn 0.000000 0.000000 -1.000000
vn 0.000000 1.000000 0.000000
vn 0.000000 1.000000 0.000000
vn 0.000000 1.000000 0.000000
vn 0.000000 1.000000 0.000000
vn 0.000000 1.000000 -0.000000
vn 0.000000 1.000000 -0.000000
vn 0.000000 1.000000 -0.000000
vn 0.000000 1.000000 0.000000
vn 1.000000 0.000000 0.000000
vn 1.000000 0.000000 0.000000
vn 0.000000 -1.000000 0.000000
vn 0.000000 -1.000000 -0.000000
vn 0.000000 -1.000000 -0.000000
vn 0.000000 -1.000000 -0.000000
vn 0.000000 -1.000000 0.000000
vn -1.000000 0.000000 0.000000
vn -1.000000 0.000000 0.000000
vn 0.000000 0.000000 1.000000
vn 0.000000 0.000000 1.000000
vn 0.000000 -1.000000 0.000000
vn 0.000000 -1.000000 0.000000
vn 0.000000 -1.000000 0.000000
vn 0.000000 -1.000000 0.000000
vn 0.000000 0.000000 -1.000000
vn 0.000000 0.000000 -1.000000
vn 0.000000 1.000000 0.000000
vn 0.000000 1.000000 0.000000
vn 0.000000 1.000000 0.000000
vn 0.000000 1.000000 0.000000
s 1
g ghost_pCube1
f 42/59/1 2/2/2 4/3/3 41/58/4
s 2
f 47/65/5 10/17/6 6/5/7 46/64/8
s 3
f 46/64/9 6/5/10 8/7/11 45/63/12
s 4
f 45/63/13 8/7/14 11/19/15 44/62/16
s 5
f 11/20/17 8/11/18 6/12/19 10/18/20
s 6
f 7/13/21 12/22/22 9/16/23 5/14/24
s 2
f 47/65/5 48/66/25 28/41/26 10/17/6
s 5
f 29/44/27 11/20/17 10/18/20 28/42/28
s 4
f 44/62/16 11/19/15 29/43/29 43/61/30
s 6
f 9/16/23 12/22/22 32/48/31 25/38/32
s 1
f 34/50/33 14/24/34 13/23/35 33/49/36
s 4
f 36/53/37 15/26/38 31/46/39 35/52/40
f 37/54/41 16/27/42 15/26/38 36/53/37
s 3
f 38/55/43 17/28/44 16/27/45 37/54/46
s 2
f 39/56/47 18/29/48 17/28/49 38/55/50
f 40/57/51 26/39/52 18/29/48 39/56/47
s 1
f 14/24/34 20/31/53 19/30/54 13/23/35
s 4
f 15/26/38 21/33/55 30/45/56 31/46/39
f 16/27/42 22/34/57 21/33/55 15/26/38
s 3
f 17/28/44 23/35/58 22/34/59 16/27/45
s 2
f 18/29/48 24/36/60 23/35/61 17/28/49
f 18/29/48 26/39/52 27/40/62 24/36/60
f 40/57/51 33/49/63 13/23/64 26/39/52
f 27/40/62 26/39/52 13/23/64 19/30/65
f 28/41/26 48/66/25 41/58/66 4/3/67
s 5
f 2/2/68 29/44/27 28/42/28 4/3/69
s 4
f 43/61/30 29/43/29 2/9/70 42/60/71
f 31/46/39 30/45/56 20/32/72 14/25/73
f 35/52/40 31/46/39 14/25/73 34/51/74
s 6
f 25/38/32 32/48/31 1/1/75 3/4/76
s 1
f 1/1/77 34/50/33 33/49/36 3/4/78
s 4
f 32/47/79 35/52/40 34/51/74 1/10/80
f 12/21/81 36/53/37 35/52/40 32/47/79
f 7/8/82 37/54/41 36/53/37 12/21/81
s 3
f 5/6/83 38/55/43 37/54/46 7/8/84
s 2
f 9/15/85 39/56/47 38/55/50 5/6/86
f 25/37/87 40/57/51 39/56/47 9/15/85
f 3/4/88 33/49/63 40/57/51 25/37/87
s 1
f 20/31/53 42/59/1 41/58/4 19/30/54
s 4
f 30/45/56 43/61/30 42/60/71 20/32/72
f 21/33/55 44/62/16 43/61/30 30/45/56
f 22/34/57 45/63/13 44/62/16 21/33/55
s 3
f 23/35/58 46/64/9 45/63/12 22/34/59
s 2
f 24/36/60 47/65/5 46/64/8 23/35/61
f 24/36/60 27/40/62 48/66/25 47/65/5
f 41/58/66 48/66/25 27/40/62 19/30/65
