# This file uses centimeters as units for non-parametric coordinates.

mtllib chair_Seat_2.mtl
v -4.184502 -0.290332 3.833064
v 4.184502 -0.290332 3.833064
v -4.184502 0.290332 3.833064
v 4.184502 0.290332 3.833064
v -3.343044 0.290332 -4.018935
v 3.343044 0.290332 -4.018935
v -3.343044 -0.290332 -4.018935
v 3.343044 -0.290332 -4.018935
v -4.657388 0.290332 2.066313
v 4.657388 0.290332 2.066313
v 4.657388 -0.290332 2.066313
v -4.657388 -0.290332 2.066313
v -2.475495 0.290332 4.825397
v -2.475495 -0.290332 4.825397
v -2.096728 -0.290332 2.066313
v -1.669338 -0.290332 -4.018935
v -1.669338 0.290332 -4.018935
v -2.096728 0.290332 2.066313
v 2.475496 0.290332 4.825397
v 2.475496 -0.290332 4.825397
v 2.096729 -0.290332 2.066313
v 1.669338 -0.290332 -4.018935
v 1.669338 0.290332 -4.018935
v 2.096729 0.290332 2.066313
v -4.636341 0.290332 2.954730
v -2.287193 0.290332 3.453728
v 2.287193 0.290332 3.453728
v 4.636341 0.290332 2.954730
v 4.636341 -0.290332 2.954730
v 2.287193 -0.290332 3.453728
v -2.287193 -0.290332 3.453728
v -4.636341 -0.290332 2.954730
v -3.487836 0.290332 4.472145
v -3.487836 -0.290332 4.472145
v -3.353394 -0.290332 3.204229
v -3.377058 -0.290332 2.066313
v -2.688690 -0.290332 -4.018935
v -2.688690 0.290332 -4.018935
v -3.377058 0.290332 2.066313
v -3.353394 0.290332 3.204229
v 3.487837 0.290332 4.472145
v 3.487837 -0.290332 4.472145
v 3.353395 -0.290332 3.204229
v 3.377058 -0.290332 2.066313
v 2.688690 -0.290332 -4.018935
v 2.688690 0.290332 -4.018935
v 3.377058 0.290332 2.066313
v 3.353395 0.290332 3.204229
vt 0.012707 0.138355
vt 0.043687 0.120537
vt 0.043235 0.137709
vt 0.021131 0.145910
vt 0.089985 0.161003
vt 0.090697 0.133541
vt 0.250051 0.159880
vt 0.248878 0.179501
vt 0.259337 0.149801
vt 0.264243 0.179546
vt 0.423136 0.128679
vt 0.423033 0.162077
vt 0.092483 0.124379
vt 0.258865 0.349481
vt 0.092001 0.373849
vt 0.090085 0.364663
vt 0.249553 0.339372
vt 0.060300 0.161518
vt 0.067554 0.132866
vt 0.069373 0.122559
vt 0.446309 0.129300
vt 0.452715 0.162786
vt 0.068881 0.375530
vt 0.066938 0.365189
vt 0.011015 0.361179
vt 0.003877 0.315207
vt 0.018257 0.314432
vt 0.020320 0.347688
vt 0.422492 0.338261
vt 0.422594 0.304863
vt 0.458770 0.309942
vt 0.452176 0.337735
vt 0.263811 0.319816
vt 0.263893 0.293226
vt 0.248422 0.319771
vt 0.248508 0.293181
vt 0.089381 0.337185
vt 0.089496 0.303788
vt 0.059701 0.336466
vt 0.053288 0.308632
vt 0.005879 0.186075
vt 0.019479 0.185292
vt 0.422930 0.195475
vt 0.459137 0.190619
vt 0.264161 0.206136
vt 0.248791 0.206091
vt 0.089871 0.194400
vt 0.053697 0.189308
vt 0.469184 0.141157
vt 0.485799 0.159381
vt 0.494932 0.185816
vt 0.494535 0.314964
vt 0.485239 0.341343
vt 0.043183 0.377397
vt 0.042654 0.360189
vt 0.445565 0.371181
vt 0.468512 0.359465
vt 0.422389 0.371659
vn 0.502138 0.000000 0.864788
vn 0.000000 0.000000 1.000000
vn 0.000000 0.000000 1.000000
vn 0.502138 0.000000 0.864788
vn 0.000000 1.000000 0.000000
vn 0.000000 1.000000 0.000000
vn 0.000000 1.000000 0.000000
vn 0.000000 1.000000 0.000000
vn 0.000000 0.000000 -1.000000
vn 0.000000 0.000000 -1.000000
vn 0.000000 0.000000 -1.000000
vn 0.000000 0.000000 -1.000000
vn 0.000000 -1.000000 0.000000
vn 0.000000 -1.000000 0.000000
vn 0.000000 -1.000000 0.000000
vn 0.000000 -1.000000 0.000000
vn 0.983235 0.000000 -0.182345
vn 1.000000 0.000000 0.000000
vn 1.000000 0.000000 0.000000
vn 0.983235 0.000000 -0.182345
vn -1.000000 0.000000 0.000000
vn -0.983235 0.000000 -0.182345
vn -0.983235 0.000000 -0.182345
vn -1.000000 0.000000 0.000000
vn 0.000000 1.000000 0.000000
vn 0.000000 1.000000 0.000000
vn 0.000000 1.000000 0.000000
vn 0.000000 1.000000 0.000000
vn 0.965996 0.000000 0.258557
vn 0.983235 0.000000 -0.182345
vn 0.983235 0.000000 -0.182345
vn 0.965996 0.000000 0.258557
vn 0.000000 -1.000000 0.000000
vn 0.000000 -1.000000 0.000000
vn 0.000000 -1.000000 0.000000
vn 0.000000 -1.000000 0.000000
vn -0.983235 0.000000 -0.182345
vn -0.983235 0.000000 -0.182345
vn -0.965996 0.000000 0.258557
vn -0.965996 0.000000 0.258557
vn -0.502138 0.000000 0.864788
vn -0.059134 0.000000 0.998250
vn -0.059134 0.000000 0.998250
vn -0.502138 0.000000 0.864788
vn 0.000000 -1.000000 0.000000
vn 0.000000 -1.000000 0.000000
vn 0.000000 -1.000000 0.000000
vn 0.000000 -1.000000 0.000000
vn 0.000000 -1.000000 0.000000
vn 0.000000 -1.000000 0.000000
vn 0.000000 -1.000000 0.000000
vn 0.000000 -1.000000 0.000000
vn 0.000000 0.000000 -1.000000
vn 0.000000 0.000000 -1.000000
vn 0.000000 0.000000 -1.000000
vn 0.000000 0.000000 -1.000000
vn 0.000000 1.000000 0.000000
vn 0.000000 1.000000 0.000000
vn 0.000000 1.000000 0.000000
vn 0.000000 1.000000 0.000000
vn 0.000000 1.000000 0.000000
vn 0.000000 1.000000 0.000000
vn 0.000000 1.000000 0.000000
vn 0.000000 1.000000 0.000000
vn -0.059134 0.000000 0.998250
vn 0.059134 0.000000 0.998250
vn 0.059134 0.000000 0.998250
vn -0.059134 0.000000 0.998250
vn 0.000000 -1.000000 0.000000
vn 0.000000 -1.000000 0.000000
vn 0.000000 -1.000000 0.000000
vn 0.000000 -1.000000 0.000000
vn 0.000000 -1.000000 0.000000
vn 0.000000 -1.000000 0.000000
vn 0.000000 -1.000000 0.000000
vn 0.000000 -1.000000 0.000000
vn 0.000000 0.000000 -1.000000
vn 0.000000 0.000000 -1.000000
vn 0.000000 0.000000 -1.000000
vn 0.000000 0.000000 -1.000000
vn 0.000000 1.000000 0.000000
vn 0.000000 1.000000 0.000000
vn 0.000000 1.000000 0.000000
vn 0.000000 1.000000 0.000000
vn 0.000000 1.000000 0.000000
vn 0.000000 1.000000 0.000000
vn 0.000000 1.000000 0.000000
vn 0.000000 1.000000 0.000000
vn 0.000000 1.000000 0.000000
vn 0.000000 1.000000 0.000000
vn 0.000000 1.000000 0.000000
vn 0.000000 1.000000 0.000000
vn 0.000000 1.000000 0.000000
vn 0.000000 1.000000 0.000000
vn 0.000000 1.000000 0.000000
vn 0.000000 1.000000 0.000000
vn 0.000000 1.000000 0.000000
vn 0.000000 1.000000 0.000000
vn 0.000000 1.000000 0.000000
vn 0.000000 1.000000 0.000000
vn 1.000000 0.000000 0.000000
vn 0.965996 0.000000 0.258557
vn 0.965996 0.000000 0.258557
vn 1.000000 0.000000 0.000000
vn 0.000000 -1.000000 0.000000
vn 0.000000 -1.000000 0.000000
vn 0.000000 -1.000000 0.000000
vn 0.000000 -1.000000 0.000000
vn 0.000000 -1.000000 0.000000
vn 0.000000 -1.000000 0.000000
vn 0.000000 -1.000000 0.000000
vn 0.000000 -1.000000 0.000000
vn 0.000000 -1.000000 0.000000
vn 0.000000 -1.000000 0.000000
vn 0.000000 -1.000000 0.000000
vn 0.000000 -1.000000 0.000000
vn -0.965996 0.000000 0.258557
vn -0.965996 0.000000 0.258557
vn -1.000000 0.000000 0.000000
vn -1.000000 0.000000 0.000000
vn 0.000000 0.000000 1.000000
vn -0.502138 0.000000 0.864788
vn -0.502138 0.000000 0.864788
vn 0.000000 0.000000 1.000000
vn 0.000000 -1.000000 0.000000
vn 0.000000 -1.000000 0.000000
vn 0.000000 -1.000000 0.000000
vn 0.000000 -1.000000 0.000000
vn 0.000000 -1.000000 0.000000
vn 0.000000 -1.000000 0.000000
vn 0.000000 -1.000000 0.000000
vn 0.000000 -1.000000 0.000000
vn 0.000000 -1.000000 0.000000
vn 0.000000 -1.000000 0.000000
vn 0.000000 -1.000000 0.000000
vn 0.000000 -1.000000 0.000000
vn 0.000000 0.000000 -1.000000
vn 0.000000 0.000000 -1.000000
vn 0.000000 0.000000 -1.000000
vn 0.000000 0.000000 -1.000000
vn 0.000000 1.000000 0.000000
vn 0.000000 1.000000 0.000000
vn 0.000000 1.000000 0.000000
vn 0.000000 1.000000 0.000000
vn 0.000000 1.000000 0.000000
vn 0.000000 1.000000 0.000000
vn 0.000000 1.000000 0.000000
vn 0.000000 1.000000 0.000000
vn 0.000000 1.000000 0.000000
vn 0.000000 1.000000 0.000000
vn 0.000000 1.000000 0.000000
vn 0.000000 1.000000 0.000000
vn 0.059134 0.000000 0.998250
vn 0.502138 0.000000 0.864788
vn 0.502138 0.000000 0.864788
vn 0.059134 0.000000 0.998250
vn 0.000000 -1.000000 0.000000
vn 0.000000 -1.000000 0.000000
vn 0.000000 -1.000000 0.000000
vn 0.000000 -1.000000 0.000000
vn 0.000000 -1.000000 0.000000
vn 0.000000 -1.000000 0.000000
vn 0.000000 -1.000000 0.000000
vn 0.000000 -1.000000 0.000000
vn 0.000000 -1.000000 0.000000
vn 0.000000 -1.000000 0.000000
vn 0.000000 -1.000000 0.000000
vn 0.000000 -1.000000 0.000000
vn 0.000000 0.000000 -1.000000
vn 0.000000 0.000000 -1.000000
vn 0.000000 0.000000 -1.000000
vn 0.000000 0.000000 -1.000000
vn 0.000000 1.000000 0.000000
vn 0.000000 1.000000 0.000000
vn 0.000000 1.000000 0.000000
vn 0.000000 1.000000 0.000000
vn 0.000000 1.000000 0.000000
vn 0.000000 1.000000 0.000000
vn 0.000000 1.000000 0.000000
vn 0.000000 1.000000 0.000000
vn 0.000000 1.000000 0.000000
vn 0.000000 1.000000 0.000000
vn 0.000000 1.000000 0.000000
vn 0.000000 1.000000 0.000000
s off
usemtl chair_Seat_2_initialShadingGroup
f 42/1/1 2/2/2 4/3/3 41/4/4
f 47/5/5 10/6/6 6/7/7 46/8/8
f 46/8/9 6/7/10 8/9/11 45/10/12
f 45/10/13 8/9/14 11/11/15 44/12/16
f 11/13/17 8/9/18 6/7/19 10/6/20
f 7/14/21 12/15/22 9/16/23 5/17/24
f 47/5/25 48/18/26 28/19/27 10/6/28
f 29/20/29 11/13/30 10/6/31 28/19/32
f 44/12/33 11/11/34 29/21/35 43/22/36
f 9/16/37 12/15/38 32/23/39 25/24/40
f 34/25/41 14/26/42 13/27/43 33/28/44
f 36/29/45 15/30/46 31/31/47 35/32/48
f 37/33/49 16/34/50 15/30/51 36/29/52
f 38/35/53 17/36/54 16/34/55 37/33/56
f 39/37/57 18/38/58 17/36/59 38/35/60
f 40/39/61 26/40/62 18/38/63 39/37/64
f 14/26/65 20/41/66 19/42/67 13/27/68
f 15/30/69 21/43/70 30/44/71 31/31/72
f 16/34/73 22/45/74 21/43/75 15/30/76
f 17/36/77 23/46/78 22/45/79 16/34/80
f 18/38/81 24/47/82 23/46/83 17/36/84
f 18/38/85 26/40/86 27/48/87 24/47/88
f 40/39/89 33/28/90 13/27/91 26/40/92
f 27/48/93 26/40/94 13/27/95 19/42/96
f 28/19/97 48/18/98 41/4/99 4/3/100
f 2/2/101 29/20/102 28/19/103 4/3/104
f 43/22/105 29/21/106 2/49/107 42/50/108
f 31/31/109 30/44/110 20/51/111 14/52/112
f 35/32/113 31/31/114 14/52/115 34/53/116
f 25/24/117 32/23/118 1/54/119 3/55/120
f 1/54/121 34/25/122 33/28/123 3/55/124
f 32/56/125 35/32/126 34/53/127 1/57/128
f 12/58/129 36/29/130 35/32/131 32/56/132
f 7/14/133 37/33/134 36/29/135 12/58/136
f 5/17/137 38/35/138 37/33/139 7/14/140
f 9/16/141 39/37/142 38/35/143 5/17/144
f 25/24/145 40/39/146 39/37/147 9/16/148
f 3/55/149 33/28/150 40/39/151 25/24/152
f 20/41/153 42/1/154 41/4/155 19/42/156
f 30/44/157 43/22/158 42/50/159 20/51/160
f 21/43/161 44/12/162 43/22/163 30/44/164
f 22/45/165 45/10/166 44/12/167 21/43/168
f 23/46/169 46/8/170 45/10/171 22/45/172
f 24/47/173 47/5/174 46/8/175 23/46/176
f 24/47/177 27/48/178 48/18/179 47/5/180
f 41/4/181 48/18/182 27/48/183 19/42/184
