# This file uses centimeters as units for non-parametric coordinates.

g default
v -4.184502 -0.290332 3.833064
v 4.184502 -0.290332 3.833064
v -4.184502 0.290332 3.833064
v 4.184502 0.290332 3.833064
v -3.343044 0.290332 -4.018935
v 3.343044 0.290332 -4.018935
v -3.343044 -0.290332 -4.018935
v 3.343044 -0.290332 -4.018935
v -4.657388 0.290332 2.066313
v 4.657388 0.290332 2.066313
v 4.657388 -0.290332 2.066313
v -4.657388 -0.290332 2.066313
v -2.475495 0.290332 4.825397
v -2.475495 -0.290332 4.825397
v -2.096728 -0.290332 2.066313
v -1.669338 -0.290332 -4.018935
v -1.669338 0.290332 -4.018935
v -2.096728 0.290332 2.066313
v 2.475496 0.290332 4.825397
v 2.475496 -0.290332 4.825397
v 2.096729 -0.290332 2.066313
v 1.669338 -0.290332 -4.018935
v 1.669338 0.290332 -4.018935
v 2.096729 0.290332 2.066313
v -4.636341 0.290332 2.954730
v -2.287193 0.290332 3.453728
v 2.287193 0.290332 3.453728
v 4.636341 0.290332 2.954730
v 4.636341 -0.290332 2.954730
v 2.287193 -0.290332 3.453728
v -2.287193 -0.290332 3.453728
v -4.636341 -0.290332 2.954730
v -3.487836 0.290332 4.472145
v -3.487836 -0.290332 4.472145
v -3.353394 -0.290332 3.204229
v -3.377058 -0.290332 2.066313
v -2.688690 -0.290332 -4.018935
v -2.688690 0.290332 -4.018935
v -3.377058 0.290332 2.066313
v -3.353394 0.290332 3.204229
v 3.487837 0.290332 4.472145
v 3.487837 -0.290332 4.472145
v 3.353395 -0.290332 3.204229
v 3.377058 -0.290332 2.066313
v 2.688690 -0.290332 -4.018935
v 2.688690 0.290332 -4.018935
v 3.377058 0.290332 2.066313
v 3.353395 0.290332 3.204229
vt 0.695017 -0.220213
vt 0.700878 -0.445225
vt 2.006593 -0.229230
vt 1.996956 -0.068457
vt 2.122857 -0.068075
vt 2.082693 -0.311804
vt 3.424886 -0.484690
vt 3.424007 -0.211029
vt 0.451778 -0.216023
vt 0.511244 -0.450782
vt 3.614764 -0.479581
vt 3.667212 -0.205189
vt 3.419368 1.232614
vt 3.420247 0.958953
vt 3.716666 1.000616
vt 3.662605 1.228337
vt 2.119163 1.081300
vt 2.119863 0.863421
vt 0.689868 1.223428
vt 0.690844 0.949767
vt 1.993798 0.863039
vt 1.993059 1.080917
vt 0.446665 1.217503
vt 0.394150 0.989420
vt 3.423128 0.062632
vt 3.719808 0.022875
vt 2.122157 0.149804
vt 0.694041 0.053448
vt 1.996217 0.149421
vt 0.397637 0.011680
vt 0.123967 1.309413
vt 0.107094 1.036905
vt 0.117259 -0.021270
vt 0.130839 -0.343952
vt 0.311969 -0.411129
vt 3.802191 -0.382401
vt 3.938312 -0.233054
vt 4.013121 -0.016431
vt 4.009720 1.041807
vt 3.933520 1.257944
vt 3.608395 1.502387
vt 3.796443 1.406413
vt 3.418488 1.506275
vt 2.078598 1.324367
vt 0.695602 1.448577
vt 2.002318 1.241527
vt 0.505939 1.452861
vt 0.306958 1.411875
vt 0.715523 -0.520305
vt 0.526164 -0.535241
vt 0.315695 -0.551842
vt 0.061828 -0.405874
vt 0.711292 1.523853
vt 0.521843 1.537597
vt 0.311274 1.552873
vt 0.047707 1.419944
vt -0.010731 1.043246
vt 0.005823 -0.014868
vn 0.502138 0.000000 0.864788
vn 0.000000 0.000000 1.000000
vn 0.000000 0.000000 1.000000
vn 0.502138 0.000000 0.864788
vn 0.000000 1.000000 0.000000
vn 0.000000 1.000000 0.000000
vn 0.000000 1.000000 0.000000
vn 0.000000 1.000000 0.000000
vn 0.000000 0.000000 -1.000000
vn 0.000000 0.000000 -1.000000
vn 0.000000 0.000000 -1.000000
vn 0.000000 0.000000 -1.000000
vn 0.000000 -1.000000 0.000000
vn 0.000000 -1.000000 0.000000
vn 0.000000 -1.000000 0.000000
vn 0.000000 -1.000000 0.000000
vn 0.983235 0.000000 -0.182345
vn 1.000000 0.000000 0.000000
vn 1.000000 0.000000 0.000000
vn 0.983235 0.000000 -0.182345
vn -1.000000 0.000000 0.000000
vn -0.983235 0.000000 -0.182345
vn -0.983235 0.000000 -0.182345
vn -1.000000 0.000000 0.000000
vn 0.000000 1.000000 0.000000
vn 0.000000 1.000000 0.000000
vn 0.000000 1.000000 0.000000
vn 0.000000 1.000000 0.000000
vn 0.965996 0.000000 0.258557
vn 0.983235 0.000000 -0.182345
vn 0.983235 0.000000 -0.182345
vn 0.965996 0.000000 0.258557
vn 0.000000 -1.000000 0.000000
vn 0.000000 -1.000000 0.000000
vn 0.000000 -1.000000 0.000000
vn 0.000000 -1.000000 0.000000
vn -0.983235 0.000000 -0.182345
vn -0.983235 0.000000 -0.182345
vn -0.965996 0.000000 0.258557
vn -0.965996 0.000000 0.258557
vn -0.502138 0.000000 0.864788
vn -0.059134 0.000000 0.998250
vn -0.059134 0.000000 0.998250
vn -0.502138 0.000000 0.864788
vn 0.000000 -1.000000 0.000000
vn 0.000000 -1.000000 0.000000
vn 0.000000 -1.000000 0.000000
vn 0.000000 -1.000000 0.000000
vn 0.000000 -1.000000 0.000000
vn 0.000000 -1.000000 0.000000
vn 0.000000 -1.000000 0.000000
vn 0.000000 -1.000000 0.000000
vn 0.000000 0.000000 -1.000000
vn 0.000000 0.000000 -1.000000
vn 0.000000 0.000000 -1.000000
vn 0.000000 0.000000 -1.000000
vn 0.000000 1.000000 0.000000
vn 0.000000 1.000000 0.000000
vn 0.000000 1.000000 0.000000
vn 0.000000 1.000000 0.000000
vn 0.000000 1.000000 0.000000
vn 0.000000 1.000000 0.000000
vn 0.000000 1.000000 0.000000
vn 0.000000 1.000000 0.000000
vn -0.059134 0.000000 0.998250
vn 0.059134 0.000000 0.998250
vn 0.059134 0.000000 0.998250
vn -0.059134 0.000000 0.998250
vn 0.000000 -1.000000 0.000000
vn 0.000000 -1.000000 0.000000
vn 0.000000 -1.000000 0.000000
vn 0.000000 -1.000000 0.000000
vn 0.000000 -1.000000 0.000000
vn 0.000000 -1.000000 0.000000
vn 0.000000 -1.000000 0.000000
vn 0.000000 -1.000000 0.000000
vn 0.000000 0.000000 -1.000000
vn 0.000000 0.000000 -1.000000
vn 0.000000 0.000000 -1.000000
vn 0.000000 0.000000 -1.000000
vn 0.000000 1.000000 0.000000
vn 0.000000 1.000000 0.000000
vn 0.000000 1.000000 0.000000
vn 0.000000 1.000000 0.000000
vn 0.000000 1.000000 0.000000
vn 0.000000 1.000000 0.000000
vn 0.000000 1.000000 0.000000
vn 0.000000 1.000000 0.000000
vn 0.000000 1.000000 0.000000
vn 0.000000 1.000000 0.000000
vn 0.000000 1.000000 0.000000
vn 0.000000 1.000000 0.000000
vn 0.000000 1.000000 0.000000
vn 0.000000 1.000000 0.000000
vn 0.000000 1.000000 0.000000
vn 0.000000 1.000000 0.000000
vn 0.000000 1.000000 0.000000
vn 0.000000 1.000000 0.000000
vn 0.000000 1.000000 0.000000
vn 0.000000 1.000000 0.000000
vn 1.000000 0.000000 0.000000
vn 0.965996 0.000000 0.258557
vn 0.965996 0.000000 0.258557
vn 1.000000 0.000000 0.000000
vn 0.000000 -1.000000 0.000000
vn 0.000000 -1.000000 0.000000
vn 0.000000 -1.000000 0.000000
vn 0.000000 -1.000000 0.000000
vn 0.000000 -1.000000 0.000000
vn 0.000000 -1.000000 0.000000
vn 0.000000 -1.000000 0.000000
vn 0.000000 -1.000000 0.000000
vn 0.000000 -1.000000 0.000000
vn 0.000000 -1.000000 0.000000
vn 0.000000 -1.000000 0.000000
vn 0.000000 -1.000000 0.000000
vn -0.965996 0.000000 0.258557
vn -0.965996 0.000000 0.258557
vn -1.000000 0.000000 0.000000
vn -1.000000 0.000000 0.000000
vn 0.000000 0.000000 1.000000
vn -0.502138 0.000000 0.864788
vn -0.502138 0.000000 0.864788
vn 0.000000 0.000000 1.000000
vn 0.000000 -1.000000 0.000000
vn 0.000000 -1.000000 0.000000
vn 0.000000 -1.000000 0.000000
vn 0.000000 -1.000000 0.000000
vn 0.000000 -1.000000 0.000000
vn 0.000000 -1.000000 0.000000
vn 0.000000 -1.000000 0.000000
vn 0.000000 -1.000000 0.000000
vn 0.000000 -1.000000 0.000000
vn 0.000000 -1.000000 0.000000
vn 0.000000 -1.000000 0.000000
vn 0.000000 -1.000000 0.000000
vn 0.000000 0.000000 -1.000000
vn 0.000000 0.000000 -1.000000
vn 0.000000 0.000000 -1.000000
vn 0.000000 0.000000 -1.000000
vn 0.000000 1.000000 0.000000
vn 0.000000 1.000000 0.000000
vn 0.000000 1.000000 0.000000
vn 0.000000 1.000000 0.000000
vn 0.000000 1.000000 0.000000
vn 0.000000 1.000000 0.000000
vn 0.000000 1.000000 0.000000
vn 0.000000 1.000000 0.000000
vn 0.000000 1.000000 0.000000
vn 0.000000 1.000000 0.000000
vn 0.000000 1.000000 0.000000
vn 0.000000 1.000000 0.000000
vn 0.059134 0.000000 0.998250
vn 0.502138 0.000000 0.864788
vn 0.502138 0.000000 0.864788
vn 0.059134 0.000000 0.998250
vn 0.000000 -1.000000 0.000000
vn 0.000000 -1.000000 0.000000
vn 0.000000 -1.000000 0.000000
vn 0.000000 -1.000000 0.000000
vn 0.000000 -1.000000 0.000000
vn 0.000000 -1.000000 0.000000
vn 0.000000 -1.000000 0.000000
vn 0.000000 -1.000000 0.000000
vn 0.000000 -1.000000 0.000000
vn 0.000000 -1.000000 0.000000
vn 0.000000 -1.000000 0.000000
vn 0.000000 -1.000000 0.000000
vn 0.000000 0.000000 -1.000000
vn 0.000000 0.000000 -1.000000
vn 0.000000 0.000000 -1.000000
vn 0.000000 0.000000 -1.000000
vn 0.000000 1.000000 0.000000
vn 0.000000 1.000000 0.000000
vn 0.000000 1.000000 0.000000
vn 0.000000 1.000000 0.000000
vn 0.000000 1.000000 0.000000
vn 0.000000 1.000000 0.000000
vn 0.000000 1.000000 0.000000
vn 0.000000 1.000000 0.000000
vn 0.000000 1.000000 0.000000
vn 0.000000 1.000000 0.000000
vn 0.000000 1.000000 0.000000
vn 0.000000 1.000000 0.000000
s off
g ghost_ghost_pCube1
f 42/52/1 2/51/2 4/35/3 41/34/4
f 47/1/5 10/2/6 6/3/7 46/4/8
f 46/4/9 6/3/10 8/6/11 45/5/12
f 45/5/13 8/6/14 11/7/15 44/8/16
f 11/49/17 8/6/18 6/3/19 10/2/20
f 7/44/21 12/53/22 9/45/23 5/46/24
f 47/1/25 48/9/26 28/10/27 10/2/28
f 29/50/29 11/49/30 10/2/31 28/10/32
f 44/8/33 11/7/34 29/11/35 43/12/36
f 9/45/37 12/53/38 32/54/39 25/47/40
f 34/56/41 14/57/42 13/32/43 33/31/44
f 36/13/45 15/14/46 31/15/47 35/16/48
f 37/17/49 16/18/50 15/14/51 36/13/52
f 38/22/53 17/21/54 16/18/55 37/17/56
f 39/19/57 18/20/58 17/21/59 38/22/60
f 40/23/61 26/24/62 18/20/63 39/19/64
f 14/57/65 20/58/66 19/33/67 13/32/68
f 15/14/69 21/25/70 30/26/71 31/15/72
f 16/18/73 22/27/74 21/25/75 15/14/76
f 17/21/77 23/29/78 22/27/79 16/18/80
f 18/20/81 24/28/82 23/29/83 17/21/84
f 18/20/85 26/24/86 27/30/87 24/28/88
f 40/23/89 33/31/90 13/32/91 26/24/92
f 27/30/93 26/24/94 13/32/95 19/33/96
f 28/10/97 48/9/98 41/34/99 4/35/100
f 2/51/101 29/50/102 28/10/103 4/35/104
f 43/12/105 29/11/106 2/36/107 42/37/108
f 31/15/109 30/26/110 20/38/111 14/39/112
f 35/16/113 31/15/114 14/39/115 34/40/116
f 25/47/117 32/54/118 1/55/119 3/48/120
f 1/55/121 34/56/122 33/31/123 3/48/124
f 32/41/125 35/16/126 34/40/127 1/42/128
f 12/43/129 36/13/130 35/16/131 32/41/132
f 7/44/133 37/17/134 36/13/135 12/43/136
f 5/46/137 38/22/138 37/17/139 7/44/140
f 9/45/141 39/19/142 38/22/143 5/46/144
f 25/47/145 40/23/146 39/19/147 9/45/148
f 3/48/149 33/31/150 40/23/151 25/47/152
f 20/58/153 42/52/154 41/34/155 19/33/156
f 30/26/157 43/12/158 42/37/159 20/38/160
f 21/25/161 44/8/162 43/12/163 30/26/164
f 22/27/165 45/5/166 44/8/167 21/25/168
f 23/29/169 46/4/170 45/5/171 22/27/172
f 24/28/173 47/1/174 46/4/175 23/29/176
f 24/28/177 27/30/178 48/9/179 47/1/180
f 41/34/181 48/9/182 27/30/183 19/33/184
