# This file uses centimeters as units for non-parametric coordinates.

mtllib chair_Seat_4.mtl
v -4.685007 -0.290332 4.018935
v 4.685007 -0.290332 4.018935
v -4.685007 0.290332 4.018935
v 4.685007 0.290332 4.018935
v -3.654018 0.245001 -4.018935
v 3.654018 0.245001 -4.018935
v -3.654018 -0.245001 -4.018935
v 3.654018 -0.245001 -4.018935
v 3.552976 0.235469 -2.870668
v -3.552976 0.235469 -2.870668
v -3.552976 -0.235469 -2.870668
v 3.552976 -0.235469 -2.870668
v 3.535202 0.231610 -1.722400
v -3.535202 0.231610 -1.722400
v -3.535202 -0.231610 -1.722400
v 3.535202 -0.231610 -1.722400
v 3.609828 0.233824 -0.574133
v -3.609828 0.233824 -0.574133
v -3.609828 -0.233824 -0.574133
v 3.609828 -0.233824 -0.574133
v 3.776460 0.241882 0.574134
v -3.776460 0.241882 0.574134
v -3.776460 -0.241882 0.574134
v 3.776460 -0.241882 0.574134
v 4.025006 0.254949 1.722401
v -4.025006 0.254949 1.722401
v -4.025006 -0.254949 1.722401
v 4.025006 -0.254949 1.722401
v 4.336520 0.271676 2.870668
v -4.336520 0.271676 2.870668
v -4.336520 -0.271676 2.870668
v 4.336520 -0.271676 2.870668
v -3.579492 -0.194010 3.291078
v 3.579492 -0.194010 3.291078
v -3.579492 0.336542 3.291078
v 3.579492 0.336542 3.291078
v -2.791785 0.291211 -2.850109
v 2.791785 0.291211 -2.850109
v -2.791785 -0.148679 -2.850109
v 2.791785 -0.148679 -2.850109
v 2.613986 0.490158 2.514390
v -2.613986 0.490158 2.514390
v 2.038750 0.457054 -1.970318
v -2.038750 0.457054 -1.970318
v -2.524966 0.407099 -2.531049
v 2.524966 0.407099 -2.531049
v 3.237390 0.446359 3.023207
v -3.237390 0.446359 3.023207
vt 0.006328 0.353312
vt 0.009297 0.089284
vt 0.024622 0.093597
vt 0.021746 0.349345
vt 0.057502 0.100975
vt 0.054783 0.342709
vt 0.249500 0.321947
vt 0.251702 0.126110
vt 0.265642 0.121222
vt 0.263326 0.327148
vt 0.457253 0.348562
vt 0.460001 0.104173
vt 0.492472 0.094718
vt 0.489503 0.358746
vt 0.026049 0.081550
vt 0.059400 0.087161
vt 0.056371 0.356562
vt 0.022902 0.361421
vt 0.217247 0.322558
vt 0.219472 0.124774
vt 0.251252 0.330596
vt 0.219003 0.334496
vt 0.297967 0.124433
vt 0.295715 0.324664
vt 0.221495 0.112878
vt 0.253649 0.117503
vt 0.185032 0.324255
vt 0.187303 0.122352
vt 0.186895 0.338540
vt 0.330317 0.125297
vt 0.328077 0.324527
vt 0.189486 0.108113
vt 0.152759 0.327174
vt 0.155103 0.118709
vt 0.154745 0.342762
vt 0.362697 0.123558
vt 0.360409 0.326994
vt 0.157439 0.103170
vt 0.120326 0.331324
vt 0.122772 0.113830
vt 0.122347 0.347181
vt 0.395106 0.119227
vt 0.392713 0.332053
vt 0.125149 0.098023
vt 0.087668 0.336585
vt 0.090240 0.107836
vt 0.089561 0.351793
vt 0.427543 0.112587
vt 0.424992 0.339420
vt 0.092475 0.092674
vt 0.036790 0.325444
vt 0.039043 0.123718
vt 0.054264 0.123674
vt 0.052056 0.325822
vt 0.074454 0.298646
vt 0.076124 0.151308
vt 0.202427 0.168762
vt 0.201259 0.283938
vt 0.226053 0.305625
vt 0.227686 0.147589
vt 0.240078 0.148067
vt 0.238452 0.305402
vt 0.056652 0.108911
vt 0.229181 0.134932
vt 0.227225 0.318317
vt 0.054178 0.340627
vt 0.061920 0.133548
vt 0.059858 0.316096
vt 0.218436 0.155144
vt 0.216987 0.297893
vn 0.000000 0.000000 1.000000
vn 0.000000 0.000000 1.000000
vn 0.000000 0.000000 1.000000
vn 0.000000 0.000000 1.000000
vn 0.000000 1.000000 0.000000
vn 0.000000 1.000000 0.000000
vn 0.000000 0.999879 -0.015584
vn 0.000000 0.999879 -0.015584
vn 0.000000 0.000000 -1.000000
vn 0.000000 0.000000 -1.000000
vn 0.000000 0.000000 -1.000000
vn 0.000000 0.000000 -1.000000
vn 0.000000 -0.999879 -0.015584
vn 0.000000 -0.999879 -0.015584
vn 0.000000 -1.000000 0.000000
vn 0.000000 -1.000000 0.000000
vn 1.000000 0.000000 0.000000
vn 0.960925 0.000000 -0.276808
vn 0.960925 0.000000 -0.276808
vn 1.000000 0.000000 0.000000
vn -0.960925 0.000000 -0.276808
vn -1.000000 0.000000 0.000000
vn -1.000000 0.000000 0.000000
vn -0.960925 0.000000 -0.276808
vn 0.000000 0.999982 0.005930
vn 0.000000 0.999982 0.005930
vn 0.000000 1.000000 0.000000
vn 0.000000 1.000000 0.000000
vn -1.000000 0.000000 0.000000
vn -0.998631 0.000000 0.052312
vn -0.998631 0.000000 0.052312
vn -1.000000 0.000000 0.000000
vn 0.000000 -1.000000 0.000000
vn 0.000000 -1.000000 0.000000
vn 0.000000 -0.999982 0.005930
vn 0.000000 -0.999982 0.005930
vn 0.998631 0.000000 0.052312
vn 0.998631 0.000000 0.052312
vn 1.000000 0.000000 0.000000
vn 1.000000 0.000000 0.000000
vn 0.000000 1.000000 0.000665
vn 0.000000 1.000000 0.000665
vn 0.000000 0.999982 0.005930
vn 0.000000 0.999982 0.005930
vn -0.998631 0.000000 0.052312
vn -0.999696 0.000000 -0.024659
vn -0.999696 0.000000 -0.024659
vn -0.998631 0.000000 0.052312
vn 0.000000 -0.999982 0.005930
vn 0.000000 -0.999982 0.005930
vn 0.000000 -1.000000 0.000665
vn 0.000000 -1.000000 0.000665
vn 0.999696 0.000000 -0.024659
vn 0.999696 0.000000 -0.024659
vn 0.998631 0.000000 0.052312
vn 0.998631 0.000000 0.052312
vn 0.000000 0.999989 -0.004680
vn 0.000000 0.999989 -0.004680
vn 0.000000 1.000000 0.000665
vn 0.000000 1.000000 0.000665
vn -0.999696 0.000000 -0.024659
vn -0.994470 0.000000 -0.105019
vn -0.994470 0.000000 -0.105019
vn -0.999696 0.000000 -0.024659
vn 0.000000 -1.000000 0.000665
vn 0.000000 -1.000000 0.000665
vn 0.000000 -0.999989 -0.004680
vn 0.000000 -0.999989 -0.004680
vn 0.994470 0.000000 -0.105019
vn 0.994470 0.000000 -0.105019
vn 0.999696 0.000000 -0.024659
vn 0.999696 0.000000 -0.024659
vn 0.000000 0.999955 -0.009500
vn 0.000000 0.999955 -0.009500
vn 0.000000 0.999989 -0.004680
vn 0.000000 0.999989 -0.004680
vn -0.994470 0.000000 -0.105019
vn -0.983879 0.000000 -0.178834
vn -0.983879 0.000000 -0.178834
vn -0.994470 0.000000 -0.105019
vn 0.000000 -0.999989 -0.004680
vn 0.000000 -0.999989 -0.004680
vn 0.000000 -0.999955 -0.009500
vn 0.000000 -0.999955 -0.009500
vn 0.983879 0.000000 -0.178834
vn 0.983879 0.000000 -0.178834
vn 0.994470 0.000000 -0.105019
vn 0.994470 0.000000 -0.105019
vn 0.000000 0.999912 -0.013265
vn 0.000000 0.999912 -0.013265
vn 0.000000 0.999955 -0.009500
vn 0.000000 0.999955 -0.009500
vn -0.983879 0.000000 -0.178834
vn -0.971299 0.000000 -0.237861
vn -0.971299 0.000000 -0.237861
vn -0.983879 0.000000 -0.178834
vn 0.000000 -0.999955 -0.009500
vn 0.000000 -0.999955 -0.009500
vn 0.000000 -0.999912 -0.013265
vn 0.000000 -0.999912 -0.013265
vn 0.971299 0.000000 -0.237861
vn 0.971299 0.000000 -0.237861
vn 0.983879 0.000000 -0.178834
vn 0.983879 0.000000 -0.178834
vn 0.000000 0.999879 -0.015584
vn 0.000000 0.999879 -0.015584
vn 0.000000 0.999912 -0.013265
vn 0.000000 0.999912 -0.013265
vn -0.971299 0.000000 -0.237861
vn -0.960925 0.000000 -0.276808
vn -0.960925 0.000000 -0.276808
vn -0.971299 0.000000 -0.237861
vn 0.000000 -0.999912 -0.013265
vn 0.000000 -0.999912 -0.013265
vn 0.000000 -0.999879 -0.015584
vn 0.000000 -0.999879 -0.015584
vn 0.960925 0.000000 -0.276808
vn 0.960925 0.000000 -0.276808
vn 0.971299 0.000000 -0.237861
vn 0.971299 0.000000 -0.237861
vn 0.000000 0.000000 1.000000
vn 0.000000 0.000000 1.000000
vn 0.000000 0.000000 1.000000
vn 0.000000 0.000000 1.000000
vn 0.000000 1.000000 0.000000
vn 0.000000 1.000000 0.000000
vn 0.000000 1.000000 0.000000
vn 0.000000 1.000000 0.000000
vn 0.000000 0.000000 -1.000000
vn 0.000000 0.000000 -1.000000
vn 0.000000 0.000000 -1.000000
vn 0.000000 0.000000 -1.000000
vn 1.000000 0.000000 0.000000
vn 1.000000 0.000000 0.000000
vn 1.000000 0.000000 0.000000
vn 1.000000 0.000000 0.000000
vn -1.000000 0.000000 0.000000
vn -1.000000 0.000000 0.000000
vn -1.000000 0.000000 0.000000
vn -1.000000 0.000000 0.000000
vn -0.188967 0.969226 0.157772
vn 0.188967 0.969226 0.157772
vn 0.131269 0.982378 0.133046
vn -0.131269 0.982378 0.133046
vn 0.188967 0.969226 0.157772
vn 0.176606 0.963559 -0.200909
vn 0.133989 0.980373 -0.144621
vn 0.131269 0.982378 0.133046
vn 0.176606 0.963559 -0.200909
vn -0.176607 0.963559 -0.200909
vn -0.133989 0.980373 -0.144621
vn 0.133989 0.980373 -0.144621
vn -0.176607 0.963559 -0.200909
vn -0.188967 0.969226 0.157772
vn -0.131269 0.982378 0.133046
vn -0.133989 0.980373 -0.144621
vn 0.133989 0.980373 -0.144621
vn -0.133989 0.980373 -0.144621
vn 0.000000 1.000000 0.000000
vn 0.000000 1.000000 0.000000
vn 0.131269 0.982378 0.133046
vn 0.133989 0.980373 -0.144621
vn 0.000000 1.000000 0.000000
vn 0.000000 1.000000 0.000000
vn -0.131269 0.982378 0.133046
vn 0.131269 0.982378 0.133046
vn 0.000000 1.000000 0.000000
vn 0.000000 1.000000 0.000000
vn -0.133989 0.980373 -0.144621
vn -0.131269 0.982378 0.133046
vn 0.000000 1.000000 0.000000
vn 0.000000 1.000000 0.000000
s off
usemtl initialShadingGroup
f 1/1/1 2/2/2 4/3/3 3/4/4
f 3/4/5 4/3/6 29/5/7 30/6/8
f 5/7/9 6/8/10 8/9/11 7/10/12
f 31/11/13 32/12/14 2/13/15 1/14/16
f 2/15/17 32/16/18 29/5/19 4/3/20
f 31/17/21 1/18/22 3/4/23 30/6/24
f 10/19/25 9/20/26 6/8/27 5/7/28
f 7/21/29 11/22/30 10/19/31 5/7/32
f 7/10/33 8/9/34 12/23/35 11/24/36
f 9/20/37 12/25/38 8/26/39 6/8/40
f 14/27/41 13/28/42 9/20/43 10/19/44
f 11/22/45 15/29/46 14/27/47 10/19/48
f 11/24/49 12/23/50 16/30/51 15/31/52
f 13/28/53 16/32/54 12/25/55 9/20/56
f 18/33/57 17/34/58 13/28/59 14/27/60
f 15/29/61 19/35/62 18/33/63 14/27/64
f 15/31/65 16/30/66 20/36/67 19/37/68
f 17/34/69 20/38/70 16/32/71 13/28/72
f 22/39/73 21/40/74 17/34/75 18/33/76
f 19/35/77 23/41/78 22/39/79 18/33/80
f 19/37/81 20/36/82 24/42/83 23/43/84
f 21/40/85 24/44/86 20/38/87 17/34/88
f 26/45/89 25/46/90 21/40/91 22/39/92
f 23/41/93 27/47/94 26/45/95 22/39/96
f 23/43/97 24/42/98 28/48/99 27/49/100
f 25/46/101 28/50/102 24/44/103 21/40/104
f 30/6/105 29/5/106 25/46/107 26/45/108
f 27/47/109 31/17/110 30/6/111 26/45/112
f 27/49/113 28/48/114 32/12/115 31/11/116
f 29/5/117 32/16/118 28/50/119 25/46/120
f 33/51/121 34/52/122 36/53/123 35/54/124
f 42/55/125 41/56/126 43/57/127 44/58/128
f 37/59/129 38/60/130 40/61/131 39/62/132
f 38/60/133 36/53/134 34/63/135 40/64/136
f 39/65/137 33/66/138 35/54/139 37/59/140
f 35/54/141 36/53/142 47/67/143 48/68/144
f 36/53/145 38/60/146 46/69/147 47/67/148
f 38/60/149 37/59/150 45/70/151 46/69/152
f 37/59/153 35/54/154 48/68/155 45/70/156
f 46/69/157 45/70/158 44/58/159 43/57/160
f 47/67/161 46/69/162 43/57/163 41/56/164
f 48/68/165 47/67/166 41/56/167 42/55/168
f 45/70/169 48/68/170 42/55/171 44/58/172
