# This file uses centimeters as units for non-parametric coordinates.

mtllib chair_Seat_4.mtl
v -4.685007 -0.290332 4.018935
v 4.685007 -0.290332 4.018935
v -4.685007 0.290332 4.018935
v 4.685007 0.290332 4.018935
v -3.654018 0.245001 -4.018935
v 3.654018 0.245001 -4.018935
v -3.654018 -0.245001 -4.018935
v 3.654018 -0.245001 -4.018935
v 3.552976 0.235469 -2.870668
v -3.552976 0.235469 -2.870668
v -3.552976 -0.235469 -2.870668
v 3.552976 -0.235469 -2.870668
v 3.535202 0.231610 -1.722400
v -3.535202 0.231610 -1.722400
v -3.535202 -0.231610 -1.722400
v 3.535202 -0.231610 -1.722400
v 3.609828 0.233824 -0.574133
v -3.609828 0.233824 -0.574133
v -3.609828 -0.233824 -0.574133
v 3.609828 -0.233824 -0.574133
v 3.776460 0.241882 0.574134
v -3.776460 0.241882 0.574134
v -3.776460 -0.241882 0.574134
v 3.776460 -0.241882 0.574134
v 4.025006 0.254949 1.722401
v -4.025006 0.254949 1.722401
v -4.025006 -0.254949 1.722401
v 4.025006 -0.254949 1.722401
v 4.336520 0.271676 2.870668
v -4.336520 0.271676 2.870668
v -4.336520 -0.271676 2.870668
v 4.336520 -0.271676 2.870668
v -3.579492 -0.194010 3.291078
v 3.579492 -0.194010 3.291078
v -3.579492 0.336542 3.291078
v 3.579492 0.336542 3.291078
v -2.791785 0.291211 -2.850109
v 2.791785 0.291211 -2.850109
v -2.791785 -0.148679 -2.850109
v 2.791785 -0.148679 -2.850109
v 2.613986 0.490158 2.514390
v -2.613986 0.490158 2.514390
v 2.038750 0.457054 -1.970318
v -2.038750 0.457054 -1.970318
v -2.524966 0.407099 -2.531049
v 2.524966 0.407099 -2.531049
v 3.237390 0.446359 3.023207
v -3.237390 0.446359 3.023207
vt 0.025928 0.342682
vt 0.028657 0.099944
vt 0.042747 0.103909
vt 0.040103 0.339035
vt 0.072975 0.110692
vt 0.070476 0.332934
vt 0.249492 0.313846
vt 0.251516 0.133800
vt 0.264332 0.129307
vt 0.262203 0.318628
vt 0.440493 0.338315
vt 0.443020 0.113632
vt 0.472872 0.104940
vt 0.470143 0.347678
vt 0.044059 0.092833
vt 0.074720 0.097992
vt 0.071936 0.345670
vt 0.041165 0.350138
vt 0.219840 0.314408
vt 0.221885 0.132572
vt 0.251103 0.321798
vt 0.221454 0.325384
vt 0.294051 0.132259
vt 0.291980 0.316344
vt 0.223745 0.121635
vt 0.253306 0.125887
vt 0.190222 0.315968
vt 0.192310 0.130345
vt 0.191935 0.329101
vt 0.323792 0.133053
vt 0.321733 0.316218
vt 0.194317 0.117255
vt 0.160552 0.318652
vt 0.162706 0.126996
vt 0.162377 0.332983
vt 0.353561 0.131454
vt 0.351458 0.318486
vt 0.164854 0.112710
vt 0.130734 0.322467
vt 0.132982 0.122511
vt 0.132592 0.337046
vt 0.383357 0.127472
vt 0.381157 0.323138
vt 0.135168 0.107978
vt 0.100709 0.327304
vt 0.103074 0.117000
vt 0.102449 0.341286
vt 0.413179 0.121368
vt 0.410833 0.329911
vt 0.105128 0.103061
vt 0.053933 0.317061
vt 0.056005 0.131601
vt 0.069999 0.131561
vt 0.067969 0.317409
vt 0.088561 0.292424
vt 0.090096 0.156967
vt 0.206215 0.173013
vt 0.205141 0.278902
vt 0.227936 0.298841
vt 0.229437 0.153548
vt 0.240830 0.153987
vt 0.239335 0.298636
vt 0.072194 0.117988
vt 0.230811 0.141911
vt 0.229013 0.310509
vt 0.069919 0.331020
vt 0.077037 0.140639
vt 0.075141 0.308467
vt 0.220933 0.160493
vt 0.219601 0.291732
vn 0.000000 0.000000 1.000000
vn 0.000000 0.000000 1.000000
vn 0.000000 0.000000 1.000000
vn 0.000000 0.000000 1.000000
vn 0.000000 1.000000 0.000000
vn 0.000000 1.000000 0.000000
vn 0.000000 0.999879 -0.015584
vn 0.000000 0.999879 -0.015584
vn 0.000000 0.000000 -1.000000
vn 0.000000 0.000000 -1.000000
vn 0.000000 0.000000 -1.000000
vn 0.000000 0.000000 -1.000000
vn 0.000000 -0.999879 -0.015584
vn 0.000000 -0.999879 -0.015584
vn 0.000000 -1.000000 0.000000
vn 0.000000 -1.000000 0.000000
vn 1.000000 0.000000 0.000000
vn 0.960925 0.000000 -0.276808
vn 0.960925 0.000000 -0.276808
vn 1.000000 0.000000 0.000000
vn -0.960925 0.000000 -0.276808
vn -1.000000 0.000000 0.000000
vn -1.000000 0.000000 0.000000
vn -0.960925 0.000000 -0.276808
vn 0.000000 0.999982 0.005930
vn 0.000000 0.999982 0.005930
vn 0.000000 1.000000 0.000000
vn 0.000000 1.000000 0.000000
vn -1.000000 0.000000 0.000000
vn -0.998631 0.000000 0.052312
vn -0.998631 0.000000 0.052312
vn -1.000000 0.000000 0.000000
vn 0.000000 -1.000000 0.000000
vn 0.000000 -1.000000 0.000000
vn 0.000000 -0.999982 0.005930
vn 0.000000 -0.999982 0.005930
vn 0.998631 0.000000 0.052312
vn 0.998631 0.000000 0.052312
vn 1.000000 0.000000 0.000000
vn 1.000000 0.000000 0.000000
vn 0.000000 1.000000 0.000665
vn 0.000000 1.000000 0.000665
vn 0.000000 0.999982 0.005930
vn 0.000000 0.999982 0.005930
vn -0.998631 0.000000 0.052312
vn -0.999696 0.000000 -0.024659
vn -0.999696 0.000000 -0.024659
vn -0.998631 0.000000 0.052312
vn 0.000000 -0.999982 0.005930
vn 0.000000 -0.999982 0.005930
vn 0.000000 -1.000000 0.000665
vn 0.000000 -1.000000 0.000665
vn 0.999696 0.000000 -0.024659
vn 0.999696 0.000000 -0.024659
vn 0.998631 0.000000 0.052312
vn 0.998631 0.000000 0.052312
vn 0.000000 0.999989 -0.004680
vn 0.000000 0.999989 -0.004680
vn 0.000000 1.000000 0.000665
vn 0.000000 1.000000 0.000665
vn -0.999696 0.000000 -0.024659
vn -0.994470 0.000000 -0.105019
vn -0.994470 0.000000 -0.105019
vn -0.999696 0.000000 -0.024659
vn 0.000000 -1.000000 0.000665
vn 0.000000 -1.000000 0.000665
vn 0.000000 -0.999989 -0.004680
vn 0.000000 -0.999989 -0.004680
vn 0.994470 0.000000 -0.105019
vn 0.994470 0.000000 -0.105019
vn 0.999696 0.000000 -0.024659
vn 0.999696 0.000000 -0.024659
vn 0.000000 0.999955 -0.009500
vn 0.000000 0.999955 -0.009500
vn 0.000000 0.999989 -0.004680
vn 0.000000 0.999989 -0.004680
vn -0.994470 0.000000 -0.105019
vn -0.983879 0.000000 -0.178834
vn -0.983879 0.000000 -0.178834
vn -0.994470 0.000000 -0.105019
vn 0.000000 -0.999989 -0.004680
vn 0.000000 -0.999989 -0.004680
vn 0.000000 -0.999955 -0.009500
vn 0.000000 -0.999955 -0.009500
vn 0.983879 0.000000 -0.178834
vn 0.983879 0.000000 -0.178834
vn 0.994470 0.000000 -0.105019
vn 0.994470 0.000000 -0.105019
vn 0.000000 0.999912 -0.013265
vn 0.000000 0.999912 -0.013265
vn 0.000000 0.999955 -0.009500
vn 0.000000 0.999955 -0.009500
vn -0.983879 0.000000 -0.178834
vn -0.971299 0.000000 -0.237861
vn -0.971299 0.000000 -0.237861
vn -0.983879 0.000000 -0.178834
vn 0.000000 -0.999955 -0.009500
vn 0.000000 -0.999955 -0.009500
vn 0.000000 -0.999912 -0.013265
vn 0.000000 -0.999912 -0.013265
vn 0.971299 0.000000 -0.237861
vn 0.971299 0.000000 -0.237861
vn 0.983879 0.000000 -0.178834
vn 0.983879 0.000000 -0.178834
vn 0.000000 0.999879 -0.015584
vn 0.000000 0.999879 -0.015584
vn 0.000000 0.999912 -0.013265
vn 0.000000 0.999912 -0.013265
vn -0.971299 0.000000 -0.237861
vn -0.960925 0.000000 -0.276808
vn -0.960925 0.000000 -0.276808
vn -0.971299 0.000000 -0.237861
vn 0.000000 -0.999912 -0.013265
vn 0.000000 -0.999912 -0.013265
vn 0.000000 -0.999879 -0.015584
vn 0.000000 -0.999879 -0.015584
vn 0.960925 0.000000 -0.276808
vn 0.960925 0.000000 -0.276808
vn 0.971299 0.000000 -0.237861
vn 0.971299 0.000000 -0.237861
vn 0.000000 0.000000 1.000000
vn 0.000000 0.000000 1.000000
vn 0.000000 0.000000 1.000000
vn 0.000000 0.000000 1.000000
vn 0.000000 1.000000 0.000000
vn 0.000000 1.000000 0.000000
vn 0.000000 1.000000 0.000000
vn 0.000000 1.000000 0.000000
vn 0.000000 0.000000 -1.000000
vn 0.000000 0.000000 -1.000000
vn 0.000000 0.000000 -1.000000
vn 0.000000 0.000000 -1.000000
vn 1.000000 0.000000 0.000000
vn 1.000000 0.000000 0.000000
vn 1.000000 0.000000 0.000000
vn 1.000000 0.000000 0.000000
vn -1.000000 0.000000 0.000000
vn -1.000000 0.000000 0.000000
vn -1.000000 0.000000 0.000000
vn -1.000000 0.000000 0.000000
vn -0.188967 0.969226 0.157772
vn 0.188967 0.969226 0.157772
vn 0.131269 0.982378 0.133046
vn -0.131269 0.982378 0.133046
vn 0.188967 0.969226 0.157772
vn 0.176606 0.963559 -0.200909
vn 0.133989 0.980373 -0.144621
vn 0.131269 0.982378 0.133046
vn 0.176606 0.963559 -0.200909
vn -0.176607 0.963559 -0.200909
vn -0.133989 0.980373 -0.144621
vn 0.133989 0.980373 -0.144621
vn -0.176607 0.963559 -0.200909
vn -0.188967 0.969226 0.157772
vn -0.131269 0.982378 0.133046
vn -0.133989 0.980373 -0.144621
vn 0.133989 0.980373 -0.144621
vn -0.133989 0.980373 -0.144621
vn 0.000000 1.000000 0.000000
vn 0.000000 1.000000 0.000000
vn 0.131269 0.982378 0.133046
vn 0.133989 0.980373 -0.144621
vn 0.000000 1.000000 0.000000
vn 0.000000 1.000000 0.000000
vn -0.131269 0.982378 0.133046
vn 0.131269 0.982378 0.133046
vn 0.000000 1.000000 0.000000
vn 0.000000 1.000000 0.000000
vn -0.133989 0.980373 -0.144621
vn -0.131269 0.982378 0.133046
vn 0.000000 1.000000 0.000000
vn 0.000000 1.000000 0.000000
s off
usemtl chair_Seat_4_initialShadingGroup
f 1/1/1 2/2/2 4/3/3 3/4/4
f 3/4/5 4/3/6 29/5/7 30/6/8
f 5/7/9 6/8/10 8/9/11 7/10/12
f 31/11/13 32/12/14 2/13/15 1/14/16
f 2/15/17 32/16/18 29/5/19 4/3/20
f 31/17/21 1/18/22 3/4/23 30/6/24
f 10/19/25 9/20/26 6/8/27 5/7/28
f 7/21/29 11/22/30 10/19/31 5/7/32
f 7/10/33 8/9/34 12/23/35 11/24/36
f 9/20/37 12/25/38 8/26/39 6/8/40
f 14/27/41 13/28/42 9/20/43 10/19/44
f 11/22/45 15/29/46 14/27/47 10/19/48
f 11/24/49 12/23/50 16/30/51 15/31/52
f 13/28/53 16/32/54 12/25/55 9/20/56
f 18/33/57 17/34/58 13/28/59 14/27/60
f 15/29/61 19/35/62 18/33/63 14/27/64
f 15/31/65 16/30/66 20/36/67 19/37/68
f 17/34/69 20/38/70 16/32/71 13/28/72
f 22/39/73 21/40/74 17/34/75 18/33/76
f 19/35/77 23/41/78 22/39/79 18/33/80
f 19/37/81 20/36/82 24/42/83 23/43/84
f 21/40/85 24/44/86 20/38/87 17/34/88
f 26/45/89 25/46/90 21/40/91 22/39/92
f 23/41/93 27/47/94 26/45/95 22/39/96
f 23/43/97 24/42/98 28/48/99 27/49/100
f 25/46/101 28/50/102 24/44/103 21/40/104
f 30/6/105 29/5/106 25/46/107 26/45/108
f 27/47/109 31/17/110 30/6/111 26/45/112
f 27/49/113 28/48/114 32/12/115 31/11/116
f 29/5/117 32/16/118 28/50/119 25/46/120
f 33/51/121 34/52/122 36/53/123 35/54/124
f 42/55/125 41/56/126 43/57/127 44/58/128
f 37/59/129 38/60/130 40/61/131 39/62/132
f 38/60/133 36/53/134 34/63/135 40/64/136
f 39/65/137 33/66/138 35/54/139 37/59/140
f 35/54/141 36/53/142 47/67/143 48/68/144
f 36/53/145 38/60/146 46/69/147 47/67/148
f 38/60/149 37/59/150 45/70/151 46/69/152
f 37/59/153 35/54/154 48/68/155 45/70/156
f 46/69/157 45/70/158 44/58/159 43/57/160
f 47/67/161 46/69/162 43/57/163 41/56/164
f 48/68/165 47/67/166 41/56/167 42/55/168
f 45/70/169 48/68/170 42/55/171 44/58/172
