# This file uses centimeters as units for non-parametric coordinates.

mtllib chair_Arm_1.mtl
v 0.327702 -0.327702 7.340735
v 0.327702 -0.327702 -0.504350
v 0.327702 0.327702 7.340735
v 0.327702 0.327702 -0.504350
v -0.327702 0.327702 7.340735
v -0.327702 0.327702 -0.504350
v -0.327702 -0.327702 7.340735
v -0.327702 -0.327702 -0.504350
v -0.327702 0.327702 0.247716
v -0.327702 -0.327702 0.247716
v 0.327702 -0.327702 0.247716
v 0.327702 0.327702 0.247716
vt 0.045297 0.690129
vt 0.415506 0.690129
vt 0.415506 0.724336
vt 0.045297 0.724336
vt 0.415506 0.758544
vt 0.045297 0.758544
vt 0.415506 0.792752
vt 0.045297 0.792752
vt 0.415506 0.826959
vt 0.045297 0.826959
vt 0.488967 0.724336
vt 0.488967 0.758544
vt 0.454759 0.758544
vt 0.454759 0.724336
vt 0.011090 0.758544
vt 0.011090 0.724336
vt 0.454759 0.792752
vt 0.454759 0.826959
vt 0.454759 0.690129
vn 1.000000 0.000000 0.000000
vn 1.000000 0.000000 0.000000
vn 1.000000 0.000000 0.000000
vn 1.000000 0.000000 0.000000
vn 0.000000 1.000000 0.000000
vn 0.000000 1.000000 0.000000
vn 0.000000 1.000000 0.000000
vn 0.000000 1.000000 0.000000
vn -1.000000 0.000000 -0.000000
vn -1.000000 0.000000 -0.000000
vn -1.000000 0.000000 -0.000000
vn -1.000000 0.000000 -0.000000
vn 0.000000 -1.000000 0.000000
vn 0.000000 -1.000000 0.000000
vn 0.000000 -1.000000 0.000000
vn 0.000000 -1.000000 0.000000
vn 0.000000 0.000000 -1.000000
vn 0.000000 0.000000 -1.000000
vn 0.000000 0.000000 -1.000000
vn 0.000000 0.000000 -1.000000
vn 0.000000 0.000000 1.000000
vn 0.000000 0.000000 1.000000
vn 0.000000 0.000000 1.000000
vn 0.000000 0.000000 1.000000
vn -1.000000 0.000000 -0.000000
vn -1.000000 0.000000 -0.000000
vn -1.000000 0.000000 -0.000000
vn -1.000000 0.000000 -0.000000
vn 0.000000 -1.000000 0.000000
vn 0.000000 -1.000000 0.000000
vn 0.000000 -1.000000 0.000000
vn 0.000000 -1.000000 0.000000
vn 1.000000 0.000000 0.000000
vn 1.000000 0.000000 0.000000
vn 1.000000 0.000000 0.000000
vn 1.000000 0.000000 0.000000
vn 0.000000 1.000000 0.000000
vn 0.000000 1.000000 0.000000
vn 0.000000 1.000000 0.000000
vn 0.000000 1.000000 0.000000
s off
usemtl initialShadingGroup
f 1/1/1 11/2/2 12/3/3 3/4/4
f 3/4/5 12/3/6 9/5/7 5/6/8
f 5/6/9 9/5/10 10/7/11 7/8/12
f 7/8/13 10/7/14 11/9/15 1/10/16
f 2/11/17 8/12/18 6/13/19 4/14/20
f 7/15/21 1/16/22 3/4/23 5/6/24
f 9/5/25 6/13/26 8/17/27 10/7/28
f 11/9/29 10/7/30 8/17/31 2/18/32
f 12/3/33 11/2/34 2/19/35 4/14/36
f 9/5/37 12/3/38 4/14/39 6/13/40
