# This file uses centimeters as units for non-parametric coordinates.

mtllib chair_Arm_4.mtl
v 0.257249 -0.104145 6.569742
v 0.310861 -0.148907 -0.504350
v 0.257249 0.104145 6.569742
v 0.310861 0.148907 -0.504350
v 0.310861 -0.148907 0.244019
v 0.310861 0.148907 0.244019
v -0.016841 0.104030 6.573148
v -0.016841 0.148907 0.244019
v -0.016841 0.148907 -0.504350
v -0.016841 -0.148907 -0.504350
v -0.016841 -0.148907 0.244019
v -0.016841 -0.104209 6.566336
v 0.363742 -0.235118 6.180283
v 0.373668 -0.198047 6.057271
v 0.443415 -0.242805 6.189517
v 0.453453 -0.207936 6.065115
v 0.345707 -0.426639 5.996822
v 0.440075 -0.439504 6.016795
v 0.427873 -0.420719 6.168018
v 0.333441 -0.411075 6.148837
v 0.302264 -0.642650 6.128247
v 0.411002 -0.654065 6.163000
v 0.400830 -0.573769 6.289062
v 0.291752 -0.565519 6.258528
v 0.246388 -0.776704 6.413762
v 0.369652 -0.781372 6.461347
v 0.365901 -0.654916 6.507832
v 0.242017 -0.651664 6.467930
v 0.185196 -0.783471 6.765143
v 0.323545 -0.777380 6.818650
v 0.329036 -0.641700 6.750600
v 0.189931 -0.645790 6.706464
v 0.127726 -0.656919 7.070417
v 0.281977 -0.639388 7.119702
v 0.296543 -0.542311 6.939189
v 0.141676 -0.553651 6.897521
v 0.082094 -0.433428 7.228968
v 0.253049 -0.408173 7.264110
v 0.273081 -0.391707 7.015845
v 0.101983 -0.407442 6.982475
v 0.052879 -0.181418 7.184057
v 0.240994 -0.156015 7.199403
v 0.260265 -0.239428 6.960575
v 0.072726 -0.254667 6.938101
v 0.039552 0.019580 6.942249
v 0.244689 0.035888 6.939505
v 0.256284 -0.133310 6.795805
v 0.052465 -0.142726 6.782224
v -0.290930 -0.104145 6.569742
v -0.344543 -0.148907 0.244019
v -0.344543 0.148907 0.244019
v -0.290930 0.104145 6.569742
v -0.344543 -0.148907 -0.504350
v -0.344543 0.148907 -0.504350
v -0.407350 -0.198047 6.057271
v -0.397424 -0.235118 6.180283
v -0.477096 -0.242805 6.189517
v -0.487134 -0.207936 6.065115
v -0.086147 -0.142726 6.782224
v -0.073234 0.019580 6.942249
v -0.289965 -0.133310 6.795805
v -0.278370 0.035888 6.939505
v -0.473757 -0.439504 6.016795
v -0.379389 -0.426639 5.996822
v -0.461555 -0.420719 6.168018
v -0.367123 -0.411075 6.148837
v -0.444683 -0.654065 6.163000
v -0.335946 -0.642650 6.128247
v -0.434512 -0.573769 6.289062
v -0.325433 -0.565519 6.258528
v -0.403334 -0.781372 6.461347
v -0.280069 -0.776704 6.413762
v -0.399583 -0.654916 6.507832
v -0.275699 -0.651664 6.467930
v -0.357227 -0.777380 6.818650
v -0.218878 -0.783471 6.765143
v -0.362718 -0.641700 6.750600
v -0.223613 -0.645790 6.706464
v -0.315659 -0.639388 7.119702
v -0.161407 -0.656919 7.070417
v -0.330224 -0.542311 6.939189
v -0.175358 -0.553651 6.897521
v -0.286730 -0.408173 7.264110
v -0.115775 -0.433428 7.228968
v -0.306763 -0.391707 7.015845
v -0.135665 -0.407442 6.982475
v -0.274675 -0.156015 7.199403
v -0.086561 -0.181418 7.184057
v -0.293946 -0.239428 6.960575
v -0.106407 -0.254667 6.938101
v -0.375255 -0.438213 6.047480
v 0.353093 -0.438213 6.047480
v -0.375255 -0.617513 6.154029
v 0.328420 -0.617513 6.154029
v -0.375255 -0.731447 6.408299
v 0.282790 -0.731447 6.408299
v -0.234498 -0.742363 6.669390
v 0.234498 -0.742363 6.669390
v -0.234498 -0.685478 6.920513
v 0.234498 -0.685478 6.920513
v -0.234498 -0.555065 7.101458
v 0.234498 -0.555065 7.101458
v -0.234498 -0.382391 7.168841
v 0.234498 -0.382391 7.168841
v -0.234498 -0.381847 7.086588
v 0.234498 -0.381847 7.086588
v -0.234498 -0.528268 7.029450
v 0.234498 -0.528268 7.029450
v -0.234498 -0.638855 6.876015
v 0.234498 -0.638855 6.876015
v -0.234498 -0.687091 6.663069
v 0.234498 -0.687091 6.663069
v -0.375255 -0.680779 6.441672
v 0.282790 -0.680779 6.441672
v -0.375255 -0.583598 6.219095
v 0.328420 -0.583598 6.219095
v -0.375255 -0.429182 6.128636
v 0.353093 -0.429182 6.128636
vt 0.131448 0.785956
vt 0.481324 0.778817
vt 0.481535 0.795352
vt 0.130595 0.797771
vt 0.522937 0.778657
vt 0.522985 0.795112
vt 0.481647 0.813402
vt 0.126950 0.813186
vt 0.523084 0.813363
vt 0.539595 0.795093
vt 0.539649 0.813325
vt 0.480945 0.760586
vt 0.522867 0.760538
vt 0.131302 0.770431
vt 0.029185 0.733084
vt 0.026822 0.740127
vt 0.022504 0.738836
vt 0.024879 0.731892
vt 0.112190 0.813344
vt 0.103028 0.806212
vt 0.110418 0.798012
vt 0.135983 0.772469
vt 0.121444 0.781109
vt 0.125689 0.772046
vt 0.116036 0.789783
vt 0.041936 0.734922
vt 0.038714 0.738781
vt 0.032043 0.728683
vt 0.047319 0.729361
vt 0.038230 0.723224
vt 0.050370 0.724930
vt 0.040978 0.719697
vt 0.035970 0.745606
vt 0.052028 0.741125
vt 0.047673 0.745523
vt 0.058169 0.736813
vt 0.061151 0.731214
vt 0.045062 0.753017
vt 0.064396 0.750646
vt 0.058683 0.755521
vt 0.069952 0.745620
vt 0.073299 0.739094
vt 0.054735 0.762040
vt 0.077586 0.761823
vt 0.071153 0.767425
vt 0.081728 0.754280
vt 0.085756 0.747196
vt 0.064847 0.772441
vt 0.088694 0.771135
vt 0.082454 0.777157
vt 0.092393 0.761600
vt 0.097241 0.754350
vt 0.074930 0.782963
vt 0.097105 0.777266
vt 0.091126 0.783338
vt 0.101913 0.767706
vt 0.107075 0.760239
vt 0.084736 0.791996
vt 0.105272 0.782524
vt 0.099414 0.789380
vt 0.111390 0.774034
vt 0.116098 0.765646
vt 0.093921 0.799182
vt 0.131600 0.840284
vt 0.130679 0.828545
vt 0.481604 0.831455
vt 0.481475 0.847995
vt 0.523162 0.831627
vt 0.523139 0.848181
vt 0.539724 0.831569
vt 0.480698 0.742359
vt 0.522856 0.742305
vt 0.130787 0.756331
vt 0.030382 0.895783
vt 0.026110 0.897088
vt 0.023556 0.890209
vt 0.027840 0.888805
vt 0.110560 0.829057
vt 0.103099 0.820827
vt 0.138317 0.855487
vt 0.126216 0.856809
vt 0.121751 0.846253
vt 0.116251 0.837343
vt 0.043083 0.893625
vt 0.033351 0.900103
vt 0.039767 0.889848
vt 0.048595 0.899059
vt 0.039659 0.905409
vt 0.051746 0.903419
vt 0.042483 0.908873
vt 0.036859 0.883088
vt 0.053022 0.887184
vt 0.048569 0.882886
vt 0.059259 0.891358
vt 0.062367 0.896888
vt 0.045781 0.875460
vt 0.065168 0.877378
vt 0.059354 0.872631
vt 0.070824 0.882289
vt 0.074307 0.888742
vt 0.055259 0.866209
vt 0.078118 0.865912
vt 0.071588 0.860420
vt 0.082397 0.873404
vt 0.086543 0.880425
vt 0.065174 0.855549
vt 0.089067 0.856444
vt 0.082749 0.850451
vt 0.092927 0.865950
vt 0.097858 0.873175
vt 0.075133 0.844746
vt 0.097420 0.850162
vt 0.091363 0.844157
vt 0.102356 0.859778
vt 0.107589 0.867322
vt 0.084890 0.835486
vt 0.105535 0.844823
vt 0.099614 0.837917
vt 0.111769 0.853432
vt 0.116574 0.862169
vt 0.094031 0.828106
vt 0.249277 0.809391
vt 0.248895 0.769465
vt 0.260341 0.770709
vt 0.260710 0.809282
vt 0.275638 0.773064
vt 0.275984 0.809136
vt 0.289988 0.775574
vt 0.290234 0.801283
vt 0.304103 0.775439
vt 0.304349 0.801148
vt 0.316330 0.775322
vt 0.316576 0.801031
vt 0.326490 0.775225
vt 0.326736 0.800933
vt 0.330999 0.775181
vt 0.331245 0.800890
vt 0.339615 0.775099
vt 0.339861 0.800808
vt 0.349983 0.775000
vt 0.350229 0.800709
vt 0.361951 0.774885
vt 0.362197 0.800594
vt 0.374067 0.772122
vt 0.374413 0.808194
vt 0.387357 0.769493
vt 0.387726 0.808066
vt 0.397154 0.768047
vt 0.397536 0.807973
vt 0.244801 0.809434
vt 0.244419 0.769508
vn 1.000000 0.000000 0.000000
vn 1.000000 0.000000 0.000000
vn 1.000000 0.000000 0.000000
vn 1.000000 0.000000 0.000000
vn 1.000000 0.000000 0.000000
vn 1.000000 0.000000 0.000000
vn 1.000000 0.000000 0.000000
vn 1.000000 0.000000 0.000000
vn 0.000000 1.000000 0.000000
vn 0.000000 1.000000 0.000000
vn -0.000152 0.999975 0.007083
vn -0.000152 0.999975 0.007083
vn 0.000000 1.000000 0.000000
vn 0.000000 1.000000 0.000000
vn 0.000000 1.000000 0.000000
vn 0.000000 1.000000 0.000000
vn 0.000000 0.000000 -1.000000
vn 0.000000 0.000000 -1.000000
vn 0.000000 0.000000 -1.000000
vn 0.000000 0.000000 -1.000000
vn 0.000000 -1.000000 0.000000
vn 0.000000 -1.000000 0.000000
vn 0.000000 -1.000000 0.000000
vn 0.000000 -1.000000 0.000000
vn 0.000067 -0.999975 0.007073
vn 0.000067 -0.999975 0.007073
vn 0.000000 -1.000000 0.000000
vn 0.000000 -1.000000 0.000000
vn 0.074946 0.955894 0.283990
vn 0.074946 0.955894 0.283990
vn 0.074946 0.955894 0.283990
vn 0.074946 0.955894 0.283990
vn -0.975713 -0.117297 0.184999
vn -0.975713 -0.117297 0.184999
vn -0.990831 -0.119479 0.063072
vn -0.983129 -0.118326 0.139487
vn 0.025105 -0.987576 -0.155121
vn 0.025105 -0.987576 -0.155121
vn 0.058549 -0.942092 -0.330205
vn 0.055156 -0.948322 -0.312479
vn 0.999444 0.020770 0.026082
vn 0.999444 0.020770 0.026082
vn 0.999098 0.030275 0.029773
vn 0.998380 0.044597 0.035330
vn -0.030914 0.978470 0.204061
vn -0.030914 0.978470 0.204061
vn -0.062727 0.920026 0.386803
vn -0.058399 0.930346 0.362003
vn 0.176651 -0.301039 -0.937107
vn 0.182182 -0.180414 -0.966572
vn 0.180979 0.210807 -0.960628
vn 0.180979 0.210807 -0.960628
vn 0.992867 -0.078973 0.089317
vn 0.992461 -0.077286 0.095119
vn 0.993696 -0.083026 0.075336
vn 0.993696 -0.083026 0.075336
vn -0.165723 0.282367 0.944884
vn -0.161377 0.355635 0.920587
vn -0.171835 -0.123959 0.977296
vn -0.171835 -0.123959 0.977296
vn -0.983420 0.148700 -0.103799
vn -0.984023 0.150863 -0.094550
vn -0.985283 0.157165 -0.067212
vn -0.985283 0.157165 -0.067212
vn 0.108365 -0.817561 -0.565554
vn 0.117317 -0.780136 -0.614512
vn 0.182182 -0.180414 -0.966572
vn 0.176651 -0.301039 -0.937107
vn 0.991451 -0.062753 0.114395
vn 0.991047 -0.048666 0.124326
vn 0.992461 -0.077286 0.095119
vn 0.992867 -0.078973 0.089317
vn -0.097097 0.823487 0.558965
vn -0.092957 0.839321 0.535629
vn -0.161377 0.355635 0.920587
vn -0.165723 0.282367 0.944884
vn -0.981991 0.097978 -0.161538
vn -0.982162 0.123308 -0.141965
vn -0.984023 0.150863 -0.094550
vn -0.983420 0.148700 -0.103799
vn 0.036999 -0.984488 -0.171509
vn 0.039457 -0.981915 -0.185167
vn 0.117317 -0.780136 -0.614512
vn 0.108365 -0.817561 -0.565554
vn 0.990924 -0.019800 0.132956
vn 0.990862 -0.010130 0.134498
vn 0.991047 -0.048666 0.124326
vn 0.991451 -0.062753 0.114395
vn -0.021849 0.990549 0.135406
vn -0.023191 0.989459 0.142945
vn -0.092957 0.839321 0.535629
vn -0.097097 0.823487 0.558965
vn -0.982692 0.024573 -0.183609
vn -0.982693 0.045246 -0.179630
vn -0.982162 0.123308 -0.141965
vn -0.981991 0.097978 -0.161538
vn -0.031499 -0.976547 0.212988
vn -0.028847 -0.979777 0.198005
vn 0.039457 -0.981915 -0.185167
vn 0.036999 -0.984488 -0.171509
vn 0.990967 0.032903 0.130009
vn 0.990904 0.020795 0.132952
vn 0.990862 -0.010130 0.134498
vn 0.990924 -0.019800 0.132956
vn 0.046719 0.967402 -0.248901
vn 0.045598 0.969045 -0.242637
vn -0.023191 0.989459 0.142945
vn -0.021849 0.990549 0.135406
vn -0.982722 -0.034878 -0.181771
vn -0.982576 -0.055206 -0.177471
vn -0.982693 0.045246 -0.179630
vn -0.982692 0.024573 -0.183609
vn -0.107424 -0.755881 0.645835
vn -0.097951 -0.800265 0.591592
vn -0.028847 -0.979777 0.198005
vn -0.031499 -0.976547 0.212988
vn 0.991720 0.069730 0.107843
vn 0.991250 0.057172 0.118973
vn 0.990904 0.020795 0.132952
vn 0.990967 0.032903 0.130009
vn 0.118954 0.749125 -0.651660
vn 0.122872 0.728941 -0.673459
vn 0.045598 0.969045 -0.242637
vn 0.046719 0.967402 -0.248901
vn -0.982048 -0.103569 -0.157654
vn -0.982139 -0.128864 -0.137101
vn -0.982576 -0.055206 -0.177471
vn -0.982722 -0.034878 -0.181771
vn -0.165344 -0.122336 0.978619
vn -0.160699 -0.260304 0.952060
vn -0.097951 -0.800265 0.591592
vn -0.107424 -0.755881 0.645835
vn 0.993373 0.080010 0.082513
vn 0.993120 0.079605 0.085887
vn 0.991250 0.057172 0.118973
vn 0.991720 0.069730 0.107843
vn 0.177095 0.139084 -0.974317
vn 0.178358 0.072853 -0.981265
vn 0.122872 0.728941 -0.673459
vn 0.118954 0.749125 -0.651660
vn -0.983800 -0.150104 -0.098016
vn -0.984429 -0.152008 -0.088283
vn -0.982139 -0.128864 -0.137101
vn -0.982048 -0.103569 -0.157654
vn -0.131270 0.610685 0.780917
vn -0.141864 0.520178 0.842193
vn -0.160699 -0.260304 0.952060
vn -0.165344 -0.122336 0.978619
vn 0.995507 0.073883 0.059226
vn 0.996668 0.065496 0.048620
vn 0.993120 0.079605 0.085887
vn 0.993373 0.080010 0.082513
vn 0.142490 -0.608232 -0.780865
vn 0.137987 -0.640139 -0.755765
vn 0.178358 0.072853 -0.981265
vn 0.177095 0.139084 -0.974317
vn -0.991121 -0.130416 -0.025896
vn -0.988656 -0.143329 -0.044892
vn -0.984429 -0.152008 -0.088283
vn -0.983800 -0.150104 -0.098016
vn -0.058399 0.930346 0.362003
vn -0.062727 0.920026 0.386803
vn -0.141864 0.520178 0.842193
vn -0.131270 0.610685 0.780917
vn 0.998380 0.044597 0.035330
vn 0.999098 0.030275 0.029773
vn 0.996668 0.065496 0.048620
vn 0.995507 0.073883 0.059226
vn 0.055156 -0.948322 -0.312479
vn 0.058549 -0.942092 -0.330205
vn 0.137987 -0.640139 -0.755765
vn 0.142490 -0.608232 -0.780865
vn -0.983129 -0.118326 0.139487
vn -0.990831 -0.119479 0.063072
vn -0.988656 -0.143329 -0.044892
vn -0.991121 -0.130416 -0.025896
vn -1.000000 0.000000 0.000000
vn -1.000000 0.000000 0.000000
vn -1.000000 0.000000 0.000000
vn -1.000000 0.000000 0.000000
vn -1.000000 0.000000 0.000000
vn -1.000000 0.000000 0.000000
vn -1.000000 0.000000 0.000000
vn -1.000000 0.000000 0.000000
vn 0.000000 1.000000 0.000000
vn 0.000152 0.999975 0.007083
vn 0.000152 0.999975 0.007083
vn 0.000000 1.000000 0.000000
vn 0.000000 1.000000 0.000000
vn 0.000000 1.000000 0.000000
vn 0.000000 1.000000 0.000000
vn 0.000000 1.000000 0.000000
vn 0.000000 0.000000 -1.000000
vn 0.000000 0.000000 -1.000000
vn 0.000000 0.000000 -1.000000
vn 0.000000 0.000000 -1.000000
vn 0.000000 -1.000000 0.000000
vn 0.000000 -1.000000 0.000000
vn 0.000000 -1.000000 0.000000
vn 0.000000 -1.000000 0.000000
vn -0.000067 -0.999975 0.007073
vn 0.000000 -1.000000 0.000000
vn 0.000000 -1.000000 0.000000
vn -0.000067 -0.999975 0.007073
vn -0.074948 0.955894 0.283990
vn -0.074948 0.955894 0.283990
vn -0.074948 0.955894 0.283990
vn -0.074948 0.955894 0.283990
vn 0.975713 -0.117297 0.184999
vn 0.983129 -0.118326 0.139487
vn 0.990831 -0.119479 0.063072
vn 0.975713 -0.117297 0.184999
vn -0.025105 -0.987576 -0.155121
vn -0.055156 -0.948322 -0.312479
vn -0.058549 -0.942092 -0.330205
vn -0.025105 -0.987576 -0.155121
vn -0.999444 0.020770 0.026082
vn -0.998380 0.044597 0.035330
vn -0.999098 0.030275 0.029773
vn -0.999444 0.020770 0.026082
vn 0.030914 0.978470 0.204061
vn 0.058399 0.930345 0.362004
vn 0.062727 0.920026 0.386803
vn 0.030914 0.978470 0.204061
vn -0.180982 0.210807 -0.960628
vn -0.180982 0.210807 -0.960628
vn -0.180982 0.210807 -0.960628
vn -0.180982 0.210807 -0.960628
vn -0.993696 -0.083021 0.075336
vn -0.993696 -0.083021 0.075336
vn -0.993696 -0.083021 0.075336
vn -0.993696 -0.083021 0.075336
vn 0.171834 -0.123959 0.977296
vn 0.171834 -0.123959 0.977296
vn 0.171834 -0.123959 0.977296
vn 0.171834 -0.123959 0.977296
vn 0.985283 0.157165 -0.067212
vn 0.985283 0.157165 -0.067212
vn 0.985283 0.157165 -0.067212
vn 0.985283 0.157165 -0.067212
vn -0.108365 -0.817560 -0.565555
vn -0.154312 -0.553644 -0.818331
vn -0.154312 -0.553644 -0.818331
vn -0.117317 -0.780136 -0.614512
vn -0.991451 -0.062753 0.114395
vn -0.991563 -0.073984 0.106441
vn -0.991563 -0.073984 0.106441
vn -0.991047 -0.048666 0.124327
vn 0.097098 0.823487 0.558965
vn 0.135975 0.613883 0.777598
vn 0.135975 0.613883 0.777598
vn 0.092957 0.839321 0.535629
vn 0.981991 0.097978 -0.161538
vn 0.981578 0.143378 -0.126285
vn 0.981578 0.143378 -0.126285
vn 0.982162 0.123308 -0.141965
vn -0.036999 -0.984488 -0.171509
vn -0.108365 -0.817560 -0.565555
vn -0.117317 -0.780136 -0.614512
vn -0.039457 -0.981915 -0.185167
vn -0.990924 -0.019800 0.132956
vn -0.991451 -0.062753 0.114395
vn -0.991047 -0.048666 0.124327
vn -0.990862 -0.010130 0.134498
vn 0.021849 0.990549 0.135406
vn 0.097098 0.823487 0.558965
vn 0.092957 0.839321 0.535629
vn 0.023190 0.989459 0.142945
vn 0.982692 0.024573 -0.183609
vn 0.981991 0.097978 -0.161538
vn 0.982162 0.123308 -0.141965
vn 0.982693 0.045246 -0.179630
vn 0.031499 -0.976547 0.212988
vn -0.036999 -0.984488 -0.171509
vn -0.039457 -0.981915 -0.185167
vn 0.028847 -0.979777 0.198005
vn -0.990967 0.032903 0.130009
vn -0.990924 -0.019800 0.132956
vn -0.990862 -0.010130 0.134498
vn -0.990904 0.020795 0.132952
vn -0.046718 0.967402 -0.248901
vn 0.021849 0.990549 0.135406
vn 0.023190 0.989459 0.142945
vn -0.045598 0.969045 -0.242637
vn 0.982722 -0.034877 -0.181771
vn 0.982692 0.024573 -0.183609
vn 0.982693 0.045246 -0.179630
vn 0.982576 -0.055206 -0.177471
vn 0.107424 -0.755881 0.645835
vn 0.031499 -0.976547 0.212988
vn 0.028847 -0.979777 0.198005
vn 0.097951 -0.800265 0.591592
vn -0.991720 0.069730 0.107843
vn -0.990967 0.032903 0.130009
vn -0.990904 0.020795 0.132952
vn -0.991250 0.057172 0.118973
vn -0.118953 0.749125 -0.651660
vn -0.046718 0.967402 -0.248901
vn -0.045598 0.969045 -0.242637
vn -0.122871 0.728941 -0.673459
vn 0.982048 -0.103569 -0.157654
vn 0.982722 -0.034877 -0.181771
vn 0.982576 -0.055206 -0.177471
vn 0.982139 -0.128863 -0.137101
vn 0.165346 -0.122336 0.978619
vn 0.107424 -0.755881 0.645835
vn 0.097951 -0.800265 0.591592
vn 0.160701 -0.260304 0.952059
vn -0.993373 0.080010 0.082513
vn -0.991720 0.069730 0.107843
vn -0.991250 0.057172 0.118973
vn -0.993120 0.079605 0.085887
vn -0.177095 0.139084 -0.974317
vn -0.118953 0.749125 -0.651660
vn -0.122871 0.728941 -0.673459
vn -0.178358 0.072853 -0.981265
vn 0.983800 -0.150104 -0.098016
vn 0.982048 -0.103569 -0.157654
vn 0.982139 -0.128863 -0.137101
vn 0.984429 -0.152008 -0.088283
vn 0.131268 0.610686 0.780917
vn 0.165346 -0.122336 0.978619
vn 0.160701 -0.260304 0.952059
vn 0.141864 0.520178 0.842193
vn -0.995507 0.073883 0.059226
vn -0.993373 0.080010 0.082513
vn -0.993120 0.079605 0.085887
vn -0.996668 0.065495 0.048620
vn -0.142490 -0.608232 -0.780865
vn -0.177095 0.139084 -0.974317
vn -0.178358 0.072853 -0.981265
vn -0.137987 -0.640139 -0.755765
vn 0.991121 -0.130416 -0.025896
vn 0.983800 -0.150104 -0.098016
vn 0.984429 -0.152008 -0.088283
vn 0.988656 -0.143329 -0.044892
vn 0.058399 0.930345 0.362004
vn 0.131268 0.610686 0.780917
vn 0.141864 0.520178 0.842193
vn 0.062727 0.920026 0.386803
vn -0.998380 0.044597 0.035330
vn -0.995507 0.073883 0.059226
vn -0.996668 0.065495 0.048620
vn -0.999098 0.030275 0.029773
vn -0.055156 -0.948322 -0.312479
vn -0.142490 -0.608232 -0.780865
vn -0.137987 -0.640139 -0.755765
vn -0.058549 -0.942092 -0.330205
vn 0.983129 -0.118326 0.139487
vn 0.991121 -0.130416 -0.025896
vn 0.988656 -0.143329 -0.044892
vn 0.990831 -0.119479 0.063072
vn 0.000000 -0.510857 -0.859666
vn 0.000000 -0.510857 -0.859666
vn 0.000000 -0.510857 -0.859666
vn 0.000000 -0.510857 -0.859666
vn 0.000000 -0.771088 -0.636728
vn 0.000000 -0.766542 -0.642195
vn 0.000000 -0.966508 -0.256636
vn 0.000000 -0.965996 -0.258558
vn 0.000000 -0.965996 -0.258558
vn 0.000000 -0.966508 -0.256636
vn 0.000000 -0.997114 0.075917
vn 0.000000 -0.997300 0.073441
vn 0.000000 -0.997300 0.073441
vn 0.000000 -0.997114 0.075917
vn 0.000000 -0.917503 0.397729
vn 0.000000 -0.917503 0.397729
vn 0.000000 -0.917503 0.397729
vn 0.000000 -0.917503 0.397729
vn 0.000000 -0.633769 0.773523
vn 0.000000 -0.633769 0.773523
vn 0.000000 -0.633769 0.773523
vn 0.000000 -0.633769 0.773523
vn 0.000000 -0.363532 0.931582
vn 0.000000 -0.363532 0.931582
vn 0.000000 0.999978 0.006620
vn 0.000000 0.999978 0.006620
vn 0.000000 0.999978 0.006620
vn 0.000000 0.999978 0.006620
vn 0.000000 0.363532 -0.931582
vn 0.000000 0.363532 -0.931582
vn 0.000000 0.633769 -0.773523
vn 0.000000 0.633769 -0.773523
vn 0.000000 0.633769 -0.773523
vn 0.000000 0.633769 -0.773523
vn 0.000000 0.917503 -0.397729
vn 0.000000 0.917503 -0.397729
vn 0.000000 0.917503 -0.397729
vn 0.000000 0.917503 -0.397729
vn 0.000000 0.996543 -0.083074
vn 0.000000 0.996768 -0.080331
vn 0.000000 0.996768 -0.080331
vn 0.000000 0.996543 -0.083074
vn 0.000000 0.968501 0.249008
vn 0.000000 0.967888 0.251383
vn 0.000000 0.967888 0.251383
vn 0.000000 0.968501 0.249008
vn 0.000000 0.769015 0.639231
vn 0.000000 0.774402 0.632694
vn 0.000000 0.774402 0.632694
vn 0.000000 0.769015 0.639231
vn 0.000000 0.505464 0.862848
vn 0.000000 0.505464 0.862848
vn 0.000000 0.993865 -0.110596
vn 0.000000 0.993865 -0.110596
vn 0.000000 0.993865 -0.110596
vn 0.000000 0.993865 -0.110596
s off
usemtl initialShadingGroup
f 1/1/1 5/2/2 6/3/3 3/4/4
f 6/3/5 5/2/6 2/5/7 4/6/8
f 3/4/9 6/3/10 8/7/11 7/8/12
f 9/9/13 8/7/14 6/3/15 4/6/16
f 2/10/17 10/11/18 9/9/19 4/6/20
f 5/2/21 11/12/22 10/13/23 2/5/24
f 12/14/25 11/12/26 5/2/27 1/1/28
f 14/15/29 13/16/30 15/17/31 16/18/32
f 7/8/33 12/19/34 48/20/35 45/21/36
f 12/22/37 1/1/38 47/23/39 48/24/40
f 1/1/41 3/4/42 46/25/43 47/23/44
f 3/4/45 7/8/46 45/21/47 46/25/48
f 18/26/49 17/27/50 14/15/51 16/28/52
f 19/29/53 18/26/54 16/28/55 15/30/56
f 20/31/57 19/29/58 15/30/59 13/32/60
f 17/27/61 20/33/62 13/16/63 14/15/64
f 22/34/65 21/35/66 17/27/67 18/26/68
f 23/36/69 22/34/70 18/26/71 19/29/72
f 24/37/73 23/36/74 19/29/75 20/31/76
f 21/35/77 24/38/78 20/33/79 17/27/80
f 26/39/81 25/40/82 21/35/83 22/34/84
f 27/41/85 26/39/86 22/34/87 23/36/88
f 28/42/89 27/41/90 23/36/91 24/37/92
f 25/40/93 28/43/94 24/38/95 21/35/96
f 30/44/97 29/45/98 25/40/99 26/39/100
f 31/46/101 30/44/102 26/39/103 27/41/104
f 32/47/105 31/46/106 27/41/107 28/42/108
f 29/45/109 32/48/110 28/43/111 25/40/112
f 34/49/113 33/50/114 29/45/115 30/44/116
f 35/51/117 34/49/118 30/44/119 31/46/120
f 36/52/121 35/51/122 31/46/123 32/47/124
f 33/50/125 36/53/126 32/48/127 29/45/128
f 38/54/129 37/55/130 33/50/131 34/49/132
f 39/56/133 38/54/134 34/49/135 35/51/136
f 40/57/137 39/56/138 35/51/139 36/52/140
f 37/55/141 40/58/142 36/53/143 33/50/144
f 42/59/145 41/60/146 37/55/147 38/54/148
f 43/61/149 42/59/150 38/54/151 39/56/152
f 44/62/153 43/61/154 39/56/155 40/57/156
f 41/60/157 44/63/158 40/58/159 37/55/160
f 46/25/161 45/21/162 41/60/163 42/59/164
f 47/23/165 46/25/166 42/59/167 43/61/168
f 48/24/169 47/23/170 43/61/171 44/62/172
f 45/21/173 48/20/174 44/63/175 41/60/176
f 49/64/177 52/65/178 51/66/179 50/67/180
f 51/66/181 54/68/182 53/69/183 50/67/184
f 52/65/185 7/8/186 8/7/187 51/66/188
f 9/9/189 54/68/190 51/66/191 8/7/192
f 53/70/193 54/68/194 9/9/195 10/11/196
f 50/71/197 53/72/198 10/13/199 11/12/200
f 12/14/201 49/73/202 50/71/203 11/12/204
f 55/74/205 58/75/206 57/76/207 56/77/208
f 7/8/209 60/78/210 59/79/211 12/19/212
f 12/80/213 59/81/214 61/82/215 49/64/216
f 49/64/217 61/82/218 62/83/219 52/65/220
f 52/65/221 62/83/222 60/78/223 7/8/224
f 63/84/225 58/85/226 55/74/227 64/86/228
f 65/87/229 57/88/230 58/85/231 63/84/232
f 66/89/233 56/90/234 57/88/235 65/87/236
f 64/86/237 55/74/238 56/77/239 66/91/240
f 67/92/241 63/84/242 64/86/243 68/93/244
f 69/94/245 65/87/246 63/84/247 67/92/248
f 70/95/249 66/89/250 65/87/251 69/94/252
f 68/93/253 64/86/254 66/91/255 70/96/256
f 71/97/257 67/92/258 68/93/259 72/98/260
f 73/99/261 69/94/262 67/92/263 71/97/264
f 74/100/265 70/95/266 69/94/267 73/99/268
f 72/98/269 68/93/270 70/96/271 74/101/272
f 75/102/273 71/97/274 72/98/275 76/103/276
f 77/104/277 73/99/278 71/97/279 75/102/280
f 78/105/281 74/100/282 73/99/283 77/104/284
f 76/103/285 72/98/286 74/101/287 78/106/288
f 79/107/289 75/102/290 76/103/291 80/108/292
f 81/109/293 77/104/294 75/102/295 79/107/296
f 82/110/297 78/105/298 77/104/299 81/109/300
f 80/108/301 76/103/302 78/106/303 82/111/304
f 83/112/305 79/107/306 80/108/307 84/113/308
f 85/114/309 81/109/310 79/107/311 83/112/312
f 86/115/313 82/110/314 81/109/315 85/114/316
f 84/113/317 80/108/318 82/111/319 86/116/320
f 87/117/321 83/112/322 84/113/323 88/118/324
f 89/119/325 85/114/326 83/112/327 87/117/328
f 90/120/329 86/115/330 85/114/331 89/119/332
f 88/118/333 84/113/334 86/116/335 90/121/336
f 62/83/337 87/117/338 88/118/339 60/78/340
f 61/82/341 89/119/342 87/117/343 62/83/344
f 59/81/345 90/120/346 89/119/347 61/82/348
f 60/78/349 88/118/350 90/121/351 59/79/352
f 91/122/353 92/123/354 94/124/355 93/125/356
f 93/125/357 94/124/358 96/126/359 95/127/360
f 95/127/361 96/126/362 98/128/363 97/129/364
f 97/129/365 98/128/366 100/130/367 99/131/368
f 99/131/369 100/130/370 102/132/371 101/133/372
f 101/133/373 102/132/374 104/134/375 103/135/376
f 103/135/377 104/134/378 106/136/379 105/137/380
f 105/137/381 106/136/382 108/138/383 107/139/384
f 107/139/385 108/138/386 110/140/387 109/141/388
f 109/141/389 110/140/390 112/142/391 111/143/392
f 111/143/393 112/142/394 114/144/395 113/145/396
f 113/145/397 114/144/398 116/146/399 115/147/400
f 115/147/401 116/146/402 118/148/403 117/149/404
f 117/150/405 118/151/406 92/123/407 91/122/408
