# This file uses centimeters as units for non-parametric coordinates.

mtllib chair_Leg_3.mtl
v 0.223549 -5.941140 -0.099531
v 0.163740 -5.941140 -0.181849
v 0.075618 -5.941140 -0.232726
v -0.025576 -5.941140 -0.243361
v -0.122350 -5.941140 -0.211920
v -0.197968 -5.941140 -0.143833
v -0.239353 -5.941140 -0.050877
v -0.239353 -5.941140 0.050877
v -0.197968 -5.941140 0.143833
v -0.122350 -5.941140 0.211920
v -0.025576 -5.941140 0.243361
v 0.075618 -5.941140 0.232726
v 0.163740 -5.941140 0.181849
v 0.223549 -5.941140 0.099531
v 0.244700 -5.941140 0.000000
v 0.223549 0.000000 -0.099531
v 0.163740 0.000000 -0.181849
v 0.075618 0.000000 -0.232726
v -0.025576 0.000000 -0.243361
v -0.122350 0.000000 -0.211920
v -0.197968 0.000000 -0.143833
v -0.239353 0.000000 -0.050877
v -0.239353 0.000000 0.050877
v -0.197968 0.000000 0.143833
v -0.122350 0.000000 0.211920
v -0.025576 0.000000 0.243361
v 0.075618 0.000000 0.232726
v 0.163740 0.000000 0.181849
v 0.223549 0.000000 0.099531
v 0.244700 0.000000 0.000000
v 0.369052 -6.051856 -0.160194
v 0.272790 -6.051856 -0.292687
v 0.130957 -6.051856 -0.374573
v -0.031916 -6.051856 -0.391694
v -0.187672 -6.051856 -0.341084
v -0.309378 -6.051856 -0.231500
v -0.375992 -6.051856 -0.081886
v -0.375992 -6.051856 0.081886
v -0.309378 -6.051856 0.231500
v -0.187672 -6.051856 0.341084
v -0.031916 -6.051856 0.391694
v 0.130957 -6.051856 0.374573
v 0.272790 -6.051856 0.292687
v 0.369052 -6.051856 0.160194
v 0.403103 -6.051856 0.000000
v 0.289363 -5.393477 -0.124283
v 0.214676 -5.393477 -0.227077
v 0.104640 -5.393477 -0.290607
v -0.021725 -5.393477 -0.303889
v -0.142567 -5.393477 -0.264622
v -0.236988 -5.393477 -0.179607
v -0.288669 -5.393477 -0.063530
v -0.288669 -5.393477 0.063530
v -0.236988 -5.393477 0.179607
v -0.142567 -5.393477 0.264622
v -0.021725 -5.393477 0.303889
v 0.104640 -5.393477 0.290607
v 0.214676 -5.393477 0.227077
v 0.289363 -5.393477 0.124283
v 0.315781 -5.393477 0.000000
v 0.006942 -6.051856 0.000000
v 0.000000 -5.393477 0.000000
v -0.465939 -6.000894 -0.343731
v -0.285228 -6.000894 -0.506442
v -0.053961 -6.000894 -0.581584
v 0.187875 -6.000894 -0.556165
v 0.398463 -6.000894 -0.434582
v 0.541394 -6.000894 -0.237855
v 0.591951 -6.000894 0.000000
v 0.541394 -6.000894 0.237855
v 0.398463 -6.000894 0.434582
v 0.187875 -6.000894 0.556165
v -0.053961 -6.000894 0.581584
v -0.285228 -6.000894 0.506442
v -0.465939 -6.000894 0.343731
v -0.564843 -6.000894 0.121586
v -0.564843 -6.000894 -0.121586
vt 0.941835 0.369510
vt 0.936277 0.369546
vt 0.934168 0.045042
vt 0.939726 0.045007
vt 0.930719 0.369582
vt 0.928610 0.045079
vt 0.925161 0.369618
vt 0.923053 0.045115
vt 0.919603 0.369654
vt 0.917495 0.045151
vt 0.914046 0.369691
vt 0.911937 0.045187
vt 0.908488 0.369726
vt 0.906380 0.045223
vt 0.902931 0.369763
vt 0.900822 0.045259
vt 0.897373 0.369798
vt 0.895264 0.045295
vt 0.891815 0.369835
vt 0.889706 0.045331
vt 0.886257 0.369871
vt 0.884148 0.045367
vt 0.880699 0.369907
vt 0.878591 0.045404
vt 0.875142 0.369943
vt 0.873033 0.045440
vt 0.869584 0.369979
vt 0.867476 0.045476
vt 0.864026 0.370015
vt 0.861918 0.045512
vt 0.858469 0.370052
vt 0.856360 0.045548
vt 0.983105 0.103028
vt 0.973522 0.107054
vt 0.970058 0.096471
vt 0.982107 0.090048
vt 0.963046 0.112800
vt 0.958848 0.102551
vt 0.951787 0.118403
vt 0.947773 0.107966
vt 0.939861 0.123242
vt 0.936512 0.112497
vt 0.927415 0.127045
vt 0.924977 0.116015
vt 0.914597 0.129673
vt 0.913190 0.118447
vt 0.900667 0.131069
vt 0.901227 0.119754
vt 0.889306 0.131172
vt 0.889181 0.119913
vt 0.875346 0.130030
vt 0.877153 0.118919
vt 0.862457 0.127636
vt 0.865239 0.116774
vt 0.849889 0.124046
vt 0.853523 0.113486
vt 0.837783 0.119368
vt 0.842058 0.109078
vt 0.826294 0.113839
vt 0.830818 0.103588
vt 0.815580 0.108031
vt 0.819587 0.097104
vt 0.805688 0.103483
vt 0.807701 0.089864
vt 0.904764 0.174668
vt 0.895401 0.176747
vt 0.895246 0.153558
vt 0.912472 0.168960
vt 0.917193 0.160611
vt 0.918109 0.151063
vt 0.915062 0.141968
vt 0.908579 0.134898
vt 0.881465 0.135145
vt 0.875111 0.142331
vt 0.872230 0.151479
vt 0.873320 0.161009
vt 0.878190 0.169271
vt 0.886001 0.174838
vt 0.894212 0.044900
vt 0.901517 0.046317
vt 0.894784 0.063335
vt 0.907614 0.050583
vt 0.911449 0.056960
vt 0.912359 0.064346
vt 0.910186 0.071463
vt 0.906295 0.077818
vt 0.898777 0.079846
vt 0.890891 0.079987
vt 0.883318 0.078231
vt 0.879194 0.072016
vt 0.876769 0.064980
vt 0.877415 0.057567
vt 0.881020 0.051057
vt 0.886961 0.046577
vt 0.915476 0.076896
vt 0.923492 0.074510
vt 0.931263 0.071435
vt 0.938702 0.067710
vt 0.945674 0.063374
vt 0.951914 0.058406
vt 0.838742 0.060063
vt 0.844369 0.065085
vt 0.851110 0.069285
vt 0.858449 0.072771
vt 0.866178 0.075563
vt 0.874179 0.077648
vn 0.913545 0.000000 -0.406737
vn 0.669131 0.000000 -0.743145
vn 0.669131 0.000000 -0.743145
vn 0.913545 0.000000 -0.406737
vn 0.669131 0.000000 -0.743145
vn 0.309017 0.000000 -0.951056
vn 0.309017 0.000000 -0.951056
vn 0.669131 0.000000 -0.743145
vn 0.309017 0.000000 -0.951056
vn -0.104528 0.000000 -0.994522
vn -0.104528 0.000000 -0.994522
vn 0.309017 0.000000 -0.951056
vn -0.104528 0.000000 -0.994522
vn -0.500000 0.000000 -0.866025
vn -0.500000 0.000000 -0.866025
vn -0.104528 0.000000 -0.994522
vn -0.500000 0.000000 -0.866025
vn -0.809017 0.000000 -0.587785
vn -0.809017 0.000000 -0.587785
vn -0.500000 0.000000 -0.866025
vn -0.809017 0.000000 -0.587785
vn -0.978148 0.000000 -0.207912
vn -0.978148 0.000000 -0.207912
vn -0.809017 0.000000 -0.587785
vn -0.978148 0.000000 -0.207912
vn -0.978148 0.000000 0.207912
vn -0.978148 0.000000 0.207912
vn -0.978148 0.000000 -0.207912
vn -0.978148 0.000000 0.207912
vn -0.809017 0.000000 0.587785
vn -0.809017 0.000000 0.587785
vn -0.978148 0.000000 0.207912
vn -0.809017 0.000000 0.587785
vn -0.500000 0.000000 0.866025
vn -0.500000 0.000000 0.866025
vn -0.809017 0.000000 0.587785
vn -0.500000 0.000000 0.866025
vn -0.104529 0.000000 0.994522
vn -0.104529 0.000000 0.994522
vn -0.500000 0.000000 0.866025
vn -0.104529 0.000000 0.994522
vn 0.309017 0.000000 0.951057
vn 0.309017 0.000000 0.951057
vn -0.104529 0.000000 0.994522
vn 0.309017 0.000000 0.951057
vn 0.669131 0.000000 0.743145
vn 0.669131 0.000000 0.743145
vn 0.309017 0.000000 0.951057
vn 0.669131 0.000000 0.743145
vn 0.913545 0.000000 0.406737
vn 0.913545 0.000000 0.406737
vn 0.669131 0.000000 0.743145
vn 0.913545 0.000000 0.406737
vn 1.000000 0.000000 0.000000
vn 1.000000 0.000000 0.000000
vn 0.913545 0.000000 0.406737
vn 1.000000 0.000000 0.000000
vn 0.913545 0.000000 -0.406737
vn 0.913545 0.000000 -0.406737
vn 1.000000 0.000000 0.000000
vn 0.214775 -0.964118 -0.156042
vn 0.214775 -0.964118 -0.156042
vn 0.214775 -0.964118 -0.156042
vn 0.214775 -0.964118 -0.156042
vn 0.132309 -0.964353 -0.229167
vn 0.132309 -0.964353 -0.229167
vn 0.132309 -0.964353 -0.229167
vn 0.132309 -0.964353 -0.229167
vn 0.027548 -0.964652 -0.262085
vn 0.027548 -0.964652 -0.262085
vn 0.027548 -0.964652 -0.262085
vn 0.027548 -0.964652 -0.262085
vn -0.081086 -0.964960 -0.249555
vn -0.081086 -0.964960 -0.249555
vn -0.081086 -0.964960 -0.249555
vn -0.081086 -0.964960 -0.249555
vn -0.174924 -0.965225 -0.194273
vn -0.174924 -0.965225 -0.194272
vn -0.174924 -0.965225 -0.194272
vn -0.174924 -0.965225 -0.194272
vn -0.238219 -0.965403 -0.106062
vn -0.238219 -0.965403 -0.106062
vn -0.238219 -0.965403 -0.106062
vn -0.238219 -0.965403 -0.106062
vn -0.260533 -0.965465 0.000000
vn -0.260533 -0.965465 0.000000
vn -0.260533 -0.965465 0.000000
vn -0.260533 -0.965465 0.000000
vn -0.238219 -0.965403 0.106064
vn -0.238219 -0.965403 0.106064
vn -0.238219 -0.965403 0.106064
vn -0.238219 -0.965403 0.106064
vn -0.174924 -0.965225 0.194272
vn -0.174924 -0.965225 0.194272
vn -0.174924 -0.965225 0.194272
vn -0.174924 -0.965225 0.194272
vn -0.081086 -0.964960 0.249556
vn -0.081086 -0.964960 0.249556
vn -0.081086 -0.964960 0.249556
vn -0.081086 -0.964960 0.249556
vn 0.027548 -0.964651 0.262086
vn 0.027548 -0.964651 0.262086
vn 0.027548 -0.964651 0.262086
vn 0.027548 -0.964651 0.262086
vn 0.132309 -0.964353 0.229167
vn 0.132309 -0.964353 0.229167
vn 0.132309 -0.964353 0.229167
vn 0.132309 -0.964353 0.229167
vn 0.214775 -0.964118 0.156042
vn 0.214775 -0.964118 0.156042
vn 0.214775 -0.964118 0.156042
vn 0.214775 -0.964118 0.156042
vn 0.260138 -0.963987 0.055294
vn 0.260138 -0.963987 0.055294
vn 0.260138 -0.963987 0.055294
vn 0.260138 -0.963987 0.055294
vn 0.260138 -0.963987 -0.055294
vn 0.260138 -0.963987 -0.055294
vn 0.260138 -0.963987 -0.055294
vn 0.260138 -0.963987 -0.055294
vn 0.000000 -1.000000 0.000004
vn 0.000000 -1.000000 0.000004
vn 0.000000 -1.000000 0.000004
vn 0.000000 -1.000000 -0.000002
vn 0.000000 -1.000000 -0.000002
vn 0.000000 -1.000000 -0.000002
vn 0.000000 -1.000000 -0.000001
vn 0.000000 -1.000000 -0.000001
vn 0.000000 -1.000000 -0.000001
vn 0.000000 -1.000000 0.000000
vn 0.000000 -1.000000 0.000000
vn 0.000000 -1.000000 0.000000
vn 0.000000 -1.000000 0.000004
vn 0.000000 -1.000000 0.000004
vn 0.000000 -1.000000 0.000004
vn 0.000000 -1.000000 0.000000
vn 0.000000 -1.000000 0.000000
vn 0.000000 -1.000000 0.000000
vn 0.000000 -1.000000 0.000000
vn 0.000000 -1.000000 0.000000
vn 0.000000 -1.000000 0.000000
vn 0.000000 -1.000000 0.000000
vn 0.000000 -1.000000 0.000000
vn 0.000000 -1.000000 0.000000
vn 0.000000 -1.000000 -0.000004
vn 0.000000 -1.000000 -0.000004
vn 0.000000 -1.000000 -0.000004
vn 0.000000 -1.000000 0.000001
vn 0.000000 -1.000000 0.000001
vn 0.000000 -1.000000 0.000001
vn 0.000000 -1.000000 0.000002
vn 0.000000 -1.000000 0.000002
vn 0.000000 -1.000000 0.000002
vn 0.000000 -1.000000 0.000004
vn 0.000000 -1.000000 0.000004
vn 0.000000 -1.000000 0.000004
vn 0.000000 -1.000000 0.000000
vn 0.000000 -1.000000 0.000000
vn 0.000000 -1.000000 0.000000
vn 0.000000 -1.000000 0.000008
vn 0.000000 -1.000000 0.000008
vn 0.000000 -1.000000 0.000008
vn 0.000000 -1.000000 -0.000008
vn 0.000000 -1.000000 -0.000008
vn 0.000000 -1.000000 -0.000008
vn 0.000000 1.000000 0.000000
vn 0.000000 1.000000 0.000000
vn 0.000000 1.000000 0.000000
vn 0.000000 1.000000 0.000000
vn 0.000000 1.000000 0.000000
vn 0.000000 1.000000 0.000000
vn 0.000000 1.000000 0.000006
vn 0.000000 1.000000 0.000006
vn 0.000000 1.000000 0.000006
vn 0.000000 1.000000 -0.000002
vn 0.000000 1.000000 -0.000002
vn 0.000000 1.000000 -0.000002
vn 0.000000 1.000000 0.000000
vn 0.000000 1.000000 0.000000
vn 0.000000 1.000000 0.000000
vn 0.000000 1.000000 0.000000
vn 0.000000 1.000000 0.000000
vn 0.000000 1.000000 0.000000
vn 0.000000 1.000000 0.000000
vn 0.000000 1.000000 0.000000
vn 0.000000 1.000000 0.000000
vn 0.000000 1.000000 0.000000
vn 0.000000 1.000000 0.000000
vn 0.000000 1.000000 0.000000
vn 0.000000 1.000000 0.000000
vn 0.000000 1.000000 0.000000
vn 0.000000 1.000000 0.000000
vn 0.000000 1.000000 0.000003
vn 0.000000 1.000000 0.000003
vn 0.000000 1.000000 0.000003
vn 0.000000 1.000000 -0.000005
vn 0.000000 1.000000 -0.000005
vn 0.000000 1.000000 -0.000005
vn 0.000000 1.000000 0.000000
vn 0.000000 1.000000 0.000000
vn 0.000000 1.000000 0.000000
vn 0.000000 1.000000 0.000000
vn 0.000000 1.000000 0.000000
vn 0.000000 1.000000 0.000000
vn 0.000000 1.000000 0.000000
vn 0.000000 1.000000 0.000000
vn 0.000000 1.000000 0.000000
vn 0.000000 1.000000 0.000000
vn 0.000000 1.000000 0.000000
vn 0.000000 1.000000 0.000000
vn -0.609501 0.412644 -0.676930
vn -0.609501 0.412644 -0.676930
vn -0.609501 0.412644 -0.676930
vn -0.609501 0.412644 -0.676930
vn -0.281676 0.411275 -0.866898
vn -0.281676 0.411275 -0.866898
vn -0.281676 0.411275 -0.866898
vn -0.281676 0.411275 -0.866898
vn 0.095357 0.409698 -0.907224
vn 0.095357 0.409698 -0.907224
vn 0.095357 0.409698 -0.907224
vn 0.095357 0.409698 -0.907224
vn 0.456448 0.408189 -0.790593
vn 0.456448 0.408189 -0.790593
vn 0.456448 0.408189 -0.790593
vn 0.456448 0.408189 -0.790593
vn 0.738974 0.407006 -0.536902
vn 0.738974 0.407006 -0.536902
vn 0.738974 0.407006 -0.536902
vn 0.738974 0.407006 -0.536902
vn 0.893748 0.406356 -0.189971
vn 0.893748 0.406356 -0.189971
vn 0.893748 0.406356 -0.189971
vn 0.893748 0.406356 -0.189971
vn 0.893748 0.406356 0.189971
vn 0.893748 0.406356 0.189971
vn 0.893748 0.406356 0.189971
vn 0.893748 0.406356 0.189971
vn 0.738974 0.407006 0.536902
vn 0.738974 0.407006 0.536902
vn 0.738974 0.407006 0.536902
vn 0.738974 0.407006 0.536902
vn 0.456448 0.408189 0.790593
vn 0.456448 0.408189 0.790593
vn 0.456448 0.408189 0.790593
vn 0.456448 0.408189 0.790593
vn 0.095357 0.409698 0.907224
vn 0.095357 0.409698 0.907224
vn 0.095357 0.409698 0.907224
vn 0.095357 0.409698 0.907224
vn -0.281676 0.411274 0.866898
vn -0.281676 0.411274 0.866898
vn -0.281676 0.411274 0.866898
vn -0.281676 0.411275 0.866898
vn -0.609501 0.412644 0.676930
vn -0.609501 0.412644 0.676930
vn -0.609501 0.412644 0.676930
vn -0.609501 0.412644 0.676930
vn -0.831759 0.413570 0.370319
vn -0.831759 0.413571 0.370319
vn -0.831759 0.413571 0.370319
vn -0.831759 0.413570 0.370319
vn -0.910324 0.413896 0.000000
vn -0.910324 0.413896 0.000000
vn -0.910324 0.413896 0.000000
vn -0.910324 0.413896 0.000000
vn -0.831759 0.413570 -0.370320
vn -0.831759 0.413570 -0.370320
vn -0.831759 0.413570 -0.370320
vn -0.831759 0.413570 -0.370320
s off
usemtl chair_Leg_3_initialShadingGroup
f 1/1/1 2/2/2 17/3/3 16/4/4
f 2/2/5 3/5/6 18/6/7 17/3/8
f 3/5/9 4/7/10 19/8/11 18/6/12
f 4/7/13 5/9/14 20/10/15 19/8/16
f 5/9/17 6/11/18 21/12/19 20/10/20
f 6/11/21 7/13/22 22/14/23 21/12/24
f 7/13/25 8/15/26 23/16/27 22/14/28
f 8/15/29 9/17/30 24/18/31 23/16/32
f 9/17/33 10/19/34 25/20/35 24/18/36
f 10/19/37 11/21/38 26/22/39 25/20/40
f 11/21/41 12/23/42 27/24/43 26/22/44
f 12/23/45 13/25/46 28/26/47 27/24/48
f 13/25/49 14/27/50 29/28/51 28/26/52
f 14/27/53 15/29/54 30/30/55 29/28/56
f 15/29/57 1/31/58 16/32/59 30/30/60
f 31/33/61 32/34/62 67/35/63 68/36/64
f 32/34/65 33/37/66 66/38/67 67/35/68
f 33/37/69 34/39/70 65/40/71 66/38/72
f 34/39/73 35/41/74 64/42/75 65/40/76
f 35/41/77 36/43/78 63/44/79 64/42/80
f 36/43/81 37/45/82 77/46/83 63/44/84
f 37/45/85 38/47/86 76/48/87 77/46/88
f 38/47/89 39/49/90 75/50/91 76/48/92
f 39/49/93 40/51/94 74/52/95 75/50/96
f 40/51/97 41/53/98 73/54/99 74/52/100
f 41/53/101 42/55/102 72/56/103 73/54/104
f 42/55/105 43/57/106 71/58/107 72/56/108
f 43/57/109 44/59/110 70/60/111 71/58/112
f 44/59/113 45/61/114 69/62/115 70/60/116
f 45/61/117 31/63/118 68/64/119 69/62/120
f 32/65/121 31/66/122 61/67/123
f 33/68/124 32/65/125 61/67/126
f 34/69/127 33/68/128 61/67/129
f 35/70/130 34/69/131 61/67/132
f 36/71/133 35/70/134 61/67/135
f 37/72/136 36/71/137 61/67/138
f 38/47/139 37/72/140 61/67/141
f 39/49/142 38/47/143 61/67/144
f 40/73/145 39/49/146 61/67/147
f 41/74/148 40/73/149 61/67/150
f 42/75/151 41/74/152 61/67/153
f 43/76/154 42/75/155 61/67/156
f 44/77/157 43/76/158 61/67/159
f 45/78/160 44/77/161 61/67/162
f 31/66/163 45/78/164 61/67/165
f 46/79/166 47/80/167 62/81/168
f 47/80/169 48/82/170 62/81/171
f 48/82/172 49/83/173 62/81/174
f 49/83/175 50/84/176 62/81/177
f 50/84/178 51/85/179 62/81/180
f 51/85/181 52/86/182 62/81/183
f 52/86/184 53/87/185 62/81/186
f 53/87/187 54/88/188 62/81/189
f 54/88/190 55/89/191 62/81/192
f 55/89/193 56/90/194 62/81/195
f 56/90/196 57/91/197 62/81/198
f 57/91/199 58/92/200 62/81/201
f 58/92/202 59/93/203 62/81/204
f 59/93/205 60/94/206 62/81/207
f 60/94/208 46/79/209 62/81/210
f 64/42/211 63/44/212 51/95/213 50/96/214
f 65/40/215 64/42/216 50/96/217 49/97/218
f 66/38/219 65/40/220 49/97/221 48/98/222
f 67/35/223 66/38/224 48/98/225 47/99/226
f 68/36/227 67/35/228 47/99/229 46/100/230
f 69/62/231 68/64/232 46/101/233 60/102/234
f 70/60/235 69/62/236 60/102/237 59/103/238
f 71/58/239 70/60/240 59/103/241 58/104/242
f 72/56/243 71/58/244 58/104/245 57/105/246
f 73/54/247 72/56/248 57/105/249 56/106/250
f 74/52/251 73/54/252 56/106/253 55/89/254
f 75/50/255 74/52/256 55/89/257 54/88/258
f 76/48/259 75/50/260 54/88/261 53/87/262
f 77/46/263 76/48/264 53/87/265 52/86/266
f 63/44/267 77/46/268 52/86/269 51/95/270
