# This file uses centimeters as units for non-parametric coordinates.

mtllib chair_Arm_3.mtl
v 0.327702 -0.144134 6.441233
v 0.327702 -0.144134 -0.504350
v 0.327702 0.144134 6.441233
v 0.327702 0.144134 -0.504350
v -0.327702 0.144134 6.441233
v -0.327702 0.144134 -0.504350
v -0.327702 -0.144134 6.441233
v -0.327702 -0.144134 -0.504350
v -0.327702 0.144134 0.161486
v -0.327702 -0.144134 0.161486
v 0.327702 -0.144134 0.161486
v 0.327702 0.144134 0.161486
v 0.327702 -0.659055 6.884452
v -0.327702 -0.659055 6.884452
v 0.327702 -0.650722 7.264860
v -0.327702 -0.650722 7.264860
v -0.327702 -0.494086 7.258880
v 0.327702 -0.494086 7.258880
v 0.327702 -0.502419 6.878471
v -0.327702 -0.502419 6.878471
v -0.327702 -0.310812 7.237779
v 0.327702 -0.310812 7.237779
v 0.327702 -0.373914 6.866441
v -0.327702 -0.373914 6.866441
v -0.327702 -0.119993 7.131436
v 0.327702 -0.119993 7.131436
v 0.327702 -0.277537 6.812731
v -0.327702 -0.277537 6.812731
v -0.327702 0.030572 6.943659
v 0.327702 0.030572 6.943659
v 0.327702 -0.201491 6.717890
v -0.327702 -0.201491 6.717890
v -0.327702 0.121841 6.698195
v 0.327702 0.121841 6.698195
v 0.327702 -0.155394 6.593913
v -0.327702 -0.155394 6.593913
vt 0.196051 0.761273
vt 0.634452 0.759820
vt 0.634519 0.779939
vt 0.196234 0.781390
vt 0.634670 0.825680
vt 0.196402 0.827132
vt 0.634737 0.845798
vt 0.195599 0.847215
vt 0.196032 0.715531
vt 0.634301 0.714079
vt 0.701106 0.779717
vt 0.701259 0.825459
vt 0.681140 0.825526
vt 0.680988 0.779785
vt 0.077710 0.827526
vt 0.077558 0.781785
vt 0.104113 0.781697
vt 0.104266 0.827438
vt 0.681206 0.845645
vt 0.680770 0.713925
vt 0.680921 0.759666
vt 0.021663 0.827712
vt 0.021511 0.781971
vt 0.032195 0.781935
vt 0.032347 0.827677
vt 0.178390 0.781450
vt 0.181203 0.761410
vt 0.178401 0.827191
vt 0.181299 0.847470
vt 0.115052 0.781660
vt 0.115206 0.827401
vt 0.116405 0.755159
vt 0.104454 0.755144
vt 0.066770 0.827562
vt 0.066619 0.781821
vt 0.116740 0.853893
vt 0.104786 0.853988
vt 0.127923 0.781617
vt 0.128081 0.827359
vt 0.131509 0.756089
vt 0.057763 0.827592
vt 0.057611 0.781851
vt 0.131849 0.852862
vt 0.143151 0.781566
vt 0.143327 0.827307
vt 0.148904 0.757909
vt 0.050062 0.827618
vt 0.049911 0.781877
vt 0.149258 0.850924
vt 0.159880 0.781511
vt 0.160124 0.827253
vt 0.164681 0.759629
vt 0.041579 0.827646
vt 0.041427 0.781905
vt 0.165841 0.848815
vn 1.000000 0.000000 0.000000
vn 1.000000 0.000000 0.000000
vn 1.000000 0.000000 0.000000
vn 1.000000 0.000000 0.000000
vn 0.000000 1.000000 0.000000
vn 0.000000 1.000000 0.000000
vn 0.000000 1.000000 0.000000
vn 0.000000 1.000000 0.000000
vn -1.000000 0.000000 0.000000
vn -1.000000 0.000000 0.000000
vn -1.000000 0.000000 0.000000
vn -1.000000 0.000000 0.000000
vn 0.000000 -1.000000 0.000000
vn 0.000000 -1.000000 0.000000
vn 0.000000 -1.000000 0.000000
vn 0.000000 -1.000000 0.000000
vn 0.000000 0.000000 -1.000000
vn 0.000000 0.000000 -1.000000
vn 0.000000 0.000000 -1.000000
vn 0.000000 0.000000 -1.000000
vn 0.000000 -0.999760 0.021900
vn 0.000000 -0.999760 0.021900
vn 0.000000 -0.999760 0.021900
vn 0.000000 -0.999760 0.021900
vn -1.000000 0.000000 0.000000
vn -1.000000 0.000000 0.000000
vn -1.000000 0.000000 0.000000
vn -1.000000 0.000000 0.000000
vn 0.000000 -1.000000 0.000000
vn 0.000000 -1.000000 0.000000
vn 0.000000 -1.000000 0.000000
vn 0.000000 -1.000000 0.000000
vn 1.000000 0.000000 0.000000
vn 1.000000 0.000000 0.000000
vn 1.000000 0.000000 0.000000
vn 1.000000 0.000000 0.000000
vn 0.000000 1.000000 0.000000
vn 0.000000 1.000000 0.000000
vn 0.000000 1.000000 0.000000
vn 0.000000 1.000000 0.000000
vn 0.000000 -1.000000 0.000000
vn 0.000000 -1.000000 0.000000
vn 0.000000 -0.979178 -0.203005
vn 0.000000 -0.979178 -0.203005
vn 1.000000 0.000000 0.000000
vn 1.000000 0.000000 0.000000
vn 1.000000 -0.000000 0.000000
vn 1.000000 -0.000000 0.000000
vn 0.000000 1.000000 0.000000
vn 0.000000 1.000000 0.000000
vn 0.000000 0.975395 0.220466
vn 0.000000 0.975395 0.220466
vn -1.000000 0.000000 0.000000
vn -1.000000 0.000000 0.000000
vn -1.000000 0.000000 0.000000
vn -1.000000 0.000000 0.000000
vn 0.000000 0.079417 0.996841
vn 0.000000 0.079417 0.996841
vn 0.000000 0.038150 0.999272
vn 0.000000 0.038150 0.999272
vn 1.000000 -0.000000 0.000000
vn 1.000000 -0.000000 0.000000
vn 1.000000 -0.000000 0.000000
vn 1.000000 -0.000000 0.000000
vn 0.000000 -0.063033 -0.998011
vn 0.000000 -0.063033 -0.998011
vn 0.000000 -0.038156 -0.999272
vn 0.000000 -0.038156 -0.999272
vn -1.000000 0.000000 0.000000
vn -1.000000 0.000000 0.000000
vn -1.000000 0.000000 0.000000
vn -1.000000 0.000000 0.000000
vn 0.000000 0.322475 0.946578
vn 0.000000 0.322475 0.946578
vn 0.000000 0.079417 0.996841
vn 0.000000 0.079417 0.996841
vn 1.000000 -0.000000 0.000000
vn 1.000000 -0.000000 0.000000
vn 1.000000 -0.000000 0.000000
vn 1.000000 -0.000000 0.000000
vn 0.000000 -0.280585 -0.959829
vn 0.000000 -0.280585 -0.959829
vn 0.000000 -0.063033 -0.998011
vn 0.000000 -0.063033 -0.998011
vn -1.000000 0.000000 0.000000
vn -1.000000 0.000000 0.000000
vn -1.000000 0.000000 0.000000
vn -1.000000 0.000000 0.000000
vn 0.000000 0.652716 0.757603
vn 0.000000 0.652716 0.757603
vn 0.000000 0.322475 0.946578
vn 0.000000 0.322475 0.946578
vn 1.000000 0.000000 0.000000
vn 1.000000 0.000000 0.000000
vn 1.000000 -0.000000 0.000000
vn 1.000000 -0.000000 0.000000
vn 0.000000 -0.652717 -0.757602
vn 0.000000 -0.652717 -0.757602
vn 0.000000 -0.280585 -0.959829
vn 0.000000 -0.280585 -0.959829
vn -1.000000 0.000000 0.000000
vn -1.000000 0.000000 0.000000
vn -1.000000 0.000000 0.000000
vn -1.000000 0.000000 0.000000
vn 0.000000 0.873176 0.487406
vn 0.000000 0.873176 0.487406
vn 0.000000 0.652716 0.757603
vn 0.000000 0.652716 0.757603
vn 1.000000 -0.000000 0.000000
vn 1.000000 0.000000 0.000000
vn 1.000000 0.000000 0.000000
vn 1.000000 0.000000 0.000000
vn 0.000000 -0.873177 -0.487404
vn 0.000000 -0.873177 -0.487404
vn 0.000000 -0.652717 -0.757602
vn 0.000000 -0.652717 -0.757602
vn -1.000000 0.000000 0.000000
vn -1.000000 0.000000 0.000000
vn -1.000000 0.000000 0.000000
vn -1.000000 0.000000 0.000000
vn 0.000000 0.975395 0.220466
vn 0.000000 0.975395 0.220466
vn 0.000000 0.873176 0.487406
vn 0.000000 0.873176 0.487406
vn 1.000000 -0.000000 0.000000
vn 1.000000 -0.000000 0.000000
vn 1.000000 0.000000 0.000000
vn 1.000000 -0.000000 0.000000
vn 0.000000 -0.979178 -0.203005
vn 0.000000 -0.979178 -0.203005
vn 0.000000 -0.873177 -0.487404
vn 0.000000 -0.873177 -0.487404
vn -1.000000 0.000000 0.000000
vn -1.000000 0.000000 0.000000
vn -1.000000 0.000000 0.000000
vn -1.000000 0.000000 0.000000
s off
usemtl initialShadingGroup
f 1/1/1 11/2/2 12/3/3 3/4/4
f 3/4/5 12/3/6 9/5/7 5/6/8
f 5/6/9 9/5/10 10/7/11 7/8/12
f 7/9/13 10/10/14 11/2/15 1/1/16
f 2/11/17 8/12/18 6/13/19 4/14/20
f 14/15/21 13/16/22 15/17/23 16/18/24
f 9/5/25 6/13/26 8/19/27 10/7/28
f 11/2/29 10/10/30 8/20/31 2/21/32
f 12/3/33 11/2/34 2/21/35 4/14/36
f 9/5/37 12/3/38 4/14/39 6/13/40
f 7/22/41 1/23/42 35/24/43 36/25/44
f 1/1/45 3/4/46 34/26/47 35/27/48
f 3/4/49 5/6/50 33/28/51 34/26/52
f 5/6/53 7/8/54 36/29/55 33/28/56
f 18/30/57 17/31/58 16/18/59 15/17/60
f 19/32/61 18/30/62 15/17/63 13/33/64
f 20/34/65 19/35/66 13/16/67 14/15/68
f 17/31/69 20/36/70 14/37/71 16/18/72
f 22/38/73 21/39/74 17/31/75 18/30/76
f 23/40/77 22/38/78 18/30/79 19/32/80
f 24/41/81 23/42/82 19/35/83 20/34/84
f 21/39/85 24/43/86 20/36/87 17/31/88
f 26/44/89 25/45/90 21/39/91 22/38/92
f 27/46/93 26/44/94 22/38/95 23/40/96
f 28/47/97 27/48/98 23/42/99 24/41/100
f 25/45/101 28/49/102 24/43/103 21/39/104
f 30/50/105 29/51/106 25/45/107 26/44/108
f 31/52/109 30/50/110 26/44/111 27/46/112
f 32/53/113 31/54/114 27/48/115 28/47/116
f 29/51/117 32/55/118 28/49/119 25/45/120
f 34/26/121 33/28/122 29/51/123 30/50/124
f 35/27/125 34/26/126 30/50/127 31/52/128
f 36/25/129 35/24/130 31/54/131 32/53/132
f 33/28/133 36/29/134 32/55/135 29/51/136
