# This file uses centimeters as units for non-parametric coordinates.

mtllib chair_Back_1.mtl
v -3.573138 0.000000 0.500000
v 3.573138 0.000000 0.500000
v -3.573138 13.230797 0.500000
v 3.573138 13.230797 0.500000
v -3.573138 13.230797 -0.500000
v 3.573138 13.230797 -0.500000
v -3.573138 0.000000 -0.500000
v 3.573138 0.000000 -0.500000
v -3.573138 12.500355 0.500000
v -3.573138 12.500355 -0.500000
v 3.573138 12.500355 -0.500000
v 3.573138 12.500355 0.500000
v -2.552242 12.500355 0.500000
v -2.552242 0.000000 0.500000
v -2.552242 0.000000 -0.500000
v -2.552242 12.500355 -0.500000
v -2.552242 13.230797 -0.500000
v -2.552242 13.230797 0.500000
v -1.531345 12.500355 0.500000
v -1.531345 0.000000 0.500000
v -1.531345 0.000000 -0.500000
v -1.531345 12.500355 -0.500000
v -1.531345 13.230797 -0.500000
v -1.531345 13.230797 0.500000
v -0.510448 12.500355 0.500000
v -0.510448 0.000000 0.500000
v -0.510448 0.000000 -0.500000
v -0.510448 12.500355 -0.500000
v -0.510448 13.230797 -0.500000
v -0.510448 13.230797 0.500000
v 0.510448 12.500355 0.500000
v 0.510448 0.000000 0.500000
v 0.510448 0.000000 -0.500000
v 0.510448 12.500355 -0.500000
v 0.510448 13.230797 -0.500000
v 0.510448 13.230797 0.500000
v 1.531345 12.500355 0.500000
v 1.531345 0.000000 0.500000
v 1.531345 0.000000 -0.500000
v 1.531345 12.500355 -0.500000
v 1.531345 13.230797 -0.500000
v 1.531345 13.230797 0.500000
v 2.552242 12.500355 0.500000
v 2.552242 0.000000 0.500000
v 2.552242 0.000000 -0.500000
v 2.552242 12.500355 -0.500000
v 2.552242 13.230797 -0.500000
v 2.552242 13.230797 0.500000
v 3.573138 12.500355 0.000000
v 3.573138 0.000000 0.000000
v 2.552242 0.000000 0.000000
v 2.552242 12.500355 0.000000
v 1.531345 12.500355 0.000000
v 1.531345 0.000000 0.000000
v 0.510448 0.000000 0.000000
v 0.510448 12.500355 0.000000
v -0.510448 12.500355 0.000000
v -0.510448 0.000000 0.000000
v -1.531345 0.000000 0.000000
v -1.531345 12.500355 0.000000
v -2.552242 12.500355 0.000000
v -2.552242 0.000000 0.000000
v -3.573138 0.000000 0.000000
v -3.573138 12.500355 0.000000
v -3.573138 13.230797 0.000000
v -2.552242 13.230797 0.000000
v -1.531345 13.230797 0.000000
v -0.510448 13.230797 0.000000
v 0.510448 13.230797 0.000000
v 1.531345 13.230797 0.000000
v 2.552242 13.230797 0.000000
v 3.573138 13.230797 0.000000
vt 0.929742 0.628434
vt 0.942375 0.628433
vt 0.942375 0.783111
vt 0.929742 0.783111
vt 0.929742 0.798336
vt 0.942375 0.798336
vt 0.942375 0.804523
vt 0.929742 0.804523
vt 0.929742 0.813561
vt 0.942375 0.813561
vt 0.942374 0.968239
vt 0.929742 0.968239
vt 0.929742 0.616060
vt 0.942374 0.616059
vt 0.942374 0.622247
vt 0.929742 0.622247
vt 0.948562 0.628434
vt 0.954749 0.628434
vt 0.954749 0.783111
vt 0.948562 0.783111
vt 0.841574 0.628434
vt 0.847761 0.628434
vt 0.847761 0.783111
vt 0.841574 0.783111
vt 0.847761 0.792149
vt 0.841574 0.792149
vt 0.948562 0.792149
vt 0.954748 0.792149
vt 0.929742 0.792149
vt 0.942375 0.792149
vt 0.853948 0.628434
vt 0.866580 0.628433
vt 0.866580 0.783111
vt 0.853948 0.783111
vt 0.853947 0.616060
vt 0.866579 0.616059
vt 0.866580 0.622247
vt 0.853947 0.622247
vt 0.853948 0.813561
vt 0.866580 0.813561
vt 0.866580 0.968239
vt 0.853948 0.968239
vt 0.853948 0.804523
vt 0.866580 0.804523
vt 0.853948 0.798336
vt 0.866580 0.798336
vt 0.866580 0.792149
vt 0.853948 0.792149
vt 0.879212 0.804523
vt 0.879212 0.813561
vt 0.879212 0.798336
vt 0.879212 0.783111
vt 0.879212 0.792149
vt 0.879213 0.628434
vt 0.891845 0.628433
vt 0.891845 0.783111
vt 0.879212 0.616060
vt 0.891844 0.616059
vt 0.891845 0.622247
vt 0.879212 0.622247
vt 0.891845 0.813561
vt 0.891845 0.968239
vt 0.879212 0.968239
vt 0.891845 0.804523
vt 0.891845 0.798336
vt 0.891845 0.792149
vt 0.904477 0.804523
vt 0.904477 0.813561
vt 0.904477 0.798336
vt 0.904477 0.783111
vt 0.904477 0.792149
vt 0.904477 0.628433
vt 0.917110 0.628434
vt 0.917110 0.783111
vt 0.904478 0.616059
vt 0.917110 0.616060
vt 0.917110 0.622247
vt 0.904478 0.622247
vt 0.917110 0.813561
vt 0.917110 0.968239
vt 0.904477 0.968239
vt 0.917110 0.804523
vt 0.917110 0.798336
vt 0.917110 0.792149
vt 0.866581 0.770736
vt 0.879214 0.770738
vt 0.879213 0.776924
vt 0.866581 0.776923
vt 0.873026 0.628434
vt 0.873026 0.783111
vt 0.866839 0.783111
vt 0.866839 0.628434
vt 0.872767 0.783111
vt 0.872767 0.628434
vt 0.878954 0.628434
vt 0.878954 0.783111
vt 0.891846 0.770737
vt 0.904478 0.770737
vt 0.904478 0.776924
vt 0.891845 0.776924
vt 0.898032 0.783111
vt 0.898032 0.628434
vt 0.904219 0.628434
vt 0.904219 0.783111
vt 0.898291 0.628434
vt 0.898291 0.783111
vt 0.892104 0.783111
vt 0.892104 0.628434
vt 0.923555 0.628434
vt 0.923555 0.783111
vt 0.917369 0.783111
vt 0.917369 0.628434
vt 0.923297 0.783111
vt 0.923297 0.628434
vt 0.929484 0.628434
vt 0.929484 0.783111
vt 0.917109 0.770738
vt 0.929741 0.770737
vt 0.929742 0.776923
vt 0.917109 0.776924
vn 0.000000 0.000000 1.000000
vn 0.000000 0.000000 1.000000
vn 0.000000 0.000000 1.000000
vn 0.000000 0.000000 1.000000
vn 0.000000 1.000000 0.000000
vn 0.000000 1.000000 0.000000
vn 0.000000 1.000000 0.000000
vn 0.000000 1.000000 0.000000
vn 0.000000 0.000000 -1.000000
vn 0.000000 0.000000 -1.000000
vn 0.000000 0.000000 -1.000000
vn 0.000000 0.000000 -1.000000
vn 0.000000 -1.000000 0.000000
vn 0.000000 -1.000000 0.000000
vn 0.000000 -1.000000 0.000000
vn 0.000000 -1.000000 0.000000
vn 1.000000 0.000000 0.000000
vn 1.000000 0.000000 0.000000
vn 1.000000 0.000000 0.000000
vn 1.000000 0.000000 0.000000
vn -1.000000 0.000000 0.000000
vn -1.000000 0.000000 0.000000
vn -1.000000 0.000000 0.000000
vn -1.000000 0.000000 0.000000
vn -1.000000 0.000000 0.000000
vn -1.000000 0.000000 0.000000
vn -1.000000 0.000000 0.000000
vn -1.000000 0.000000 0.000000
vn 0.000000 0.000000 -1.000000
vn 0.000000 0.000000 -1.000000
vn 0.000000 0.000000 -1.000000
vn 0.000000 0.000000 -1.000000
vn 1.000000 0.000000 0.000000
vn 1.000000 0.000000 0.000000
vn 1.000000 0.000000 0.000000
vn 1.000000 0.000000 0.000000
vn 0.000000 0.000000 1.000000
vn 0.000000 0.000000 1.000000
vn 0.000000 0.000000 1.000000
vn 0.000000 0.000000 1.000000
vn 0.000000 0.000000 1.000000
vn 0.000000 0.000000 1.000000
vn 0.000000 0.000000 1.000000
vn 0.000000 0.000000 1.000000
vn 0.000000 -1.000000 0.000000
vn 0.000000 -1.000000 0.000000
vn 0.000000 -1.000000 0.000000
vn 0.000000 -1.000000 0.000000
vn 0.000000 0.000000 -1.000000
vn 0.000000 0.000000 -1.000000
vn 0.000000 0.000000 -1.000000
vn 0.000000 0.000000 -1.000000
vn 0.000000 0.000000 -1.000000
vn 0.000000 0.000000 -1.000000
vn 0.000000 0.000000 -1.000000
vn 0.000000 0.000000 -1.000000
vn 0.000000 1.000000 0.000000
vn 0.000000 1.000000 0.000000
vn 0.000000 1.000000 0.000000
vn 0.000000 1.000000 0.000000
vn 0.000000 0.000000 1.000000
vn 0.000000 0.000000 1.000000
vn 0.000000 0.000000 1.000000
vn 0.000000 0.000000 1.000000
vn 0.000000 0.000000 -1.000000
vn 0.000000 0.000000 -1.000000
vn 0.000000 0.000000 -1.000000
vn 0.000000 0.000000 -1.000000
vn 0.000000 1.000000 0.000000
vn 0.000000 1.000000 0.000000
vn 0.000000 1.000000 0.000000
vn 0.000000 1.000000 0.000000
vn 0.000000 0.000000 1.000000
vn 0.000000 0.000000 1.000000
vn 0.000000 0.000000 1.000000
vn 0.000000 0.000000 1.000000
vn 0.000000 0.000000 1.000000
vn 0.000000 0.000000 1.000000
vn 0.000000 0.000000 1.000000
vn 0.000000 0.000000 1.000000
vn 0.000000 -1.000000 0.000000
vn 0.000000 -1.000000 0.000000
vn 0.000000 -1.000000 0.000000
vn 0.000000 -1.000000 0.000000
vn 0.000000 0.000000 -1.000000
vn 0.000000 0.000000 -1.000000
vn 0.000000 0.000000 -1.000000
vn 0.000000 0.000000 -1.000000
vn 0.000000 0.000000 -1.000000
vn 0.000000 0.000000 -1.000000
vn 0.000000 0.000000 -1.000000
vn 0.000000 0.000000 -1.000000
vn 0.000000 1.000000 0.000000
vn 0.000000 1.000000 0.000000
vn 0.000000 1.000000 0.000000
vn 0.000000 1.000000 0.000000
vn 0.000000 0.000000 1.000000
vn 0.000000 0.000000 1.000000
vn 0.000000 0.000000 1.000000
vn 0.000000 0.000000 1.000000
vn 0.000000 0.000000 -1.000000
vn 0.000000 0.000000 -1.000000
vn 0.000000 0.000000 -1.000000
vn 0.000000 0.000000 -1.000000
vn 0.000000 1.000000 0.000000
vn 0.000000 1.000000 0.000000
vn 0.000000 1.000000 0.000000
vn 0.000000 1.000000 0.000000
vn 0.000000 0.000000 1.000000
vn 0.000000 0.000000 1.000000
vn 0.000000 0.000000 1.000000
vn 0.000000 0.000000 1.000000
vn 0.000000 0.000000 1.000000
vn 0.000000 0.000000 1.000000
vn 0.000000 0.000000 1.000000
vn 0.000000 0.000000 1.000000
vn 0.000000 -1.000000 0.000000
vn 0.000000 -1.000000 0.000000
vn 0.000000 -1.000000 0.000000
vn 0.000000 -1.000000 0.000000
vn 0.000000 0.000000 -1.000000
vn 0.000000 0.000000 -1.000000
vn 0.000000 0.000000 -1.000000
vn 0.000000 0.000000 -1.000000
vn 0.000000 0.000000 -1.000000
vn 0.000000 0.000000 -1.000000
vn 0.000000 0.000000 -1.000000
vn 0.000000 0.000000 -1.000000
vn 0.000000 1.000000 0.000000
vn 0.000000 1.000000 0.000000
vn 0.000000 1.000000 0.000000
vn 0.000000 1.000000 0.000000
vn 0.000000 0.000000 1.000000
vn 0.000000 0.000000 1.000000
vn 0.000000 0.000000 1.000000
vn 0.000000 0.000000 1.000000
vn 0.000000 0.000000 -1.000000
vn 0.000000 0.000000 -1.000000
vn 0.000000 0.000000 -1.000000
vn 0.000000 0.000000 -1.000000
vn 0.000000 1.000000 0.000000
vn 0.000000 1.000000 0.000000
vn 0.000000 1.000000 0.000000
vn 0.000000 1.000000 0.000000
vn 0.000000 0.000000 1.000000
vn 0.000000 0.000000 1.000000
vn 0.000000 0.000000 1.000000
vn 0.000000 0.000000 1.000000
vn 0.000000 -1.000000 0.000000
vn 0.000000 -1.000000 0.000000
vn 0.000000 -1.000000 0.000000
vn 0.000000 -1.000000 0.000000
vn -1.000000 0.000000 0.000000
vn -1.000000 0.000000 0.000000
vn -1.000000 0.000000 0.000000
vn -1.000000 0.000000 0.000000
vn 1.000000 0.000000 0.000000
vn 1.000000 0.000000 0.000000
vn 1.000000 0.000000 0.000000
vn 1.000000 0.000000 0.000000
vn 0.000000 -1.000000 0.000000
vn 0.000000 -1.000000 0.000000
vn 0.000000 -1.000000 0.000000
vn 0.000000 -1.000000 0.000000
vn 1.000000 0.000000 0.000000
vn 1.000000 0.000000 0.000000
vn 1.000000 0.000000 0.000000
vn 1.000000 0.000000 0.000000
vn -1.000000 0.000000 0.000000
vn -1.000000 0.000000 0.000000
vn -1.000000 0.000000 0.000000
vn -1.000000 0.000000 0.000000
vn -1.000000 0.000000 0.000000
vn -1.000000 0.000000 0.000000
vn -1.000000 0.000000 0.000000
vn -1.000000 0.000000 0.000000
vn 1.000000 0.000000 0.000000
vn 1.000000 0.000000 0.000000
vn 1.000000 0.000000 0.000000
vn 1.000000 0.000000 0.000000
vn 0.000000 -1.000000 0.000000
vn 0.000000 -1.000000 0.000000
vn 0.000000 -1.000000 0.000000
vn 0.000000 -1.000000 0.000000
vn 1.000000 0.000000 0.000000
vn 1.000000 0.000000 0.000000
vn 1.000000 0.000000 0.000000
vn 1.000000 0.000000 0.000000
vn 0.000000 -1.000000 0.000000
vn 0.000000 -1.000000 0.000000
vn 0.000000 -1.000000 0.000000
vn 0.000000 -1.000000 0.000000
vn -1.000000 0.000000 0.000000
vn -1.000000 0.000000 0.000000
vn -1.000000 0.000000 0.000000
vn -1.000000 0.000000 0.000000
vn 0.000000 -1.000000 0.000000
vn 0.000000 -1.000000 0.000000
vn 0.000000 -1.000000 0.000000
vn 0.000000 -1.000000 0.000000
vn 1.000000 0.000000 0.000000
vn 1.000000 0.000000 0.000000
vn 1.000000 0.000000 0.000000
vn 1.000000 0.000000 0.000000
vn 0.000000 -1.000000 0.000000
vn 0.000000 -1.000000 0.000000
vn 0.000000 -1.000000 0.000000
vn 0.000000 -1.000000 0.000000
vn -1.000000 0.000000 0.000000
vn -1.000000 0.000000 0.000000
vn -1.000000 0.000000 0.000000
vn -1.000000 0.000000 0.000000
vn 0.000000 -1.000000 0.000000
vn 0.000000 -1.000000 0.000000
vn 0.000000 -1.000000 0.000000
vn 0.000000 -1.000000 0.000000
vn 1.000000 0.000000 0.000000
vn 1.000000 0.000000 0.000000
vn 1.000000 0.000000 0.000000
vn 1.000000 0.000000 0.000000
vn 0.000000 -1.000000 0.000000
vn 0.000000 -1.000000 0.000000
vn 0.000000 -1.000000 0.000000
vn 0.000000 -1.000000 0.000000
vn -1.000000 0.000000 0.000000
vn -1.000000 0.000000 0.000000
vn -1.000000 0.000000 0.000000
vn -1.000000 0.000000 0.000000
vn 0.000000 -1.000000 0.000000
vn 0.000000 -1.000000 0.000000
vn 0.000000 -1.000000 0.000000
vn 0.000000 -1.000000 0.000000
vn 1.000000 0.000000 0.000000
vn 1.000000 0.000000 0.000000
vn 1.000000 0.000000 0.000000
vn 1.000000 0.000000 0.000000
vn 0.000000 -1.000000 0.000000
vn 0.000000 -1.000000 0.000000
vn 0.000000 -1.000000 0.000000
vn 0.000000 -1.000000 0.000000
vn -1.000000 0.000000 0.000000
vn -1.000000 0.000000 0.000000
vn -1.000000 0.000000 0.000000
vn -1.000000 0.000000 0.000000
vn -1.000000 0.000000 0.000000
vn -1.000000 0.000000 0.000000
vn -1.000000 0.000000 0.000000
vn -1.000000 0.000000 0.000000
vn 0.000000 1.000000 0.000000
vn 0.000000 1.000000 0.000000
vn 0.000000 1.000000 0.000000
vn 0.000000 1.000000 0.000000
vn 0.000000 1.000000 0.000000
vn 0.000000 1.000000 0.000000
vn 0.000000 1.000000 0.000000
vn 0.000000 1.000000 0.000000
vn 0.000000 1.000000 0.000000
vn 0.000000 1.000000 0.000000
vn 0.000000 1.000000 0.000000
vn 0.000000 1.000000 0.000000
vn 0.000000 1.000000 0.000000
vn 0.000000 1.000000 0.000000
vn 0.000000 1.000000 0.000000
vn 0.000000 1.000000 0.000000
vn 0.000000 1.000000 0.000000
vn 0.000000 1.000000 0.000000
vn 0.000000 1.000000 0.000000
vn 0.000000 1.000000 0.000000
vn 0.000000 1.000000 0.000000
vn 0.000000 1.000000 0.000000
vn 0.000000 1.000000 0.000000
vn 0.000000 1.000000 0.000000
vn 0.000000 1.000000 0.000000
vn 0.000000 1.000000 0.000000
vn 0.000000 1.000000 0.000000
vn 0.000000 1.000000 0.000000
vn 1.000000 0.000000 0.000000
vn 1.000000 0.000000 0.000000
vn 1.000000 0.000000 0.000000
vn 1.000000 0.000000 0.000000
s off
usemtl chair_Back_1_initialShadingGroup
f 44/1/1 2/2/2 12/3/3 43/4/4
f 71/5/5 72/6/6 6/7/7 47/8/8
f 46/9/9 11/10/10 8/11/11 45/12/12
f 45/13/13 8/14/14 50/15/15 51/16/16
f 50/17/17 8/18/18 11/19/19 49/20/20
f 7/21/21 63/22/22 64/23/23 10/24/24
f 10/24/25 64/23/26 65/25/27 5/26/28
f 47/8/29 6/7/30 11/10/31 46/9/32
f 72/27/33 49/20/34 11/19/35 6/28/36
f 48/29/37 43/4/38 12/3/39 4/30/40
f 1/31/41 14/32/42 13/33/43 9/34/44
f 7/35/45 15/36/46 62/37/47 63/38/48
f 10/39/49 16/40/50 15/41/51 7/42/52
f 5/43/53 17/44/54 16/40/55 10/39/56
f 65/45/57 66/46/58 17/44/59 5/43/60
f 9/34/61 13/33/62 18/47/63 3/48/64
f 17/44/65 23/49/66 22/50/67 16/40/68
f 66/46/69 67/51/70 23/49/71 17/44/72
f 18/47/73 13/33/74 19/52/75 24/53/76
f 20/54/77 26/55/78 25/56/79 19/52/80
f 21/57/81 27/58/82 58/59/83 59/60/84
f 22/50/85 28/61/86 27/62/87 21/63/88
f 23/49/89 29/64/90 28/61/91 22/50/92
f 67/51/93 68/65/94 29/64/95 23/49/96
f 24/53/97 19/52/98 25/56/99 30/66/100
f 29/64/101 35/67/102 34/68/103 28/61/104
f 68/65/105 69/69/106 35/67/107 29/64/108
f 30/66/109 25/56/110 31/70/111 36/71/112
f 32/72/113 38/73/114 37/74/115 31/70/116
f 33/75/117 39/76/118 54/77/119 55/78/120
f 34/68/121 40/79/122 39/80/123 33/81/124
f 35/67/125 41/82/126 40/79/127 34/68/128
f 69/69/129 70/83/130 41/82/131 35/67/132
f 36/71/133 31/70/134 37/74/135 42/84/136
f 41/82/137 47/8/138 46/9/139 40/79/140
f 70/83/141 71/5/142 47/8/143 41/82/144
f 42/84/145 37/74/146 43/4/147 48/29/148
f 16/85/149 22/86/150 60/87/151 61/88/152
f 59/89/153 60/90/154 22/91/155 21/92/156
f 61/93/157 62/94/158 15/95/159 16/96/160
f 28/97/161 34/98/162 56/99/163 57/100/164
f 57/101/165 58/102/166 27/103/167 28/104/168
f 55/105/169 56/106/170 34/107/171 33/108/172
f 51/109/173 52/110/174 46/111/175 45/112/176
f 53/113/177 54/114/178 39/115/179 40/116/180
f 40/117/181 46/118/182 52/119/183 53/120/184
f 2/2/185 50/17/186 49/20/187 12/3/188
f 51/16/189 50/15/190 2/2/191 44/1/192
f 44/1/193 43/4/194 52/110/195 51/109/196
f 53/120/197 52/119/198 43/4/199 37/74/200
f 37/74/201 38/73/202 54/114/203 53/113/204
f 55/78/205 54/77/206 38/73/207 32/72/208
f 32/72/209 31/70/210 56/106/211 55/105/212
f 57/100/213 56/99/214 31/70/215 25/56/216
f 25/56/217 26/55/218 58/102/219 57/101/220
f 59/60/221 58/59/222 26/55/223 20/54/224
f 20/54/225 19/52/226 60/90/227 59/89/228
f 61/88/229 60/87/230 19/52/231 13/33/232
f 13/33/233 14/32/234 62/94/235 61/93/236
f 63/38/237 62/37/238 14/32/239 1/31/240
f 64/23/241 63/22/242 1/31/243 9/34/244
f 65/25/245 64/23/246 9/34/247 3/48/248
f 3/48/249 18/47/250 66/46/251 65/45/252
f 18/47/253 24/53/254 67/51/255 66/46/256
f 24/53/257 30/66/258 68/65/259 67/51/260
f 30/66/261 36/71/262 69/69/263 68/65/264
f 36/71/265 42/84/266 70/83/267 69/69/268
f 42/84/269 48/29/270 71/5/271 70/83/272
f 48/29/273 4/30/274 72/6/275 71/5/276
f 12/3/277 49/20/278 72/27/279 4/30/280
