# This file uses centimeters as units for non-parametric coordinates.

g default
v 0.064879 -4.305724 -0.028886
v 0.047521 -4.305724 -0.052777
v 0.021946 -4.305724 -0.067543
v -0.007423 -4.305724 -0.070629
v -0.035509 -4.305724 -0.061504
v -0.057455 -4.305724 -0.041744
v -0.069466 -4.305724 -0.014766
v -0.069466 -4.305724 0.014766
v -0.057455 -4.305724 0.041744
v -0.035509 -4.305724 0.061504
v -0.007423 -4.305724 0.070629
v 0.021946 -4.305724 0.067543
v 0.047521 -4.305724 0.052777
v 0.064879 -4.305724 0.028886
v 0.071018 -4.305724 0.000000
v 0.064879 0.000000 -0.028886
v 0.047521 0.000000 -0.052777
v 0.021946 0.000000 -0.067543
v -0.007423 0.000000 -0.070629
v -0.035509 0.000000 -0.061504
v -0.057455 0.000000 -0.041744
v -0.069466 0.000000 -0.014766
v -0.069466 0.000000 0.014766
v -0.057455 0.000000 0.041744
v -0.035509 0.000000 0.061504
v -0.007423 0.000000 0.070629
v 0.021946 0.000000 0.067543
v 0.047521 0.000000 0.052777
v 0.064879 0.000000 0.028886
v 0.071018 0.000000 0.000000
v 0.000000 -4.305724 0.000000
v 0.000000 0.000000 0.000000
vt 0.642741 0.092697
vt 0.604552 0.040134
vt 0.548284 0.007647
vt 0.483667 0.000856
vt 0.421875 0.020934
vt 0.373591 0.064409
vt 0.347164 0.123764
vt 0.347164 0.188736
vt 0.373591 0.248091
vt 0.421875 0.291566
vt 0.483667 0.311644
vt 0.548284 0.304853
vt 0.604552 0.272366
vt 0.642741 0.219803
vt 0.656250 0.156250
vt 0.375000 0.312500
vt 0.391667 0.312500
vt 0.408333 0.312500
vt 0.425000 0.312500
vt 0.441667 0.312500
vt 0.458333 0.312500
vt 0.475000 0.312500
vt 0.491667 0.312500
vt 0.508333 0.312500
vt 0.525000 0.312500
vt 0.541667 0.312500
vt 0.558333 0.312500
vt 0.575000 0.312500
vt 0.591667 0.312500
vt 0.608333 0.312500
vt 0.625000 0.312500
vt 0.375000 0.688440
vt 0.391667 0.688440
vt 0.408333 0.688440
vt 0.425000 0.688440
vt 0.441667 0.688440
vt 0.458333 0.688440
vt 0.475000 0.688440
vt 0.491667 0.688440
vt 0.508333 0.688440
vt 0.525000 0.688440
vt 0.541667 0.688440
vt 0.558333 0.688440
vt 0.575000 0.688440
vt 0.591667 0.688440
vt 0.608333 0.688440
vt 0.625000 0.688440
vt 0.642741 0.780197
vt 0.604552 0.727634
vt 0.548284 0.695147
vt 0.483667 0.688356
vt 0.421875 0.708434
vt 0.373591 0.751909
vt 0.347164 0.811264
vt 0.347164 0.876236
vt 0.373591 0.935591
vt 0.421875 0.979066
vt 0.483667 0.999144
vt 0.548284 0.992353
vt 0.604552 0.959866
vt 0.642741 0.907303
vt 0.656250 0.843750
vt 0.500000 0.150000
vt 0.500000 0.837500
vn 0.913545 0.000000 -0.406737
vn 0.669131 0.000000 -0.743145
vn 0.669131 0.000000 -0.743145
vn 0.913545 0.000000 -0.406737
vn 0.309017 0.000000 -0.951056
vn 0.309017 0.000000 -0.951056
vn -0.104528 0.000000 -0.994522
vn -0.104528 0.000000 -0.994522
vn -0.500000 0.000000 -0.866025
vn -0.500000 0.000000 -0.866025
vn -0.809017 0.000000 -0.587785
vn -0.809017 0.000000 -0.587785
vn -0.978148 0.000000 -0.207912
vn -0.978148 0.000000 -0.207912
vn -0.978148 0.000000 0.207912
vn -0.978148 0.000000 0.207912
vn -0.809017 0.000000 0.587785
vn -0.809017 0.000000 0.587785
vn -0.500000 0.000000 0.866025
vn -0.500000 0.000000 0.866025
vn -0.104529 0.000000 0.994522
vn -0.104529 0.000000 0.994522
vn 0.309017 0.000000 0.951057
vn 0.309017 0.000000 0.951057
vn 0.669131 0.000000 0.743145
vn 0.669131 0.000000 0.743145
vn 0.913545 0.000000 0.406737
vn 0.913545 0.000000 0.406737
vn 1.000000 0.000000 -0.000000
vn 1.000000 0.000000 -0.000000
vn 0.000000 -1.000000 0.000000
vn 0.000000 -1.000000 0.000000
vn 0.000000 -1.000000 0.000000
vn 0.000000 -1.000000 0.000000
vn 0.000000 -1.000000 0.000000
vn 0.000000 -1.000000 0.000000
vn 0.000000 -1.000000 0.000000
vn 0.000000 -1.000000 0.000000
vn 0.000000 -1.000000 0.000000
vn 0.000000 -1.000000 0.000000
vn 0.000000 -1.000000 0.000000
vn 0.000000 -1.000000 0.000000
vn 0.000000 -1.000000 0.000000
vn 0.000000 -1.000000 0.000000
vn 0.000000 -1.000000 0.000000
vn 0.000000 -1.000000 0.000000
vn 0.000000 1.000000 0.000000
vn 0.000000 1.000000 0.000000
vn 0.000000 1.000000 0.000000
vn 0.000000 1.000000 0.000000
vn 0.000000 1.000000 0.000000
vn 0.000000 1.000000 0.000000
vn 0.000000 1.000000 0.000000
vn 0.000000 1.000000 0.000000
vn 0.000000 1.000000 0.000000
vn 0.000000 1.000000 0.000000
vn 0.000000 1.000000 0.000000
vn 0.000000 1.000000 0.000000
vn 0.000000 1.000000 0.000000
vn 0.000000 1.000000 0.000000
vn 0.000000 1.000000 0.000000
vn 0.000000 1.000000 0.000000
s 1
g pCylinder1
f 1/16/1 2/17/2 17/33/3 16/32/4
f 2/17/2 3/18/5 18/34/6 17/33/3
f 3/18/5 4/19/7 19/35/8 18/34/6
f 4/19/7 5/20/9 20/36/10 19/35/8
f 5/20/9 6/21/11 21/37/12 20/36/10
f 6/21/11 7/22/13 22/38/14 21/37/12
f 7/22/13 8/23/15 23/39/16 22/38/14
f 8/23/15 9/24/17 24/40/18 23/39/16
f 9/24/17 10/25/19 25/41/20 24/40/18
f 10/25/19 11/26/21 26/42/22 25/41/20
f 11/26/21 12/27/23 27/43/24 26/42/22
f 12/27/23 13/28/25 28/44/26 27/43/24
f 13/28/25 14/29/27 29/45/28 28/44/26
f 14/29/27 15/30/29 30/46/30 29/45/28
f 15/30/29 1/31/1 16/47/4 30/46/30
s 2
f 2/2/31 1/1/32 31/63/33
f 3/3/34 2/2/31 31/63/33
f 4/4/35 3/3/34 31/63/33
f 5/5/36 4/4/35 31/63/33
f 6/6/37 5/5/36 31/63/33
f 7/7/38 6/6/37 31/63/33
f 8/8/39 7/7/38 31/63/33
f 9/9/40 8/8/39 31/63/33
f 10/10/41 9/9/40 31/63/33
f 11/11/42 10/10/41 31/63/33
f 12/12/43 11/11/42 31/63/33
f 13/13/44 12/12/43 31/63/33
f 14/14/45 13/13/44 31/63/33
f 15/15/46 14/14/45 31/63/33
f 1/1/32 15/15/46 31/63/33
s 3
f 16/61/47 17/60/48 32/64/49
f 17/60/48 18/59/50 32/64/49
f 18/59/50 19/58/51 32/64/49
f 19/58/51 20/57/52 32/64/49
f 20/57/52 21/56/53 32/64/49
f 21/56/53 22/55/54 32/64/49
f 22/55/54 23/54/55 32/64/49
f 23/54/55 24/53/56 32/64/49
f 24/53/56 25/52/57 32/64/49
f 25/52/57 26/51/58 32/64/49
f 26/51/58 27/50/59 32/64/49
f 27/50/59 28/49/60 32/64/49
f 28/49/60 29/48/61 32/64/49
f 29/48/61 30/62/62 32/64/49
f 30/62/62 16/61/47 32/64/49
g default
v 0.107108 -4.385964 -0.046492
v 0.079170 -4.385964 -0.084945
v 0.038007 -4.385964 -0.108710
v -0.009263 -4.385964 -0.113679
v -0.054467 -4.385964 -0.098991
v -0.089789 -4.385964 -0.067187
v -0.109122 -4.385964 -0.023765
v -0.109122 -4.385964 0.023765
v -0.089789 -4.385964 0.067187
v -0.054467 -4.385964 0.098991
v -0.009263 -4.385964 0.113679
v 0.038007 -4.385964 0.108710
v 0.079170 -4.385964 0.084945
v 0.107108 -4.385964 0.046492
v 0.116990 -4.385964 0.000000
v 0.083980 -3.908816 -0.036070
v 0.062304 -3.908816 -0.065903
v 0.030369 -3.908816 -0.084341
v -0.006305 -3.908816 -0.088196
v -0.041376 -3.908816 -0.076800
v -0.068780 -3.908816 -0.052126
v -0.083779 -3.908816 -0.018438
v -0.083779 -3.908816 0.018438
v -0.068780 -3.908816 0.052126
v -0.041376 -3.908816 0.076800
v -0.006305 -3.908816 0.088196
v 0.030369 -3.908816 0.084341
v 0.062304 -3.908816 0.065903
v 0.083980 -3.908816 0.036070
v 0.091647 -3.908816 0.000000
v 0.002015 -4.385964 0.000000
v 0.000000 -3.908816 0.000000
v -0.135227 -4.349030 -0.099759
v -0.082780 -4.349030 -0.146982
v -0.015661 -4.349030 -0.168790
v 0.054526 -4.349030 -0.161413
v 0.115644 -4.349030 -0.126126
v 0.157126 -4.349030 -0.069031
v 0.171799 -4.349030 0.000000
v 0.157126 -4.349030 0.069031
v 0.115644 -4.349030 0.126126
v 0.054526 -4.349030 0.161413
v -0.015661 -4.349030 0.168790
v -0.082780 -4.349030 0.146982
v -0.135227 -4.349030 0.099759
v -0.163931 -4.349030 0.035287
v -0.163931 -4.349030 -0.035287
vt 0.642741 0.092697
vt 0.604552 0.040134
vt 0.548284 0.007647
vt 0.483667 0.000856
vt 0.421875 0.020934
vt 0.373591 0.064409
vt 0.347164 0.123764
vt 0.347164 0.188736
vt 0.373591 0.248091
vt 0.421875 0.291566
vt 0.483667 0.311644
vt 0.548284 0.304853
vt 0.604552 0.272366
vt 0.642741 0.219803
vt 0.656250 0.156250
vt 0.375000 0.312500
vt 0.391667 0.312500
vt 0.408333 0.312500
vt 0.425000 0.312500
vt 0.441667 0.312500
vt 0.458333 0.312500
vt 0.475000 0.312500
vt 0.491667 0.312500
vt 0.508333 0.312500
vt 0.525000 0.312500
vt 0.541667 0.312500
vt 0.558333 0.312500
vt 0.575000 0.312500
vt 0.591667 0.312500
vt 0.608333 0.312500
vt 0.625000 0.312500
vt 0.375000 0.688440
vt 0.391667 0.688440
vt 0.408333 0.688440
vt 0.425000 0.688440
vt 0.441667 0.688440
vt 0.458333 0.688440
vt 0.475000 0.688440
vt 0.491667 0.688440
vt 0.508333 0.688440
vt 0.525000 0.688440
vt 0.541667 0.688440
vt 0.558333 0.688440
vt 0.575000 0.688440
vt 0.591667 0.688440
vt 0.608333 0.688440
vt 0.625000 0.688440
vt 0.642741 0.780197
vt 0.604552 0.727634
vt 0.548284 0.695147
vt 0.483667 0.688356
vt 0.421875 0.708434
vt 0.373591 0.751909
vt 0.347164 0.811264
vt 0.347164 0.876236
vt 0.373591 0.935591
vt 0.421875 0.979066
vt 0.483667 0.999144
vt 0.548284 0.992353
vt 0.604552 0.959866
vt 0.642741 0.907303
vt 0.656250 0.843750
vt 0.500000 0.150000
vt 0.500000 0.837500
vt 0.458333 0.331782
vt 0.441667 0.331782
vt 0.425000 0.331782
vt 0.408333 0.331782
vt 0.391667 0.331782
vt 0.625000 0.331782
vt 0.375000 0.331782
vt 0.608333 0.331782
vt 0.591667 0.331782
vt 0.575000 0.331782
vt 0.558333 0.331782
vt 0.541667 0.331782
vt 0.525000 0.331782
vt 0.508333 0.331782
vt 0.491667 0.331782
vt 0.475000 0.331782
vn 0.510283 -0.829530 -0.226917
vn 0.373333 -0.830225 -0.413944
vn 0.667993 0.053042 -0.742275
vn 0.912208 0.052895 -0.406299
vn 0.172340 -0.831242 -0.528522
vn 0.308259 0.053258 -0.949810
vn -0.057324 -0.832401 -0.551200
vn -0.104728 0.053506 -0.993060
vn -0.275805 -0.833500 -0.478758
vn -0.499543 0.053745 -0.864620
vn -0.445747 -0.834353 -0.324292
vn -0.807961 0.053931 -0.586763
vn -0.538471 -0.834817 -0.114584
vn -0.976734 0.054033 -0.207537
vn -0.538471 -0.834817 0.114583
vn -0.976734 0.054033 0.207537
vn -0.445746 -0.834353 0.324292
vn -0.807961 0.053931 0.586762
vn -0.275805 -0.833500 0.478757
vn -0.499543 0.053745 0.864620
vn -0.057324 -0.832401 0.551200
vn -0.104729 0.053506 0.993060
vn 0.172340 -0.831242 0.528522
vn 0.308259 0.053258 0.949810
vn 0.373333 -0.830225 0.413944
vn 0.667993 0.053042 0.742275
vn 0.510283 -0.829530 0.226917
vn 0.912208 0.052895 0.406299
vn 0.558828 -0.829283 -0.000000
vn 0.998603 0.052843 -0.000000
vn 0.000000 -1.000000 0.000000
vn 0.000000 -1.000000 0.000000
vn 0.000000 -1.000000 0.000000
vn 0.000000 -1.000000 -0.000000
vn 0.000000 -1.000000 -0.000000
vn 0.000000 -1.000000 0.000000
vn 0.000000 -1.000000 0.000000
vn 0.000000 -1.000000 -0.000000
vn 0.000000 -1.000000 0.000000
vn 0.000000 -1.000000 0.000000
vn 0.000000 -1.000000 -0.000000
vn 0.000000 -1.000000 0.000000
vn 0.000000 -1.000000 0.000000
vn 0.000000 -1.000000 0.000000
vn 0.000000 -1.000000 0.000000
vn 0.000000 -1.000000 0.000000
vn 0.000000 1.000000 0.000000
vn 0.000000 1.000000 0.000000
vn 0.000000 1.000000 -0.000000
vn 0.000000 1.000000 0.000000
vn 0.000000 1.000000 -0.000000
vn 0.000000 1.000000 -0.000000
vn 0.000000 1.000000 0.000000
vn 0.000000 1.000000 0.000000
vn 0.000000 1.000000 0.000000
vn 0.000000 1.000000 0.000000
vn 0.000000 1.000000 0.000000
vn 0.000000 1.000000 -0.000000
vn 0.000000 1.000000 -0.000000
vn 0.000000 1.000000 0.000000
vn 0.000000 1.000000 0.000000
vn 0.000000 1.000000 0.000000
vn -0.795329 0.182593 -0.578024
vn -0.491461 0.182002 -0.851669
vn -0.102548 0.181246 -0.978077
vn 0.304173 0.180455 -0.935369
vn 0.658369 0.179766 -0.730913
vn 0.898783 0.179298 -0.400052
vn 0.983825 0.179132 -0.000000
vn 0.898783 0.179298 0.400052
vn 0.658369 0.179766 0.730914
vn 0.304173 0.180455 0.935369
vn -0.102549 0.181246 0.978077
vn -0.491461 0.182002 0.851669
vn -0.795329 0.182594 0.578023
vn -0.961634 0.182917 0.204456
vn -0.961634 0.182917 -0.204455
s 1
g pCylinder2
f 33/80/63 34/81/64 69/133/65 70/135/66
f 34/81/64 35/82/67 68/132/68 69/133/65
f 35/82/67 36/83/69 67/131/70 68/132/68
f 36/83/69 37/84/71 66/130/72 67/131/70
f 37/84/71 38/85/73 65/129/74 66/130/72
f 38/85/73 39/86/75 79/144/76 65/129/74
f 39/86/75 40/87/77 78/143/78 79/144/76
f 40/87/77 41/88/79 77/142/80 78/143/78
f 41/88/79 42/89/81 76/141/82 77/142/80
f 42/89/81 43/90/83 75/140/84 76/141/82
f 43/90/83 44/91/85 74/139/86 75/140/84
f 44/91/85 45/92/87 73/138/88 74/139/86
f 45/92/87 46/93/89 72/137/90 73/138/88
f 46/93/89 47/94/91 71/136/92 72/137/90
f 47/94/91 33/95/63 70/134/66 71/136/92
s 2
f 34/66/93 33/65/94 63/127/95
f 35/67/96 34/66/93 63/127/95
f 36/68/97 35/67/96 63/127/95
f 37/69/98 36/68/97 63/127/95
f 38/70/99 37/69/98 63/127/95
f 39/71/100 38/70/99 63/127/95
f 40/72/101 39/71/100 63/127/95
f 41/73/102 40/72/101 63/127/95
f 42/74/103 41/73/102 63/127/95
f 43/75/104 42/74/103 63/127/95
f 44/76/105 43/75/104 63/127/95
f 45/77/106 44/76/105 63/127/95
f 46/78/107 45/77/106 63/127/95
f 47/79/108 46/78/107 63/127/95
f 33/65/94 47/79/108 63/127/95
s 3
f 48/125/109 49/124/110 64/128/111
f 49/124/110 50/123/112 64/128/111
f 50/123/112 51/122/113 64/128/111
f 51/122/113 52/121/114 64/128/111
f 52/121/114 53/120/115 64/128/111
f 53/120/115 54/119/116 64/128/111
f 54/119/116 55/118/117 64/128/111
f 55/118/117 56/117/118 64/128/111
f 56/117/118 57/116/119 64/128/111
f 57/116/119 58/115/120 64/128/111
f 58/115/120 59/114/121 64/128/111
f 59/114/121 60/113/122 64/128/111
f 60/113/122 61/112/123 64/128/111
f 61/112/123 62/126/124 64/128/111
f 62/126/124 48/125/109 64/128/111
s 1
f 66/130/72 65/129/74 53/101/125 52/100/126
f 67/131/70 66/130/72 52/100/126 51/99/127
f 68/132/68 67/131/70 51/99/127 50/98/128
f 69/133/65 68/132/68 50/98/128 49/97/129
f 70/135/66 69/133/65 49/97/129 48/96/130
f 71/136/92 70/134/66 48/111/130 62/110/131
f 72/137/90 71/136/92 62/110/131 61/109/132
f 73/138/88 72/137/90 61/109/132 60/108/133
f 74/139/86 73/138/88 60/108/133 59/107/134
f 75/140/84 74/139/86 59/107/134 58/106/135
f 76/141/82 75/140/84 58/106/135 57/105/136
f 77/142/80 76/141/82 57/105/136 56/104/137
f 78/143/78 77/142/80 56/104/137 55/103/138
f 79/144/76 78/143/78 55/103/138 54/102/139
f 65/129/74 79/144/76 54/102/139 53/101/125
