# This file uses centimeters as units for non-parametric coordinates.

g default
v 0.089522 -5.941140 -0.039858
v 0.065571 -5.941140 -0.072823
v 0.030282 -5.941140 -0.093197
v -0.010242 -5.941140 -0.097456
v -0.048996 -5.941140 -0.084865
v -0.079278 -5.941140 -0.057599
v -0.095851 -5.941140 -0.020374
v -0.095851 -5.941140 0.020374
v -0.079278 -5.941140 0.057599
v -0.048996 -5.941140 0.084865
v -0.010242 -5.941140 0.097456
v 0.030282 -5.941140 0.093197
v 0.065571 -5.941140 0.072823
v 0.089522 -5.941140 0.039858
v 0.097992 -5.941140 0.000000
v 0.089522 0.000000 -0.039858
v 0.065571 0.000000 -0.072823
v 0.030282 0.000000 -0.093197
v -0.010242 0.000000 -0.097456
v -0.048996 0.000000 -0.084865
v -0.079278 0.000000 -0.057599
v -0.095851 0.000000 -0.020374
v -0.095851 0.000000 0.020374
v -0.079278 0.000000 0.057599
v -0.048996 0.000000 0.084865
v -0.010242 0.000000 0.097456
v 0.030282 0.000000 0.093197
v 0.065571 0.000000 0.072823
v 0.089522 0.000000 0.039858
v 0.097992 0.000000 0.000000
v 0.000000 -5.941140 0.000000
vt 0.270514 2.555964
vt 0.252945 2.555964
vt 0.252945 -0.005618
vt 0.270514 -0.005618
vt 0.235376 2.555964
vt 0.235376 -0.005618
vt 0.217807 2.555964
vt 0.217807 -0.005618
vt 0.200238 2.555964
vt 0.200238 -0.005618
vt 0.182669 2.555964
vt 0.182669 -0.005618
vt 0.165101 2.555964
vt 0.165101 -0.005618
vt 0.147532 2.555964
vt 0.147532 -0.005618
vt 0.129963 2.555964
vt 0.129963 -0.005618
vt 0.112394 2.555964
vt 0.112394 -0.005618
vt 0.094825 2.555964
vt 0.094825 -0.005618
vt 0.077256 2.555964
vt 0.077256 -0.005618
vt 0.059687 2.555964
vt 0.059687 -0.005618
vt 0.042119 2.555964
vt 0.042119 -0.005618
vt 0.024550 2.555964
vt 0.024550 -0.005618
vt 0.006981 2.555964
vt 0.006981 -0.005618
vt 0.288121 0.067799
vt 0.277794 0.053586
vt 0.316392 0.036401
vt 0.303336 0.076584
vt 0.320808 0.078420
vt 0.337517 0.072991
vt 0.350574 0.061235
vt 0.357719 0.045185
vt 0.357719 0.027616
vt 0.350574 0.011566
vt 0.337517 -0.000190
vt 0.320808 -0.005618
vt 0.303336 -0.003782
vt 0.288120 0.005002
vt 0.277794 0.019216
vt 0.274142 0.036401
vn 0.913545 0.000000 -0.406737
vn 0.669131 0.000000 -0.743145
vn 0.669131 0.000000 -0.743145
vn 0.913545 0.000000 -0.406737
vn 0.669131 0.000000 -0.743145
vn 0.309017 0.000000 -0.951056
vn 0.309017 0.000000 -0.951056
vn 0.669131 0.000000 -0.743145
vn 0.309017 0.000000 -0.951056
vn -0.104528 0.000000 -0.994522
vn -0.104528 0.000000 -0.994522
vn 0.309017 0.000000 -0.951056
vn -0.104528 0.000000 -0.994522
vn -0.500000 0.000000 -0.866025
vn -0.500000 0.000000 -0.866025
vn -0.104528 0.000000 -0.994522
vn -0.500000 0.000000 -0.866025
vn -0.809017 0.000000 -0.587785
vn -0.809017 0.000000 -0.587785
vn -0.500000 0.000000 -0.866025
vn -0.809017 0.000000 -0.587785
vn -0.978148 0.000000 -0.207912
vn -0.978148 0.000000 -0.207912
vn -0.809017 0.000000 -0.587785
vn -0.978148 0.000000 -0.207912
vn -0.978148 0.000000 0.207912
vn -0.978148 0.000000 0.207912
vn -0.978148 0.000000 -0.207912
vn -0.978148 0.000000 0.207912
vn -0.809017 0.000000 0.587785
vn -0.809017 0.000000 0.587785
vn -0.978148 0.000000 0.207912
vn -0.809017 0.000000 0.587785
vn -0.500000 0.000000 0.866025
vn -0.500000 0.000000 0.866025
vn -0.809017 0.000000 0.587785
vn -0.500000 0.000000 0.866025
vn -0.104529 0.000000 0.994522
vn -0.104529 0.000000 0.994522
vn -0.500000 0.000000 0.866025
vn -0.104529 0.000000 0.994522
vn 0.309017 0.000000 0.951057
vn 0.309017 0.000000 0.951057
vn -0.104529 0.000000 0.994522
vn 0.309017 0.000000 0.951057
vn 0.669131 0.000000 0.743145
vn 0.669131 0.000000 0.743145
vn 0.309017 0.000000 0.951057
vn 0.669131 0.000000 0.743145
vn 0.913545 0.000000 0.406737
vn 0.913545 0.000000 0.406737
vn 0.669131 0.000000 0.743145
vn 0.913545 0.000000 0.406737
vn 1.000000 0.000000 0.000000
vn 1.000000 0.000000 0.000000
vn 0.913545 0.000000 0.406737
vn 1.000000 0.000000 0.000000
vn 0.913545 0.000000 -0.406737
vn 0.913545 0.000000 -0.406737
vn 1.000000 0.000000 0.000000
vn 0.000000 -1.000000 0.000000
vn 0.000000 -1.000000 0.000000
vn 0.000000 -1.000000 0.000000
vn 0.000000 -1.000000 0.000000
vn 0.000000 -1.000000 0.000000
vn 0.000000 -1.000000 0.000000
vn 0.000000 -1.000000 0.000000
vn 0.000000 -1.000000 0.000000
vn 0.000000 -1.000000 0.000000
vn 0.000000 -1.000000 0.000000
vn 0.000000 -1.000000 0.000000
vn 0.000000 -1.000000 0.000000
vn 0.000000 -1.000000 0.000000
vn 0.000000 -1.000000 0.000000
vn 0.000000 -1.000000 0.000000
vn 0.000000 -1.000000 0.000000
vn 0.000000 -1.000000 0.000000
vn 0.000000 -1.000000 0.000000
vn 0.000000 -1.000000 0.000000
vn 0.000000 -1.000000 0.000000
vn 0.000000 -1.000000 0.000000
vn 0.000000 -1.000000 0.000000
vn 0.000000 -1.000000 0.000000
vn 0.000000 -1.000000 0.000000
vn 0.000000 -1.000000 0.000000
vn 0.000000 -1.000000 0.000000
vn 0.000000 -1.000000 0.000000
vn 0.000000 -1.000000 0.000000
vn 0.000000 -1.000000 0.000000
vn 0.000000 -1.000000 0.000000
vn 0.000000 -1.000000 0.000000
vn 0.000000 -1.000000 0.000000
vn 0.000000 -1.000000 0.000000
vn 0.000000 -1.000000 0.000000
vn 0.000000 -1.000000 0.000000
vn 0.000000 -1.000000 0.000000
vn 0.000000 -1.000000 0.000000
vn 0.000000 -1.000000 0.000000
vn 0.000000 -1.000000 0.000000
vn 0.000000 -1.000000 0.000000
vn 0.000000 -1.000000 0.000000
vn 0.000000 -1.000000 0.000000
vn 0.000000 -1.000000 0.000000
vn 0.000000 -1.000000 0.000000
vn 0.000000 -1.000000 0.000000
s off
g ghost_ghost_pCylinder1
f 1/1/1 2/2/2 17/3/3 16/4/4
f 2/2/5 3/5/6 18/6/7 17/3/8
f 3/5/9 4/7/10 19/8/11 18/6/12
f 4/7/13 5/9/14 20/10/15 19/8/16
f 5/9/17 6/11/18 21/12/19 20/10/20
f 6/11/21 7/13/22 22/14/23 21/12/24
f 7/13/25 8/15/26 23/16/27 22/14/28
f 8/15/29 9/17/30 24/18/31 23/16/32
f 9/17/33 10/19/34 25/20/35 24/18/36
f 10/19/37 11/21/38 26/22/39 25/20/40
f 11/21/41 12/23/42 27/24/43 26/22/44
f 12/23/45 13/25/46 28/26/47 27/24/48
f 13/25/49 14/27/50 29/28/51 28/26/52
f 14/27/53 15/29/54 30/30/55 29/28/56
f 15/29/57 1/31/58 16/32/59 30/30/60
f 2/33/61 1/34/62 31/35/63
f 3/36/64 2/33/65 31/35/66
f 4/37/67 3/36/68 31/35/69
f 5/38/70 4/37/71 31/35/72
f 6/39/73 5/38/74 31/35/75
f 7/40/76 6/39/77 31/35/78
f 8/41/79 7/40/80 31/35/81
f 9/42/82 8/41/83 31/35/84
f 10/43/85 9/42/86 31/35/87
f 11/44/88 10/43/89 31/35/90
f 12/45/91 11/44/92 31/35/93
f 13/46/94 12/45/95 31/35/96
f 14/47/97 13/46/98 31/35/99
f 15/48/100 14/47/101 31/35/102
f 1/34/103 15/48/104 31/35/105
g default
v 0.147790 -6.051856 -0.064151
v 0.109241 -6.051856 -0.117209
v 0.052443 -6.051856 -0.150001
v -0.012781 -6.051856 -0.156857
v -0.075155 -6.051856 -0.136590
v -0.123893 -6.051856 -0.092706
v -0.150569 -6.051856 -0.032792
v -0.150569 -6.051856 0.032792
v -0.123893 -6.051856 0.092706
v -0.075155 -6.051856 0.136590
v -0.012781 -6.051856 0.156857
v 0.052443 -6.051856 0.150001
v 0.109241 -6.051856 0.117209
v 0.147790 -6.051856 0.064151
v 0.161426 -6.051856 0.000000
v 0.115878 -5.393477 -0.049770
v 0.085969 -5.393477 -0.090935
v 0.041904 -5.393477 -0.116376
v -0.008700 -5.393477 -0.121695
v -0.057092 -5.393477 -0.105970
v -0.094904 -5.393477 -0.071925
v -0.115600 -5.393477 -0.025441
v -0.115600 -5.393477 0.025441
v -0.094904 -5.393477 0.071925
v -0.057092 -5.393477 0.105970
v -0.008700 -5.393477 0.121695
v 0.041904 -5.393477 0.116376
v 0.085969 -5.393477 0.090935
v 0.115878 -5.393477 0.049770
v 0.126457 -5.393477 0.000000
v 0.002780 -6.051856 0.000000
v 0.000000 -5.393477 0.000000
v -0.186589 -6.000894 -0.137650
v -0.114222 -6.000894 -0.202809
v -0.021609 -6.000894 -0.232900
v 0.075236 -6.000894 -0.222721
v 0.159568 -6.000894 -0.174032
v 0.216806 -6.000894 -0.095251
v 0.237052 -6.000894 0.000000
v 0.216806 -6.000894 0.095251
v 0.159568 -6.000894 0.174032
v 0.075236 -6.000894 0.222721
v -0.021609 -6.000894 0.232900
v -0.114222 -6.000894 0.202809
v -0.186589 -6.000894 0.137650
v -0.226196 -6.000894 0.048690
v -0.226196 -6.000894 -0.048690
vt 0.411489 0.366496
vt 0.423356 0.366496
vt 0.423356 0.380225
vt 0.411489 0.380225
vt 0.435223 0.366496
vt 0.435223 0.380225
vt 0.447090 0.366496
vt 0.447090 0.380225
vt 0.458957 0.366496
vt 0.458957 0.380225
vt 0.470824 0.366496
vt 0.470824 0.380225
vt 0.482691 0.366496
vt 0.482691 0.380225
vt 0.494558 0.366496
vt 0.494558 0.380225
vt 0.506425 0.366496
vt 0.506425 0.380225
vt 0.518292 0.366496
vt 0.518292 0.380225
vt 0.530159 0.366496
vt 0.530159 0.380225
vt 0.542026 0.366496
vt 0.542026 0.380225
vt 0.553893 0.366496
vt 0.553893 0.380225
vt 0.565761 0.366496
vt 0.565761 0.380225
vt 0.577627 0.366496
vt 0.577627 0.380225
vt 0.589494 0.366496
vt 0.589494 0.380225
vt 0.574935 0.172565
vt 0.602126 0.209991
vt 0.500492 0.250792
vt 0.534871 0.149433
vt 0.488862 0.144598
vt 0.444865 0.158894
vt 0.410485 0.189849
vt 0.391669 0.232111
vt 0.391669 0.278373
vt 0.410485 0.320635
vt 0.444865 0.351590
vt 0.488862 0.365886
vt 0.534871 0.361051
vt 0.574935 0.337919
vt 0.602126 0.300493
vt 0.611745 0.255242
vt 0.602126 0.790009
vt 0.574935 0.827435
vt 0.500492 0.740308
vt 0.534871 0.850567
vt 0.488862 0.855402
vt 0.444865 0.841106
vt 0.410485 0.810151
vt 0.391669 0.767889
vt 0.391669 0.721627
vt 0.410485 0.679365
vt 0.444865 0.648410
vt 0.488862 0.634114
vt 0.534871 0.638949
vt 0.574935 0.662081
vt 0.602126 0.699507
vt 0.611745 0.744758
vt 0.470824 0.634174
vt 0.458957 0.634174
vt 0.447090 0.634174
vt 0.435223 0.634174
vt 0.423356 0.634174
vt 0.411489 0.634174
vt 0.589494 0.634174
vt 0.577627 0.634174
vt 0.565761 0.634174
vt 0.553893 0.634174
vt 0.542026 0.634174
vt 0.530159 0.634174
vt 0.518292 0.634174
vt 0.506425 0.634174
vt 0.494558 0.634174
vt 0.482691 0.634174
vn 0.458378 -0.824000 -0.333037
vn 0.458378 -0.824000 -0.333037
vn 0.458378 -0.824000 -0.333037
vn 0.458378 -0.824000 -0.333037
vn 0.373333 -0.830225 -0.413944
vn 0.172340 -0.831242 -0.528522
vn 0.308259 0.053258 -0.949811
vn 0.667993 0.053042 -0.742275
vn 0.172340 -0.831242 -0.528522
vn -0.057324 -0.832401 -0.551200
vn -0.104728 0.053506 -0.993061
vn 0.308259 0.053258 -0.949811
vn -0.057324 -0.832401 -0.551200
vn -0.275805 -0.833500 -0.478758
vn -0.499543 0.053745 -0.864620
vn -0.104728 0.053506 -0.993061
vn -0.275805 -0.833500 -0.478758
vn -0.445747 -0.834353 -0.324292
vn -0.807961 0.053931 -0.586763
vn -0.499543 0.053745 -0.864620
vn -0.445747 -0.834353 -0.324292
vn -0.538471 -0.834817 -0.114584
vn -0.976734 0.054033 -0.207537
vn -0.807961 0.053931 -0.586763
vn -0.538471 -0.834817 -0.114584
vn -0.538471 -0.834817 0.114583
vn -0.976734 0.054033 0.207537
vn -0.976734 0.054033 -0.207537
vn -0.538471 -0.834817 0.114583
vn -0.445746 -0.834353 0.324292
vn -0.807961 0.053931 0.586762
vn -0.976734 0.054033 0.207537
vn -0.445746 -0.834353 0.324292
vn -0.275805 -0.833501 0.478757
vn -0.499543 0.053745 0.864620
vn -0.807961 0.053931 0.586762
vn -0.275805 -0.833501 0.478757
vn -0.057324 -0.832401 0.551200
vn -0.104729 0.053506 0.993060
vn -0.499543 0.053745 0.864620
vn -0.057324 -0.832401 0.551200
vn 0.172340 -0.831242 0.528522
vn 0.308259 0.053258 0.949811
vn -0.104729 0.053506 0.993060
vn 0.172340 -0.831242 0.528522
vn 0.373333 -0.830225 0.413944
vn 0.667993 0.053042 0.742275
vn 0.308259 0.053258 0.949811
vn 0.373333 -0.830225 0.413944
vn 0.510283 -0.829530 0.226917
vn 0.912208 0.052895 0.406299
vn 0.667993 0.053042 0.742275
vn 0.510283 -0.829530 0.226917
vn 0.558828 -0.829283 0.000000
vn 0.998603 0.052843 0.000000
vn 0.912208 0.052895 0.406299
vn 0.558828 -0.829283 0.000000
vn 0.510283 -0.829530 -0.226917
vn 0.912208 0.052895 -0.406299
vn 0.998603 0.052843 0.000000
vn 0.000000 -1.000000 0.000000
vn 0.000000 -1.000000 0.000000
vn 0.000000 -1.000000 0.000000
vn 0.000000 -1.000000 0.000000
vn 0.000000 -1.000000 0.000000
vn 0.000000 -1.000000 0.000000
vn 0.000000 -1.000000 0.000000
vn 0.000000 -1.000000 0.000000
vn 0.000000 -1.000000 0.000000
vn 0.000000 -1.000000 0.000000
vn 0.000000 -1.000000 0.000000
vn 0.000000 -1.000000 0.000000
vn 0.000000 -1.000000 0.000000
vn 0.000000 -1.000000 0.000000
vn 0.000000 -1.000000 0.000000
vn 0.000000 -1.000000 0.000000
vn 0.000000 -1.000000 0.000000
vn 0.000000 -1.000000 0.000000
vn 0.000000 -1.000000 0.000000
vn 0.000000 -1.000000 0.000000
vn 0.000000 -1.000000 0.000000
vn 0.000000 -1.000000 0.000000
vn 0.000000 -1.000000 0.000000
vn 0.000000 -1.000000 0.000000
vn 0.000000 -1.000000 0.000000
vn 0.000000 -1.000000 0.000000
vn 0.000000 -1.000000 0.000000
vn 0.000000 -1.000000 0.000000
vn 0.000000 -1.000000 0.000000
vn 0.000000 -1.000000 0.000000
vn 0.000000 -1.000000 0.000000
vn 0.000000 -1.000000 0.000000
vn 0.000000 -1.000000 0.000000
vn 0.000000 -1.000000 0.000000
vn 0.000000 -1.000000 0.000000
vn 0.000000 -1.000000 0.000000
vn 0.000000 -1.000000 0.000000
vn 0.000000 -1.000000 0.000000
vn 0.000000 -1.000000 0.000000
vn 0.000000 -1.000000 0.000000
vn 0.000000 -1.000000 0.000000
vn 0.000000 -1.000000 0.000000
vn 0.000000 -1.000000 0.000000
vn 0.000000 -1.000000 0.000000
vn 0.000000 -1.000000 0.000000
vn 0.000000 1.000000 0.000000
vn 0.000000 1.000000 0.000000
vn 0.000000 1.000000 0.000000
vn 0.000000 1.000000 0.000000
vn 0.000000 1.000000 0.000000
vn 0.000000 1.000000 0.000000
vn 0.000000 1.000000 0.000000
vn 0.000000 1.000000 0.000000
vn 0.000000 1.000000 0.000000
vn 0.000000 1.000000 0.000000
vn 0.000000 1.000000 0.000000
vn 0.000000 1.000000 0.000000
vn 0.000000 1.000000 0.000000
vn 0.000000 1.000000 0.000000
vn 0.000000 1.000000 0.000000
vn 0.000000 1.000000 0.000000
vn 0.000000 1.000000 0.000000
vn 0.000000 1.000000 0.000000
vn 0.000000 1.000000 0.000000
vn 0.000000 1.000000 0.000000
vn 0.000000 1.000000 0.000000
vn 0.000000 1.000000 0.000000
vn 0.000000 1.000000 0.000000
vn 0.000000 1.000000 0.000000
vn 0.000000 1.000000 0.000000
vn 0.000000 1.000000 0.000000
vn 0.000000 1.000000 0.000000
vn 0.000000 1.000000 0.000000
vn 0.000000 1.000000 0.000000
vn 0.000000 1.000000 0.000000
vn 0.000000 1.000000 0.000000
vn 0.000000 1.000000 0.000000
vn 0.000000 1.000000 0.000000
vn 0.000000 1.000000 0.000000
vn 0.000000 1.000000 0.000000
vn 0.000000 1.000000 0.000000
vn 0.000000 1.000000 0.000000
vn 0.000000 1.000000 0.000000
vn 0.000000 1.000000 0.000000
vn 0.000000 1.000000 0.000000
vn 0.000000 1.000000 0.000000
vn 0.000000 1.000000 0.000000
vn 0.000000 1.000000 0.000000
vn 0.000000 1.000000 0.000000
vn 0.000000 1.000000 0.000000
vn -0.499543 0.053745 -0.864620
vn -0.807961 0.053931 -0.586763
vn -0.795329 0.182593 -0.578024
vn -0.491461 0.182002 -0.851670
vn -0.104728 0.053506 -0.993061
vn -0.499543 0.053745 -0.864620
vn -0.491461 0.182002 -0.851670
vn -0.102548 0.181246 -0.978077
vn 0.308259 0.053258 -0.949811
vn -0.104728 0.053506 -0.993061
vn -0.102548 0.181246 -0.978077
vn 0.304173 0.180455 -0.935369
vn 0.667993 0.053042 -0.742275
vn 0.308259 0.053258 -0.949811
vn 0.304173 0.180455 -0.935369
vn 0.658369 0.179766 -0.730913
vn 0.912208 0.052895 -0.406299
vn 0.667993 0.053042 -0.742275
vn 0.658369 0.179766 -0.730913
vn 0.898783 0.179298 -0.400052
vn 0.998603 0.052843 0.000000
vn 0.912208 0.052895 -0.406299
vn 0.898783 0.179298 -0.400052
vn 0.983825 0.179132 0.000000
vn 0.912208 0.052895 0.406299
vn 0.998603 0.052843 0.000000
vn 0.983825 0.179132 0.000000
vn 0.898783 0.179298 0.400052
vn 0.667993 0.053042 0.742275
vn 0.912208 0.052895 0.406299
vn 0.898783 0.179298 0.400052
vn 0.658369 0.179766 0.730914
vn 0.308259 0.053258 0.949811
vn 0.667993 0.053042 0.742275
vn 0.658369 0.179766 0.730914
vn 0.304173 0.180455 0.935369
vn -0.104729 0.053506 0.993060
vn 0.308259 0.053258 0.949811
vn 0.304173 0.180455 0.935369
vn -0.102549 0.181246 0.978076
vn -0.499543 0.053745 0.864620
vn -0.104729 0.053506 0.993060
vn -0.102549 0.181246 0.978076
vn -0.491461 0.182002 0.851670
vn -0.807961 0.053931 0.586762
vn -0.499543 0.053745 0.864620
vn -0.491461 0.182002 0.851670
vn -0.795329 0.182594 0.578023
vn -0.976734 0.054033 0.207537
vn -0.807961 0.053931 0.586762
vn -0.795329 0.182594 0.578023
vn -0.961634 0.182917 0.204456
vn -0.976734 0.054033 -0.207537
vn -0.976734 0.054033 0.207537
vn -0.961634 0.182917 0.204456
vn -0.961634 0.182917 -0.204455
vn -0.807961 0.053931 -0.586763
vn -0.976734 0.054033 -0.207537
vn -0.961634 0.182917 -0.204455
vn -0.795329 0.182593 -0.578024
s off
g ghost_ghost_pCylinder2
f 32/49/106 33/50/107 68/51/108 69/52/109
f 33/50/110 34/53/111 67/54/112 68/51/113
f 34/53/114 35/55/115 66/56/116 67/54/117
f 35/55/118 36/57/119 65/58/120 66/56/121
f 36/57/122 37/59/123 64/60/124 65/58/125
f 37/59/126 38/61/127 78/62/128 64/60/129
f 38/61/130 39/63/131 77/64/132 78/62/133
f 39/63/134 40/65/135 76/66/136 77/64/137
f 40/65/138 41/67/139 75/68/140 76/66/141
f 41/67/142 42/69/143 74/70/144 75/68/145
f 42/69/146 43/71/147 73/72/148 74/70/149
f 43/71/150 44/73/151 72/74/152 73/72/153
f 44/73/154 45/75/155 71/76/156 72/74/157
f 45/75/158 46/77/159 70/78/160 71/76/161
f 46/77/162 32/79/163 69/80/164 70/78/165
f 33/81/166 32/82/167 62/83/168
f 34/84/169 33/81/170 62/83/171
f 35/85/172 34/84/173 62/83/174
f 36/86/175 35/85/176 62/83/177
f 37/87/178 36/86/179 62/83/180
f 38/88/181 37/87/182 62/83/183
f 39/89/184 38/88/185 62/83/186
f 40/90/187 39/89/188 62/83/189
f 41/91/190 40/90/191 62/83/192
f 42/92/193 41/91/194 62/83/195
f 43/93/196 42/92/197 62/83/198
f 44/94/199 43/93/200 62/83/201
f 45/95/202 44/94/203 62/83/204
f 46/96/205 45/95/206 62/83/207
f 32/82/208 46/96/209 62/83/210
f 47/97/211 48/98/212 63/99/213
f 48/98/214 49/100/215 63/99/216
f 49/100/217 50/101/218 63/99/219
f 50/101/220 51/102/221 63/99/222
f 51/102/223 52/103/224 63/99/225
f 52/103/226 53/104/227 63/99/228
f 53/104/229 54/105/230 63/99/231
f 54/105/232 55/106/233 63/99/234
f 55/106/235 56/107/236 63/99/237
f 56/107/238 57/108/239 63/99/240
f 57/108/241 58/109/242 63/99/243
f 58/109/244 59/110/245 63/99/246
f 59/110/247 60/111/248 63/99/249
f 60/111/250 61/112/251 63/99/252
f 61/112/253 47/97/254 63/99/255
f 65/58/256 64/60/257 52/113/258 51/114/259
f 66/56/260 65/58/261 51/114/262 50/115/263
f 67/54/264 66/56/265 50/115/266 49/116/267
f 68/51/268 67/54/269 49/116/270 48/117/271
f 69/52/272 68/51/273 48/117/274 47/118/275
f 70/78/276 69/80/277 47/119/278 61/120/279
f 71/76/280 70/78/281 61/120/282 60/121/283
f 72/74/284 71/76/285 60/121/286 59/122/287
f 73/72/288 72/74/289 59/122/290 58/123/291
f 74/70/292 73/72/293 58/123/294 57/124/295
f 75/68/296 74/70/297 57/124/298 56/125/299
f 76/66/300 75/68/301 56/125/302 55/126/303
f 77/64/304 76/66/305 55/126/306 54/127/307
f 78/62/308 77/64/309 54/127/310 53/128/311
f 64/60/312 78/62/313 53/128/314 52/113/315
