# This file uses centimeters as units for non-parametric coordinates.

mtllib chair_Arm_2.mtl
v 0.327702 -0.112962 6.894919
v 0.327702 -0.112962 -0.504350
v 0.327702 0.112962 6.894919
v 0.327702 0.112962 -0.504350
v -0.327702 0.112962 6.894919
v -0.327702 0.112962 -0.504350
v -0.327702 -0.112962 6.894919
v -0.327702 -0.112962 -0.504350
v -0.327702 0.112962 0.204978
v -0.327702 -0.112962 0.204978
v 0.327702 -0.112962 0.204978
v 0.327702 0.112962 0.204978
v 0.168857 0.112962 7.109295
v 0.109234 0.112962 0.204978
v 0.109234 0.112962 -0.504350
v 0.109234 -0.112962 -0.504350
v 0.109234 -0.112962 0.204978
v 0.168857 -0.112962 7.109295
v -0.168857 0.112962 7.109295
v -0.109234 0.112962 0.204978
v -0.109234 0.112962 -0.504350
v -0.109234 -0.112962 -0.504350
v -0.109234 -0.112962 0.204978
v -0.168857 -0.112962 7.109295
vt 0.375000 0.000000
vt 0.601034 0.000000
vt 0.601034 0.250000
vt 0.375000 0.250000
vt 0.375000 0.416667
vt 0.601034 0.416667
vt 0.601034 0.500000
vt 0.375000 0.500000
vt 0.601034 0.750000
vt 0.375000 0.750000
vt 0.601034 0.833333
vt 0.375000 0.833333
vt 0.791667 0.000000
vt 0.875000 0.000000
vt 0.875000 0.250000
vt 0.791667 0.250000
vt 0.125000 0.000000
vt 0.208333 0.000000
vt 0.208333 0.250000
vt 0.125000 0.250000
vt 0.625000 0.500000
vt 0.625000 0.750000
vt 0.625000 0.833333
vt 0.625000 0.000000
vt 0.625000 0.250000
vt 0.625000 0.416667
vt 0.601034 0.333333
vt 0.375000 0.333333
vt 0.625000 0.333333
vt 0.708333 0.000000
vt 0.708333 0.250000
vt 0.601034 1.000000
vt 0.601034 0.916667
vt 0.625000 0.916667
vt 0.625000 1.000000
vt 0.375000 0.916667
vt 0.375000 1.000000
vt 0.291667 0.250000
vt 0.291667 0.000000
vn 1.000000 0.000000 0.000000
vn 1.000000 0.000000 0.000000
vn 1.000000 0.000000 0.000000
vn 1.000000 0.000000 0.000000
vn 0.000000 1.000000 0.000000
vn 0.000000 1.000000 0.000000
vn 0.000000 1.000000 0.000000
vn 0.000000 1.000000 0.000000
vn -1.000000 0.000000 0.000000
vn -1.000000 0.000000 0.000000
vn -1.000000 0.000000 0.000000
vn -1.000000 0.000000 0.000000
vn 0.000000 -1.000000 0.000000
vn 0.000000 -1.000000 0.000000
vn 0.000000 -1.000000 0.000000
vn 0.000000 -1.000000 0.000000
vn 0.000000 0.000000 -1.000000
vn 0.000000 0.000000 -1.000000
vn 0.000000 0.000000 -1.000000
vn 0.000000 0.000000 -1.000000
vn 0.000000 0.000000 1.000000
vn -0.396363 0.000000 0.918094
vn -0.396363 0.000000 0.918094
vn 0.000000 0.000000 1.000000
vn -1.000000 0.000000 0.000000
vn -1.000000 0.000000 0.000000
vn -1.000000 0.000000 0.000000
vn -1.000000 0.000000 0.000000
vn 0.000000 -1.000000 0.000000
vn 0.000000 -1.000000 0.000000
vn 0.000000 -1.000000 0.000000
vn 0.000000 -1.000000 0.000000
vn 1.000000 0.000000 0.000000
vn 1.000000 0.000000 0.000000
vn 1.000000 0.000000 0.000000
vn 1.000000 0.000000 0.000000
vn 0.000000 1.000000 0.000000
vn 0.000000 1.000000 0.000000
vn 0.000000 1.000000 0.000000
vn 0.000000 1.000000 0.000000
vn 0.000000 1.000000 0.000000
vn 0.000000 1.000000 0.000000
vn 0.000000 1.000000 0.000000
vn 0.000000 1.000000 0.000000
vn 0.000000 1.000000 0.000000
vn 0.000000 1.000000 0.000000
vn 0.000000 1.000000 0.000000
vn 0.000000 1.000000 0.000000
vn 0.000000 0.000000 -1.000000
vn 0.000000 0.000000 -1.000000
vn 0.000000 0.000000 -1.000000
vn 0.000000 0.000000 -1.000000
vn 0.000000 -1.000000 0.000000
vn 0.000000 -1.000000 0.000000
vn 0.000000 -1.000000 0.000000
vn 0.000000 -1.000000 0.000000
vn 0.000000 -1.000000 0.000000
vn 0.000000 -1.000000 0.000000
vn 0.000000 -1.000000 0.000000
vn 0.000000 -1.000000 0.000000
vn 0.396363 0.000000 0.918094
vn 0.396363 0.000000 0.918094
vn 0.000000 0.000000 1.000000
vn 0.000000 0.000000 1.000000
vn 0.000000 1.000000 0.000000
vn 0.000000 1.000000 0.000000
vn 0.000000 1.000000 0.000000
vn 0.000000 1.000000 0.000000
vn 0.000000 1.000000 0.000000
vn 0.000000 1.000000 0.000000
vn 0.000000 1.000000 0.000000
vn 0.000000 1.000000 0.000000
vn 0.000000 0.000000 -1.000000
vn 0.000000 0.000000 -1.000000
vn 0.000000 0.000000 -1.000000
vn 0.000000 0.000000 -1.000000
vn 0.000000 -1.000000 0.000000
vn 0.000000 -1.000000 0.000000
vn 0.000000 -1.000000 0.000000
vn 0.000000 -1.000000 0.000000
vn 0.000000 -1.000000 0.000000
vn 0.000000 -1.000000 0.000000
vn 0.000000 -1.000000 0.000000
vn 0.000000 -1.000000 0.000000
vn -0.396363 0.000000 0.918094
vn -0.396363 0.000000 0.918094
vn 0.396363 0.000000 0.918094
vn 0.396363 0.000000 0.918094
s off
usemtl initialShadingGroup
f 1/1/1 11/2/2 12/3/3 3/4/4
f 19/5/5 20/6/6 9/7/7 5/8/8
f 5/8/9 9/7/10 10/9/11 7/10/12
f 7/10/13 10/9/14 23/11/15 24/12/16
f 22/13/17 8/14/18 6/15/19 21/16/20
f 7/17/21 24/18/22 19/19/23 5/20/24
f 9/7/25 6/21/26 8/22/27 10/9/28
f 23/11/29 10/9/30 8/22/31 22/23/32
f 12/3/33 11/2/34 2/24/35 4/25/36
f 9/7/37 20/6/38 21/26/39 6/21/40
f 3/4/41 12/3/42 14/27/43 13/28/44
f 15/29/45 14/27/46 12/3/47 4/25/48
f 2/24/49 16/30/50 15/31/51 4/25/52
f 11/32/53 17/33/54 16/34/55 2/35/56
f 18/36/57 17/33/58 11/32/59 1/37/60
f 13/38/61 18/39/62 1/1/63 3/4/64
f 13/28/65 14/27/66 20/6/67 19/5/68
f 21/26/69 20/6/70 14/27/71 15/29/72
f 16/30/73 22/13/74 21/16/75 15/31/76
f 17/33/77 23/11/78 22/23/79 16/34/80
f 24/12/81 23/11/82 17/33/83 18/36/84
f 19/19/85 24/18/86 18/39/87 13/38/88
