# This file uses centimeters as units for non-parametric coordinates.

g default
v -3.735448 -0.212348 -4.018935
v -3.693221 -0.212348 1.529781
v -2.826669 -0.212348 2.826668
v -1.529783 -0.212348 3.693220
v -0.000001 -0.212348 3.997513
v 1.529781 -0.212348 3.693220
v 2.826668 -0.212348 2.826669
v 3.693220 -0.212348 1.529782
v 3.735448 -0.212348 -4.018935
v -3.735448 0.212348 -4.018935
v -3.693221 0.212348 1.529781
v -2.826669 0.212348 2.826668
v -1.529783 0.212348 3.693220
v -0.000001 0.212348 3.997513
v 1.529781 0.212348 3.693220
v 2.826668 0.212348 2.826669
v 3.693220 0.212348 1.529782
v 3.735448 0.212348 -4.018935
v 0.000000 -0.212348 0.000000
v 0.000000 0.212348 0.000000
v -3.375922 -0.006207 -2.603885
v -3.337759 -0.006207 1.623322
v -2.554610 -0.006207 2.611336
v -1.382545 -0.006207 3.271506
v -0.000001 -0.006207 3.503327
v 1.382544 -0.006207 3.271506
v 2.554609 -0.006207 2.611337
v 3.337758 -0.006207 1.623323
v 3.375922 -0.006207 -2.603885
v -3.054189 0.399375 -2.735695
v -3.019663 0.399375 1.088650
v -2.311150 0.399375 1.982504
v -1.250786 0.399375 2.579759
v 0.000000 0.399375 2.789487
v 1.250785 0.399375 2.579759
v 2.311149 0.399375 1.982505
v 3.019663 0.399375 1.088651
v 3.054189 0.399375 -2.735695
v 0.000000 0.399375 0.034278
vt 1.933791 0.615987
vt 2.075428 2.102740
vt 0.971800 1.018461
vt 1.761653 0.215276
vt 1.490033 -0.108200
vt 0.969468 -0.097123
vt 0.448860 -0.106024
vt 0.178596 0.218586
vt 0.008135 0.620013
vt -0.126980 2.107345
vt 2.037148 2.223639
vt 2.028436 3.874954
vt 0.976867 3.441954
vt 1.782688 4.244412
vt 1.414261 4.491703
vt 0.979245 4.579179
vt 0.543867 4.493524
vt 0.174408 4.247775
vt -0.072883 3.879348
vt -0.088196 2.228083
vt 3.098010 3.557506
vt 3.176322 2.300694
vt 4.057242 2.610883
vt 3.393619 2.060651
vt 3.700804 1.901407
vt 4.057242 1.845637
vt 4.413679 1.901407
vt 4.720863 2.060651
vt 4.938159 2.300694
vt 5.016473 3.557507
vt 1.963930 0.624501
vt 2.308956 2.092126
vt 1.866945 0.191505
vt 1.591472 -0.219359
vt -0.360551 2.097708
vt -0.021969 0.628653
vt 0.073205 0.195255
vt 0.346958 -0.216758
vt 3.059349 2.101795
vt 3.316927 1.852209
vt 3.662582 1.687978
vt 2.897081 3.690133
vt 4.057241 1.630637
vt 4.451900 1.687978
vt 4.797556 1.852209
vt 5.055133 2.101795
vt 5.217402 3.690133
vt 0.969261 -0.196301
vn -0.598426 0.000000 -0.801178
vn -0.991303 0.000000 0.131599
vn -0.991303 0.000000 0.131599
vn -0.598426 0.000000 -0.801178
vn -0.991303 0.000000 0.131599
vn -0.707107 0.000000 0.707107
vn -0.707107 0.000000 0.707107
vn -0.991303 0.000000 0.131599
vn -0.707107 0.000000 0.707107
vn -0.382684 0.000000 0.923879
vn -0.382684 0.000000 0.923879
vn -0.707107 0.000000 0.707107
vn -0.382684 0.000000 0.923879
vn 0.000000 0.000000 1.000000
vn 0.000000 0.000000 1.000000
vn -0.382684 0.000000 0.923879
vn 0.000000 0.000000 1.000000
vn 0.382683 0.000000 0.923880
vn 0.382683 0.000000 0.923880
vn 0.000000 0.000000 1.000000
vn 0.382683 0.000000 0.923880
vn 0.707107 0.000000 0.707107
vn 0.707107 0.000000 0.707107
vn 0.382683 0.000000 0.923880
vn 0.707107 0.000000 0.707107
vn 0.991303 0.000000 0.131599
vn 0.991303 0.000000 0.131599
vn 0.707107 0.000000 0.707107
vn 0.991303 0.000000 0.131599
vn 0.598426 0.000000 -0.801178
vn 0.598426 0.000000 -0.801178
vn 0.991303 0.000000 0.131599
vn 0.598426 0.000000 -0.801178
vn 0.598426 0.000000 -0.801178
vn -0.598426 0.000000 -0.801178
vn -0.598426 0.000000 -0.801178
vn 0.000000 -1.000000 0.000000
vn 0.000000 -1.000000 0.000000
vn 0.000000 -1.000000 0.000000
vn 0.000000 -1.000000 0.000000
vn 0.000000 -1.000000 0.000000
vn 0.000000 -1.000000 0.000000
vn 0.000000 -1.000000 0.000000
vn 0.000000 -1.000000 0.000000
vn 0.000000 -1.000000 0.000000
vn 0.000000 -1.000000 0.000000
vn 0.000000 -1.000000 0.000000
vn 0.000000 -1.000000 0.000000
vn 0.000000 -1.000000 0.000000
vn 0.000000 -1.000000 0.000000
vn 0.000000 -1.000000 0.000000
vn 0.000000 -1.000000 0.000000
vn 0.000000 -1.000000 0.000000
vn 0.000000 -1.000000 0.000000
vn 0.000000 -1.000000 0.000000
vn 0.000000 -1.000000 0.000000
vn 0.000000 -1.000000 0.000000
vn 0.000000 -1.000000 0.000000
vn 0.000000 -1.000000 0.000000
vn 0.000000 -1.000000 0.000000
vn 0.000000 -1.000000 0.000000
vn 0.000000 -1.000000 0.000000
vn 0.000000 -1.000000 0.000000
vn 0.000000 1.000000 0.000000
vn 0.000000 1.000000 0.000000
vn 0.000000 1.000000 0.000000
vn 0.000000 1.000000 0.000000
vn 0.000000 1.000000 0.000000
vn 0.000000 1.000000 0.000000
vn 0.000000 1.000000 0.000000
vn 0.000000 1.000000 0.000000
vn 0.000000 1.000000 0.000000
vn 0.000000 1.000000 0.000000
vn 0.000000 1.000000 0.000000
vn 0.000000 1.000000 0.000000
vn 0.000000 1.000000 0.000000
vn 0.000000 1.000000 0.000000
vn 0.000000 1.000000 0.000000
vn 0.000000 1.000000 0.000000
vn 0.000000 1.000000 0.000000
vn 0.000000 1.000000 0.000000
vn 0.000000 1.000000 0.000000
vn 0.000000 1.000000 0.000000
vn 0.000000 1.000000 0.000000
vn 0.000000 1.000000 0.000000
vn 0.000000 1.000000 0.000000
vn 0.000000 1.000000 0.000000
vn 0.000000 1.000000 0.000000
vn 0.000000 1.000000 0.000000
vn 0.000000 1.000000 0.000000
vn -0.782298 0.622864 0.007063
vn -0.782298 0.622864 0.007063
vn -0.782298 0.622864 0.007063
vn -0.782298 0.622864 0.007063
vn -0.699762 0.704542 0.118126
vn -0.342751 0.844325 0.411870
vn -0.348956 0.843278 0.408793
vn -0.710958 0.695420 0.104546
vn -0.342751 0.844325 0.411870
vn -0.164368 0.864265 0.475425
vn -0.167356 0.864068 0.474740
vn -0.348956 0.843278 0.408793
vn -0.164368 0.864265 0.475425
vn 0.000000 0.869461 0.494002
vn 0.000000 0.869461 0.494002
vn -0.167356 0.864068 0.474740
vn 0.000000 0.869461 0.494002
vn 0.164368 0.864265 0.475425
vn 0.167356 0.864068 0.474740
vn 0.000000 0.869461 0.494002
vn 0.164368 0.864265 0.475425
vn 0.342751 0.844325 0.411871
vn 0.348955 0.843278 0.408794
vn 0.167356 0.864068 0.474740
vn 0.342751 0.844325 0.411871
vn 0.699762 0.704542 0.118126
vn 0.710958 0.695420 0.104546
vn 0.348955 0.843278 0.408794
vn 0.699762 0.704542 0.118126
vn 0.542517 0.162509 -0.824176
vn 0.511807 0.130014 -0.849205
vn 0.710958 0.695420 0.104546
vn 0.511807 0.130014 -0.849205
vn 0.542517 0.162509 -0.824176
vn -0.542517 0.162509 -0.824176
vn -0.511807 0.130014 -0.849205
vn 0.000000 1.000000 0.000000
vn 0.000000 1.000000 0.000000
vn 0.000000 1.000000 0.000000
vn 0.000000 1.000000 0.000000
vn 0.000000 1.000000 0.000000
vn 0.000000 1.000000 0.000000
vn 0.000000 1.000000 0.000000
vn 0.000000 1.000000 0.000000
vn 0.000000 1.000000 0.000000
vn 0.000000 1.000000 0.000000
vn 0.000000 1.000000 0.000000
vn 0.000000 1.000000 0.000000
vn 0.000000 1.000000 0.000000
vn 0.000000 1.000000 0.000000
vn 0.000000 1.000000 0.000000
vn 0.000000 1.000000 0.000000
vn 0.000000 1.000000 0.000000
vn 0.000000 1.000000 0.000000
vn 0.000000 1.000000 0.000000
vn 0.000000 1.000000 0.000000
vn 0.000000 1.000000 0.000000
vn 0.000000 1.000000 0.000000
vn 0.000000 1.000000 0.000000
vn 0.000000 1.000000 0.000000
vn 0.000000 1.000000 0.000000
vn 0.000000 1.000000 0.000000
vn 0.000000 1.000000 0.000000
s off
g ghost_Mesh
f 1/2/1 2/1/2 11/31/3 10/32/4
f 2/1/5 3/4/6 12/33/7 11/31/8
f 3/4/9 4/5/10 13/34/11 12/33/12
f 4/5/13 5/6/14 14/48/15 13/34/16
f 5/6/17 6/7/18 15/38/19 14/48/20
f 6/7/21 7/8/22 16/37/23 15/38/24
f 7/8/25 8/9/26 17/36/27 16/37/28
f 8/9/29 9/10/30 18/35/31 17/36/32
f 18/20/33 9/10/34 1/2/35 10/11/36
f 2/1/37 1/2/38 19/3/39
f 3/4/40 2/1/41 19/3/42
f 4/5/43 3/4/44 19/3/45
f 5/6/46 4/5/47 19/3/48
f 6/7/49 5/6/50 19/3/51
f 7/8/52 6/7/53 19/3/54
f 8/9/55 7/8/56 19/3/57
f 9/10/58 8/9/59 19/3/60
f 1/2/61 9/10/62 19/3/63
f 10/11/64 11/12/65 20/13/66
f 11/12/67 12/14/68 20/13/69
f 12/14/70 13/15/71 20/13/72
f 13/15/73 14/16/74 20/13/75
f 14/16/76 15/17/77 20/13/78
f 15/17/79 16/18/80 20/13/81
f 16/18/82 17/19/83 20/13/84
f 17/19/85 18/20/86 20/13/87
f 20/13/88 18/20/89 10/11/90
f 21/42/91 22/39/92 31/22/93 30/21/94
f 22/39/95 23/40/96 32/24/97 31/22/98
f 23/40/99 24/41/100 33/25/101 32/24/102
f 24/41/103 25/43/104 34/26/105 33/25/106
f 25/43/107 26/44/108 35/27/109 34/26/110
f 26/44/111 27/45/112 36/28/113 35/27/114
f 27/45/115 28/46/116 37/29/117 36/28/118
f 28/46/119 29/47/120 38/30/121 37/29/122
f 38/30/123 29/47/124 21/42/125 30/21/126
f 30/21/127 31/22/128 39/23/129
f 31/22/130 32/24/131 39/23/132
f 32/24/133 33/25/134 39/23/135
f 33/25/136 34/26/137 39/23/138
f 34/26/139 35/27/140 39/23/141
f 35/27/142 36/28/143 39/23/144
f 36/28/145 37/29/146 39/23/147
f 37/29/148 38/30/149 39/23/150
f 39/23/151 38/30/152 30/21/153
