# This file uses centimeters as units for non-parametric coordinates.

mtllib chair_Seat_3.mtl
v -3.708042 -0.290332 3.250205
v 3.708042 -0.290332 3.250205
v -3.708042 0.290332 3.250205
v 3.708042 0.290332 3.250205
v -3.708042 0.290345 -3.026015
v 3.708042 0.290345 -3.026015
v -3.708042 -0.290311 -3.029101
v 3.708042 -0.290311 -3.029101
v -3.708042 -1.192493 4.208030
v 3.708042 -1.192493 4.208030
v 3.708042 -1.200444 4.788640
v -3.708042 -1.200444 4.788640
v 3.708042 1.248380 -3.908654
v -3.708042 1.248380 -3.908654
v 3.708042 1.292794 -4.487617
v -3.708042 1.292794 -4.487617
v -3.708042 0.888595 -3.862095
v -3.708042 0.698268 -4.410681
v 3.708042 0.698268 -4.410681
v 3.708042 0.888595 -3.862095
v -3.708042 0.577283 -3.675822
v -3.708042 0.183840 -4.102874
v 3.708042 0.183840 -4.102874
v 3.708042 0.577283 -3.675822
v -3.708042 0.366173 -3.380787
v -3.708042 -0.165009 -3.615344
v 3.708042 -0.165009 -3.615344
v 3.708042 0.366173 -3.380787
v -3.708042 -0.611926 4.674502
v 3.708042 -0.611926 4.674502
v 3.708042 -0.836344 4.138958
v -3.708042 -0.836344 4.138958
v -3.708042 -0.117854 4.334982
v 3.708042 -0.117854 4.334982
v 3.708042 -0.537351 3.933494
v -3.708042 -0.537351 3.933494
v -3.708042 0.199675 3.826498
v 3.708042 0.199675 3.826498
v 3.708042 -0.345194 3.625778
v -3.708042 -0.345194 3.625778
vt 0.301490 0.167415
vt 0.302163 0.365305
vt 0.286367 0.365230
vt 0.285922 0.167787
vt 0.223806 0.170986
vt 0.222894 0.362718
vt 0.062233 0.377377
vt 0.048626 0.166392
vt 0.590630 0.163634
vt 0.592365 0.363605
vt 0.576682 0.363751
vt 0.574950 0.163784
vt 0.510215 0.164448
vt 0.511895 0.364312
vt 0.342035 0.365377
vt 0.340906 0.166593
vt 0.227795 0.377603
vt 0.067374 0.392247
vt 0.052285 0.150905
vt 0.227713 0.155713
vt 0.331733 0.365372
vt 0.330707 0.166792
vt 0.238259 0.361485
vt 0.240665 0.376074
vt 0.239023 0.171975
vt 0.240866 0.157198
vt 0.052355 0.378533
vt 0.038751 0.166220
vt 0.055468 0.394310
vt 0.526395 0.164275
vt 0.528096 0.364179
vt 0.039100 0.149867
vt 0.013228 0.153430
vt 0.019057 0.167977
vt 0.009450 0.169924
vt 0.000088 0.159084
vt 0.560489 0.363898
vt 0.558762 0.163943
vt 0.032466 0.378959
vt 0.029277 0.394967
vt 0.014446 0.390968
vt 0.022645 0.378015
vt 0.026150 0.150896
vt 0.028865 0.166773
vt 0.544294 0.364041
vt 0.542578 0.164107
vt 0.042409 0.379071
vt 0.042865 0.395308
vt 0.270234 0.362630
vt 0.270356 0.170568
vt 0.265585 0.377493
vt 0.276069 0.380548
vt 0.311224 0.167197
vt 0.312025 0.365338
vt 0.265629 0.156292
vt 0.275748 0.153429
vt 0.254192 0.361453
vt 0.254700 0.171871
vt 0.253371 0.376203
vt 0.320963 0.166990
vt 0.321881 0.365359
vt 0.253547 0.157296
vn 0.000000 -0.999906 -0.013693
vn 0.000000 -0.999906 -0.013693
vn 0.000000 -0.999906 -0.013693
vn 0.000000 -0.999906 -0.013693
vn 0.000000 0.999913 0.013230
vn 0.000000 0.999913 0.013230
vn 0.000000 0.999935 0.011437
vn 0.000000 0.999935 0.011437
vn 0.000000 0.997070 0.076489
vn 0.000000 0.997070 0.076489
vn 0.000000 0.997070 0.076489
vn 0.000000 0.997070 0.076489
vn 0.000000 -0.999833 -0.018251
vn 0.000000 -0.999833 -0.018251
vn 0.000000 -0.999966 -0.008247
vn 0.000000 -0.999966 -0.008247
vn 1.000000 0.000000 0.000000
vn 1.000000 -0.000000 0.000000
vn 1.000000 -0.000000 0.000000
vn 1.000000 0.000000 0.000000
vn -1.000000 0.000000 0.000000
vn -1.000000 0.000000 0.000000
vn -1.000000 0.000000 0.000000
vn -1.000000 0.000000 0.000000
vn 0.000000 -0.999966 -0.008247
vn 0.000000 -0.999966 -0.008247
vn 0.000000 -0.940433 -0.339980
vn 0.000000 -0.940433 -0.339980
vn 1.000000 0.000000 0.000000
vn 1.000000 0.000000 0.000000
vn 1.000000 0.000000 0.000000
vn 1.000000 0.000000 0.000000
vn 0.000000 0.999913 0.013230
vn 0.000000 0.999913 0.013230
vn 0.000000 0.935933 0.352178
vn 0.000000 0.935933 0.352178
vn -1.000000 0.000000 0.000000
vn -1.000000 0.000000 0.000000
vn -1.000000 0.000000 0.000000
vn -1.000000 0.000000 0.000000
vn 0.000000 0.999935 0.011437
vn 0.000000 0.999935 0.011437
vn 0.000000 0.914783 0.403945
vn 0.000000 0.914783 0.403945
vn 1.000000 -0.000000 0.000000
vn 1.000000 -0.000000 0.000000
vn 1.000000 -0.000000 0.000000
vn 1.000000 -0.000000 0.000000
vn 0.000000 -0.999833 -0.018251
vn 0.000000 -0.999833 -0.018251
vn 0.000000 -0.914783 -0.403945
vn 0.000000 -0.914783 -0.403945
vn -1.000000 0.000000 0.000000
vn -1.000000 0.000000 0.000000
vn -1.000000 0.000000 0.000000
vn -1.000000 0.000000 0.000000
vn -1.000000 0.000000 0.000000
vn -1.000000 0.000000 0.000000
vn -1.000000 0.000000 0.000000
vn -1.000000 0.000000 0.000000
vn 0.000000 -0.327776 -0.944756
vn 0.000000 -0.327776 -0.944756
vn 0.000000 -0.128338 -0.991731
vn 0.000000 -0.128338 -0.991731
vn 1.000000 -0.000000 0.000000
vn 1.000000 -0.000000 0.000000
vn 1.000000 0.000000 0.000000
vn 1.000000 0.000000 0.000000
vn 0.000000 0.327776 0.944756
vn 0.000000 0.327776 0.944756
vn 0.000000 0.128337 0.991731
vn 0.000000 0.128337 0.991731
vn -1.000000 0.000000 0.000000
vn -1.000000 0.000000 0.000000
vn -1.000000 0.000000 0.000000
vn -1.000000 0.000000 0.000000
vn 0.000000 -0.677574 -0.735455
vn 0.000000 -0.677574 -0.735455
vn 0.000000 -0.327776 -0.944756
vn 0.000000 -0.327776 -0.944756
vn 1.000000 -0.000000 0.000000
vn 1.000000 -0.000000 0.000000
vn 1.000000 -0.000000 0.000000
vn 1.000000 -0.000000 0.000000
vn 0.000000 0.677575 0.735454
vn 0.000000 0.677575 0.735454
vn 0.000000 0.327776 0.944756
vn 0.000000 0.327776 0.944756
vn -1.000000 0.000000 0.000000
vn -1.000000 0.000000 0.000000
vn -1.000000 0.000000 0.000000
vn -1.000000 0.000000 0.000000
vn 0.000000 -0.914783 -0.403945
vn 0.000000 -0.914783 -0.403945
vn 0.000000 -0.677574 -0.735455
vn 0.000000 -0.677574 -0.735455
vn 1.000000 -0.000000 0.000000
vn 1.000000 -0.000000 0.000000
vn 1.000000 -0.000000 0.000000
vn 1.000000 -0.000000 0.000000
vn 0.000000 0.914783 0.403945
vn 0.000000 0.914783 0.403945
vn 0.000000 0.677575 0.735454
vn 0.000000 0.677575 0.735454
vn 0.000000 0.386487 0.922295
vn 0.000000 0.386487 0.922295
vn 0.000000 0.190394 0.981708
vn 0.000000 0.190394 0.981708
vn 1.000000 0.000000 0.000000
vn 1.000000 0.000000 0.000000
vn 1.000000 -0.000000 0.000000
vn 1.000000 -0.000000 0.000000
vn 0.000000 -0.386486 -0.922295
vn 0.000000 -0.386486 -0.922295
vn 0.000000 -0.190394 -0.981708
vn 0.000000 -0.190394 -0.981708
vn -1.000000 0.000000 0.000000
vn -1.000000 0.000000 0.000000
vn -1.000000 0.000000 0.000000
vn -1.000000 0.000000 0.000000
vn 0.000000 0.722443 0.691430
vn 0.000000 0.722443 0.691430
vn 0.000000 0.386487 0.922295
vn 0.000000 0.386487 0.922295
vn 1.000000 0.000001 0.000000
vn 1.000000 0.000001 0.000000
vn 1.000000 0.000000 0.000000
vn 1.000000 0.000000 0.000000
vn 0.000000 -0.722443 -0.691430
vn 0.000000 -0.722443 -0.691430
vn 0.000000 -0.386486 -0.922295
vn 0.000000 -0.386486 -0.922295
vn -1.000000 0.000000 0.000000
vn -1.000000 0.000000 0.000000
vn -1.000000 0.000000 0.000000
vn -1.000000 0.000000 0.000000
vn 0.000000 0.935933 0.352178
vn 0.000000 0.935933 0.352178
vn 0.000000 0.722443 0.691430
vn 0.000000 0.722443 0.691430
vn 1.000000 0.000000 0.000000
vn 1.000000 0.000000 0.000000
vn 1.000000 0.000001 0.000000
vn 1.000000 0.000001 0.000000
vn 0.000000 -0.940433 -0.339980
vn 0.000000 -0.940433 -0.339980
vn 0.000000 -0.722443 -0.691430
vn 0.000000 -0.722443 -0.691430
vn -1.000000 0.000000 0.000000
vn -1.000000 0.000000 0.000000
vn -1.000000 0.000000 0.000000
vn -1.000000 0.000000 0.000000
s off
usemtl initialShadingGroup
f 9/1/1 10/2/2 11/3/3 12/4/4
f 3/5/5 4/6/6 6/7/7 5/8/8
f 14/9/9 13/10/10 15/11/11 16/12/12
f 7/13/13 8/14/14 2/15/15 1/16/16
f 2/17/17 8/18/18 6/7/19 4/6/20
f 7/19/21 1/20/22 3/5/23 5/8/24
f 1/16/25 2/15/26 39/21/27 40/22/28
f 2/17/29 4/6/30 38/23/31 39/24/32
f 4/6/33 3/5/34 37/25/35 38/23/36
f 3/5/37 1/20/38 40/26/39 37/25/40
f 5/8/41 6/7/42 28/27/43 25/28/44
f 6/7/45 8/18/46 27/29/47 28/27/48
f 8/14/49 7/13/50 26/30/51 27/31/52
f 7/19/53 5/8/54 25/28/55 26/32/56
f 18/33/57 17/34/58 14/35/59 16/36/60
f 19/37/61 18/38/62 16/12/63 15/11/64
f 20/39/65 19/40/66 15/41/67 13/42/68
f 17/34/69 20/39/70 13/42/71 14/35/72
f 22/43/73 21/44/74 17/34/75 18/33/76
f 23/45/77 22/46/78 18/38/79 19/37/80
f 24/47/81 23/48/82 19/40/83 20/39/84
f 21/44/85 24/47/86 20/39/87 17/34/88
f 26/32/89 25/28/90 21/44/91 22/43/92
f 27/31/93 26/30/94 22/46/95 23/45/96
f 28/27/97 27/29/98 23/48/99 24/47/100
f 25/28/101 28/27/102 24/47/103 21/44/104
f 30/49/105 29/50/106 12/4/107 11/3/108
f 31/51/109 30/49/110 11/3/111 10/52/112
f 32/53/113 31/54/114 10/2/115 9/1/116
f 29/50/117 32/55/118 9/56/119 12/4/120
f 34/57/121 33/58/122 29/50/123 30/49/124
f 35/59/125 34/57/126 30/49/127 31/51/128
f 36/60/129 35/61/130 31/54/131 32/53/132
f 33/58/133 36/62/134 32/55/135 29/50/136
f 38/23/137 37/25/138 33/58/139 34/57/140
f 39/24/141 38/23/142 34/57/143 35/59/144
f 40/22/145 39/21/146 35/61/147 36/60/148
f 37/25/149 40/26/150 36/62/151 33/58/152
