# This file uses centimeters as units for non-parametric coordinates.

mtllib chair_Arm_1.mtl
v 0.327702 -0.327702 7.340735
v 0.327702 -0.327702 -0.504350
v 0.327702 0.327702 7.340735
v 0.327702 0.327702 -0.504350
v -0.327702 0.327702 7.340735
v -0.327702 0.327702 -0.504350
v -0.327702 -0.327702 7.340735
v -0.327702 -0.327702 -0.504350
v -0.327702 0.327702 0.247716
v -0.327702 -0.327702 0.247716
v 0.327702 -0.327702 0.247716
v 0.327702 0.327702 0.247716
vt 0.375000 0.000000
vt 0.601034 0.000000
vt 0.601034 0.250000
vt 0.375000 0.250000
vt 0.601034 0.500000
vt 0.375000 0.500000
vt 0.601034 0.750000
vt 0.375000 0.750000
vt 0.601034 1.000000
vt 0.375000 1.000000
vt 0.625000 0.000000
vt 0.875000 0.000000
vt 0.875000 0.250000
vt 0.625000 0.250000
vt 0.125000 0.000000
vt 0.125000 0.250000
vt 0.625000 0.500000
vt 0.625000 0.750000
vt 0.625000 1.000000
vn 1.000000 0.000000 0.000000
vn 1.000000 0.000000 0.000000
vn 1.000000 0.000000 0.000000
vn 1.000000 0.000000 0.000000
vn 0.000000 1.000000 0.000000
vn 0.000000 1.000000 0.000000
vn 0.000000 1.000000 0.000000
vn 0.000000 1.000000 0.000000
vn -1.000000 0.000000 -0.000000
vn -1.000000 0.000000 -0.000000
vn -1.000000 0.000000 -0.000000
vn -1.000000 0.000000 -0.000000
vn 0.000000 -1.000000 0.000000
vn 0.000000 -1.000000 0.000000
vn 0.000000 -1.000000 0.000000
vn 0.000000 -1.000000 0.000000
vn 0.000000 0.000000 -1.000000
vn 0.000000 0.000000 -1.000000
vn 0.000000 0.000000 -1.000000
vn 0.000000 0.000000 -1.000000
vn 0.000000 0.000000 1.000000
vn 0.000000 0.000000 1.000000
vn 0.000000 0.000000 1.000000
vn 0.000000 0.000000 1.000000
vn -1.000000 0.000000 -0.000000
vn -1.000000 0.000000 -0.000000
vn -1.000000 0.000000 -0.000000
vn -1.000000 0.000000 -0.000000
vn 0.000000 -1.000000 0.000000
vn 0.000000 -1.000000 0.000000
vn 0.000000 -1.000000 0.000000
vn 0.000000 -1.000000 0.000000
vn 1.000000 0.000000 0.000000
vn 1.000000 0.000000 0.000000
vn 1.000000 0.000000 0.000000
vn 1.000000 0.000000 0.000000
vn 0.000000 1.000000 0.000000
vn 0.000000 1.000000 0.000000
vn 0.000000 1.000000 0.000000
vn 0.000000 1.000000 0.000000
s off
usemtl initialShadingGroup
f 1/1/1 11/2/2 12/3/3 3/4/4
f 3/4/5 12/3/6 9/5/7 5/6/8
f 5/6/9 9/5/10 10/7/11 7/8/12
f 7/8/13 10/7/14 11/9/15 1/10/16
f 2/11/17 8/12/18 6/13/19 4/14/20
f 7/15/21 1/1/22 3/4/23 5/16/24
f 9/5/25 6/17/26 8/18/27 10/7/28
f 11/9/29 10/7/30 8/18/31 2/19/32
f 12/3/33 11/2/34 2/11/35 4/14/36
f 9/5/37 12/3/38 4/14/39 6/17/40
