# This file uses centimeters as units for non-parametric coordinates.

mtllib chair_Back_5.mtl
v -3.591966 0.000000 0.249357
v 3.591966 0.000000 0.249357
v -3.216977 1.000000 0.249357
v 3.216977 1.000000 0.249357
v -3.545083 1.000000 -0.332631
v 3.545083 1.000000 -0.332631
v -3.591966 0.000000 -0.332631
v 3.591966 0.000000 -0.332631
v -3.216977 12.327606 -1.588959
v 3.216977 12.327606 -1.588959
v 3.545083 12.327606 -2.069642
v -3.545083 12.327606 -2.069642
v 2.367411 12.875526 -2.067943
v 2.608867 12.875526 -2.597478
v 2.608867 1.000000 -0.332631
v 2.565690 0.000000 -0.332631
v 2.565690 0.000000 0.249357
v 2.367411 1.000000 0.249357
v 1.448687 13.273761 -2.395257
v 1.596442 13.273761 -2.958176
v 1.596442 1.000000 -0.332631
v 1.539414 0.000000 -0.332631
v 1.539414 0.000000 0.249357
v 1.448687 1.000000 0.249357
v 0.487644 13.475441 -2.561340
v 0.537380 13.475441 -3.141198
v 0.537380 1.000000 -0.332631
v 0.513138 0.000000 -0.332631
v 0.513138 0.000000 0.249357
v 0.487644 1.000000 0.249357
v -0.487644 13.475441 -2.561340
v -0.537380 13.475441 -3.141198
v -0.537380 1.000000 -0.332631
v -0.513138 0.000000 -0.332631
v -0.513138 0.000000 0.249357
v -0.487644 1.000000 0.249357
v -1.448687 13.273761 -2.395257
v -1.596442 13.273761 -2.958176
v -1.596442 1.000000 -0.332631
v -1.539414 0.000000 -0.332631
v -1.539414 0.000000 0.249357
v -1.448687 1.000000 0.249357
v -2.367411 12.875526 -2.067943
v -2.608867 12.875526 -2.597478
v -2.608867 1.000000 -0.332631
v -2.565690 0.000000 -0.332631
v -2.565690 0.000000 0.249357
v -2.367411 1.000000 0.249357
v -3.216977 8.551737 -0.976187
v -3.545083 8.551737 -1.490638
v -2.608867 8.917017 -1.842530
v -1.596442 9.182507 -2.082995
v -0.537380 9.316960 -2.205009
v 0.537380 9.316960 -2.205009
v 1.596442 9.182507 -2.082995
v 2.608867 8.917017 -1.842530
v 3.545083 8.551737 -1.490638
v 3.216977 8.551737 -0.976187
v 2.367411 8.917017 -1.295510
v 1.448687 9.182507 -1.513719
v 0.487644 9.316960 -1.624441
v -0.487644 9.316960 -1.624441
v -1.448687 9.182507 -1.513719
v -2.367411 8.917017 -1.295510
v -3.216977 4.775868 -0.363415
v -3.545083 4.775868 -0.911635
v -2.608867 4.958508 -1.087580
v -1.596442 5.091253 -1.207813
v -0.537380 5.158480 -1.268820
v 0.537380 5.158480 -1.268820
v 1.596442 5.091253 -1.207813
v 2.608867 4.958508 -1.087580
v 3.545083 4.775868 -0.911635
v 3.216977 4.775868 -0.363415
v 2.367411 4.958508 -0.523076
v 1.448687 5.091253 -0.632181
v 0.487644 5.158480 -0.687542
v -0.487644 5.158480 -0.687542
v -1.448687 5.091253 -0.632181
v -2.367411 4.958508 -0.523076
vt 0.684078 0.044725
vt 0.717990 0.047136
vt 0.722147 0.080417
vt 0.694287 0.078083
vt 0.689097 0.468267
vt 0.721293 0.487859
vt 0.714594 0.516325
vt 0.678615 0.511208
vt 0.694432 0.931633
vt 0.726308 0.932652
vt 0.726065 0.966066
vt 0.691419 0.964465
vt 0.673729 0.038253
vt 0.716746 0.027491
vt 0.921756 0.045117
vt 0.931293 0.038386
vt 0.933719 0.082541
vt 0.911684 0.079065
vt 0.672714 0.081770
vt 0.721952 0.215686
vt 0.693288 0.208121
vt 0.933269 0.210831
vt 0.911812 0.208410
vt 0.691156 0.804429
vt 0.721700 0.800805
vt 0.672480 0.210061
vt 0.883830 0.487087
vt 0.915802 0.467917
vt 0.926570 0.508616
vt 0.890721 0.515306
vt 0.938052 0.923869
vt 0.906645 0.928082
vt 0.900457 0.793088
vt 0.931161 0.795228
vt 0.907865 0.961847
vt 0.943561 0.957606
vt 0.888306 0.046975
vt 0.889078 0.027439
vt 0.883025 0.079802
vt 0.882580 0.214879
vt 0.819053 0.506896
vt 0.851415 0.500151
vt 0.855599 0.515359
vt 0.820594 0.514187
vt 0.872004 0.930751
vt 0.835443 0.932755
vt 0.831183 0.790517
vt 0.863378 0.790438
vt 0.834518 0.966360
vt 0.871255 0.964870
vt 0.820190 0.046208
vt 0.820145 0.027460
vt 0.854611 0.027449
vt 0.854662 0.046497
vt 0.818985 0.078934
vt 0.851607 0.079409
vt 0.818752 0.221605
vt 0.851349 0.219315
vt 0.753971 0.500947
vt 0.786591 0.507096
vt 0.785264 0.514541
vt 0.749933 0.515080
vt 0.797979 0.933638
vt 0.761236 0.933461
vt 0.758397 0.794546
vt 0.792719 0.791108
vt 0.761593 0.966907
vt 0.797810 0.967331
vt 0.751128 0.046703
vt 0.751212 0.027481
vt 0.785679 0.027470
vt 0.785390 0.046252
vt 0.753260 0.079750
vt 0.785772 0.079123
vt 0.753391 0.220773
vt 0.785837 0.221981
vt 0.672239 0.338351
vt 0.692784 0.336478
vt 0.715558 0.662247
vt 0.684331 0.675754
vt 0.751759 0.651078
vt 0.784863 0.646663
vt 0.823413 0.644849
vt 0.857232 0.648399
vt 0.894411 0.656132
vt 0.926524 0.667864
vt 0.912516 0.336854
vt 0.932827 0.339121
vt 0.882822 0.350355
vt 0.851494 0.359662
vt 0.819137 0.364712
vt 0.786406 0.365145
vt 0.754058 0.361448
vt 0.722816 0.350737
vt 0.742271 0.218989
vt 0.742610 0.354327
vt 0.734740 0.365505
vt 0.733872 0.224999
vt 0.804971 0.226199
vt 0.805517 0.369351
vt 0.800054 0.369075
vt 0.799646 0.225922
vt 0.870892 0.223263
vt 0.870835 0.363773
vt 0.863057 0.353896
vt 0.862289 0.218559
vt 0.824266 0.662778
vt 0.785959 0.664731
vt 0.888402 0.673963
vt 0.852000 0.666095
vt 0.758771 0.668153
vt 0.723287 0.679459
vt 0.722066 0.782191
vt 0.758553 0.775792
vt 0.794781 0.771623
vt 0.832484 0.772696
vt 0.861290 0.771573
vt 0.898230 0.774340
vn 0.000000 0.000000 1.000000
vn 0.000000 0.000000 1.000000
vn 0.045528 0.149652 0.987690
vn 0.054754 0.131250 0.989836
vn -0.410649 0.881909 0.231524
vn -0.377725 0.908567 0.178410
vn -0.377821 0.908497 0.178561
vn -0.410648 0.881910 0.231524
vn -0.059663 -0.133390 -0.989266
vn -0.047602 -0.147712 -0.987884
vn 0.000000 0.000000 -1.000000
vn 0.000000 0.000000 -1.000000
vn 0.000000 -1.000000 0.000000
vn 0.000000 -1.000000 0.000000
vn 0.000000 -1.000000 0.000000
vn 0.000000 -1.000000 0.000000
vn 0.943248 0.198965 0.265887
vn 0.943248 0.198965 0.265887
vn 0.882610 0.102284 0.458843
vn 0.883293 0.103104 0.457343
vn -0.943248 0.198965 0.265887
vn -0.943248 0.198965 0.265887
vn -0.883293 0.103104 0.457343
vn -0.882610 0.102284 0.458843
vn 0.054754 0.131250 0.989836
vn 0.045528 0.149652 0.987690
vn 0.113518 0.184700 0.976217
vn 0.134837 0.174682 0.975349
vn 0.883293 0.103104 0.457343
vn 0.882610 0.102284 0.458843
vn 0.854669 0.080931 0.512826
vn 0.855877 0.080621 0.510856
vn -0.047602 -0.147712 -0.987884
vn -0.059663 -0.133390 -0.989266
vn -0.140224 -0.168282 -0.975714
vn -0.116962 -0.179647 -0.976753
vn -0.882610 0.102284 0.458843
vn -0.883293 0.103104 0.457343
vn -0.855877 0.080621 0.510856
vn -0.854669 0.080931 0.512826
vn 0.377725 0.908567 0.178410
vn 0.410648 0.881909 0.231525
vn 0.410649 0.881909 0.231525
vn 0.377821 0.908497 0.178562
vn 0.059663 -0.133390 -0.989266
vn 0.047602 -0.147712 -0.987884
vn 0.116962 -0.179647 -0.976753
vn 0.140224 -0.168282 -0.975714
vn 0.000000 0.000000 -1.000000
vn 0.047602 -0.147712 -0.987884
vn 0.059663 -0.133390 -0.989266
vn 0.000000 0.000000 -1.000000
vn 0.000000 -1.000000 0.000000
vn 0.000000 -1.000000 0.000000
vn 0.000000 -1.000000 0.000000
vn 0.000000 -1.000000 0.000000
vn -0.045528 0.149652 0.987690
vn 0.000000 0.000000 1.000000
vn 0.000000 0.000000 1.000000
vn -0.054754 0.131250 0.989836
vn -0.113518 0.184700 0.976217
vn -0.045528 0.149652 0.987690
vn -0.054754 0.131250 0.989836
vn -0.134837 0.174682 0.975349
vn 0.096424 0.995201 0.016663
vn 0.268628 0.960031 0.078607
vn 0.268831 0.959965 0.078726
vn 0.096523 0.995191 0.016680
vn 0.026574 -0.167408 -0.985530
vn 0.008588 -0.176954 -0.984182
vn 0.028861 -0.216121 -0.975940
vn 0.042656 -0.209547 -0.976868
vn 0.000000 0.000000 -1.000000
vn 0.008588 -0.176954 -0.984182
vn 0.026574 -0.167408 -0.985530
vn 0.000000 0.000000 -1.000000
vn 0.000000 -1.000000 0.000000
vn 0.000000 -1.000000 0.000000
vn 0.000000 -1.000000 0.000000
vn 0.000000 -1.000000 0.000000
vn -0.008219 0.175713 0.984407
vn 0.000000 0.000000 1.000000
vn 0.000000 0.000000 1.000000
vn -0.025414 0.167202 0.985595
vn -0.027934 0.216707 0.975837
vn -0.008219 0.175713 0.984407
vn -0.025414 0.167202 0.985595
vn -0.041133 0.210969 0.976627
vn -0.268628 0.960031 0.078607
vn -0.096424 0.995201 0.016663
vn -0.096523 0.995191 0.016680
vn -0.268831 0.959965 0.078726
vn -0.008588 -0.176954 -0.984182
vn -0.026574 -0.167408 -0.985530
vn -0.042656 -0.209547 -0.976868
vn -0.028861 -0.216121 -0.975940
vn 0.000000 0.000000 -1.000000
vn -0.026574 -0.167408 -0.985530
vn -0.008588 -0.176954 -0.984182
vn 0.000000 0.000000 -1.000000
vn 0.000000 -1.000000 0.000000
vn 0.000000 -1.000000 0.000000
vn 0.000000 -1.000000 0.000000
vn 0.000000 -1.000000 0.000000
vn 0.025414 0.167202 0.985595
vn 0.000000 0.000000 1.000000
vn 0.000000 0.000000 1.000000
vn 0.008219 0.175713 0.984407
vn 0.041133 0.210969 0.976627
vn 0.025414 0.167202 0.985595
vn 0.008219 0.175713 0.984407
vn 0.027934 0.216707 0.975837
vn -0.268628 0.960031 0.078607
vn -0.268831 0.959965 0.078726
vn -0.377821 0.908497 0.178561
vn -0.377725 0.908567 0.178410
vn -0.042656 -0.209547 -0.976868
vn -0.026574 -0.167408 -0.985530
vn -0.047602 -0.147712 -0.987884
vn -0.116962 -0.179647 -0.976753
vn -0.026574 -0.167408 -0.985530
vn 0.000000 0.000000 -1.000000
vn 0.000000 0.000000 -1.000000
vn -0.047602 -0.147712 -0.987884
vn 0.000000 -1.000000 0.000000
vn 0.000000 -1.000000 0.000000
vn 0.000000 -1.000000 0.000000
vn 0.000000 -1.000000 0.000000
vn 0.000000 0.000000 1.000000
vn 0.025414 0.167202 0.985595
vn 0.045528 0.149652 0.987690
vn 0.000000 0.000000 1.000000
vn 0.025414 0.167202 0.985595
vn 0.041133 0.210969 0.976627
vn 0.113518 0.184700 0.976217
vn 0.045528 0.149652 0.987690
vn 0.377725 0.908567 0.178410
vn 0.377821 0.908497 0.178562
vn 0.268831 0.959965 0.078726
vn 0.268628 0.960031 0.078607
vn 0.116962 -0.179647 -0.976753
vn 0.047602 -0.147712 -0.987884
vn 0.026574 -0.167408 -0.985530
vn 0.042656 -0.209547 -0.976868
vn 0.047602 -0.147712 -0.987884
vn 0.000000 0.000000 -1.000000
vn 0.000000 0.000000 -1.000000
vn 0.026574 -0.167408 -0.985530
vn 0.000000 -1.000000 0.000000
vn 0.000000 -1.000000 0.000000
vn 0.000000 -1.000000 0.000000
vn 0.000000 -1.000000 0.000000
vn 0.000000 0.000000 1.000000
vn -0.045528 0.149652 0.987690
vn -0.025414 0.167202 0.985595
vn 0.000000 0.000000 1.000000
vn -0.045528 0.149652 0.987690
vn -0.113518 0.184700 0.976217
vn -0.041133 0.210969 0.976627
vn -0.025414 0.167202 0.985595
vn 0.096424 0.995201 0.016663
vn 0.096523 0.995191 0.016680
vn -0.096523 0.995191 0.016680
vn -0.096424 0.995201 0.016663
vn 0.028861 -0.216121 -0.975940
vn 0.008588 -0.176954 -0.984182
vn -0.008588 -0.176954 -0.984182
vn -0.028861 -0.216121 -0.975940
vn 0.008588 -0.176954 -0.984182
vn 0.000000 0.000000 -1.000000
vn 0.000000 0.000000 -1.000000
vn -0.008588 -0.176954 -0.984182
vn 0.000000 -1.000000 0.000000
vn 0.000000 -1.000000 0.000000
vn 0.000000 -1.000000 0.000000
vn 0.000000 -1.000000 0.000000
vn 0.000000 0.000000 1.000000
vn -0.008219 0.175713 0.984407
vn 0.008219 0.175713 0.984407
vn 0.000000 0.000000 1.000000
vn -0.008219 0.175713 0.984407
vn -0.027934 0.216707 0.975837
vn 0.027934 0.216707 0.975837
vn 0.008219 0.175713 0.984407
vn -0.839437 0.084717 0.536813
vn -0.840799 0.084388 0.534730
vn -0.831699 0.086552 0.548440
vn -0.831699 0.086552 0.548440
vn -0.281183 -0.171765 -0.944157
vn -0.273853 -0.163464 -0.947779
vn -0.355303 -0.158871 -0.921151
vn -0.264221 -0.182877 -0.946965
vn -0.281183 -0.171765 -0.944157
vn -0.264221 -0.182877 -0.946965
vn -0.149646 -0.206127 -0.967015
vn -0.132818 -0.206935 -0.969297
vn -0.057640 -0.215851 -0.974724
vn -0.132818 -0.206935 -0.969297
vn -0.149646 -0.206127 -0.967015
vn -0.048637 -0.217012 -0.974957
vn -0.057640 -0.215851 -0.974724
vn -0.048637 -0.217012 -0.974957
vn 0.048637 -0.217012 -0.974957
vn 0.057640 -0.215852 -0.974723
vn 0.132818 -0.206935 -0.969297
vn 0.057640 -0.215852 -0.974723
vn 0.048637 -0.217012 -0.974957
vn 0.149646 -0.206127 -0.967015
vn 0.132818 -0.206935 -0.969297
vn 0.149646 -0.206127 -0.967015
vn 0.264221 -0.182877 -0.946965
vn 0.281183 -0.171765 -0.944157
vn 0.273853 -0.163464 -0.947779
vn 0.281183 -0.171765 -0.944157
vn 0.264221 -0.182877 -0.946965
vn 0.355303 -0.158871 -0.921151
vn 0.840799 0.084388 0.534730
vn 0.839437 0.084717 0.536813
vn 0.831699 0.086552 0.548440
vn 0.831699 0.086552 0.548440
vn -0.254248 0.187438 0.948802
vn -0.273895 0.177047 0.945323
vn -0.264119 0.170032 0.949384
vn -0.345130 0.165460 0.923855
vn -0.273895 0.177047 0.945323
vn -0.254248 0.187438 0.948802
vn -0.143618 0.207963 0.967536
vn -0.128631 0.208499 0.969527
vn -0.046645 0.217498 0.974946
vn -0.055791 0.216454 0.974697
vn -0.128631 0.208499 0.969527
vn -0.143618 0.207963 0.967536
vn -0.055791 0.216454 0.974697
vn -0.046645 0.217498 0.974946
vn 0.046645 0.217498 0.974946
vn 0.055791 0.216454 0.974697
vn 0.143618 0.207963 0.967536
vn 0.128631 0.208499 0.969527
vn 0.055791 0.216454 0.974697
vn 0.046645 0.217498 0.974946
vn 0.128631 0.208499 0.969527
vn 0.143618 0.207963 0.967536
vn 0.254248 0.187438 0.948802
vn 0.273895 0.177047 0.945323
vn 0.264119 0.170032 0.949384
vn 0.273895 0.177047 0.945323
vn 0.254248 0.187438 0.948802
vn 0.345130 0.165460 0.923855
vn -0.854669 0.080931 0.512826
vn -0.855877 0.080621 0.510856
vn -0.840799 0.084388 0.534730
vn -0.839437 0.084717 0.536813
vn -0.116962 -0.179647 -0.976753
vn -0.140224 -0.168282 -0.975714
vn -0.273853 -0.163464 -0.947779
vn -0.281183 -0.171765 -0.944157
vn -0.028861 -0.216121 -0.975940
vn -0.042656 -0.209547 -0.976868
vn -0.132818 -0.206935 -0.969297
vn -0.057640 -0.215851 -0.974724
vn 0.042656 -0.209547 -0.976868
vn 0.028861 -0.216121 -0.975940
vn 0.057640 -0.215852 -0.974723
vn 0.132818 -0.206935 -0.969297
vn 0.140224 -0.168282 -0.975714
vn 0.116962 -0.179647 -0.976753
vn 0.281183 -0.171765 -0.944157
vn 0.273853 -0.163464 -0.947779
vn 0.855877 0.080621 0.510856
vn 0.854669 0.080931 0.512826
vn 0.839437 0.084717 0.536813
vn 0.840799 0.084388 0.534730
vn -0.273895 0.177047 0.945323
vn -0.113518 0.184700 0.976217
vn -0.134837 0.174682 0.975349
vn -0.264119 0.170032 0.949384
vn -0.055791 0.216454 0.974697
vn -0.027934 0.216707 0.975837
vn -0.041133 0.210969 0.976627
vn -0.128631 0.208499 0.969527
vn 0.128631 0.208499 0.969527
vn 0.041133 0.210969 0.976627
vn 0.027934 0.216707 0.975837
vn 0.055791 0.216454 0.974697
vn 0.134837 0.174682 0.975349
vn 0.113518 0.184700 0.976217
vn 0.273895 0.177047 0.945323
vn 0.264119 0.170032 0.949384
vn 0.914480 -0.076650 -0.397305
vn 0.914480 -0.076650 -0.397305
vn 0.914480 -0.076650 -0.397305
vn 0.914480 -0.076650 -0.397305
vn -0.966876 0.053578 0.249559
vn -0.966876 0.053578 0.249559
vn -0.966876 0.053578 0.249559
vn -0.966876 0.053578 0.249559
vn 0.996171 -0.019208 -0.085288
vn 0.996171 -0.019208 -0.085288
vn 0.996171 -0.019208 -0.085288
vn 0.996171 -0.019208 -0.085288
vn -0.996171 -0.019208 -0.085288
vn -0.996171 -0.019208 -0.085288
vn -0.996171 -0.019208 -0.085288
vn -0.996171 -0.019208 -0.085288
vn 0.966876 0.053578 0.249559
vn 0.966876 0.053578 0.249559
vn 0.966876 0.053578 0.249559
vn 0.966876 0.053578 0.249559
vn -0.914480 -0.076650 -0.397305
vn -0.914480 -0.076650 -0.397305
vn -0.914480 -0.076650 -0.397305
vn -0.914480 -0.076650 -0.397305
vn 0.000000 -1.000000 0.000001
vn 0.000000 -1.000000 0.000001
vn 0.000000 -1.000000 0.000001
vn 0.000000 -1.000000 0.000001
vn -0.245215 -0.965691 -0.085497
vn -0.245215 -0.965691 -0.085497
vn -0.245215 -0.965691 -0.085497
vn -0.245215 -0.965691 -0.085497
vn 0.245215 -0.965691 -0.085497
vn 0.245215 -0.965691 -0.085497
vn 0.245215 -0.965691 -0.085497
vn 0.245215 -0.965691 -0.085497
vn -0.130852 0.990395 0.044669
vn -0.130852 0.990395 0.044669
vn -0.130852 0.990395 0.044669
vn -0.130852 0.990395 0.044669
vn 0.000000 1.000000 0.000000
vn 0.000000 1.000000 0.000000
vn 0.000000 1.000000 0.000000
vn 0.000000 1.000000 0.000000
vn 0.130852 0.990395 0.044669
vn 0.130852 0.990395 0.044669
vn 0.130852 0.990395 0.044669
vn 0.130852 0.990395 0.044669
s off
usemtl initialShadingGroup
f 1/1/1 47/2/2 48/3/3 3/4/4
f 9/5/5 43/6/6 44/7/7 12/8/8
f 5/9/9 45/10/10 46/11/11 7/12/12
f 7/13/13 46/14/14 47/2/15 1/1/16
f 2/15/17 8/16/18 6/17/19 4/18/20
f 7/13/21 1/1/22 3/4/23 5/19/24
f 3/4/25 48/3/26 80/20/27 65/21/28
f 4/18/29 6/17/30 73/22/31 74/23/32
f 45/10/33 5/9/34 66/24/35 67/25/36
f 5/19/37 3/4/38 65/21/39 66/26/40
f 13/27/41 10/28/42 11/29/43 14/30/44
f 6/31/45 15/32/46 72/33/47 73/34/48
f 16/35/49 15/32/50 6/31/51 8/36/52
f 17/37/53 16/38/54 8/16/55 2/15/56
f 18/39/57 17/37/58 2/15/59 4/18/60
f 75/40/61 18/39/62 4/18/63 74/23/64
f 25/41/65 19/42/66 20/43/67 26/44/68
f 21/45/69 27/46/70 70/47/71 71/48/72
f 28/49/73 27/46/74 21/45/75 22/50/76
f 29/51/77 28/52/78 22/53/79 23/54/80
f 30/55/81 29/51/82 23/54/83 24/56/84
f 77/57/85 30/55/86 24/56/87 76/58/88
f 37/59/89 31/60/90 32/61/91 38/62/92
f 33/63/93 39/64/94 68/65/95 69/66/96
f 40/67/97 39/64/98 33/63/99 34/68/100
f 41/69/101 40/70/102 34/71/103 35/72/104
f 42/73/105 41/69/106 35/72/107 36/74/108
f 79/75/109 42/73/110 36/74/111 78/76/112
f 37/59/113 38/62/114 44/7/115 43/6/116
f 68/65/117 39/64/118 45/10/119 67/25/120
f 39/64/121 40/67/122 46/11/123 45/10/124
f 40/70/125 41/69/126 47/2/127 46/14/128
f 41/69/129 42/73/130 48/3/131 47/2/132
f 42/73/133 79/75/134 80/20/135 48/3/136
f 13/27/137 14/30/138 20/43/139 19/42/140
f 72/33/141 15/32/142 21/45/143 71/48/144
f 15/32/145 16/35/146 22/50/147 21/45/148
f 16/38/149 17/37/150 23/54/151 22/53/152
f 17/37/153 18/39/154 24/56/155 23/54/156
f 18/39/157 75/40/158 76/58/159 24/56/160
f 25/41/161 26/44/162 32/61/163 31/60/164
f 70/47/165 27/46/166 33/63/167 69/66/168
f 27/46/169 28/49/170 34/68/171 33/63/172
f 28/52/173 29/51/174 35/72/175 34/71/176
f 29/51/177 30/55/178 36/74/179 35/72/180
f 30/55/181 77/57/182 78/76/183 36/74/184
f 50/77/185 49/78/186 9/5/187 12/8/188
f 51/79/189 50/80/190 12/8/191 44/7/192
f 51/79/193 44/7/194 38/62/195 52/81/196
f 53/82/197 52/81/198 38/62/199 32/61/200
f 53/82/201 32/61/202 26/44/203 54/83/204
f 55/84/205 54/83/206 26/44/207 20/43/208
f 55/84/209 20/43/210 14/30/211 56/85/212
f 57/86/213 56/85/214 14/30/215 11/29/216
f 58/87/217 57/88/218 11/29/219 10/28/220
f 13/27/221 59/89/222 58/87/223 10/28/224
f 59/89/225 13/27/226 19/42/227 60/90/228
f 25/41/229 61/91/230 60/90/231 19/42/232
f 61/91/233 25/41/234 31/60/235 62/92/236
f 37/59/237 63/93/238 62/92/239 31/60/240
f 63/93/241 37/59/242 43/6/243 64/94/244
f 49/78/245 64/94/246 43/6/247 9/5/248
f 66/26/249 65/21/250 49/78/251 50/77/252
f 67/25/253 66/24/254 50/80/255 51/79/256
f 69/66/257 68/65/258 52/81/259 53/82/260
f 71/48/261 70/47/262 54/83/263 55/84/264
f 73/34/265 72/33/266 56/85/267 57/86/268
f 74/23/269 73/22/270 57/88/271 58/87/272
f 59/89/273 75/40/274 74/23/275 58/87/276
f 61/91/277 77/57/278 76/58/279 60/90/280
f 63/93/281 79/75/282 78/76/283 62/92/284
f 65/21/285 80/20/286 64/94/287 49/78/288
f 67/95/289 51/96/290 64/94/291 80/20/292
f 52/97/293 68/98/294 79/75/295 63/93/296
f 69/99/297 53/100/298 62/92/299 78/76/300
f 54/101/301 70/102/302 77/57/303 61/91/304
f 71/103/305 55/104/306 60/90/307 76/58/308
f 56/105/309 72/106/310 75/40/311 59/89/312
f 61/107/313 62/108/314 53/82/315 54/83/316
f 59/109/317 60/110/318 55/84/319 56/85/320
f 63/111/321 64/112/322 51/79/323 52/81/324
f 80/113/325 79/114/326 68/65/327 67/25/328
f 78/115/329 77/116/330 70/47/331 69/66/332
f 76/117/333 75/118/334 72/33/335 71/48/336
