# This file uses centimeters as units for non-parametric coordinates.

mtllib chair_Arm_3.mtl
v 0.327702 -0.144134 6.441233
v 0.327702 -0.144134 -0.504350
v 0.327702 0.144134 6.441233
v 0.327702 0.144134 -0.504350
v -0.327702 0.144134 6.441233
v -0.327702 0.144134 -0.504350
v -0.327702 -0.144134 6.441233
v -0.327702 -0.144134 -0.504350
v -0.327702 0.144134 0.161486
v -0.327702 -0.144134 0.161486
v 0.327702 -0.144134 0.161486
v 0.327702 0.144134 0.161486
v 0.327702 -0.659055 6.884452
v -0.327702 -0.659055 6.884452
v 0.327702 -0.650722 7.264860
v -0.327702 -0.650722 7.264860
v -0.327702 -0.494086 7.258880
v 0.327702 -0.494086 7.258880
v 0.327702 -0.502419 6.878471
v -0.327702 -0.502419 6.878471
v -0.327702 -0.310812 7.237779
v 0.327702 -0.310812 7.237779
v 0.327702 -0.373914 6.866441
v -0.327702 -0.373914 6.866441
v -0.327702 -0.119993 7.131436
v 0.327702 -0.119993 7.131436
v 0.327702 -0.277537 6.812731
v -0.327702 -0.277537 6.812731
v -0.327702 0.030572 6.943659
v 0.327702 0.030572 6.943659
v 0.327702 -0.201491 6.717890
v -0.327702 -0.201491 6.717890
v -0.327702 0.121841 6.698195
v 0.327702 0.121841 6.698195
v 0.327702 -0.155394 6.593913
v -0.327702 -0.155394 6.593913
vt 0.140339 0.895726
vt 0.419666 0.894800
vt 0.419708 0.907619
vt 0.140456 0.908543
vt 0.419805 0.936763
vt 0.140563 0.937688
vt 0.419847 0.949581
vt 0.140051 0.950484
vt 0.140327 0.866581
vt 0.419569 0.865656
vt 0.462134 0.907478
vt 0.462232 0.936622
vt 0.449413 0.936665
vt 0.449316 0.907521
vt 0.064938 0.937939
vt 0.064841 0.908795
vt 0.081761 0.908739
vt 0.081858 0.937883
vt 0.449455 0.949483
vt 0.449177 0.865558
vt 0.449273 0.894702
vt 0.029228 0.938057
vt 0.029131 0.908914
vt 0.035938 0.908891
vt 0.036035 0.938035
vt 0.129086 0.908582
vt 0.130879 0.895813
vt 0.129093 0.937726
vt 0.130940 0.950646
vt 0.088730 0.908715
vt 0.088829 0.937859
vt 0.089593 0.891830
vt 0.081978 0.891821
vt 0.057968 0.937962
vt 0.057871 0.908818
vt 0.089806 0.954739
vt 0.082190 0.954799
vt 0.096931 0.908688
vt 0.097032 0.937833
vt 0.099216 0.892423
vt 0.052229 0.937981
vt 0.052132 0.908837
vt 0.099433 0.954082
vt 0.106634 0.908656
vt 0.106746 0.937799
vt 0.110299 0.893583
vt 0.047322 0.937998
vt 0.047226 0.908854
vt 0.110525 0.952847
vt 0.117293 0.908621
vt 0.117448 0.937765
vt 0.120352 0.894678
vt 0.041917 0.938015
vt 0.041820 0.908872
vt 0.121091 0.951503
vn 1.000000 0.000000 0.000000
vn 1.000000 0.000000 0.000000
vn 1.000000 0.000000 0.000000
vn 1.000000 0.000000 0.000000
vn 0.000000 1.000000 0.000000
vn 0.000000 1.000000 0.000000
vn 0.000000 1.000000 0.000000
vn 0.000000 1.000000 0.000000
vn -1.000000 0.000000 0.000000
vn -1.000000 0.000000 0.000000
vn -1.000000 0.000000 0.000000
vn -1.000000 0.000000 0.000000
vn 0.000000 -1.000000 0.000000
vn 0.000000 -1.000000 0.000000
vn 0.000000 -1.000000 0.000000
vn 0.000000 -1.000000 0.000000
vn 0.000000 0.000000 -1.000000
vn 0.000000 0.000000 -1.000000
vn 0.000000 0.000000 -1.000000
vn 0.000000 0.000000 -1.000000
vn 0.000000 -0.999760 0.021900
vn 0.000000 -0.999760 0.021900
vn 0.000000 -0.999760 0.021900
vn 0.000000 -0.999760 0.021900
vn -1.000000 0.000000 0.000000
vn -1.000000 0.000000 0.000000
vn -1.000000 0.000000 0.000000
vn -1.000000 0.000000 0.000000
vn 0.000000 -1.000000 0.000000
vn 0.000000 -1.000000 0.000000
vn 0.000000 -1.000000 0.000000
vn 0.000000 -1.000000 0.000000
vn 1.000000 0.000000 0.000000
vn 1.000000 0.000000 0.000000
vn 1.000000 0.000000 0.000000
vn 1.000000 0.000000 0.000000
vn 0.000000 1.000000 0.000000
vn 0.000000 1.000000 0.000000
vn 0.000000 1.000000 0.000000
vn 0.000000 1.000000 0.000000
vn 0.000000 -1.000000 0.000000
vn 0.000000 -1.000000 0.000000
vn 0.000000 -0.979178 -0.203005
vn 0.000000 -0.979178 -0.203005
vn 1.000000 0.000000 0.000000
vn 1.000000 0.000000 0.000000
vn 1.000000 -0.000000 0.000000
vn 1.000000 -0.000000 0.000000
vn 0.000000 1.000000 0.000000
vn 0.000000 1.000000 0.000000
vn 0.000000 0.975395 0.220466
vn 0.000000 0.975395 0.220466
vn -1.000000 0.000000 0.000000
vn -1.000000 0.000000 0.000000
vn -1.000000 0.000000 0.000000
vn -1.000000 0.000000 0.000000
vn 0.000000 0.079417 0.996841
vn 0.000000 0.079417 0.996841
vn 0.000000 0.038150 0.999272
vn 0.000000 0.038150 0.999272
vn 1.000000 -0.000000 0.000000
vn 1.000000 -0.000000 0.000000
vn 1.000000 -0.000000 0.000000
vn 1.000000 -0.000000 0.000000
vn 0.000000 -0.063033 -0.998011
vn 0.000000 -0.063033 -0.998011
vn 0.000000 -0.038156 -0.999272
vn 0.000000 -0.038156 -0.999272
vn -1.000000 0.000000 0.000000
vn -1.000000 0.000000 0.000000
vn -1.000000 0.000000 0.000000
vn -1.000000 0.000000 0.000000
vn 0.000000 0.322475 0.946578
vn 0.000000 0.322475 0.946578
vn 0.000000 0.079417 0.996841
vn 0.000000 0.079417 0.996841
vn 1.000000 -0.000000 0.000000
vn 1.000000 -0.000000 0.000000
vn 1.000000 -0.000000 0.000000
vn 1.000000 -0.000000 0.000000
vn 0.000000 -0.280585 -0.959829
vn 0.000000 -0.280585 -0.959829
vn 0.000000 -0.063033 -0.998011
vn 0.000000 -0.063033 -0.998011
vn -1.000000 0.000000 0.000000
vn -1.000000 0.000000 0.000000
vn -1.000000 0.000000 0.000000
vn -1.000000 0.000000 0.000000
vn 0.000000 0.652716 0.757603
vn 0.000000 0.652716 0.757603
vn 0.000000 0.322475 0.946578
vn 0.000000 0.322475 0.946578
vn 1.000000 0.000000 0.000000
vn 1.000000 0.000000 0.000000
vn 1.000000 -0.000000 0.000000
vn 1.000000 -0.000000 0.000000
vn 0.000000 -0.652717 -0.757602
vn 0.000000 -0.652717 -0.757602
vn 0.000000 -0.280585 -0.959829
vn 0.000000 -0.280585 -0.959829
vn -1.000000 0.000000 0.000000
vn -1.000000 0.000000 0.000000
vn -1.000000 0.000000 0.000000
vn -1.000000 0.000000 0.000000
vn 0.000000 0.873176 0.487406
vn 0.000000 0.873176 0.487406
vn 0.000000 0.652716 0.757603
vn 0.000000 0.652716 0.757603
vn 1.000000 -0.000000 0.000000
vn 1.000000 0.000000 0.000000
vn 1.000000 0.000000 0.000000
vn 1.000000 0.000000 0.000000
vn 0.000000 -0.873177 -0.487404
vn 0.000000 -0.873177 -0.487404
vn 0.000000 -0.652717 -0.757602
vn 0.000000 -0.652717 -0.757602
vn -1.000000 0.000000 0.000000
vn -1.000000 0.000000 0.000000
vn -1.000000 0.000000 0.000000
vn -1.000000 0.000000 0.000000
vn 0.000000 0.975395 0.220466
vn 0.000000 0.975395 0.220466
vn 0.000000 0.873176 0.487406
vn 0.000000 0.873176 0.487406
vn 1.000000 -0.000000 0.000000
vn 1.000000 -0.000000 0.000000
vn 1.000000 0.000000 0.000000
vn 1.000000 -0.000000 0.000000
vn 0.000000 -0.979178 -0.203005
vn 0.000000 -0.979178 -0.203005
vn 0.000000 -0.873177 -0.487404
vn 0.000000 -0.873177 -0.487404
vn -1.000000 0.000000 0.000000
vn -1.000000 0.000000 0.000000
vn -1.000000 0.000000 0.000000
vn -1.000000 0.000000 0.000000
s off
usemtl chair_Arm_3_initialShadingGroup
f 1/1/1 11/2/2 12/3/3 3/4/4
f 3/4/5 12/3/6 9/5/7 5/6/8
f 5/6/9 9/5/10 10/7/11 7/8/12
f 7/9/13 10/10/14 11/2/15 1/1/16
f 2/11/17 8/12/18 6/13/19 4/14/20
f 14/15/21 13/16/22 15/17/23 16/18/24
f 9/5/25 6/13/26 8/19/27 10/7/28
f 11/2/29 10/10/30 8/20/31 2/21/32
f 12/3/33 11/2/34 2/21/35 4/14/36
f 9/5/37 12/3/38 4/14/39 6/13/40
f 7/22/41 1/23/42 35/24/43 36/25/44
f 1/1/45 3/4/46 34/26/47 35/27/48
f 3/4/49 5/6/50 33/28/51 34/26/52
f 5/6/53 7/8/54 36/29/55 33/28/56
f 18/30/57 17/31/58 16/18/59 15/17/60
f 19/32/61 18/30/62 15/17/63 13/33/64
f 20/34/65 19/35/66 13/16/67 14/15/68
f 17/31/69 20/36/70 14/37/71 16/18/72
f 22/38/73 21/39/74 17/31/75 18/30/76
f 23/40/77 22/38/78 18/30/79 19/32/80
f 24/41/81 23/42/82 19/35/83 20/34/84
f 21/39/85 24/43/86 20/36/87 17/31/88
f 26/44/89 25/45/90 21/39/91 22/38/92
f 27/46/93 26/44/94 22/38/95 23/40/96
f 28/47/97 27/48/98 23/42/99 24/41/100
f 25/45/101 28/49/102 24/43/103 21/39/104
f 30/50/105 29/51/106 25/45/107 26/44/108
f 31/52/109 30/50/110 26/44/111 27/46/112
f 32/53/113 31/54/114 27/48/115 28/47/116
f 29/51/117 32/55/118 28/49/119 25/45/120
f 34/26/121 33/28/122 29/51/123 30/50/124
f 35/27/125 34/26/126 30/50/127 31/52/128
f 36/25/129 35/24/130 31/54/131 32/53/132
f 33/28/133 36/29/134 32/55/135 29/51/136
