# This file uses centimeters as units for non-parametric coordinates.

mtllib chair_Seat_5.mtl
v -3.735448 -0.212348 -4.018935
v -3.693221 -0.212348 1.529781
v -2.826669 -0.212348 2.826668
v -1.529783 -0.212348 3.693220
v -0.000001 -0.212348 3.997513
v 1.529781 -0.212348 3.693220
v 2.826668 -0.212348 2.826669
v 3.693220 -0.212348 1.529782
v 3.735448 -0.212348 -4.018935
v -3.735448 0.212348 -4.018935
v -3.693221 0.212348 1.529781
v -2.826669 0.212348 2.826668
v -1.529783 0.212348 3.693220
v -0.000001 0.212348 3.997513
v 1.529781 0.212348 3.693220
v 2.826668 0.212348 2.826669
v 3.693220 0.212348 1.529782
v 3.735448 0.212348 -4.018935
v 0.000000 -0.212348 0.000000
v 0.000000 0.212348 0.000000
v -3.375922 -0.006207 -2.603885
v -3.337759 -0.006207 1.623322
v -2.554610 -0.006207 2.611336
v -1.382545 -0.006207 3.271506
v -0.000001 -0.006207 3.503327
v 1.382544 -0.006207 3.271506
v 2.554609 -0.006207 2.611337
v 3.337758 -0.006207 1.623323
v 3.375922 -0.006207 -2.603885
v -3.054189 0.399375 -2.735695
v -3.019663 0.399375 1.088650
v -2.311150 0.399375 1.982504
v -1.250786 0.399375 2.579759
v 0.000000 0.399375 2.789487
v 1.250785 0.399375 2.579759
v 2.311149 0.399375 1.982505
v 3.019663 0.399375 1.088651
v 3.054189 0.399375 -2.735695
v 0.000000 0.399375 0.034278
vt 0.241308 0.053011
vt 0.102529 0.065773
vt 0.103332 0.062963
vt 0.240388 0.031216
vt 0.065084 0.081713
vt 0.062897 0.071880
vt 0.034816 0.106960
vt 0.024474 0.097460
vt 0.035690 0.155540
vt 0.026435 0.155529
vt 0.034700 0.204117
vt 0.024336 0.213592
vt 0.064908 0.229436
vt 0.062698 0.239264
vt 0.102315 0.245465
vt 0.103112 0.248278
vt 0.241063 0.258529
vt 0.240092 0.280321
vt 0.252341 0.254947
vt 0.252577 0.056620
vt 0.139790 0.155663
vt 0.406666 0.057939
vt 0.365939 0.155933
vt 0.441067 0.080984
vt 0.464029 0.115439
vt 0.472059 0.156059
vt 0.463933 0.196660
vt 0.440888 0.231061
vt 0.406433 0.254023
vt 0.233932 0.241315
vt 0.085757 0.228826
vt 0.104345 0.220234
vt 0.221605 0.226412
vt 0.062529 0.209698
vt 0.081998 0.204088
vt 0.047288 0.184080
vt 0.067213 0.181318
vt 0.042033 0.154871
vt 0.062095 0.154937
vt 0.047479 0.125697
vt 0.067386 0.128590
vt 0.062888 0.100181
vt 0.082321 0.105917
vt 0.086241 0.081205
vt 0.104773 0.089918
vt 0.234495 0.069689
vt 0.222071 0.084511
vt 0.133504 0.155171
vn -0.598426 0.000000 -0.801178
vn -0.991303 0.000000 0.131599
vn -0.991303 0.000000 0.131599
vn -0.598426 0.000000 -0.801178
vn -0.991303 0.000000 0.131599
vn -0.707107 0.000000 0.707107
vn -0.707107 0.000000 0.707107
vn -0.991303 0.000000 0.131599
vn -0.707107 0.000000 0.707107
vn -0.382684 0.000000 0.923879
vn -0.382684 0.000000 0.923879
vn -0.707107 0.000000 0.707107
vn -0.382684 0.000000 0.923879
vn 0.000000 0.000000 1.000000
vn 0.000000 0.000000 1.000000
vn -0.382684 0.000000 0.923879
vn 0.000000 0.000000 1.000000
vn 0.382683 0.000000 0.923880
vn 0.382683 0.000000 0.923880
vn 0.000000 0.000000 1.000000
vn 0.382683 0.000000 0.923880
vn 0.707107 0.000000 0.707107
vn 0.707107 0.000000 0.707107
vn 0.382683 0.000000 0.923880
vn 0.707107 0.000000 0.707107
vn 0.991303 0.000000 0.131599
vn 0.991303 0.000000 0.131599
vn 0.707107 0.000000 0.707107
vn 0.991303 0.000000 0.131599
vn 0.598426 0.000000 -0.801178
vn 0.598426 0.000000 -0.801178
vn 0.991303 0.000000 0.131599
vn 0.598426 0.000000 -0.801178
vn 0.598426 0.000000 -0.801178
vn -0.598426 0.000000 -0.801178
vn -0.598426 0.000000 -0.801178
vn 0.000000 -1.000000 0.000000
vn 0.000000 -1.000000 0.000000
vn 0.000000 -1.000000 0.000000
vn 0.000000 -1.000000 0.000000
vn 0.000000 -1.000000 0.000000
vn 0.000000 -1.000000 0.000000
vn 0.000000 -1.000000 0.000000
vn 0.000000 -1.000000 0.000000
vn 0.000000 -1.000000 0.000000
vn 0.000000 -1.000000 0.000000
vn 0.000000 -1.000000 0.000000
vn 0.000000 -1.000000 0.000000
vn 0.000000 -1.000000 0.000000
vn 0.000000 -1.000000 0.000000
vn 0.000000 -1.000000 0.000000
vn 0.000000 -1.000000 0.000000
vn 0.000000 -1.000000 0.000000
vn 0.000000 -1.000000 0.000000
vn 0.000000 -1.000000 0.000000
vn 0.000000 -1.000000 0.000000
vn 0.000000 -1.000000 0.000000
vn 0.000000 -1.000000 0.000000
vn 0.000000 -1.000000 0.000000
vn 0.000000 -1.000000 0.000000
vn 0.000000 -1.000000 0.000000
vn 0.000000 -1.000000 0.000000
vn 0.000000 -1.000000 0.000000
vn 0.000000 1.000000 0.000000
vn 0.000000 1.000000 0.000000
vn 0.000000 1.000000 0.000000
vn 0.000000 1.000000 0.000000
vn 0.000000 1.000000 0.000000
vn 0.000000 1.000000 0.000000
vn 0.000000 1.000000 0.000000
vn 0.000000 1.000000 0.000000
vn 0.000000 1.000000 0.000000
vn 0.000000 1.000000 0.000000
vn 0.000000 1.000000 0.000000
vn 0.000000 1.000000 0.000000
vn 0.000000 1.000000 0.000000
vn 0.000000 1.000000 0.000000
vn 0.000000 1.000000 0.000000
vn 0.000000 1.000000 0.000000
vn 0.000000 1.000000 0.000000
vn 0.000000 1.000000 0.000000
vn 0.000000 1.000000 0.000000
vn 0.000000 1.000000 0.000000
vn 0.000000 1.000000 0.000000
vn 0.000000 1.000000 0.000000
vn 0.000000 1.000000 0.000000
vn 0.000000 1.000000 0.000000
vn 0.000000 1.000000 0.000000
vn 0.000000 1.000000 0.000000
vn 0.000000 1.000000 0.000000
vn -0.782298 0.622864 0.007063
vn -0.782298 0.622864 0.007063
vn -0.782298 0.622864 0.007063
vn -0.782298 0.622864 0.007063
vn -0.699762 0.704542 0.118126
vn -0.342751 0.844325 0.411870
vn -0.348956 0.843278 0.408793
vn -0.710958 0.695420 0.104546
vn -0.342751 0.844325 0.411870
vn -0.164368 0.864265 0.475425
vn -0.167356 0.864068 0.474740
vn -0.348956 0.843278 0.408793
vn -0.164368 0.864265 0.475425
vn 0.000000 0.869461 0.494002
vn 0.000000 0.869461 0.494002
vn -0.167356 0.864068 0.474740
vn 0.000000 0.869461 0.494002
vn 0.164368 0.864265 0.475425
vn 0.167356 0.864068 0.474740
vn 0.000000 0.869461 0.494002
vn 0.164368 0.864265 0.475425
vn 0.342751 0.844325 0.411871
vn 0.348955 0.843278 0.408794
vn 0.167356 0.864068 0.474740
vn 0.342751 0.844325 0.411871
vn 0.699762 0.704542 0.118126
vn 0.710958 0.695420 0.104546
vn 0.348955 0.843278 0.408794
vn 0.699762 0.704542 0.118126
vn 0.542517 0.162509 -0.824176
vn 0.511807 0.130014 -0.849205
vn 0.710958 0.695420 0.104546
vn 0.511807 0.130014 -0.849205
vn 0.542517 0.162509 -0.824176
vn -0.542517 0.162509 -0.824176
vn -0.511807 0.130014 -0.849205
vn 0.000000 1.000000 0.000000
vn 0.000000 1.000000 0.000000
vn 0.000000 1.000000 0.000000
vn 0.000000 1.000000 0.000000
vn 0.000000 1.000000 0.000000
vn 0.000000 1.000000 0.000000
vn 0.000000 1.000000 0.000000
vn 0.000000 1.000000 0.000000
vn 0.000000 1.000000 0.000000
vn 0.000000 1.000000 0.000000
vn 0.000000 1.000000 0.000000
vn 0.000000 1.000000 0.000000
vn 0.000000 1.000000 0.000000
vn 0.000000 1.000000 0.000000
vn 0.000000 1.000000 0.000000
vn 0.000000 1.000000 0.000000
vn 0.000000 1.000000 0.000000
vn 0.000000 1.000000 0.000000
vn 0.000000 1.000000 0.000000
vn 0.000000 1.000000 0.000000
vn 0.000000 1.000000 0.000000
vn 0.000000 1.000000 0.000000
vn 0.000000 1.000000 0.000000
vn 0.000000 1.000000 0.000000
vn 0.000000 1.000000 0.000000
vn 0.000000 1.000000 0.000000
vn 0.000000 1.000000 0.000000
s off
usemtl chair_Seat_5_initialShadingGroup
f 1/1/1 2/2/2 11/3/3 10/4/4
f 2/2/5 3/5/6 12/6/7 11/3/8
f 3/5/9 4/7/10 13/8/11 12/6/12
f 4/7/13 5/9/14 14/10/15 13/8/16
f 5/9/17 6/11/18 15/12/19 14/10/20
f 6/11/21 7/13/22 16/14/23 15/12/24
f 7/13/25 8/15/26 17/16/27 16/14/28
f 8/15/29 9/17/30 18/18/31 17/16/32
f 18/19/33 9/17/34 1/1/35 10/20/36
f 2/2/37 1/1/38 19/21/39
f 3/5/40 2/2/41 19/21/42
f 4/7/43 3/5/44 19/21/45
f 5/9/46 4/7/47 19/21/48
f 6/11/49 5/9/50 19/21/51
f 7/13/52 6/11/53 19/21/54
f 8/15/55 7/13/56 19/21/57
f 9/17/58 8/15/59 19/21/60
f 1/1/61 9/17/62 19/21/63
f 10/20/64 11/22/65 20/23/66
f 11/22/67 12/24/68 20/23/69
f 12/24/70 13/25/71 20/23/72
f 13/25/73 14/26/74 20/23/75
f 14/26/76 15/27/77 20/23/78
f 15/27/79 16/28/80 20/23/81
f 16/28/82 17/29/83 20/23/84
f 17/29/85 18/19/86 20/23/87
f 20/23/88 18/19/89 10/20/90
f 21/30/91 22/31/92 31/32/93 30/33/94
f 22/31/95 23/34/96 32/35/97 31/32/98
f 23/34/99 24/36/100 33/37/101 32/35/102
f 24/36/103 25/38/104 34/39/105 33/37/106
f 25/38/107 26/40/108 35/41/109 34/39/110
f 26/40/111 27/42/112 36/43/113 35/41/114
f 27/42/115 28/44/116 37/45/117 36/43/118
f 28/44/119 29/46/120 38/47/121 37/45/122
f 38/47/123 29/46/124 21/30/125 30/33/126
f 30/33/127 31/32/128 39/48/129
f 31/32/130 32/35/131 39/48/132
f 32/35/133 33/37/134 39/48/135
f 33/37/136 34/39/137 39/48/138
f 34/39/139 35/41/140 39/48/141
f 35/41/142 36/43/143 39/48/144
f 36/43/145 37/45/146 39/48/147
f 37/45/148 38/47/149 39/48/150
f 39/48/151 38/47/152 30/33/153
