# This file uses centimeters as units for non-parametric coordinates.

g default
v 0.327702 -0.112962 4.756716
v 0.327702 -0.112962 -0.504350
v 0.327702 0.112962 4.756716
v 0.327702 0.112962 -0.504350
v -0.327702 0.112962 4.756716
v -0.327702 0.112962 -0.504350
v -0.327702 -0.112962 4.756716
v -0.327702 -0.112962 -0.504350
v -0.327702 0.112962 0.000000
v -0.327702 -0.112962 0.000000
v 0.327702 -0.112962 0.000000
v 0.327702 0.112962 0.000000
v 0.168857 0.112962 4.909142
v 0.109234 0.112962 0.000000
v 0.109234 0.112962 -0.504350
v 0.109234 -0.112962 -0.504350
v 0.109234 -0.112962 0.000000
v 0.168857 -0.112962 4.909142
v -0.168857 0.112962 4.909142
v -0.109234 0.112962 0.000000
v -0.109234 0.112962 -0.504350
v -0.109234 -0.112962 -0.504350
v -0.109234 -0.112962 0.000000
v -0.168857 -0.112962 4.909142
vt 0.375000 0.000000
vt 0.601034 0.000000
vt 0.601034 0.250000
vt 0.375000 0.250000
vt 0.601034 0.500000
vt 0.375000 0.500000
vt 0.601034 0.750000
vt 0.375000 0.750000
vt 0.601034 1.000000
vt 0.375000 1.000000
vt 0.625000 0.000000
vt 0.875000 0.000000
vt 0.875000 0.250000
vt 0.625000 0.250000
vt 0.125000 0.000000
vt 0.125000 0.250000
vt 0.625000 0.500000
vt 0.625000 0.750000
vt 0.625000 1.000000
vt 0.375000 0.333333
vt 0.291667 0.250000
vt 0.601034 0.333333
vt 0.708333 0.250000
vt 0.625000 0.333333
vt 0.708333 0.000000
vt 0.625000 0.916667
vt 0.601034 0.916667
vt 0.375000 0.916667
vt 0.291667 0.000000
vt 0.375000 0.416667
vt 0.208333 0.250000
vt 0.601034 0.416667
vt 0.791667 0.250000
vt 0.625000 0.416667
vt 0.791667 0.000000
vt 0.625000 0.833333
vt 0.601034 0.833333
vt 0.375000 0.833333
vt 0.208333 0.000000
vn 1.000000 0.000000 0.000000
vn 1.000000 0.000000 0.000000
vn 1.000000 0.000000 0.000000
vn 1.000000 0.000000 0.000000
vn 0.000000 1.000000 0.000000
vn 0.000000 1.000000 0.000000
vn 0.000000 1.000000 0.000000
vn 0.000000 1.000000 0.000000
vn -1.000000 0.000000 0.000000
vn -1.000000 0.000000 0.000000
vn -1.000000 0.000000 0.000000
vn -1.000000 0.000000 0.000000
vn 0.000000 -1.000000 0.000000
vn 0.000000 -1.000000 0.000000
vn 0.000000 -1.000000 0.000000
vn 0.000000 -1.000000 0.000000
vn 0.000000 0.000000 -1.000000
vn 0.000000 0.000000 -1.000000
vn 0.000000 0.000000 -1.000000
vn 0.000000 0.000000 -1.000000
vn 0.000000 0.000000 1.000000
vn -0.293452 0.000000 0.955974
vn -0.293452 0.000000 0.955974
vn 0.000000 0.000000 1.000000
vn -1.000000 0.000000 0.000000
vn -1.000000 0.000000 0.000000
vn -1.000000 0.000000 0.000000
vn -1.000000 0.000000 0.000000
vn 0.000000 -1.000000 0.000000
vn 0.000000 -1.000000 0.000000
vn 0.000000 -1.000000 0.000000
vn 0.000000 -1.000000 0.000000
vn 1.000000 0.000000 0.000000
vn 1.000000 0.000000 0.000000
vn 1.000000 0.000000 0.000000
vn 1.000000 0.000000 0.000000
vn 0.000000 1.000000 0.000000
vn 0.000000 1.000000 0.000000
vn 0.000000 1.000000 0.000000
vn 0.000000 1.000000 0.000000
vn 0.000000 1.000000 0.000000
vn 0.000000 1.000000 0.000000
vn 0.000000 1.000000 0.000000
vn 0.000000 1.000000 0.000000
vn 0.000000 1.000000 0.000000
vn 0.000000 1.000000 0.000000
vn 0.000000 1.000000 0.000000
vn 0.000000 1.000000 0.000000
vn 0.000000 0.000000 -1.000000
vn 0.000000 0.000000 -1.000000
vn 0.000000 0.000000 -1.000000
vn 0.000000 0.000000 -1.000000
vn 0.000000 -1.000000 0.000000
vn 0.000000 -1.000000 0.000000
vn 0.000000 -1.000000 0.000000
vn 0.000000 -1.000000 0.000000
vn 0.000000 -1.000000 0.000000
vn 0.000000 -1.000000 0.000000
vn 0.000000 -1.000000 0.000000
vn 0.000000 -1.000000 0.000000
vn 0.293452 0.000000 0.955974
vn 0.293452 0.000000 0.955974
vn 0.000000 0.000000 1.000000
vn 0.000000 0.000000 1.000000
s off
g ghost_pCube8
f 1/1/1 11/2/2 12/3/3 3/4/4
s 1
f 19/30/5 20/32/6 9/5/7 5/6/8
s off
f 5/6/9 9/5/10 10/7/11 7/8/12
s 2
f 7/8/13 10/7/14 23/37/15 24/38/16
s 3
f 22/35/17 8/12/18 6/13/19 21/33/20
s 4
f 7/15/21 24/39/22 19/31/23 5/16/24
s off
f 9/5/25 6/17/26 8/18/27 10/7/28
s 5
f 23/37/29 10/7/30 8/18/31 22/36/32
s off
f 12/3/33 11/2/34 2/11/35 4/14/36
s 6
f 9/5/37 20/32/38 21/34/39 6/17/40
s 1
f 3/4/41 12/3/42 14/22/43 13/20/44
s 6
f 15/24/45 14/22/46 12/3/47 4/14/48
s 3
f 2/11/49 16/25/50 15/23/51 4/14/52
s 5
f 11/9/53 17/27/54 16/26/55 2/19/56
s 2
f 18/28/57 17/27/58 11/9/59 1/10/60
s 4
f 13/21/61 18/29/62 1/1/63 3/4/64
s 1
f 13/20/44 14/22/43 20/32/6 19/30/5
s 6
f 21/34/39 20/32/38 14/22/46 15/24/45
s 3
f 16/25/50 22/35/17 21/33/20 15/23/51
s 5
f 17/27/54 23/37/29 22/36/32 16/26/55
s 2
f 24/38/16 23/37/15 17/27/58 18/28/57
s 4
f 19/31/23 24/39/22 18/29/62 13/21/61
