# This file uses centimeters as units for non-parametric coordinates.

mtllib chair_Leg_4.mtl
v -0.304059 0.000000 0.304059
v 0.304059 0.000000 0.304059
v -0.304059 0.000000 -0.304059
v 0.304059 0.000000 -0.304059
v 0.304059 -1.501835 0.304059
v -0.304059 -1.501835 0.304059
v -0.304059 -1.501835 -0.304059
v 0.304059 -1.501835 -0.304059
v 0.304059 -1.897408 0.304059
v -0.304059 -1.897408 0.304059
v -0.304059 -1.897408 -0.304059
v 0.304059 -1.897408 -0.304059
v 0.304059 -3.139101 0.304059
v -0.304059 -3.139101 0.304059
v -0.304059 -3.139101 -0.304059
v 0.304059 -3.139101 -0.304059
v 0.304059 -3.605954 0.304059
v -0.304059 -3.605954 0.304059
v -0.304059 -3.605954 -0.304059
v 0.304059 -3.605954 -0.304059
v 0.405647 -1.699622 0.405647
v -0.405647 -1.699622 0.405647
v -0.405647 -1.699622 -0.405647
v 0.405647 -1.699622 -0.405647
v 0.466600 -2.518255 0.466600
v -0.466600 -2.518255 0.466600
v -0.466600 -2.518255 -0.466600
v 0.466600 -2.518255 -0.466600
v 0.432737 -3.372528 0.432737
v -0.432737 -3.372528 0.432737
v -0.432737 -3.372528 -0.432737
v 0.432737 -3.372528 -0.432737
v 0.304059 -5.942324 0.304059
v -0.304059 -5.942324 0.304059
v -0.304059 -5.942324 -0.304059
v 0.304059 -5.942324 -0.304059
v -0.608866 -7.021892 0.608866
v 0.608866 -7.021892 0.608866
v 0.361776 -5.942324 0.361776
v -0.361776 -5.942324 0.361776
v -0.361776 -5.942324 -0.361776
v 0.361776 -5.942324 -0.361776
v 0.608866 -7.021892 -0.608866
v -0.608866 -7.021892 -0.608866
vt 0.873432 0.079873
vt 0.901151 0.079825
vt 0.900929 0.123521
vt 0.874056 0.123568
vt 0.957736 0.123412
vt 0.929342 0.123468
vt 0.929144 0.079772
vt 0.967879 0.079695
vt 0.834970 0.079937
vt 0.845319 0.123616
vt 0.873349 0.305638
vt 0.901943 0.305587
vt 0.902054 0.366376
vt 0.873454 0.366426
vt 0.846746 0.305682
vt 0.846847 0.366470
vt 0.957261 0.366269
vt 0.930654 0.366322
vt 0.930537 0.305534
vt 0.957141 0.305481
vt 0.873322 0.289627
vt 0.901914 0.289577
vt 0.901929 0.297582
vt 0.873336 0.297633
vt 0.846719 0.289671
vt 0.842621 0.297683
vt 0.961237 0.297468
vt 0.930522 0.297529
vt 0.930506 0.289523
vt 0.957109 0.289471
vt 0.873236 0.239369
vt 0.901823 0.239318
vt 0.901869 0.264448
vt 0.873279 0.264498
vt 0.846637 0.239413
vt 0.840099 0.264553
vt 0.963638 0.264328
vt 0.930457 0.264394
vt 0.930409 0.239264
vt 0.957009 0.239212
vt 0.873204 0.220473
vt 0.901789 0.220422
vt 0.901806 0.229870
vt 0.873220 0.229921
vt 0.846605 0.220517
vt 0.841412 0.229973
vt 0.962199 0.229753
vt 0.930391 0.229817
vt 0.930373 0.220369
vt 0.956972 0.220316
vt 0.873290 0.125906
vt 0.901864 0.125855
vt 0.847191 0.125949
vt 0.929758 0.125803
vt 0.955980 0.125751
vt 0.862517 0.030603
vt 0.911806 0.030516
vn 0.000000 0.223110 0.974793
vn 0.000000 0.223110 0.974793
vn 0.000000 0.223110 0.974793
vn 0.000000 0.223110 0.974793
vn 0.000000 0.223110 -0.974793
vn 0.000000 0.223110 -0.974793
vn 0.000000 0.223110 -0.974793
vn 0.000000 0.223110 -0.974793
vn 0.974793 0.223110 0.000000
vn 0.974793 0.223110 0.000000
vn 0.974793 0.223110 0.000000
vn 0.974793 0.223110 0.000000
vn -0.974793 0.223110 0.000000
vn -0.974793 0.223110 0.000000
vn -0.974793 0.223110 0.000000
vn -0.974793 0.223110 0.000000
vn 0.000000 0.095557 0.995424
vn 0.000000 0.095557 0.995424
vn 0.000000 0.000000 1.000000
vn 0.000000 0.000000 1.000000
vn -0.995424 0.095557 0.000000
vn -0.995424 0.095557 0.000000
vn -1.000000 0.000000 0.000000
vn -1.000000 0.000000 0.000000
vn 0.000000 0.000000 -1.000000
vn 0.000000 0.000000 -1.000000
vn 0.000000 0.095557 -0.995424
vn 0.000000 0.095557 -0.995424
vn 0.995424 0.095557 0.000000
vn 0.995424 0.095557 0.000000
vn 1.000000 0.000000 0.000000
vn 1.000000 0.000000 0.000000
vn 0.000000 0.084507 0.996423
vn 0.000000 0.084507 0.996423
vn 0.000000 0.000000 1.000000
vn 0.000000 0.000000 1.000000
vn -0.996423 0.084507 0.000000
vn -0.996423 0.084507 0.000000
vn -1.000000 0.000000 0.000000
vn -1.000000 0.000000 0.000000
vn 0.000000 0.000000 -1.000000
vn 0.000000 0.000000 -1.000000
vn 0.000000 0.084507 -0.996423
vn 0.000000 0.084507 -0.996423
vn 0.996423 0.084507 0.000000
vn 0.996423 0.084507 0.000000
vn 1.000000 0.000000 0.000000
vn 1.000000 0.000000 0.000000
vn 0.000000 -0.045428 0.998968
vn 0.000000 -0.045428 0.998968
vn 0.000000 0.000000 1.000000
vn 0.000000 0.000000 1.000000
vn -0.998968 -0.045428 0.000000
vn -0.998968 -0.045428 0.000000
vn -1.000000 0.000000 0.000000
vn -1.000000 0.000000 0.000000
vn 0.000000 0.000000 -1.000000
vn 0.000000 0.000000 -1.000000
vn 0.000000 -0.045428 -0.998968
vn 0.000000 -0.045428 -0.998968
vn 0.998968 -0.045428 0.000000
vn 0.998968 -0.045428 0.000000
vn 1.000000 0.000000 0.000000
vn 1.000000 0.000000 0.000000
vn 0.000000 -0.084228 0.996446
vn 0.000000 -0.084228 0.996446
vn 0.000000 0.000000 1.000000
vn 0.000000 0.000000 1.000000
vn -0.996446 -0.084228 0.000000
vn -0.996446 -0.084228 0.000000
vn -1.000000 0.000000 0.000000
vn -1.000000 0.000000 0.000000
vn 0.000000 0.000000 -1.000000
vn 0.000000 0.000000 -1.000000
vn 0.000000 -0.084228 -0.996446
vn 0.000000 -0.084228 -0.996446
vn 0.996446 -0.084228 0.000000
vn 0.996446 -0.084228 0.000000
vn 1.000000 0.000000 0.000000
vn 1.000000 0.000000 0.000000
vn 0.000000 0.000000 1.000000
vn 0.000000 0.000000 1.000000
vn 0.000000 0.095557 0.995424
vn 0.000000 0.095557 0.995424
vn -1.000000 0.000000 0.000000
vn -1.000000 0.000000 0.000000
vn -0.995424 0.095557 0.000000
vn -0.995424 0.095557 0.000000
vn 0.000000 0.095557 -0.995424
vn 0.000000 0.095557 -0.995424
vn 0.000000 0.000000 -1.000000
vn 0.000000 0.000000 -1.000000
vn 1.000000 0.000000 0.000000
vn 1.000000 0.000000 0.000000
vn 0.995424 0.095557 0.000000
vn 0.995424 0.095557 0.000000
vn 0.000000 0.000000 1.000000
vn 0.000000 0.000000 1.000000
vn 0.000000 0.084507 0.996423
vn 0.000000 0.084507 0.996423
vn -1.000000 0.000000 0.000000
vn -1.000000 0.000000 0.000000
vn -0.996423 0.084507 0.000000
vn -0.996423 0.084507 0.000000
vn 0.000000 0.084507 -0.996423
vn 0.000000 0.084507 -0.996423
vn 0.000000 0.000000 -1.000000
vn 0.000000 0.000000 -1.000000
vn 1.000000 0.000000 0.000000
vn 1.000000 0.000000 0.000000
vn 0.996423 0.084507 0.000000
vn 0.996423 0.084507 0.000000
vn 0.000000 0.000000 1.000000
vn 0.000000 0.000000 1.000000
vn 0.000000 -0.045428 0.998968
vn 0.000000 -0.045428 0.998968
vn -1.000000 0.000000 0.000000
vn -1.000000 0.000000 0.000000
vn -0.998968 -0.045428 0.000000
vn -0.998968 -0.045428 0.000000
vn 0.000000 -0.045428 -0.998968
vn 0.000000 -0.045428 -0.998968
vn 0.000000 0.000000 -1.000000
vn 0.000000 0.000000 -1.000000
vn 1.000000 0.000000 0.000000
vn 1.000000 0.000000 0.000000
vn 0.998968 -0.045428 0.000000
vn 0.998968 -0.045428 0.000000
vn 0.000000 0.000000 1.000000
vn 0.000000 0.000000 1.000000
vn 0.000000 -0.084228 0.996446
vn 0.000000 -0.084228 0.996446
vn -1.000000 0.000000 0.000000
vn -1.000000 0.000000 0.000000
vn -0.996446 -0.084228 0.000000
vn -0.996446 -0.084228 0.000000
vn 0.000000 -0.084228 -0.996446
vn 0.000000 -0.084228 -0.996446
vn 0.000000 0.000000 -1.000000
vn 0.000000 0.000000 -1.000000
vn 1.000000 0.000000 0.000000
vn 1.000000 0.000000 0.000000
vn 0.996446 -0.084228 0.000000
vn 0.996446 -0.084228 0.000000
vn 0.000000 1.000000 0.000001
vn 0.000000 1.000000 0.000001
vn 0.000000 1.000000 0.000001
vn 0.000000 1.000000 0.000001
vn 0.000000 1.000000 -0.000001
vn 0.000000 1.000000 -0.000001
vn 0.000000 1.000000 -0.000001
vn 0.000000 1.000000 -0.000001
vn 0.000000 1.000000 -0.000001
vn 0.000000 1.000000 0.000001
vn 0.000000 1.000000 0.000001
vn 0.000000 1.000000 -0.000001
vn 0.000000 -1.000000 0.000000
vn 0.000000 -1.000000 0.000000
vn 0.000000 -1.000000 0.000000
vn 0.000000 -1.000000 0.000000
vn 0.000000 1.000000 0.000001
vn 0.000000 1.000000 -0.000001
vn 0.000000 1.000000 -0.000001
vn 0.000000 1.000000 0.000001
s off
usemtl chair_Leg_4_initialShadingGroup
f 37/1/1 38/2/2 39/3/3 40/4/4
f 41/5/5 42/6/6 43/7/7 44/8/8
f 38/2/9 43/7/10 42/6/11 39/3/12
f 44/9/13 37/1/14 40/4/15 41/10/16
f 6/11/17 5/12/18 2/13/19 1/14/20
f 7/15/21 6/11/22 1/14/23 3/16/24
f 3/17/25 4/18/26 8/19/27 7/20/28
f 5/12/29 8/19/30 4/18/31 2/13/32
f 10/21/33 9/22/34 21/23/35 22/24/36
f 11/25/37 10/21/38 22/24/39 23/26/40
f 23/27/41 24/28/42 12/29/43 11/30/44
f 9/22/45 12/29/46 24/28/47 21/23/48
f 14/31/49 13/32/50 25/33/51 26/34/52
f 15/35/53 14/31/54 26/34/55 27/36/56
f 27/37/57 28/38/58 16/39/59 15/40/60
f 13/32/61 16/39/62 28/38/63 25/33/64
f 18/41/65 17/42/66 29/43/67 30/44/68
f 19/45/69 18/41/70 30/44/71 31/46/72
f 31/47/73 32/48/74 20/49/75 19/50/76
f 17/42/77 20/49/78 32/48/79 29/43/80
f 22/24/81 21/23/82 5/12/83 6/11/84
f 23/26/85 22/24/86 6/11/87 7/15/88
f 7/20/89 8/19/90 24/28/91 23/27/92
f 21/23/93 24/28/94 8/19/95 5/12/96
f 26/34/97 25/33/98 9/22/99 10/21/100
f 27/36/101 26/34/102 10/21/103 11/25/104
f 11/30/105 12/29/106 28/38/107 27/37/108
f 25/33/109 28/38/110 12/29/111 9/22/112
f 30/44/113 29/43/114 13/32/115 14/31/116
f 31/46/117 30/44/118 14/31/119 15/35/120
f 15/40/121 16/39/122 32/48/123 31/47/124
f 29/43/125 32/48/126 16/39/127 13/32/128
f 34/51/129 33/52/130 17/42/131 18/41/132
f 35/53/133 34/51/134 18/41/135 19/45/136
f 19/50/137 20/49/138 36/54/139 35/55/140
f 33/52/141 36/54/142 20/49/143 17/42/144
f 33/52/145 34/51/146 40/4/147 39/3/148
f 35/55/149 36/54/150 42/6/151 41/5/152
f 36/54/153 33/52/154 39/3/155 42/6/156
f 38/2/157 37/1/158 44/56/159 43/57/160
f 34/51/161 35/53/162 41/10/163 40/4/164
