# This file uses centimeters as units for non-parametric coordinates.

g default
v -4.685007 -0.290332 4.018935
v 4.685007 -0.290332 4.018935
v -4.685007 0.290332 4.018935
v 4.685007 0.290332 4.018935
v -3.654018 0.245001 -4.018935
v 3.654018 0.245001 -4.018935
v -3.654018 -0.245001 -4.018935
v 3.654018 -0.245001 -4.018935
v 3.552976 0.235469 -2.870668
v -3.552976 0.235469 -2.870668
v -3.552976 -0.235469 -2.870668
v 3.552976 -0.235469 -2.870668
v 3.535202 0.231610 -1.722400
v -3.535202 0.231610 -1.722400
v -3.535202 -0.231610 -1.722400
v 3.535202 -0.231610 -1.722400
v 3.609828 0.233824 -0.574133
v -3.609828 0.233824 -0.574133
v -3.609828 -0.233824 -0.574133
v 3.609828 -0.233824 -0.574133
v 3.776460 0.241882 0.574134
v -3.776460 0.241882 0.574134
v -3.776460 -0.241882 0.574134
v 3.776460 -0.241882 0.574134
v 4.025006 0.254949 1.722401
v -4.025006 0.254949 1.722401
v -4.025006 -0.254949 1.722401
v 4.025006 -0.254949 1.722401
v 4.336520 0.271676 2.870668
v -4.336520 0.271676 2.870668
v -4.336520 -0.271676 2.870668
v 4.336520 -0.271676 2.870668
v -3.579492 -0.194010 3.291078
v 3.579492 -0.194010 3.291078
v -3.579492 0.336542 3.291078
v 3.579492 0.336542 3.291078
v -2.791785 0.291211 -2.850109
v 2.791785 0.291211 -2.850109
v -2.791785 -0.148679 -2.850109
v 2.791785 -0.148679 -2.850109
v 2.613986 0.490158 2.514390
v -2.613986 0.490158 2.514390
v 2.038750 0.457054 -1.970318
v -2.038750 0.457054 -1.970318
v -2.524966 0.407099 -2.531049
v 2.524966 0.407099 -2.531049
v 3.237390 0.446359 3.023207
v -3.237390 0.446359 3.023207
vt 2.912635 2.820665
vt -0.260552 2.820665
vt -0.173615 2.411737
vt 2.825699 2.411737
vt 2.842166 -2.582090
vt -0.190086 -2.582088
vt -0.311923 -2.983596
vt 2.964004 -2.983598
vt 2.553047 0.399029
vt 0.099037 0.399029
vt 0.111119 -0.001008
vt 2.540965 -0.001009
vt 2.603553 -0.173264
vt 0.048530 -0.173262
vt 0.083857 -0.574731
vt 2.568227 -0.574733
vt 2.578598 0.798454
vt 0.073486 0.798454
vt 0.090070 -0.976189
vt 2.562012 -0.976190
vt 2.619305 1.198423
vt 0.032778 1.198423
vt 0.063979 -1.377645
vt 2.588102 -1.377646
vt 2.675319 1.600200
vt -0.023236 1.600200
vt 0.005722 -1.779109
vt 2.646360 -1.779111
vt 2.745140 2.004629
vt -0.093057 2.004629
vt -0.081175 -2.180591
vt 2.733256 -2.180592
vt 5.898148 2.173855
vt 4.070052 2.173689
vt 4.268963 0.604351
vt 5.697992 0.602763
vt 6.238410 2.447928
vt 3.730275 2.448741
vt 3.851707 2.352381
vt 6.116663 2.352496
vt 4.002764 0.293938
vt 4.097785 0.407641
vt 5.963572 0.292148
vt 5.868924 0.405706
vt -0.410209 2.804640
vt -0.345256 2.390111
vt -0.281468 1.979024
vt -0.219675 1.572921
vt -0.160326 1.171616
vt -0.103468 0.773351
vt -0.048823 0.375582
vt 0.004066 -0.023953
vt 2.997339 2.390111
vt 3.062293 2.804641
vt 2.933552 1.979024
vt 2.871758 1.572921
vt 2.812409 1.171616
vt 2.755551 0.773352
vt 2.700907 0.375582
vt 2.648017 -0.023953
vt 3.546790 2.421165
vt 3.845530 0.277159
vt 6.120867 0.275834
vt 6.421785 2.419535
vt 2.964005 3.011395
vt -0.311922 3.011395
vt 6.235853 2.637372
vt 3.732942 2.637557
vt 4.006969 0.140140
vt 5.959085 0.138359
vn 0.000000 0.000000 1.000000
vn 0.000000 0.000000 1.000000
vn 0.000000 0.000000 1.000000
vn 0.000000 0.000000 1.000000
vn 0.000000 1.000000 0.000000
vn 0.000000 1.000000 0.000000
vn 0.000000 0.999879 -0.015584
vn 0.000000 0.999879 -0.015584
vn 0.000000 0.000000 -1.000000
vn 0.000000 0.000000 -1.000000
vn 0.000000 0.000000 -1.000000
vn 0.000000 0.000000 -1.000000
vn 0.000000 -0.999879 -0.015584
vn 0.000000 -0.999879 -0.015584
vn 0.000000 -1.000000 0.000000
vn 0.000000 -1.000000 0.000000
vn 1.000000 0.000000 0.000000
vn 0.960925 0.000000 -0.276808
vn 0.960925 0.000000 -0.276808
vn 1.000000 0.000000 0.000000
vn -0.960925 0.000000 -0.276808
vn -1.000000 0.000000 0.000000
vn -1.000000 0.000000 0.000000
vn -0.960925 0.000000 -0.276808
vn 0.000000 0.999982 0.005930
vn 0.000000 0.999982 0.005930
vn 0.000000 1.000000 0.000000
vn 0.000000 1.000000 0.000000
vn -1.000000 0.000000 0.000000
vn -0.998631 0.000000 0.052312
vn -0.998631 0.000000 0.052312
vn -1.000000 0.000000 0.000000
vn 0.000000 -1.000000 0.000000
vn 0.000000 -1.000000 0.000000
vn 0.000000 -0.999982 0.005930
vn 0.000000 -0.999982 0.005930
vn 0.998631 0.000000 0.052312
vn 0.998631 0.000000 0.052312
vn 1.000000 0.000000 0.000000
vn 1.000000 0.000000 0.000000
vn 0.000000 1.000000 0.000665
vn 0.000000 1.000000 0.000665
vn 0.000000 0.999982 0.005930
vn 0.000000 0.999982 0.005930
vn -0.998631 0.000000 0.052312
vn -0.999696 0.000000 -0.024659
vn -0.999696 0.000000 -0.024659
vn -0.998631 0.000000 0.052312
vn 0.000000 -0.999982 0.005930
vn 0.000000 -0.999982 0.005930
vn 0.000000 -1.000000 0.000665
vn 0.000000 -1.000000 0.000665
vn 0.999696 0.000000 -0.024659
vn 0.999696 0.000000 -0.024659
vn 0.998631 0.000000 0.052312
vn 0.998631 0.000000 0.052312
vn 0.000000 0.999989 -0.004680
vn 0.000000 0.999989 -0.004680
vn 0.000000 1.000000 0.000665
vn 0.000000 1.000000 0.000665
vn -0.999696 0.000000 -0.024659
vn -0.994470 0.000000 -0.105019
vn -0.994470 0.000000 -0.105019
vn -0.999696 0.000000 -0.024659
vn 0.000000 -1.000000 0.000665
vn 0.000000 -1.000000 0.000665
vn 0.000000 -0.999989 -0.004680
vn 0.000000 -0.999989 -0.004680
vn 0.994470 0.000000 -0.105019
vn 0.994470 0.000000 -0.105019
vn 0.999696 0.000000 -0.024659
vn 0.999696 0.000000 -0.024659
vn 0.000000 0.999955 -0.009500
vn 0.000000 0.999955 -0.009500
vn 0.000000 0.999989 -0.004680
vn 0.000000 0.999989 -0.004680
vn -0.994470 0.000000 -0.105019
vn -0.983879 0.000000 -0.178834
vn -0.983879 0.000000 -0.178834
vn -0.994470 0.000000 -0.105019
vn 0.000000 -0.999989 -0.004680
vn 0.000000 -0.999989 -0.004680
vn 0.000000 -0.999955 -0.009500
vn 0.000000 -0.999955 -0.009500
vn 0.983879 0.000000 -0.178834
vn 0.983879 0.000000 -0.178834
vn 0.994470 0.000000 -0.105019
vn 0.994470 0.000000 -0.105019
vn 0.000000 0.999912 -0.013265
vn 0.000000 0.999912 -0.013265
vn 0.000000 0.999955 -0.009500
vn 0.000000 0.999955 -0.009500
vn -0.983879 0.000000 -0.178834
vn -0.971299 0.000000 -0.237861
vn -0.971299 0.000000 -0.237861
vn -0.983879 0.000000 -0.178834
vn 0.000000 -0.999955 -0.009500
vn 0.000000 -0.999955 -0.009500
vn 0.000000 -0.999912 -0.013265
vn 0.000000 -0.999912 -0.013265
vn 0.971299 0.000000 -0.237861
vn 0.971299 0.000000 -0.237861
vn 0.983879 0.000000 -0.178834
vn 0.983879 0.000000 -0.178834
vn 0.000000 0.999879 -0.015584
vn 0.000000 0.999879 -0.015584
vn 0.000000 0.999912 -0.013265
vn 0.000000 0.999912 -0.013265
vn -0.971299 0.000000 -0.237861
vn -0.960925 0.000000 -0.276808
vn -0.960925 0.000000 -0.276808
vn -0.971299 0.000000 -0.237861
vn 0.000000 -0.999912 -0.013265
vn 0.000000 -0.999912 -0.013265
vn 0.000000 -0.999879 -0.015584
vn 0.000000 -0.999879 -0.015584
vn 0.960925 0.000000 -0.276808
vn 0.960925 0.000000 -0.276808
vn 0.971299 0.000000 -0.237861
vn 0.971299 0.000000 -0.237861
vn 0.000000 0.000000 1.000000
vn 0.000000 0.000000 1.000000
vn 0.000000 0.000000 1.000000
vn 0.000000 0.000000 1.000000
vn 0.000000 1.000000 0.000000
vn 0.000000 1.000000 0.000000
vn 0.000000 1.000000 0.000000
vn 0.000000 1.000000 0.000000
vn 0.000000 0.000000 -1.000000
vn 0.000000 0.000000 -1.000000
vn 0.000000 0.000000 -1.000000
vn 0.000000 0.000000 -1.000000
vn 1.000000 0.000000 0.000000
vn 1.000000 0.000000 0.000000
vn 1.000000 0.000000 0.000000
vn 1.000000 0.000000 0.000000
vn -1.000000 0.000000 0.000000
vn -1.000000 0.000000 0.000000
vn -1.000000 0.000000 0.000000
vn -1.000000 0.000000 0.000000
vn -0.188967 0.969226 0.157772
vn 0.188967 0.969226 0.157772
vn 0.131269 0.982378 0.133046
vn -0.131269 0.982378 0.133046
vn 0.188967 0.969226 0.157772
vn 0.176606 0.963559 -0.200909
vn 0.133989 0.980373 -0.144621
vn 0.131269 0.982378 0.133046
vn 0.176606 0.963559 -0.200909
vn -0.176607 0.963559 -0.200909
vn -0.133989 0.980373 -0.144621
vn 0.133989 0.980373 -0.144621
vn -0.176607 0.963559 -0.200909
vn -0.188967 0.969226 0.157772
vn -0.131269 0.982378 0.133046
vn -0.133989 0.980373 -0.144621
vn 0.133989 0.980373 -0.144621
vn -0.133989 0.980373 -0.144621
vn 0.000000 1.000000 0.000000
vn 0.000000 1.000000 0.000000
vn 0.131269 0.982378 0.133046
vn 0.133989 0.980373 -0.144621
vn 0.000000 1.000000 0.000000
vn 0.000000 1.000000 0.000000
vn -0.131269 0.982378 0.133046
vn 0.131269 0.982378 0.133046
vn 0.000000 1.000000 0.000000
vn 0.000000 1.000000 0.000000
vn -0.133989 0.980373 -0.144621
vn -0.131269 0.982378 0.133046
vn 0.000000 1.000000 0.000000
vn 0.000000 1.000000 0.000000
s off
g ghost_Mesh
f 1/65/1 2/66/2 4/2/3 3/1/4
f 3/1/5 4/2/6 29/3/7 30/4/8
f 5/12/9 6/11/10 8/14/11 7/13/12
f 31/5/13 32/6/14 2/7/15 1/8/16
f 2/45/17 32/46/18 29/3/19 4/2/20
f 31/53/21 1/54/22 3/1/23 30/4/24
f 10/9/25 9/10/26 6/11/27 5/12/28
f 7/60/29 11/59/30 10/9/31 5/12/32
f 7/13/33 8/14/34 12/15/35 11/16/36
f 9/10/37 12/51/38 8/52/39 6/11/40
f 14/17/41 13/18/42 9/10/43 10/9/44
f 11/59/45 15/58/46 14/17/47 10/9/48
f 11/16/49 12/15/50 16/19/51 15/20/52
f 13/18/53 16/50/54 12/51/55 9/10/56
f 18/21/57 17/22/58 13/18/59 14/17/60
f 15/58/61 19/57/62 18/21/63 14/17/64
f 15/20/65 16/19/66 20/23/67 19/24/68
f 17/22/69 20/49/70 16/50/71 13/18/72
f 22/25/73 21/26/74 17/22/75 18/21/76
f 19/57/77 23/56/78 22/25/79 18/21/80
f 19/24/81 20/23/82 24/27/83 23/28/84
f 21/26/85 24/48/86 20/49/87 17/22/88
f 26/29/89 25/30/90 21/26/91 22/25/92
f 23/56/93 27/55/94 26/29/95 22/25/96
f 23/28/97 24/27/98 28/31/99 27/32/100
f 25/30/101 28/47/102 24/48/103 21/26/104
f 30/4/105 29/3/106 25/30/107 26/29/108
f 27/55/109 31/53/110 30/4/111 26/29/112
f 27/32/113 28/31/114 32/6/115 31/5/116
f 29/3/117 32/46/118 28/47/119 25/30/120
f 33/67/121 34/68/122 36/38/123 35/37/124
f 42/33/125 41/34/126 43/35/127 44/36/128
f 37/43/129 38/41/130 40/69/131 39/70/132
f 38/41/133 36/38/134 34/61/135 40/62/136
f 39/63/137 33/64/138 35/37/139 37/43/140
f 35/37/141 36/38/142 47/39/143 48/40/144
f 36/38/145 38/41/146 46/42/147 47/39/148
f 38/41/149 37/43/150 45/44/151 46/42/152
f 37/43/153 35/37/154 48/40/155 45/44/156
f 46/42/157 45/44/158 44/36/159 43/35/160
f 47/39/161 46/42/162 43/35/163 41/34/164
f 48/40/165 47/39/166 41/34/167 42/33/168
f 45/44/169 48/40/170 42/33/171 44/36/172
