# This file uses centimeters as units for non-parametric coordinates.

mtllib couch_Side_Back_1.mtl
v 0.000000 0.000000 -2.870211
v 0.000000 0.000000 0.000000
v -12.417582 11.505584 -2.744124
v -12.417582 11.201182 -2.870211
v -12.721983 11.201182 -2.744124
v -12.848070 11.201182 -2.439722
v -12.721983 11.505584 -2.439722
v -12.417582 11.803207 -2.324510
v -12.417582 10.980561 -0.126087
v -12.417582 11.278184 -0.545701
v -12.721983 10.980561 -0.430489
v -12.848070 10.676159 -0.430489
v -12.721983 10.676159 -0.126087
v -12.417582 10.676159 0.000000
v -12.417582 0.000000 -2.870211
v -12.848070 0.000000 -2.439722
v -12.721983 0.000000 -2.744124
v -12.417582 0.000000 0.000000
v -12.721983 0.000000 -0.126087
v -12.848070 0.000000 -0.430489
v 0.000000 11.201182 -2.870211
v 0.000000 11.505584 -2.744124
v 0.000000 11.803207 -2.324510
v 0.000000 10.676159 0.000000
v 0.000000 11.278184 -0.545701
v 0.000000 10.980561 -0.126087
v -12.666038 11.449638 -2.688178
v -12.666038 10.924615 -0.182033
vt 0.170331 4.329746
vt 0.051881 4.234722
vt 3.673872 4.247288
vt 3.554765 4.341488
vt -0.066445 4.103889
vt -0.623717 3.489696
vt -0.718329 3.489696
vt -0.718329 0.008200
vt -0.623717 0.008200
vt -0.623717 3.584309
vt 0.000784 3.326511
vt 0.087366 4.329458
vt 0.000784 3.421124
vt 0.089918 3.326502
vt 3.793104 4.117279
vt 0.000784 0.008200
vt 0.158253 7.811222
vt 0.095645 0.008200
vt 3.545252 3.338417
vt 0.075288 7.810934
vt 0.051502 3.420990
vt 3.679898 3.433578
vt 3.682347 0.020573
vt 4.456103 0.026973
vt -0.161182 4.139369
vt 4.429497 3.508368
vt 0.167405 3.326780
vt -0.159015 3.514873
vt -0.064527 3.551010
vt 4.389585 3.602679
vt 4.258459 3.694185
vt 3.750931 3.545590
vt -0.189700 -0.751091
vt -0.700940 3.566920
vt -0.026322 3.420731
vt 0.060173 0.008078
vt 3.542687 7.822964
vt 0.102882 4.252287
vt -0.150184 -0.845568
vt -0.055437 -0.884431
vt 3.804111 -0.871117
vt -0.152991 -0.031847
vt -0.191855 -0.126594
vt -0.144061 4.216653
vn -0.009738 0.010786 -0.999894
vn -0.008857 0.381679 -0.924253
vn -0.000000 0.382682 -0.923880
vn -0.000000 0.010958 -0.999940
vn -0.004524 0.816139 -0.577838
vn -0.030709 0.993756 0.107270
vn 0.000000 0.994693 0.102889
vn -0.000000 0.815661 -0.578530
vn -0.998457 0.011500 -0.054318
vn -0.924060 0.004077 -0.382226
vn -0.923879 0.000000 -0.382684
vn -0.998456 0.000000 -0.055544
vn -0.381570 0.009810 -0.924288
vn -0.009738 0.010786 -0.999894
vn -0.009910 0.000000 -0.999951
vn -0.382684 0.000000 -0.923879
vn -0.030709 0.993756 0.107270
vn -0.643992 0.764967 -0.010008
vn -0.611840 0.737350 0.286298
vn -0.030184 0.937028 0.347947
vn -0.924414 0.377959 0.051039
vn -0.998457 0.011500 -0.054318
vn -0.998514 0.010091 0.053554
vn -0.918348 0.375804 0.124128
vn -0.030184 0.937028 0.347947
vn -0.004524 0.816138 0.577839
vn 0.000000 0.815661 0.578531
vn 0.000000 0.936576 0.350465
vn -0.008857 0.381679 0.924253
vn -0.009729 0.011302 0.999889
vn 0.000000 0.011482 0.999934
vn 0.000000 0.382683 0.923880
vn -0.009729 0.011302 0.999889
vn -0.381517 0.010278 0.924305
vn -0.382684 0.000000 0.923879
vn -0.009910 0.000000 0.999951
vn -0.924069 0.004275 0.382203
vn -0.998514 0.010091 0.053554
vn -0.998580 0.000000 0.053282
vn -0.923879 0.000000 0.382684
vn -0.998457 0.011500 -0.054318
vn -0.998456 0.000000 -0.055544
vn -0.998580 0.000000 0.053282
vn -0.998514 0.010091 0.053554
vn -0.030709 0.993756 0.107270
vn -0.030184 0.937028 0.347947
vn 0.000000 0.936576 0.350465
vn 0.000000 0.994693 0.102889
vn -0.009729 0.011302 0.999889
vn -0.009910 0.000000 0.999951
vn 0.000000 0.000000 1.000000
vn 0.000000 0.011482 0.999934
vn -0.000000 0.000000 -1.000000
vn -0.009910 0.000000 -0.999951
vn -0.009738 0.010786 -0.999894
vn -0.000000 0.010958 -0.999940
vn 0.000000 -1.000000 0.000000
vn 0.000000 -1.000000 0.000000
vn 0.000000 -1.000000 0.000000
vn 0.000000 -1.000000 0.000000
vn 0.000000 -1.000000 0.000000
vn 0.000000 -1.000000 0.000000
vn 0.000000 -1.000000 0.000000
vn 0.000000 -1.000000 0.000000
vn 1.000000 0.000000 0.000000
vn 1.000000 0.000000 0.000000
vn 1.000000 0.000000 0.000000
vn 1.000000 0.000000 0.000000
vn 1.000000 0.000000 0.000000
vn 1.000000 0.000000 0.000000
vn 1.000000 0.000000 0.000000
vn 1.000000 0.000000 0.000000
vn -0.643992 0.764967 -0.010008
vn -0.030709 0.993756 0.107270
vn -0.004524 0.816139 -0.577838
vn -0.447334 0.774458 -0.447333
vn -0.008857 0.381679 -0.924253
vn -0.009738 0.010786 -0.999894
vn -0.381570 0.009810 -0.924288
vn -0.325270 0.325268 -0.887919
vn -0.924060 0.004077 -0.382226
vn -0.998457 0.011500 -0.054318
vn -0.924414 0.377959 0.051039
vn -0.887919 0.325269 -0.325269
vn -0.381517 0.010278 0.924305
vn -0.009729 0.011302 0.999889
vn -0.008857 0.381679 0.924253
vn -0.325270 0.325268 0.887919
vn -0.004524 0.816138 0.577839
vn -0.030184 0.937028 0.347947
vn -0.611840 0.737350 0.286298
vn -0.447334 0.774457 0.447334
vn -0.918348 0.375804 0.124128
vn -0.998514 0.010091 0.053554
vn -0.924069 0.004275 0.382203
vn -0.887919 0.325269 0.325270
s off
usemtl couch_Side_Back_1_initialShadingGroup
f 4/1/1 3/2/2 22/3/3 21/4/4
f 3/2/5 8/5/6 23/15/7 22/3/8
f 6/6/9 5/7/10 17/8/11 16/9/12
f 5/12/13 4/1/14 15/17/15 17/20/16
f 8/5/17 7/25/18 11/28/19 10/29/20
f 7/10/21 6/6/22 12/11/23 11/13/24
f 10/29/25 9/21/26 26/22/27 25/32/28
f 9/21/29 14/27/30 24/19/31 26/22/32
f 14/27/33 13/14/34 19/18/35 18/36/36
f 13/14/37 12/11/38 20/16/39 19/18/40
f 6/6/41 16/9/42 20/16/43 12/11/44
f 8/5/45 10/29/46 25/32/47 23/15/48
f 14/27/49 18/36/50 2/23/51 24/19/52
f 1/37/53 15/17/54 4/1/55 21/4/56
f 16/33/57 17/39/58 15/40/59 1/41/60 2/23/61 18/36/62 19/42/63 20/43/64
f 24/19/65 2/23/66 1/24/67 21/26/68 22/30/69 23/31/70 25/32/71 26/22/72
f 7/25/73 8/5/74 3/2/75 27/44/76
f 3/2/77 4/1/78 5/12/79 27/38/80
f 5/7/81 6/6/82 7/10/83 27/34/84
f 13/14/85 14/27/86 9/21/87 28/35/88
f 9/21/89 10/29/90 11/28/91 28/35/92
f 11/13/93 12/11/94 13/14/95 28/35/96
