# This file uses centimeters as units for non-parametric coordinates.

mtllib couch_ArmRest_1.mtl
v -0.107718 0.000000 0.000000
v -0.107718 0.000000 5.105372
v -1.890312 4.721216 0.081294
v -1.890312 4.415919 0.000000
v -2.195609 4.415919 0.081294
v -2.322068 4.415919 0.277558
v -2.195609 4.721216 0.277558
v -1.890312 4.847675 0.277558
v -1.890312 4.721216 5.024076
v -1.890312 4.847675 4.827813
v -2.195609 4.721216 4.827813
v -2.322068 4.415919 4.827813
v -2.195609 4.415919 5.024076
v -1.890312 4.415919 5.105372
v -0.234176 4.721216 0.081294
v -0.539473 4.847675 0.277558
v -0.107718 4.415919 0.000000
v -0.234176 4.721216 5.024076
v -0.539473 4.847675 4.827813
v -0.107718 4.415919 5.105372
v -1.890312 0.000000 0.000000
v -2.322068 0.000000 0.277558
v -2.195609 0.000000 0.081294
v -1.890312 0.000000 5.105372
v -2.195609 0.000000 5.024076
v -2.322068 0.000000 4.827813
v -2.139500 4.665106 0.117365
v -2.139500 4.665106 4.988005
vt 0.146223 0.911062
vt 0.146223 0.972121
vt 0.939433 0.972121
vt 1.000000 0.911062
vt 0.224497 0.950760
vt 0.224497 0.914963
vt 0.775503 0.914963
vt 0.900033 0.950760
vt 0.068065 0.911062
vt 0.030805 0.911062
vt 0.030805 0.027878
vt 0.068065 0.027878
vt 0.000000 0.911062
vt 0.146223 0.027878
vt 0.000000 0.027878
vt 0.099967 0.914963
vt 0.099967 0.085037
vt 0.224497 0.085037
vt 0.068065 0.972121
vt 0.931934 0.911062
vt 0.931934 0.972121
vt 0.224497 0.049240
vt 0.900033 0.049240
vt 0.775503 0.085037
vt 0.146223 0.972121
vt 0.146223 0.911062
vt 1.000000 0.911062
vt 0.939433 0.972121
vt 0.000000 0.911062
vt 0.000000 0.027878
vt 0.146223 0.027878
vt 0.969195 0.911062
vt 0.931934 0.027878
vt 0.969195 0.027878
vt 0.015371 0.911062
vt 0.030805 0.972121
vt 0.969195 0.972121
vt 0.984629 0.911062
vt 0.984629 0.027878
vt 0.015371 0.027878
vt 1.000000 0.027878
vt 1.000000 0.027878
vt 0.048385 0.914963
vt 0.099967 0.950760
vt 0.224497 0.965587
vt 0.951615 0.965587
vt 0.951615 0.034413
vt 0.224497 0.034413
vt 0.099967 0.049240
vt 0.048385 0.085037
vt 0.122854 0.944181
vt 0.026874 0.960900
vt 0.037653 0.960900
vt 0.026874 0.960900
vt 0.122854 0.055819
vt 0.962347 0.960900
vn -0.038318 0.016013 -0.999137
vn -0.027469 0.253862 -0.966850
vn 0.000000 0.257314 -0.966328
vn 0.000000 0.009269 -0.999957
vn -0.044089 0.843855 -0.534757
vn -0.074938 0.996813 -0.027353
vn 0.083543 0.995679 -0.040548
vn 0.000000 0.840614 -0.541634
vn -0.999326 0.026193 -0.025711
vn -0.842250 0.019432 -0.538736
vn -0.840614 0.000000 -0.541634
vn -0.999645 0.000000 -0.026633
vn -0.256215 0.008920 -0.966579
vn -0.038318 0.016013 -0.999137
vn -0.038907 0.000000 -0.999243
vn -0.257314 0.000000 -0.966328
vn -0.074938 0.996813 -0.027353
vn -0.381832 0.924160 -0.011520
vn -0.381832 0.924160 0.011520
vn -0.074938 0.996813 0.027353
vn -0.924289 0.381162 -0.020134
vn -0.999326 0.026193 -0.025711
vn -0.999326 0.026193 0.025711
vn -0.924289 0.381162 0.020134
vn -0.074938 0.996813 0.027353
vn -0.044089 0.843856 0.534756
vn 0.000000 0.840615 0.541633
vn 0.083543 0.995679 0.040548
vn -0.027470 0.253863 0.966850
vn -0.038318 0.016013 0.999137
vn 0.000000 0.009269 0.999957
vn 0.000000 0.257314 0.966328
vn -0.038318 0.016013 0.999137
vn -0.256216 0.008920 0.966579
vn -0.257314 0.000000 0.966328
vn -0.038907 0.000000 0.999243
vn -0.842251 0.019432 0.538735
vn -0.999326 0.026193 0.025711
vn -0.999645 0.000000 0.026633
vn -0.840615 0.000000 0.541633
vn 0.999725 0.023445 0.000000
vn 0.923880 0.382683 0.000000
vn 0.923880 0.382683 0.000000
vn 0.999725 0.023445 0.000000
vn 0.382683 0.923880 0.000000
vn 0.083543 0.995679 -0.040548
vn 0.083543 0.995679 0.040548
vn 0.382683 0.923880 0.000000
vn -0.999326 0.026193 -0.025711
vn -0.999645 0.000000 -0.026633
vn -0.999645 0.000000 0.026633
vn -0.999326 0.026193 0.025711
vn -0.074938 0.996813 -0.027353
vn -0.074938 0.996813 0.027353
vn 0.083543 0.995679 0.040548
vn 0.083543 0.995679 -0.040548
vn 0.999725 0.023445 0.000000
vn 0.999725 0.023445 0.000000
vn 1.000000 0.000000 0.000000
vn 1.000000 0.000000 0.000000
vn -0.038318 0.016013 0.999137
vn -0.038907 0.000000 0.999243
vn 0.000000 0.000000 1.000000
vn 0.000000 0.009269 0.999957
vn 0.000000 0.000000 -1.000000
vn -0.038907 0.000000 -0.999243
vn -0.038318 0.016013 -0.999137
vn 0.000000 0.009269 -0.999957
vn 0.000000 -1.000000 0.000000
vn 0.000000 -1.000000 0.000000
vn 0.000000 -1.000000 0.000000
vn 0.000000 -1.000000 0.000000
vn 0.000000 -1.000000 0.000000
vn 0.000000 -1.000000 0.000000
vn 0.000000 -1.000000 0.000000
vn 0.000000 -1.000000 0.000000
vn -0.381832 0.924160 -0.011520
vn -0.074938 0.996813 -0.027353
vn -0.044089 0.843855 -0.534757
vn -0.303287 0.827914 -0.471779
vn -0.027469 0.253862 -0.966850
vn -0.038318 0.016013 -0.999137
vn -0.256215 0.008920 -0.966579
vn -0.223431 0.223431 -0.948766
vn -0.842250 0.019432 -0.538736
vn -0.999326 0.026193 -0.025711
vn -0.924289 0.381162 -0.020134
vn -0.827914 0.303287 -0.471779
vn -0.256216 0.008920 0.966579
vn -0.038318 0.016013 0.999137
vn -0.027470 0.253863 0.966850
vn -0.223433 0.223433 0.948765
vn -0.044089 0.843856 0.534756
vn -0.074938 0.996813 0.027353
vn -0.381832 0.924160 0.011520
vn -0.303288 0.827914 0.471778
vn -0.924289 0.381162 0.020134
vn -0.999326 0.026193 0.025711
vn -0.842251 0.019432 0.538735
vn -0.827914 0.303288 0.471778
s off
usemtl ghost_initialShadingGroup
f 4/1/1 3/2/2 15/3/3 17/4/4
f 3/5/5 8/6/6 16/7/7 15/8/8
f 6/9/9 5/10/10 23/11/11 22/12/12
f 5/13/13 4/1/14 21/14/15 23/15/16
f 8/6/17 7/16/18 11/17/19 10/18/20
f 7/19/21 6/9/22 12/20/23 11/21/24
f 10/18/25 9/22/26 18/23/27 19/24/28
f 9/25/29 14/26/30 20/27/31 18/28/32
f 14/26/33 13/29/34 25/30/35 24/31/36
f 13/32/37 12/20/38 26/33/39 25/34/40
f 17/35/41 15/36/42 18/37/43 20/38/44
f 15/8/45 16/7/46 19/24/47 18/23/48
f 6/9/49 22/12/50 26/33/51 12/20/52
f 8/6/53 10/18/54 19/24/55 16/7/56
f 17/35/57 20/38/58 2/39/59 1/40/60
f 14/26/61 24/31/62 2/41/63 20/27/64
f 1/42/65 21/14/66 4/1/67 17/4/68
f 22/43/69 23/44/70 21/45/71 1/46/72 2/47/73 24/48/74 25/49/75 26/50/76
f 7/16/77 8/6/78 3/5/79 27/51/80
f 3/2/81 4/1/82 5/13/83 27/52/84
f 5/10/85 6/9/86 7/19/87 27/53/88
f 13/29/89 14/26/90 9/25/91 28/54/92
f 9/22/93 10/18/94 11/17/95 28/55/96
f 11/21/97 12/20/98 13/32/99 28/56/100
