# This file uses centimeters as units for non-parametric coordinates.

mtllib counter_doors_2.mtl
v 4.527900 2.197973 0.036035
v 4.527900 4.587703 0.036035
v -4.540758 2.197973 0.036035
v -4.540758 4.587703 0.036035
v -4.540758 2.197973 -0.163118
v -4.540758 4.587703 -0.163118
v 4.527900 2.197973 -0.163118
v 4.527900 4.587703 -0.163118
v 4.270006 2.445842 0.163118
v 4.270006 4.339834 0.163118
v -4.282864 4.339834 0.163118
v -4.282864 2.445842 0.163118
v -4.540758 -4.612111 0.105389
v -0.012858 -4.612111 0.105389
v -4.540758 2.120553 0.105389
v -0.012858 2.120553 0.105389
v -4.540758 2.120553 -0.093764
v -0.012858 2.120553 -0.093764
v -4.540758 -4.612111 -0.093764
v -0.012858 -4.612111 -0.093764
v -4.282864 -4.385797 0.232473
v -0.270753 -4.385797 0.232473
v -0.270753 1.894239 0.232473
v -4.282864 1.894239 0.232473
v 0.000000 -4.612111 0.105389
v 4.527900 -4.612111 0.105389
v 0.000000 2.120553 0.105389
v 4.527900 2.120553 0.105389
v 0.000000 2.120553 -0.093764
v 4.527900 2.120553 -0.093764
v 0.000000 -4.612111 -0.093764
v 4.527900 -4.612111 -0.093764
v 0.257895 -4.385797 0.232473
v 4.270006 -4.385797 0.232473
v 4.270006 1.894239 0.232473
v 0.257895 1.894239 0.232473
v 0.548647 -0.602985 0.757928
v 0.808373 -0.602985 0.757928
v 0.548647 0.602985 0.757928
v 0.808373 0.602985 0.757928
v 0.548647 0.602985 0.000000
v 0.808373 0.602985 0.000000
v 0.548647 -0.602985 0.000000
v 0.808373 -0.602985 0.000000
v 0.808373 0.602985 0.568446
v 0.548647 0.602985 0.568446
v 0.548647 -0.602985 0.568446
v 0.808373 -0.602985 0.568446
v 0.808373 0.408111 0.568446
v 0.808373 0.408111 0.757928
v 0.548647 0.408111 0.757928
v 0.548647 0.408111 0.568446
v 0.548647 0.408111 0.000000
v 0.808373 0.408111 0.000000
v 0.808373 -0.408111 0.568446
v 0.808373 -0.408111 0.757928
v 0.548647 -0.408111 0.757928
v 0.548647 -0.408111 0.568446
v 0.548647 -0.408111 0.000000
v 0.808373 -0.408111 0.000000
v -0.808163 -0.602985 0.757928
v -0.548437 -0.602985 0.757928
v -0.808163 0.602985 0.757928
v -0.548437 0.602985 0.757928
v -0.808163 0.602985 0.000000
v -0.548437 0.602985 0.000000
v -0.808163 -0.602985 0.000000
v -0.548437 -0.602985 0.000000
v -0.548437 0.602985 0.568446
v -0.808163 0.602985 0.568446
v -0.808163 -0.602985 0.568446
v -0.548437 -0.602985 0.568446
v -0.548437 0.408111 0.568446
v -0.548437 0.408111 0.757928
v -0.808163 0.408111 0.757928
v -0.808163 0.408111 0.568446
v -0.808163 0.408111 0.000000
v -0.548437 0.408111 0.000000
v -0.548437 -0.408111 0.568446
v -0.548437 -0.408111 0.757928
v -0.808163 -0.408111 0.757928
v -0.808163 -0.408111 0.568446
v -0.808163 -0.408111 0.000000
v -0.548437 -0.408111 0.000000
vt 0.077562 0.057569
vt 0.101501 0.057569
vt 0.101501 0.081507
vt 0.077562 0.081507
vt 0.077562 0.081507
vt 0.101501 0.081507
vt 0.101501 0.105445
vt 0.077562 0.105445
vt 0.101501 0.129383
vt 0.077562 0.129383
vt 0.101501 0.153321
vt 0.077562 0.153321
vt 0.101501 0.057569
vt 0.125439 0.057569
vt 0.125439 0.081507
vt 0.053624 0.057569
vt 0.077562 0.057569
vt 0.053624 0.081507
vt 0.077562 0.057569
vt 0.101501 0.057569
vt 0.101501 0.081507
vt 0.077562 0.081507
vt 0.077562 0.081507
vt 0.101501 0.081507
vt 0.101501 0.105445
vt 0.077562 0.105445
vt 0.101501 0.129383
vt 0.077562 0.129383
vt 0.101501 0.153321
vt 0.077562 0.153321
vt 0.101501 0.057569
vt 0.125439 0.057569
vt 0.125439 0.081507
vt 0.053624 0.057569
vt 0.077562 0.057569
vt 0.053624 0.081507
vt 0.077562 0.057569
vt 0.101501 0.057569
vt 0.101501 0.081507
vt 0.077562 0.081507
vt 0.077562 0.081507
vt 0.101501 0.081507
vt 0.101501 0.105445
vt 0.077562 0.105445
vt 0.101501 0.129383
vt 0.077562 0.129383
vt 0.101501 0.153321
vt 0.077562 0.153321
vt 0.101501 0.057569
vt 0.125439 0.057569
vt 0.125439 0.081507
vt 0.053624 0.057569
vt 0.077562 0.057569
vt 0.053624 0.081507
vt 0.287844 0.050450
vt 0.316101 0.050450
vt 0.316101 0.057515
vt 0.287844 0.057515
vt 0.287844 0.078708
vt 0.316101 0.078708
vt 0.316101 0.085772
vt 0.287844 0.085772
vt 0.273715 0.092837
vt 0.330230 0.092837
vt 0.316101 0.135223
vt 0.287844 0.135223
vt 0.287844 0.156417
vt 0.316101 0.156417
vt 0.316101 0.163481
vt 0.287844 0.163481
vt 0.323166 0.050450
vt 0.323166 0.057515
vt 0.280779 0.050450
vt 0.280779 0.057515
vt 0.287844 0.106966
vt 0.316101 0.106966
vt 0.259586 0.050450
vt 0.344359 0.050450
vt 0.344359 0.078708
vt 0.323166 0.078708
vt 0.323166 0.071643
vt 0.330230 0.092837
vt 0.316101 0.071643
vt 0.287844 0.071643
vt 0.280779 0.071643
vt 0.280779 0.078708
vt 0.273715 0.092837
vt 0.259586 0.078708
vt 0.287844 0.050450
vt 0.316101 0.050450
vt 0.316101 0.057515
vt 0.287844 0.057515
vt 0.287844 0.078708
vt 0.316101 0.078708
vt 0.316101 0.085772
vt 0.287844 0.085772
vt 0.273715 0.092837
vt 0.330230 0.092837
vt 0.316101 0.135223
vt 0.287844 0.135223
vt 0.287844 0.156417
vt 0.316101 0.156417
vt 0.316101 0.163481
vt 0.287844 0.163481
vt 0.323166 0.050450
vt 0.323166 0.057515
vt 0.280779 0.050450
vt 0.280779 0.057515
vt 0.287844 0.106966
vt 0.316101 0.106966
vt 0.259586 0.050450
vt 0.344359 0.050450
vt 0.344359 0.078708
vt 0.323166 0.078708
vt 0.323166 0.071643
vt 0.330230 0.092837
vt 0.316101 0.071643
vt 0.287844 0.071643
vt 0.280779 0.071643
vt 0.280779 0.078708
vt 0.273715 0.092837
vt 0.259586 0.078708
vn 0.019487 -0.081405 0.996491
vn 0.019487 0.081405 0.996491
vn -0.019487 0.081405 0.996491
vn -0.019487 -0.081405 0.996491
vn -1.000000 0.000000 0.000000
vn -1.000000 0.000000 0.000000
vn -1.000000 0.000000 0.000000
vn -1.000000 0.000000 0.000000
vn 0.000000 0.000000 -1.000000
vn 0.000000 0.000000 -1.000000
vn 0.000000 0.000000 -1.000000
vn 0.000000 0.000000 -1.000000
vn 1.000000 0.000000 0.000000
vn 1.000000 0.000000 0.000000
vn 1.000000 0.000000 0.000000
vn 1.000000 0.000000 0.000000
vn 0.000000 1.000000 0.000000
vn 0.000000 1.000000 0.000000
vn 0.000000 1.000000 0.000000
vn 0.000000 1.000000 0.000000
vn 0.000000 -1.000000 0.000000
vn 0.000000 -1.000000 0.000000
vn 0.000000 -1.000000 0.000000
vn 0.000000 -1.000000 0.000000
vn 0.094885 -0.374231 0.922468
vn 0.094885 0.374232 0.922468
vn 0.019487 0.081405 0.996491
vn 0.019487 -0.081405 0.996491
vn 0.094885 0.374232 0.922468
vn -0.094885 0.374232 0.922468
vn -0.019487 0.081405 0.996491
vn 0.019487 0.081405 0.996491
vn -0.094885 0.374232 0.922468
vn -0.094885 -0.374231 0.922468
vn -0.019487 -0.081405 0.996491
vn -0.019487 0.081405 0.996491
vn -0.094885 -0.374231 0.922468
vn 0.094885 -0.374231 0.922468
vn 0.019487 -0.081405 0.996491
vn -0.019487 -0.081405 0.996491
vn -0.040520 -0.027963 0.998787
vn 0.040520 -0.027963 0.998787
vn 0.040520 0.027963 0.998787
vn -0.040520 0.027963 0.998787
vn 0.000000 1.000000 0.000000
vn 0.000000 1.000000 0.000000
vn 0.000000 1.000000 0.000000
vn 0.000000 1.000000 0.000000
vn 0.000000 0.000000 -1.000000
vn 0.000000 0.000000 -1.000000
vn 0.000000 0.000000 -1.000000
vn 0.000000 0.000000 -1.000000
vn 0.000000 -1.000000 0.000000
vn 0.000000 -1.000000 0.000000
vn 0.000000 -1.000000 0.000000
vn 0.000000 -1.000000 0.000000
vn 1.000000 0.000000 0.000000
vn 1.000000 0.000000 0.000000
vn 1.000000 0.000000 0.000000
vn 1.000000 0.000000 0.000000
vn -1.000000 0.000000 0.000000
vn -1.000000 0.000000 0.000000
vn -1.000000 0.000000 0.000000
vn -1.000000 0.000000 0.000000
vn -0.306802 -0.175660 0.935423
vn 0.306802 -0.175660 0.935423
vn 0.040520 -0.027963 0.998787
vn -0.040520 -0.027963 0.998787
vn 0.306802 -0.175660 0.935423
vn 0.306803 0.175660 0.935423
vn 0.040520 0.027963 0.998787
vn 0.040520 -0.027963 0.998787
vn 0.306803 0.175660 0.935423
vn -0.306803 0.175660 0.935423
vn -0.040520 0.027963 0.998787
vn 0.040520 0.027963 0.998787
vn -0.306803 0.175660 0.935423
vn -0.306802 -0.175660 0.935423
vn -0.040520 -0.027963 0.998787
vn -0.040520 0.027963 0.998787
vn -0.040520 -0.027963 0.998787
vn 0.040520 -0.027963 0.998787
vn 0.040520 0.027963 0.998787
vn -0.040520 0.027963 0.998787
vn 0.000000 1.000000 0.000000
vn 0.000000 1.000000 0.000000
vn 0.000000 1.000000 0.000000
vn 0.000000 1.000000 0.000000
vn 0.000000 0.000000 -1.000000
vn 0.000000 0.000000 -1.000000
vn 0.000000 0.000000 -1.000000
vn 0.000000 0.000000 -1.000000
vn 0.000000 -1.000000 0.000000
vn 0.000000 -1.000000 0.000000
vn 0.000000 -1.000000 0.000000
vn 0.000000 -1.000000 0.000000
vn 1.000000 0.000000 0.000000
vn 1.000000 0.000000 0.000000
vn 1.000000 0.000000 0.000000
vn 1.000000 0.000000 0.000000
vn -1.000000 0.000000 0.000000
vn -1.000000 0.000000 0.000000
vn -1.000000 0.000000 0.000000
vn -1.000000 0.000000 0.000000
vn -0.306802 -0.175660 0.935423
vn 0.306802 -0.175660 0.935423
vn 0.040520 -0.027963 0.998787
vn -0.040520 -0.027963 0.998787
vn 0.306802 -0.175660 0.935423
vn 0.306803 0.175660 0.935423
vn 0.040520 0.027963 0.998787
vn 0.040520 -0.027963 0.998787
vn 0.306803 0.175660 0.935423
vn -0.306803 0.175660 0.935423
vn -0.040520 0.027963 0.998787
vn 0.040520 0.027963 0.998787
vn -0.306803 0.175660 0.935423
vn -0.306802 -0.175660 0.935423
vn -0.040520 -0.027963 0.998787
vn -0.040520 0.027963 0.998787
vn 0.000000 0.000000 1.000000
vn 0.000000 0.000000 1.000000
vn 0.000000 0.000000 1.000000
vn 0.000000 0.000000 1.000000
vn 0.000000 1.000000 0.000000
vn 0.000000 1.000000 0.000000
vn 0.000000 1.000000 0.000000
vn 0.000000 1.000000 0.000000
vn 0.000000 0.000000 -1.000000
vn 0.000000 0.000000 -1.000000
vn 0.000000 0.000000 -1.000000
vn 0.000000 0.000000 -1.000000
vn 0.000000 -1.000000 0.000000
vn 0.000000 -1.000000 0.000000
vn 0.000000 -1.000000 0.000000
vn 0.000000 -1.000000 0.000000
vn 1.000000 0.000000 0.000000
vn 1.000000 0.000000 0.000000
vn 1.000000 0.000000 0.000000
vn 1.000000 0.000000 0.000000
vn -1.000000 0.000000 0.000000
vn -1.000000 0.000000 0.000000
vn -1.000000 0.000000 0.000000
vn -1.000000 0.000000 0.000000
vn 0.000000 1.000000 0.000000
vn 0.000000 1.000000 0.000000
vn 0.000000 1.000000 0.000000
vn 0.000000 1.000000 0.000000
vn -1.000000 0.000000 0.000000
vn -1.000000 0.000000 0.000000
vn -1.000000 0.000000 0.000000
vn -1.000000 0.000000 0.000000
vn 0.000000 -1.000000 0.000000
vn 0.000000 -1.000000 0.000000
vn 0.000000 -1.000000 0.000000
vn 0.000000 -1.000000 0.000000
vn 1.000000 0.000000 0.000000
vn 1.000000 0.000000 0.000000
vn 1.000000 0.000000 0.000000
vn 1.000000 0.000000 0.000000
vn 1.000000 0.000000 0.000000
vn 1.000000 0.000000 0.000000
vn 1.000000 0.000000 0.000000
vn 1.000000 0.000000 0.000000
vn 1.000000 0.000000 0.000000
vn 1.000000 0.000000 0.000000
vn 1.000000 0.000000 0.000000
vn 1.000000 0.000000 0.000000
vn 0.000000 0.000000 1.000000
vn 0.000000 0.000000 1.000000
vn 0.000000 0.000000 1.000000
vn 0.000000 0.000000 1.000000
vn -1.000000 0.000000 0.000000
vn -1.000000 0.000000 0.000000
vn -1.000000 0.000000 0.000000
vn -1.000000 0.000000 0.000000
vn -1.000000 0.000000 0.000000
vn -1.000000 0.000000 0.000000
vn -1.000000 0.000000 0.000000
vn -1.000000 0.000000 0.000000
vn 0.000000 0.000000 -1.000000
vn 0.000000 0.000000 -1.000000
vn 0.000000 0.000000 -1.000000
vn 0.000000 0.000000 -1.000000
vn 1.000000 0.000000 0.000000
vn 1.000000 0.000000 0.000000
vn 1.000000 0.000000 0.000000
vn 1.000000 0.000000 0.000000
vn 0.000000 0.000000 1.000000
vn 0.000000 0.000000 1.000000
vn 0.000000 0.000000 1.000000
vn 0.000000 0.000000 1.000000
vn -1.000000 0.000000 0.000000
vn -1.000000 0.000000 0.000000
vn -1.000000 0.000000 0.000000
vn -1.000000 0.000000 0.000000
vn 0.000000 0.000000 -1.000000
vn 0.000000 0.000000 -1.000000
vn 0.000000 0.000000 -1.000000
vn 0.000000 0.000000 -1.000000
vn 0.000000 -1.000000 0.000000
vn 0.000000 -1.000000 0.000000
vn 0.000000 -1.000000 0.000000
vn 0.000000 -1.000000 0.000000
vn 0.000000 1.000000 0.000000
vn 0.000000 1.000000 0.000000
vn 0.000000 1.000000 0.000000
vn 0.000000 1.000000 0.000000
vn 0.000000 0.000000 1.000000
vn 0.000000 0.000000 1.000000
vn 0.000000 0.000000 1.000000
vn 0.000000 0.000000 1.000000
vn 0.000000 1.000000 0.000000
vn 0.000000 1.000000 0.000000
vn 0.000000 1.000000 0.000000
vn 0.000000 1.000000 0.000000
vn 0.000000 0.000000 -1.000000
vn 0.000000 0.000000 -1.000000
vn 0.000000 0.000000 -1.000000
vn 0.000000 0.000000 -1.000000
vn 0.000000 -1.000000 0.000000
vn 0.000000 -1.000000 0.000000
vn 0.000000 -1.000000 0.000000
vn 0.000000 -1.000000 0.000000
vn 1.000000 0.000000 0.000000
vn 1.000000 0.000000 0.000000
vn 1.000000 0.000000 0.000000
vn 1.000000 0.000000 0.000000
vn -1.000000 0.000000 0.000000
vn -1.000000 0.000000 0.000000
vn -1.000000 0.000000 0.000000
vn -1.000000 0.000000 0.000000
vn 0.000000 1.000000 0.000000
vn 0.000000 1.000000 0.000000
vn 0.000000 1.000000 0.000000
vn 0.000000 1.000000 0.000000
vn -1.000000 0.000000 0.000000
vn -1.000000 0.000000 0.000000
vn -1.000000 0.000000 0.000000
vn -1.000000 0.000000 0.000000
vn 0.000000 -1.000000 0.000000
vn 0.000000 -1.000000 0.000000
vn 0.000000 -1.000000 0.000000
vn 0.000000 -1.000000 0.000000
vn 1.000000 0.000000 0.000000
vn 1.000000 0.000000 0.000000
vn 1.000000 0.000000 0.000000
vn 1.000000 0.000000 0.000000
vn 1.000000 0.000000 0.000000
vn 1.000000 0.000000 0.000000
vn 1.000000 0.000000 0.000000
vn 1.000000 0.000000 0.000000
vn 1.000000 0.000000 0.000000
vn 1.000000 0.000000 0.000000
vn 1.000000 0.000000 0.000000
vn 1.000000 0.000000 0.000000
vn 0.000000 0.000000 1.000000
vn 0.000000 0.000000 1.000000
vn 0.000000 0.000000 1.000000
vn 0.000000 0.000000 1.000000
vn -1.000000 0.000000 0.000000
vn -1.000000 0.000000 0.000000
vn -1.000000 0.000000 0.000000
vn -1.000000 0.000000 0.000000
vn -1.000000 0.000000 0.000000
vn -1.000000 0.000000 0.000000
vn -1.000000 0.000000 0.000000
vn -1.000000 0.000000 0.000000
vn 0.000000 0.000000 -1.000000
vn 0.000000 0.000000 -1.000000
vn 0.000000 0.000000 -1.000000
vn 0.000000 0.000000 -1.000000
vn 1.000000 0.000000 0.000000
vn 1.000000 0.000000 0.000000
vn 1.000000 0.000000 0.000000
vn 1.000000 0.000000 0.000000
vn 0.000000 0.000000 1.000000
vn 0.000000 0.000000 1.000000
vn 0.000000 0.000000 1.000000
vn 0.000000 0.000000 1.000000
vn -1.000000 0.000000 0.000000
vn -1.000000 0.000000 0.000000
vn -1.000000 0.000000 0.000000
vn -1.000000 0.000000 0.000000
vn 0.000000 0.000000 -1.000000
vn 0.000000 0.000000 -1.000000
vn 0.000000 0.000000 -1.000000
vn 0.000000 0.000000 -1.000000
vn 0.000000 -1.000000 0.000000
vn 0.000000 -1.000000 0.000000
vn 0.000000 -1.000000 0.000000
vn 0.000000 -1.000000 0.000000
vn 0.000000 1.000000 0.000000
vn 0.000000 1.000000 0.000000
vn 0.000000 1.000000 0.000000
vn 0.000000 1.000000 0.000000
s off
usemtl initialShadingGroup
f 9/1/1 10/2/2 11/3/3 12/4/4
f 3/5/5 4/6/6 6/7/7 5/8/8
f 5/8/9 6/7/10 8/9/11 7/10/12
f 7/10/13 8/9/14 2/11/15 1/12/16
f 2/13/17 8/14/18 6/15/19 4/6/20
f 7/16/21 1/17/22 3/5/23 5/18/24
f 1/17/25 2/13/26 10/2/27 9/1/28
f 2/13/29 4/6/30 11/3/31 10/2/32
f 4/6/33 3/5/34 12/4/35 11/3/36
f 3/5/37 1/17/38 9/1/39 12/4/40
f 21/19/41 22/20/42 23/21/43 24/22/44
f 15/23/45 16/24/46 18/25/47 17/26/48
f 17/26/49 18/25/50 20/27/51 19/28/52
f 19/28/53 20/27/54 14/29/55 13/30/56
f 14/31/57 20/32/58 18/33/59 16/24/60
f 19/34/61 13/35/62 15/23/63 17/36/64
f 13/35/65 14/31/66 22/20/67 21/19/68
f 14/31/69 16/24/70 23/21/71 22/20/72
f 16/24/73 15/23/74 24/22/75 23/21/76
f 15/23/77 13/35/78 21/19/79 24/22/80
f 33/37/81 34/38/82 35/39/83 36/40/84
f 27/41/85 28/42/86 30/43/87 29/44/88
f 29/44/89 30/43/90 32/45/91 31/46/92
f 31/46/93 32/45/94 26/47/95 25/48/96
f 26/49/97 32/50/98 30/51/99 28/42/100
f 31/52/101 25/53/102 27/41/103 29/54/104
f 25/53/105 26/49/106 34/38/107 33/37/108
f 26/49/109 28/42/110 35/39/111 34/38/112
f 28/42/113 27/41/114 36/40/115 35/39/116
f 27/41/117 25/53/118 33/37/119 36/40/120
f 37/55/121 38/56/122 56/57/123 57/58/124
f 39/59/125 40/60/126 45/61/127 46/62/128
f 59/63/129 60/64/130 44/65/131 43/66/132
f 47/67/133 48/68/134 38/69/135 37/70/136
f 38/56/137 48/71/138 55/72/139 56/57/140
f 47/73/141 37/55/142 57/58/143 58/74/144
f 41/75/145 46/62/146 45/61/147 42/76/148
f 43/77/149 47/73/150 58/74/151 59/63/152
f 48/68/153 47/67/154 43/66/155 44/65/156
f 60/64/157 55/72/158 48/71/159 44/78/160
f 42/79/161 45/80/162 49/81/163 54/82/164
f 50/83/165 49/81/166 45/80/167 40/60/168
f 51/84/169 50/83/170 40/60/171 39/59/172
f 52/85/173 51/84/174 39/59/175 46/86/176
f 53/87/177 52/85/178 46/86/179 41/88/180
f 41/75/181 42/76/182 54/82/183 53/87/184
f 50/83/185 56/57/186 55/72/187 49/81/188
f 51/84/189 57/58/190 56/57/191 50/83/192
f 52/85/193 58/74/194 57/58/195 51/84/196
f 49/81/197 55/72/198 58/74/199 52/85/200
f 52/85/201 53/87/202 54/82/203 49/81/204
f 55/72/205 60/64/206 59/63/207 58/74/208
f 61/89/209 62/90/210 80/91/211 81/92/212
f 63/93/213 64/94/214 69/95/215 70/96/216
f 83/97/217 84/98/218 68/99/219 67/100/220
f 71/101/221 72/102/222 62/103/223 61/104/224
f 62/90/225 72/105/226 79/106/227 80/91/228
f 71/107/229 61/89/230 81/92/231 82/108/232
f 65/109/233 70/96/234 69/95/235 66/110/236
f 67/111/237 71/107/238 82/108/239 83/97/240
f 72/102/241 71/101/242 67/100/243 68/99/244
f 84/98/245 79/106/246 72/105/247 68/112/248
f 66/113/249 69/114/250 73/115/251 78/116/252
f 74/117/253 73/115/254 69/114/255 64/94/256
f 75/118/257 74/117/258 64/94/259 63/93/260
f 76/119/261 75/118/262 63/93/263 70/120/264
f 77/121/265 76/119/266 70/120/267 65/122/268
f 65/109/269 66/110/270 78/116/271 77/121/272
f 74/117/273 80/91/274 79/106/275 73/115/276
f 75/118/277 81/92/278 80/91/279 74/117/280
f 76/119/281 82/108/282 81/92/283 75/118/284
f 73/115/285 79/106/286 82/108/287 76/119/288
f 76/119/289 77/121/290 78/116/291 73/115/292
f 79/106/293 84/98/294 83/97/295 82/108/296
