# This file uses centimeters as units for non-parametric coordinates.

mtllib counter_doors_3.mtl
v 4.527900 2.197973 0.036035
v 4.527900 4.587703 0.036035
v -4.540758 2.197973 0.036035
v -4.540758 4.587703 0.036035
v -4.540758 2.197973 -0.163118
v -4.540758 4.587703 -0.163118
v 4.527900 2.197973 -0.163118
v 4.527900 4.587703 -0.163118
v 4.270006 2.445842 0.163118
v 4.270006 4.339834 0.163118
v -4.282864 4.339834 0.163118
v -4.282864 2.445842 0.163118
v 0.846035 0.422099 0.757928
v 0.846035 0.681824 0.757928
v -0.846035 0.422099 0.757928
v -0.846035 0.681824 0.757928
v -0.846035 0.422099 0.000000
v -0.846035 0.681824 0.000000
v 0.846035 0.422099 0.000000
v 0.846035 0.681824 0.000000
v -0.846035 0.681824 0.568446
v -0.846035 0.422099 0.568446
v 0.846035 0.422099 0.568446
v 0.846035 0.681824 0.568446
v -0.572611 0.681824 0.568446
v -0.572611 0.681824 0.757928
v -0.572611 0.422099 0.757928
v -0.572611 0.422099 0.568446
v -0.572611 0.422099 0.000000
v -0.572611 0.681824 0.000000
v 0.572611 0.681824 0.568446
v 0.572611 0.681824 0.757928
v 0.572611 0.422099 0.757928
v 0.572611 0.422099 0.568446
v 0.572611 0.422099 0.000000
v 0.572611 0.681824 0.000000
v 4.527900 -1.170684 0.036035
v 4.527900 2.112523 0.036035
v -4.540758 -1.170684 0.036035
v -4.540758 2.112523 0.036035
v -4.540758 -1.170684 -0.163118
v -4.540758 2.112523 -0.163118
v 4.527900 -1.170684 -0.163118
v 4.527900 2.112523 -0.163118
v 4.270006 -0.928834 0.163118
v 4.270006 1.870672 0.163118
v -4.282864 1.870672 0.163118
v -4.282864 -0.928834 0.163118
v 4.527900 -4.541105 0.036035
v 4.527900 -1.257898 0.036035
v -4.540758 -4.541105 0.036035
v -4.540758 -1.257898 0.036035
v -4.540758 -4.541105 -0.163118
v -4.540758 -1.257898 -0.163118
v 4.527900 -4.541105 -0.163118
v 4.527900 -1.257898 -0.163118
v 4.270006 -4.283705 0.163118
v 4.270006 -1.515298 0.163118
v -4.282864 -1.515298 0.163118
v -4.282864 -4.283705 0.163118
v 0.846035 -3.042990 0.757928
v 0.846035 -2.783264 0.757928
v -0.846035 -3.042990 0.757928
v -0.846035 -2.783264 0.757928
v -0.846035 -3.042990 0.000000
v -0.846035 -2.783264 0.000000
v 0.846035 -3.042990 0.000000
v 0.846035 -2.783264 0.000000
v -0.846035 -2.783264 0.568446
v -0.846035 -3.042990 0.568446
v 0.846035 -3.042990 0.568446
v 0.846035 -2.783264 0.568446
v -0.572611 -2.783264 0.568446
v -0.572611 -2.783264 0.757928
v -0.572611 -3.042990 0.757928
v -0.572611 -3.042990 0.568446
v -0.572611 -3.042990 0.000000
v -0.572611 -2.783264 0.000000
v 0.572611 -2.783264 0.568446
v 0.572611 -2.783264 0.757928
v 0.572611 -3.042990 0.757928
v 0.572611 -3.042990 0.568446
v 0.572611 -3.042990 0.000000
v 0.572611 -2.783264 0.000000
vt 0.083580 0.063587
vt 0.107519 0.063587
vt 0.107519 0.087525
vt 0.083580 0.087525
vt 0.083580 0.087525
vt 0.107519 0.087525
vt 0.107519 0.111463
vt 0.083580 0.111463
vt 0.107519 0.135401
vt 0.083580 0.135401
vt 0.107519 0.159339
vt 0.083580 0.159339
vt 0.107519 0.063587
vt 0.131457 0.063587
vt 0.131457 0.087525
vt 0.059642 0.063587
vt 0.083580 0.063587
vt 0.059642 0.087525
vt 0.277312 0.068504
vt 0.305569 0.068504
vt 0.305569 0.075569
vt 0.277312 0.075569
vt 0.277312 0.096762
vt 0.305569 0.096762
vt 0.305569 0.103826
vt 0.277312 0.103826
vt 0.263183 0.110891
vt 0.319698 0.110891
vt 0.305569 0.153277
vt 0.277312 0.153277
vt 0.277312 0.174471
vt 0.305569 0.174471
vt 0.305569 0.181535
vt 0.277312 0.181535
vt 0.312634 0.068504
vt 0.312634 0.075569
vt 0.270247 0.068504
vt 0.270247 0.075569
vt 0.277312 0.125020
vt 0.305569 0.125020
vt 0.249054 0.068504
vt 0.333827 0.068504
vt 0.333827 0.096762
vt 0.312634 0.096762
vt 0.312634 0.089697
vt 0.319698 0.110891
vt 0.305569 0.089697
vt 0.277312 0.089697
vt 0.270247 0.089697
vt 0.270247 0.096762
vt 0.263183 0.110891
vt 0.249054 0.096762
vt 0.083580 0.063587
vt 0.107519 0.063587
vt 0.107519 0.087525
vt 0.083580 0.087525
vt 0.083580 0.087525
vt 0.107519 0.087525
vt 0.107519 0.111463
vt 0.083580 0.111463
vt 0.107519 0.135401
vt 0.083580 0.135401
vt 0.107519 0.159339
vt 0.083580 0.159339
vt 0.107519 0.063587
vt 0.131457 0.063587
vt 0.131457 0.087525
vt 0.059642 0.063587
vt 0.083580 0.063587
vt 0.059642 0.087525
vt 0.083580 0.063587
vt 0.107519 0.063587
vt 0.107519 0.087525
vt 0.083580 0.087525
vt 0.083580 0.087525
vt 0.107519 0.087525
vt 0.107519 0.111463
vt 0.083580 0.111463
vt 0.107519 0.135401
vt 0.083580 0.135401
vt 0.107519 0.159339
vt 0.083580 0.159339
vt 0.107519 0.063587
vt 0.131457 0.063587
vt 0.131457 0.087525
vt 0.059642 0.063587
vt 0.083580 0.063587
vt 0.059642 0.087525
vt 0.277312 0.068504
vt 0.305569 0.068504
vt 0.305569 0.075569
vt 0.277312 0.075569
vt 0.277312 0.096762
vt 0.305569 0.096762
vt 0.305569 0.103826
vt 0.277312 0.103826
vt 0.263183 0.110891
vt 0.319698 0.110891
vt 0.305569 0.153277
vt 0.277312 0.153277
vt 0.277312 0.174471
vt 0.305569 0.174471
vt 0.305569 0.181535
vt 0.277312 0.181535
vt 0.312634 0.068504
vt 0.312634 0.075569
vt 0.270247 0.068504
vt 0.270247 0.075569
vt 0.277312 0.125020
vt 0.305569 0.125020
vt 0.249054 0.068504
vt 0.333827 0.068504
vt 0.333827 0.096762
vt 0.312634 0.096762
vt 0.312634 0.089697
vt 0.319698 0.110891
vt 0.305569 0.089697
vt 0.277312 0.089697
vt 0.270247 0.089697
vt 0.270247 0.096762
vt 0.263183 0.110891
vt 0.249054 0.096762
vn 0.019487 -0.081405 0.996491
vn 0.019487 0.081405 0.996491
vn -0.019487 0.081405 0.996491
vn -0.019487 -0.081405 0.996491
vn -1.000000 0.000000 0.000000
vn -1.000000 0.000000 0.000000
vn -1.000000 0.000000 0.000000
vn -1.000000 0.000000 0.000000
vn 0.000000 0.000000 -1.000000
vn 0.000000 0.000000 -1.000000
vn 0.000000 0.000000 -1.000000
vn 0.000000 0.000000 -1.000000
vn 1.000000 0.000000 0.000000
vn 1.000000 0.000000 0.000000
vn 1.000000 0.000000 0.000000
vn 1.000000 0.000000 0.000000
vn 0.000000 1.000000 0.000000
vn 0.000000 1.000000 0.000000
vn 0.000000 1.000000 0.000000
vn 0.000000 1.000000 0.000000
vn 0.000000 -1.000000 0.000000
vn 0.000000 -1.000000 0.000000
vn 0.000000 -1.000000 0.000000
vn 0.000000 -1.000000 0.000000
vn 0.094885 -0.374231 0.922468
vn 0.094885 0.374232 0.922468
vn 0.019487 0.081405 0.996491
vn 0.019487 -0.081405 0.996491
vn 0.094885 0.374232 0.922468
vn -0.094885 0.374232 0.922468
vn -0.019487 0.081405 0.996491
vn 0.019487 0.081405 0.996491
vn -0.094885 0.374232 0.922468
vn -0.094885 -0.374231 0.922468
vn -0.019487 -0.081405 0.996491
vn -0.019487 0.081405 0.996491
vn -0.094885 -0.374231 0.922468
vn 0.094885 -0.374231 0.922468
vn 0.019487 -0.081405 0.996491
vn -0.019487 -0.081405 0.996491
vn 0.000000 0.000000 1.000000
vn 0.000000 0.000000 1.000000
vn 0.000000 0.000000 1.000000
vn 0.000000 0.000000 1.000000
vn -1.000000 0.000000 0.000000
vn -1.000000 0.000000 0.000000
vn -1.000000 0.000000 0.000000
vn -1.000000 0.000000 0.000000
vn 0.000000 0.000000 -1.000000
vn 0.000000 0.000000 -1.000000
vn 0.000000 0.000000 -1.000000
vn 0.000000 0.000000 -1.000000
vn 1.000000 0.000000 0.000000
vn 1.000000 0.000000 0.000000
vn 1.000000 0.000000 0.000000
vn 1.000000 0.000000 0.000000
vn 0.000000 1.000000 0.000000
vn 0.000000 1.000000 0.000000
vn 0.000000 1.000000 0.000000
vn 0.000000 1.000000 0.000000
vn 0.000000 -1.000000 0.000000
vn 0.000000 -1.000000 0.000000
vn 0.000000 -1.000000 0.000000
vn 0.000000 -1.000000 0.000000
vn -1.000000 0.000000 0.000000
vn -1.000000 0.000000 0.000000
vn -1.000000 0.000000 0.000000
vn -1.000000 0.000000 0.000000
vn 0.000000 -1.000000 0.000000
vn 0.000000 -1.000000 0.000000
vn 0.000000 -1.000000 0.000000
vn 0.000000 -1.000000 0.000000
vn 1.000000 0.000000 0.000000
vn 1.000000 0.000000 0.000000
vn 1.000000 0.000000 0.000000
vn 1.000000 0.000000 0.000000
vn 0.000000 1.000000 0.000000
vn 0.000000 1.000000 0.000000
vn 0.000000 1.000000 0.000000
vn 0.000000 1.000000 0.000000
vn 0.000000 1.000000 0.000000
vn 0.000000 1.000000 0.000000
vn 0.000000 1.000000 0.000000
vn 0.000000 1.000000 0.000000
vn 0.000000 1.000000 0.000000
vn 0.000000 1.000000 0.000000
vn 0.000000 1.000000 0.000000
vn 0.000000 1.000000 0.000000
vn 0.000000 0.000000 1.000000
vn 0.000000 0.000000 1.000000
vn 0.000000 0.000000 1.000000
vn 0.000000 0.000000 1.000000
vn 0.000000 -1.000000 0.000000
vn 0.000000 -1.000000 0.000000
vn 0.000000 -1.000000 0.000000
vn 0.000000 -1.000000 0.000000
vn 0.000000 -1.000000 0.000000
vn 0.000000 -1.000000 0.000000
vn 0.000000 -1.000000 0.000000
vn 0.000000 -1.000000 0.000000
vn 0.000000 0.000000 -1.000000
vn 0.000000 0.000000 -1.000000
vn 0.000000 0.000000 -1.000000
vn 0.000000 0.000000 -1.000000
vn 0.000000 1.000000 0.000000
vn 0.000000 1.000000 0.000000
vn 0.000000 1.000000 0.000000
vn 0.000000 1.000000 0.000000
vn 0.000000 0.000000 1.000000
vn 0.000000 0.000000 1.000000
vn 0.000000 0.000000 1.000000
vn 0.000000 0.000000 1.000000
vn 0.000000 -1.000000 0.000000
vn 0.000000 -1.000000 0.000000
vn 0.000000 -1.000000 0.000000
vn 0.000000 -1.000000 0.000000
vn 0.000000 0.000000 -1.000000
vn 0.000000 0.000000 -1.000000
vn 0.000000 0.000000 -1.000000
vn 0.000000 0.000000 -1.000000
vn 1.000000 0.000000 0.000000
vn 1.000000 0.000000 0.000000
vn 1.000000 0.000000 0.000000
vn 1.000000 0.000000 0.000000
vn -1.000000 0.000000 0.000000
vn -1.000000 0.000000 0.000000
vn -1.000000 0.000000 0.000000
vn -1.000000 0.000000 0.000000
vn 0.019746 -0.058645 0.998084
vn 0.019746 0.058645 0.998084
vn -0.019746 0.058645 0.998084
vn -0.019746 -0.058645 0.998084
vn -1.000000 0.000000 0.000000
vn -1.000000 0.000000 0.000000
vn -1.000000 0.000000 0.000000
vn -1.000000 0.000000 0.000000
vn 0.000000 0.000000 -1.000000
vn 0.000000 0.000000 -1.000000
vn 0.000000 0.000000 -1.000000
vn 0.000000 0.000000 -1.000000
vn 1.000000 0.000000 0.000000
vn 1.000000 0.000000 0.000000
vn 1.000000 0.000000 0.000000
vn 1.000000 0.000000 0.000000
vn 0.000000 1.000000 0.000000
vn 0.000000 1.000000 0.000000
vn 0.000000 1.000000 0.000000
vn 0.000000 1.000000 0.000000
vn 0.000000 -1.000000 0.000000
vn 0.000000 -1.000000 0.000000
vn 0.000000 -1.000000 0.000000
vn 0.000000 -1.000000 0.000000
vn 0.129220 -0.349774 0.927880
vn 0.129220 0.349773 0.927880
vn 0.019746 0.058645 0.998084
vn 0.019746 -0.058645 0.998084
vn 0.129220 0.349773 0.927880
vn -0.129220 0.349773 0.927880
vn -0.019746 0.058645 0.998084
vn 0.019746 0.058645 0.998084
vn -0.129220 0.349773 0.927880
vn -0.129220 -0.349774 0.927880
vn -0.019746 -0.058645 0.998084
vn -0.019746 0.058645 0.998084
vn -0.129220 -0.349774 0.927880
vn 0.129220 -0.349774 0.927880
vn 0.019746 -0.058645 0.998084
vn -0.019746 -0.058645 0.998084
vn 0.019975 -0.058209 0.998105
vn 0.019975 0.058209 0.998105
vn -0.019975 0.058209 0.998105
vn -0.019975 -0.058209 0.998105
vn -1.000000 0.000000 0.000000
vn -1.000000 0.000000 0.000000
vn -1.000000 0.000000 0.000000
vn -1.000000 0.000000 0.000000
vn 0.000000 0.000000 -1.000000
vn 0.000000 0.000000 -1.000000
vn 0.000000 0.000000 -1.000000
vn 0.000000 0.000000 -1.000000
vn 1.000000 0.000000 0.000000
vn 1.000000 0.000000 0.000000
vn 1.000000 0.000000 0.000000
vn 1.000000 0.000000 0.000000
vn 0.000000 1.000000 0.000000
vn 0.000000 1.000000 0.000000
vn 0.000000 1.000000 0.000000
vn 0.000000 1.000000 0.000000
vn 0.000000 -1.000000 0.000000
vn 0.000000 -1.000000 0.000000
vn 0.000000 -1.000000 0.000000
vn 0.000000 -1.000000 0.000000
vn 0.117776 -0.342245 0.932200
vn 0.117776 0.342245 0.932200
vn 0.019975 0.058209 0.998105
vn 0.019975 -0.058209 0.998105
vn 0.117776 0.342245 0.932200
vn -0.117776 0.342245 0.932200
vn -0.019975 0.058209 0.998105
vn 0.019975 0.058209 0.998105
vn -0.117776 0.342245 0.932200
vn -0.117776 -0.342245 0.932200
vn -0.019975 -0.058209 0.998105
vn -0.019975 0.058209 0.998105
vn -0.117776 -0.342245 0.932200
vn 0.117776 -0.342245 0.932200
vn 0.019975 -0.058209 0.998105
vn -0.019975 -0.058209 0.998105
vn 0.000000 0.000000 1.000000
vn 0.000000 0.000000 1.000000
vn 0.000000 0.000000 1.000000
vn 0.000000 0.000000 1.000000
vn -1.000000 0.000000 0.000000
vn -1.000000 0.000000 0.000000
vn -1.000000 0.000000 0.000000
vn -1.000000 0.000000 0.000000
vn 0.000000 0.000000 -1.000000
vn 0.000000 0.000000 -1.000000
vn 0.000000 0.000000 -1.000000
vn 0.000000 0.000000 -1.000000
vn 1.000000 0.000000 0.000000
vn 1.000000 0.000000 0.000000
vn 1.000000 0.000000 0.000000
vn 1.000000 0.000000 0.000000
vn 0.000000 1.000000 0.000000
vn 0.000000 1.000000 0.000000
vn 0.000000 1.000000 0.000000
vn 0.000000 1.000000 0.000000
vn 0.000000 -1.000000 0.000000
vn 0.000000 -1.000000 0.000000
vn 0.000000 -1.000000 0.000000
vn 0.000000 -1.000000 0.000000
vn -1.000000 0.000000 0.000000
vn -1.000000 0.000000 0.000000
vn -1.000000 0.000000 0.000000
vn -1.000000 0.000000 0.000000
vn 0.000000 -1.000000 0.000000
vn 0.000000 -1.000000 0.000000
vn 0.000000 -1.000000 0.000000
vn 0.000000 -1.000000 0.000000
vn 1.000000 0.000000 0.000000
vn 1.000000 0.000000 0.000000
vn 1.000000 0.000000 0.000000
vn 1.000000 0.000000 0.000000
vn 0.000000 1.000000 0.000000
vn 0.000000 1.000000 0.000000
vn 0.000000 1.000000 0.000000
vn 0.000000 1.000000 0.000000
vn 0.000000 1.000000 0.000000
vn 0.000000 1.000000 0.000000
vn 0.000000 1.000000 0.000000
vn 0.000000 1.000000 0.000000
vn 0.000000 1.000000 0.000000
vn 0.000000 1.000000 0.000000
vn 0.000000 1.000000 0.000000
vn 0.000000 1.000000 0.000000
vn 0.000000 0.000000 1.000000
vn 0.000000 0.000000 1.000000
vn 0.000000 0.000000 1.000000
vn 0.000000 0.000000 1.000000
vn 0.000000 -1.000000 0.000000
vn 0.000000 -1.000000 0.000000
vn 0.000000 -1.000000 0.000000
vn 0.000000 -1.000000 0.000000
vn 0.000000 -1.000000 0.000000
vn 0.000000 -1.000000 0.000000
vn 0.000000 -1.000000 0.000000
vn 0.000000 -1.000000 0.000000
vn 0.000000 0.000000 -1.000000
vn 0.000000 0.000000 -1.000000
vn 0.000000 0.000000 -1.000000
vn 0.000000 0.000000 -1.000000
vn 0.000000 1.000000 0.000000
vn 0.000000 1.000000 0.000000
vn 0.000000 1.000000 0.000000
vn 0.000000 1.000000 0.000000
vn 0.000000 0.000000 1.000000
vn 0.000000 0.000000 1.000000
vn 0.000000 0.000000 1.000000
vn 0.000000 0.000000 1.000000
vn 0.000000 -1.000000 0.000000
vn 0.000000 -1.000000 0.000000
vn 0.000000 -1.000000 0.000000
vn 0.000000 -1.000000 0.000000
vn 0.000000 0.000000 -1.000000
vn 0.000000 0.000000 -1.000000
vn 0.000000 0.000000 -1.000000
vn 0.000000 0.000000 -1.000000
vn 1.000000 0.000000 0.000000
vn 1.000000 0.000000 0.000000
vn 1.000000 0.000000 0.000000
vn 1.000000 0.000000 0.000000
vn -1.000000 0.000000 0.000000
vn -1.000000 0.000000 0.000000
vn -1.000000 0.000000 0.000000
vn -1.000000 0.000000 0.000000
s off
usemtl initialShadingGroup
f 9/1/1 10/2/2 11/3/3 12/4/4
f 3/5/5 4/6/6 6/7/7 5/8/8
f 5/8/9 6/7/10 8/9/11 7/10/12
f 7/10/13 8/9/14 2/11/15 1/12/16
f 2/13/17 8/14/18 6/15/19 4/6/20
f 7/16/21 1/17/22 3/5/23 5/18/24
f 1/17/25 2/13/26 10/2/27 9/1/28
f 2/13/29 4/6/30 11/3/31 10/2/32
f 4/6/33 3/5/34 12/4/35 11/3/36
f 3/5/37 1/17/38 9/1/39 12/4/40
f 13/19/41 14/20/42 32/21/43 33/22/44
f 15/23/45 16/24/46 21/25/47 22/26/48
f 35/27/49 36/28/50 20/29/51 19/30/52
f 23/31/53 24/32/54 14/33/55 13/34/56
f 14/20/57 24/35/58 31/36/59 32/21/60
f 23/37/61 13/19/62 33/22/63 34/38/64
f 17/39/65 22/26/66 21/25/67 18/40/68
f 19/41/69 23/37/70 34/38/71 35/27/72
f 24/32/73 23/31/74 19/30/75 20/29/76
f 36/28/77 31/36/78 24/35/79 20/42/80
f 18/43/81 21/44/82 25/45/83 30/46/84
f 26/47/85 25/45/86 21/44/87 16/24/88
f 27/48/89 26/47/90 16/24/91 15/23/92
f 28/49/93 27/48/94 15/23/95 22/50/96
f 29/51/97 28/49/98 22/50/99 17/52/100
f 17/39/101 18/40/102 30/46/103 29/51/104
f 26/47/105 32/21/106 31/36/107 25/45/108
f 27/48/109 33/22/110 32/21/111 26/47/112
f 28/49/113 34/38/114 33/22/115 27/48/116
f 25/45/117 31/36/118 34/38/119 28/49/120
f 28/49/121 29/51/122 30/46/123 25/45/124
f 31/36/125 36/28/126 35/27/127 34/38/128
f 45/53/129 46/54/130 47/55/131 48/56/132
f 39/57/133 40/58/134 42/59/135 41/60/136
f 41/60/137 42/59/138 44/61/139 43/62/140
f 43/62/141 44/61/142 38/63/143 37/64/144
f 38/65/145 44/66/146 42/67/147 40/58/148
f 43/68/149 37/69/150 39/57/151 41/70/152
f 37/69/153 38/65/154 46/54/155 45/53/156
f 38/65/157 40/58/158 47/55/159 46/54/160
f 40/58/161 39/57/162 48/56/163 47/55/164
f 39/57/165 37/69/166 45/53/167 48/56/168
f 57/71/169 58/72/170 59/73/171 60/74/172
f 51/75/173 52/76/174 54/77/175 53/78/176
f 53/78/177 54/77/178 56/79/179 55/80/180
f 55/80/181 56/79/182 50/81/183 49/82/184
f 50/83/185 56/84/186 54/85/187 52/76/188
f 55/86/189 49/87/190 51/75/191 53/88/192
f 49/87/193 50/83/194 58/72/195 57/71/196
f 50/83/197 52/76/198 59/73/199 58/72/200
f 52/76/201 51/75/202 60/74/203 59/73/204
f 51/75/205 49/87/206 57/71/207 60/74/208
f 61/89/209 62/90/210 80/91/211 81/92/212
f 63/93/213 64/94/214 69/95/215 70/96/216
f 83/97/217 84/98/218 68/99/219 67/100/220
f 71/101/221 72/102/222 62/103/223 61/104/224
f 62/90/225 72/105/226 79/106/227 80/91/228
f 71/107/229 61/89/230 81/92/231 82/108/232
f 65/109/233 70/96/234 69/95/235 66/110/236
f 67/111/237 71/107/238 82/108/239 83/97/240
f 72/102/241 71/101/242 67/100/243 68/99/244
f 84/98/245 79/106/246 72/105/247 68/112/248
f 66/113/249 69/114/250 73/115/251 78/116/252
f 74/117/253 73/115/254 69/114/255 64/94/256
f 75/118/257 74/117/258 64/94/259 63/93/260
f 76/119/261 75/118/262 63/93/263 70/120/264
f 77/121/265 76/119/266 70/120/267 65/122/268
f 65/109/269 66/110/270 78/116/271 77/121/272
f 74/117/273 80/91/274 79/106/275 73/115/276
f 75/118/277 81/92/278 80/91/279 74/117/280
f 76/119/281 82/108/282 81/92/283 75/118/284
f 73/115/285 79/106/286 82/108/287 76/119/288
f 76/119/289 77/121/290 78/116/291 73/115/292
f 79/106/293 84/98/294 83/97/295 82/108/296
