# This file uses centimeters as units for non-parametric coordinates.

mtllib counter_doors_2.mtl
v 6.468429 3.139961 0.051478
v 6.468429 6.553862 0.051478
v -6.486798 3.139961 0.051478
v -6.486798 6.553862 0.051478
v -6.486798 3.139961 -0.233026
v -6.486798 6.553862 -0.233026
v 6.468429 3.139961 -0.233026
v 6.468429 6.553862 -0.233026
v 6.100008 3.494060 0.233026
v 6.100008 6.199763 0.233026
v -6.118377 6.199763 0.233026
v -6.118377 3.494060 0.233026
v -6.486798 -6.588730 0.150556
v -0.018369 -6.588730 0.150556
v -6.486798 3.029361 0.150556
v -0.018369 3.029361 0.150556
v -6.486798 3.029361 -0.133948
v -0.018369 3.029361 -0.133948
v -6.486798 -6.588730 -0.133948
v -0.018369 -6.588730 -0.133948
v -6.118377 -6.265424 0.332104
v -0.386790 -6.265424 0.332104
v -0.386790 2.706056 0.332104
v -6.118377 2.706056 0.332104
v 0.000000 -6.588730 0.150556
v 6.468429 -6.588730 0.150556
v 0.000000 3.029361 0.150556
v 6.468429 3.029361 0.150556
v 0.000000 3.029361 -0.133948
v 6.468429 3.029361 -0.133948
v 0.000000 -6.588730 -0.133948
v 6.468429 -6.588730 -0.133948
v 0.368421 -6.265424 0.332104
v 6.100008 -6.265424 0.332104
v 6.100008 2.706056 0.332104
v 0.368421 2.706056 0.332104
v 0.783782 -0.861407 1.082754
v 1.154819 -0.861407 1.082754
v 0.783782 0.861407 1.082754
v 1.154819 0.861407 1.082754
v 0.783782 0.861407 0.000000
v 1.154819 0.861407 0.000000
v 0.783782 -0.861407 0.000000
v 1.154819 -0.861407 0.000000
v 1.154819 0.861407 0.812066
v 0.783782 0.861407 0.812066
v 0.783782 -0.861407 0.812066
v 1.154819 -0.861407 0.812066
v 1.154819 0.583015 0.812066
v 1.154819 0.583015 1.082754
v 0.783782 0.583015 1.082754
v 0.783782 0.583015 0.812066
v 0.783782 0.583015 0.000000
v 1.154819 0.583015 0.000000
v 1.154819 -0.583015 0.812066
v 1.154819 -0.583015 1.082754
v 0.783782 -0.583015 1.082754
v 0.783782 -0.583015 0.812066
v 0.783782 -0.583015 0.000000
v 1.154819 -0.583015 0.000000
v -1.154518 -0.861407 1.082754
v -0.783482 -0.861407 1.082754
v -1.154518 0.861407 1.082754
v -0.783482 0.861407 1.082754
v -1.154518 0.861407 0.000000
v -0.783482 0.861407 0.000000
v -1.154518 -0.861407 0.000000
v -0.783482 -0.861407 0.000000
v -0.783482 0.861407 0.812066
v -1.154518 0.861407 0.812066
v -1.154518 -0.861407 0.812066
v -0.783482 -0.861407 0.812066
v -0.783482 0.583015 0.812066
v -0.783482 0.583015 1.082754
v -1.154518 0.583015 1.082754
v -1.154518 0.583015 0.812066
v -1.154518 0.583015 0.000000
v -0.783482 0.583015 0.000000
v -0.783482 -0.583015 0.812066
v -0.783482 -0.583015 1.082754
v -1.154518 -0.583015 1.082754
v -1.154518 -0.583015 0.812066
v -1.154518 -0.583015 0.000000
v -0.783482 -0.583015 0.000000
vt 0.118183 0.101199
vt 0.142122 0.101199
vt 0.142122 0.125137
vt 0.118183 0.125137
vt 0.118183 0.125137
vt 0.142122 0.125137
vt 0.142122 0.149075
vt 0.118183 0.149075
vt 0.142122 0.173013
vt 0.118183 0.173013
vt 0.142122 0.196951
vt 0.118183 0.196951
vt 0.142122 0.101199
vt 0.166060 0.101199
vt 0.166060 0.125137
vt 0.094245 0.101199
vt 0.118183 0.101199
vt 0.094245 0.125137
vt 0.118183 0.101199
vt 0.142122 0.101199
vt 0.142122 0.125137
vt 0.118183 0.125137
vt 0.118183 0.125137
vt 0.142122 0.125137
vt 0.142122 0.149075
vt 0.118183 0.149075
vt 0.142122 0.173013
vt 0.118183 0.173013
vt 0.142122 0.196951
vt 0.118183 0.196951
vt 0.142122 0.101199
vt 0.166060 0.101199
vt 0.166060 0.125137
vt 0.094245 0.101199
vt 0.118183 0.101199
vt 0.094245 0.125137
vt 0.118183 0.101199
vt 0.142122 0.101199
vt 0.142122 0.125137
vt 0.118183 0.125137
vt 0.118183 0.125137
vt 0.142122 0.125137
vt 0.142122 0.149075
vt 0.118183 0.149075
vt 0.142122 0.173013
vt 0.118183 0.173013
vt 0.142122 0.196951
vt 0.118183 0.196951
vt 0.142122 0.101199
vt 0.166060 0.101199
vt 0.166060 0.125137
vt 0.094245 0.101199
vt 0.118183 0.101199
vt 0.094245 0.125137
vt 0.778309 0.128684
vt 0.806566 0.128684
vt 0.806566 0.135749
vt 0.778309 0.135749
vt 0.778309 0.156942
vt 0.806566 0.156942
vt 0.806566 0.164006
vt 0.778309 0.164006
vt 0.764180 0.171071
vt 0.820695 0.171071
vt 0.806566 0.213457
vt 0.778309 0.213457
vt 0.778309 0.234651
vt 0.806566 0.234651
vt 0.806566 0.241715
vt 0.778309 0.241715
vt 0.813631 0.128684
vt 0.813631 0.135749
vt 0.771244 0.128684
vt 0.771244 0.135749
vt 0.778309 0.185200
vt 0.806566 0.185200
vt 0.750051 0.128684
vt 0.834824 0.128684
vt 0.834824 0.156942
vt 0.813631 0.156942
vt 0.813631 0.149877
vt 0.820695 0.171071
vt 0.806566 0.149877
vt 0.778309 0.149877
vt 0.771244 0.149877
vt 0.771244 0.156942
vt 0.764180 0.171071
vt 0.750051 0.156942
vt 0.778309 0.128684
vt 0.806566 0.128684
vt 0.806566 0.135749
vt 0.778309 0.135749
vt 0.778309 0.156942
vt 0.806566 0.156942
vt 0.806566 0.164006
vt 0.778309 0.164006
vt 0.764180 0.171071
vt 0.820695 0.171071
vt 0.806566 0.213457
vt 0.778309 0.213457
vt 0.778309 0.234651
vt 0.806566 0.234651
vt 0.806566 0.241715
vt 0.778309 0.241715
vt 0.813631 0.128684
vt 0.813631 0.135749
vt 0.771244 0.128684
vt 0.771244 0.135749
vt 0.778309 0.185200
vt 0.806566 0.185200
vt 0.750051 0.128684
vt 0.834824 0.128684
vt 0.834824 0.156942
vt 0.813631 0.156942
vt 0.813631 0.149877
vt 0.820695 0.171071
vt 0.806566 0.149877
vt 0.778309 0.149877
vt 0.771244 0.149877
vt 0.771244 0.156942
vt 0.764180 0.171071
vt 0.750051 0.156942
vn 0.019487 -0.081405 0.996491
vn 0.019487 0.081405 0.996491
vn -0.019487 0.081405 0.996491
vn -0.019487 -0.081405 0.996491
vn -1.000000 0.000000 0.000000
vn -1.000000 0.000000 0.000000
vn -1.000000 0.000000 0.000000
vn -1.000000 0.000000 0.000000
vn 0.000000 0.000000 -1.000000
vn 0.000000 0.000000 -1.000000
vn 0.000000 0.000000 -1.000000
vn 0.000000 0.000000 -1.000000
vn 1.000000 0.000000 0.000000
vn 1.000000 0.000000 0.000000
vn 1.000000 0.000000 0.000000
vn 1.000000 0.000000 0.000000
vn 0.000000 1.000000 0.000000
vn 0.000000 1.000000 0.000000
vn 0.000000 1.000000 0.000000
vn 0.000000 1.000000 0.000000
vn 0.000000 -1.000000 0.000000
vn 0.000000 -1.000000 0.000000
vn 0.000000 -1.000000 0.000000
vn 0.000000 -1.000000 0.000000
vn 0.094885 -0.374231 0.922468
vn 0.094885 0.374232 0.922468
vn -0.094885 0.374232 0.922468
vn -0.094885 -0.374231 0.922468
vn -0.040520 -0.027963 0.998787
vn 0.040520 -0.027963 0.998787
vn 0.040520 0.027963 0.998787
vn -0.040520 0.027963 0.998787
vn 0.000000 1.000000 0.000000
vn 0.000000 1.000000 0.000000
vn 0.000000 1.000000 0.000000
vn 0.000000 1.000000 0.000000
vn 0.000000 0.000000 -1.000000
vn 0.000000 0.000000 -1.000000
vn 0.000000 0.000000 -1.000000
vn 0.000000 0.000000 -1.000000
vn 0.000000 -1.000000 0.000000
vn 0.000000 -1.000000 0.000000
vn 0.000000 -1.000000 0.000000
vn 0.000000 -1.000000 0.000000
vn 1.000000 0.000000 0.000000
vn 1.000000 0.000000 0.000000
vn 1.000000 0.000000 0.000000
vn 1.000000 0.000000 0.000000
vn -1.000000 0.000000 0.000000
vn -1.000000 0.000000 0.000000
vn -1.000000 0.000000 0.000000
vn -1.000000 0.000000 0.000000
vn -0.306802 -0.175660 0.935423
vn 0.306802 -0.175660 0.935423
vn 0.306803 0.175660 0.935423
vn -0.306803 0.175660 0.935423
vn -0.040520 -0.027963 0.998787
vn 0.040520 -0.027963 0.998787
vn 0.040520 0.027963 0.998787
vn -0.040520 0.027963 0.998787
vn 0.000000 1.000000 0.000000
vn 0.000000 1.000000 0.000000
vn 0.000000 1.000000 0.000000
vn 0.000000 1.000000 0.000000
vn 0.000000 0.000000 -1.000000
vn 0.000000 0.000000 -1.000000
vn 0.000000 0.000000 -1.000000
vn 0.000000 0.000000 -1.000000
vn 0.000000 -1.000000 0.000000
vn 0.000000 -1.000000 0.000000
vn 0.000000 -1.000000 0.000000
vn 0.000000 -1.000000 0.000000
vn 1.000000 0.000000 0.000000
vn 1.000000 0.000000 0.000000
vn 1.000000 0.000000 0.000000
vn 1.000000 0.000000 0.000000
vn -1.000000 0.000000 0.000000
vn -1.000000 0.000000 0.000000
vn -1.000000 0.000000 0.000000
vn -1.000000 0.000000 0.000000
vn -0.306802 -0.175660 0.935423
vn 0.306802 -0.175660 0.935423
vn 0.306803 0.175660 0.935423
vn -0.306803 0.175660 0.935423
vn 0.000000 0.000000 1.000000
vn 0.000000 0.000000 1.000000
vn 0.000000 0.000000 1.000000
vn 0.000000 0.000000 1.000000
vn 0.000000 1.000000 0.000000
vn 0.000000 1.000000 0.000000
vn 0.000000 1.000000 0.000000
vn 0.000000 1.000000 0.000000
vn 0.000000 0.000000 -1.000000
vn 0.000000 0.000000 -1.000000
vn 0.000000 0.000000 -1.000000
vn 0.000000 0.000000 -1.000000
vn 0.000000 -1.000000 0.000000
vn 0.000000 -1.000000 0.000000
vn 0.000000 -1.000000 0.000000
vn 0.000000 -1.000000 0.000000
vn 1.000000 0.000000 0.000000
vn 1.000000 0.000000 0.000000
vn 1.000000 0.000000 0.000000
vn 1.000000 0.000000 0.000000
vn -1.000000 0.000000 0.000000
vn -1.000000 0.000000 0.000000
vn -1.000000 0.000000 0.000000
vn -1.000000 0.000000 0.000000
vn 0.000000 1.000000 0.000000
vn 0.000000 1.000000 0.000000
vn -1.000000 0.000000 0.000000
vn -1.000000 0.000000 0.000000
vn 0.000000 -1.000000 0.000000
vn 0.000000 -1.000000 0.000000
vn 1.000000 0.000000 0.000000
vn 1.000000 0.000000 0.000000
vn 1.000000 0.000000 0.000000
vn 1.000000 0.000000 0.000000
vn 1.000000 0.000000 0.000000
vn 1.000000 0.000000 0.000000
vn 1.000000 0.000000 0.000000
vn 1.000000 0.000000 0.000000
vn 0.000000 0.000000 1.000000
vn 0.000000 0.000000 1.000000
vn 0.000000 0.000000 1.000000
vn 0.000000 0.000000 1.000000
vn -1.000000 0.000000 0.000000
vn -1.000000 0.000000 0.000000
vn -1.000000 0.000000 0.000000
vn -1.000000 0.000000 0.000000
vn -1.000000 0.000000 0.000000
vn -1.000000 0.000000 0.000000
vn 0.000000 0.000000 -1.000000
vn 0.000000 0.000000 -1.000000
vn 0.000000 0.000000 -1.000000
vn 0.000000 0.000000 -1.000000
vn 0.000000 0.000000 -1.000000
vn 0.000000 0.000000 -1.000000
vn 0.000000 0.000000 -1.000000
vn 0.000000 0.000000 -1.000000
vn 0.000000 -1.000000 0.000000
vn 0.000000 -1.000000 0.000000
vn 0.000000 -1.000000 0.000000
vn 0.000000 -1.000000 0.000000
vn 0.000000 1.000000 0.000000
vn 0.000000 1.000000 0.000000
vn 0.000000 1.000000 0.000000
vn 0.000000 1.000000 0.000000
vn 0.000000 0.000000 1.000000
vn 0.000000 0.000000 1.000000
vn 0.000000 0.000000 1.000000
vn 0.000000 0.000000 1.000000
vn 0.000000 1.000000 0.000000
vn 0.000000 1.000000 0.000000
vn 0.000000 1.000000 0.000000
vn 0.000000 1.000000 0.000000
vn 0.000000 0.000000 -1.000000
vn 0.000000 0.000000 -1.000000
vn 0.000000 0.000000 -1.000000
vn 0.000000 0.000000 -1.000000
vn 0.000000 -1.000000 0.000000
vn 0.000000 -1.000000 0.000000
vn 0.000000 -1.000000 0.000000
vn 0.000000 -1.000000 0.000000
vn 1.000000 0.000000 0.000000
vn 1.000000 0.000000 0.000000
vn 1.000000 0.000000 0.000000
vn 1.000000 0.000000 0.000000
vn -1.000000 0.000000 0.000000
vn -1.000000 0.000000 0.000000
vn -1.000000 0.000000 0.000000
vn -1.000000 0.000000 0.000000
vn 0.000000 1.000000 0.000000
vn 0.000000 1.000000 0.000000
vn -1.000000 0.000000 0.000000
vn -1.000000 0.000000 0.000000
vn 0.000000 -1.000000 0.000000
vn 0.000000 -1.000000 0.000000
vn 1.000000 0.000000 0.000000
vn 1.000000 0.000000 0.000000
vn 1.000000 0.000000 0.000000
vn 1.000000 0.000000 0.000000
vn 1.000000 0.000000 0.000000
vn 1.000000 0.000000 0.000000
vn 1.000000 0.000000 0.000000
vn 1.000000 0.000000 0.000000
vn 0.000000 0.000000 1.000000
vn 0.000000 0.000000 1.000000
vn 0.000000 0.000000 1.000000
vn 0.000000 0.000000 1.000000
vn -1.000000 0.000000 0.000000
vn -1.000000 0.000000 0.000000
vn -1.000000 0.000000 0.000000
vn -1.000000 0.000000 0.000000
vn -1.000000 0.000000 0.000000
vn -1.000000 0.000000 0.000000
vn 0.000000 0.000000 -1.000000
vn 0.000000 0.000000 -1.000000
vn 0.000000 0.000000 -1.000000
vn 0.000000 0.000000 -1.000000
vn 0.000000 0.000000 -1.000000
vn 0.000000 0.000000 -1.000000
vn 0.000000 0.000000 -1.000000
vn 0.000000 0.000000 -1.000000
vn 0.000000 -1.000000 0.000000
vn 0.000000 -1.000000 0.000000
vn 0.000000 -1.000000 0.000000
vn 0.000000 -1.000000 0.000000
vn 0.000000 1.000000 0.000000
vn 0.000000 1.000000 0.000000
vn 0.000000 1.000000 0.000000
vn 0.000000 1.000000 0.000000
s 1
usemtl initialShadingGroup
f 9/1/1 10/2/2 11/3/3 12/4/4
s off
f 3/5/5 4/6/6 6/7/7 5/8/8
f 5/8/9 6/7/10 8/9/11 7/10/12
f 7/10/13 8/9/14 2/11/15 1/12/16
f 2/13/17 8/14/18 6/15/19 4/6/20
f 7/16/21 1/17/22 3/5/23 5/18/24
s 1
f 1/17/25 2/13/26 10/2/2 9/1/1
f 2/13/26 4/6/27 11/3/3 10/2/2
f 4/6/27 3/5/28 12/4/4 11/3/3
f 3/5/28 1/17/25 9/1/1 12/4/4
s 2
f 21/19/29 22/20/30 23/21/31 24/22/32
s off
f 15/23/33 16/24/34 18/25/35 17/26/36
f 17/26/37 18/25/38 20/27/39 19/28/40
f 19/28/41 20/27/42 14/29/43 13/30/44
f 14/31/45 20/32/46 18/33/47 16/24/48
f 19/34/49 13/35/50 15/23/51 17/36/52
s 2
f 13/35/53 14/31/54 22/20/30 21/19/29
f 14/31/54 16/24/55 23/21/31 22/20/30
f 16/24/55 15/23/56 24/22/32 23/21/31
f 15/23/56 13/35/53 21/19/29 24/22/32
s 3
f 33/37/57 34/38/58 35/39/59 36/40/60
s off
f 27/41/61 28/42/62 30/43/63 29/44/64
f 29/44/65 30/43/66 32/45/67 31/46/68
f 31/46/69 32/45/70 26/47/71 25/48/72
f 26/49/73 32/50/74 30/51/75 28/42/76
f 31/52/77 25/53/78 27/41/79 29/54/80
s 3
f 25/53/81 26/49/82 34/38/58 33/37/57
f 26/49/82 28/42/83 35/39/59 34/38/58
f 28/42/83 27/41/84 36/40/60 35/39/59
f 27/41/84 25/53/81 33/37/57 36/40/60
s 4
f 37/55/85 38/56/86 56/57/87 57/58/88
s 5
f 39/59/89 40/60/90 45/61/91 46/62/92
s off
f 59/63/93 60/64/94 44/65/95 43/66/96
s 6
f 47/67/97 48/68/98 38/69/99 37/70/100
s 7
f 38/56/101 48/71/102 55/72/103 56/57/104
s 8
f 47/73/105 37/55/106 57/58/107 58/74/108
s 5
f 41/75/109 46/62/92 45/61/91 42/76/110
s 8
f 43/77/111 47/73/105 58/74/108 59/63/112
s 6
f 48/68/98 47/67/97 43/66/113 44/65/114
s 7
f 60/64/115 55/72/103 48/71/102 44/78/116
f 42/79/117 45/80/118 49/81/119 54/82/120
f 50/83/121 49/81/119 45/80/118 40/60/122
s 4
f 51/84/123 50/83/124 40/60/125 39/59/126
s 8
f 52/85/127 51/84/128 39/59/129 46/86/130
f 53/87/131 52/85/127 46/86/130 41/88/132
s off
f 41/75/133 42/76/134 54/82/135 53/87/136
s 7
f 50/83/121 56/57/104 55/72/103 49/81/119
s 4
f 51/84/123 57/58/88 56/57/87 50/83/124
s 8
f 52/85/127 58/74/108 57/58/107 51/84/128
s off
f 49/81/137 55/72/138 58/74/139 52/85/140
f 52/85/141 53/87/142 54/82/143 49/81/144
f 55/72/145 60/64/146 59/63/147 58/74/148
s 10
f 61/89/149 62/90/150 80/91/151 81/92/152
s 11
f 63/93/153 64/94/154 69/95/155 70/96/156
s off
f 83/97/157 84/98/158 68/99/159 67/100/160
s 12
f 71/101/161 72/102/162 62/103/163 61/104/164
s 13
f 62/90/165 72/105/166 79/106/167 80/91/168
s 14
f 71/107/169 61/89/170 81/92/171 82/108/172
s 11
f 65/109/173 70/96/156 69/95/155 66/110/174
s 14
f 67/111/175 71/107/169 82/108/172 83/97/176
s 12
f 72/102/162 71/101/161 67/100/177 68/99/178
s 13
f 84/98/179 79/106/167 72/105/166 68/112/180
f 66/113/181 69/114/182 73/115/183 78/116/184
f 74/117/185 73/115/183 69/114/182 64/94/186
s 10
f 75/118/187 74/117/188 64/94/189 63/93/190
s 14
f 76/119/191 75/118/192 63/93/193 70/120/194
f 77/121/195 76/119/191 70/120/194 65/122/196
s off
f 65/109/197 66/110/198 78/116/199 77/121/200
s 13
f 74/117/185 80/91/168 79/106/167 73/115/183
s 10
f 75/118/187 81/92/152 80/91/151 74/117/188
s 14
f 76/119/191 82/108/172 81/92/171 75/118/192
s off
f 73/115/201 79/106/202 82/108/203 76/119/204
f 76/119/205 77/121/206 78/116/207 73/115/208
f 79/106/209 84/98/210 83/97/211 82/108/212
