# This file uses centimeters as units for non-parametric coordinates.

mtllib desk_legs_2.mtl
v 8.308765 -6.420861 3.447368
v 7.714876 -6.420861 3.447368
v 8.308765 0.063057 3.447368
v 7.714876 0.063057 3.447368
v 8.308765 0.063057 -3.447368
v 7.714876 0.063057 -3.447368
v 8.308765 -6.420861 -3.447368
v 7.714876 -6.420861 -3.447368
v 7.714876 -1.557923 3.447368
v 8.308765 -1.557923 3.447368
v 8.308765 -1.557923 -3.447368
v 7.714876 -1.557923 -3.447368
v 7.714876 -3.178902 3.447368
v 8.308765 -3.178902 3.447368
v 8.308765 -3.178902 -3.447368
v 7.714876 -3.178902 -3.447368
v 7.714876 -4.799881 3.447368
v 8.308765 -4.799881 3.447368
v 8.308765 -4.799881 -3.447368
v 7.714876 -4.799881 -3.447368
v -8.308765 -6.420861 3.447368
v -7.714876 -6.420861 3.447368
v -8.308765 0.063057 3.447368
v -7.714876 0.063057 3.447368
v -8.308765 0.063057 -3.447368
v -7.714876 0.063057 -3.447368
v -8.308765 -6.420861 -3.447368
v -7.714876 -6.420861 -3.447368
v -7.714876 -1.557923 3.447368
v -8.308765 -1.557923 3.447368
v -8.308765 -1.557923 -3.447368
v -7.714876 -1.557923 -3.447368
v -7.714876 -3.178902 3.447368
v -8.308765 -3.178902 3.447368
v -8.308765 -3.178902 -3.447368
v -7.714876 -3.178902 -3.447368
v -7.714876 -4.799881 3.447368
v -8.308765 -4.799881 3.447368
v -8.308765 -4.799881 -3.447368
v -7.714876 -4.799881 -3.447368
v -8.308765 -1.557923 -2.681286
v -8.308765 -3.178902 -2.681286
v -8.308765 -4.799881 -2.681286
v -8.308765 -6.420861 -2.681286
v -7.714876 -6.420861 -2.681286
v -7.714876 -4.799881 -2.681286
v -7.714876 -3.178902 -2.681286
v -7.714876 -1.557923 -2.681286
v -7.714876 0.063057 -2.681286
v -8.308765 0.063057 -2.681286
v -8.308765 -1.557923 2.681286
v -8.308765 -3.178902 2.681286
v -8.308765 -4.799882 2.681286
v -8.308765 -6.420860 2.681286
v -7.714876 -6.420860 2.681286
v -7.714876 -4.799882 2.681286
v -7.714876 -3.178902 2.681286
v -7.714876 -1.557923 2.681286
v -7.714876 0.063057 2.681286
v -8.308765 0.063057 2.681286
v 8.308765 -3.178902 -2.681286
v 8.308765 -1.557923 -2.681286
v 8.308765 0.063057 -2.681286
v 7.714876 0.063057 -2.681286
v 7.714876 -1.557923 -2.681286
v 7.714876 -3.178902 -2.681286
v 7.714876 -4.799881 -2.681286
v 7.714876 -6.420861 -2.681286
v 8.308765 -6.420861 -2.681286
v 8.308765 -4.799881 -2.681286
v 8.308765 -3.178902 2.681286
v 8.308765 -1.557923 2.681286
v 8.308765 0.063057 2.681286
v 7.714876 0.063057 2.681286
v 7.714876 -1.557923 2.681286
v 7.714876 -3.178902 2.681286
v 7.714876 -4.799882 2.681286
v 7.714876 -6.420860 2.681286
v 8.308765 -6.420860 2.681286
v 8.308765 -4.799882 2.681286
vt 0.832706 0.710998
vt 0.875362 0.710998
vt 0.832706 0.753654
vt 0.875362 0.753654
vt 0.832706 0.796311
vt 0.875362 0.796311
vt 0.832706 0.838968
vt 0.875362 0.838968
vt 0.832706 0.881624
vt 0.875362 0.881624
vt 0.918019 0.710998
vt 0.918019 0.753654
vt 0.790049 0.710998
vt 0.790049 0.753654
vt 0.875362 0.742990
vt 0.832706 0.742990
vt 0.790049 0.742990
vt 0.832706 0.806975
vt 0.875362 0.806975
vt 0.918019 0.742990
vt 0.875362 0.732326
vt 0.832706 0.732326
vt 0.790049 0.732326
vt 0.832706 0.817639
vt 0.875362 0.817639
vt 0.918019 0.732326
vt 0.875362 0.721662
vt 0.832706 0.721662
vt 0.790049 0.721662
vt 0.832706 0.828303
vt 0.875362 0.828303
vt 0.918019 0.721662
vt 0.832706 0.710998
vt 0.875362 0.710998
vt 0.875362 0.721662
vt 0.832706 0.721662
vt 0.832706 0.753654
vt 0.875362 0.753654
vt 0.875362 0.796311
vt 0.832706 0.796311
vt 0.832706 0.828303
vt 0.875362 0.828303
vt 0.875362 0.838968
vt 0.832706 0.838968
vt 0.875362 0.881624
vt 0.832706 0.881624
vt 0.918019 0.710998
vt 0.918019 0.721662
vt 0.790049 0.710998
vt 0.790049 0.721662
vt 0.832706 0.742990
vt 0.875362 0.742990
vt 0.790049 0.742990
vt 0.790049 0.753654
vt 0.875362 0.806975
vt 0.832706 0.806975
vt 0.918019 0.742990
vt 0.918019 0.753654
vt 0.832706 0.732326
vt 0.875362 0.732326
vt 0.790049 0.732326
vt 0.875362 0.817639
vt 0.832706 0.817639
vt 0.918019 0.732326
vt 0.794789 0.742990
vt 0.794789 0.732326
vt 0.794789 0.721662
vt 0.813747 0.777353
vt 0.894321 0.777353
vt 0.913279 0.721662
vt 0.913279 0.732326
vt 0.913279 0.742990
vt 0.894321 0.772613
vt 0.813747 0.772613
vt 0.827966 0.742990
vt 0.827966 0.732326
vt 0.827966 0.721662
vt 0.830336 0.793941
vt 0.877732 0.793941
vt 0.880102 0.721662
vt 0.880102 0.732326
vt 0.880102 0.742990
vt 0.877732 0.756024
vt 0.830336 0.756024
vt 0.794789 0.732326
vt 0.794789 0.742990
vt 0.813747 0.772613
vt 0.894321 0.772613
vt 0.913279 0.742990
vt 0.913279 0.732326
vt 0.913279 0.721662
vt 0.894321 0.777353
vt 0.813747 0.777353
vt 0.794789 0.721662
vt 0.827966 0.732326
vt 0.827966 0.742990
vt 0.830336 0.756024
vt 0.877732 0.756024
vt 0.880102 0.742990
vt 0.880102 0.732326
vt 0.880102 0.721662
vt 0.877732 0.793941
vt 0.830336 0.793941
vt 0.827966 0.721662
vn 0.000000 0.000000 1.000000
vn 0.000000 0.000000 1.000000
vn 0.000000 0.000000 1.000000
vn 0.000000 0.000000 1.000000
vn 0.000000 1.000000 0.000000
vn 0.000000 1.000000 0.000000
vn 0.000000 1.000000 0.000000
vn 0.000000 1.000000 0.000000
vn 0.000000 0.000000 -1.000000
vn 0.000000 0.000000 -1.000000
vn 0.000000 0.000000 -1.000000
vn 0.000000 0.000000 -1.000000
vn 0.000000 -1.000000 -0.000001
vn 0.000000 -1.000000 -0.000001
vn 0.000000 -1.000000 -0.000001
vn 0.000000 -1.000000 -0.000001
vn -1.000000 0.000000 0.000000
vn -1.000000 0.000000 0.000000
vn -1.000000 0.000000 0.000000
vn -1.000000 0.000000 0.000000
vn 1.000000 0.000000 0.000000
vn 1.000000 0.000000 0.000000
vn 1.000000 0.000000 0.000000
vn 1.000000 0.000000 0.000000
vn 0.000000 0.000000 1.000000
vn 0.000000 0.000000 1.000000
vn 0.000000 0.000000 1.000000
vn 0.000000 0.000000 1.000000
vn 1.000000 0.000000 0.000000
vn 1.000000 0.000000 0.000000
vn 1.000000 0.000000 0.000000
vn 1.000000 0.000000 0.000000
vn 0.000000 0.000000 -1.000000
vn 0.000000 0.000000 -1.000000
vn 0.000000 0.000000 -1.000000
vn 0.000000 0.000000 -1.000000
vn -1.000000 0.000000 0.000000
vn -1.000000 0.000000 0.000000
vn -1.000000 0.000000 0.000000
vn -1.000000 0.000000 0.000000
vn 0.000000 0.000000 1.000000
vn 0.000000 0.000000 1.000000
vn 1.000000 0.000000 0.000000
vn 1.000000 0.000000 0.000000
vn 0.000000 0.000000 -1.000000
vn 0.000000 0.000000 -1.000000
vn -1.000000 0.000000 0.000000
vn -1.000000 0.000000 0.000000
vn 0.000000 0.000000 1.000000
vn 0.000000 0.000000 1.000000
vn 0.000000 0.000000 1.000000
vn 0.000000 0.000000 1.000000
vn 0.000000 1.000000 0.000000
vn 0.000000 1.000000 0.000000
vn 0.000000 1.000000 0.000000
vn 0.000000 1.000000 0.000000
vn 0.000000 0.000000 -1.000000
vn 0.000000 0.000000 -1.000000
vn 0.000000 0.000000 -1.000000
vn 0.000000 0.000000 -1.000000
vn 0.000000 -1.000000 -0.000001
vn 0.000000 -1.000000 -0.000001
vn 0.000000 -1.000000 -0.000001
vn 0.000000 -1.000000 -0.000001
vn 1.000000 0.000000 0.000000
vn 1.000000 0.000000 0.000000
vn 1.000000 0.000000 0.000000
vn 1.000000 0.000000 0.000000
vn -1.000000 0.000000 0.000000
vn -1.000000 0.000000 0.000000
vn -1.000000 0.000000 0.000000
vn -1.000000 0.000000 0.000000
vn 0.000000 0.000000 1.000000
vn 0.000000 0.000000 1.000000
vn 0.000000 0.000000 1.000000
vn 0.000000 0.000000 1.000000
vn -1.000000 0.000000 0.000000
vn -1.000000 0.000000 0.000000
vn -1.000000 0.000000 0.000000
vn -1.000000 0.000000 0.000000
vn 0.000000 0.000000 -1.000000
vn 0.000000 0.000000 -1.000000
vn 0.000000 0.000000 -1.000000
vn 0.000000 0.000000 -1.000000
vn 1.000000 0.000000 0.000000
vn 1.000000 0.000000 0.000000
vn 1.000000 0.000000 0.000000
vn 1.000000 0.000000 0.000000
vn 0.000000 0.000000 1.000000
vn 0.000000 0.000000 1.000000
vn -1.000000 0.000000 0.000000
vn -1.000000 0.000000 0.000000
vn 0.000000 0.000000 -1.000000
vn 0.000000 0.000000 -1.000000
vn 1.000000 0.000000 0.000000
vn 1.000000 0.000000 0.000000
vn -1.000000 0.000000 0.000000
vn -1.000000 0.000000 0.000000
vn -1.000000 0.000000 0.000000
vn -1.000000 0.000000 0.000000
vn -1.000000 0.000000 0.000000
vn -1.000000 0.000000 0.000000
vn -1.000000 0.000000 0.000000
vn -1.000000 0.000000 0.000000
vn 0.000000 -1.000000 0.000000
vn 0.000000 -1.000000 0.000000
vn 0.000000 -1.000000 0.000000
vn 0.000000 -1.000000 0.000000
vn 1.000000 0.000000 0.000000
vn 1.000000 0.000000 0.000000
vn 1.000000 0.000000 0.000000
vn 1.000000 0.000000 0.000000
vn 1.000000 0.000000 0.000000
vn 1.000000 0.000000 0.000000
vn 1.000000 0.000000 0.000000
vn 1.000000 0.000000 0.000000
vn 1.000000 0.000000 0.000000
vn 1.000000 0.000000 0.000000
vn 0.000000 1.000000 0.000000
vn 0.000000 1.000000 0.000000
vn 0.000000 1.000000 0.000000
vn 0.000000 1.000000 0.000000
vn -1.000000 0.000000 0.000000
vn -1.000000 0.000000 0.000000
vn 1.000000 0.000000 0.000000
vn 1.000000 0.000000 0.000000
vn 1.000000 0.000000 0.000000
vn 1.000000 0.000000 0.000000
vn 1.000000 0.000000 0.000000
vn 1.000000 0.000000 0.000000
vn 0.000000 1.000000 0.000000
vn 0.000000 1.000000 0.000000
vn 0.000000 1.000000 0.000000
vn 0.000000 1.000000 0.000000
vn -1.000000 0.000000 0.000000
vn -1.000000 0.000000 0.000000
vn -1.000000 0.000000 0.000000
vn -1.000000 0.000000 0.000000
vn -1.000000 0.000000 0.000000
vn -1.000000 0.000000 0.000000
vn -1.000000 0.000000 0.000000
vn -1.000000 0.000000 0.000000
vn -1.000000 0.000000 0.000000
vn -1.000000 0.000000 0.000000
vn 0.000000 -1.000000 0.000000
vn 0.000000 -1.000000 0.000000
vn 0.000000 -1.000000 0.000000
vn 0.000000 -1.000000 0.000000
vn 1.000000 0.000000 0.000000
vn 1.000000 0.000000 0.000000
vn 1.000000 0.000000 0.000000
vn 1.000000 0.000000 0.000000
vn 0.000000 0.000000 1.000000
vn 0.000000 0.000000 1.000000
vn 0.000000 0.000000 1.000000
vn 0.000000 0.000000 1.000000
vn 0.000000 0.000000 1.000000
vn 0.000000 0.000000 1.000000
vn 0.000000 0.000000 1.000000
vn 0.000000 0.000000 1.000000
vn 0.000000 0.000000 1.000000
vn 0.000000 0.000000 1.000000
vn 0.000000 0.000000 1.000000
vn 0.000000 0.000000 1.000000
vn 0.000000 0.000000 1.000000
vn 0.000000 0.000000 1.000000
vn 0.000000 0.000000 1.000000
vn 0.000000 0.000000 1.000000
vn 0.000000 0.000000 -1.000000
vn 0.000000 0.000000 -1.000000
vn 0.000000 0.000000 -1.000000
vn 0.000000 0.000000 -1.000000
vn 0.000000 0.000000 -1.000000
vn 0.000000 0.000000 -1.000000
vn 0.000000 0.000000 -1.000000
vn 0.000000 0.000000 -1.000000
vn 0.000000 0.000000 -1.000000
vn 0.000000 0.000000 -1.000000
vn 0.000000 0.000000 -1.000000
vn 0.000000 0.000000 -1.000000
vn 0.000000 0.000000 -1.000000
vn 0.000000 0.000000 -1.000000
vn 0.000000 0.000000 -1.000000
vn 0.000000 0.000000 -1.000000
vn 0.000000 0.000000 1.000000
vn 0.000000 0.000000 1.000000
vn 0.000000 0.000000 1.000000
vn 0.000000 0.000000 1.000000
vn 0.000000 0.000000 1.000000
vn 0.000000 0.000000 1.000000
vn 0.000000 0.000000 1.000000
vn 0.000000 0.000000 1.000000
vn 0.000000 0.000000 1.000000
vn 0.000000 0.000000 1.000000
vn 0.000000 0.000000 1.000000
vn 0.000000 0.000000 1.000000
vn 0.000000 0.000000 1.000000
vn 0.000000 0.000000 1.000000
vn 0.000000 0.000000 1.000000
vn 0.000000 0.000000 1.000000
vn 0.000000 0.000000 -1.000000
vn 0.000000 0.000000 -1.000000
vn 0.000000 0.000000 -1.000000
vn 0.000000 0.000000 -1.000000
vn 0.000000 0.000000 -1.000000
vn 0.000000 0.000000 -1.000000
vn 0.000000 0.000000 -1.000000
vn 0.000000 0.000000 -1.000000
vn 0.000000 0.000000 -1.000000
vn 0.000000 0.000000 -1.000000
vn 0.000000 0.000000 -1.000000
vn 0.000000 0.000000 -1.000000
vn 0.000000 0.000000 -1.000000
vn 0.000000 0.000000 -1.000000
vn 0.000000 0.000000 -1.000000
vn 0.000000 0.000000 -1.000000
s 1
usemtl initialShadingGroup
f 1/1/1 18/28/2 17/27/3 2/2/4
s off
f 3/3/5 73/97/6 74/98/7 4/4/8
s 2
f 19/30/9 7/7/10 8/8/11 20/31/12
s off
f 79/103/13 1/9/14 2/10/15 78/102/16
s 3
f 2/2/17 17/27/18 77/101/19 78/102/20
s 4
f 79/103/21 80/104/22 18/28/23 1/1/24
s 1
f 10/16/25 3/3/26 4/4/27 9/15/28
s 4
f 72/96/29 73/97/30 3/3/31 10/16/32
s 2
f 5/5/33 11/18/34 12/19/35 6/6/36
s 3
f 9/15/37 4/4/38 74/98/39 75/99/40
s 1
f 14/22/41 10/16/25 9/15/28 13/21/42
s 4
f 71/95/43 72/96/29 10/16/32 14/22/44
s 2
f 11/18/34 15/24/45 16/25/46 12/19/35
s 3
f 13/21/47 9/15/37 75/99/40 76/100/48
s 1
f 18/28/2 14/22/41 13/21/42 17/27/3
s 4
f 80/104/22 71/95/43 14/22/44 18/28/23
s 2
f 15/24/45 19/30/9 20/31/12 16/25/46
s 3
f 17/27/18 13/21/47 76/100/48 77/101/19
s 9
f 21/33/49 22/34/50 37/35/51 38/36/52
s off
f 23/37/53 24/38/54 59/83/55 60/84/56
s 10
f 39/41/57 40/42/58 28/43/59 27/44/60
s off
f 54/78/61 55/79/62 22/45/63 21/46/64
s 11
f 22/34/65 55/79/66 56/80/67 37/35/68
s 12
f 54/78/69 21/33/70 38/36/71 53/77/72
s 9
f 30/51/73 29/52/74 24/38/75 23/37/76
s 12
f 60/84/77 51/75/78 30/51/79 23/37/80
s 10
f 25/40/81 26/39/82 32/55/83 31/56/84
s 11
f 29/52/85 58/82/86 59/83/87 24/38/88
s 9
f 34/59/89 33/60/90 29/52/74 30/51/73
s 12
f 52/76/91 34/59/92 30/51/79 51/75/78
s 10
f 31/56/84 32/55/83 36/62/93 35/63/94
s 11
f 33/60/95 57/81/96 58/82/86 29/52/85
s 9
f 38/36/52 37/35/51 33/60/90 34/59/89
s 12
f 53/77/72 38/36/71 34/59/92 52/76/91
s 10
f 35/63/94 36/62/93 40/42/58 39/41/57
s 11
f 37/35/68 56/80/67 57/81/96 33/60/95
s 17
f 35/61/97 42/66/98 41/65/99 31/53/100
f 39/50/101 43/67/102 42/66/98 35/61/97
f 27/49/103 44/68/104 43/67/102 39/50/101
s off
f 27/44/105 28/43/106 45/69/107 44/68/108
s 18
f 46/70/109 45/69/110 28/47/111 40/48/112
f 47/71/113 46/70/109 40/48/112 36/64/114
f 48/72/115 47/71/113 36/64/114 32/57/116
f 49/73/117 48/72/115 32/57/116 26/58/118
s off
f 50/74/119 49/73/120 26/39/121 25/40/122
s 17
f 31/53/100 41/65/99 50/74/123 25/54/124
s 19
f 15/23/125 11/17/126 62/86/127 61/85/128
f 11/17/126 5/14/129 63/87/130 62/86/127
s off
f 64/88/131 63/87/132 5/5/133 6/6/134
s 20
f 65/89/135 64/88/136 6/12/137 12/20/138
f 66/90/139 65/89/135 12/20/138 16/26/140
f 67/91/141 66/90/139 16/26/140 20/32/142
f 68/92/143 67/91/141 20/32/142 8/11/144
s off
f 7/7/145 69/93/146 68/92/147 8/8/148
s 19
f 7/13/149 19/29/150 70/94/151 69/93/152
f 19/29/150 15/23/125 61/85/128 70/94/151
s off
f 67/91/153 68/92/154 69/93/155 70/94/156
f 66/90/157 67/91/158 70/94/159 61/85/160
f 61/85/161 62/86/162 65/89/163 66/90/164
f 62/86/165 63/87/166 64/88/167 65/89/168
f 73/97/169 72/96/170 75/99/171 74/98/172
f 72/96/173 71/95/174 76/100/175 75/99/176
f 77/101/177 76/100/178 71/95/179 80/104/180
f 78/102/181 77/101/182 80/104/183 79/103/184
f 43/67/185 44/68/186 45/69/187 46/70/188
f 42/66/189 43/67/190 46/70/191 47/71/192
f 41/65/193 42/66/194 47/71/195 48/72/196
f 48/72/197 49/73/198 50/74/199 41/65/200
f 59/83/201 58/82/202 51/75/203 60/84/204
f 52/76/205 51/75/206 58/82/207 57/81/208
f 53/77/209 52/76/210 57/81/211 56/80/212
f 54/78/213 53/77/214 56/80/215 55/79/216
