# This file uses centimeters as units for non-parametric coordinates.

mtllib desk_left_3.mtl
v 4.531323 -1.755066 3.313632
v 0.000000 -1.755066 3.313632
v 4.531323 0.000000 3.313632
v 0.000000 0.000000 3.313632
v 4.531323 0.000000 -3.313632
v 0.000000 0.000000 -3.313632
v 4.531323 -1.755066 -3.313632
v 0.000000 -1.755066 -3.313632
v 4.253185 -0.430366 -3.313632
v 0.278139 -0.430366 -3.313632
v 0.278139 -1.574244 -3.313632
v 4.253185 -1.574244 -3.313632
v 4.531323 -3.084147 3.313632
v 0.000000 -3.084147 3.313632
v 4.531323 -3.084147 -3.313632
v 0.000000 -3.084147 -3.313632
v 4.253185 -1.757257 -3.313632
v 0.278138 -1.757257 -3.313632
v 0.278139 -2.903325 -3.313632
v 4.253185 -2.903325 -3.313632
v 4.531323 -4.413228 3.313632
v 0.000000 -4.413228 3.313632
v 4.531323 -4.413228 -3.313632
v 0.000000 -4.413228 -3.313632
v 4.253185 -3.086337 -3.313632
v 0.278138 -3.086337 -3.313632
v 0.278139 -4.232405 -3.313632
v 4.253185 -4.232405 -3.313632
v 0.278139 -0.430366 0.598378
v 4.253185 -0.430366 0.598378
v 0.278139 -1.574244 0.598378
v 4.253185 -1.574244 0.598378
v 0.278138 -1.757257 0.598378
v 4.253185 -1.757257 0.598378
v 0.278139 -2.903325 0.598378
v 4.253185 -2.903325 0.598378
v 0.278140 -3.086337 0.598378
v 4.253185 -3.086337 0.598378
v 0.278142 -4.232405 0.598378
v 4.253185 -4.232405 0.598378
v 4.253185 -0.430366 -3.569750
v 4.531323 0.000000 -3.569750
v 0.278139 -0.430366 -3.569750
v 0.000000 0.000000 -3.569750
v 0.278139 -1.574244 -3.569750
v 0.000000 -1.755066 -3.569750
v 4.531323 -1.755066 -3.569750
v 4.253185 -1.574244 -3.569750
v 4.253185 -1.757257 -3.569750
v 0.278138 -1.757257 -3.569750
v 0.278139 -2.903325 -3.569750
v 0.000000 -3.084147 -3.569750
v 4.531323 -3.084147 -3.569750
v 4.253185 -2.903325 -3.569750
v 4.253185 -3.086337 -3.569750
v 0.278138 -3.086337 -3.569750
v 0.278139 -4.232405 -3.569750
v 0.000000 -4.413228 -3.569750
v 4.253185 -4.232405 -3.569750
v 4.531323 -4.413228 -3.569750
vt 0.765573 0.144234
vt 0.815504 0.144234
vt 0.815504 0.194164
vt 0.765573 0.194164
vt 0.765573 0.294026
vt 0.815504 0.294026
vt 0.865435 0.144234
vt 0.865435 0.194164
vt 0.715643 0.144234
vt 0.715643 0.194164
vt 0.765573 0.244095
vt 0.815504 0.244095
vt 0.815504 0.244095
vt 0.765573 0.244095
vt 0.815504 0.294026
vt 0.765573 0.294026
vt 0.765573 0.144234
vt 0.815504 0.144234
vt 0.815504 0.194164
vt 0.765573 0.194164
vt 0.865435 0.144234
vt 0.865435 0.194164
vt 0.715643 0.144234
vt 0.715643 0.194164
vt 0.765573 0.244095
vt 0.815504 0.244095
vt 0.813972 0.244095
vt 0.767105 0.244095
vt 0.815504 0.294026
vt 0.815504 0.294026
vt 0.765573 0.294026
vt 0.765573 0.294026
vt 0.765573 0.144234
vt 0.815504 0.144234
vt 0.815504 0.194164
vt 0.765573 0.194164
vt 0.765573 0.294026
vt 0.815504 0.294026
vt 0.815504 0.343956
vt 0.765573 0.343956
vt 0.865435 0.144234
vt 0.865435 0.194164
vt 0.715643 0.144234
vt 0.715643 0.194164
vt 0.765573 0.244095
vt 0.815504 0.244095
vt 0.813972 0.244095
vt 0.767105 0.244095
vt 0.815504 0.294026
vt 0.765573 0.294026
vt 0.812439 0.294026
vt 0.768638 0.294026
vt 0.768638 0.294026
vt 0.812439 0.294026
vt 0.000000 0.000000
vt 1.000000 0.000000
vt 1.000000 1.000000
vt 0.000000 1.000000
vt 0.000000 0.000000
vt 1.000000 0.000000
vt 1.000000 1.000000
vt 0.000000 1.000000
vt 0.000000 0.000000
vt 1.000000 0.000000
vt 1.000000 1.000000
vt 0.000000 1.000000
vt 0.000000 0.000000
vt 1.000000 0.000000
vt 1.000000 1.000000
vt 0.000000 1.000000
vt 0.000000 0.000000
vt 1.000000 0.000000
vt 1.000000 1.000000
vt 0.000000 1.000000
vt 0.000000 0.000000
vt 1.000000 0.000000
vt 1.000000 1.000000
vt 0.000000 1.000000
vt 0.000000 0.000000
vt 1.000000 0.000000
vt 1.000000 1.000000
vt 0.000000 1.000000
vt 0.000000 0.000000
vt 1.000000 0.000000
vt 1.000000 1.000000
vt 0.000000 1.000000
vt 0.000000 0.000000
vt 1.000000 0.000000
vt 1.000000 1.000000
vt 0.000000 1.000000
vt 0.000000 0.000000
vt 1.000000 0.000000
vt 1.000000 1.000000
vt 0.000000 1.000000
vt 0.000000 0.000000
vt 1.000000 0.000000
vt 1.000000 1.000000
vt 0.000000 1.000000
vt 0.000000 0.000000
vt 1.000000 0.000000
vt 1.000000 1.000000
vt 0.000000 1.000000
vt 0.765573 0.244095
vt 0.815504 0.244095
vt 0.815504 0.244095
vt 0.765573 0.244095
vt 0.815504 0.294026
vt 0.815504 0.294026
vt 0.768638 0.294026
vt 0.765573 0.294026
vt 0.765573 0.294026
vt 0.813972 0.244095
vt 0.815504 0.294026
vt 0.815504 0.294026
vt 0.815504 0.244095
vt 0.768638 0.294026
vt 0.765573 0.294026
vt 0.767105 0.244095
vt 0.765573 0.244095
vt 0.765573 0.294026
vt 0.813972 0.244095
vt 0.815504 0.294026
vt 0.815504 0.294026
vt 0.815504 0.244095
vt 0.765573 0.294026
vt 0.765573 0.294026
vt 0.767105 0.244095
vt 0.765573 0.244095
vt 0.812439 0.294026
vt 0.812439 0.294026
vn 0.000000 0.000000 1.000000
vn 0.000000 0.000000 1.000000
vn 0.000000 0.000000 1.000000
vn 0.000000 0.000000 1.000000
vn -1.000000 0.000000 0.000000
vn -1.000000 0.000000 0.000000
vn -1.000000 0.000000 0.000000
vn -1.000000 0.000000 0.000000
vn 1.000000 0.000000 0.000000
vn 1.000000 0.000000 0.000000
vn 1.000000 0.000000 0.000000
vn 1.000000 0.000000 0.000000
vn 0.000000 0.000000 -1.000000
vn 0.000000 0.000000 -1.000000
vn 0.000000 0.000000 -1.000000
vn 0.000000 0.000000 -1.000000
vn 0.000001 0.000000 -1.000000
vn 0.000001 0.000000 -1.000000
vn 0.000001 0.000000 -1.000000
vn 0.000001 0.000000 -1.000000
vn 0.000000 0.000000 -1.000000
vn 0.000000 0.000000 -1.000000
vn 0.000000 0.000000 -1.000000
vn -0.000001 0.000000 -1.000000
vn -0.000001 0.000000 -1.000000
vn -0.000001 0.000000 -1.000000
vn -0.000001 0.000000 -1.000000
vn 0.000000 0.000000 1.000000
vn 0.000000 0.000000 1.000000
vn 0.000000 0.000000 1.000000
vn 0.000000 0.000000 1.000000
vn -1.000000 0.000000 0.000000
vn -1.000000 0.000000 0.000000
vn -1.000000 0.000000 0.000000
vn -1.000000 0.000000 0.000000
vn 1.000000 0.000000 0.000000
vn 1.000000 0.000000 0.000000
vn 1.000000 0.000000 0.000000
vn 1.000000 0.000000 0.000000
vn 0.000000 0.000000 -1.000000
vn 0.000000 0.000000 -1.000000
vn 0.000000 0.000000 -1.000000
vn 0.000000 0.000000 -1.000000
vn 0.000000 0.000000 -1.000000
vn 0.000000 0.000000 -1.000000
vn 0.000000 0.000000 -1.000000
vn 0.000000 0.000000 -1.000000
vn 0.000000 0.000000 -1.000000
vn 0.000000 0.000000 -1.000000
vn 0.000000 0.000000 -1.000000
vn 0.000000 0.000000 1.000000
vn 0.000000 0.000000 1.000000
vn 0.000000 0.000000 1.000000
vn 0.000000 0.000000 1.000000
vn 0.000000 -1.000000 0.000000
vn 0.000000 -1.000000 0.000000
vn 0.000000 -1.000000 0.000000
vn 0.000000 -1.000000 0.000000
vn -1.000000 0.000000 0.000000
vn -1.000000 0.000000 0.000000
vn -1.000000 0.000000 0.000000
vn -1.000000 0.000000 0.000000
vn 1.000000 0.000000 0.000000
vn 1.000000 0.000000 0.000000
vn 1.000000 0.000000 0.000000
vn 1.000000 0.000000 0.000000
vn 0.000001 0.000000 -1.000000
vn 0.000001 0.000000 -1.000000
vn 0.000001 0.000000 -1.000000
vn 0.000001 0.000000 -1.000000
vn 0.000000 0.000000 -1.000000
vn 0.000000 0.000000 -1.000000
vn 0.000000 0.000000 -1.000000
vn 0.000000 0.000000 -1.000000
vn -0.000001 0.000000 -1.000000
vn -0.000001 0.000000 -1.000000
vn -0.000001 0.000000 -1.000000
vn -0.000001 0.000000 -1.000000
vn 0.000001 0.000000 -1.000000
vn 0.000001 0.000000 -1.000000
vn 0.000001 0.000000 -1.000000
vn 0.000000 0.000000 -1.000000
vn 0.000000 0.000000 -1.000000
vn 0.000000 0.000000 -1.000000
vn 0.000000 0.000000 -1.000000
vn 0.000000 0.000000 -1.000000
vn 0.000000 0.000000 -1.000000
vn 0.000000 0.000000 -1.000000
vn 0.000000 0.000000 -1.000000
vn 0.000000 0.000000 -1.000000
vn 0.000000 0.000000 -1.000000
vn 0.000000 0.000000 -1.000000
vn 0.000000 -1.000000 0.000000
vn 0.000000 -1.000000 0.000000
vn 0.000000 -1.000000 0.000000
vn 0.000000 -1.000000 0.000000
vn 1.000000 0.000000 0.000000
vn 1.000000 0.000000 0.000000
vn 1.000000 0.000000 0.000000
vn 1.000000 0.000000 0.000000
vn 0.000000 1.000000 0.000000
vn 0.000000 1.000000 0.000000
vn 0.000000 1.000000 0.000000
vn 0.000000 1.000000 0.000000
vn -1.000000 0.000000 0.000000
vn -1.000000 0.000000 0.000000
vn -1.000000 0.000000 0.000000
vn -1.000000 0.000000 0.000000
vn 0.000000 -1.000000 0.000000
vn 0.000000 -1.000000 0.000000
vn 0.000000 -1.000000 0.000000
vn 0.000000 -1.000000 0.000000
vn 1.000000 0.000001 0.000000
vn 1.000000 0.000001 0.000000
vn 1.000000 0.000001 0.000000
vn 1.000000 0.000001 0.000000
vn 0.000000 1.000000 0.000000
vn 0.000000 1.000000 0.000000
vn 0.000000 1.000000 0.000000
vn 0.000000 1.000000 0.000000
vn -1.000000 0.000000 0.000000
vn -1.000000 0.000000 0.000000
vn -1.000000 0.000000 0.000000
vn -1.000000 0.000000 0.000000
vn 0.000000 -1.000000 0.000000
vn 0.000000 -1.000000 0.000000
vn 0.000000 -1.000000 0.000000
vn 0.000000 -1.000000 0.000000
vn 1.000000 0.000001 -0.000001
vn 1.000000 0.000001 -0.000001
vn 1.000000 0.000001 -0.000001
vn 1.000000 0.000001 -0.000001
vn 0.000000 1.000000 0.000000
vn 0.000000 1.000000 0.000000
vn 0.000000 1.000000 0.000000
vn 0.000000 1.000000 0.000000
vn -1.000000 0.000000 0.000000
vn -1.000000 0.000000 0.000000
vn -1.000000 0.000000 0.000000
vn -1.000000 0.000000 0.000000
vn 0.000000 0.000000 -1.000000
vn 0.000000 0.000000 -1.000000
vn 0.000000 0.000000 -1.000000
vn 0.000000 0.000000 -1.000000
vn 0.000000 0.000000 -1.000000
vn 0.000000 0.000000 -1.000000
vn 0.000000 0.000000 -1.000000
vn 0.000000 0.000000 -1.000000
vn 0.000000 0.000000 -1.000000
vn 0.000000 0.000000 -1.000000
vn 0.000000 0.000000 -1.000000
vn 0.000000 0.000000 -1.000000
vn 0.000000 -1.000000 0.000000
vn 0.000000 -1.000000 0.000000
vn 0.000000 -1.000000 0.000000
vn 0.000000 -1.000000 0.000000
vn 0.000000 1.000000 0.000000
vn 0.000000 1.000000 0.000000
vn 0.000000 1.000000 0.000000
vn 0.000000 1.000000 0.000000
vn 1.000000 0.000000 0.000000
vn 1.000000 0.000000 0.000000
vn 1.000000 0.000000 0.000000
vn 1.000000 0.000000 0.000000
vn -1.000000 0.000000 0.000000
vn -1.000000 0.000000 0.000000
vn -1.000000 0.000000 0.000000
vn -1.000000 0.000000 0.000000
vn -1.000000 0.000000 0.000000
vn -1.000000 0.000000 0.000000
vn -1.000000 0.000000 0.000000
vn -1.000000 0.000000 0.000000
vn -1.000000 0.000000 0.000000
vn -1.000000 0.000000 0.000000
vn -1.000000 0.000000 0.000000
vn -1.000000 0.000000 0.000000
vn 1.000000 0.000000 0.000000
vn 1.000000 0.000000 0.000000
vn 1.000000 0.000000 0.000000
vn 1.000000 0.000000 0.000000
vn 1.000000 0.000001 0.000000
vn 1.000000 0.000001 0.000000
vn 1.000000 0.000001 0.000000
vn 1.000000 0.000001 0.000000
vn -1.000000 0.000000 0.000000
vn -1.000000 0.000000 0.000000
vn -1.000000 0.000000 0.000000
vn -1.000000 0.000000 0.000000
vn -1.000000 0.000000 0.000000
vn -1.000000 0.000000 0.000000
vn -1.000000 0.000000 0.000000
vn -1.000000 0.000000 0.000000
vn -1.000000 0.000000 0.000000
vn -1.000000 0.000000 0.000000
vn -1.000000 0.000000 0.000000
vn -1.000000 0.000000 0.000000
vn 1.000000 0.000000 0.000000
vn 1.000000 0.000000 0.000000
vn 1.000000 0.000000 0.000000
vn 1.000000 0.000000 0.000000
vn 1.000000 0.000001 0.000000
vn 1.000000 0.000001 0.000000
vn 1.000000 0.000001 0.000000
vn 1.000000 0.000001 0.000000
vn -1.000000 0.000000 0.000000
vn -1.000000 0.000000 0.000000
vn -1.000000 0.000000 0.000000
vn -1.000000 0.000000 0.000000
vn 0.000000 1.000000 0.000000
vn 0.000000 1.000000 0.000000
vn 0.000000 1.000000 0.000000
vn 0.000000 1.000000 0.000000
vn 0.000000 -1.000000 0.000000
vn 0.000000 -1.000000 0.000000
vn 0.000000 -1.000000 0.000000
vn 0.000000 -1.000000 0.000000
vn -1.000000 0.000000 0.000000
vn -1.000000 0.000000 0.000000
vn -1.000000 0.000000 0.000000
vn -1.000000 0.000000 0.000000
vn 1.000000 0.000000 0.000000
vn 1.000000 0.000000 0.000000
vn 1.000000 0.000000 0.000000
vn 1.000000 0.000000 0.000000
vn 1.000000 -0.000008 0.000000
vn 1.000000 -0.000008 0.000000
vn 1.000000 -0.000008 0.000000
vn 1.000000 -0.000008 0.000000
vn 1.000000 -0.000005 0.000000
vn 1.000000 -0.000005 0.000000
vn 1.000000 -0.000005 0.000000
vn 1.000000 -0.000005 0.000000
s off
usemtl ghost_initialShadingGroup
f 1/1/1 3/4/2 4/3/3 2/2/4
f 2/2/5 4/3/6 6/8/7 8/7/8
f 7/9/9 5/10/10 3/4/11 1/1/12
f 42/106/13 41/103/14 43/104/15 44/105/16
f 44/105/17 43/104/18 45/107/19 46/108/20
f 48/110/21 47/5/22 49/109/23
f 47/111/24 48/110/25 41/103/26 42/106/27
f 13/17/28 1/20/29 2/19/30 14/18/31
f 14/18/32 2/19/33 8/22/34 16/21/35
f 15/23/36 7/24/37 1/20/38 13/17/39
f 46/115/40 50/112/41 51/113/42 52/114/43
f 54/117/44 53/31/45 55/116/46
f 53/120/47 54/117/48 49/118/49 47/119/50
f 21/33/51 13/36/52 14/35/53 22/34/54
f 23/37/55 21/40/56 22/39/57 24/38/58
f 22/34/59 14/35/60 16/42/61 24/41/62
f 23/43/63 15/44/64 13/36/65 21/33/66
f 52/124/67 56/121/68 57/122/69 58/123/70
f 58/123/71 57/122/72 59/125/73 60/126/74
f 60/126/75 59/125/76 55/127/77 53/128/78
f 52/114/79 51/113/80 56/129/81
f 19/30/82 20/32/83 25/52/84 26/51/85
f 11/15/86 12/16/87 17/53/88 18/54/89
f 46/108/90 45/107/91 50/130/92
f 10/55/93 9/56/94 30/57/95 29/58/96
f 11/59/97 10/60/98 29/61/99 31/62/100
f 12/63/101 11/64/102 31/65/103 32/66/104
f 9/67/105 12/68/106 32/69/107 30/70/108
f 18/71/109 17/72/110 34/73/111 33/74/112
f 19/75/113 18/76/114 33/77/115 35/78/116
f 20/79/117 19/80/118 35/81/119 36/82/120
f 17/83/121 20/84/122 36/85/123 34/86/124
f 26/87/125 25/88/126 38/89/127 37/90/128
f 27/91/129 26/92/130 37/93/131 39/94/132
f 28/95/133 27/96/134 39/97/135 40/98/136
f 25/99/137 28/100/138 40/101/139 38/102/140
f 30/70/141 32/66/142 31/62/143 29/58/144
f 34/86/145 36/82/146 35/78/147 33/74/148
f 38/102/149 40/98/150 39/94/151 37/90/152
f 9/14/153 10/13/154 43/104/155 41/103/156
f 6/12/157 5/11/158 42/106/159 44/105/160
f 10/13/161 11/15/162 45/107/163 43/104/164
f 8/6/165 6/12/166 44/105/167 46/108/168
f 17/53/169 12/16/170 48/110/171 49/109/172
f 12/16/173 9/14/174 41/103/175 48/110/176
f 5/11/177 7/5/178 47/111/179 42/106/180
f 18/27/181 19/30/182 51/113/183 50/112/184
f 16/29/185 8/26/186 46/115/187 52/114/188
f 25/52/189 20/32/190 54/117/191 55/116/192
f 20/32/193 17/28/194 49/118/195 54/117/196
f 7/25/197 15/31/198 53/120/199 47/119/200
f 26/47/201 27/49/202 57/122/203 56/121/204
f 24/38/205 16/46/206 52/124/207 58/123/208
f 27/49/209 28/50/210 59/125/211 57/122/212
f 23/37/213 24/38/214 58/123/215 60/126/216
f 28/50/217 25/48/218 55/127/219 59/125/220
f 15/45/221 23/37/222 60/126/223 53/128/224
f 19/30/225 26/51/226 56/129/227 51/113/228
f 11/15/229 18/54/230 50/130/231 45/107/232
