# This file uses centimeters as units for non-parametric coordinates.

mtllib desk_right_3.mtl
v -4.531323 -1.755066 3.313632
v 0.000000 -1.755066 3.313632
v -4.531323 0.000000 3.313632
v 0.000000 0.000000 3.313632
v -4.531323 0.000000 -3.313632
v 0.000000 0.000000 -3.313632
v -4.531323 -1.755066 -3.313632
v 0.000000 -1.755066 -3.313632
v -4.253185 -0.430366 -3.313632
v -0.278139 -0.430366 -3.313632
v -0.278139 -1.574244 -3.313632
v -4.253185 -1.574244 -3.313632
v -4.531323 -3.084147 3.313632
v 0.000000 -3.084147 3.313632
v -4.531323 -3.084147 -3.313632
v 0.000000 -3.084147 -3.313632
v -4.253185 -1.757257 -3.313632
v -0.278138 -1.757257 -3.313632
v -0.278139 -2.903325 -3.313632
v -4.253185 -2.903325 -3.313632
v -4.531323 -4.413228 3.313632
v 0.000000 -4.413228 3.313632
v -4.531323 -4.413228 -3.313632
v 0.000000 -4.413228 -3.313632
v -4.253185 -3.086337 -3.313632
v -0.278138 -3.086337 -3.313632
v -0.278139 -4.232405 -3.313632
v -4.253185 -4.232405 -3.313632
v -0.278139 -0.430366 0.598378
v -4.253185 -0.430366 0.598378
v -0.278139 -1.574244 0.598378
v -4.253185 -1.574244 0.598378
v -0.278138 -1.757257 0.598378
v -4.253185 -1.757257 0.598378
v -0.278139 -2.903325 0.598378
v -4.253185 -2.903325 0.598378
v -0.278140 -3.086337 0.598378
v -4.253185 -3.086337 0.598378
v -0.278142 -4.232405 0.598378
v -4.253185 -4.232405 0.598378
v -4.253185 -0.430366 -3.569750
v -4.531323 0.000000 -3.569750
v -0.278139 -0.430366 -3.569750
v 0.000000 0.000000 -3.569750
v -0.278139 -1.574244 -3.569750
v 0.000000 -1.755066 -3.569750
v -4.531323 -1.755066 -3.569750
v -4.253185 -1.574244 -3.569750
v -4.253185 -1.757257 -3.569750
v -0.278138 -1.757257 -3.569750
v -0.278139 -2.903325 -3.569750
v 0.000000 -3.084147 -3.569750
v -4.531323 -3.084147 -3.569750
v -4.253185 -2.903325 -3.569750
v -4.253185 -3.086337 -3.569750
v -0.278138 -3.086337 -3.569750
v -0.278139 -4.232405 -3.569750
v 0.000000 -4.413228 -3.569750
v -4.253185 -4.232405 -3.569750
v -4.531323 -4.413228 -3.569750
vt 0.765573 0.144234
vt 0.815504 0.144234
vt 0.815504 0.194164
vt 0.765573 0.194164
vt 0.765573 0.294026
vt 0.815504 0.294026
vt 0.865435 0.144234
vt 0.865435 0.194164
vt 0.715643 0.144234
vt 0.715643 0.194164
vt 0.765573 0.244095
vt 0.815504 0.244095
vt 0.815504 0.244095
vt 0.765573 0.244095
vt 0.815504 0.294026
vt 0.765573 0.294026
vt 0.765573 0.144234
vt 0.815504 0.144234
vt 0.815504 0.194164
vt 0.765573 0.194164
vt 0.865435 0.144234
vt 0.865435 0.194164
vt 0.715643 0.144234
vt 0.715643 0.194164
vt 0.765573 0.244095
vt 0.815504 0.244095
vt 0.813972 0.244095
vt 0.767105 0.244095
vt 0.815504 0.294026
vt 0.815504 0.294026
vt 0.765573 0.294026
vt 0.765573 0.294026
vt 0.765573 0.144234
vt 0.815504 0.144234
vt 0.815504 0.194164
vt 0.765573 0.194164
vt 0.765573 0.294026
vt 0.815504 0.294026
vt 0.815504 0.343956
vt 0.765573 0.343956
vt 0.865435 0.144234
vt 0.865435 0.194164
vt 0.715643 0.144234
vt 0.715643 0.194164
vt 0.765573 0.244095
vt 0.815504 0.244095
vt 0.813972 0.244095
vt 0.767105 0.244095
vt 0.815504 0.294026
vt 0.765573 0.294026
vt 0.812439 0.294026
vt 0.768638 0.294026
vt 0.768638 0.294026
vt 0.812439 0.294026
vt 0.000000 0.000000
vt 1.000000 0.000000
vt 1.000000 1.000000
vt 0.000000 1.000000
vt 0.000000 0.000000
vt 1.000000 0.000000
vt 1.000000 1.000000
vt 0.000000 1.000000
vt 0.000000 0.000000
vt 1.000000 0.000000
vt 1.000000 1.000000
vt 0.000000 1.000000
vt 0.000000 0.000000
vt 1.000000 0.000000
vt 1.000000 1.000000
vt 0.000000 1.000000
vt 0.000000 0.000000
vt 1.000000 0.000000
vt 1.000000 1.000000
vt 0.000000 1.000000
vt 0.000000 0.000000
vt 1.000000 0.000000
vt 1.000000 1.000000
vt 0.000000 1.000000
vt 0.000000 0.000000
vt 1.000000 0.000000
vt 1.000000 1.000000
vt 0.000000 1.000000
vt 0.000000 0.000000
vt 1.000000 0.000000
vt 1.000000 1.000000
vt 0.000000 1.000000
vt 0.000000 0.000000
vt 1.000000 0.000000
vt 1.000000 1.000000
vt 0.000000 1.000000
vt 0.000000 0.000000
vt 1.000000 0.000000
vt 1.000000 1.000000
vt 0.000000 1.000000
vt 0.000000 0.000000
vt 1.000000 0.000000
vt 1.000000 1.000000
vt 0.000000 1.000000
vt 0.000000 0.000000
vt 1.000000 0.000000
vt 1.000000 1.000000
vt 0.000000 1.000000
vt 0.765573 0.244095
vt 0.815504 0.244095
vt 0.815504 0.244095
vt 0.765573 0.244095
vt 0.815504 0.294026
vt 0.815504 0.294026
vt 0.768638 0.294026
vt 0.765573 0.294026
vt 0.765573 0.294026
vt 0.813972 0.244095
vt 0.815504 0.294026
vt 0.815504 0.294026
vt 0.815504 0.244095
vt 0.768638 0.294026
vt 0.765573 0.294026
vt 0.767105 0.244095
vt 0.765573 0.244095
vt 0.765573 0.294026
vt 0.813972 0.244095
vt 0.815504 0.294026
vt 0.815504 0.294026
vt 0.815504 0.244095
vt 0.765573 0.294026
vt 0.765573 0.294026
vt 0.767105 0.244095
vt 0.765573 0.244095
vt 0.812439 0.294026
vt 0.812439 0.294026
vn 0.000000 0.000000 1.000000
vn 0.000000 0.000000 1.000000
vn 0.000000 0.000000 1.000000
vn 0.000000 0.000000 1.000000
vn 1.000000 0.000000 0.000000
vn 1.000000 0.000000 0.000000
vn 1.000000 0.000000 0.000000
vn 1.000000 0.000000 0.000000
vn -1.000000 0.000000 0.000000
vn -1.000000 0.000000 0.000000
vn -1.000000 0.000000 0.000000
vn -1.000000 0.000000 0.000000
vn 0.000000 0.000000 -1.000000
vn 0.000000 0.000000 -1.000000
vn 0.000000 0.000000 -1.000000
vn 0.000000 0.000000 -1.000000
vn -0.000001 0.000000 -1.000000
vn -0.000001 0.000000 -1.000000
vn -0.000001 0.000000 -1.000000
vn -0.000001 0.000000 -1.000000
vn 0.000000 0.000000 -1.000000
vn 0.000000 0.000000 -1.000000
vn 0.000000 0.000000 -1.000000
vn 0.000001 0.000000 -1.000000
vn 0.000001 0.000000 -1.000000
vn 0.000001 0.000000 -1.000000
vn 0.000001 0.000000 -1.000000
vn 0.000000 0.000000 1.000000
vn 0.000000 0.000000 1.000000
vn 0.000000 0.000000 1.000000
vn 0.000000 0.000000 1.000000
vn 1.000000 0.000000 0.000000
vn 1.000000 0.000000 0.000000
vn 1.000000 0.000000 0.000000
vn 1.000000 0.000000 0.000000
vn -1.000000 0.000000 0.000000
vn -1.000000 0.000000 0.000000
vn -1.000000 0.000000 0.000000
vn -1.000000 0.000000 0.000000
vn -0.000000 0.000000 -1.000000
vn -0.000000 0.000000 -1.000000
vn -0.000000 0.000000 -1.000000
vn -0.000000 0.000000 -1.000000
vn 0.000000 0.000000 -1.000000
vn 0.000000 0.000000 -1.000000
vn 0.000000 0.000000 -1.000000
vn -0.000001 0.000000 -1.000000
vn -0.000001 0.000000 -1.000000
vn -0.000001 0.000000 -1.000000
vn -0.000001 0.000000 -1.000000
vn 0.000000 0.000000 1.000000
vn 0.000000 0.000000 1.000000
vn 0.000000 0.000000 1.000000
vn 0.000000 0.000000 1.000000
vn 0.000000 -1.000000 0.000000
vn 0.000000 -1.000000 0.000000
vn 0.000000 -1.000000 0.000000
vn 0.000000 -1.000000 0.000000
vn 1.000000 0.000000 0.000000
vn 1.000000 0.000000 0.000000
vn 1.000000 0.000000 0.000000
vn 1.000000 0.000000 0.000000
vn -1.000000 0.000000 0.000000
vn -1.000000 0.000000 0.000000
vn -1.000000 0.000000 0.000000
vn -1.000000 0.000000 0.000000
vn -0.000001 0.000000 -1.000000
vn -0.000001 0.000000 -1.000000
vn -0.000001 0.000000 -1.000000
vn -0.000001 0.000000 -1.000000
vn 0.000000 0.000000 -1.000000
vn 0.000000 0.000000 -1.000000
vn 0.000000 0.000000 -1.000000
vn 0.000000 0.000000 -1.000000
vn 0.000002 0.000000 -1.000000
vn 0.000002 0.000000 -1.000000
vn 0.000002 0.000000 -1.000000
vn 0.000002 0.000000 -1.000000
vn 0.000000 0.000000 -1.000000
vn 0.000000 0.000000 -1.000000
vn 0.000000 0.000000 -1.000000
vn 0.000000 0.000000 -1.000000
vn 0.000000 0.000000 -1.000000
vn 0.000000 0.000000 -1.000000
vn 0.000000 0.000000 -1.000000
vn 0.000000 0.000000 -1.000000
vn 0.000000 0.000000 -1.000000
vn 0.000000 0.000000 -1.000000
vn 0.000000 0.000000 -1.000000
vn 0.000000 0.000000 -1.000000
vn 0.000000 0.000000 -1.000000
vn 0.000000 0.000000 -1.000000
vn 0.000000 -1.000000 0.000000
vn 0.000000 -1.000000 0.000000
vn 0.000000 -1.000000 0.000000
vn 0.000000 -1.000000 0.000000
vn -1.000000 0.000000 0.000000
vn -1.000000 0.000000 0.000000
vn -1.000000 0.000000 0.000000
vn -1.000000 0.000000 0.000000
vn 0.000000 1.000000 0.000000
vn 0.000000 1.000000 0.000000
vn 0.000000 1.000000 0.000000
vn 0.000000 1.000000 0.000000
vn 1.000000 0.000000 0.000000
vn 1.000000 0.000000 0.000000
vn 1.000000 0.000000 0.000000
vn 1.000000 0.000000 0.000000
vn 0.000000 -1.000000 0.000000
vn 0.000000 -1.000000 0.000000
vn 0.000000 -1.000000 0.000000
vn 0.000000 -1.000000 0.000000
vn -1.000000 0.000001 0.000000
vn -1.000000 0.000001 0.000000
vn -1.000000 0.000001 0.000000
vn -1.000000 0.000001 0.000000
vn 0.000000 1.000000 0.000000
vn 0.000000 1.000000 0.000000
vn 0.000000 1.000000 0.000000
vn 0.000000 1.000000 0.000000
vn 1.000000 0.000000 0.000000
vn 1.000000 0.000000 0.000000
vn 1.000000 0.000000 0.000000
vn 1.000000 0.000000 0.000000
vn 0.000000 -1.000000 0.000000
vn 0.000000 -1.000000 0.000000
vn 0.000000 -1.000000 0.000000
vn 0.000000 -1.000000 0.000000
vn -1.000000 0.000001 -0.000001
vn -1.000000 0.000001 -0.000001
vn -1.000000 0.000001 -0.000001
vn -1.000000 0.000001 -0.000001
vn 0.000000 1.000000 0.000000
vn 0.000000 1.000000 0.000000
vn 0.000000 1.000000 0.000000
vn 0.000000 1.000000 0.000000
vn 1.000000 0.000000 0.000000
vn 1.000000 0.000000 0.000000
vn 1.000000 0.000000 0.000000
vn 1.000000 0.000000 0.000000
vn 0.000000 0.000000 -1.000000
vn 0.000000 0.000000 -1.000000
vn 0.000000 0.000000 -1.000000
vn 0.000000 0.000000 -1.000000
vn 0.000000 0.000000 -1.000000
vn 0.000000 0.000000 -1.000000
vn 0.000000 0.000000 -1.000000
vn 0.000000 0.000000 -1.000000
vn 0.000000 0.000000 -1.000000
vn 0.000000 0.000000 -1.000000
vn 0.000000 0.000000 -1.000000
vn 0.000000 0.000000 -1.000000
vn 0.000000 -1.000000 0.000000
vn 0.000000 -1.000000 0.000000
vn 0.000000 -1.000000 0.000000
vn 0.000000 -1.000000 0.000000
vn 0.000000 1.000000 0.000000
vn 0.000000 1.000000 0.000000
vn 0.000000 1.000000 0.000000
vn 0.000000 1.000000 0.000000
vn -1.000000 0.000000 0.000000
vn -1.000000 0.000000 0.000000
vn -1.000000 0.000000 0.000000
vn -1.000000 0.000000 0.000000
vn 1.000000 0.000000 0.000000
vn 1.000000 0.000000 0.000000
vn 1.000000 0.000000 0.000000
vn 1.000000 0.000000 0.000000
vn 1.000000 0.000000 0.000000
vn 1.000000 0.000000 0.000000
vn 1.000000 0.000000 0.000000
vn 1.000000 0.000000 0.000000
vn 1.000000 0.000000 0.000000
vn 1.000000 0.000000 0.000000
vn 1.000000 0.000000 0.000000
vn 1.000000 0.000000 0.000000
vn -1.000000 0.000000 0.000000
vn -1.000000 0.000000 0.000000
vn -1.000000 0.000000 0.000000
vn -1.000000 0.000000 0.000000
vn -1.000000 0.000001 0.000000
vn -1.000000 0.000001 0.000000
vn -1.000000 0.000001 0.000000
vn -1.000000 0.000001 0.000000
vn 1.000000 0.000000 0.000000
vn 1.000000 0.000000 0.000000
vn 1.000000 0.000000 0.000000
vn 1.000000 0.000000 0.000000
vn 1.000000 0.000000 0.000000
vn 1.000000 0.000000 0.000000
vn 1.000000 0.000000 0.000000
vn 1.000000 0.000000 0.000000
vn 1.000000 0.000000 0.000000
vn 1.000000 0.000000 0.000000
vn 1.000000 0.000000 0.000000
vn 1.000000 0.000000 0.000000
vn -1.000000 0.000000 0.000000
vn -1.000000 0.000000 0.000000
vn -1.000000 0.000000 0.000000
vn -1.000000 0.000000 0.000000
vn -1.000000 0.000001 0.000000
vn -1.000000 0.000001 0.000000
vn -1.000000 0.000001 0.000000
vn -1.000000 0.000001 0.000000
vn 1.000000 0.000000 0.000000
vn 1.000000 0.000000 0.000000
vn 1.000000 0.000000 0.000000
vn 1.000000 0.000000 0.000000
vn 0.000000 1.000000 0.000000
vn 0.000000 1.000000 0.000000
vn 0.000000 1.000000 0.000000
vn 0.000000 1.000000 0.000000
vn 0.000000 -1.000000 0.000000
vn 0.000000 -1.000000 0.000000
vn 0.000000 -1.000000 0.000000
vn 0.000000 -1.000000 0.000000
vn 1.000000 0.000000 0.000000
vn 1.000000 0.000000 0.000000
vn 1.000000 0.000000 0.000000
vn 1.000000 0.000000 0.000000
vn -1.000000 0.000000 0.000000
vn -1.000000 0.000000 0.000000
vn -1.000000 0.000000 0.000000
vn -1.000000 0.000000 0.000000
vn -1.000000 -0.000008 0.000000
vn -1.000000 -0.000008 0.000000
vn -1.000000 -0.000008 0.000000
vn -1.000000 -0.000008 0.000000
vn -1.000000 -0.000005 0.000000
vn -1.000000 -0.000005 0.000000
vn -1.000000 -0.000005 0.000000
vn -1.000000 -0.000005 0.000000
s off
usemtl ghost_initialShadingGroup
f 1/1/1 2/2/2 4/3/3 3/4/4
f 2/2/5 8/7/6 6/8/7 4/3/8
f 7/9/9 1/1/10 3/4/11 5/10/12
f 42/106/13 44/105/14 43/104/15 41/103/16
f 44/105/17 46/108/18 45/107/19 43/104/20
f 48/110/21 49/109/22 47/5/23
f 47/111/24 42/106/25 41/103/26 48/110/27
f 13/17/28 14/18/29 2/19/30 1/20/31
f 14/18/32 16/21/33 8/22/34 2/19/35
f 15/23/36 13/17/37 1/20/38 7/24/39
f 46/115/40 52/114/41 51/113/42 50/112/43
f 54/117/44 55/116/45 53/31/46
f 53/120/47 47/119/48 49/118/49 54/117/50
f 21/33/51 22/34/52 14/35/53 13/36/54
f 23/37/55 24/38/56 22/39/57 21/40/58
f 22/34/59 24/41/60 16/42/61 14/35/62
f 23/43/63 21/33/64 13/36/65 15/44/66
f 52/124/67 58/123/68 57/122/69 56/121/70
f 58/123/71 60/126/72 59/125/73 57/122/74
f 60/126/75 53/128/76 55/127/77 59/125/78
f 52/114/79 56/129/80 51/113/81
f 19/30/82 26/51/83 25/52/84 20/32/85
f 11/15/86 18/54/87 17/53/88 12/16/89
f 46/108/90 50/130/91 45/107/92
f 10/55/93 29/58/94 30/57/95 9/56/96
f 11/59/97 31/62/98 29/61/99 10/60/100
f 12/63/101 32/66/102 31/65/103 11/64/104
f 9/67/105 30/70/106 32/69/107 12/68/108
f 18/71/109 33/74/110 34/73/111 17/72/112
f 19/75/113 35/78/114 33/77/115 18/76/116
f 20/79/117 36/82/118 35/81/119 19/80/120
f 17/83/121 34/86/122 36/85/123 20/84/124
f 26/87/125 37/90/126 38/89/127 25/88/128
f 27/91/129 39/94/130 37/93/131 26/92/132
f 28/95/133 40/98/134 39/97/135 27/96/136
f 25/99/137 38/102/138 40/101/139 28/100/140
f 30/70/141 29/58/142 31/62/143 32/66/144
f 34/86/145 33/74/146 35/78/147 36/82/148
f 38/102/149 37/90/150 39/94/151 40/98/152
f 9/14/153 41/103/154 43/104/155 10/13/156
f 6/12/157 44/105/158 42/106/159 5/11/160
f 10/13/161 43/104/162 45/107/163 11/15/164
f 8/6/165 46/108/166 44/105/167 6/12/168
f 17/53/169 49/109/170 48/110/171 12/16/172
f 12/16/173 48/110/174 41/103/175 9/14/176
f 5/11/177 42/106/178 47/111/179 7/5/180
f 18/27/181 50/112/182 51/113/183 19/30/184
f 16/29/185 52/114/186 46/115/187 8/26/188
f 25/52/189 55/116/190 54/117/191 20/32/192
f 20/32/193 54/117/194 49/118/195 17/28/196
f 7/25/197 47/119/198 53/120/199 15/31/200
f 26/47/201 56/121/202 57/122/203 27/49/204
f 24/38/205 58/123/206 52/124/207 16/46/208
f 27/49/209 57/122/210 59/125/211 28/50/212
f 23/37/213 60/126/214 58/123/215 24/38/216
f 28/50/217 59/125/218 55/127/219 25/48/220
f 15/45/221 53/128/222 60/126/223 23/37/224
f 19/30/225 51/113/226 56/129/227 26/51/228
f 11/15/229 45/107/230 50/130/231 18/54/232
