# This file uses centimeters as units for non-parametric coordinates.

mtllib desk_middle_1.mtl
v -0.468048 -0.673711 -3.338218
v -0.468048 -0.531677 -3.338218
v 0.576079 -0.673711 -3.338218
v 0.576079 -0.531677 -3.338218
v 0.576079 -0.673711 -2.682005
v 0.576079 -0.531677 -2.682005
v -0.468048 -0.673711 -2.682005
v -0.468048 -0.531677 -2.682005
v 0.576079 -0.531677 -3.174164
v 0.576079 -0.673711 -3.174164
v -0.468048 -0.673711 -3.174164
v -0.468048 -0.531677 -3.174164
v 0.407359 -0.531677 -3.174164
v 0.407359 -0.531677 -3.338218
v 0.407359 -0.673711 -3.338218
v 0.407359 -0.673711 -3.174164
v 0.407359 -0.673711 -2.682005
v 0.407359 -0.531677 -2.682005
v -0.299325 -0.531677 -3.174164
v -0.299325 -0.531677 -3.338218
v -0.299325 -0.673711 -3.338218
v -0.299325 -0.673711 -3.174164
v -0.299325 -0.673711 -2.682005
v -0.299325 -0.531677 -2.682005
v -3.347471 -0.942786 3.313632
v 3.315921 -0.942786 3.313632
v -3.347471 0.000000 3.313632
v 3.315921 0.000000 3.313632
v -3.347471 0.000000 -2.779692
v 3.347677 0.000000 -2.779692
v -3.347471 -0.942786 -2.779692
v 3.347677 -0.942786 -2.779692
v -3.108693 -0.284276 -2.779692
v 3.108692 -0.284276 -2.779692
v 3.108692 -0.898744 -2.779692
v -3.108693 -0.898744 -2.779692
v -3.108693 -0.284276 -2.874779
v 3.108692 -0.284276 -2.874779
v 3.108692 -0.898744 -2.874779
v -3.108693 -0.898744 -2.874779
v -2.952216 -0.376521 -2.932652
v 2.952214 -0.376521 -2.932652
v 2.952214 -0.806500 -2.932652
v -2.952216 -0.806500 -2.932652
vt 0.214728 0.668085
vt 0.242985 0.668085
vt 0.242985 0.675150
vt 0.214728 0.675150
vt 0.214728 0.696343
vt 0.242985 0.696343
vt 0.242985 0.703407
vt 0.214728 0.703407
vt 0.200599 0.710472
vt 0.257114 0.710472
vt 0.242985 0.752858
vt 0.214728 0.752858
vt 0.214728 0.774052
vt 0.242985 0.774052
vt 0.242985 0.781116
vt 0.214728 0.781116
vt 0.250050 0.668085
vt 0.250050 0.675150
vt 0.207663 0.668085
vt 0.207663 0.675150
vt 0.214728 0.724601
vt 0.242985 0.724601
vt 0.186470 0.668085
vt 0.271243 0.668085
vt 0.271243 0.696343
vt 0.250050 0.696343
vt 0.250050 0.689278
vt 0.257114 0.710472
vt 0.242985 0.689278
vt 0.214728 0.689278
vt 0.207663 0.689278
vt 0.207663 0.696343
vt 0.200599 0.710472
vt 0.186470 0.696343
vt 0.765573 0.144234
vt 0.815504 0.144234
vt 0.815504 0.194164
vt 0.765573 0.194164
vt 0.765573 0.244095
vt 0.815504 0.244095
vt 0.815504 0.294026
vt 0.765573 0.294026
vt 0.765573 0.294026
vt 0.815504 0.294026
vt 0.815504 0.343956
vt 0.765573 0.343956
vt 0.865435 0.144234
vt 0.865435 0.194164
vt 0.715643 0.144234
vt 0.715643 0.194164
vt 0.765573 0.244095
vt 0.815504 0.244095
vt 0.815504 0.244095
vt 0.765573 0.244095
vt 0.815504 0.294026
vt 0.765573 0.294026
vt 0.815504 0.244095
vt 0.765573 0.244095
vt 0.815504 0.294026
vt 0.765573 0.294026
vn 0.000000 0.000000 -1.000000
vn 0.000000 0.000000 -1.000000
vn 0.000000 0.000000 -1.000000
vn 0.000000 0.000000 -1.000000
vn 1.000000 -0.000000 0.000000
vn 1.000000 -0.000000 0.000000
vn 1.000000 -0.000000 0.000000
vn 1.000000 -0.000000 0.000000
vn 0.000000 0.000000 1.000000
vn 0.000000 0.000000 1.000000
vn 0.000000 0.000000 1.000000
vn 0.000000 0.000000 1.000000
vn -1.000000 0.000000 -0.000000
vn -1.000000 0.000000 -0.000000
vn -1.000000 0.000000 -0.000000
vn -1.000000 0.000000 -0.000000
vn 0.000000 1.000000 0.000000
vn 0.000000 1.000000 0.000000
vn 0.000000 1.000000 0.000000
vn 0.000000 1.000000 0.000000
vn 0.000000 -1.000000 0.000000
vn 0.000000 -1.000000 0.000000
vn 0.000000 -1.000000 0.000000
vn 0.000000 -1.000000 0.000000
vn 1.000000 -0.000000 0.000000
vn 1.000000 -0.000000 0.000000
vn 1.000000 -0.000000 0.000000
vn 1.000000 -0.000000 0.000000
vn 0.000000 -1.000000 0.000000
vn 0.000000 -1.000000 0.000000
vn 0.000000 -1.000000 0.000000
vn 0.000000 -1.000000 0.000000
vn -1.000000 0.000000 -0.000000
vn -1.000000 0.000000 -0.000000
vn -1.000000 0.000000 -0.000000
vn -1.000000 0.000000 -0.000000
vn 0.000000 1.000000 0.000000
vn 0.000000 1.000000 0.000000
vn 0.000000 1.000000 0.000000
vn 0.000000 1.000000 0.000000
vn 0.000000 1.000000 0.000000
vn 0.000000 1.000000 0.000000
vn 0.000000 1.000000 0.000000
vn 0.000000 1.000000 0.000000
vn 0.000000 1.000000 0.000000
vn 0.000000 1.000000 0.000000
vn 0.000000 1.000000 0.000000
vn 0.000000 1.000000 0.000000
vn 0.000000 0.000000 -1.000000
vn 0.000000 0.000000 -1.000000
vn 0.000000 0.000000 -1.000000
vn 0.000000 0.000000 -1.000000
vn 0.000000 -1.000000 0.000000
vn 0.000000 -1.000000 0.000000
vn 0.000000 -1.000000 0.000000
vn 0.000000 -1.000000 0.000000
vn 0.000000 -1.000000 0.000000
vn 0.000000 -1.000000 0.000000
vn 0.000000 -1.000000 0.000000
vn 0.000000 -1.000000 0.000000
vn 0.000000 0.000000 1.000000
vn 0.000000 0.000000 1.000000
vn 0.000000 0.000000 1.000000
vn 0.000000 0.000000 1.000000
vn 0.000000 1.000000 0.000000
vn 0.000000 1.000000 0.000000
vn 0.000000 1.000000 0.000000
vn 0.000000 1.000000 0.000000
vn 0.000000 0.000000 -1.000000
vn 0.000000 0.000000 -1.000000
vn 0.000000 0.000000 -1.000000
vn 0.000000 0.000000 -1.000000
vn 0.000000 -1.000000 0.000000
vn 0.000000 -1.000000 0.000000
vn 0.000000 -1.000000 0.000000
vn 0.000000 -1.000000 0.000000
vn 0.000000 0.000000 1.000000
vn 0.000000 0.000000 1.000000
vn 0.000000 0.000000 1.000000
vn 0.000000 0.000000 1.000000
vn -1.000000 0.000000 -0.000000
vn -1.000000 0.000000 -0.000000
vn -1.000000 0.000000 -0.000000
vn -1.000000 0.000000 -0.000000
vn 1.000000 -0.000000 0.000000
vn 1.000000 -0.000000 0.000000
vn 1.000000 -0.000000 0.000000
vn 1.000000 -0.000000 0.000000
vn 0.000000 0.000000 1.000000
vn 0.000000 0.000000 1.000000
vn 0.000000 0.000000 1.000000
vn 0.000000 0.000000 1.000000
vn -0.018347 0.000000 -0.999832
vn 0.018347 0.000000 -0.999832
vn 0.018347 0.000000 -0.999832
vn -0.018347 0.000000 -0.999832
vn 0.000000 -1.000000 0.000000
vn 0.000000 -1.000000 0.000000
vn 0.000000 -1.000000 0.000000
vn 0.000000 -1.000000 0.000000
vn 1.000000 0.000000 0.000000
vn 1.000000 0.000000 0.000000
vn 1.000000 0.000000 0.000000
vn 1.000000 0.000000 0.000000
vn -1.000000 0.000000 0.000000
vn -1.000000 0.000000 0.000000
vn -1.000000 0.000000 0.000000
vn -1.000000 0.000000 0.000000
vn -0.000000 0.000000 -1.000000
vn 0.000000 0.000000 -1.000000
vn 0.000000 0.000000 -1.000000
vn -0.000000 0.000000 -1.000000
vn 0.000000 0.000000 -1.000000
vn 0.000000 0.000000 -1.000000
vn 0.000000 0.000000 -1.000000
vn 0.000000 0.000000 -1.000000
vn 0.000000 0.000000 -1.000000
vn -0.000000 0.000000 -1.000000
vn -0.000000 0.000000 -1.000000
vn 0.000000 0.000000 -1.000000
vn -0.000000 0.000000 -1.000000
vn -0.000000 0.000000 -1.000000
vn -0.000000 0.000000 -1.000000
vn -0.000000 0.000000 -1.000000
vn 0.000000 1.000000 0.000000
vn 0.000000 1.000000 0.000000
vn 0.000000 1.000000 0.000000
vn 0.000000 1.000000 0.000000
vn 1.000000 0.000000 0.000000
vn 1.000000 0.000000 0.000000
vn 1.000000 0.000000 0.000000
vn 1.000000 0.000000 0.000000
vn 0.000000 -1.000000 0.000000
vn 0.000000 -1.000000 0.000000
vn 0.000000 -1.000000 0.000000
vn 0.000000 -1.000000 0.000000
vn -1.000000 0.000000 0.000000
vn -1.000000 0.000000 0.000000
vn -1.000000 0.000000 0.000000
vn -1.000000 0.000000 0.000000
vn 0.000000 0.778738 -0.627350
vn 0.000000 0.778738 -0.627350
vn 0.000000 0.778738 -0.627350
vn 0.000000 0.778738 -0.627350
vn 0.336387 0.000000 -0.941724
vn 0.336387 0.000000 -0.941724
vn 0.018347 0.000000 -0.999832
vn 0.018347 0.000000 -0.999832
vn 0.000000 -0.778737 -0.627351
vn 0.000000 -0.778737 -0.627351
vn 0.000000 -0.778737 -0.627351
vn 0.000000 -0.778737 -0.627351
vn -0.336387 0.000000 -0.941724
vn -0.336387 0.000000 -0.941724
vn -0.018347 0.000000 -0.999832
vn -0.018347 0.000000 -0.999832
s off
usemtl ghost_initialShadingGroup
f 1/1/1 2/2/2 20/3/3 21/4/4
f 3/5/5 4/6/6 9/7/7 10/8/8
f 23/9/9 24/10/10 8/11/11 7/12/12
f 11/13/13 12/14/14 2/15/15 1/16/16
f 2/2/17 12/17/18 19/18/19 20/3/20
f 11/19/21 1/1/22 21/4/23 22/20/24
f 5/21/25 10/8/26 9/7/27 6/22/28
f 7/23/29 11/19/30 22/20/31 23/9/32
f 12/14/33 11/13/34 7/12/35 8/11/36
f 24/10/37 19/18/38 12/17/39 8/24/40
f 6/25/41 9/26/42 13/27/43 18/28/44
f 14/29/45 13/27/46 9/26/47 4/6/48
f 15/30/49 14/29/50 4/6/51 3/5/52
f 16/31/53 15/30/54 3/5/55 10/32/56
f 17/33/57 16/31/58 10/32/59 5/34/60
f 5/21/61 6/22/62 18/28/63 17/33/64
f 14/29/65 20/3/66 19/18/67 13/27/68
f 15/30/69 21/4/70 20/3/71 14/29/72
f 16/31/73 22/20/74 21/4/75 15/30/76
f 13/27/77 19/18/78 22/20/79 16/31/80
f 16/31/81 17/33/82 18/28/83 13/27/84
f 19/18/85 24/10/86 23/9/87 22/20/88
f 25/35/89 26/36/90 28/37/91 27/38/92
f 41/39/93 42/40/94 43/41/95 44/42/96
f 31/43/97 32/44/98 26/45/99 25/46/100
f 26/36/101 32/47/102 30/48/103 28/37/104
f 31/49/105 25/35/106 27/38/107 29/50/108
f 29/51/109 30/52/110 34/53/111 33/54/112
f 30/52/113 32/44/114 35/55/115 34/53/116
f 32/44/117 31/43/118 36/56/119 35/55/120
f 31/43/121 29/51/122 33/54/123 36/56/124
f 33/54/125 34/53/126 38/57/127 37/58/128
f 34/53/129 35/55/130 39/59/131 38/57/132
f 35/55/133 36/56/134 40/60/135 39/59/136
f 36/56/137 33/54/138 37/58/139 40/60/140
f 37/58/141 38/57/142 42/40/143 41/39/144
f 38/57/145 39/59/146 43/41/147 42/40/148
f 39/59/149 40/60/150 44/42/151 43/41/152
f 40/60/153 37/58/154 41/39/155 44/42/156
