# This file uses centimeters as units for non-parametric coordinates.

mtllib desk_legs_1.mtl
v 8.308765 -6.420861 3.447368
v 7.714876 -6.420861 3.447368
v 8.308765 0.063057 3.447368
v 7.714876 0.063057 3.447368
v 8.308765 0.063057 -3.447368
v 7.714876 0.063057 -3.447368
v 8.308765 -6.420861 -3.447368
v 7.714876 -6.420861 -3.447368
v 7.714876 -1.557923 3.447368
v 8.308765 -1.557923 3.447368
v 8.308765 -1.557923 -3.447368
v 7.714876 -1.557923 -3.447368
v 7.714876 -3.178902 3.447368
v 8.308765 -3.178902 3.447368
v 8.308765 -3.178902 -3.447368
v 7.714876 -3.178902 -3.447368
v 7.714876 -4.799881 3.447368
v 8.308765 -4.799881 3.447368
v 8.308765 -4.799881 -3.447368
v 7.714876 -4.799881 -3.447368
v -8.308765 -6.420861 3.447368
v -7.714876 -6.420861 3.447368
v -8.308765 0.063057 3.447368
v -7.714876 0.063057 3.447368
v -8.308765 0.063057 -3.447368
v -7.714876 0.063057 -3.447368
v -8.308765 -6.420861 -3.447368
v -7.714876 -6.420861 -3.447368
v -7.714876 -1.557923 3.447368
v -8.308765 -1.557923 3.447368
v -8.308765 -1.557923 -3.447368
v -7.714876 -1.557923 -3.447368
v -7.714876 -3.178902 3.447368
v -8.308765 -3.178902 3.447368
v -8.308765 -3.178902 -3.447368
v -7.714876 -3.178902 -3.447368
v -7.714876 -4.799881 3.447368
v -8.308765 -4.799881 3.447368
v -8.308765 -4.799881 -3.447368
v -7.714876 -4.799881 -3.447368
vt 0.832706 0.710998
vt 0.875362 0.710998
vt 0.832706 0.753654
vt 0.875362 0.753654
vt 0.832706 0.796311
vt 0.875362 0.796311
vt 0.832706 0.838968
vt 0.875362 0.838968
vt 0.832706 0.881624
vt 0.875362 0.881624
vt 0.918019 0.710998
vt 0.918019 0.753654
vt 0.790049 0.710998
vt 0.790049 0.753654
vt 0.875362 0.742990
vt 0.832706 0.742990
vt 0.790049 0.742990
vt 0.832706 0.806975
vt 0.875362 0.806975
vt 0.918019 0.742990
vt 0.875362 0.732326
vt 0.832706 0.732326
vt 0.790049 0.732326
vt 0.832706 0.817639
vt 0.875362 0.817639
vt 0.918019 0.732326
vt 0.875362 0.721662
vt 0.832706 0.721662
vt 0.790049 0.721662
vt 0.832706 0.828303
vt 0.875362 0.828303
vt 0.918019 0.721662
vt 0.832706 0.710998
vt 0.875362 0.710998
vt 0.875362 0.721662
vt 0.832706 0.721662
vt 0.832706 0.753654
vt 0.875362 0.753654
vt 0.875362 0.796311
vt 0.832706 0.796311
vt 0.832706 0.828303
vt 0.875362 0.828303
vt 0.875362 0.838968
vt 0.832706 0.838968
vt 0.875362 0.881624
vt 0.832706 0.881624
vt 0.918019 0.710998
vt 0.918019 0.721662
vt 0.790049 0.710998
vt 0.790049 0.721662
vt 0.832706 0.742990
vt 0.875362 0.742990
vt 0.790049 0.742990
vt 0.790049 0.753654
vt 0.875362 0.806975
vt 0.832706 0.806975
vt 0.918019 0.742990
vt 0.918019 0.753654
vt 0.832706 0.732326
vt 0.875362 0.732326
vt 0.790049 0.732326
vt 0.875362 0.817639
vt 0.832706 0.817639
vt 0.918019 0.732326
vn 0.000000 0.000000 1.000000
vn 0.000000 0.000000 1.000000
vn 0.000000 0.000000 1.000000
vn 0.000000 0.000000 1.000000
vn 0.000000 1.000000 0.000000
vn 0.000000 1.000000 0.000000
vn 0.000000 1.000000 0.000000
vn 0.000000 1.000000 0.000000
vn 0.000000 0.000000 -1.000000
vn 0.000000 0.000000 -1.000000
vn 0.000000 0.000000 -1.000000
vn 0.000000 0.000000 -1.000000
vn 0.000000 -1.000000 0.000000
vn 0.000000 -1.000000 0.000000
vn 0.000000 -1.000000 0.000000
vn 0.000000 -1.000000 0.000000
vn -1.000000 0.000000 0.000000
vn -1.000000 0.000000 0.000000
vn -1.000000 0.000000 0.000000
vn -1.000000 0.000000 0.000000
vn 1.000000 0.000000 0.000000
vn 1.000000 0.000000 0.000000
vn 1.000000 0.000000 0.000000
vn 1.000000 0.000000 0.000000
vn 0.000000 0.000000 1.000000
vn 0.000000 0.000000 1.000000
vn 0.000000 0.000000 1.000000
vn 0.000000 0.000000 1.000000
vn 1.000000 0.000000 0.000000
vn 1.000000 0.000000 0.000000
vn 1.000000 0.000000 0.000000
vn 1.000000 0.000000 0.000000
vn 0.000000 0.000000 -1.000000
vn 0.000000 0.000000 -1.000000
vn 0.000000 0.000000 -1.000000
vn 0.000000 0.000000 -1.000000
vn -1.000000 0.000000 0.000000
vn -1.000000 0.000000 0.000000
vn -1.000000 0.000000 0.000000
vn -1.000000 0.000000 0.000000
vn 0.000000 0.000000 1.000000
vn 0.000000 0.000000 1.000000
vn 1.000000 0.000000 0.000000
vn 1.000000 0.000000 0.000000
vn 0.000000 0.000000 -1.000000
vn 0.000000 0.000000 -1.000000
vn -1.000000 0.000000 0.000000
vn -1.000000 0.000000 0.000000
vn 0.000000 0.000000 1.000000
vn 0.000000 0.000000 1.000000
vn 0.000000 0.000000 1.000000
vn 0.000000 0.000000 1.000000
vn 0.000000 1.000000 0.000000
vn 0.000000 1.000000 0.000000
vn 0.000000 1.000000 0.000000
vn 0.000000 1.000000 0.000000
vn 0.000000 0.000000 -1.000000
vn 0.000000 0.000000 -1.000000
vn 0.000000 0.000000 -1.000000
vn 0.000000 0.000000 -1.000000
vn 0.000000 -1.000000 0.000000
vn 0.000000 -1.000000 0.000000
vn 0.000000 -1.000000 0.000000
vn 0.000000 -1.000000 0.000000
vn 1.000000 0.000000 0.000000
vn 1.000000 0.000000 0.000000
vn 1.000000 0.000000 0.000000
vn 1.000000 0.000000 0.000000
vn -1.000000 0.000000 0.000000
vn -1.000000 0.000000 0.000000
vn -1.000000 0.000000 0.000000
vn -1.000000 0.000000 0.000000
vn 0.000000 0.000000 1.000000
vn 0.000000 0.000000 1.000000
vn 0.000000 0.000000 1.000000
vn 0.000000 0.000000 1.000000
vn -1.000000 0.000000 0.000000
vn -1.000000 0.000000 0.000000
vn -1.000000 0.000000 0.000000
vn -1.000000 0.000000 0.000000
vn 0.000000 0.000000 -1.000000
vn 0.000000 0.000000 -1.000000
vn 0.000000 0.000000 -1.000000
vn 0.000000 0.000000 -1.000000
vn 1.000000 0.000000 0.000000
vn 1.000000 0.000000 0.000000
vn 1.000000 0.000000 0.000000
vn 1.000000 0.000000 0.000000
vn 0.000000 0.000000 1.000000
vn 0.000000 0.000000 1.000000
vn -1.000000 0.000000 0.000000
vn -1.000000 0.000000 0.000000
vn 0.000000 0.000000 -1.000000
vn 0.000000 0.000000 -1.000000
vn 1.000000 0.000000 0.000000
vn 1.000000 0.000000 0.000000
s 1
usemtl initialShadingGroup
f 1/1/1 18/28/2 17/27/3 2/2/4
s off
f 3/3/5 5/5/6 6/6/7 4/4/8
s 2
f 19/30/9 7/7/10 8/8/11 20/31/12
s off
f 7/7/13 1/9/14 2/10/15 8/8/16
s 3
f 2/2/17 17/27/18 20/32/19 8/11/20
s 4
f 7/13/21 19/29/22 18/28/23 1/1/24
s 1
f 10/16/25 3/3/26 4/4/27 9/15/28
s 4
f 11/17/29 5/14/30 3/3/31 10/16/32
s 2
f 5/5/33 11/18/34 12/19/35 6/6/36
s 3
f 9/15/37 4/4/38 6/12/39 12/20/40
s 1
f 14/22/41 10/16/25 9/15/28 13/21/42
s 4
f 15/23/43 11/17/29 10/16/32 14/22/44
s 2
f 11/18/34 15/24/45 16/25/46 12/19/35
s 3
f 13/21/47 9/15/37 12/20/40 16/26/48
s 1
f 18/28/2 14/22/41 13/21/42 17/27/3
s 4
f 19/29/22 15/23/43 14/22/44 18/28/23
s 2
f 15/24/45 19/30/9 20/31/12 16/25/46
s 3
f 17/27/18 13/21/47 16/26/48 20/32/19
s 9
f 21/33/49 22/34/50 37/35/51 38/36/52
s off
f 23/37/53 24/38/54 26/39/55 25/40/56
s 10
f 39/41/57 40/42/58 28/43/59 27/44/60
s off
f 27/44/61 28/43/62 22/45/63 21/46/64
s 11
f 22/34/65 28/47/66 40/48/67 37/35/68
s 12
f 27/49/69 21/33/70 38/36/71 39/50/72
s 9
f 30/51/73 29/52/74 24/38/75 23/37/76
s 12
f 31/53/77 30/51/78 23/37/79 25/54/80
s 10
f 25/40/81 26/39/82 32/55/83 31/56/84
s 11
f 29/52/85 32/57/86 26/58/87 24/38/88
s 9
f 34/59/89 33/60/90 29/52/74 30/51/73
s 12
f 35/61/91 34/59/92 30/51/78 31/53/77
s 10
f 31/56/84 32/55/83 36/62/93 35/63/94
s 11
f 33/60/95 36/64/96 32/57/86 29/52/85
s 9
f 38/36/52 37/35/51 33/60/90 34/59/89
s 12
f 39/50/72 38/36/71 34/59/92 35/61/91
s 10
f 35/63/94 36/62/93 40/42/58 39/41/57
s 11
f 37/35/68 40/48/67 36/64/96 33/60/95
