# This file uses centimeters as units for non-parametric coordinates.

mtllib desk_top_1.mtl
v -8.577624 -0.197444 4.077433
v 8.577624 -0.197444 4.077433
v -8.577624 0.197444 4.077433
v 8.577624 0.197444 4.077433
v -8.577624 0.197444 -4.077433
v 8.577624 0.197444 -4.077433
v -8.577624 -0.197444 -4.077433
v 8.577624 -0.197444 -4.077433
vt 0.227099 0.201125
vt 0.272636 0.201125
vt 0.227099 0.246661
vt 0.272636 0.246661
vt 0.227099 0.292197
vt 0.272636 0.292197
vt 0.227099 0.337734
vt 0.272636 0.337734
vt 0.227099 0.383270
vt 0.272636 0.383270
vt 0.318172 0.201125
vt 0.318172 0.246661
vt 0.181563 0.201125
vt 0.181563 0.246661
vn 0.000000 0.000000 1.000000
vn 0.000000 0.000000 1.000000
vn 0.000000 0.000000 1.000000
vn 0.000000 0.000000 1.000000
vn 0.000000 1.000000 0.000000
vn 0.000000 1.000000 0.000000
vn 0.000000 1.000000 0.000000
vn 0.000000 1.000000 0.000000
vn 0.000000 0.000000 -1.000000
vn 0.000000 0.000000 -1.000000
vn 0.000000 0.000000 -1.000000
vn 0.000000 0.000000 -1.000000
vn 0.000000 -1.000000 0.000000
vn 0.000000 -1.000000 0.000000
vn 0.000000 -1.000000 0.000000
vn 0.000000 -1.000000 0.000000
vn 1.000000 0.000000 0.000000
vn 1.000000 0.000000 0.000000
vn 1.000000 0.000000 0.000000
vn 1.000000 0.000000 0.000000
vn -1.000000 0.000000 0.000000
vn -1.000000 0.000000 0.000000
vn -1.000000 0.000000 0.000000
vn -1.000000 0.000000 0.000000
s off
usemtl initialShadingGroup
f 1/1/1 2/2/2 4/4/3 3/3/4
f 3/3/5 4/4/6 6/6/7 5/5/8
f 5/5/9 6/6/10 8/8/11 7/7/12
f 7/7/13 8/8/14 2/10/15 1/9/16
f 2/2/17 8/11/18 6/12/19 4/4/20
f 7/13/21 1/1/22 3/3/23 5/14/24
