# This file uses centimeters as units for non-parametric coordinates.

mtllib fireplace_front_1.mtl
v -8.160448 0.000000 1.180400
v -5.377839 0.000000 1.180400
v -8.160448 0.640312 1.180400
v -5.377839 0.640312 1.180400
v -8.160448 0.640312 0.000000
v -5.377839 0.640312 0.000000
v -8.160448 0.000000 0.000000
v -5.377839 0.000000 0.000000
v -8.160448 5.190036 0.827353
v -5.688403 5.190036 0.827353
v -5.688403 5.190036 0.000000
v -8.160448 5.190036 0.000000
v -8.160448 5.368985 0.827353
v -5.688403 5.368985 0.827353
v -5.688403 5.368985 0.000000
v -8.160448 5.368985 0.000000
v -8.160448 7.595742 0.827353
v -5.688403 7.595742 0.827353
v -5.688403 7.595742 0.000000
v -8.160448 7.595742 0.000000
v -8.160448 7.772528 0.827353
v -5.688403 7.772528 0.827353
v -5.688403 7.772528 0.000000
v -8.160448 7.772528 0.000000
v -8.588362 9.145986 1.207471
v -5.354026 9.145986 1.207471
v -5.354026 9.145986 0.000000
v -8.588362 9.145986 0.000000
v -8.588362 9.805678 1.207471
v -5.354026 9.805678 1.207471
v -5.354026 9.805678 0.000000
v -8.588362 9.805678 0.000000
v -8.626486 5.190036 1.250810
v -5.315903 5.190036 1.250810
v -5.315903 5.368985 1.250810
v -8.626486 5.368985 1.250810
v -5.315903 5.190036 0.000000
v -5.315903 5.368985 0.000000
v -8.626486 5.190036 0.000000
v -8.626486 5.368985 0.000000
v -8.626490 7.595742 1.250810
v -5.315903 7.595742 1.250810
v -5.315903 7.772528 1.250810
v -8.626490 7.772528 1.250810
v -5.315903 7.595742 0.000000
v -5.315903 7.772528 0.000000
v -8.626490 7.595742 0.000000
v -8.626490 7.772528 0.000000
v -8.960861 9.145986 1.630929
v -4.981527 9.145986 1.630929
v -4.981527 9.805678 1.630929
v -8.960861 9.805678 1.630929
v -4.981527 9.805678 0.000000
v -8.960861 9.145986 0.000000
v -8.960861 9.805678 0.000000
v 5.377837 0.000000 1.180400
v 8.160447 0.000000 1.180400
v 5.377837 0.640312 1.180400
v 8.160447 0.640312 1.180400
v 5.377837 0.640312 0.000000
v 8.160447 0.640312 0.000000
v 5.377837 0.000000 0.000000
v 8.160447 0.000000 0.000000
v 5.688401 5.190036 0.827353
v 8.160447 5.190036 0.827353
v 8.160447 5.190036 0.000000
v 5.688401 5.190036 0.000000
v 5.688401 5.368985 0.827353
v 8.160447 5.368985 0.827353
v 8.160447 5.368985 0.000000
v 5.688401 5.368985 0.000000
v 5.688401 7.595742 0.827353
v 8.160447 7.595742 0.827353
v 8.160447 7.595742 0.000000
v 5.688401 7.595742 0.000000
v 5.688401 7.772528 0.827353
v 8.160447 7.772528 0.827353
v 8.160447 7.772528 0.000000
v 5.688401 7.772528 0.000000
v 5.354025 9.145986 1.207471
v 8.588362 9.145986 1.207471
v 8.588362 9.145986 0.000000
v 5.354025 9.145986 0.000000
v 5.354025 9.805678 1.207471
v 8.588362 9.805678 1.207471
v 8.588362 9.805678 0.000000
v 5.354025 9.805678 0.000000
v 5.315902 5.190036 1.250810
v 8.626486 5.190036 1.250810
v 8.626486 5.368985 1.250810
v 5.315902 5.368985 1.250810
v 8.626486 5.190036 0.000000
v 8.626486 5.368985 0.000000
v 5.315902 5.190036 0.000000
v 5.315902 5.368985 0.000000
v 5.315902 7.595742 1.250810
v 8.626486 7.595742 1.250810
v 8.626486 7.772528 1.250810
v 5.315902 7.772528 1.250810
v 8.626486 7.595742 0.000000
v 8.626486 7.772528 0.000000
v 5.315902 7.595742 0.000000
v 5.315902 7.772528 0.000000
v 4.981527 9.145986 1.630929
v 8.960861 9.145986 1.630929
v 8.960861 9.805678 1.630929
v 4.981527 9.805678 1.630929
v 8.960861 9.145986 0.000000
v 8.960861 9.805678 0.000000
v 4.981527 9.805678 0.000000
v 8.160447 6.482363 0.000000
v 8.160447 6.482363 0.827353
v 5.688401 6.482363 0.827353
v 5.688401 6.482363 0.000000
v -5.688403 6.482363 0.000000
v -5.688403 6.482363 0.827353
v -8.160448 6.482363 0.827353
v -8.160448 6.482363 0.000000
v -5.584881 3.673461 0.000000
v -5.584881 3.673461 0.945035
v -8.160448 3.673461 0.945035
v -8.160448 3.673461 0.000000
v -5.481360 2.156887 0.000000
v -5.481360 2.156887 1.062718
v -8.160448 2.156887 1.062718
v -8.160448 2.156887 0.000000
v 8.160446 3.673461 0.000000
v 8.160446 3.673461 0.945035
v 5.584880 3.673461 0.945035
v 5.584880 3.673461 0.000000
v 8.160446 2.156887 0.000000
v 8.160446 2.156887 1.062718
v 5.481359 2.156887 1.062718
v 5.481359 2.156887 0.000000
vt 0.813892 0.083921
vt 0.863748 0.083921
vt 0.863748 0.133777
vt 0.813892 0.133777
vt 0.813892 0.133777
vt 0.863748 0.133777
vt 0.863748 0.183633
vt 0.813892 0.183633
vt 0.913604 0.083921
vt 0.913604 0.133777
vt 0.764036 0.083921
vt 0.764036 0.133777
vt 0.863748 0.133777
vt 0.813892 0.133777
vt 0.863748 0.183633
vt 0.863748 0.183633
vt 0.813892 0.183633
vt 0.813892 0.183633
vt 0.813892 0.133777
vt 0.863748 0.133777
vt 0.863748 0.133777
vt 0.813892 0.133777
vt 0.863748 0.183633
vt 0.863748 0.183633
vt 0.813892 0.183633
vt 0.813892 0.183633
vt 0.813892 0.133777
vt 0.863748 0.133777
vt 0.863748 0.133777
vt 0.813892 0.133777
vt 0.863748 0.183633
vt 0.863748 0.183633
vt 0.813892 0.183633
vt 0.813892 0.183633
vt 0.813892 0.133777
vt 0.863748 0.133777
vt 0.863748 0.133777
vt 0.813892 0.133777
vt 0.863748 0.183633
vt 0.863748 0.183633
vt 0.813892 0.183633
vt 0.813892 0.183633
vt 0.813892 0.133777
vt 0.863748 0.133777
vt 0.863748 0.133777
vt 0.813892 0.133777
vt 0.813892 0.183633
vt 0.813892 0.183633
vt 0.813892 0.133777
vt 0.863748 0.133777
vt 0.863748 0.133777
vt 0.813892 0.133777
vt 0.813892 0.183633
vt 0.813892 0.183633
vt 0.813892 0.133777
vt 0.863748 0.133777
vt 0.863748 0.183633
vt 0.813892 0.183633
vt 0.813892 0.133777
vt 0.863748 0.133777
vt 0.863748 0.183633
vt 0.863748 0.183633
vt 0.813892 0.183633
vt 0.863748 0.183633
vt 0.813892 0.083921
vt 0.863748 0.083921
vt 0.863748 0.133777
vt 0.813892 0.133777
vt 0.813892 0.133777
vt 0.863748 0.133777
vt 0.863748 0.183633
vt 0.813892 0.183633
vt 0.913604 0.083921
vt 0.913604 0.133777
vt 0.764036 0.083921
vt 0.764036 0.133777
vt 0.863748 0.133777
vt 0.813892 0.133777
vt 0.863748 0.183633
vt 0.863748 0.183633
vt 0.813892 0.183633
vt 0.813892 0.183633
vt 0.813892 0.133777
vt 0.863748 0.133777
vt 0.863748 0.133777
vt 0.813892 0.133777
vt 0.863748 0.183633
vt 0.863748 0.183633
vt 0.813892 0.183633
vt 0.813892 0.183633
vt 0.813892 0.133777
vt 0.863748 0.133777
vt 0.863748 0.133777
vt 0.813892 0.133777
vt 0.863748 0.183633
vt 0.863748 0.183633
vt 0.813892 0.183633
vt 0.813892 0.183633
vt 0.813892 0.133777
vt 0.863748 0.133777
vt 0.863748 0.133777
vt 0.813892 0.133777
vt 0.863748 0.183633
vt 0.863748 0.183633
vt 0.813892 0.183633
vt 0.813892 0.183633
vt 0.863748 0.133777
vt 0.813892 0.133777
vt 0.813892 0.133777
vt 0.863748 0.133777
vt 0.863748 0.183633
vt 0.863748 0.183633
vt 0.813892 0.133777
vt 0.863748 0.133777
vt 0.863748 0.133777
vt 0.813892 0.133777
vt 0.863748 0.183633
vt 0.863748 0.183633
vt 0.813892 0.133777
vt 0.863748 0.133777
vt 0.863748 0.183633
vt 0.813892 0.183633
vt 0.813892 0.133777
vt 0.863748 0.133777
vt 0.863748 0.183633
vt 0.813892 0.183633
vt 0.813892 0.183633
vt 0.813892 0.183633
vt 0.863748 0.183633
vt 0.813892 0.183633
vt 0.863748 0.133777
vt 0.863748 0.183633
vt 0.813892 0.133777
vt 0.813892 0.183633
vt 0.863748 0.133777
vt 0.863748 0.183633
vt 0.813892 0.133777
vt 0.813892 0.183633
vn 0.000000 0.000000 1.000000
vn 0.000000 0.000000 1.000000
vn 0.000000 0.053451 0.998571
vn 0.000000 0.054176 0.998531
vn 0.000000 1.000000 0.000000
vn 0.000000 1.000000 0.000000
vn 0.000000 1.000000 0.000000
vn 0.000000 1.000000 0.000000
vn 1.000000 0.000000 0.000000
vn 1.000000 0.000000 0.000000
vn 0.998865 0.047639 0.000000
vn 0.998899 0.046909 0.000000
vn -1.000000 0.000000 0.000000
vn -1.000000 0.000000 0.000000
vn -1.000000 0.000000 0.000000
vn -1.000000 0.000000 0.000000
vn 0.000000 0.054176 0.998531
vn 0.000000 0.053451 0.998571
vn 0.000000 0.077365 0.997003
vn 0.000000 0.077365 0.997003
vn 0.998899 0.046909 0.000000
vn 0.998865 0.047639 0.000000
vn 0.997679 0.068101 0.000000
vn 0.997678 0.068101 0.000000
vn -1.000000 0.000000 0.000000
vn -1.000000 0.000000 0.000000
vn -1.000000 0.000000 0.000000
vn -1.000000 0.000000 0.000000
vn 0.000000 0.000000 1.000000
vn 0.000000 0.000000 1.000000
vn 0.000000 0.000000 1.000000
vn 0.000000 0.000000 1.000000
vn 1.000000 0.000000 0.000000
vn 1.000000 0.000000 0.000000
vn 1.000000 0.000000 0.000000
vn 1.000000 0.000000 0.000000
vn -1.000000 0.000000 0.000000
vn -1.000000 0.000000 0.000000
vn -1.000000 0.000000 0.000000
vn -1.000000 0.000000 0.000000
vn 0.000000 0.000000 1.000000
vn 0.000000 0.000000 1.000000
vn 0.000000 0.000000 1.000000
vn 0.000000 0.000000 1.000000
vn 1.000000 0.000000 0.000000
vn 1.000000 0.000000 0.000000
vn 1.000000 0.000000 0.000000
vn 1.000000 0.000000 0.000000
vn -1.000000 0.000000 0.000000
vn -1.000000 0.000000 0.000000
vn -1.000000 0.000000 0.000000
vn -1.000000 0.000000 0.000000
vn 0.000000 0.000000 1.000000
vn 0.000000 0.000000 1.000000
vn 0.000000 0.000000 1.000000
vn 0.000000 0.000000 1.000000
vn 1.000000 0.000000 0.000000
vn 1.000000 0.000000 0.000000
vn 1.000000 0.000000 0.000000
vn 1.000000 0.000000 0.000000
vn -1.000000 0.000000 0.000000
vn -1.000000 0.000000 0.000000
vn -1.000000 0.000000 0.000000
vn -1.000000 0.000000 0.000000
vn 0.000000 -0.266733 0.963770
vn 0.000000 -0.266733 0.963770
vn 0.000000 -0.266733 0.963770
vn 0.000000 -0.266733 0.963770
vn -0.954735 -0.297457 0.000000
vn -0.954735 -0.297457 0.000000
vn -0.954735 -0.297457 0.000000
vn -0.954735 -0.297457 0.000000
vn 0.000000 0.000000 1.000000
vn 0.000000 0.000000 1.000000
vn 0.000000 0.000000 1.000000
vn 0.000000 0.000000 1.000000
vn -1.000000 0.000000 0.000000
vn -1.000000 0.000000 0.000000
vn -1.000000 0.000000 0.000000
vn -1.000000 0.000000 0.000000
vn 0.000000 -1.000000 0.000000
vn 0.000000 -1.000000 0.000000
vn 0.000000 -1.000000 0.000000
vn 0.000000 -1.000000 0.000000
vn 0.000000 1.000000 0.000000
vn 0.000000 1.000000 0.000000
vn 0.000000 1.000000 0.000000
vn 0.000000 1.000000 0.000000
vn 0.000000 -1.000000 0.000000
vn 0.000000 -1.000000 0.000000
vn 0.000000 -1.000000 0.000000
vn 0.000000 -1.000000 0.000000
vn 0.000000 1.000000 0.000000
vn 0.000000 1.000000 0.000000
vn 0.000000 1.000000 0.000000
vn 0.000000 1.000000 0.000000
vn 0.000000 -1.000000 0.000000
vn 0.000000 -1.000000 0.000000
vn 0.000000 -1.000000 0.000000
vn 0.000000 -1.000000 0.000000
vn 0.000000 1.000000 0.000000
vn 0.000000 1.000000 0.000000
vn 0.000000 1.000000 0.000000
vn 0.000000 1.000000 0.000000
vn 0.000000 -1.000000 0.000000
vn 0.000000 -1.000000 0.000000
vn 0.000000 -1.000000 0.000000
vn 0.000000 -1.000000 0.000000
vn 0.000000 1.000000 0.000000
vn 0.000000 1.000000 0.000000
vn 0.000000 1.000000 0.000000
vn 0.000000 1.000000 0.000000
vn 0.000000 -1.000000 0.000000
vn 0.000000 -1.000000 0.000000
vn 0.000000 -1.000000 0.000000
vn 0.000000 -1.000000 0.000000
vn 0.000000 1.000000 0.000000
vn 0.000000 1.000000 0.000000
vn 0.000000 1.000000 0.000000
vn 0.000000 1.000000 0.000000
vn 0.000000 -1.000000 0.000000
vn 0.000000 -1.000000 0.000000
vn 0.000000 -1.000000 0.000000
vn 0.000000 -1.000000 0.000000
vn 0.000000 1.000000 0.000000
vn 0.000000 1.000000 0.000000
vn 0.000000 1.000000 0.000000
vn 0.000000 1.000000 0.000000
vn 0.000000 -1.000000 0.000000
vn 0.000000 -1.000000 0.000000
vn 0.000000 -1.000000 0.000002
vn 0.000000 -1.000000 0.000000
vn 0.000000 1.000000 0.000000
vn 0.000000 1.000000 0.000000
vn 0.000000 1.000000 -0.000001
vn 0.000000 1.000000 0.000000
vn 0.000000 1.000000 0.000000
vn 0.000000 1.000000 0.000000
vn 0.000000 1.000000 0.000000
vn 0.000000 1.000000 0.000000
vn 0.000000 -1.000000 0.000000
vn 0.000000 -1.000000 0.000000
vn 0.000000 -1.000000 0.000000
vn 0.000000 -1.000000 0.000000
vn 0.000000 1.000000 0.000000
vn 0.000000 1.000000 0.000000
vn 0.000000 1.000000 0.000000
vn 0.000000 1.000000 -0.000001
vn 0.000000 0.000000 1.000000
vn 0.000000 0.000000 1.000000
vn 0.000000 0.054176 0.998531
vn 0.000000 0.053451 0.998571
vn 0.000000 1.000000 0.000000
vn 0.000000 1.000000 0.000000
vn 0.000000 1.000000 0.000000
vn 0.000000 1.000000 0.000000
vn 1.000000 0.000000 0.000000
vn 1.000000 0.000000 0.000000
vn 1.000000 0.000000 0.000000
vn 1.000000 0.000000 0.000000
vn -1.000000 0.000000 0.000000
vn -1.000000 0.000000 0.000000
vn -0.998899 0.046909 0.000000
vn -0.998865 0.047639 0.000000
vn 0.000000 0.053451 0.998571
vn 0.000000 0.054176 0.998531
vn 0.000000 0.077365 0.997003
vn 0.000000 0.077365 0.997003
vn 1.000000 0.000000 0.000000
vn 1.000000 0.000000 0.000000
vn 1.000000 0.000000 0.000000
vn 1.000000 0.000000 0.000000
vn -0.997678 0.068102 0.000000
vn -0.998865 0.047639 0.000000
vn -0.998899 0.046909 0.000000
vn -0.997678 0.068102 0.000000
vn 0.000000 0.000000 1.000000
vn 0.000000 0.000000 1.000000
vn 0.000000 0.000000 1.000000
vn 0.000000 0.000000 1.000000
vn 1.000000 0.000000 0.000000
vn 1.000000 0.000000 0.000000
vn 1.000000 0.000000 0.000000
vn 1.000000 0.000000 0.000000
vn -1.000000 0.000000 0.000000
vn -1.000000 0.000000 0.000000
vn -1.000000 0.000000 0.000000
vn -1.000000 0.000000 0.000000
vn 0.000000 0.000000 1.000000
vn 0.000000 0.000000 1.000000
vn 0.000000 0.000000 1.000000
vn 0.000000 0.000000 1.000000
vn 1.000000 0.000000 0.000000
vn 1.000000 0.000000 0.000000
vn 1.000000 0.000000 0.000000
vn 1.000000 0.000000 0.000000
vn -1.000000 0.000000 0.000000
vn -1.000000 0.000000 0.000000
vn -1.000000 0.000000 0.000000
vn -1.000000 0.000000 0.000000
vn 0.000000 0.000000 1.000000
vn 0.000000 0.000000 1.000000
vn 0.000000 0.000000 1.000000
vn 0.000000 0.000000 1.000000
vn 1.000000 0.000000 0.000000
vn 1.000000 0.000000 0.000000
vn 1.000000 0.000000 0.000000
vn 1.000000 0.000000 0.000000
vn -1.000000 0.000000 0.000000
vn -1.000000 0.000000 0.000000
vn -1.000000 0.000000 0.000000
vn -1.000000 0.000000 0.000000
vn 0.000000 -0.266733 0.963770
vn 0.000000 -0.266733 0.963770
vn 0.000000 -0.266733 0.963770
vn 0.000000 -0.266733 0.963770
vn 0.954735 -0.297457 0.000000
vn 0.954735 -0.297457 0.000000
vn 0.954735 -0.297457 0.000000
vn 0.954735 -0.297457 0.000000
vn 0.000000 0.000000 1.000000
vn 0.000000 0.000000 1.000000
vn 0.000000 0.000000 1.000000
vn 0.000000 0.000000 1.000000
vn 1.000000 0.000000 0.000000
vn 1.000000 0.000000 0.000000
vn 1.000000 0.000000 0.000000
vn 1.000000 0.000000 0.000000
vn 0.000000 -1.000000 0.000000
vn 0.000000 -1.000000 0.000000
vn 0.000000 -1.000000 0.000000
vn 0.000000 -1.000000 0.000000
vn 0.000000 1.000000 0.000000
vn 0.000000 1.000000 0.000000
vn 0.000000 1.000000 0.000000
vn 0.000000 1.000000 0.000000
vn 0.000000 -1.000000 0.000000
vn 0.000000 -1.000000 0.000000
vn 0.000000 -1.000000 0.000000
vn 0.000000 -1.000000 0.000000
vn 0.000000 1.000000 0.000000
vn 0.000000 1.000000 0.000000
vn 0.000000 1.000000 0.000000
vn 0.000000 1.000000 0.000000
vn 0.000000 -1.000000 0.000000
vn 0.000000 -1.000000 0.000000
vn 0.000000 -1.000000 0.000000
vn 0.000000 -1.000000 0.000000
vn 0.000000 1.000000 0.000000
vn 0.000000 1.000000 0.000000
vn 0.000000 1.000000 0.000000
vn 0.000000 1.000000 0.000000
vn 0.000000 -1.000000 0.000000
vn 0.000000 -1.000000 0.000000
vn 0.000000 -1.000000 0.000000
vn 0.000000 -1.000000 0.000000
vn 0.000000 1.000000 0.000000
vn 0.000000 1.000000 0.000000
vn 0.000000 1.000000 0.000000
vn 0.000000 1.000000 0.000000
vn 0.000000 -1.000000 0.000000
vn 0.000000 -1.000000 0.000000
vn 0.000000 -1.000000 0.000000
vn 0.000000 -1.000000 0.000000
vn 0.000000 1.000000 0.000000
vn 0.000000 1.000000 0.000000
vn 0.000000 1.000000 0.000000
vn 0.000000 1.000000 0.000000
vn 0.000000 -1.000000 0.000000
vn 0.000000 -1.000000 0.000000
vn 0.000000 -1.000000 0.000000
vn 0.000000 -1.000000 0.000000
vn 0.000000 1.000000 0.000000
vn 0.000000 1.000000 0.000000
vn 0.000000 1.000000 0.000000
vn 0.000000 1.000000 0.000000
vn 0.000000 -1.000000 0.000000
vn 0.000000 -1.000000 0.000001
vn 0.000000 -1.000000 0.000001
vn 0.000000 -1.000000 0.000002
vn 0.000000 1.000000 0.000000
vn 0.000000 1.000000 0.000000
vn 0.000000 1.000000 0.000000
vn 0.000000 1.000000 0.000000
vn 0.000000 -1.000000 0.000001
vn 0.000000 -1.000000 0.000000
vn 0.000000 -1.000000 0.000000
vn 0.000000 -1.000000 0.000001
vn 0.000000 1.000000 0.000000
vn 0.000000 1.000000 0.000000
vn 0.000000 1.000000 0.000000
vn 0.000000 1.000000 0.000000
vn 0.000000 1.000000 0.000000
vn 0.000000 1.000000 0.000000
vn 0.000000 1.000000 0.000000
vn 0.000000 1.000000 0.000000
vn 0.000000 1.000000 0.000000
vn 0.000000 1.000000 0.000000
vn 0.000000 1.000000 0.000000
vn 0.000000 1.000000 0.000000
vn 0.000000 0.000000 1.000000
vn 0.000000 0.000000 1.000000
vn 0.000000 0.000000 1.000000
vn 0.000000 0.000000 1.000000
vn 0.000000 -1.000000 0.000002
vn 0.000000 -1.000000 0.000000
vn 0.000000 -1.000000 0.000000
vn 0.000000 -1.000000 0.000002
vn 0.000000 -1.000000 0.000000
vn 0.000000 -1.000000 0.000000
vn 0.000000 -1.000000 0.000000
vn 0.000000 -1.000000 0.000000
vn -0.971620 -0.236546 0.000000
vn -0.971620 -0.236546 0.000000
vn -0.971620 -0.236546 0.000000
vn -0.971620 -0.236546 0.000000
vn 0.971620 -0.236547 0.000000
vn 0.971620 -0.236547 0.000000
vn 0.971620 -0.236547 0.000000
vn 0.971620 -0.236547 0.000000
vn 1.000000 0.000000 0.000000
vn 1.000000 0.000000 0.000000
vn 1.000000 0.000000 0.000000
vn 1.000000 0.000000 0.000000
vn 0.000000 0.000000 1.000000
vn 0.000000 0.000000 1.000000
vn 0.000000 0.000000 1.000000
vn 0.000000 0.000000 1.000000
vn -1.000000 0.000000 0.000000
vn -1.000000 0.000000 0.000000
vn -1.000000 0.000000 0.000000
vn -1.000000 0.000000 0.000000
vn 1.000000 0.000000 0.000000
vn 1.000000 0.000000 0.000000
vn 1.000000 0.000000 0.000000
vn 1.000000 0.000000 0.000000
vn 0.000000 0.000000 1.000000
vn 0.000000 0.000000 1.000000
vn 0.000000 0.000000 1.000000
vn 0.000000 0.000000 1.000000
vn -1.000000 0.000000 0.000000
vn -1.000000 0.000000 0.000000
vn -1.000000 0.000000 0.000000
vn -1.000000 0.000000 0.000000
vn 0.997678 0.068101 0.000000
vn 0.997678 0.068101 0.000000
vn 0.997678 0.068101 0.000000
vn 0.997678 0.068101 0.000000
vn 0.000000 0.077365 0.997003
vn 0.000000 0.077365 0.997003
vn 0.000000 0.077365 0.997003
vn 0.000000 0.077365 0.997003
vn -1.000000 0.000000 0.000000
vn -1.000000 0.000000 0.000000
vn -1.000000 0.000000 0.000000
vn -1.000000 0.000000 0.000000
vn 0.997678 0.068101 0.000000
vn 0.997679 0.068101 0.000000
vn 0.997678 0.068101 0.000000
vn 0.997678 0.068101 0.000000
vn 0.000000 0.077365 0.997003
vn 0.000000 0.077365 0.997003
vn 0.000000 0.077365 0.997003
vn 0.000000 0.077365 0.997003
vn -1.000000 0.000000 0.000000
vn -1.000000 0.000000 0.000000
vn -1.000000 0.000000 0.000000
vn -1.000000 0.000000 0.000000
vn 1.000000 -0.000000 0.000000
vn 1.000000 -0.000000 0.000000
vn 1.000000 -0.000001 0.000000
vn 1.000000 -0.000001 0.000000
vn 0.000000 0.077365 0.997003
vn 0.000000 0.077365 0.997003
vn 0.000000 0.077365 0.997003
vn 0.000000 0.077365 0.997003
vn -0.997678 0.068102 0.000000
vn -0.997678 0.068102 0.000000
vn -0.997678 0.068102 0.000000
vn -0.997678 0.068102 0.000000
vn 1.000000 0.000000 0.000000
vn 1.000000 0.000000 0.000000
vn 1.000000 -0.000000 0.000000
vn 1.000000 -0.000000 0.000000
vn 0.000000 0.077365 0.997003
vn 0.000000 0.077365 0.997003
vn 0.000000 0.077365 0.997003
vn 0.000000 0.077365 0.997003
vn -0.997678 0.068102 0.000000
vn -0.997678 0.068102 0.000000
vn -0.997678 0.068102 0.000000
vn -0.997678 0.068102 0.000000
vn 0.000000 0.000000 -1.000000
vn 0.000000 0.000000 -1.000000
vn 0.000000 0.000000 -1.000000
vn 0.000000 0.000000 -1.000000
vn 0.000000 0.000000 -1.000000
vn 0.000000 0.000000 -1.000000
vn 0.000000 0.000000 -1.000000
vn 0.000000 0.000000 -1.000000
vn 0.000000 0.000000 -1.000000
vn 0.000000 0.000000 -1.000000
vn 0.000000 0.000000 -1.000000
vn 0.000000 0.000000 -1.000000
vn 0.000000 0.000000 -1.000000
vn 0.000000 0.000000 -1.000000
vn 0.000000 0.000000 -1.000000
vn 0.000000 0.000000 -1.000000
vn 0.000000 0.000000 -1.000000
vn 0.000000 0.000000 -1.000000
vn 0.000000 0.000000 -1.000000
vn 0.000000 0.000000 -1.000000
vn 0.000000 0.000000 -1.000000
vn 0.000000 0.000000 -1.000000
vn 0.000000 0.000000 -1.000000
vn 0.000000 0.000000 -1.000000
vn 0.000000 0.000000 -1.000000
vn 0.000000 0.000000 -1.000000
vn 0.000000 0.000000 -1.000000
vn 0.000000 0.000000 -1.000000
vn 0.000000 0.000000 -1.000000
vn 0.000000 0.000000 -1.000000
vn 0.000000 0.000000 -1.000000
vn 0.000000 0.000000 -1.000000
vn 0.000000 0.000000 -1.000000
vn 0.000000 0.000000 -1.000000
vn 0.000000 0.000000 -1.000000
vn 0.000000 0.000000 -1.000000
vn 0.000000 0.000000 -1.000000
vn 0.000000 0.000000 -1.000000
vn 0.000000 0.000000 -1.000000
vn 0.000000 0.000000 -1.000000
s off
usemtl fireplace_front_1_initialShadingGroup
f 1/1/1 2/2/2 4/3/3 3/4/4
f 29/5/5 30/6/6 31/7/7 32/8/8
f 2/2/9 8/9/10 6/10/11 4/3/12
f 7/11/13 1/1/14 3/4/15 5/12/16
f 3/4/17 4/3/18 124/13/19 125/14/20
f 4/3/21 6/15/22 123/16/23 124/13/24
f 126/17/25 5/18/26 3/4/27 125/14/28
f 33/19/29 34/20/30 35/21/31 36/22/32
f 34/20/33 37/23/34 38/24/35 35/21/36
f 39/25/37 33/19/38 36/22/39 40/26/40
f 13/27/41 14/28/42 116/29/43 117/30/44
f 14/28/45 15/31/46 115/32/47 116/29/48
f 16/33/49 13/27/50 117/30/51 118/34/52
f 41/35/53 42/36/54 43/37/55 44/38/56
f 42/36/57 45/39/58 46/40/59 43/37/60
f 47/41/61 41/35/62 44/38/63 48/42/64
f 21/43/65 22/44/66 26/45/67 25/46/68
f 28/47/69 24/48/70 21/43/71 25/46/72
f 49/49/73 50/50/74 51/51/75 52/52/76
f 54/53/77 49/49/78 52/52/79 55/54/80
f 9/55/81 10/56/82 34/20/83 33/19/84
f 14/28/85 13/27/86 36/22/87 35/21/88
f 10/56/89 11/57/90 37/23/91 34/20/92
f 15/31/93 14/28/94 35/21/95 38/24/96
f 12/58/97 9/55/98 33/19/99 39/25/100
f 13/27/101 16/33/102 40/26/103 36/22/104
f 17/59/105 18/60/106 42/36/107 41/35/108
f 22/44/109 21/43/110 44/38/111 43/37/112
f 18/60/113 19/61/114 45/39/115 42/36/116
f 23/62/117 22/44/118 43/37/119 46/40/120
f 20/63/121 17/59/122 41/35/123 47/41/124
f 21/43/125 24/48/126 48/42/127 44/38/128
f 25/46/129 26/45/130 50/50/131 49/49/132
f 30/6/133 29/5/134 52/52/135 51/51/136
f 31/7/137 30/6/138 51/51/139 53/64/140
f 28/47/141 25/46/142 49/49/143 54/53/144
f 29/5/145 32/8/146 55/54/147 52/52/148
f 56/65/149 57/66/150 59/67/151 58/68/152
f 84/69/153 85/70/154 86/71/155 87/72/156
f 57/66/157 63/73/158 61/74/159 59/67/160
f 62/75/161 56/65/162 58/68/163 60/76/164
f 58/68/165 59/67/166 132/77/167 133/78/168
f 59/67/169 61/79/170 131/80/171 132/77/172
f 134/81/173 60/82/174 58/68/175 133/78/176
f 88/83/177 89/84/178 90/85/179 91/86/180
f 89/84/181 92/87/182 93/88/183 90/85/184
f 94/89/185 88/83/186 91/86/187 95/90/188
f 68/91/189 69/92/190 112/93/191 113/94/192
f 69/92/193 70/95/194 111/96/195 112/93/196
f 71/97/197 68/91/198 113/94/199 114/98/200
f 96/99/201 97/100/202 98/101/203 99/102/204
f 97/100/205 100/103/206 101/104/207 98/101/208
f 102/105/209 96/99/210 99/102/211 103/106/212
f 81/107/213 80/108/214 76/109/215 77/110/216
f 78/111/217 82/112/218 81/107/219 77/110/220
f 104/113/221 105/114/222 106/115/223 107/116/224
f 105/114/225 108/117/226 109/118/227 106/115/228
f 64/119/229 65/120/230 89/84/231 88/83/232
f 69/92/233 68/91/234 91/86/235 90/85/236
f 65/120/237 66/121/238 92/87/239 89/84/240
f 70/95/241 69/92/242 90/85/243 93/88/244
f 67/122/245 64/119/246 88/83/247 94/89/248
f 68/91/249 71/97/250 95/90/251 91/86/252
f 72/123/253 73/124/254 97/100/255 96/99/256
f 77/110/257 76/109/258 99/102/259 98/101/260
f 73/124/261 74/125/262 100/103/263 97/100/264
f 78/111/265 77/110/266 98/101/267 101/104/268
f 75/126/269 72/123/270 96/99/271 102/105/272
f 76/109/273 79/127/274 103/106/275 99/102/276
f 80/108/277 81/107/278 105/114/279 104/113/280
f 85/70/281 84/69/282 107/116/283 106/115/284
f 81/107/285 82/112/286 108/117/287 105/114/288
f 86/71/289 85/70/290 106/115/291 109/118/292
f 84/69/293 87/72/294 110/128/295 107/116/296
f 53/64/297 51/51/298 107/116/299 110/128/300
f 51/51/301 50/50/302 104/113/303 107/116/304
f 50/50/305 26/45/306 80/108/307 104/113/308
f 27/129/309 83/130/310 80/108/311 26/45/312
f 83/130/313 79/127/314 76/109/315 80/108/316
f 23/62/317 27/129/318 26/45/319 22/44/320
f 112/93/321 111/96/322 74/125/323 73/124/324
f 113/94/325 112/93/326 73/124/327 72/123/328
f 114/98/329 113/94/330 72/123/331 75/126/332
f 116/29/333 115/32/334 19/61/335 18/60/336
f 117/30/337 116/29/338 18/60/339 17/59/340
f 118/34/341 117/30/342 17/59/343 20/63/344
f 120/131/345 119/132/346 11/57/347 10/56/348
f 121/133/349 120/131/350 10/56/351 9/55/352
f 12/58/353 122/134/354 121/133/355 9/55/356
f 124/13/357 123/16/358 119/132/359 120/131/360
f 125/14/361 124/13/362 120/131/363 121/133/364
f 122/134/365 126/17/366 125/14/367 121/133/368
f 128/135/369 127/136/370 66/121/371 65/120/372
f 129/137/373 128/135/374 65/120/375 64/119/376
f 67/122/377 130/138/378 129/137/379 64/119/380
f 132/77/381 131/80/382 127/136/383 128/135/384
f 133/78/385 132/77/386 128/135/387 129/137/388
f 130/138/389 134/81/390 133/78/391 129/137/392
f 12/58/393 39/25/394 40/26/395 16/33/396
f 20/63/397 47/41/398 48/42/399 24/48/400
f 28/47/401 54/53/402 55/54/403 32/8/404
f 108/117/405 82/112/406 86/71/407 109/118/408
f 100/103/409 74/125/410 78/111/411 101/104/412
f 92/87/413 66/121/414 70/95/415 93/88/416
f 79/127/417 83/130/418 82/112/419 78/111/420
f 87/72/421 86/71/422 82/112/423 83/130/424
f 24/48/425 28/47/426 27/129/427 23/62/428
f 32/8/429 31/7/430 27/129/431 28/47/432
