# This file uses centimeters as units for non-parametric coordinates.

v -2.812443 0.000000 2.532624
v 2.812443 0.000000 2.532624
v -2.812443 33.000000 2.532624
v 2.812443 33.000000 2.532624
v -2.812443 33.000000 0.000000
v 2.812443 33.000000 0.000000
v -2.812443 0.000000 0.000000
v 2.812443 0.000000 0.000000
vt 0.124623 0.145569
vt 0.170159 0.145569
vt 0.215695 0.145569
vt 0.079086 0.145569
vt 0.215695 0.191106
vt 0.170159 0.191106
vt 0.124623 0.191106
vt 0.079086 0.191106
vn 1.000000 0.000000 0.000000
vn 1.000000 0.000000 0.000000
vn 1.000000 0.000000 0.000000
vn 1.000000 0.000000 0.000000
vn 0.000000 0.000000 1.000000
vn 0.000000 0.000000 1.000000
vn 0.000000 0.000000 1.000000
vn 0.000000 0.000000 1.000000
vn -1.000000 0.000000 0.000000
vn -1.000000 0.000000 0.000000
vn -1.000000 0.000000 0.000000
vn -1.000000 0.000000 0.000000
g fireplace_chimney_1_Mesh
f 8/3/1 6/5/2 4/6/3 2/2/4
f 4/6/5 3/7/6 1/1/7 2/2/8
f 3/7/9 5/8/10 7/4/11 1/1/12
