# This file uses centimeters as units for non-parametric coordinates.

v -8.160447 0.000000 3.200385
v 8.160447 0.000000 3.200385
v -8.160447 11.641855 3.200385
v 8.160447 11.641855 3.200385
v -8.160447 11.641855 -3.200385
v 8.160447 11.641855 -3.200385
v -8.160447 0.000000 -3.200385
v 8.160447 0.000000 -3.200385
v 4.552671 0.000000 3.200385
v -4.552672 0.000000 3.200385
v -4.552672 8.257602 3.200385
v 4.552671 8.257602 3.200385
v 4.170133 6.965541 -2.613435
v -4.170135 6.965541 -2.613435
v -4.170135 0.000000 -2.613435
v 4.170133 0.000000 -2.613435
vt 0.070282 0.077833
vt 0.082740 0.077833
vt 0.073172 0.110332
vt 0.074751 0.142807
vt 0.153718 0.110320
vt 0.153719 0.142806
vt 0.043201 0.142806
vt 0.043202 0.110320
vt 0.114180 0.077833
vt 0.126638 0.077833
vt 0.122113 0.142807
vt 0.123739 0.110333
vt 0.085164 0.372975
vt 0.111200 0.372975
vt 0.082740 0.100876
vt 0.114180 0.100876
vt 0.110886 0.424898
vt 0.085478 0.424899
vt 0.085164 0.392412
vt 0.111200 0.392412
vt 0.051296 0.372975
vt 0.145069 0.372975
vt 0.145069 0.396018
vt 0.051296 0.396018
vn 0.000000 1.000000 0.000000
vn 0.000000 1.000000 0.000000
vn 0.000000 1.000000 0.000000
vn 0.000000 1.000000 0.000000
vn 0.000000 0.000000 1.000000
vn 0.000000 0.000000 1.000000
vn 0.000000 0.000000 1.000000
vn 0.000000 0.000000 1.000000
vn 0.000000 -0.980229 0.197869
vn 0.000000 -0.980229 0.197869
vn 0.000000 -0.980228 0.197869
vn 0.000000 -0.980228 0.197869
vn 1.000000 0.000000 0.000000
vn 1.000000 0.000000 0.000000
vn 1.000000 0.000000 0.000000
vn 1.000000 0.000000 0.000000
vn 0.000000 0.000000 1.000000
vn 0.000000 0.000000 1.000000
vn 0.000000 0.000000 1.000000
vn 0.000000 0.000000 1.000000
vn -0.998219 0.000000 0.059658
vn -0.998219 0.000000 0.059658
vn -0.998219 0.000000 0.059658
vn -0.998219 0.000000 0.059658
vn 0.000000 0.000000 1.000000
vn 0.000000 0.000000 1.000000
vn 0.000000 0.000000 1.000000
vn 0.000000 0.000000 1.000000
vn 0.998219 0.000000 0.059658
vn 0.998219 0.000000 0.059658
vn 0.998219 0.000000 0.059658
vn 0.998219 0.000000 0.059658
vn 0.000000 0.000000 1.000000
vn 0.000000 0.000000 1.000000
vn 0.000000 0.000000 1.000000
vn 0.000000 0.000000 1.000000
vn -1.000000 0.000000 0.000000
vn -1.000000 0.000000 0.000000
vn -1.000000 0.000000 0.000000
vn -1.000000 0.000000 0.000000
vn -1.000000 0.000000 0.000000
vn -1.000000 0.000000 0.000000
vn -1.000000 0.000000 0.000000
vn -1.000000 0.000000 0.000000
vn -1.000000 0.000000 0.000000
vn -1.000000 0.000000 0.000000
vn -1.000000 0.000000 0.000000
vn -1.000000 0.000000 0.000000
vn -1.000000 0.000000 0.000000
vn -1.000000 0.000000 0.000000
vn -1.000000 0.000000 0.000000
vn -1.000000 0.000000 0.000000
vn -1.000000 0.000000 0.000000
vn -1.000000 0.000000 0.000000
vn -1.000000 0.000000 0.000000
vn -1.000000 0.000000 0.000000
vn -1.000000 0.000000 0.000000
vn -1.000000 0.000000 0.000000
vn -1.000000 0.000000 0.000000
vn -1.000000 0.000000 0.000000
vn -1.000000 0.000000 0.000000
vn -1.000000 0.000000 0.000000
vn -1.000000 0.000000 0.000000
vn -1.000000 0.000000 0.000000
g fireplace_base_1_Mesh
f 5/4/1 3/3/2 4/12/3 6/11/4
f 11/15/5 12/16/6 4/12/7 3/3/8
f 12/17/9 11/18/10 14/19/11 13/20/12
f 8/6/13 6/11/14 4/12/15 2/5/16
f 4/12/17 12/16/18 9/9/19 2/10/20
f 12/23/21 13/20/22 16/14/23 9/22/24
f 13/20/25 14/19/26 15/13/27 16/14/28
f 14/19/29 11/24/30 10/21/31 15/13/32
f 11/15/33 3/3/34 1/1/35 10/2/36
f 3/3/37 5/4/38 7/7/39 1/8/40
