# This file uses centimeters as units for non-parametric coordinates.

mtllib footboard_2.mtl
v -10.698593 0.000000 0.253190
v 10.698593 0.000000 0.253190
v -10.698593 2.498679 0.253190
v 10.698593 2.498679 0.253190
v -10.698593 2.498679 -0.170501
v 10.698593 2.498679 -0.170501
v -10.698593 0.000000 -0.170501
v 10.698593 0.000000 -0.170501
v 10.065557 2.498679 0.253190
v 10.065557 2.498679 -0.170501
v 10.065557 0.000000 -0.170501
v 10.065557 0.000000 0.253190
v -10.065559 2.498679 0.253190
v -10.065559 2.498679 -0.170501
v -10.065559 0.000000 -0.170501
v -10.065559 0.000000 0.253190
v -10.065559 0.000000 0.398985
v -10.065559 2.498679 0.398985
v -10.698593 2.498679 0.398985
v -10.698593 0.000000 0.398985
v -10.698593 0.000000 -0.316296
v -10.065559 0.000000 -0.316296
v -10.698593 2.498679 -0.316296
v -10.065559 2.498679 -0.316296
v 10.065557 0.000000 -0.316296
v 10.698593 0.000000 -0.316296
v 10.065557 2.498679 -0.316296
v 10.698593 2.498679 -0.316296
v 10.065557 2.498679 0.398985
v 10.698593 2.498679 0.398985
v 10.065557 0.000000 0.398985
v 10.698593 0.000000 0.398985
v -10.698593 2.993229 -0.170501
v -10.065559 2.993229 -0.170501
v -10.698593 2.993229 0.253190
v -10.065559 2.993229 0.253190
v -10.698593 2.993229 0.398985
v -10.065559 2.993229 0.398985
v -10.065559 2.993229 -0.316296
v -10.698593 2.993229 -0.316296
v 10.065557 2.993229 -0.170501
v 10.698593 2.993229 -0.170501
v 10.065557 2.993229 0.253190
v 10.698593 2.993229 0.253190
v 10.698593 2.993229 -0.316296
v 10.065557 2.993229 -0.316296
v 10.065557 2.993229 0.398985
v 10.698593 2.993229 0.398985
vt 0.082831 0.131155
vt 0.092333 0.121512
vt 0.126640 0.114947
vt 0.134208 0.112612
vt 0.095221 0.120296
vt 0.124538 0.115623
vt 0.124510 0.115919
vt 0.126336 0.115462
vt 0.130484 0.114093
vt 0.086825 0.130786
vt 0.124076 0.116027
vt 0.126444 0.115465
vt 0.168010 0.127515
vt 0.167691 0.130140
vt 0.165540 0.128633
vt 0.165573 0.128390
vt 0.167330 0.130703
vt 0.165510 0.128702
vt 0.165472 0.128560
vt 0.165494 0.128438
vt 0.165562 0.128312
vt 0.167795 0.126880
vt 0.165460 0.128587
vt 0.165501 0.128403
vt 0.165276 0.134416
vt 0.165219 0.128912
vt 0.165280 0.128915
vt 0.165608 0.133751
vt 0.165368 0.128607
vt 0.165360 0.128650
vt 0.165327 0.128027
vt 0.165398 0.128366
vt 0.165391 0.128041
vt 0.165411 0.128316
vt 0.166691 0.122797
vt 0.166854 0.123516
vt 0.110199 0.113192
vt 0.115829 0.118788
vt 0.117504 0.118110
vt 0.107878 0.114395
vt 0.120169 0.117517
vt 0.120139 0.117459
vt 0.115811 0.120009
vt 0.120691 0.117678
vt 0.118528 0.118957
vt 0.120933 0.117650
vt 0.107256 0.130168
vt 0.104104 0.130133
vn 0.000000 0.000000 1.000000
vn 0.000000 0.000000 1.000000
vn 0.000000 0.000000 1.000000
vn 0.000000 0.000000 1.000000
vn 0.000000 1.000000 0.000000
vn 0.000000 1.000000 0.000000
vn 0.000000 1.000000 0.000000
vn 0.000000 1.000000 0.000000
vn 0.000000 0.000000 -1.000000
vn 0.000000 0.000000 -1.000000
vn 0.000000 0.000000 -1.000000
vn 0.000000 0.000000 -1.000000
vn 1.000000 0.000000 0.000000
vn 1.000000 0.000000 0.000000
vn 1.000000 0.000000 0.000000
vn 1.000000 0.000000 0.000000
vn -1.000000 0.000000 0.000000
vn -1.000000 0.000000 0.000000
vn -1.000000 0.000000 0.000000
vn -1.000000 0.000000 0.000000
vn 0.000000 1.000000 0.000000
vn 0.000000 1.000000 0.000000
vn 0.000000 1.000000 0.000000
vn 0.000000 1.000000 0.000000
vn 0.000000 0.000000 -1.000000
vn 0.000000 0.000000 -1.000000
vn 0.000000 0.000000 -1.000000
vn 0.000000 0.000000 -1.000000
vn 0.000000 0.000000 1.000000
vn 0.000000 0.000000 1.000000
vn 0.000000 0.000000 1.000000
vn 0.000000 0.000000 1.000000
vn 0.000000 1.000000 0.000000
vn 0.000000 1.000000 0.000000
vn 0.000000 1.000000 0.000000
vn 0.000000 1.000000 0.000000
vn 0.000000 0.000000 -1.000000
vn 0.000000 0.000000 -1.000000
vn 0.000000 0.000000 -1.000000
vn 0.000000 0.000000 -1.000000
vn 0.000000 0.000000 1.000000
vn 0.000000 0.000000 1.000000
vn 0.000000 0.000000 1.000000
vn 0.000000 0.000000 1.000000
vn 1.000000 0.000000 0.000000
vn 1.000000 0.000000 0.000000
vn 1.000000 0.000000 0.000000
vn 1.000000 0.000000 0.000000
vn 0.000000 1.000000 0.000000
vn 0.000000 1.000000 0.000000
vn 0.000000 1.000000 0.000000
vn 0.000000 1.000000 0.000000
vn -1.000000 0.000000 0.000000
vn -1.000000 0.000000 0.000000
vn -1.000000 0.000000 0.000000
vn -1.000000 0.000000 0.000000
vn 0.000000 -1.000000 0.000000
vn 0.000000 -1.000000 0.000000
vn 0.000000 -1.000000 0.000000
vn 0.000000 -1.000000 0.000000
vn 0.000000 -1.000000 0.000000
vn 0.000000 -1.000000 0.000000
vn 0.000000 -1.000000 0.000000
vn 0.000000 -1.000000 0.000000
vn -1.000000 0.000000 0.000000
vn -1.000000 0.000000 0.000000
vn -1.000000 0.000000 0.000000
vn -1.000000 0.000000 0.000000
vn 0.000000 1.000000 0.000000
vn 0.000000 1.000000 0.000000
vn 0.000000 1.000000 0.000000
vn 0.000000 1.000000 0.000000
vn 1.000000 0.000000 0.000000
vn 1.000000 0.000000 0.000000
vn 1.000000 0.000000 0.000000
vn 1.000000 0.000000 0.000000
vn 0.000000 -1.000000 0.000000
vn 0.000000 -1.000000 0.000000
vn 0.000000 -1.000000 0.000000
vn 0.000000 -1.000000 0.000000
vn -1.000000 0.000000 0.000000
vn -1.000000 0.000000 0.000000
vn -1.000000 0.000000 0.000000
vn -1.000000 0.000000 0.000000
vn 0.000000 1.000000 0.000000
vn 0.000000 1.000000 0.000000
vn 0.000000 1.000000 0.000000
vn 0.000000 1.000000 0.000000
vn 1.000000 0.000000 0.000000
vn 1.000000 0.000000 0.000000
vn 1.000000 0.000000 0.000000
vn 1.000000 0.000000 0.000000
vn 0.000000 1.000000 0.000000
vn 0.000000 1.000000 0.000000
vn 0.000000 1.000000 0.000000
vn 0.000000 1.000000 0.000000
vn -1.000000 0.000000 0.000000
vn -1.000000 0.000000 0.000000
vn -1.000000 0.000000 0.000000
vn -1.000000 0.000000 0.000000
vn 0.000000 -1.000000 0.000000
vn 0.000000 -1.000000 0.000000
vn 0.000000 -1.000000 0.000000
vn 0.000000 -1.000000 0.000000
vn 1.000000 0.000000 0.000000
vn 1.000000 0.000000 0.000000
vn 1.000000 0.000000 0.000000
vn 1.000000 0.000000 0.000000
vn -1.000000 0.000000 0.000000
vn -1.000000 0.000000 0.000000
vn -1.000000 0.000000 0.000000
vn -1.000000 0.000000 0.000000
vn 1.000000 0.000000 0.000000
vn 1.000000 0.000000 0.000000
vn 1.000000 0.000000 0.000000
vn 1.000000 0.000000 0.000000
vn -1.000000 0.000000 0.000000
vn -1.000000 0.000000 0.000000
vn -1.000000 0.000000 0.000000
vn -1.000000 0.000000 0.000000
vn 0.000000 0.000000 1.000000
vn 0.000000 0.000000 1.000000
vn 0.000000 0.000000 1.000000
vn 0.000000 0.000000 1.000000
vn 1.000000 0.000000 0.000000
vn 1.000000 0.000000 0.000000
vn 1.000000 0.000000 0.000000
vn 1.000000 0.000000 0.000000
vn 1.000000 0.000000 0.000000
vn 1.000000 0.000000 0.000000
vn 1.000000 0.000000 0.000000
vn 1.000000 0.000000 0.000000
vn 0.000000 0.000000 -1.000000
vn 0.000000 0.000000 -1.000000
vn 0.000000 0.000000 -1.000000
vn 0.000000 0.000000 -1.000000
vn -1.000000 0.000000 0.000000
vn -1.000000 0.000000 0.000000
vn -1.000000 0.000000 0.000000
vn -1.000000 0.000000 0.000000
vn -1.000000 0.000000 0.000000
vn -1.000000 0.000000 0.000000
vn -1.000000 0.000000 0.000000
vn -1.000000 0.000000 0.000000
vn 1.000000 0.000000 0.000000
vn 1.000000 0.000000 0.000000
vn 1.000000 0.000000 0.000000
vn 1.000000 0.000000 0.000000
vn 1.000000 0.000000 0.000000
vn 1.000000 0.000000 0.000000
vn 1.000000 0.000000 0.000000
vn 1.000000 0.000000 0.000000
vn 0.000000 0.000000 -1.000000
vn 0.000000 0.000000 -1.000000
vn 0.000000 0.000000 -1.000000
vn 0.000000 0.000000 -1.000000
vn -1.000000 0.000000 0.000000
vn -1.000000 0.000000 0.000000
vn -1.000000 0.000000 0.000000
vn -1.000000 0.000000 0.000000
vn -1.000000 0.000000 0.000000
vn -1.000000 0.000000 0.000000
vn -1.000000 0.000000 0.000000
vn -1.000000 0.000000 0.000000
vn 0.000000 0.000000 1.000000
vn 0.000000 0.000000 1.000000
vn 0.000000 0.000000 1.000000
vn 0.000000 0.000000 1.000000
vn 1.000000 0.000000 0.000000
vn 1.000000 0.000000 0.000000
vn 1.000000 0.000000 0.000000
vn 1.000000 0.000000 0.000000
s off
usemtl footboard_2_initialShadingGroup
f 17/28/1 18/27/2 19/18/3 20/17/4
f 34/32/5 33/20/6 35/19/7 36/29/8
f 22/36/9 21/22/10 23/21/11 24/33/12
f 2/1/13 8/2/14 6/3/15 4/4/16
f 7/13/17 1/14/18 3/15/19 5/16/20
f 42/7/21 41/41/22 43/44/23 44/8/24
f 26/5/25 25/40/26 27/39/27 28/6/28
f 30/9/29 29/45/30 31/48/31 32/10/32
f 10/38/33 14/31/34 13/26/35 9/43/36
f 11/37/37 15/35/38 14/31/39 10/38/40
f 12/47/41 9/43/42 13/26/43 16/25/44
f 16/25/45 13/26/46 18/27/47 17/28/48
f 36/29/49 35/19/50 37/23/51 38/30/52
f 3/15/53 1/14/54 20/17/55 19/18/56
f 1/14/57 16/25/58 17/28/59 20/17/60
f 15/35/61 7/13/62 21/22/63 22/36/64
f 7/13/65 5/16/66 23/21/67 21/22/68
f 33/20/69 34/32/70 39/34/71 40/24/72
f 14/31/73 15/35/74 22/36/75 24/33/76
f 8/2/77 11/37/78 25/40/79 26/5/80
f 11/37/81 10/38/82 27/39/83 25/40/84
f 41/41/85 42/7/86 45/11/87 46/42/88
f 6/3/89 8/2/90 26/5/91 28/6/92
f 44/8/93 43/44/94 47/46/95 48/12/96
f 9/43/97 12/47/98 31/48/99 29/45/100
f 12/47/101 2/1/102 32/10/103 31/48/104
f 2/1/105 4/4/106 30/9/107 32/10/108
f 5/16/109 3/15/110 35/19/111 33/20/112
f 13/26/113 14/31/114 34/32/115 36/29/116
f 3/15/117 19/18/118 37/23/119 35/19/120
f 19/18/121 18/27/122 38/30/123 37/23/124
f 18/27/125 13/26/126 36/29/127 38/30/128
f 14/31/129 24/33/130 39/34/131 34/32/132
f 24/33/133 23/21/134 40/24/135 39/34/136
f 23/21/137 5/16/138 33/20/139 40/24/140
f 10/38/141 9/43/142 43/44/143 41/41/144
f 4/4/145 6/3/146 42/7/147 44/8/148
f 6/3/149 28/6/150 45/11/151 42/7/152
f 28/6/153 27/39/154 46/42/155 45/11/156
f 27/39/157 10/38/158 41/41/159 46/42/160
f 9/43/161 29/45/162 47/46/163 43/44/164
f 29/45/165 30/9/166 48/12/167 47/46/168
f 30/9/169 4/4/170 44/8/171 48/12/172
