# This file uses centimeters as units for non-parametric coordinates.

mtllib fridge_top_4.mtl
v -6.968790 0.553058 6.780842
v 6.968790 0.553058 6.780842
v -6.968790 27.875160 6.780842
v 6.968790 27.875160 6.780842
v -6.968790 27.875160 -7.156738
v 6.968790 27.875160 -7.156738
v -6.968790 0.000000 -7.156738
v 6.968790 0.000000 -7.156738
v -6.676813 21.216896 6.488859
v -6.676813 21.216896 -6.864754
v 6.676813 21.216896 -6.864754
v 6.676813 21.216896 6.488859
v -6.968790 20.669080 6.780842
v -6.968790 20.669080 -7.156738
v 6.968790 20.669080 -7.156738
v 6.968790 20.669080 6.780842
v -6.968790 21.403544 6.780842
v -6.968790 21.403544 -7.156738
v 6.968790 21.403544 -7.156738
v 6.968790 21.403544 6.780842
v -6.676813 20.831055 6.488859
v -6.676813 20.831055 -6.864754
v 6.676813 20.831055 -6.864754
v 6.676813 20.831055 6.488859
v -6.856799 27.651185 6.214833
v -6.856799 21.283566 6.214833
v -6.569514 21.099917 5.946576
v -6.569514 20.720277 5.946576
v -6.856799 20.560903 6.214833
v -6.856799 0.777034 6.214833
v 6.856799 0.777034 6.214833
v 6.856799 20.560903 6.214833
v 6.569514 20.720277 5.946576
v 6.569514 21.099917 5.946576
v 6.856799 21.283566 6.214833
v 6.856799 27.651185 6.214833
v -6.856799 27.651185 5.922411
v -6.856799 21.283568 5.922411
v -6.569514 21.099917 5.666409
v -6.569514 20.720277 5.666409
v -6.856799 20.560903 5.922411
v -6.856799 0.777034 5.922411
v 6.856799 0.777034 5.922411
v 6.856799 20.560903 5.922411
v 6.569514 20.720277 5.666409
v 6.569514 21.099917 5.666409
v 6.856799 21.283566 5.922411
v 6.856799 27.651185 5.922411
v -6.968790 27.875160 5.801933
v -6.968790 21.403546 5.801933
v -6.676813 21.216896 5.550968
v -6.676813 20.831055 5.550968
v -6.968790 20.669080 5.801933
v -6.968790 0.000000 5.801933
v 6.968790 0.000000 5.801933
v 6.968790 20.669080 5.801933
v 6.676813 20.831055 5.550968
v 6.676813 21.216896 5.550968
v 6.968790 21.403544 5.801933
v 6.968790 27.875160 5.801933
v -6.968790 27.875160 6.332480
v -6.968790 21.403544 6.332480
v -6.676813 21.216896 6.059291
v -6.676813 20.831055 6.059291
v -6.968790 20.669080 6.332480
v -6.968790 0.553058 6.332480
v 6.968790 0.553058 6.332480
v 6.968790 20.669080 6.332480
v 6.676813 20.831055 6.059291
v 6.676813 21.216896 6.059291
v 6.968790 21.403544 6.332480
v 6.968790 27.875160 6.332480
v -5.461467 8.436348 7.156738
v -4.528907 8.436348 7.156738
v -5.461467 12.168874 7.156738
v -4.528907 12.168874 7.156738
v -5.461467 12.168874 6.780842
v -4.528907 12.168874 6.780842
v -5.461467 8.436348 6.780842
v -4.528907 8.436348 6.780842
v -5.461467 22.432282 7.156738
v -4.528907 22.432282 7.156738
v -5.461467 26.164807 7.156738
v -4.528907 26.164807 7.156738
v -5.461467 26.164807 6.780842
v -4.528907 26.164807 6.780842
v -5.461467 22.432282 6.780842
v -4.528907 22.432282 6.780842
vt 0.833248 0.048883
vt 0.891743 0.048883
vt 0.833248 0.107379
vt 0.891743 0.107379
vt 0.833248 0.165874
vt 0.891743 0.165874
vt 0.833248 0.224369
vt 0.891743 0.224369
vt 0.833248 0.282865
vt 0.891743 0.282865
vt 0.950238 0.048883
vt 0.950238 0.107379
vt 0.774752 0.048883
vt 0.774752 0.107379
vt 0.833248 0.092988
vt 0.774752 0.092988
vt 0.833248 0.180265
vt 0.891743 0.180265
vt 0.950238 0.092988
vt 0.891743 0.092988
vt 0.833248 0.092257
vt 0.774752 0.092257
vt 0.833248 0.180996
vt 0.891743 0.180996
vt 0.950238 0.092257
vt 0.891743 0.092257
vt 0.833248 0.093798
vt 0.774752 0.093798
vt 0.833248 0.179455
vt 0.891743 0.179455
vt 0.950238 0.093798
vt 0.891743 0.093798
vt 0.833248 0.092597
vt 0.774752 0.092597
vt 0.833248 0.180656
vt 0.891743 0.180656
vt 0.950238 0.092597
vt 0.891743 0.092597
vt 0.830872 0.107379
vt 0.833248 0.109754
vt 0.830872 0.093798
vt 0.830872 0.092988
vt 0.830872 0.092597
vt 0.830872 0.092257
vt 0.830872 0.048883
vt 0.833248 0.280489
vt 0.891743 0.280489
vt 0.894118 0.048883
vt 0.894118 0.092257
vt 0.894118 0.092597
vt 0.894118 0.092988
vt 0.894118 0.093798
vt 0.891743 0.109754
vt 0.894118 0.107379
vt 0.829645 0.107379
vt 0.833248 0.110981
vt 0.829645 0.093798
vt 0.829645 0.092988
vt 0.829645 0.092597
vt 0.829645 0.092257
vt 0.829645 0.048883
vt 0.833248 0.279262
vt 0.891743 0.279262
vt 0.895346 0.048883
vt 0.895346 0.092257
vt 0.895346 0.092597
vt 0.895346 0.092988
vt 0.895346 0.093798
vt 0.891743 0.110981
vt 0.895346 0.107379
vt 0.828292 0.107379
vt 0.833248 0.112334
vt 0.828292 0.093798
vt 0.828292 0.092988
vt 0.828292 0.092597
vt 0.828292 0.092257
vt 0.828292 0.048883
vt 0.833248 0.277910
vt 0.891743 0.277910
vt 0.896698 0.048883
vt 0.896698 0.092257
vt 0.896698 0.092597
vt 0.896698 0.092988
vt 0.896698 0.093798
vt 0.891743 0.112334
vt 0.896698 0.107379
vt 0.831366 0.107379
vt 0.833248 0.109260
vt 0.831366 0.093798
vt 0.831366 0.092988
vt 0.831366 0.092597
vt 0.831366 0.092257
vt 0.831366 0.048883
vt 0.833248 0.280983
vt 0.891743 0.280983
vt 0.893625 0.048883
vt 0.893625 0.092257
vt 0.893625 0.092597
vt 0.893625 0.092988
vt 0.893625 0.093798
vt 0.891743 0.109260
vt 0.893625 0.107379
vt 0.826496 0.683824
vt 0.892190 0.683824
vt 0.892190 0.749519
vt 0.826496 0.749519
vt 0.892190 0.815213
vt 0.826496 0.815213
vt 0.892190 0.880908
vt 0.826496 0.880908
vt 0.892190 0.946603
vt 0.826496 0.946603
vt 0.957885 0.683824
vt 0.957885 0.749519
vt 0.760801 0.683824
vt 0.760801 0.749519
vt 0.826496 0.683824
vt 0.892190 0.683824
vt 0.892190 0.749519
vt 0.826496 0.749519
vt 0.892190 0.815213
vt 0.826496 0.815213
vt 0.892190 0.880908
vt 0.826496 0.880908
vt 0.892190 0.946603
vt 0.826496 0.946603
vt 0.957885 0.683824
vt 0.957885 0.749519
vt 0.760801 0.683824
vt 0.760801 0.749519
vn 0.000000 0.000000 1.000000
vn 0.000000 0.000000 1.000000
vn 0.000000 0.007678 0.999970
vn 0.000000 0.007678 0.999970
vn 0.000000 1.000000 0.000000
vn 0.000000 1.000000 0.000000
vn 0.000000 0.956334 -0.292276
vn 0.000000 0.956334 -0.292276
vn 0.000000 0.007473 -0.999972
vn 0.000000 0.007473 -0.999972
vn 0.000000 0.000000 -1.000000
vn 0.000000 0.000000 -1.000000
vn 0.000000 -0.956334 -0.292274
vn 0.000000 -0.956334 -0.292274
vn 0.000000 -1.000000 0.000000
vn 0.000000 -1.000000 0.000000
vn 1.000000 0.000000 0.000000
vn 0.996007 0.000000 -0.089275
vn 0.990917 0.017392 -0.133343
vn 0.999970 0.007677 0.000000
vn -0.996007 0.000000 -0.089272
vn -1.000000 0.000000 0.000000
vn -0.999970 0.007677 0.000000
vn -0.990918 0.017392 -0.133338
vn -0.938113 -0.346231 0.008206
vn -0.837672 -0.546173 0.000000
vn -0.999710 -0.024098 0.000000
vn -0.969848 -0.043550 -0.239789
vn 0.000000 -0.024099 -0.999710
vn 0.000000 -0.024099 -0.999710
vn 0.000000 -0.546170 -0.837674
vn 0.000000 -0.546170 -0.837674
vn 0.837674 -0.546171 0.000000
vn 0.938113 -0.346231 0.008204
vn 0.969847 -0.043550 -0.239791
vn 0.999710 -0.024098 0.000000
vn 0.000000 -0.546170 0.837674
vn 0.000000 -0.546170 0.837674
vn 0.000000 -0.024099 0.999710
vn 0.000000 -0.024099 0.999710
vn -0.821749 0.569849 0.000000
vn -0.914771 0.213131 -0.343176
vn 0.000000 0.569850 -0.821748
vn 0.000000 0.569850 -0.821748
vn 0.914768 0.213135 -0.343180
vn 0.821749 0.569849 0.000000
vn 0.000000 0.569850 0.821748
vn 0.000000 0.569850 0.821748
vn -1.000000 0.000000 0.000000
vn -0.996006 0.000000 -0.089290
vn 0.000000 0.000000 -1.000000
vn 0.000000 0.000000 -1.000000
vn 0.996006 0.000000 -0.089291
vn 1.000000 0.000000 0.000000
vn 0.000000 0.000000 1.000000
vn 0.000000 0.000000 1.000000
vn -0.983322 -0.075412 0.165500
vn -0.985107 -0.023006 -0.170397
vn -0.936413 0.000000 -0.350901
vn -0.937658 0.000000 0.347559
vn -0.910826 -0.374480 0.173666
vn -0.879356 -0.429922 -0.204692
vn -0.723870 0.568663 0.390685
vn -0.864544 0.455040 -0.213310
vn -0.945822 0.017631 0.324207
vn -0.945388 0.005345 -0.325904
vn -0.925501 0.000000 0.378745
vn -0.936404 0.000000 -0.350924
vn 0.000000 -0.445414 0.895325
vn 0.000000 -0.445414 0.895325
vn 0.000000 -0.840098 -0.542435
vn 0.000000 -0.840098 -0.542435
vn 0.945384 0.005345 -0.325914
vn 0.936400 0.000000 -0.350935
vn 0.925503 0.000000 0.378741
vn 0.945823 0.017632 0.324203
vn 0.864541 0.455047 -0.213310
vn 0.723870 0.568660 0.390688
vn 0.879356 -0.429921 -0.204698
vn 0.910825 -0.374476 0.173680
vn 0.985107 -0.023005 -0.170397
vn 0.983323 -0.075412 0.165499
vn 0.936412 0.000000 -0.350903
vn 0.937660 0.000000 0.347555
vn 0.000000 0.840097 -0.542437
vn 0.000000 0.840097 -0.542437
vn 0.000000 0.842253 0.539082
vn 0.000000 0.842253 0.539082
vn -0.999587 -0.026337 0.011521
vn -0.999994 0.000000 0.003444
vn -0.841633 -0.540050 0.000796
vn -0.826192 0.563287 0.010702
vn -0.999950 0.008328 0.005475
vn -0.999999 0.000000 0.001122
vn 0.000000 -0.998563 0.053596
vn 0.000000 -0.998563 0.053596
vn 0.999999 0.000000 0.001122
vn 0.999950 0.008328 0.005475
vn 0.826192 0.563287 0.010702
vn 0.841632 -0.540050 0.000797
vn 0.999587 -0.026337 0.011520
vn 0.999994 0.000000 0.003444
vn 0.000000 0.999922 0.012532
vn 0.000000 0.999922 0.012532
vn -0.999710 -0.024098 0.000000
vn -1.000000 0.000000 0.000000
vn -0.837676 -0.546168 0.000000
vn -0.821751 0.569847 0.000000
vn -0.999972 0.007473 0.000000
vn -1.000000 0.000000 0.000000
vn 0.000000 -1.000000 0.000000
vn 0.000000 -1.000000 0.000000
vn 1.000000 0.000000 0.000000
vn 0.999972 0.007473 0.000000
vn 0.821751 0.569847 0.000000
vn 0.837676 -0.546168 0.000000
vn 0.999710 -0.024098 0.000000
vn 1.000000 0.000000 0.000000
vn 0.000000 1.000000 0.000000
vn 0.000000 1.000000 0.000000
vn 0.000000 0.000000 1.000000
vn 0.000000 0.000000 1.000000
vn 0.000000 0.000000 1.000000
vn 0.000000 0.000000 1.000000
vn 0.000000 1.000000 0.000000
vn 0.000000 1.000000 0.000000
vn 0.000000 1.000000 0.000000
vn 0.000000 1.000000 0.000000
vn 0.000000 0.000000 -1.000000
vn 0.000000 0.000000 -1.000000
vn 0.000000 0.000000 -1.000000
vn 0.000000 0.000000 -1.000000
vn 0.000000 -1.000000 0.000000
vn 0.000000 -1.000000 0.000000
vn 0.000000 -1.000000 0.000000
vn 0.000000 -1.000000 0.000000
vn 1.000000 0.000000 0.000000
vn 1.000000 0.000000 0.000000
vn 1.000000 0.000000 0.000000
vn 1.000000 0.000000 0.000000
vn -1.000000 0.000000 0.000000
vn -1.000000 0.000000 0.000000
vn -1.000000 0.000000 0.000000
vn -1.000000 0.000000 0.000000
vn 0.000000 0.000000 1.000000
vn 0.000000 0.000000 1.000000
vn 0.000000 0.000000 1.000000
vn 0.000000 0.000000 1.000000
vn 0.000000 1.000000 0.000000
vn 0.000000 1.000000 0.000000
vn 0.000000 1.000000 0.000000
vn 0.000000 1.000000 0.000000
vn 0.000000 0.000000 -1.000000
vn 0.000000 0.000000 -1.000000
vn 0.000000 0.000000 -1.000000
vn 0.000000 0.000000 -1.000000
vn 0.000000 -1.000000 0.000000
vn 0.000000 -1.000000 0.000000
vn 0.000000 -1.000000 0.000000
vn 0.000000 -1.000000 0.000000
vn 1.000000 0.000000 0.000000
vn 1.000000 0.000000 0.000000
vn 1.000000 0.000000 0.000000
vn 1.000000 0.000000 0.000000
vn -1.000000 0.000000 0.000000
vn -1.000000 0.000000 0.000000
vn -1.000000 0.000000 0.000000
vn -1.000000 0.000000 0.000000
s 1
usemtl initialShadingGroup
f 1/1/1 2/2/2 16/26/3 13/21/4
s 2
f 3/3/5 4/4/6 72/101/7 61/88/8
s 3
f 14/23/9 15/24/10 8/8/11 7/7/12
s 4
f 66/94/13 67/95/14 2/10/15 1/9/16
s 5
f 2/2/17 67/96/18 68/97/19 16/26/20
s 6
f 66/93/21 1/1/22 13/21/23 65/92/24
f 63/90/25 9/15/26 17/27/27 62/89/28
s 3
f 18/29/29 19/30/30 11/18/31 10/17/32
s 5
f 12/20/33 70/99/34 71/100/35 20/32/36
s 1
f 9/15/37 12/20/38 20/32/39 17/27/40
s 6
f 65/92/24 13/21/23 21/33/41 64/91/42
s 3
f 22/35/43 23/36/44 15/24/10 14/23/9
s 5
f 16/26/20 68/97/19 69/98/45 24/38/46
s 1
f 13/21/4 16/26/3 24/38/47 21/33/48
s 6
f 62/89/28 17/27/27 3/3/49 61/87/50
s 3
f 5/5/51 6/6/52 19/30/30 18/29/29
s 5
f 20/32/36 71/100/35 72/102/53 4/4/54
s 1
f 17/27/40 20/32/39 4/4/55 3/3/56
s 6
f 64/91/42 21/33/41 9/15/26 63/90/25
s 3
f 10/17/32 11/18/31 23/36/44 22/35/43
s 5
f 24/38/46 69/98/45 70/99/34 12/20/33
s 1
f 21/33/48 24/38/47 12/20/38 9/15/37
s 6
f 38/57/57 26/41/58 25/39/59 37/55/60
f 39/58/61 27/42/62 26/41/58 38/57/57
f 40/59/63 28/43/64 27/42/62 39/58/61
f 41/60/65 29/44/66 28/43/64 40/59/63
f 42/61/67 30/45/68 29/44/66 41/60/65
s 4
f 42/62/69 43/63/70 31/47/71 30/46/72
s 5
f 32/49/73 31/48/74 43/64/75 44/65/76
f 33/50/77 32/49/73 44/65/76 45/66/78
f 34/51/79 33/50/77 45/66/78 46/67/80
f 35/52/81 34/51/79 46/67/80 47/68/82
f 36/54/83 35/52/81 47/68/82 48/70/84
s 2
f 25/40/85 36/53/86 48/69/87 37/56/88
s 6
f 50/73/89 38/57/57 37/55/60 49/71/90
f 51/74/91 39/58/61 38/57/57 50/73/89
f 52/75/92 40/59/63 39/58/61 51/74/91
f 53/76/93 41/60/65 40/59/63 52/75/92
f 54/77/94 42/61/67 41/60/65 53/76/93
s 4
f 54/78/95 55/79/96 43/63/70 42/62/69
s 5
f 44/65/76 43/64/75 55/80/97 56/81/98
f 45/66/78 44/65/76 56/81/98 57/82/99
f 46/67/80 45/66/78 57/82/99 58/83/100
f 47/68/82 46/67/80 58/83/100 59/84/101
f 48/70/84 47/68/82 59/84/101 60/86/102
s 2
f 37/56/88 48/69/87 60/85/103 49/72/104
s 6
f 18/28/105 50/73/89 49/71/90 5/14/106
f 10/16/107 51/74/91 50/73/89 18/28/105
f 22/34/108 52/75/92 51/74/91 10/16/107
f 14/22/109 53/76/93 52/75/92 22/34/108
f 7/13/110 54/77/94 53/76/93 14/22/109
s 4
f 7/7/111 8/8/112 55/79/96 54/78/95
s 5
f 56/81/98 55/80/97 8/11/113 15/25/114
f 57/82/99 56/81/98 15/25/114 23/37/115
f 58/83/100 57/82/99 23/37/115 11/19/116
f 59/84/101 58/83/100 11/19/116 19/31/117
f 60/86/102 59/84/101 19/31/117 6/12/118
s 2
f 49/72/104 60/85/103 6/6/119 5/5/120
s 6
f 26/41/58 62/89/28 61/87/50 25/39/59
f 27/42/62 63/90/25 62/89/28 26/41/58
f 28/43/64 64/91/42 63/90/25 27/42/62
f 29/44/66 65/92/24 64/91/42 28/43/64
f 30/45/68 66/93/21 65/92/24 29/44/66
s 4
f 30/46/72 31/47/71 67/95/14 66/94/13
s 5
f 68/97/19 67/96/18 31/48/74 32/49/73
f 69/98/45 68/97/19 32/49/73 33/50/77
f 70/99/34 69/98/45 33/50/77 34/51/79
f 71/100/35 70/99/34 34/51/79 35/52/81
f 72/102/53 71/100/35 35/52/81 36/54/83
s 2
f 61/88/8 72/101/7 36/53/86 25/40/85
s off
f 73/103/121 74/104/122 76/105/123 75/106/124
f 75/106/125 76/105/126 78/107/127 77/108/128
f 77/108/129 78/107/130 80/109/131 79/110/132
f 79/110/133 80/109/134 74/111/135 73/112/136
f 74/104/137 80/113/138 78/114/139 76/105/140
f 79/115/141 73/103/142 75/106/143 77/116/144
f 81/117/145 82/118/146 84/119/147 83/120/148
f 83/120/149 84/119/150 86/121/151 85/122/152
f 85/122/153 86/121/154 88/123/155 87/124/156
f 87/124/157 88/123/158 82/125/159 81/126/160
f 82/118/161 88/127/162 86/128/163 84/119/164
f 87/129/165 81/117/166 83/120/167 85/130/168
