# This file uses centimeters as units for non-parametric coordinates.

mtllib fridge_top_3.mtl
v -6.968790 0.589083 6.972796
v 6.968790 0.589083 6.972796
v -6.968790 27.875160 6.972796
v 6.968790 27.875160 6.972796
v -6.968790 27.875160 -6.964784
v 6.968790 27.875160 -6.964784
v -6.968790 0.000000 -6.964784
v 6.968790 0.000000 -6.964784
v 1.638939 27.875160 6.972796
v 1.638939 27.875160 -6.964784
v 1.638939 0.000000 -6.964784
v 1.638939 0.589083 6.972796
v 2.455847 27.875160 6.972796
v 2.455847 27.875160 -6.964784
v 2.455847 0.000000 -6.964784
v 2.455847 0.589083 6.972796
v 1.797871 27.875160 6.610419
v 1.797871 27.875160 -6.964784
v 1.797871 0.000000 -6.964784
v 1.797871 0.589083 6.610419
v 2.304505 27.875160 6.610419
v 2.304505 27.875160 -6.964784
v 2.304505 0.000000 -6.964784
v 2.304505 0.589083 6.610419
v 2.455847 27.875160 6.475692
v 2.304505 27.875160 6.475692
v 1.797871 27.875160 6.475692
v 1.638939 27.875160 6.475692
v -6.968790 27.875160 6.475692
v -6.968790 0.589083 6.475692
v 1.638939 0.589083 6.475692
v 1.797871 0.589083 6.475692
v 2.304505 0.589083 6.475692
v 2.455847 0.589083 6.475692
v 6.968790 0.589083 6.475692
v 6.968790 27.875160 6.475692
v 2.388756 27.498384 6.370394
v 2.241548 27.498384 6.370394
v 1.748757 27.498384 6.370394
v 1.594165 27.498384 6.370394
v -6.778400 27.498384 6.370394
v -6.778400 0.965858 6.370394
v 1.594165 0.965858 6.370394
v 1.748757 0.965858 6.370394
v 2.241548 0.965858 6.370394
v 2.388756 0.965858 6.370394
v 6.778403 0.965858 6.370394
v 6.778403 27.498384 6.370394
v 2.388756 27.498384 6.051840
v 2.241548 27.498384 6.051840
v 1.748757 27.498384 6.051840
v 1.594165 27.498384 6.051840
v -6.778400 27.498384 6.051840
v -6.778400 0.965858 6.051840
v 1.594165 0.965858 6.051840
v 1.748757 0.965858 6.051840
v 2.241548 0.965858 6.051840
v 2.388756 0.965858 6.051840
v 6.778403 0.965858 6.051840
v 6.778403 27.498384 6.051840
v 2.455847 27.875160 5.944787
v 2.304505 27.875160 5.944787
v 1.797871 27.875160 5.944787
v 1.638939 27.875160 5.944787
v -6.968790 27.875160 5.944787
v -6.968790 0.000000 5.944787
v 1.638939 0.000000 5.944787
v 1.797871 0.000000 5.944787
v 2.304505 0.000000 5.944787
v 2.455847 0.000000 5.944787
v 6.968790 0.000000 5.944787
v 6.968790 27.875160 5.944787
v 0.309582 8.436348 7.348692
v 1.242142 8.436348 7.348692
v 0.309582 12.168874 7.348692
v 1.242142 12.168874 7.348692
v 0.309582 12.168874 6.972796
v 1.242142 12.168874 6.972796
v 0.309582 8.436348 6.972796
v 1.242142 8.436348 6.972796
v 2.841040 8.436348 7.348692
v 3.773600 8.436348 7.348692
v 2.841040 12.168874 7.348692
v 3.773600 12.168874 7.348692
v 2.841040 12.168874 6.972796
v 3.773600 12.168874 6.972796
v 2.841040 8.436348 6.972796
v 3.773600 8.436348 6.972796
vt 0.807408 0.030632
vt 0.886061 0.030632
vt 0.807408 0.109285
vt 0.886061 0.109285
vt 0.807408 0.187939
vt 0.886061 0.187939
vt 0.807408 0.266593
vt 0.886061 0.266593
vt 0.807408 0.345246
vt 0.886061 0.345246
vt 0.964715 0.030632
vt 0.964715 0.109285
vt 0.728754 0.030632
vt 0.728754 0.109285
vt 0.855983 0.109285
vt 0.855983 0.187939
vt 0.855983 0.266593
vt 0.855983 0.030632
vt 0.855983 0.345246
vt 0.860594 0.109285
vt 0.860594 0.187939
vt 0.860594 0.266593
vt 0.860594 0.030632
vt 0.860594 0.345246
vt 0.856880 0.109285
vt 0.856880 0.187939
vt 0.856880 0.266593
vt 0.856880 0.030632
vt 0.856880 0.345246
vt 0.859739 0.109285
vt 0.859739 0.187939
vt 0.859739 0.266593
vt 0.859739 0.030632
vt 0.859739 0.345246
vt 0.860594 0.111977
vt 0.859739 0.111977
vt 0.856880 0.111977
vt 0.855983 0.111977
vt 0.804716 0.109285
vt 0.807408 0.111977
vt 0.804716 0.030632
vt 0.807408 0.342554
vt 0.855983 0.342554
vt 0.856880 0.342554
vt 0.859739 0.342554
vt 0.860594 0.342554
vt 0.886061 0.342554
vt 0.888753 0.030632
vt 0.886061 0.111977
vt 0.888753 0.109285
vt 0.860594 0.112777
vt 0.859739 0.112777
vt 0.856880 0.112777
vt 0.855983 0.112777
vt 0.803916 0.109285
vt 0.807408 0.112777
vt 0.803916 0.030632
vt 0.807408 0.341754
vt 0.855983 0.341754
vt 0.856880 0.341754
vt 0.859739 0.341754
vt 0.860594 0.341754
vt 0.886061 0.341754
vt 0.889553 0.030632
vt 0.886061 0.112777
vt 0.889553 0.109285
vt 0.860594 0.114972
vt 0.859739 0.114972
vt 0.856880 0.114972
vt 0.855983 0.114972
vt 0.801721 0.109285
vt 0.807408 0.114972
vt 0.801721 0.030632
vt 0.807408 0.339560
vt 0.855983 0.339560
vt 0.856880 0.339560
vt 0.859739 0.339560
vt 0.860594 0.339560
vt 0.886061 0.339560
vt 0.891748 0.030632
vt 0.886061 0.114972
vt 0.891748 0.109285
vt 0.860594 0.115806
vt 0.859739 0.115806
vt 0.856880 0.115806
vt 0.855983 0.115806
vt 0.800887 0.109285
vt 0.807408 0.115806
vt 0.800887 0.030632
vt 0.807408 0.338726
vt 0.855983 0.338726
vt 0.856880 0.338726
vt 0.859739 0.338726
vt 0.860594 0.338726
vt 0.886061 0.338726
vt 0.892582 0.030632
vt 0.886061 0.115806
vt 0.892582 0.109285
vt 0.790567 0.584415
vt 0.869220 0.584415
vt 0.869220 0.663069
vt 0.790567 0.663069
vt 0.869220 0.741722
vt 0.790567 0.741722
vt 0.869220 0.820376
vt 0.790567 0.820376
vt 0.869220 0.899030
vt 0.790567 0.899030
vt 0.947874 0.584415
vt 0.947874 0.663069
vt 0.711913 0.584415
vt 0.711913 0.663069
vt 0.789575 0.586398
vt 0.868229 0.586398
vt 0.868229 0.665052
vt 0.789575 0.665052
vt 0.868229 0.743706
vt 0.789575 0.743706
vt 0.868229 0.822360
vt 0.789575 0.822360
vt 0.868229 0.901013
vt 0.789575 0.901013
vt 0.946882 0.586398
vt 0.946882 0.665052
vt 0.710921 0.586398
vt 0.710921 0.665052
vn 0.000000 0.000000 1.000000
vn 0.041301 0.000000 0.999147
vn 0.041301 0.000000 0.999147
vn 0.000000 0.000000 1.000000
vn 0.000000 1.000000 0.000000
vn 0.000000 1.000000 0.000000
vn 0.000000 0.862990 -0.505221
vn 0.000000 0.907397 -0.420275
vn 0.000000 0.000000 -1.000000
vn 0.000000 0.000000 -1.000000
vn 0.000000 0.000000 -1.000000
vn 0.000000 0.000000 -1.000000
vn 0.000000 -0.907398 -0.420272
vn 0.000000 -0.862991 -0.505219
vn 0.000000 -1.000000 0.000000
vn 0.000000 -1.000000 0.000000
vn 1.000000 0.000000 0.000000
vn 0.993142 0.000000 -0.116913
vn 0.993142 0.000000 -0.116913
vn 1.000000 0.000000 0.000000
vn -0.993142 0.000000 -0.116916
vn -1.000000 0.000000 0.000000
vn -1.000000 0.000000 0.000000
vn -0.993142 0.000000 -0.116916
vn 0.000000 1.000000 0.000000
vn 0.000000 0.594494 -0.804100
vn 0.000000 0.000000 -1.000000
vn 0.000000 0.000000 -1.000000
vn 0.000000 -0.594495 -0.804099
vn 0.000000 -1.000000 0.000000
vn 0.478184 0.000000 0.878260
vn 0.478184 0.000000 0.878260
vn 0.000000 1.000000 0.000000
vn 0.000000 1.000000 0.000000
vn 0.000000 0.907398 -0.420273
vn 0.000000 0.828575 -0.559878
vn 0.000000 0.000000 -1.000000
vn 0.000000 0.000000 -1.000000
vn 0.000000 0.000000 -1.000000
vn 0.000000 0.000000 -1.000000
vn 0.000000 -1.000000 0.000000
vn 0.000000 -0.828574 -0.559880
vn 0.000000 -0.907397 -0.420274
vn 0.000000 -1.000000 0.000000
vn -0.077459 0.000000 0.996996
vn -0.077459 0.000000 0.996996
vn 0.000000 0.000000 1.000000
vn 0.000000 0.000000 1.000000
vn 0.000000 1.000000 0.000000
vn 0.000000 0.615860 -0.787856
vn 0.000000 0.000000 -1.000000
vn 0.000000 0.000000 -1.000000
vn 0.000000 -0.615860 -0.787855
vn 0.000000 -1.000000 0.000000
vn -0.482422 0.000000 0.875939
vn -0.482422 0.000000 0.875939
vn 0.000000 0.770055 -0.637978
vn 0.000000 0.730563 -0.682846
vn 0.000000 0.754428 -0.656383
vn 0.000000 0.726989 -0.686649
vn 0.000000 0.679686 -0.733504
vn -0.839174 0.000000 -0.543863
vn -0.839174 0.000000 -0.543863
vn 0.000000 -0.679688 -0.733502
vn 0.000000 -0.726991 -0.686647
vn 0.000000 -0.754429 -0.656382
vn 0.000000 -0.730564 -0.682845
vn 0.000000 -0.770053 -0.637980
vn 0.000000 -0.679688 -0.733501
vn 0.839178 0.000000 -0.543857
vn 0.839178 0.000000 -0.543857
vn 0.000000 0.679690 -0.733499
vn 0.000000 0.771226 0.636562
vn 0.000000 0.732057 0.681243
vn 0.000000 0.755729 0.654885
vn 0.000000 0.728511 0.685034
vn 0.000000 0.681577 0.731746
vn -0.821443 0.000000 0.570291
vn -0.839028 0.000000 0.544088
vn 0.000000 -0.371724 0.928343
vn 0.000000 -0.392814 0.919618
vn 0.000000 -0.403996 0.914761
vn 0.000000 -0.394258 0.919000
vn 0.000000 -0.410366 0.911921
vn 0.000000 -0.371725 0.928343
vn 0.821450 0.000000 0.570281
vn 0.839035 0.000000 0.544078
vn 0.000000 0.681579 0.731745
vn 0.000000 0.999507 0.031396
vn 0.000000 0.999636 0.026991
vn 0.000000 0.999558 0.029715
vn 0.000000 0.999647 0.026565
vn 0.000000 0.999792 0.020373
vn -0.999998 0.000000 0.002035
vn -0.999988 0.000000 0.004801
vn 0.000000 -0.997943 0.064113
vn 0.000000 -0.997479 0.070966
vn 0.000000 -0.997243 0.074210
vn 0.000000 -0.997448 0.071399
vn 0.000000 -0.997111 0.075955
vn 0.000000 -0.997943 0.064113
vn 0.999998 0.000000 0.002035
vn 0.999988 0.000000 0.004801
vn 0.000000 0.999792 0.020373
vn 0.000000 1.000000 0.000000
vn 0.000000 1.000000 0.000000
vn 0.000000 1.000000 0.000000
vn 0.000000 1.000000 0.000000
vn 0.000000 1.000000 0.000000
vn -1.000000 0.000000 0.000000
vn -1.000000 0.000000 0.000000
vn 0.000000 -1.000000 0.000000
vn 0.000000 -1.000000 0.000000
vn 0.000000 -1.000000 0.000000
vn 0.000000 -1.000000 0.000000
vn 0.000000 -1.000000 0.000000
vn 0.000000 -1.000000 0.000000
vn 1.000000 0.000000 0.000000
vn 1.000000 0.000000 0.000000
vn 0.000000 1.000000 0.000000
vn 0.000000 0.000000 1.000000
vn 0.000000 0.000000 1.000000
vn 0.000000 0.000000 1.000000
vn 0.000000 0.000000 1.000000
vn 0.000000 1.000000 0.000000
vn 0.000000 1.000000 0.000000
vn 0.000000 1.000000 0.000000
vn 0.000000 1.000000 0.000000
vn 0.000000 0.000000 -1.000000
vn 0.000000 0.000000 -1.000000
vn 0.000000 0.000000 -1.000000
vn 0.000000 0.000000 -1.000000
vn 0.000000 -1.000000 0.000000
vn 0.000000 -1.000000 0.000000
vn 0.000000 -1.000000 0.000000
vn 0.000000 -1.000000 0.000000
vn 1.000000 0.000000 0.000000
vn 1.000000 0.000000 0.000000
vn 1.000000 0.000000 0.000000
vn 1.000000 0.000000 0.000000
vn -1.000000 0.000000 0.000000
vn -1.000000 0.000000 0.000000
vn -1.000000 0.000000 0.000000
vn -1.000000 0.000000 0.000000
vn 0.000000 0.000000 1.000000
vn 0.000000 0.000000 1.000000
vn 0.000000 0.000000 1.000000
vn 0.000000 0.000000 1.000000
vn 0.000000 1.000000 0.000000
vn 0.000000 1.000000 0.000000
vn 0.000000 1.000000 0.000000
vn 0.000000 1.000000 0.000000
vn 0.000000 0.000000 -1.000000
vn 0.000000 0.000000 -1.000000
vn 0.000000 0.000000 -1.000000
vn 0.000000 0.000000 -1.000000
vn 0.000000 -1.000000 0.000000
vn 0.000000 -1.000000 0.000000
vn 0.000000 -1.000000 0.000000
vn 0.000000 -1.000000 0.000000
vn 1.000000 0.000000 0.000000
vn 1.000000 0.000000 0.000000
vn 1.000000 0.000000 0.000000
vn 1.000000 0.000000 0.000000
vn -1.000000 0.000000 0.000000
vn -1.000000 0.000000 0.000000
vn -1.000000 0.000000 0.000000
vn -1.000000 0.000000 0.000000
s 1
usemtl initialShadingGroup
f 1/1/1 12/18/2 9/15/3 3/3/4
s 2
f 3/3/5 9/15/6 28/38/7 29/40/8
s 3
f 5/5/9 10/16/10 11/17/11 7/7/12
s 4
f 30/42/13 31/43/14 12/19/15 1/9/16
s 5
f 2/2/17 35/48/18 36/50/19 4/4/20
s 6
f 30/41/21 1/1/22 3/3/23 29/39/24
s 2
f 9/15/6 17/25/25 27/37/26 28/38/7
s 3
f 11/17/11 10/16/10 18/26/27 19/27/28
s 4
f 12/19/15 31/43/14 32/44/29 20/29/30
s 1
f 9/15/3 12/18/2 20/28/31 17/25/32
s 2
f 13/20/33 4/4/34 36/49/35 25/35/36
s 3
f 15/22/37 14/21/38 6/6/39 8/8/40
s 4
f 16/24/41 34/46/42 35/47/43 2/10/44
s 1
f 13/20/45 16/23/46 2/2/47 4/4/48
s 2
f 17/25/25 21/30/49 26/36/50 27/37/26
s 3
f 19/27/28 18/26/27 22/31/51 23/32/52
s 4
f 20/29/30 32/44/29 33/45/53 24/34/54
s 1
f 17/25/32 20/28/31 24/33/55 21/30/56
s 2
f 21/30/49 13/20/33 25/35/36 26/36/50
s 3
f 23/32/52 22/31/51 14/21/38 15/22/37
s 4
f 24/34/54 33/45/53 34/46/42 16/24/41
s 1
f 21/30/56 24/33/55 16/23/46 13/20/45
s 2
f 26/36/50 25/35/36 37/51/57 38/52/58
f 27/37/26 26/36/50 38/52/58 39/53/59
f 28/38/7 27/37/26 39/53/59 40/54/60
f 29/40/8 28/38/7 40/54/60 41/56/61
s 6
f 42/57/62 30/41/21 29/39/24 41/55/63
s 4
f 42/58/64 43/59/65 31/43/14 30/42/13
f 32/44/29 31/43/14 43/59/65 44/60/66
f 33/45/53 32/44/29 44/60/66 45/61/67
f 34/46/42 33/45/53 45/61/67 46/62/68
f 35/47/43 34/46/42 46/62/68 47/63/69
s 5
f 36/50/19 35/48/18 47/64/70 48/66/71
s 2
f 25/35/36 36/49/35 48/65/72 37/51/57
f 38/52/58 37/51/57 49/67/73 50/68/74
f 39/53/59 38/52/58 50/68/74 51/69/75
f 40/54/60 39/53/59 51/69/75 52/70/76
f 41/56/61 40/54/60 52/70/76 53/72/77
s 6
f 54/73/78 42/57/62 41/55/63 53/71/79
s 4
f 54/74/80 55/75/81 43/59/65 42/58/64
f 44/60/66 43/59/65 55/75/81 56/76/82
f 45/61/67 44/60/66 56/76/82 57/77/83
f 46/62/68 45/61/67 57/77/83 58/78/84
f 47/63/69 46/62/68 58/78/84 59/79/85
s 5
f 48/66/71 47/64/70 59/80/86 60/82/87
s 2
f 37/51/57 48/65/72 60/81/88 49/67/73
f 50/68/74 49/67/73 61/83/89 62/84/90
f 51/69/75 50/68/74 62/84/90 63/85/91
f 52/70/76 51/69/75 63/85/91 64/86/92
f 53/72/77 52/70/76 64/86/92 65/88/93
s 6
f 66/89/94 54/73/78 53/71/79 65/87/95
s 4
f 66/90/96 67/91/97 55/75/81 54/74/80
f 56/76/82 55/75/81 67/91/97 68/92/98
f 57/77/83 56/76/82 68/92/98 69/93/99
f 58/78/84 57/77/83 69/93/99 70/94/100
f 59/79/85 58/78/84 70/94/100 71/95/101
s 5
f 60/82/87 59/80/86 71/96/102 72/98/103
s 2
f 49/67/73 60/81/88 72/97/104 61/83/89
f 62/84/90 61/83/89 14/21/105 22/31/106
f 63/85/91 62/84/90 22/31/106 18/26/107
f 64/86/92 63/85/91 18/26/107 10/16/108
f 65/88/93 64/86/92 10/16/108 5/5/109
s 6
f 7/13/110 66/89/94 65/87/95 5/14/111
s 4
f 7/7/112 11/17/113 67/91/97 66/90/96
f 68/92/98 67/91/97 11/17/113 19/27/114
f 69/93/99 68/92/98 19/27/114 23/32/115
f 70/94/100 69/93/99 23/32/115 15/22/116
f 71/95/101 70/94/100 15/22/116 8/8/117
s 5
f 72/98/103 71/96/102 8/11/118 6/12/119
s 2
f 61/83/89 72/97/104 6/6/120 14/21/105
s off
f 73/99/121 74/100/122 76/101/123 75/102/124
f 75/102/125 76/101/126 78/103/127 77/104/128
f 77/104/129 78/103/130 80/105/131 79/106/132
f 79/106/133 80/105/134 74/107/135 73/108/136
f 74/100/137 80/109/138 78/110/139 76/101/140
f 79/111/141 73/99/142 75/102/143 77/112/144
f 81/113/145 82/114/146 84/115/147 83/116/148
f 83/116/149 84/115/150 86/117/151 85/118/152
f 85/118/153 86/117/154 88/119/155 87/120/156
f 87/120/157 88/119/158 82/121/159 81/122/160
f 82/114/161 88/123/162 86/124/163 84/115/164
f 87/125/165 81/113/166 83/116/167 85/126/168
