# This file uses centimeters as units for non-parametric coordinates.

mtllib fridge_top_1.mtl
v -6.968790 0.000000 6.968790
v 6.968790 0.000000 6.968790
v -6.968790 27.875160 6.968790
v 6.968790 27.875160 6.968790
v -6.968790 27.875160 -6.968790
v 6.968790 27.875160 -6.968790
v -6.968790 0.000000 -6.968790
v 6.968790 0.000000 -6.968790
v -5.385294 8.436348 7.344692
v -4.452729 8.436348 7.344692
v -5.385294 12.168874 7.344692
v -4.452729 12.168874 7.344692
v -5.385294 12.168874 6.968790
v -4.452729 12.168874 6.968790
v -5.385294 8.436348 6.968790
v -4.452729 8.436348 6.968790
vt 0.826393 0.046684
vt 0.898597 0.046684
vt 0.826393 0.118887
vt 0.898597 0.118887
vt 0.826393 0.191091
vt 0.898597 0.191091
vt 0.826393 0.263295
vt 0.898597 0.263295
vt 0.826393 0.335499
vt 0.898597 0.335499
vt 0.970801 0.046684
vt 0.970801 0.118887
vt 0.754189 0.046684
vt 0.754189 0.118887
vt 0.796262 0.647360
vt 0.869156 0.647360
vt 0.869156 0.720254
vt 0.796262 0.720254
vt 0.869156 0.793148
vt 0.796262 0.793148
vt 0.869156 0.866042
vt 0.796262 0.866042
vt 0.869156 0.938937
vt 0.796262 0.938937
vt 0.942050 0.647360
vt 0.942050 0.720254
vt 0.723368 0.647360
vt 0.723368 0.720254
vn 0.000000 0.000000 1.000000
vn 0.000000 0.000000 1.000000
vn 0.000000 0.000000 1.000000
vn 0.000000 0.000000 1.000000
vn 0.000000 1.000000 0.000000
vn 0.000000 1.000000 0.000000
vn 0.000000 1.000000 0.000000
vn 0.000000 1.000000 0.000000
vn 0.000000 0.000000 -1.000000
vn 0.000000 0.000000 -1.000000
vn 0.000000 0.000000 -1.000000
vn 0.000000 0.000000 -1.000000
vn 0.000000 -1.000000 0.000000
vn 0.000000 -1.000000 0.000000
vn 0.000000 -1.000000 0.000000
vn 0.000000 -1.000000 0.000000
vn 1.000000 0.000000 0.000000
vn 1.000000 0.000000 0.000000
vn 1.000000 0.000000 0.000000
vn 1.000000 0.000000 0.000000
vn -1.000000 0.000000 0.000000
vn -1.000000 0.000000 0.000000
vn -1.000000 0.000000 0.000000
vn -1.000000 0.000000 0.000000
vn 0.000000 0.000000 1.000000
vn 0.000000 0.000000 1.000000
vn 0.000000 0.000000 1.000000
vn 0.000000 0.000000 1.000000
vn 0.000000 1.000000 0.000000
vn 0.000000 1.000000 0.000000
vn 0.000000 1.000000 0.000000
vn 0.000000 1.000000 0.000000
vn 0.000000 0.000000 -1.000000
vn 0.000000 0.000000 -1.000000
vn 0.000000 0.000000 -1.000000
vn 0.000000 0.000000 -1.000000
vn 0.000000 -1.000000 0.000000
vn 0.000000 -1.000000 0.000000
vn 0.000000 -1.000000 0.000000
vn 0.000000 -1.000000 0.000000
vn 1.000000 0.000000 0.000000
vn 1.000000 0.000000 0.000000
vn 1.000000 0.000000 0.000000
vn 1.000000 0.000000 0.000000
vn -1.000000 0.000000 0.000000
vn -1.000000 0.000000 0.000000
vn -1.000000 0.000000 0.000000
vn -1.000000 0.000000 0.000000
s off
usemtl initialShadingGroup
f 1/1/1 2/2/2 4/4/3 3/3/4
f 3/3/5 4/4/6 6/6/7 5/5/8
f 5/5/9 6/6/10 8/8/11 7/7/12
f 7/7/13 8/8/14 2/10/15 1/9/16
f 2/2/17 8/11/18 6/12/19 4/4/20
f 7/13/21 1/1/22 3/3/23 5/14/24
f 9/15/25 10/16/26 12/17/27 11/18/28
f 11/18/29 12/17/30 14/19/31 13/20/32
f 13/20/33 14/19/34 16/21/35 15/22/36
f 15/22/37 16/21/38 10/23/39 9/24/40
f 10/16/41 16/25/42 14/26/43 12/17/44
f 15/27/45 9/15/46 11/18/47 13/28/48
