# This file uses centimeters as units for non-parametric coordinates.

mtllib fridge_base_1.mtl
v -6.968790 0.000000 6.968790
v 6.968790 0.000000 6.968790
v -6.968790 1.679144 6.968790
v 6.968790 1.679144 6.968790
v -6.968790 1.679144 -6.968790
v 6.968790 1.679144 -6.968790
v -6.968790 0.000000 -6.968790
v 6.968790 0.000000 -6.968790
v -6.968790 1.119429 6.968790
v -6.968790 1.119429 -6.968790
v 6.968790 1.119429 -6.968790
v 6.968790 1.119429 6.968790
v -6.968790 0.559715 6.968790
v -6.968790 0.559715 -6.968790
v 6.968790 0.559715 -6.968790
v 6.968790 0.559715 6.968790
v -6.738402 0.839572 6.738402
v -6.738402 0.839572 -6.738402
v 6.738402 0.839572 -6.738402
v 6.738402 0.839572 6.738402
v -6.738402 1.399287 6.738402
v -6.738402 1.399287 -6.738402
v 6.738402 1.399287 -6.738402
v 6.738402 1.399287 6.738402
v -6.738402 0.279857 6.738402
v -6.738402 0.279857 -6.738402
v 6.738402 0.279857 -6.738402
v 6.738402 0.279857 6.738402
vt 0.119988 0.019708
vt 0.202961 0.019708
vt 0.119988 0.102682
vt 0.202961 0.102682
vt 0.119988 0.185655
vt 0.202961 0.185655
vt 0.119988 0.268629
vt 0.202961 0.268629
vt 0.119988 0.351602
vt 0.202961 0.351602
vt 0.285935 0.019708
vt 0.285935 0.102682
vt 0.037015 0.019708
vt 0.037015 0.102682
vt 0.119988 0.075024
vt 0.037015 0.075024
vt 0.119988 0.213313
vt 0.202961 0.213313
vt 0.285935 0.075024
vt 0.202961 0.075024
vt 0.119988 0.047366
vt 0.037015 0.047366
vt 0.119988 0.240971
vt 0.202961 0.240971
vt 0.285935 0.047366
vt 0.202961 0.047366
vt 0.119988 0.061195
vt 0.037015 0.061195
vt 0.119988 0.227142
vt 0.202961 0.227142
vt 0.285935 0.061195
vt 0.202961 0.061195
vt 0.119988 0.088853
vt 0.037015 0.088853
vt 0.119988 0.199484
vt 0.202961 0.199484
vt 0.285935 0.088853
vt 0.202961 0.088853
vt 0.119988 0.033537
vt 0.037015 0.033537
vt 0.119988 0.254800
vt 0.202961 0.254800
vt 0.285935 0.033537
vt 0.202961 0.033537
vn 0.000000 0.635571 0.772042
vn 0.000000 0.635571 0.772042
vn 0.000000 -0.000000 1.000000
vn 0.000000 -0.000000 1.000000
vn 0.000000 0.000000 -1.000000
vn 0.000000 0.000000 -1.000000
vn 0.000000 0.635571 -0.772042
vn 0.000000 0.635571 -0.772042
vn 0.000000 -1.000000 0.000000
vn 0.000000 -1.000000 0.000000
vn 0.000000 -1.000000 0.000000
vn 0.000000 -1.000000 0.000000
vn 0.772043 0.635571 0.000000
vn 0.772043 0.635571 0.000000
vn 1.000000 0.000000 0.000000
vn 1.000000 0.000000 0.000000
vn -0.772043 0.635571 0.000000
vn -0.772043 0.635571 0.000000
vn -1.000000 0.000000 0.000000
vn -1.000000 0.000000 0.000000
vn -1.000000 -0.000000 0.000000
vn -1.000000 -0.000000 0.000000
vn -1.000000 0.000000 0.000000
vn -1.000000 0.000000 0.000000
vn 0.000000 0.000000 -1.000000
vn 0.000000 0.000000 -1.000000
vn 0.000000 -0.000000 -1.000000
vn 0.000000 -0.000000 -1.000000
vn 1.000000 -0.000000 0.000000
vn 1.000000 -0.000000 0.000000
vn 1.000000 0.000000 0.000000
vn 1.000000 0.000000 0.000000
vn 0.000000 -0.000000 1.000000
vn 0.000000 -0.000000 1.000000
vn 0.000000 -0.000000 1.000000
vn 0.000000 -0.000000 1.000000
vn -1.000000 0.000000 0.000000
vn -1.000000 0.000000 0.000000
vn -1.000000 0.000000 0.000000
vn -1.000000 0.000000 0.000000
vn 0.000000 0.000000 -1.000000
vn 0.000000 0.000000 -1.000000
vn 0.000000 0.000000 -1.000000
vn 0.000000 0.000000 -1.000000
vn 1.000000 0.000000 0.000000
vn 1.000000 0.000000 0.000000
vn 1.000000 0.000000 0.000000
vn 1.000000 0.000000 0.000000
vn 0.000000 -0.000000 1.000000
vn 0.000000 -0.000000 1.000000
vn 0.000000 0.000000 1.000000
vn 0.000000 0.000000 1.000000
vn -0.772043 -0.635571 0.000000
vn -0.772043 -0.635571 0.000000
vn 0.000000 -0.635571 -0.772042
vn 0.000000 -0.635571 -0.772042
vn 0.772043 -0.635571 0.000000
vn 0.772043 -0.635571 0.000000
vn 0.000000 -0.635571 0.772042
vn 0.000000 -0.635571 0.772042
vn 0.000000 1.000000 0.000000
vn 0.000000 1.000000 0.000000
vn 0.000000 1.000000 0.000000
vn 0.000000 1.000000 0.000000
s 1
usemtl initialShadingGroup
f 1/1/1 2/2/2 28/44/3 25/39/4
s 2
f 26/41/5 27/42/6 8/8/7 7/7/8
s off
f 7/7/9 8/8/10 2/10/11 1/9/12
s 3
f 2/2/13 8/11/14 27/43/15 28/44/16
s 4
f 7/13/17 1/1/18 25/39/19 26/40/20
f 10/16/21 9/15/22 21/33/23 22/34/24
s 2
f 22/35/25 23/36/26 11/18/27 10/17/28
s 3
f 12/20/29 11/19/30 23/37/31 24/38/32
s 1
f 9/15/33 12/20/34 24/38/35 21/33/36
s 4
f 14/22/37 13/21/38 17/27/39 18/28/40
s 2
f 18/29/41 19/30/42 15/24/43 14/23/44
s 3
f 16/26/45 15/25/46 19/31/47 20/32/48
s 1
f 13/21/49 16/26/50 20/32/51 17/27/52
s 4
f 18/28/40 17/27/39 9/15/22 10/16/21
s 2
f 10/17/28 11/18/27 19/30/42 18/29/41
s 3
f 20/32/48 19/31/47 11/19/30 12/20/29
s 1
f 17/27/52 20/32/51 12/20/34 9/15/33
s 4
f 22/34/24 21/33/23 3/3/53 5/14/54
s 2
f 5/5/55 6/6/56 23/36/26 22/35/25
s 3
f 24/38/32 23/37/31 6/12/57 4/4/58
s 1
f 21/33/36 24/38/35 4/4/59 3/3/60
s 4
f 26/40/20 25/39/19 13/21/38 14/22/37
s 2
f 14/23/44 15/24/43 27/42/6 26/41/5
s 3
f 28/44/16 27/43/15 15/25/46 16/26/45
s 1
f 25/39/4 28/44/3 16/26/50 13/21/49
s off
f 4/4/61 6/6/62 5/14/63 3/3/64
