# This file uses centimeters as units for non-parametric coordinates.

mtllib headboard_2.mtl
v -10.698593 0.000000 0.253190
v 10.698593 0.000000 0.253190
v -10.698593 7.934496 0.253190
v 10.698593 7.934496 0.253190
v -10.698593 7.934496 -0.170501
v 10.698593 7.934496 -0.170501
v -10.698593 0.000000 -0.170501
v 10.698593 0.000000 -0.170501
v 10.065557 7.934496 0.253190
v 10.065557 7.934496 -0.170501
v 10.065557 0.000000 -0.170501
v 10.065557 0.000000 0.253190
v -10.065559 7.934496 0.253190
v -10.065559 7.934496 -0.170501
v -10.065559 0.000000 -0.170501
v -10.065559 0.000000 0.253190
v -10.065559 0.000000 0.398985
v -10.065559 7.934496 0.398985
v -10.698593 7.934496 0.398985
v -10.698593 0.000000 0.398985
v -10.698593 0.000000 -0.316296
v -10.065559 0.000000 -0.316296
v -10.698593 7.934496 -0.316296
v -10.065559 7.934496 -0.316296
v 10.065557 0.000000 -0.316296
v 10.698593 0.000000 -0.316296
v 10.065557 7.934496 -0.316296
v 10.698593 7.934496 -0.316296
v 10.065557 7.934496 0.398985
v 10.698593 7.934496 0.398985
v 10.065557 0.000000 0.398985
v 10.698593 0.000000 0.398985
v -10.698593 8.134106 -0.170501
v -10.065559 8.134106 -0.170501
v -10.698593 8.134106 0.253190
v -10.065559 8.134106 0.253190
v -10.698593 8.134106 0.398985
v -10.065559 8.134106 0.398985
v -10.065559 8.134106 -0.316296
v -10.698593 8.134106 -0.316296
v 10.065557 8.134106 -0.170501
v 10.698593 8.134106 -0.170501
v 10.065557 8.134106 0.253190
v 10.698593 8.134106 0.253190
v 10.698593 8.134106 -0.316296
v 10.065557 8.134106 -0.316296
v 10.065557 8.134106 0.398985
v 10.698593 8.134106 0.398985
vt 0.448705 0.060310
vt 0.448705 0.154728
vt 0.448705 0.154728
vt 0.448705 0.060310
vt 0.525769 0.157103
vt 0.525769 0.157103
vt 0.468434 0.157103
vt 0.468434 0.157103
vt 0.545498 0.060310
vt 0.545498 0.060310
vt 0.545498 0.154728
vt 0.545498 0.154728
vt 0.107437 0.097401
vt 0.107437 0.117019
vt 0.107437 0.136637
vt 0.107437 0.077782
vt 0.100898 0.097401
vt 0.100898 0.117019
vt 0.100898 0.136637
vt 0.100898 0.077782
vt 0.468434 0.060310
vt 0.525769 0.060310
vt 0.525769 0.154728
vt 0.468434 0.154728
vt 0.525769 0.060310
vt 0.468434 0.060310
vt 0.468434 0.154728
vt 0.525769 0.154728
vt 0.525769 0.157103
vt 0.525769 0.157103
vt 0.468434 0.157103
vt 0.468434 0.157103
vt 0.545498 0.060310
vt 0.545498 0.060310
vt 0.545498 0.154728
vt 0.545498 0.154728
vt 0.448705 0.154728
vt 0.448705 0.154728
vt 0.448705 0.060310
vt 0.448705 0.060310
vt 0.468434 0.060310
vt 0.468434 0.154728
vt 0.448705 0.157103
vt 0.448705 0.157103
vt 0.525769 0.060310
vt 0.545498 0.157103
vt 0.545498 0.157103
vt 0.525769 0.154728
vt 0.525769 0.060310
vt 0.525769 0.154728
vt 0.545498 0.157103
vt 0.545498 0.157103
vt 0.448705 0.157103
vt 0.448705 0.157103
vt 0.468434 0.154728
vt 0.468434 0.060310
vn 0.000000 0.000000 1.000000
vn 0.000000 0.000000 1.000000
vn 0.000000 0.000000 1.000000
vn 0.000000 0.000000 1.000000
vn 0.000000 1.000000 0.000000
vn 0.000000 1.000000 0.000000
vn 0.000000 1.000000 0.000000
vn 0.000000 1.000000 0.000000
vn 0.000000 0.000000 -1.000000
vn 0.000000 0.000000 -1.000000
vn 0.000000 0.000000 -1.000000
vn 0.000000 0.000000 -1.000000
vn 1.000000 0.000000 0.000000
vn 1.000000 0.000000 0.000000
vn 1.000000 0.000000 0.000000
vn 1.000000 0.000000 0.000000
vn -1.000000 0.000000 0.000000
vn -1.000000 0.000000 0.000000
vn -1.000000 0.000000 0.000000
vn -1.000000 0.000000 0.000000
vn 0.000000 1.000000 0.000000
vn 0.000000 1.000000 0.000000
vn 0.000000 1.000000 0.000000
vn 0.000000 1.000000 0.000000
vn 0.000000 0.000000 -1.000000
vn 0.000000 0.000000 -1.000000
vn 0.000000 0.000000 -1.000000
vn 0.000000 0.000000 -1.000000
vn 0.000000 0.000000 1.000000
vn 0.000000 0.000000 1.000000
vn 0.000000 0.000000 1.000000
vn 0.000000 0.000000 1.000000
vn 0.000000 1.000000 0.000000
vn 0.000000 1.000000 0.000000
vn 0.000000 1.000000 0.000000
vn 0.000000 1.000000 0.000000
vn 0.000000 0.000000 -1.000000
vn 0.000000 0.000000 -1.000000
vn 0.000000 0.000000 -1.000000
vn 0.000000 0.000000 -1.000000
vn 0.000000 0.000000 1.000000
vn 0.000000 0.000000 1.000000
vn 0.000000 0.000000 1.000000
vn 0.000000 0.000000 1.000000
vn 1.000000 0.000000 0.000000
vn 1.000000 0.000000 0.000000
vn 1.000000 0.000000 0.000000
vn 1.000000 0.000000 0.000000
vn 0.000000 1.000000 0.000000
vn 0.000000 1.000000 0.000000
vn -1.000000 0.000000 0.000000
vn -1.000000 0.000000 0.000000
vn 0.000000 -1.000000 0.000000
vn 0.000000 -1.000000 0.000000
vn 0.000000 -1.000000 0.000000
vn 0.000000 -1.000000 0.000000
vn 0.000000 -1.000000 0.000000
vn 0.000000 -1.000000 0.000000
vn 0.000000 -1.000000 0.000000
vn 0.000000 -1.000000 0.000000
vn -1.000000 0.000000 0.000000
vn -1.000000 0.000000 0.000000
vn 0.000000 1.000000 0.000000
vn 0.000000 1.000000 0.000000
vn 1.000000 0.000000 0.000000
vn 1.000000 0.000000 0.000000
vn 1.000000 0.000000 0.000000
vn 1.000000 0.000000 0.000000
vn 0.000000 -1.000000 0.000000
vn 0.000000 -1.000000 0.000000
vn 0.000000 -1.000000 0.000000
vn 0.000000 -1.000000 0.000000
vn -1.000000 0.000000 0.000000
vn -1.000000 0.000000 0.000000
vn -1.000000 0.000000 0.000000
vn -1.000000 0.000000 0.000000
vn 0.000000 1.000000 0.000000
vn 0.000000 1.000000 0.000000
vn 1.000000 0.000000 0.000000
vn 1.000000 0.000000 0.000000
vn 0.000000 1.000000 0.000000
vn 0.000000 1.000000 0.000000
vn -1.000000 0.000000 0.000000
vn -1.000000 0.000000 0.000000
vn -1.000000 0.000000 0.000000
vn -1.000000 0.000000 0.000000
vn 0.000000 -1.000000 0.000000
vn 0.000000 -1.000000 0.000000
vn 0.000000 -1.000000 0.000000
vn 0.000000 -1.000000 0.000000
vn 1.000000 0.000000 0.000000
vn 1.000000 0.000000 0.000000
vn -1.000000 0.000000 0.000000
vn -1.000000 0.000000 0.000000
vn 1.000000 0.000000 0.000000
vn 1.000000 0.000000 0.000000
vn -1.000000 0.000000 0.000000
vn 0.000000 0.000000 1.000000
vn 0.000000 0.000000 1.000000
vn 1.000000 0.000000 0.000000
vn 1.000000 0.000000 0.000000
vn 0.000000 0.000000 -1.000000
vn 0.000000 0.000000 -1.000000
vn -1.000000 0.000000 0.000000
vn -1.000000 0.000000 0.000000
vn -1.000000 0.000000 0.000000
vn 1.000000 0.000000 0.000000
vn 1.000000 0.000000 0.000000
vn 1.000000 0.000000 0.000000
vn 0.000000 0.000000 -1.000000
vn 0.000000 0.000000 -1.000000
vn -1.000000 0.000000 0.000000
vn -1.000000 0.000000 0.000000
vn 0.000000 0.000000 1.000000
vn 0.000000 0.000000 1.000000
vn 1.000000 0.000000 0.000000
s 1
usemtl initialShadingGroup
f 17/1/1 18/2/2 19/3/3 20/4/4
s 2
f 34/5/5 33/6/6 35/7/7 36/8/8
s 3
f 22/9/9 21/10/10 23/11/11 24/12/12
s 4
f 2/21/13 8/22/14 6/23/15 4/24/16
s 5
f 7/25/17 1/26/18 3/27/19 5/28/20
s 6
f 42/29/21 41/30/22 43/31/23 44/32/24
s 7
f 26/33/25 25/34/26 27/35/27 28/36/28
s 8
f 30/37/29 29/38/30 31/39/31 32/40/32
s off
f 10/14/33 14/18/34 13/17/35 9/13/36
f 11/15/37 15/19/38 14/18/39 10/14/40
f 12/16/41 9/13/42 13/17/43 16/20/44
s 9
f 16/41/45 13/42/46 18/2/47 17/1/48
s 2
f 36/8/8 35/7/7 37/43/49 38/44/50
s 5
f 3/27/19 1/26/18 20/4/51 19/3/52
s off
f 1/26/53 16/41/54 17/1/55 20/4/56
f 15/45/57 7/25/58 21/10/59 22/9/60
s 5
f 7/25/17 5/28/20 23/11/61 21/10/62
s 2
f 33/6/6 34/5/5 39/46/63 40/47/64
s 9
f 14/48/65 15/45/66 22/9/67 24/12/68
s off
f 8/22/69 11/49/70 25/34/71 26/33/72
s 11
f 11/49/73 10/50/74 27/35/75 25/34/76
s 6
f 41/30/22 42/29/21 45/51/77 46/52/78
s 4
f 6/23/15 8/22/14 26/33/79 28/36/80
s 6
f 44/32/24 43/31/23 47/53/81 48/54/82
s 11
f 9/55/83 12/56/84 31/39/85 29/38/86
s off
f 12/56/87 2/21/88 32/40/89 31/39/90
s 4
f 2/21/13 4/24/16 30/37/91 32/40/92
s 5
f 5/28/20 3/27/19 35/7/93 33/6/94
s 9
f 13/42/46 14/48/65 34/5/95 36/8/96
s 5
f 3/27/19 19/3/52 37/43/97 35/7/93
s 1
f 19/3/3 18/2/2 38/44/98 37/43/99
s 9
f 18/2/47 13/42/46 36/8/96 38/44/100
f 14/48/65 24/12/68 39/46/101 34/5/95
s 3
f 24/12/12 23/11/11 40/47/102 39/46/103
s 5
f 23/11/61 5/28/20 33/6/94 40/47/104
s 11
f 10/50/74 9/55/83 43/31/105 41/30/106
s 4
f 4/24/16 6/23/15 42/29/107 44/32/108
f 6/23/15 28/36/80 45/51/109 42/29/107
s 7
f 28/36/28 27/35/27 46/52/110 45/51/111
s 11
f 27/35/75 10/50/74 41/30/106 46/52/112
f 9/55/83 29/38/86 47/53/113 43/31/105
s 8
f 29/38/30 30/37/29 48/54/114 47/53/115
s 4
f 30/37/91 4/24/16 44/32/108 48/54/116
