# This file uses centimeters as units for non-parametric coordinates.

mtllib headboard_1.mtl
v -10.698593 0.000000 0.253190
v 10.698593 0.000000 0.253190
v -10.698593 7.934496 0.253190
v 10.698593 7.934496 0.253190
v -10.698593 7.934496 -0.170501
v 10.698593 7.934496 -0.170501
v -10.698593 0.000000 -0.170501
v 10.698593 0.000000 -0.170501
vt 0.094358 0.077782
vt 0.113976 0.077782
vt 0.094358 0.097401
vt 0.113976 0.097401
vt 0.094358 0.117019
vt 0.113976 0.117019
vt 0.094358 0.136637
vt 0.113976 0.136637
vt 0.094358 0.156256
vt 0.113976 0.156256
vt 0.133595 0.077782
vt 0.133595 0.097401
vt 0.074740 0.077782
vt 0.074740 0.097401
vn 0.000000 0.000000 1.000000
vn 0.000000 0.000000 1.000000
vn 0.000000 0.000000 1.000000
vn 0.000000 0.000000 1.000000
vn 0.000000 1.000000 0.000000
vn 0.000000 1.000000 0.000000
vn 0.000000 1.000000 0.000000
vn 0.000000 1.000000 0.000000
vn 0.000000 0.000000 -1.000000
vn 0.000000 0.000000 -1.000000
vn 0.000000 0.000000 -1.000000
vn 0.000000 0.000000 -1.000000
vn 0.000000 -1.000000 0.000000
vn 0.000000 -1.000000 0.000000
vn 0.000000 -1.000000 0.000000
vn 0.000000 -1.000000 0.000000
vn 1.000000 0.000000 0.000000
vn 1.000000 0.000000 0.000000
vn 1.000000 0.000000 0.000000
vn 1.000000 0.000000 0.000000
vn -1.000000 0.000000 0.000000
vn -1.000000 0.000000 0.000000
vn -1.000000 0.000000 0.000000
vn -1.000000 0.000000 0.000000
s off
usemtl initialShadingGroup
f 4/4/1 3/3/2 1/1/3 2/2/4
f 6/6/5 5/5/6 3/3/7 4/4/8
f 8/8/9 7/7/10 5/5/11 6/6/12
f 2/10/13 1/9/14 7/7/15 8/8/16
f 2/2/17 8/11/18 6/12/19 4/4/20
f 7/13/21 1/1/22 3/3/23 5/14/24
