# This file uses centimeters as units for non-parametric coordinates.

mtllib kitchen_counter_top_2.mtl
v -6.816976 0.000000 6.892422
v 6.816976 0.000000 6.892422
v 6.816976 0.467017 6.892422
v -6.816976 0.467017 6.892422
v -6.816976 0.000000 -6.892422
v -6.816976 0.467017 -6.892422
v 6.816976 0.000000 -6.892422
v 6.816976 0.467017 -6.892422
v -6.816976 -0.039655 7.024538
v 6.816976 -0.039655 7.024538
v 6.816976 0.350168 7.281720
v -6.816976 0.350168 7.281720
v -6.816976 -0.132334 7.106861
v 6.816976 -0.132334 7.106861
v 6.816976 0.077077 7.524296
v -6.816976 0.077077 7.524296
v -6.816976 -0.244958 7.132278
v 6.816976 -0.244958 7.132278
v 6.816976 -0.254786 7.599192
v -6.816976 -0.254786 7.599192
v -6.816976 -0.244958 7.132278
v 6.816976 -0.244958 7.132278
v 6.816976 -0.254786 7.599192
v -6.816976 -0.254786 7.599192
vt 0.482212 0.063069
vt 0.510470 0.063069
vt 0.510470 0.091327
vt 0.482212 0.091327
vt 0.453955 0.063069
vt 0.482212 0.063069
vt 0.482212 0.091327
vt 0.453955 0.091327
vt 0.510470 0.063069
vt 0.538728 0.063069
vt 0.538728 0.091327
vt 0.510470 0.091327
vt 0.510470 0.119585
vt 0.482212 0.119585
vt 0.510470 0.147842
vt 0.482212 0.147842
vt 0.510470 0.063069
vt 0.482212 0.063069
vt 0.510470 0.091327
vt 0.482212 0.091327
vt 0.510470 0.063069
vt 0.482212 0.063069
vt 0.510470 0.091327
vt 0.482212 0.091327
vt 0.510470 0.063069
vt 0.482212 0.063069
vt 0.510470 0.091327
vt 0.482212 0.091327
vn 0.000000 -0.999779 -0.021045
vn 0.000000 -0.999779 -0.021045
vn 0.000000 -0.999779 -0.021045
vn 0.000000 -0.999779 -0.021045
vn -1.000000 0.000000 0.000000
vn -1.000000 0.000000 0.000000
vn -1.000000 0.000000 0.000000
vn -1.000000 0.000000 0.000000
vn 1.000000 0.000000 0.000000
vn 1.000000 0.000000 0.000000
vn 1.000000 0.000000 0.000000
vn 1.000000 0.000000 0.000000
vn 0.000000 1.000000 0.000000
vn 0.000000 1.000000 0.000000
vn 0.000000 1.000000 0.000000
vn 0.000000 1.000000 0.000000
vn 0.000000 0.000000 -1.000000
vn 0.000000 0.000000 -1.000000
vn 0.000000 0.000000 -1.000000
vn 0.000000 0.000000 -1.000000
vn 0.000000 -0.957787 -0.287480
vn 0.000000 -0.957787 -0.287480
vn 0.000000 -0.957787 -0.287480
vn 0.000000 -0.957787 -0.287480
vn 1.000000 0.000000 0.000000
vn 1.000000 0.000000 0.000000
vn 1.000000 0.000000 0.000000
vn 1.000000 0.000000 0.000000
vn 0.000000 0.957786 0.287482
vn 0.000000 0.957786 0.287482
vn 0.000000 0.957786 0.287482
vn 0.000000 0.957786 0.287482
vn -1.000000 0.000000 0.000000
vn -1.000000 0.000000 0.000000
vn -1.000000 0.000000 0.000000
vn -1.000000 0.000000 0.000000
vn 0.000000 -0.664097 -0.747646
vn 0.000000 -0.664097 -0.747646
vn 0.000000 -0.664097 -0.747646
vn 0.000000 -0.664097 -0.747646
vn 1.000000 0.000002 0.000000
vn 1.000000 0.000002 0.000000
vn 1.000000 0.000002 0.000000
vn 1.000000 0.000002 0.000000
vn 0.000000 0.664101 0.747643
vn 0.000000 0.664101 0.747643
vn 0.000000 0.664101 0.747643
vn 0.000000 0.664101 0.747643
vn -1.000000 0.000001 0.000000
vn -1.000000 0.000001 0.000000
vn -1.000000 0.000001 0.000000
vn -1.000000 0.000001 0.000000
vn 0.000000 -0.220147 -0.975467
vn 0.000000 -0.220147 -0.975467
vn 0.000000 -0.220147 -0.975467
vn 0.000000 -0.220147 -0.975467
vn 1.000000 0.000000 0.000000
vn 1.000000 0.000000 0.000000
vn 1.000000 0.000000 0.000000
vn 1.000000 0.000000 0.000000
vn 0.000000 0.220146 0.975467
vn 0.000000 0.220146 0.975467
vn 0.000000 0.220146 0.975467
vn 0.000000 0.220146 0.975467
vn -1.000000 -0.000001 0.000000
vn -1.000000 -0.000001 0.000000
vn -1.000000 -0.000001 0.000000
vn -1.000000 -0.000001 0.000000
vn 0.000000 -1.000000 0.000000
vn 0.000000 -1.000000 0.000000
vn 0.000000 -1.000000 0.000000
vn 0.000000 -1.000000 0.000000
vn 0.000000 0.000000 0.000000
vn 0.000000 0.000000 0.000000
vn 0.000000 0.000000 0.000000
vn 0.000000 0.000000 0.000000
vn 0.000000 0.000000 0.000000
vn 0.000000 0.000000 0.000000
vn 0.000000 0.000000 0.000000
vn 0.000000 0.000000 0.000000
vn 0.000000 0.000000 0.000000
vn 0.000000 0.000000 0.000000
vn 0.000000 0.000000 0.000000
vn 0.000000 0.000000 0.000000
vn 0.000000 0.000000 0.000000
vn 0.000000 0.000000 0.000000
vn 0.000000 0.000000 0.000000
vn 0.000000 0.000000 0.000000
s off
usemtl initialShadingGroup
f 21/1/1 22/2/2 23/3/3 24/4/4
f 5/5/5 1/6/6 4/7/7 6/8/8
f 2/9/9 7/10/10 8/11/11 3/12/12
f 4/7/13 3/12/14 8/13/15 6/14/16
f 6/14/17 8/13/18 7/15/19 5/16/20
f 1/6/21 2/9/22 10/17/23 9/18/24
f 2/9/25 3/12/26 11/19/27 10/17/28
f 3/12/29 4/7/30 12/20/31 11/19/32
f 4/7/33 1/6/34 9/18/35 12/20/36
f 9/18/37 10/17/38 14/21/39 13/22/40
f 10/17/41 11/19/42 15/23/43 14/21/44
f 11/19/45 12/20/46 16/24/47 15/23/48
f 12/20/49 9/18/50 13/22/51 16/24/52
f 13/22/53 14/21/54 18/25/55 17/26/56
f 14/21/57 15/23/58 19/27/59 18/25/60
f 15/23/61 16/24/62 20/28/63 19/27/64
f 16/24/65 13/22/66 17/26/67 20/28/68
f 2/9/69 1/6/70 5/16/71 7/10/72
f 17/26/73 18/25/74 22/2/75 21/1/76
f 18/25/77 19/27/78 23/3/79 22/2/80
f 19/27/81 20/28/82 24/4/83 23/3/84
f 20/28/85 17/26/86 21/1/87 24/4/88
