# This file uses centimeters as units for non-parametric coordinates.

mtllib kitchen_shelf_main_1.mtl
v -6.816976 -7.332751 5.109649
v 6.816976 -7.332751 5.109649
v -6.816976 -2.963483 5.109649
v 6.816976 -2.963483 5.109649
v -6.816976 -2.357952 5.109649
v 6.816976 -2.357952 5.109649
v -6.816976 1.915784 5.109649
v 6.816976 1.915784 5.109649
v -6.816976 2.498135 5.109649
v 6.816976 2.498135 5.109649
v -6.816976 7.332747 5.109649
v 6.816976 7.332747 5.109649
v -6.816976 7.332747 0.000000
v 6.816976 7.332747 0.000000
v -6.816976 2.498133 0.000000
v 6.816976 2.498133 0.000000
v -6.816976 1.915784 0.000000
v 6.816976 1.915784 0.000000
v -6.816976 -2.357952 0.000000
v 6.816976 -2.357952 0.000000
v -6.816976 -2.963483 0.000000
v 6.816976 -2.963483 0.000000
v -6.816976 -7.332751 0.000000
v 6.816976 -7.332751 0.000000
v -6.215022 -6.790451 5.109649
v 6.215022 -6.790451 5.109649
v 6.215022 -2.963483 5.109649
v -6.215022 -2.963483 5.109649
v 6.215022 -2.357952 5.109649
v -6.215022 -2.357952 5.109649
v 6.215022 1.915784 5.109649
v -6.215022 1.915784 5.109649
v 6.215022 2.498135 5.109649
v -6.215022 2.498135 5.109649
v 6.215022 6.790450 5.109649
v -6.215022 6.790450 5.109649
v -6.215022 -6.790451 0.604927
v 6.215022 -6.790451 0.604927
v 6.215022 -2.963483 0.604927
v -6.215022 -2.963483 0.604927
v -6.215022 -2.357952 0.604927
v 6.215022 -2.357952 0.604927
v 6.215022 1.915784 0.604927
v -6.215022 1.915784 0.604927
v -6.215022 2.498135 0.604927
v -6.215022 6.790450 0.604927
v 6.215022 2.498135 0.604927
v 6.215022 6.790450 0.604927
vt 0.201186 0.083560
vt 0.251042 0.083560
vt 0.201186 0.091869
vt 0.251042 0.091869
vt 0.201186 0.100178
vt 0.251042 0.100178
vt 0.201186 0.108488
vt 0.251042 0.108488
vt 0.201186 0.116797
vt 0.251042 0.116797
vt 0.201186 0.133416
vt 0.251042 0.133416
vt 0.201186 0.183272
vt 0.251042 0.183272
vt 0.201186 0.199890
vt 0.251042 0.199890
vt 0.201186 0.208200
vt 0.251042 0.208200
vt 0.201186 0.216509
vt 0.251042 0.216509
vt 0.201186 0.224818
vt 0.251042 0.224818
vt 0.201186 0.233128
vt 0.251042 0.233128
vt 0.201186 0.282984
vt 0.251042 0.282984
vt 0.300898 0.083560
vt 0.300898 0.091869
vt 0.300898 0.100178
vt 0.300898 0.108488
vt 0.300898 0.116797
vt 0.300898 0.133416
vt 0.151330 0.083560
vt 0.151330 0.091869
vt 0.151330 0.100178
vt 0.151330 0.108488
vt 0.151330 0.116797
vt 0.151330 0.133416
vt 0.201186 0.083560
vt 0.251042 0.083560
vt 0.251042 0.091869
vt 0.201186 0.091869
vt 0.251042 0.100178
vt 0.201186 0.100178
vt 0.251042 0.108488
vt 0.201186 0.108488
vt 0.251042 0.116797
vt 0.201186 0.116797
vt 0.251042 0.133416
vt 0.201186 0.133416
vt 0.201186 0.083560
vt 0.251042 0.083560
vt 0.251042 0.091869
vt 0.201186 0.091869
vt 0.201186 0.100178
vt 0.251042 0.100178
vt 0.251042 0.108488
vt 0.201186 0.108488
vt 0.201186 0.133416
vt 0.201186 0.116797
vt 0.251042 0.116797
vt 0.251042 0.133416
vn 0.000000 0.000000 1.000000
vn 0.000000 0.000000 1.000000
vn 0.000000 0.000000 1.000000
vn 0.000000 0.000000 1.000000
vn 0.000000 0.000000 1.000000
vn 0.000000 0.000000 1.000000
vn 0.000000 0.000000 1.000000
vn 0.000000 0.000000 1.000000
vn 0.000000 0.000000 1.000000
vn 0.000000 0.000000 1.000000
vn 0.000000 0.000000 1.000000
vn 0.000000 0.000000 1.000000
vn 0.000000 0.000000 1.000000
vn 0.000000 0.000000 1.000000
vn 0.000000 0.000000 1.000000
vn 0.000000 0.000000 1.000000
vn 0.000000 0.000000 1.000000
vn 0.000000 0.000000 1.000000
vn 0.000000 0.000000 1.000000
vn 0.000000 0.000000 1.000000
vn 0.000000 1.000000 0.000000
vn 0.000000 1.000000 0.000000
vn 0.000000 1.000000 0.000000
vn 0.000000 1.000000 0.000000
vn 0.000000 0.000000 -1.000000
vn 0.000000 0.000000 -1.000000
vn 0.000000 0.000000 -1.000000
vn 0.000000 0.000000 -1.000000
vn 0.000000 0.000000 -1.000000
vn 0.000000 0.000000 -1.000000
vn 0.000000 0.000000 -1.000000
vn 0.000000 0.000000 -1.000000
vn 0.000000 0.000000 -1.000000
vn 0.000000 0.000000 -1.000000
vn 0.000000 0.000000 -1.000000
vn 0.000000 0.000000 -1.000000
vn 0.000000 -1.000000 0.000000
vn 0.000000 -1.000000 0.000000
vn 0.000000 -1.000000 0.000000
vn 0.000000 -1.000000 0.000000
vn 1.000000 0.000000 0.000000
vn 1.000000 0.000000 0.000000
vn 1.000000 0.000000 0.000000
vn 1.000000 0.000000 0.000000
vn 1.000000 0.000000 0.000000
vn 1.000000 0.000000 0.000000
vn 1.000000 0.000000 0.000000
vn 1.000000 0.000000 0.000000
vn 1.000000 0.000000 0.000000
vn 1.000000 0.000000 0.000000
vn 1.000000 0.000000 0.000000
vn 1.000000 0.000000 0.000000
vn -1.000000 0.000000 0.000000
vn -1.000000 0.000000 0.000000
vn -1.000000 0.000000 0.000000
vn -1.000000 0.000000 0.000000
vn -1.000000 0.000000 0.000000
vn -1.000000 0.000000 0.000000
vn -1.000000 0.000000 0.000000
vn -1.000000 0.000000 0.000000
vn -1.000000 0.000000 0.000000
vn -1.000000 0.000000 0.000000
vn -1.000000 0.000000 0.000000
vn -1.000000 0.000000 0.000000
vn 0.000000 0.000000 1.000000
vn 0.000000 0.000000 1.000000
vn 0.000000 0.000000 1.000000
vn 0.000000 0.000000 1.000000
vn 0.000000 0.000000 1.000000
vn 0.000000 0.000000 1.000000
vn 0.000000 0.000000 1.000000
vn 0.000000 0.000000 1.000000
vn 0.000000 0.000000 1.000000
vn 0.000000 0.000000 1.000000
vn 0.000000 0.000000 1.000000
vn 0.000000 0.000000 1.000000
vn 0.000000 0.000000 1.000000
vn 0.000000 0.000000 1.000000
vn 0.000000 0.000000 1.000000
vn 0.000000 0.000000 1.000000
vn 0.000000 1.000000 0.000000
vn 0.000000 1.000000 0.000000
vn 0.000000 1.000000 0.000000
vn 0.000000 1.000000 0.000000
vn -1.000000 0.000000 0.000000
vn -1.000000 0.000000 0.000000
vn -1.000000 0.000000 0.000000
vn -1.000000 0.000000 0.000000
vn 0.000000 -1.000000 0.000000
vn 0.000000 -1.000000 0.000000
vn 0.000000 -1.000000 0.000000
vn 0.000000 -1.000000 0.000000
vn 1.000000 0.000000 0.000000
vn 1.000000 0.000000 0.000000
vn 1.000000 0.000000 0.000000
vn 1.000000 0.000000 0.000000
vn 0.000000 1.000000 0.000000
vn 0.000000 1.000000 0.000000
vn 0.000000 1.000000 0.000000
vn 0.000000 1.000000 0.000000
vn -1.000000 0.000000 0.000000
vn -1.000000 0.000000 0.000000
vn -1.000000 0.000000 0.000000
vn -1.000000 0.000000 0.000000
vn 0.000000 -1.000000 0.000000
vn 0.000000 -1.000000 0.000000
vn 0.000000 -1.000000 0.000000
vn 0.000000 -1.000000 0.000000
vn 1.000000 0.000000 0.000000
vn 1.000000 0.000000 0.000000
vn 1.000000 0.000000 0.000000
vn 1.000000 0.000000 0.000000
vn 1.000000 0.000000 0.000000
vn 1.000000 0.000000 0.000000
vn 1.000000 0.000000 0.000000
vn 1.000000 0.000000 0.000000
vn 0.000000 1.000000 0.000000
vn 0.000000 1.000000 0.000000
vn 0.000000 1.000000 0.000000
vn 0.000000 1.000000 0.000000
vn -1.000000 0.000000 0.000000
vn -1.000000 0.000000 0.000000
vn -1.000000 0.000000 0.000000
vn -1.000000 0.000000 0.000000
vn 0.000000 -1.000000 0.000000
vn 0.000000 -1.000000 0.000000
vn 0.000000 -1.000000 0.000000
vn 0.000000 -1.000000 0.000000
s off
usemtl initialShadingGroup
f 37/51/1 38/52/2 39/53/3 40/54/4
s 1
f 28/42/5 27/41/6 29/43/7 30/44/8
s off
f 41/55/9 42/56/10 43/57/11 44/58/12
s 1
f 32/46/13 31/45/14 33/47/15 34/48/16
s off
f 46/59/17 45/60/18 47/61/19 48/62/20
f 11/11/21 12/12/22 14/14/23 13/13/24
s 3
f 16/16/25 15/15/26 13/13/27 14/14/28
f 15/15/26 16/16/25 18/18/29 17/17/30
f 17/17/30 18/18/29 20/20/31 19/19/32
f 19/19/32 20/20/31 22/22/33 21/21/34
f 21/21/34 22/22/33 24/24/35 23/23/36
s off
f 23/23/37 24/24/38 2/26/39 1/25/40
s 4
f 2/2/41 24/27/42 22/28/43 4/4/44
f 4/4/44 22/28/43 20/29/45 6/6/46
f 6/6/46 20/29/45 18/30/47 8/8/48
f 8/8/48 18/30/47 16/31/49 10/10/50
f 10/10/50 16/31/49 14/32/51 12/12/52
s 5
f 23/33/53 1/1/54 3/3/55 21/34/56
f 21/34/56 3/3/55 5/5/57 19/35/58
f 19/35/58 5/5/57 7/7/59 17/36/60
f 17/36/60 7/7/59 9/9/61 15/37/62
f 15/37/62 9/9/61 11/11/63 13/38/64
s 1
f 1/1/65 2/2/66 26/40/67 25/39/68
f 2/2/66 4/4/69 27/41/6 26/40/67
f 3/3/70 1/1/65 25/39/68 28/42/5
f 4/4/69 6/6/71 29/43/7 27/41/6
f 5/5/72 3/3/70 28/42/5 30/44/8
f 6/6/71 8/8/73 31/45/14 29/43/7
f 7/7/74 5/5/72 30/44/8 32/46/13
f 8/8/73 10/10/75 33/47/15 31/45/14
f 9/9/76 7/7/74 32/46/13 34/48/16
f 33/47/15 10/10/75 12/12/77 35/49/78
f 9/9/76 34/48/16 36/50/79 11/11/80
f 12/12/77 11/11/80 36/50/79 35/49/78
s off
f 25/39/81 26/40/82 38/52/83 37/51/84
f 26/40/85 27/41/86 39/53/87 38/52/88
f 27/41/89 28/42/90 40/54/91 39/53/92
f 28/42/93 25/39/94 37/51/95 40/54/96
f 30/44/97 29/43/98 42/56/99 41/55/100
f 29/43/101 31/45/102 43/57/103 42/56/104
f 31/45/105 32/46/106 44/58/107 43/57/108
f 32/46/109 30/44/110 41/55/111 44/58/112
f 36/50/113 34/48/114 45/60/115 46/59/116
f 34/48/117 33/47/118 47/61/119 45/60/120
f 33/47/121 35/49/122 48/62/123 47/61/124
f 35/49/125 36/50/126 46/59/127 48/62/128
