# This file uses centimeters as units for non-parametric coordinates.

mtllib kitchen_shelf_base_1.mtl
v -0.500000 -9.997399 0.200691
v 0.500000 -9.997399 0.200691
v -0.500000 -9.997399 0.000000
v 0.500000 -9.997399 0.000000
v -0.753066 18.373650 0.254829
v 0.753066 18.373650 0.254829
v -0.753066 15.865614 0.254829
v 0.753066 15.865614 0.254829
vt 0.024862 0.047822
vt 0.065768 0.047822
vt 0.065768 0.047822
vt 0.024862 0.047822
vt 0.413399 0.969228
vt 0.413399 0.056162
vt 0.961716 0.056162
vt 0.961716 0.969228
vn 0.000000 1.000000 0.000000
vn 0.000000 1.000000 0.000000
vn 0.000000 1.000000 0.000000
vn 0.000000 1.000000 0.000000
vn 0.000000 0.000000 1.000000
vn 0.000000 0.000000 1.000000
vn 0.000000 0.000000 1.000000
vn 0.000000 0.000000 1.000000
s off
usemtl initialShadingGroup
f 1/1/1 2/2/2 4/3/3 3/4/4
f 5/5/5 7/6/6 8/7/7 6/8/8
