# This file uses centimeters as units for non-parametric coordinates.

mtllib kitchen_counter_base_1.mtl
v -6.816976 0.000000 6.816976
v 6.816976 0.000000 6.816976
v -6.816976 13.633951 6.816976
v 6.816976 13.633951 6.816976
v -6.816976 13.633951 -6.816976
v 6.816976 13.633951 -6.816976
v -6.816976 0.000000 -6.816976
v 6.816976 0.000000 -6.816976
vt 0.078748 0.057711
vt 0.131415 0.057711
vt 0.131415 0.110379
vt 0.078748 0.110379
vt 0.078748 0.057588
vt 0.131415 0.057588
vt 0.131415 0.110256
vt 0.078748 0.110256
vt 0.131415 0.162924
vt 0.078748 0.162924
vt 0.184083 0.057711
vt 0.184083 0.110379
vt 0.026080 0.057711
vt 0.026080 0.110379
vn 0.000000 0.000000 1.000000
vn 0.000000 0.000000 1.000000
vn 0.000000 0.000000 1.000000
vn 0.000000 0.000000 1.000000
vn 0.000000 0.000000 -1.000000
vn 0.000000 0.000000 -1.000000
vn 0.000000 0.000000 -1.000000
vn 0.000000 0.000000 -1.000000
vn 0.000000 -1.000000 0.000000
vn 0.000000 -1.000000 0.000000
vn 0.000000 -1.000000 0.000000
vn 0.000000 -1.000000 0.000000
vn 1.000000 0.000000 0.000000
vn 1.000000 0.000000 0.000000
vn 1.000000 0.000000 0.000000
vn 1.000000 0.000000 0.000000
vn -1.000000 0.000000 0.000000
vn -1.000000 0.000000 0.000000
vn -1.000000 0.000000 0.000000
vn -1.000000 0.000000 0.000000
s off
usemtl initialShadingGroup
f 1/1/1 2/2/2 4/3/3 3/4/4
f 5/5/5 6/6/6 8/7/7 7/8/8
f 7/8/9 8/7/10 2/9/11 1/10/12
f 2/2/13 8/11/14 6/12/15 4/3/16
f 7/13/17 1/1/18 3/4/19 5/14/20
