# This file uses centimeters as units for non-parametric coordinates.

mtllib kitchen_stove_base_1.mtl
v -6.704837 0.000000 4.771883
v 6.704837 0.000000 4.771883
v -6.704837 9.543766 4.771883
v 6.704837 9.543766 4.771883
v -6.704837 9.543766 -4.771883
v 6.704837 9.543766 -4.771883
v -6.704837 0.000000 -4.771883
v 6.704837 0.000000 -4.771883
vt 0.128520 0.099842
vt 0.073023 0.099842
vt 0.073023 0.044345
vt 0.128520 0.044345
vt 0.073023 0.099712
vt 0.073023 0.044216
vt 0.128520 0.044216
vt 0.128520 0.099712
vt 0.128520 0.155209
vt 0.073023 0.155209
vt 0.184016 0.099842
vt 0.184016 0.044345
vt 0.017527 0.099842
vt 0.017527 0.044345
vn 0.000000 0.000000 1.000000
vn 0.000000 0.000000 1.000000
vn 0.000000 0.000000 1.000000
vn 0.000000 0.000000 1.000000
vn 0.000000 0.000000 -1.000000
vn 0.000000 0.000000 -1.000000
vn 0.000000 0.000000 -1.000000
vn 0.000000 0.000000 -1.000000
vn 0.000000 -1.000000 0.000000
vn 0.000000 -1.000000 0.000000
vn 0.000000 -1.000000 0.000000
vn 0.000000 -1.000000 0.000000
vn 1.000000 0.000000 0.000000
vn 1.000000 0.000000 0.000000
vn 1.000000 0.000000 0.000000
vn 1.000000 0.000000 0.000000
vn -1.000000 0.000000 0.000000
vn -1.000000 0.000000 0.000000
vn -1.000000 0.000000 0.000000
vn -1.000000 0.000000 0.000000
s off
usemtl initialShadingGroup
f 4/1/1 3/2/2 1/3/3 2/4/4
f 7/5/5 5/6/6 6/7/7 8/8/8
f 2/9/9 1/10/10 7/5/11 8/8/12
f 6/11/13 4/1/14 2/4/15 8/12/16
f 1/3/17 3/2/18 5/13/19 7/14/20
