# This file uses centimeters as units for non-parametric coordinates.

mtllib kitchen_shelf_main_1.mtl
v -6.816976 6.367201 5.109649
v 6.816976 6.367201 5.109649
v -6.816976 10.736468 5.109649
v 6.816976 10.736468 5.109649
v -6.816976 11.341999 5.109649
v 6.816976 11.341999 5.109649
v -6.816976 15.615735 5.109649
v 6.816976 15.615735 5.109649
v -6.816976 16.198087 5.109649
v 6.816976 16.198087 5.109649
v -6.816976 21.032698 5.109649
v 6.816976 21.032698 5.109649
v -6.816976 21.032698 0.000000
v 6.816976 21.032698 0.000000
v -6.816976 16.198084 0.000000
v 6.816976 16.198084 0.000000
v -6.816976 15.615735 0.000000
v 6.816976 15.615735 0.000000
v -6.816976 11.341999 0.000000
v 6.816976 11.341999 0.000000
v -6.816976 10.736468 0.000000
v 6.816976 10.736468 0.000000
v -6.816976 6.367201 0.000000
v 6.816976 6.367201 0.000000
v -6.215022 6.909500 5.109649
v 6.215022 6.909500 5.109649
v 6.215022 10.736468 5.109649
v -6.215022 10.736468 5.109649
v 6.215022 11.341999 5.109649
v -6.215022 11.341999 5.109649
v 6.215022 15.615735 5.109649
v -6.215022 15.615735 5.109649
v 6.215022 16.198087 5.109649
v -6.215022 16.198087 5.109649
v 6.215022 20.490402 5.109649
v -6.215022 20.490402 5.109649
v -6.215022 6.909500 0.604927
v 6.215022 6.909500 0.604927
v 6.215022 10.736468 0.604927
v -6.215022 10.736468 0.604927
v -6.215022 11.341999 0.604927
v 6.215022 11.341999 0.604927
v 6.215022 15.615735 0.604927
v -6.215022 15.615735 0.604927
v -6.215022 16.198087 0.604927
v -6.215022 20.490402 0.604927
v 6.215022 16.198087 0.604927
v 6.215022 20.490402 0.604927
vt 0.085005 0.031295
vt 0.122802 0.031295
vt 0.122802 0.037594
vt 0.085005 0.037594
vt 0.085005 0.037594
vt 0.122802 0.037594
vt 0.122802 0.043894
vt 0.085005 0.043894
vt 0.085005 0.043894
vt 0.122802 0.043894
vt 0.122802 0.050194
vt 0.085005 0.050194
vt 0.085005 0.050194
vt 0.122802 0.050194
vt 0.122802 0.056493
vt 0.085005 0.056493
vt 0.085005 0.069093
vt 0.085005 0.056493
vt 0.122802 0.056493
vt 0.122802 0.069093
vt 0.085005 0.069093
vt 0.122802 0.069093
vt 0.122802 0.106890
vt 0.085005 0.106890
vt 0.122802 0.119489
vt 0.085005 0.119489
vt 0.122802 0.125789
vt 0.085005 0.125789
vt 0.122802 0.132089
vt 0.085005 0.132089
vt 0.122802 0.138388
vt 0.085005 0.138388
vt 0.122802 0.144688
vt 0.085005 0.144688
vt 0.122802 0.182486
vt 0.085005 0.182486
vt 0.122802 0.031295
vt 0.160600 0.031295
vt 0.160600 0.037594
vt 0.122802 0.037594
vt 0.160600 0.043894
vt 0.122802 0.043894
vt 0.160600 0.050194
vt 0.122802 0.050194
vt 0.160600 0.056493
vt 0.122802 0.056493
vt 0.160600 0.069093
vt 0.047207 0.031295
vt 0.085005 0.031295
vt 0.085005 0.037594
vt 0.047207 0.037594
vt 0.085005 0.043894
vt 0.047207 0.043894
vt 0.085005 0.050194
vt 0.047207 0.050194
vt 0.085005 0.056493
vt 0.047207 0.056493
vt 0.047207 0.069093
vt 0.122802 0.031295
vt 0.085005 0.031295
vt 0.122802 0.069093
vt 0.085005 0.069093
vn 0.000000 0.000000 1.000000
vn 0.000000 0.000000 1.000000
vn 0.000000 0.000000 1.000000
vn 0.000000 0.000000 1.000000
vn 0.000000 0.000000 1.000000
vn 0.000000 0.000000 1.000000
vn 0.000000 0.000000 1.000000
vn 0.000000 0.000000 1.000000
vn 0.000000 0.000000 1.000000
vn 0.000000 0.000000 1.000000
vn 0.000000 0.000000 1.000000
vn 0.000000 0.000000 1.000000
vn 0.000000 0.000000 1.000000
vn 0.000000 0.000000 1.000000
vn 0.000000 0.000000 1.000000
vn 0.000000 0.000000 1.000000
vn 0.000000 0.000000 1.000000
vn 0.000000 0.000000 1.000000
vn 0.000000 0.000000 1.000000
vn 0.000000 0.000000 1.000000
vn 0.000000 1.000000 0.000000
vn 0.000000 1.000000 0.000000
vn 0.000000 1.000000 0.000000
vn 0.000000 1.000000 0.000000
vn 0.000000 0.000000 -1.000000
vn 0.000000 0.000000 -1.000000
vn 0.000000 0.000000 -1.000000
vn 0.000000 0.000000 -1.000000
vn 0.000000 0.000000 -1.000000
vn 0.000000 0.000000 -1.000000
vn 0.000000 0.000000 -1.000000
vn 0.000000 0.000000 -1.000000
vn 0.000000 0.000000 -1.000000
vn 0.000000 0.000000 -1.000000
vn 0.000000 0.000000 -1.000000
vn 0.000000 0.000000 -1.000000
vn 0.000000 0.000000 -1.000000
vn 0.000000 0.000000 -1.000000
vn 0.000000 0.000000 -1.000000
vn 0.000000 0.000000 -1.000000
vn 0.000000 0.000000 -1.000000
vn 0.000000 0.000000 -1.000000
vn 0.000000 0.000000 -1.000000
vn 0.000000 0.000000 -1.000000
vn 0.000000 -1.000000 0.000000
vn 0.000000 -1.000000 0.000000
vn 0.000000 -1.000000 0.000000
vn 0.000000 -1.000000 0.000000
vn 1.000000 0.000000 0.000000
vn 1.000000 0.000000 0.000000
vn 1.000000 0.000000 0.000000
vn 1.000000 0.000000 0.000000
vn 1.000000 0.000000 0.000000
vn 1.000000 0.000000 0.000000
vn 1.000000 0.000000 0.000000
vn 1.000000 0.000000 0.000000
vn 1.000000 0.000000 0.000000
vn 1.000000 0.000000 0.000000
vn 1.000000 0.000000 0.000000
vn 1.000000 0.000000 0.000000
vn 1.000000 0.000000 0.000000
vn 1.000000 0.000000 0.000000
vn 1.000000 0.000000 0.000000
vn 1.000000 0.000000 0.000000
vn 1.000000 0.000000 0.000000
vn 1.000000 0.000000 0.000000
vn 1.000000 0.000000 0.000000
vn 1.000000 0.000000 0.000000
vn -1.000000 0.000000 0.000000
vn -1.000000 0.000000 0.000000
vn -1.000000 0.000000 0.000000
vn -1.000000 0.000000 0.000000
vn -1.000000 0.000000 0.000000
vn -1.000000 0.000000 0.000000
vn -1.000000 0.000000 0.000000
vn -1.000000 0.000000 0.000000
vn -1.000000 0.000000 0.000000
vn -1.000000 0.000000 0.000000
vn -1.000000 0.000000 0.000000
vn -1.000000 0.000000 0.000000
vn -1.000000 0.000000 0.000000
vn -1.000000 0.000000 0.000000
vn -1.000000 0.000000 0.000000
vn -1.000000 0.000000 0.000000
vn -1.000000 0.000000 0.000000
vn -1.000000 0.000000 0.000000
vn -1.000000 0.000000 0.000000
vn -1.000000 0.000000 0.000000
vn 0.000000 0.000000 1.000000
vn 0.000000 0.000000 1.000000
vn 0.000000 0.000000 1.000000
vn 0.000000 0.000000 1.000000
vn 0.000000 0.000000 1.000000
vn 0.000000 0.000000 1.000000
vn 0.000000 0.000000 1.000000
vn 0.000000 0.000000 1.000000
vn 0.000000 0.000000 1.000000
vn 0.000000 0.000000 1.000000
vn 0.000000 0.000000 1.000000
vn 0.000000 0.000000 1.000000
vn 0.000000 0.000000 1.000000
vn 0.000000 0.000000 1.000000
vn 0.000000 0.000000 1.000000
vn 0.000000 0.000000 1.000000
vn 0.000000 0.000000 1.000000
vn 0.000000 0.000000 1.000000
vn 0.000000 0.000000 1.000000
vn 0.000000 0.000000 1.000000
vn 0.000000 0.000000 1.000000
vn 0.000000 0.000000 1.000000
vn 0.000000 0.000000 1.000000
vn 0.000000 0.000000 1.000000
vn 0.000000 0.000000 1.000000
vn 0.000000 0.000000 1.000000
vn 0.000000 0.000000 1.000000
vn 0.000000 0.000000 1.000000
vn 0.000000 0.000000 1.000000
vn 0.000000 0.000000 1.000000
vn 0.000000 0.000000 1.000000
vn 0.000000 0.000000 1.000000
vn 0.000000 0.000000 1.000000
vn 0.000000 0.000000 1.000000
vn 0.000000 0.000000 1.000000
vn 0.000000 0.000000 1.000000
vn 0.000000 0.000000 1.000000
vn 0.000000 0.000000 1.000000
vn 0.000000 0.000000 1.000000
vn 0.000000 0.000000 1.000000
vn 0.000000 0.000000 1.000000
vn 0.000000 0.000000 1.000000
vn 0.000000 0.000000 1.000000
vn 0.000000 0.000000 1.000000
vn 0.000000 0.000000 1.000000
vn 0.000000 0.000000 1.000000
vn 0.000000 0.000000 1.000000
vn 0.000000 0.000000 1.000000
vn 0.000000 1.000000 0.000000
vn 0.000000 1.000000 0.000000
vn 0.000000 1.000000 0.000000
vn 0.000000 1.000000 0.000000
vn -1.000000 0.000000 0.000000
vn -1.000000 0.000000 0.000000
vn -1.000000 0.000000 0.000000
vn -1.000000 0.000000 0.000000
vn 0.000000 -1.000000 0.000000
vn 0.000000 -1.000000 0.000000
vn 0.000000 -1.000000 0.000000
vn 0.000000 -1.000000 0.000000
vn 1.000000 0.000000 0.000000
vn 1.000000 0.000000 0.000000
vn 1.000000 0.000000 0.000000
vn 1.000000 0.000000 0.000000
vn 0.000000 1.000000 0.000000
vn 0.000000 1.000000 0.000000
vn 0.000000 1.000000 0.000000
vn 0.000000 1.000000 0.000000
vn -1.000000 0.000000 0.000000
vn -1.000000 0.000000 0.000000
vn -1.000000 0.000000 0.000000
vn -1.000000 0.000000 0.000000
vn 0.000000 -1.000000 0.000000
vn 0.000000 -1.000000 0.000000
vn 0.000000 -1.000000 0.000000
vn 0.000000 -1.000000 0.000000
vn 1.000000 0.000000 0.000000
vn 1.000000 0.000000 0.000000
vn 1.000000 0.000000 0.000000
vn 1.000000 0.000000 0.000000
vn 1.000000 0.000000 0.000000
vn 1.000000 0.000000 0.000000
vn 1.000000 0.000000 0.000000
vn 1.000000 0.000000 0.000000
vn 0.000000 1.000000 0.000000
vn 0.000000 1.000000 0.000000
vn 0.000000 1.000000 0.000000
vn 0.000000 1.000000 0.000000
vn -1.000000 0.000000 0.000000
vn -1.000000 0.000000 0.000000
vn -1.000000 0.000000 0.000000
vn -1.000000 0.000000 0.000000
vn 0.000000 -1.000000 0.000000
vn 0.000000 -1.000000 0.000000
vn 0.000000 -1.000000 0.000000
vn 0.000000 -1.000000 0.000000
s off
usemtl kitchen_shelf_main_1_initialShadingGroup
f 37/1/1 38/2/2 39/3/3 40/4/4
f 28/5/5 27/6/6 29/7/7 30/8/8
f 41/9/9 42/10/10 43/11/11 44/12/12
f 32/13/13 31/14/14 33/15/15 34/16/16
f 46/17/17 45/18/18 47/19/19 48/20/20
f 11/21/21 12/22/22 14/23/23 13/24/24
f 16/25/25 15/26/26 13/24/27 14/23/28
f 15/26/29 16/25/30 18/27/31 17/28/32
f 17/28/33 18/27/34 20/29/35 19/30/36
f 19/30/37 20/29/38 22/31/39 21/32/40
f 21/32/41 22/31/42 24/33/43 23/34/44
f 23/34/45 24/33/46 2/35/47 1/36/48
f 2/37/49 24/38/50 22/39/51 4/40/52
f 4/40/53 22/39/54 20/41/55 6/42/56
f 6/42/57 20/41/58 18/43/59 8/44/60
f 8/44/61 18/43/62 16/45/63 10/46/64
f 10/46/65 16/45/66 14/47/67 12/22/68
f 23/48/69 1/49/70 3/50/71 21/51/72
f 21/51/73 3/50/74 5/52/75 19/53/76
f 19/53/77 5/52/78 7/54/79 17/55/80
f 17/55/81 7/54/82 9/56/83 15/57/84
f 15/57/85 9/56/86 11/21/87 13/58/88
f 1/49/89 2/37/90 26/59/91 25/60/92
f 2/37/93 4/40/94 27/6/95 26/59/96
f 3/50/97 1/49/98 25/60/99 28/5/100
f 4/40/101 6/42/102 29/7/103 27/6/104
f 5/52/105 3/50/106 28/5/107 30/8/108
f 6/42/109 8/44/110 31/14/111 29/7/112
f 7/54/113 5/52/114 30/8/115 32/13/116
f 8/44/117 10/46/118 33/15/119 31/14/120
f 9/56/121 7/54/122 32/13/123 34/16/124
f 33/15/125 10/46/126 12/22/127 35/61/128
f 9/56/129 34/16/130 36/62/131 11/21/132
f 12/22/133 11/21/134 36/62/135 35/61/136
f 25/60/137 26/59/138 38/2/139 37/1/140
f 26/59/141 27/6/142 39/3/143 38/2/144
f 27/6/145 28/5/146 40/4/147 39/3/148
f 28/5/149 25/60/150 37/1/151 40/4/152
f 30/8/153 29/7/154 42/10/155 41/9/156
f 29/7/157 31/14/158 43/11/159 42/10/160
f 31/14/161 32/13/162 44/12/163 43/11/164
f 32/13/165 30/8/166 41/9/167 44/12/168
f 36/62/169 34/16/170 45/18/171 46/17/172
f 34/16/173 33/15/174 47/19/175 45/18/176
f 33/15/177 35/61/178 48/20/179 47/19/180
f 35/61/181 36/62/182 46/17/183 48/20/184
