# This file uses centimeters as units for non-parametric coordinates.

mtllib kitchen_sink_base_1.mtl
v -4.771883 0.000000 4.771883
v 4.771883 0.000000 4.771883
v -4.771883 9.543766 4.771883
v 4.771883 9.543766 4.771883
v -4.771883 9.543766 -4.771883
v 4.771883 9.543766 -4.771883
v -4.771883 0.000000 -4.771883
v 4.771883 0.000000 -4.771883
vt 0.084378 0.048645
vt 0.132436 0.048645
vt 0.132436 0.096702
vt 0.084378 0.096702
vt 0.084378 0.048533
vt 0.132436 0.048533
vt 0.132436 0.096591
vt 0.084378 0.096591
vt 0.132436 0.144648
vt 0.084378 0.144648
vt 0.180494 0.048645
vt 0.180494 0.096702
vt 0.036320 0.048645
vt 0.036320 0.096702
vn 0.000000 0.000000 1.000000
vn 0.000000 0.000000 1.000000
vn 0.000000 0.000000 1.000000
vn 0.000000 0.000000 1.000000
vn 0.000000 0.000000 -1.000000
vn 0.000000 0.000000 -1.000000
vn 0.000000 0.000000 -1.000000
vn 0.000000 0.000000 -1.000000
vn 0.000000 -1.000000 0.000000
vn 0.000000 -1.000000 0.000000
vn 0.000000 -1.000000 0.000000
vn 0.000000 -1.000000 0.000000
vn 1.000000 0.000000 0.000000
vn 1.000000 0.000000 0.000000
vn 1.000000 0.000000 0.000000
vn 1.000000 0.000000 0.000000
vn -1.000000 0.000000 0.000000
vn -1.000000 0.000000 0.000000
vn -1.000000 0.000000 0.000000
vn -1.000000 0.000000 0.000000
s off
usemtl initialShadingGroup
f 1/1/1 2/2/2 4/3/3 3/4/4
f 5/5/5 6/6/6 8/7/7 7/8/8
f 7/8/9 8/7/10 2/9/11 1/10/12
f 2/2/13 8/11/14 6/12/15 4/3/16
f 7/13/17 1/1/18 3/4/19 5/14/20
