# This file uses centimeters as units for non-parametric coordinates.

mtllib lamp_lampShade_3.mtl
v 0.937184 0.000000 0.000000
v 0.856161 0.000000 -0.381186
v 0.627099 0.000000 -0.696464
v 0.289607 0.000000 -0.891316
v -0.097963 0.000000 -0.932050
v -0.468592 0.000000 -0.811626
v -0.758199 0.000000 -0.550863
v -0.916704 0.000000 -0.194851
v -0.916704 0.000000 0.194851
v -0.758199 0.000000 0.550863
v -0.468592 0.000000 0.811626
v -0.097963 0.000000 0.932050
v 0.289607 0.000000 0.891314
v 0.627099 0.000000 0.696464
v 0.856161 0.000000 0.381186
v 0.424778 1.938854 0.000000
v 0.388597 1.938854 -0.170212
v 0.286314 1.938854 -0.310990
v 0.135615 1.938854 -0.397998
v -0.037445 1.938854 -0.416187
v -0.202942 1.938854 -0.362414
v -0.332259 1.938854 -0.245977
v -0.403037 1.938854 -0.087006
v -0.403037 1.938854 0.087006
v -0.332259 1.938854 0.245977
v -0.202942 1.938854 0.362414
v -0.037445 1.938854 0.416187
v 0.135615 1.938854 0.397998
v 0.286314 1.938854 0.310990
v 0.388597 1.938854 0.170210
v 0.471275 1.938854 0.000000
v 0.431075 1.938854 -0.189124
v 0.317427 1.938854 -0.345546
v 0.149984 1.938854 -0.442220
v -0.042306 1.938854 -0.462430
v -0.226191 1.938854 -0.402683
v -0.369877 1.938854 -0.273307
v -0.448519 1.938854 -0.096675
v -0.448519 1.938854 0.096675
v -0.369877 1.938854 0.273307
v -0.226191 1.938854 0.402683
v -0.042306 1.938854 0.462430
v 0.149984 1.938854 0.442220
v 0.317427 1.938854 0.345545
v 0.431075 1.938854 0.189124
v 1.041316 0.000000 0.000000
v 0.951289 0.000000 -0.423541
v 0.696776 0.000000 -0.773849
v 0.321784 0.000000 -0.990351
v -0.108847 0.000000 -1.035612
v -0.520658 0.000000 -0.901806
v -0.842442 0.000000 -0.612071
v -1.018561 0.000000 -0.216502
v -1.018561 0.000000 0.216502
v -0.842442 0.000000 0.612071
v -0.520658 0.000000 0.901806
v -0.108847 0.000000 1.035612
v 0.321784 0.000000 0.990351
v 0.696776 0.000000 0.773849
v 0.951289 0.000000 0.423541
vt 0.580368 0.041903
vt 0.609406 0.028126
vt 0.672265 0.181111
vt 0.659299 0.187263
vt 0.552957 0.058686
vt 0.647059 0.194757
vt 0.527490 0.078293
vt 0.936000 0.094574
vt 0.818099 0.210782
vt 0.912306 0.072858
vt 0.807519 0.201085
vt 0.886406 0.053826
vt 0.795954 0.192586
vt 0.858598 0.037710
vt 0.783537 0.185390
vt 0.829205 0.024707
vt 0.770412 0.179584
vt 0.798576 0.014969
vt 0.756735 0.175236
vt 0.767071 0.008605
vt 0.742668 0.172394
vt 0.735065 0.005679
vt 0.728375 0.171087
vt 0.702928 0.006208
vt 0.714026 0.171324
vt 0.671033 0.010170
vt 0.699784 0.173093
vt 0.639741 0.017507
vt 0.685811 0.176369
vt 0.706396 0.273595
vt 0.695135 0.260725
vt 0.685460 0.246625
vt 0.879693 0.298371
vt 0.864327 0.305875
vt 0.848178 0.311498
vt 0.831474 0.315156
vt 0.814451 0.316793
vt 0.797356 0.316385
vt 0.780431 0.313942
vt 0.763916 0.309504
vt 0.748044 0.303142
vt 0.733032 0.294953
vt 0.719086 0.285057
vt 0.579018 0.398980
vt 0.553800 0.370160
vt 0.532133 0.338582
vt 0.967118 0.454468
vt 0.932706 0.471272
vt 0.896539 0.483866
vt 0.859130 0.492057
vt 0.821009 0.495723
vt 0.782724 0.494809
vt 0.744821 0.489337
vt 0.707837 0.479399
vt 0.672289 0.465152
vt 0.638670 0.446812
vt 0.607438 0.424650
vt 0.625317 0.213433
vt 0.635688 0.203512
vt 0.671397 0.215515
vt 0.677508 0.231486
vt 0.500640 0.268911
vt 0.514325 0.304678
vt 0.504266 0.100511
vt 0.981363 0.056700
vt 0.986750 0.043917
vt 0.990391 0.044614
vt 0.984405 0.058819
vt 0.971242 0.066188
vt 0.973160 0.069360
vt 0.958138 0.070738
vt 0.958599 0.074416
vt 0.944315 0.069566
vt 0.943241 0.073113
vt 0.932165 0.062872
vt 0.929740 0.065676
vt 0.923787 0.051815
vt 0.920432 0.053390
vt 0.920631 0.038306
vt 0.916925 0.038381
vt 0.923243 0.024682
vt 0.919827 0.023243
vt 0.931170 0.013298
vt 0.928635 0.010594
vt 0.943042 0.006122
vt 0.941826 0.002620
vt 0.956806 0.004395
vt 0.957120 0.000702
vt 0.970083 0.008417
vt 0.971871 0.005170
vt 0.980576 0.017490
vt 0.983531 0.015252
vt 0.986472 0.030047
vt 0.990081 0.029204
vt 0.836904 0.243315
vt 0.836285 0.208802
vt 0.844434 0.210382
vt 0.844992 0.241444
vt 0.851508 0.274593
vt 0.858135 0.269593
vt 0.877571 0.297226
vt 0.881592 0.289964
vt 0.910586 0.307302
vt 0.911306 0.299032
vt 0.944846 0.303078
vt 0.942139 0.295231
vt 0.974425 0.285285
vt 0.968761 0.279217
vt 0.994210 0.257000
vt 0.986567 0.253760
vt 1.000780 0.223112
vt 0.992480 0.223261
vt 0.992998 0.189481
vt 0.985477 0.192993
vt 0.972211 0.161924
vt 0.966768 0.168191
vt 0.942012 0.145204
vt 0.939589 0.153143
vt 0.907623 0.142212
vt 0.908639 0.150451
vt 0.874991 0.153466
vt 0.879270 0.160580
vt 0.849757 0.177021
vt 0.856559 0.181779
vn -0.883038 -0.255765 0.393483
vn -0.966806 -0.255511 0.000000
vn -0.966806 -0.255511 0.000000
vn -0.883269 -0.255765 0.392964
vn -0.646339 -0.256483 0.718653
vn -0.883038 -0.255765 0.393483
vn -0.883269 -0.255765 0.392964
vn -0.647111 -0.256481 0.717959
vn -0.297924 -0.257540 0.919192
vn -0.646339 -0.256483 0.718653
vn -0.647111 -0.256481 0.717959
vn -0.299188 -0.257536 0.918783
vn 0.101700 -0.258751 0.960575
vn -0.297924 -0.257540 0.919192
vn -0.299188 -0.257536 0.918783
vn 0.100320 -0.258747 0.960722
vn 0.483370 -0.259907 0.835943
vn 0.101700 -0.258751 0.960575
vn 0.100320 -0.258747 0.960722
vn 0.482326 -0.259904 0.836547
vn 0.781272 -0.260810 0.567091
vn 0.483370 -0.259907 0.835943
vn 0.482326 -0.259904 0.836547
vn 0.780791 -0.260808 0.567753
vn 0.944196 -0.261303 0.200538
vn 0.781272 -0.260810 0.567091
vn 0.780791 -0.260808 0.567753
vn 0.944135 -0.261303 0.200821
vn 0.944196 -0.261303 -0.200538
vn 0.944196 -0.261303 0.200538
vn 0.944135 -0.261303 0.200821
vn 0.944135 -0.261303 -0.200821
vn 0.781272 -0.260810 -0.567092
vn 0.944196 -0.261303 -0.200538
vn 0.944135 -0.261303 -0.200821
vn 0.780791 -0.260809 -0.567754
vn 0.483370 -0.259907 -0.835944
vn 0.781272 -0.260810 -0.567092
vn 0.780791 -0.260809 -0.567754
vn 0.482326 -0.259904 -0.836547
vn 0.101699 -0.258751 -0.960575
vn 0.483370 -0.259907 -0.835944
vn 0.482326 -0.259904 -0.836547
vn 0.100320 -0.258747 -0.960722
vn -0.297925 -0.257539 -0.919192
vn 0.101699 -0.258751 -0.960575
vn 0.100320 -0.258747 -0.960722
vn -0.299188 -0.257536 -0.918783
vn -0.646339 -0.256483 -0.718653
vn -0.297925 -0.257539 -0.919192
vn -0.299188 -0.257536 -0.918783
vn -0.647111 -0.256481 -0.717958
vn -0.883037 -0.255765 -0.393484
vn -0.646339 -0.256483 -0.718653
vn -0.647111 -0.256481 -0.717958
vn -0.883269 -0.255765 -0.392964
vn -0.966806 -0.255511 0.000000
vn -0.883037 -0.255765 -0.393484
vn -0.883269 -0.255765 -0.392964
vn -0.966806 -0.255511 0.000000
vn 0.000000 1.000000 0.000000
vn 0.000000 1.000000 0.000000
vn 0.000000 1.000000 0.000000
vn 0.000000 1.000000 0.000000
vn 0.000000 1.000000 0.000000
vn 0.000000 1.000000 0.000000
vn 0.000000 1.000000 0.000000
vn 0.000000 1.000000 0.000000
vn 0.000000 1.000000 0.000001
vn 0.000000 1.000000 0.000000
vn 0.000000 1.000000 0.000000
vn 0.000000 1.000000 0.000001
vn 0.000000 1.000000 0.000000
vn 0.000000 1.000000 0.000001
vn 0.000000 1.000000 0.000001
vn 0.000000 1.000000 0.000000
vn 0.000000 1.000000 -0.000001
vn 0.000000 1.000000 0.000000
vn 0.000000 1.000000 0.000000
vn 0.000000 1.000000 -0.000001
vn 0.000000 1.000000 0.000000
vn 0.000000 1.000000 -0.000001
vn 0.000000 1.000000 -0.000001
vn 0.000000 1.000000 0.000000
vn 0.000000 1.000000 0.000000
vn 0.000000 1.000000 0.000000
vn 0.000000 1.000000 0.000000
vn 0.000000 1.000000 0.000000
vn 0.000000 1.000000 0.000000
vn 0.000000 1.000000 0.000000
vn 0.000000 1.000000 0.000000
vn 0.000000 1.000000 0.000000
vn 0.000000 1.000000 0.000000
vn 0.000000 1.000000 0.000000
vn 0.000000 1.000000 0.000000
vn 0.000000 1.000000 0.000000
vn 0.000000 1.000000 0.000000
vn 0.000000 1.000000 0.000000
vn 0.000000 1.000000 0.000000
vn 0.000000 1.000000 0.000000
vn 0.000000 1.000000 0.000001
vn 0.000000 1.000000 0.000000
vn 0.000000 1.000000 0.000000
vn 0.000000 1.000000 0.000001
vn 0.000000 1.000000 0.000001
vn 0.000000 1.000000 0.000001
vn 0.000000 1.000000 0.000001
vn 0.000000 1.000000 0.000001
vn 0.000000 1.000000 0.000000
vn 0.000000 1.000000 0.000001
vn 0.000000 1.000000 0.000001
vn 0.000000 1.000000 0.000000
vn 0.000000 1.000000 0.000000
vn 0.000000 1.000000 0.000000
vn 0.000000 1.000000 0.000000
vn 0.000000 1.000000 0.000000
vn 0.000000 1.000000 0.000000
vn 0.000000 1.000000 0.000000
vn 0.000000 1.000000 0.000000
vn 0.000000 1.000000 0.000000
vn 0.876488 0.282319 -0.389955
vn 0.959394 0.282071 0.000000
vn 0.959394 0.282071 0.000000
vn 0.876263 0.282319 -0.390460
vn 0.642124 0.283018 -0.712445
vn 0.876488 0.282319 -0.389955
vn 0.876263 0.282319 -0.390460
vn 0.641373 0.283021 -0.713120
vn 0.296862 0.284049 -0.911696
vn 0.642124 0.283018 -0.712445
vn 0.641373 0.283021 -0.713120
vn 0.295635 0.284053 -0.912093
vn -0.099559 0.285232 -0.953274
vn 0.296862 0.284049 -0.911696
vn 0.295635 0.284053 -0.912093
vn -0.100899 0.285236 -0.953132
vn -0.478586 0.286363 -0.830031
vn -0.099559 0.285232 -0.953274
vn -0.100899 0.285236 -0.953132
vn -0.479600 0.286366 -0.829445
vn -0.774704 0.287246 -0.563314
vn -0.478586 0.286363 -0.830031
vn -0.479600 0.286366 -0.829445
vn -0.775170 0.287248 -0.562672
vn -0.936756 0.287729 -0.199248
vn -0.774704 0.287246 -0.563314
vn -0.775170 0.287248 -0.562672
vn -0.936814 0.287730 -0.198973
vn -0.936756 0.287729 0.199248
vn -0.936756 0.287729 -0.199248
vn -0.936814 0.287730 -0.198973
vn -0.936814 0.287730 0.198973
vn -0.774704 0.287246 0.563315
vn -0.936756 0.287729 0.199248
vn -0.936814 0.287730 0.198973
vn -0.775170 0.287248 0.562672
vn -0.478586 0.286363 0.830031
vn -0.774704 0.287246 0.563315
vn -0.775170 0.287248 0.562672
vn -0.479600 0.286366 0.829445
vn -0.099559 0.285232 0.953274
vn -0.478586 0.286363 0.830031
vn -0.479600 0.286366 0.829445
vn -0.100899 0.285236 0.953132
vn 0.296863 0.284049 0.911695
vn -0.099559 0.285232 0.953274
vn -0.100899 0.285236 0.953132
vn 0.295636 0.284053 0.912093
vn 0.642124 0.283018 0.712445
vn 0.296863 0.284049 0.911695
vn 0.295636 0.284053 0.912093
vn 0.641374 0.283021 0.713119
vn 0.876488 0.282318 0.389955
vn 0.642124 0.283018 0.712445
vn 0.641374 0.283021 0.713119
vn 0.876263 0.282319 0.390460
vn 0.959394 0.282071 0.000000
vn 0.876488 0.282318 0.389955
vn 0.876263 0.282319 0.390460
vn 0.959394 0.282071 0.000000
vn 0.000000 -1.000000 0.000000
vn 0.000000 -1.000000 0.000000
vn 0.000000 -1.000000 0.000000
vn 0.000000 -1.000000 0.000000
vn 0.000000 -1.000000 0.000000
vn 0.000000 -1.000000 0.000000
vn 0.000000 -1.000000 0.000000
vn 0.000000 -1.000000 0.000000
vn 0.000000 -1.000000 0.000000
vn 0.000000 -1.000000 0.000000
vn 0.000000 -1.000000 0.000000
vn 0.000000 -1.000000 0.000000
vn 0.000000 -1.000000 0.000000
vn 0.000000 -1.000000 0.000000
vn 0.000000 -1.000000 0.000000
vn 0.000000 -1.000000 0.000000
vn 0.000000 -1.000000 0.000000
vn 0.000000 -1.000000 0.000000
vn 0.000000 -1.000000 0.000000
vn 0.000000 -1.000000 0.000000
vn 0.000000 -1.000000 0.000000
vn 0.000000 -1.000000 0.000000
vn 0.000000 -1.000000 0.000000
vn 0.000000 -1.000000 0.000000
vn 0.000000 -1.000000 0.000000
vn 0.000000 -1.000000 0.000000
vn 0.000000 -1.000000 0.000000
vn 0.000000 -1.000000 0.000000
vn 0.000000 -1.000000 0.000000
vn 0.000000 -1.000000 0.000000
vn 0.000000 -1.000000 0.000000
vn 0.000000 -1.000000 0.000000
vn 0.000000 -1.000000 0.000000
vn 0.000000 -1.000000 0.000000
vn 0.000000 -1.000000 0.000000
vn 0.000000 -1.000000 0.000000
vn 0.000000 -1.000000 0.000000
vn 0.000000 -1.000000 0.000000
vn 0.000000 -1.000000 0.000000
vn 0.000000 -1.000000 0.000000
vn 0.000000 -1.000000 0.000000
vn 0.000000 -1.000000 0.000000
vn 0.000000 -1.000000 0.000000
vn 0.000000 -1.000000 0.000000
vn 0.000000 -1.000000 0.000000
vn 0.000000 -1.000000 0.000000
vn 0.000000 -1.000000 0.000000
vn 0.000000 -1.000000 0.000000
vn 0.000000 -1.000000 0.000000
vn 0.000000 -1.000000 0.000000
vn 0.000000 -1.000000 0.000000
vn 0.000000 -1.000000 0.000000
vn 0.000000 -1.000000 0.000000
vn 0.000000 -1.000000 0.000000
vn 0.000000 -1.000000 0.000000
vn 0.000000 -1.000000 0.000000
vn 0.000000 -1.000000 0.000000
vn 0.000000 -1.000000 0.000000
vn 0.000000 -1.000000 0.000000
vn 0.000000 -1.000000 0.000000
s off
usemtl lamp_lampShade_3_initialShadingGroup
f 2/1/1 1/2/2 16/3/3 17/4/4
f 3/5/5 2/1/6 17/4/7 18/6/8
f 4/7/9 3/5/10 18/6/11 19/59/12
f 5/64/13 4/7/14 19/59/15 20/58/16
f 6/10/17 5/8/18 20/9/19 21/11/20
f 7/12/21 6/10/22 21/11/23 22/13/24
f 8/14/25 7/12/26 22/13/27 23/15/28
f 9/16/29 8/14/30 23/15/31 24/17/32
f 10/18/33 9/16/34 24/17/35 25/19/36
f 11/20/37 10/18/38 25/19/39 26/21/40
f 12/22/41 11/20/42 26/21/43 27/23/44
f 13/24/45 12/22/46 27/23/47 28/25/48
f 14/26/49 13/24/50 28/25/51 29/27/52
f 15/28/53 14/26/54 29/27/55 30/29/56
f 1/2/57 15/28/58 30/29/59 16/3/60
f 17/65/61 16/66/62 31/67/63 32/68/64
f 18/69/65 17/65/66 32/68/67 33/70/68
f 19/71/69 18/69/70 33/70/71 34/72/72
f 20/73/73 19/71/74 34/72/75 35/74/76
f 21/75/77 20/73/78 35/74/79 36/76/80
f 22/77/81 21/75/82 36/76/83 37/78/84
f 23/79/85 22/77/86 37/78/87 38/80/88
f 24/81/89 23/79/90 38/80/91 39/82/92
f 25/83/93 24/81/94 39/82/95 40/84/96
f 26/85/97 25/83/98 40/84/99 41/86/100
f 27/87/101 26/85/102 41/86/103 42/88/104
f 28/89/105 27/87/106 42/88/107 43/90/108
f 29/91/109 28/89/110 43/90/111 44/92/112
f 30/93/113 29/91/114 44/92/115 45/94/116
f 16/66/117 30/93/118 45/94/119 31/67/120
f 32/31/121 31/30/122 46/44/123 47/45/124
f 33/32/125 32/31/126 47/45/127 48/46/128
f 34/61/129 33/32/130 48/46/131 49/63/132
f 35/60/133 34/61/134 49/63/135 50/62/136
f 36/34/137 35/33/138 50/47/139 51/48/140
f 37/35/141 36/34/142 51/48/143 52/49/144
f 38/36/145 37/35/146 52/49/147 53/50/148
f 39/37/149 38/36/150 53/50/151 54/51/152
f 40/38/153 39/37/154 54/51/155 55/52/156
f 41/39/157 40/38/158 55/52/159 56/53/160
f 42/40/161 41/39/162 56/53/163 57/54/164
f 43/41/165 42/40/166 57/54/167 58/55/168
f 44/42/169 43/41/170 58/55/171 59/56/172
f 45/43/173 44/42/174 59/56/175 60/57/176
f 31/30/177 45/43/178 60/57/179 46/44/180
f 47/95/181 46/96/182 1/97/183 2/98/184
f 48/99/185 47/95/186 2/98/187 3/100/188
f 49/101/189 48/99/190 3/100/191 4/102/192
f 50/103/193 49/101/194 4/102/195 5/104/196
f 51/105/197 50/103/198 5/104/199 6/106/200
f 52/107/201 51/105/202 6/106/203 7/108/204
f 53/109/205 52/107/206 7/108/207 8/110/208
f 54/111/209 53/109/210 8/110/211 9/112/212
f 55/113/213 54/111/214 9/112/215 10/114/216
f 56/115/217 55/113/218 10/114/219 11/116/220
f 57/117/221 56/115/222 11/116/223 12/118/224
f 58/119/225 57/117/226 12/118/227 13/120/228
f 59/121/229 58/119/230 13/120/231 14/122/232
f 60/123/233 59/121/234 14/122/235 15/124/236
f 46/96/237 60/123/238 15/124/239 1/97/240
