# This file uses centimeters as units for non-parametric coordinates.

mtllib lamp_lampShade_3.mtl
v 0.483370 0.000000 -0.000000
v 0.441581 0.000000 -0.196604
v 0.323438 0.000000 -0.359214
v 0.149370 0.000000 -0.459713
v -0.050526 0.000000 -0.480722
v -0.241685 0.000000 -0.418611
v -0.391055 0.000000 -0.284118
v -0.472807 0.000000 -0.100498
v -0.472807 0.000000 0.100498
v -0.391055 0.000000 0.284118
v -0.241685 0.000000 0.418611
v -0.050526 0.000000 0.480722
v 0.149370 0.000000 0.459712
v 0.323438 0.000000 0.359214
v 0.441581 0.000000 0.196604
v 0.219087 1.000000 -0.000000
v 0.200426 1.000000 -0.087790
v 0.147672 1.000000 -0.160399
v 0.069946 1.000000 -0.205275
v -0.019313 1.000000 -0.214656
v -0.104671 1.000000 -0.186922
v -0.171369 1.000000 -0.126867
v -0.207874 1.000000 -0.044875
v -0.207874 1.000000 0.044875
v -0.171369 1.000000 0.126867
v -0.104671 1.000000 0.186922
v -0.019313 1.000000 0.214656
v 0.069946 1.000000 0.205275
v 0.147672 1.000000 0.160399
v 0.200426 1.000000 0.087789
v 0.243069 1.000000 -0.000000
v 0.222335 1.000000 -0.097544
v 0.163719 1.000000 -0.178222
v 0.077357 1.000000 -0.228083
v -0.021820 1.000000 -0.238507
v -0.116662 1.000000 -0.207691
v -0.190771 1.000000 -0.140963
v -0.231332 1.000000 -0.049862
v -0.231332 1.000000 0.049862
v -0.190771 1.000000 0.140963
v -0.116662 1.000000 0.207691
v -0.021820 1.000000 0.238507
v 0.077357 1.000000 0.228083
v 0.163719 1.000000 0.178221
v 0.222335 1.000000 0.097544
v 0.537078 0.000000 -0.000000
v 0.490645 0.000000 -0.218449
v 0.359375 0.000000 -0.399127
v 0.165966 0.000000 -0.510792
v -0.056140 0.000000 -0.534136
v -0.268539 0.000000 -0.465123
v -0.434505 0.000000 -0.315687
v -0.525342 0.000000 -0.111665
v -0.525342 0.000000 0.111665
v -0.434505 0.000000 0.315687
v -0.268539 0.000000 0.465123
v -0.056140 0.000000 0.534136
v 0.165966 0.000000 0.510792
v 0.359375 0.000000 0.399127
v 0.490645 0.000000 0.218449
vt 0.000000 1.000000
vt 0.066667 1.000000
vt 0.133333 1.000000
vt 0.200000 1.000000
vt 0.266667 1.000000
vt 0.333333 1.000000
vt 0.400000 1.000000
vt 0.466667 1.000000
vt 0.533333 1.000000
vt 0.600000 1.000000
vt 0.666667 1.000000
vt 0.733333 1.000000
vt 0.800000 1.000000
vt 0.866667 1.000000
vt 0.933333 1.000000
vt 1.000000 1.000000
vt 0.000000 0.750000
vt 0.066667 0.750000
vt 0.133333 0.750000
vt 0.200000 0.750000
vt 0.266667 0.750000
vt 0.333333 0.750000
vt 0.400000 0.750000
vt 0.466667 0.750000
vt 0.533333 0.750000
vt 0.600000 0.750000
vt 0.666667 0.750000
vt 0.733333 0.750000
vt 0.800000 0.750000
vt 0.866667 0.750000
vt 0.933333 0.750000
vt 1.000000 0.750000
vt 0.000000 0.500000
vt 0.066667 0.500000
vt 0.133333 0.500000
vt 0.200000 0.500000
vt 0.266667 0.500000
vt 0.333333 0.500000
vt 0.400000 0.500000
vt 0.466667 0.500000
vt 0.533333 0.500000
vt 0.600000 0.500000
vt 0.666667 0.500000
vt 0.733333 0.500000
vt 0.800000 0.500000
vt 0.866667 0.500000
vt 0.933333 0.500000
vt 1.000000 0.500000
vt 0.000000 0.250000
vt 0.066667 0.250000
vt 0.133333 0.250000
vt 0.200000 0.250000
vt 0.266667 0.250000
vt 0.333333 0.250000
vt 0.400000 0.250000
vt 0.466667 0.250000
vt 0.533333 0.250000
vt 0.600000 0.250000
vt 0.666667 0.250000
vt 0.733333 0.250000
vt 0.800000 0.250000
vt 0.866667 0.250000
vt 0.933333 0.250000
vt 1.000000 0.250000
vt 0.000000 0.000000
vt 0.066667 0.000000
vt 0.133333 0.000000
vt 0.200000 0.000000
vt 0.266667 0.000000
vt 0.333333 0.000000
vt 0.400000 0.000000
vt 0.466667 0.000000
vt 0.533333 0.000000
vt 0.600000 0.000000
vt 0.666667 0.000000
vt 0.733333 0.000000
vt 0.800000 0.000000
vt 0.866667 0.000000
vt 0.933333 0.000000
vt 1.000000 0.000000
vn -0.883037 -0.255765 0.393483
vn -0.966806 -0.255511 -0.000000
vn -0.966806 -0.255511 -0.000000
vn -0.883269 -0.255765 0.392964
vn -0.646339 -0.256483 0.718653
vn -0.647111 -0.256481 0.717959
vn -0.297924 -0.257540 0.919192
vn -0.299188 -0.257536 0.918783
vn 0.101700 -0.258751 0.960576
vn 0.100320 -0.258747 0.960722
vn 0.483370 -0.259907 0.835943
vn 0.482326 -0.259904 0.836547
vn 0.781272 -0.260810 0.567091
vn 0.780791 -0.260808 0.567753
vn 0.944196 -0.261303 0.200538
vn 0.944135 -0.261303 0.200821
vn 0.944195 -0.261303 -0.200538
vn 0.944135 -0.261303 -0.200821
vn 0.781272 -0.260810 -0.567092
vn 0.780791 -0.260809 -0.567754
vn 0.483370 -0.259907 -0.835944
vn 0.482326 -0.259904 -0.836547
vn 0.101699 -0.258751 -0.960576
vn 0.100320 -0.258747 -0.960722
vn -0.297925 -0.257539 -0.919192
vn -0.299188 -0.257536 -0.918783
vn -0.646339 -0.256483 -0.718653
vn -0.647111 -0.256481 -0.717958
vn -0.883037 -0.255765 -0.393484
vn -0.883269 -0.255765 -0.392964
vn 0.000000 1.000000 0.000000
vn 0.000000 1.000000 0.000000
vn 0.000000 1.000000 0.000000
vn 0.000000 1.000000 0.000000
vn 0.000000 1.000000 0.000000
vn 0.000000 1.000000 0.000000
vn 0.000000 1.000000 0.000001
vn 0.000000 1.000000 0.000001
vn 0.000000 1.000000 -0.000000
vn 0.000000 1.000000 -0.000000
vn 0.000000 1.000000 -0.000001
vn 0.000000 1.000000 -0.000001
vn 0.000000 1.000000 0.000000
vn 0.000000 1.000000 0.000000
vn 0.000000 1.000000 0.000000
vn 0.000000 1.000000 0.000000
vn 0.000000 1.000000 0.000000
vn 0.000000 1.000000 0.000000
vn 0.000000 1.000000 0.000000
vn 0.000000 1.000000 0.000000
vn 0.000000 1.000000 0.000000
vn 0.000000 1.000000 0.000000
vn 0.000000 1.000000 0.000001
vn 0.000000 1.000000 0.000001
vn 0.000000 1.000000 0.000001
vn 0.000000 1.000000 0.000001
vn 0.000000 1.000000 0.000000
vn 0.000000 1.000000 0.000000
vn 0.000000 1.000000 0.000000
vn 0.000000 1.000000 0.000000
vn 0.876488 0.282319 -0.389955
vn 0.959394 0.282071 0.000000
vn 0.959394 0.282071 0.000000
vn 0.876263 0.282319 -0.390460
vn 0.642124 0.283018 -0.712445
vn 0.641373 0.283021 -0.713120
vn 0.296862 0.284049 -0.911696
vn 0.295635 0.284053 -0.912093
vn -0.099559 0.285232 -0.953274
vn -0.100899 0.285236 -0.953132
vn -0.478586 0.286363 -0.830031
vn -0.479600 0.286366 -0.829445
vn -0.774704 0.287246 -0.563314
vn -0.775171 0.287248 -0.562672
vn -0.936756 0.287729 -0.199248
vn -0.936815 0.287730 -0.198973
vn -0.936756 0.287729 0.199248
vn -0.936814 0.287730 0.198973
vn -0.774704 0.287246 0.563315
vn -0.775171 0.287248 0.562672
vn -0.478586 0.286363 0.830031
vn -0.479600 0.286366 0.829445
vn -0.099559 0.285232 0.953274
vn -0.100899 0.285236 0.953132
vn 0.296863 0.284049 0.911695
vn 0.295636 0.284053 0.912093
vn 0.642124 0.283018 0.712445
vn 0.641374 0.283021 0.713119
vn 0.876488 0.282318 0.389955
vn 0.876263 0.282319 0.390460
vn 0.000000 -1.000000 0.000000
vn 0.000000 -1.000000 0.000000
vn 0.000000 -1.000000 0.000000
vn 0.000000 -1.000000 0.000000
vn 0.000000 -1.000000 0.000000
vn 0.000000 -1.000000 0.000000
vn 0.000000 -1.000000 0.000000
vn 0.000000 -1.000000 0.000000
vn 0.000000 -1.000000 0.000000
vn 0.000000 -1.000000 0.000000
vn 0.000000 -1.000000 0.000000
vn 0.000000 -1.000000 0.000000
vn 0.000000 -1.000000 0.000000
vn 0.000000 -1.000000 0.000000
vn 0.000000 -1.000000 0.000000
vn 0.000000 -1.000000 0.000000
vn 0.000000 -1.000000 0.000000
vn 0.000000 -1.000000 0.000000
vn 0.000000 -1.000000 0.000000
vn 0.000000 -1.000000 0.000000
vn 0.000000 -1.000000 0.000000
vn 0.000000 -1.000000 0.000000
vn 0.000000 -1.000000 0.000000
vn 0.000000 -1.000000 0.000000
vn 0.000000 -1.000000 0.000000
vn 0.000000 -1.000000 0.000000
vn 0.000000 -1.000000 0.000000
vn 0.000000 -1.000000 0.000000
vn 0.000000 -1.000000 0.000000
vn 0.000000 -1.000000 0.000000
s 1
usemtl initialShadingGroup
f 2/2/1 1/1/2 16/17/3 17/18/4
f 3/3/5 2/2/1 17/18/4 18/19/6
f 4/4/7 3/3/5 18/19/6 19/20/8
f 5/5/9 4/4/7 19/20/8 20/21/10
f 6/6/11 5/5/9 20/21/10 21/22/12
f 7/7/13 6/6/11 21/22/12 22/23/14
f 8/8/15 7/7/13 22/23/14 23/24/16
f 9/9/17 8/8/15 23/24/16 24/25/18
f 10/10/19 9/9/17 24/25/18 25/26/20
f 11/11/21 10/10/19 25/26/20 26/27/22
f 12/12/23 11/11/21 26/27/22 27/28/24
f 13/13/25 12/12/23 27/28/24 28/29/26
f 14/14/27 13/13/25 28/29/26 29/30/28
f 15/15/29 14/14/27 29/30/28 30/31/30
f 1/16/2 15/15/29 30/31/30 16/32/3
s 2
f 17/18/31 16/17/32 31/33/33 32/34/34
f 18/19/35 17/18/31 32/34/34 33/35/36
f 19/20/37 18/19/35 33/35/36 34/36/38
f 20/21/39 19/20/37 34/36/38 35/37/40
f 21/22/41 20/21/39 35/37/40 36/38/42
f 22/23/43 21/22/41 36/38/42 37/39/44
f 23/24/45 22/23/43 37/39/44 38/40/46
f 24/25/47 23/24/45 38/40/46 39/41/48
f 25/26/49 24/25/47 39/41/48 40/42/50
f 26/27/51 25/26/49 40/42/50 41/43/52
f 27/28/53 26/27/51 41/43/52 42/44/54
f 28/29/55 27/28/53 42/44/54 43/45/56
f 29/30/57 28/29/55 43/45/56 44/46/58
f 30/31/59 29/30/57 44/46/58 45/47/60
f 16/32/32 30/31/59 45/47/60 31/48/33
s 3
f 32/34/61 31/33/62 46/49/63 47/50/64
f 33/35/65 32/34/61 47/50/64 48/51/66
f 34/36/67 33/35/65 48/51/66 49/52/68
f 35/37/69 34/36/67 49/52/68 50/53/70
f 36/38/71 35/37/69 50/53/70 51/54/72
f 37/39/73 36/38/71 51/54/72 52/55/74
f 38/40/75 37/39/73 52/55/74 53/56/76
f 39/41/77 38/40/75 53/56/76 54/57/78
f 40/42/79 39/41/77 54/57/78 55/58/80
f 41/43/81 40/42/79 55/58/80 56/59/82
f 42/44/83 41/43/81 56/59/82 57/60/84
f 43/45/85 42/44/83 57/60/84 58/61/86
f 44/46/87 43/45/85 58/61/86 59/62/88
f 45/47/89 44/46/87 59/62/88 60/63/90
f 31/48/62 45/47/89 60/63/90 46/64/63
s 4
f 47/50/91 46/49/92 1/65/93 2/66/94
f 48/51/95 47/50/91 2/66/94 3/67/96
f 49/52/97 48/51/95 3/67/96 4/68/98
f 50/53/99 49/52/97 4/68/98 5/69/100
f 51/54/101 50/53/99 5/69/100 6/70/102
f 52/55/103 51/54/101 6/70/102 7/71/104
f 53/56/105 52/55/103 7/71/104 8/72/106
f 54/57/107 53/56/105 8/72/106 9/73/108
f 55/58/109 54/57/107 9/73/108 10/74/110
f 56/59/111 55/58/109 10/74/110 11/75/112
f 57/60/113 56/59/111 11/75/112 12/76/114
f 58/61/115 57/60/113 12/76/114 13/77/116
f 59/62/117 58/61/115 13/77/116 14/78/118
f 60/63/119 59/62/117 14/78/118 15/79/120
f 46/64/92 60/63/119 15/79/120 1/80/93
