# This file uses centimeters as units for non-parametric coordinates.

mtllib lamp_lampShade_3.mtl
v 0.937184 0.000000 0.000000
v 0.856161 0.000000 -0.381186
v 0.627099 0.000000 -0.696464
v 0.289607 0.000000 -0.891316
v -0.097963 0.000000 -0.932050
v -0.468592 0.000000 -0.811626
v -0.758199 0.000000 -0.550863
v -0.916704 0.000000 -0.194851
v -0.916704 0.000000 0.194851
v -0.758199 0.000000 0.550863
v -0.468592 0.000000 0.811626
v -0.097963 0.000000 0.932050
v 0.289607 0.000000 0.891314
v 0.627099 0.000000 0.696464
v 0.856161 0.000000 0.381186
v 0.424778 1.938854 0.000000
v 0.388597 1.938854 -0.170212
v 0.286314 1.938854 -0.310990
v 0.135615 1.938854 -0.397998
v -0.037445 1.938854 -0.416187
v -0.202942 1.938854 -0.362414
v -0.332259 1.938854 -0.245977
v -0.403037 1.938854 -0.087006
v -0.403037 1.938854 0.087006
v -0.332259 1.938854 0.245977
v -0.202942 1.938854 0.362414
v -0.037445 1.938854 0.416187
v 0.135615 1.938854 0.397998
v 0.286314 1.938854 0.310990
v 0.388597 1.938854 0.170210
v 0.471275 1.938854 0.000000
v 0.431075 1.938854 -0.189124
v 0.317427 1.938854 -0.345546
v 0.149984 1.938854 -0.442220
v -0.042306 1.938854 -0.462430
v -0.226191 1.938854 -0.402683
v -0.369877 1.938854 -0.273307
v -0.448519 1.938854 -0.096675
v -0.448519 1.938854 0.096675
v -0.369877 1.938854 0.273307
v -0.226191 1.938854 0.402683
v -0.042306 1.938854 0.462430
v 0.149984 1.938854 0.442220
v 0.317427 1.938854 0.345545
v 0.431075 1.938854 0.189124
v 1.041316 0.000000 0.000000
v 0.951289 0.000000 -0.423541
v 0.696776 0.000000 -0.773849
v 0.321784 0.000000 -0.990351
v -0.108847 0.000000 -1.035612
v -0.520658 0.000000 -0.901806
v -0.842442 0.000000 -0.612071
v -1.018561 0.000000 -0.216502
v -1.018561 0.000000 0.216502
v -0.842442 0.000000 0.612071
v -0.520658 0.000000 0.901806
v -0.108847 0.000000 1.035612
v 0.321784 0.000000 0.990351
v 0.696776 0.000000 0.773849
v 0.951289 0.000000 0.423541
vt 0.813346 0.176499
vt 0.650652 0.086407
vt 0.499972 0.479801
vt 0.514846 0.474382
vt 0.924897 0.325362
vt 0.530682 0.475486
vt 0.966293 0.506649
vt 0.544752 0.482946
vt 0.930414 0.689023
vt 0.554591 0.495533
vt 0.823548 0.840971
vt 0.558429 0.511078
vt 0.664160 0.936302
vt 0.555554 0.526839
vt 0.479831 0.958571
vt 0.546474 0.540025
vt 0.302413 0.903980
vt 0.532814 0.548319
vt 0.162538 0.782006
vt 0.517001 0.550307
vt 0.084319 0.613700
vt 0.501801 0.545702
vt 0.081265 0.428117
vt 0.489813 0.535362
vt 0.153919 0.257278
vt 0.483050 0.521095
vt 0.289763 0.130680
vt 0.482625 0.505336
vt 0.465456 0.070228
vt 0.488598 0.490750
vt 0.502671 0.457228
vt 0.526504 0.454886
vt 0.549255 0.462435
vt 0.566996 0.478591
vt 0.576646 0.500590
vt 0.576504 0.524634
vt 0.566565 0.546542
vt 0.548547 0.562492
vt 0.525593 0.569699
vt 0.501710 0.566929
vt 0.481044 0.554690
vt 0.467154 0.535129
vt 0.462417 0.511641
vt 0.467620 0.488273
vt 0.481853 0.469037
vt 0.419234 0.050189
vt 0.616425 0.049106
vt 0.796983 0.128300
vt 0.929730 0.274052
vt 0.991714 0.461145
vt 0.972283 0.657279
vt 0.874746 0.828569
vt 0.715937 0.945358
vt 0.523307 0.987374
vt 0.330344 0.947542
vt 0.170240 0.832737
vt 0.070600 0.662724
vt 0.048635 0.466733
vt 0.108400 0.278770
vt 0.239516 0.131414
vt 0.641746 0.813224
vt 0.516953 0.841556
vt 0.516933 0.809179
vt 0.628906 0.783867
vt 0.744391 0.733630
vt 0.721209 0.712592
vt 0.807420 0.617144
vt 0.778249 0.607542
vt 0.820570 0.483841
vt 0.790138 0.487043
vt 0.781729 0.356178
vt 0.754912 0.371877
vt 0.697101 0.255863
vt 0.678496 0.281637
vt 0.580772 0.200613
vt 0.574129 0.232221
vt 0.453072 0.200642
vt 0.459771 0.232210
vt 0.336792 0.255908
vt 0.355322 0.281653
vt 0.252187 0.356183
vt 0.278968 0.371763
vt 0.213313 0.483811
vt 0.243734 0.487043
vt 0.226417 0.617127
vt 0.255644 0.607573
vt 0.289439 0.733659
vt 0.312611 0.712575
vt 0.392128 0.813270
vt 0.405056 0.783902
vn -0.883038 -0.255765 0.393483
vn -0.966806 -0.255511 0.000000
vn -0.966806 -0.255511 0.000000
vn -0.883269 -0.255765 0.392964
vn -0.646339 -0.256483 0.718653
vn -0.883038 -0.255765 0.393483
vn -0.883269 -0.255765 0.392964
vn -0.647111 -0.256481 0.717959
vn -0.297924 -0.257540 0.919192
vn -0.646339 -0.256483 0.718653
vn -0.647111 -0.256481 0.717959
vn -0.299188 -0.257536 0.918783
vn 0.101700 -0.258751 0.960575
vn -0.297924 -0.257540 0.919192
vn -0.299188 -0.257536 0.918783
vn 0.100320 -0.258747 0.960722
vn 0.483370 -0.259907 0.835943
vn 0.101700 -0.258751 0.960575
vn 0.100320 -0.258747 0.960722
vn 0.482326 -0.259904 0.836547
vn 0.781272 -0.260810 0.567091
vn 0.483370 -0.259907 0.835943
vn 0.482326 -0.259904 0.836547
vn 0.780791 -0.260808 0.567753
vn 0.944196 -0.261303 0.200538
vn 0.781272 -0.260810 0.567091
vn 0.780791 -0.260808 0.567753
vn 0.944135 -0.261303 0.200821
vn 0.944196 -0.261303 -0.200538
vn 0.944196 -0.261303 0.200538
vn 0.944135 -0.261303 0.200821
vn 0.944135 -0.261303 -0.200821
vn 0.781272 -0.260810 -0.567092
vn 0.944196 -0.261303 -0.200538
vn 0.944135 -0.261303 -0.200821
vn 0.780791 -0.260809 -0.567754
vn 0.483370 -0.259907 -0.835944
vn 0.781272 -0.260810 -0.567092
vn 0.780791 -0.260809 -0.567754
vn 0.482326 -0.259904 -0.836547
vn 0.101699 -0.258751 -0.960575
vn 0.483370 -0.259907 -0.835944
vn 0.482326 -0.259904 -0.836547
vn 0.100320 -0.258747 -0.960722
vn -0.297925 -0.257539 -0.919192
vn 0.101699 -0.258751 -0.960575
vn 0.100320 -0.258747 -0.960722
vn -0.299188 -0.257536 -0.918783
vn -0.646339 -0.256483 -0.718653
vn -0.297925 -0.257539 -0.919192
vn -0.299188 -0.257536 -0.918783
vn -0.647111 -0.256481 -0.717958
vn -0.883037 -0.255765 -0.393484
vn -0.646339 -0.256483 -0.718653
vn -0.647111 -0.256481 -0.717958
vn -0.883269 -0.255765 -0.392964
vn -0.966806 -0.255511 0.000000
vn -0.883037 -0.255765 -0.393484
vn -0.883269 -0.255765 -0.392964
vn -0.966806 -0.255511 0.000000
vn 0.000000 1.000000 0.000000
vn 0.000000 1.000000 0.000000
vn 0.000000 1.000000 0.000000
vn 0.000000 1.000000 0.000000
vn 0.000000 1.000000 0.000000
vn 0.000000 1.000000 0.000000
vn 0.000000 1.000000 0.000000
vn 0.000000 1.000000 0.000000
vn 0.000000 1.000000 0.000001
vn 0.000000 1.000000 0.000000
vn 0.000000 1.000000 0.000000
vn 0.000000 1.000000 0.000001
vn 0.000000 1.000000 0.000000
vn 0.000000 1.000000 0.000001
vn 0.000000 1.000000 0.000001
vn 0.000000 1.000000 0.000000
vn 0.000000 1.000000 -0.000001
vn 0.000000 1.000000 0.000000
vn 0.000000 1.000000 0.000000
vn 0.000000 1.000000 -0.000001
vn 0.000000 1.000000 0.000000
vn 0.000000 1.000000 -0.000001
vn 0.000000 1.000000 -0.000001
vn 0.000000 1.000000 0.000000
vn 0.000000 1.000000 0.000000
vn 0.000000 1.000000 0.000000
vn 0.000000 1.000000 0.000000
vn 0.000000 1.000000 0.000000
vn 0.000000 1.000000 0.000000
vn 0.000000 1.000000 0.000000
vn 0.000000 1.000000 0.000000
vn 0.000000 1.000000 0.000000
vn 0.000000 1.000000 0.000000
vn 0.000000 1.000000 0.000000
vn 0.000000 1.000000 0.000000
vn 0.000000 1.000000 0.000000
vn 0.000000 1.000000 0.000000
vn 0.000000 1.000000 0.000000
vn 0.000000 1.000000 0.000000
vn 0.000000 1.000000 0.000000
vn 0.000000 1.000000 0.000001
vn 0.000000 1.000000 0.000000
vn 0.000000 1.000000 0.000000
vn 0.000000 1.000000 0.000001
vn 0.000000 1.000000 0.000001
vn 0.000000 1.000000 0.000001
vn 0.000000 1.000000 0.000001
vn 0.000000 1.000000 0.000001
vn 0.000000 1.000000 0.000000
vn 0.000000 1.000000 0.000001
vn 0.000000 1.000000 0.000001
vn 0.000000 1.000000 0.000000
vn 0.000000 1.000000 0.000000
vn 0.000000 1.000000 0.000000
vn 0.000000 1.000000 0.000000
vn 0.000000 1.000000 0.000000
vn 0.000000 1.000000 0.000000
vn 0.000000 1.000000 0.000000
vn 0.000000 1.000000 0.000000
vn 0.000000 1.000000 0.000000
vn 0.876488 0.282319 -0.389955
vn 0.959394 0.282071 0.000000
vn 0.959394 0.282071 0.000000
vn 0.876263 0.282319 -0.390460
vn 0.642124 0.283018 -0.712445
vn 0.876488 0.282319 -0.389955
vn 0.876263 0.282319 -0.390460
vn 0.641373 0.283021 -0.713120
vn 0.296862 0.284049 -0.911696
vn 0.642124 0.283018 -0.712445
vn 0.641373 0.283021 -0.713120
vn 0.295635 0.284053 -0.912093
vn -0.099559 0.285232 -0.953274
vn 0.296862 0.284049 -0.911696
vn 0.295635 0.284053 -0.912093
vn -0.100899 0.285236 -0.953132
vn -0.478586 0.286363 -0.830031
vn -0.099559 0.285232 -0.953274
vn -0.100899 0.285236 -0.953132
vn -0.479600 0.286366 -0.829445
vn -0.774704 0.287246 -0.563314
vn -0.478586 0.286363 -0.830031
vn -0.479600 0.286366 -0.829445
vn -0.775170 0.287248 -0.562672
vn -0.936756 0.287729 -0.199248
vn -0.774704 0.287246 -0.563314
vn -0.775170 0.287248 -0.562672
vn -0.936814 0.287730 -0.198973
vn -0.936756 0.287729 0.199248
vn -0.936756 0.287729 -0.199248
vn -0.936814 0.287730 -0.198973
vn -0.936814 0.287730 0.198973
vn -0.774704 0.287246 0.563315
vn -0.936756 0.287729 0.199248
vn -0.936814 0.287730 0.198973
vn -0.775170 0.287248 0.562672
vn -0.478586 0.286363 0.830031
vn -0.774704 0.287246 0.563315
vn -0.775170 0.287248 0.562672
vn -0.479600 0.286366 0.829445
vn -0.099559 0.285232 0.953274
vn -0.478586 0.286363 0.830031
vn -0.479600 0.286366 0.829445
vn -0.100899 0.285236 0.953132
vn 0.296863 0.284049 0.911695
vn -0.099559 0.285232 0.953274
vn -0.100899 0.285236 0.953132
vn 0.295636 0.284053 0.912093
vn 0.642124 0.283018 0.712445
vn 0.296863 0.284049 0.911695
vn 0.295636 0.284053 0.912093
vn 0.641374 0.283021 0.713119
vn 0.876488 0.282318 0.389955
vn 0.642124 0.283018 0.712445
vn 0.641374 0.283021 0.713119
vn 0.876263 0.282319 0.390460
vn 0.959394 0.282071 0.000000
vn 0.876488 0.282318 0.389955
vn 0.876263 0.282319 0.390460
vn 0.959394 0.282071 0.000000
vn 0.000000 -1.000000 0.000000
vn 0.000000 -1.000000 0.000000
vn 0.000000 -1.000000 0.000000
vn 0.000000 -1.000000 0.000000
vn 0.000000 -1.000000 0.000000
vn 0.000000 -1.000000 0.000000
vn 0.000000 -1.000000 0.000000
vn 0.000000 -1.000000 0.000000
vn 0.000000 -1.000000 0.000000
vn 0.000000 -1.000000 0.000000
vn 0.000000 -1.000000 0.000000
vn 0.000000 -1.000000 0.000000
vn 0.000000 -1.000000 0.000000
vn 0.000000 -1.000000 0.000000
vn 0.000000 -1.000000 0.000000
vn 0.000000 -1.000000 0.000000
vn 0.000000 -1.000000 0.000000
vn 0.000000 -1.000000 0.000000
vn 0.000000 -1.000000 0.000000
vn 0.000000 -1.000000 0.000000
vn 0.000000 -1.000000 0.000000
vn 0.000000 -1.000000 0.000000
vn 0.000000 -1.000000 0.000000
vn 0.000000 -1.000000 0.000000
vn 0.000000 -1.000000 0.000000
vn 0.000000 -1.000000 0.000000
vn 0.000000 -1.000000 0.000000
vn 0.000000 -1.000000 0.000000
vn 0.000000 -1.000000 0.000000
vn 0.000000 -1.000000 0.000000
vn 0.000000 -1.000000 0.000000
vn 0.000000 -1.000000 0.000000
vn 0.000000 -1.000000 0.000000
vn 0.000000 -1.000000 0.000000
vn 0.000000 -1.000000 0.000000
vn 0.000000 -1.000000 0.000000
vn 0.000000 -1.000000 0.000000
vn 0.000000 -1.000000 0.000000
vn 0.000000 -1.000000 0.000000
vn 0.000000 -1.000000 0.000000
vn 0.000000 -1.000000 0.000000
vn 0.000000 -1.000000 0.000000
vn 0.000000 -1.000000 0.000000
vn 0.000000 -1.000000 0.000000
vn 0.000000 -1.000000 0.000000
vn 0.000000 -1.000000 0.000000
vn 0.000000 -1.000000 0.000000
vn 0.000000 -1.000000 0.000000
vn 0.000000 -1.000000 0.000000
vn 0.000000 -1.000000 0.000000
vn 0.000000 -1.000000 0.000000
vn 0.000000 -1.000000 0.000000
vn 0.000000 -1.000000 0.000000
vn 0.000000 -1.000000 0.000000
vn 0.000000 -1.000000 0.000000
vn 0.000000 -1.000000 0.000000
vn 0.000000 -1.000000 0.000000
vn 0.000000 -1.000000 0.000000
vn 0.000000 -1.000000 0.000000
vn 0.000000 -1.000000 0.000000
s off
usemtl initialShadingGroup
f 2/1/1 1/2/2 16/3/3 17/4/4
f 3/5/5 2/1/6 17/4/7 18/6/8
f 4/7/9 3/5/10 18/6/11 19/8/12
f 5/9/13 4/7/14 19/8/15 20/10/16
f 6/11/17 5/9/18 20/10/19 21/12/20
f 7/13/21 6/11/22 21/12/23 22/14/24
f 8/15/25 7/13/26 22/14/27 23/16/28
f 9/17/29 8/15/30 23/16/31 24/18/32
f 10/19/33 9/17/34 24/18/35 25/20/36
f 11/21/37 10/19/38 25/20/39 26/22/40
f 12/23/41 11/21/42 26/22/43 27/24/44
f 13/25/45 12/23/46 27/24/47 28/26/48
f 14/27/49 13/25/50 28/26/51 29/28/52
f 15/29/53 14/27/54 29/28/55 30/30/56
f 1/2/57 15/29/58 30/30/59 16/3/60
f 17/4/61 16/3/62 31/31/63 32/32/64
f 18/6/65 17/4/66 32/32/67 33/33/68
f 19/8/69 18/6/70 33/33/71 34/34/72
f 20/10/73 19/8/74 34/34/75 35/35/76
f 21/12/77 20/10/78 35/35/79 36/36/80
f 22/14/81 21/12/82 36/36/83 37/37/84
f 23/16/85 22/14/86 37/37/87 38/38/88
f 24/18/89 23/16/90 38/38/91 39/39/92
f 25/20/93 24/18/94 39/39/95 40/40/96
f 26/22/97 25/20/98 40/40/99 41/41/100
f 27/24/101 26/22/102 41/41/103 42/42/104
f 28/26/105 27/24/106 42/42/107 43/43/108
f 29/28/109 28/26/110 43/43/111 44/44/112
f 30/30/113 29/28/114 44/44/115 45/45/116
f 16/3/117 30/30/118 45/45/119 31/31/120
f 32/32/121 31/31/122 46/46/123 47/47/124
f 33/33/125 32/32/126 47/47/127 48/48/128
f 34/34/129 33/33/130 48/48/131 49/49/132
f 35/35/133 34/34/134 49/49/135 50/50/136
f 36/36/137 35/35/138 50/50/139 51/51/140
f 37/37/141 36/36/142 51/51/143 52/52/144
f 38/38/145 37/37/146 52/52/147 53/53/148
f 39/39/149 38/38/150 53/53/151 54/54/152
f 40/40/153 39/39/154 54/54/155 55/55/156
f 41/41/157 40/40/158 55/55/159 56/56/160
f 42/42/161 41/41/162 56/56/163 57/57/164
f 43/43/165 42/42/166 57/57/167 58/58/168
f 44/44/169 43/43/170 58/58/171 59/59/172
f 45/45/173 44/44/174 59/59/175 60/60/176
f 31/31/177 45/45/178 60/60/179 46/46/180
f 47/61/181 46/62/182 1/63/183 2/64/184
f 48/65/185 47/61/186 2/64/187 3/66/188
f 49/67/189 48/65/190 3/66/191 4/68/192
f 50/69/193 49/67/194 4/68/195 5/70/196
f 51/71/197 50/69/198 5/70/199 6/72/200
f 52/73/201 51/71/202 6/72/203 7/74/204
f 53/75/205 52/73/206 7/74/207 8/76/208
f 54/77/209 53/75/210 8/76/211 9/78/212
f 55/79/213 54/77/214 9/78/215 10/80/216
f 56/81/217 55/79/218 10/80/219 11/82/220
f 57/83/221 56/81/222 11/82/223 12/84/224
f 58/85/225 57/83/226 12/84/227 13/86/228
f 59/87/229 58/85/230 13/86/231 14/88/232
f 60/89/233 59/87/234 14/88/235 15/90/236
f 46/62/237 60/89/238 15/90/239 1/63/240
