# This file uses centimeters as units for non-parametric coordinates.

mtllib lamp_lampShade_1.mtl
v -0.799182 0.000000 0.799182
v 0.799182 0.000000 0.799182
v -0.350683 2.092153 0.350683
v 0.350683 2.092153 0.350683
v -0.350683 2.092153 -0.350683
v 0.350683 2.092153 -0.350683
v -0.799182 0.000000 -0.799182
v 0.799182 0.000000 -0.799182
v -0.288228 2.092153 0.288228
v 0.288228 2.092153 0.288228
v 0.288228 2.092153 -0.288228
v -0.288228 2.092153 -0.288228
v -0.656846 0.000000 -0.656846
v 0.656846 0.000000 -0.656846
v 0.656846 0.000000 0.656846
v -0.656846 0.000000 0.656846
vt 0.829594 -0.002249
vt 1.003365 -0.002888
vt 0.955441 0.224747
vt 0.879190 0.225026
vt 0.505091 0.365936
vt 0.556456 0.199928
vt 0.759336 0.313743
vt 0.736797 0.386587
vt 0.671354 0.069563
vt 0.809753 0.256538
vt 0.922915 0.000064
vt 0.999166 0.000064
vt 0.992377 0.006853
vt 0.929705 0.006853
vt 0.999166 0.076315
vt 0.992377 0.069525
vt 0.922915 0.076315
vt 0.929705 0.069525
vt 0.744302 0.000064
vt 0.918075 0.000064
vt 0.902600 0.015538
vt 0.759777 0.015538
vt 0.918075 0.173836
vt 0.902600 0.158362
vt 0.744302 0.173836
vt 0.759777 0.158362
vt 0.786905 0.289152
vt 0.755526 0.343402
vt 0.538568 0.264208
vt 0.610078 0.140577
vt 0.834936 0.248893
vt 0.719536 0.048830
vt 0.893834 0.227474
vt 0.853758 0.000017
vt 0.956506 0.227474
vt 0.996581 0.000017
vn 0.000000 0.209609 -0.977785
vn 0.000000 0.209609 -0.977785
vn 0.000000 0.209609 -0.977785
vn 0.000000 0.209609 -0.977785
vn -0.977785 0.209609 0.000000
vn -0.977785 0.209609 0.000000
vn -0.977785 0.209609 0.000000
vn -0.977785 0.209609 0.000000
vn 0.000000 0.209609 0.977785
vn 0.000000 0.209609 0.977785
vn 0.000000 0.209609 0.977785
vn 0.000000 0.209609 0.977785
vn 0.977785 0.209609 0.000000
vn 0.977785 0.209609 0.000000
vn 0.977785 0.209609 0.000000
vn 0.977785 0.209609 0.000000
vn 0.000000 1.000000 0.000001
vn 0.000000 1.000000 0.000001
vn 0.000000 1.000000 0.000001
vn 0.000000 1.000000 0.000001
vn 0.000000 1.000000 0.000001
vn 0.000000 1.000000 -0.000001
vn 0.000000 1.000000 -0.000001
vn 0.000000 1.000000 0.000001
vn 0.000000 1.000000 -0.000001
vn 0.000000 1.000000 -0.000001
vn 0.000000 1.000000 -0.000001
vn 0.000000 1.000000 -0.000001
vn 0.000000 1.000000 -0.000001
vn 0.000000 1.000000 0.000001
vn 0.000000 1.000000 0.000001
vn 0.000000 1.000000 -0.000001
vn 0.000000 -1.000000 0.000000
vn 0.000000 -1.000000 0.000000
vn 0.000000 -1.000000 0.000000
vn 0.000000 -1.000000 0.000000
vn 0.000000 -1.000000 0.000000
vn 0.000000 -1.000000 0.000000
vn 0.000000 -1.000000 0.000000
vn 0.000000 -1.000000 0.000000
vn 0.000000 -1.000000 0.000000
vn 0.000000 -1.000000 0.000000
vn 0.000000 -1.000000 0.000000
vn 0.000000 -1.000000 0.000000
vn 0.000000 -1.000000 0.000000
vn 0.000000 -1.000000 0.000000
vn 0.000000 -1.000000 0.000000
vn 0.000000 -1.000000 0.000000
vn -0.984830 -0.173519 0.000000
vn -0.984830 -0.173519 0.000000
vn -0.984830 -0.173519 0.000000
vn -0.984830 -0.173519 0.000000
vn 0.000000 -0.173519 -0.984830
vn 0.000000 -0.173519 -0.984830
vn 0.000000 -0.173519 -0.984830
vn 0.000000 -0.173519 -0.984830
vn 0.984830 -0.173519 0.000000
vn 0.984830 -0.173519 0.000000
vn 0.984830 -0.173519 0.000000
vn 0.984830 -0.173519 0.000000
vn 0.000000 -0.173519 0.984830
vn 0.000000 -0.173519 0.984830
vn 0.000000 -0.173519 0.984830
vn 0.000000 -0.173519 0.984830
s off
usemtl lamp_lampShade_1_initialShadingGroup
f 8/1/1 7/2/2 5/3/3 6/4/4
f 7/5/5 1/6/6 3/7/7 5/8/8
f 1/6/9 2/9/10 4/10/11 3/7/12
f 2/9/13 8/1/14 6/4/15 4/10/16
f 3/11/17 4/12/18 10/13/19 9/14/20
f 4/12/21 6/15/22 11/16/23 10/13/24
f 6/15/25 5/17/26 12/18/27 11/16/28
f 5/17/29 3/11/30 9/14/31 12/18/32
f 7/19/33 8/20/34 14/21/35 13/22/36
f 8/20/37 2/23/38 15/24/39 14/21/40
f 2/23/41 1/25/42 16/26/43 15/24/44
f 1/25/45 7/19/46 13/22/47 16/26/48
f 10/27/49 11/28/50 14/29/51 15/30/52
f 9/31/53 10/27/54 15/30/55 16/32/56
f 12/33/57 9/31/58 16/32/59 13/34/60
f 11/35/61 12/33/62 13/34/63 14/36/64
