# This file uses centimeters as units for non-parametric coordinates.

mtllib lamp_lampShaft_1.mtl
v -0.400232 0.000000 0.400232
v 0.400232 0.000000 0.400232
v -0.070413 2.106399 0.070413
v 0.070413 2.106399 0.070413
v -0.070413 2.106399 -0.070413
v 0.070413 2.106399 -0.070413
v -0.400232 0.000000 -0.400232
v 0.400232 0.000000 -0.400232
v -0.161962 0.312173 0.161962
v -0.161962 0.312173 -0.161962
v 0.161962 0.312173 -0.161962
v 0.161962 0.312173 0.161962
v 0.147021 1.727869 -0.147021
v -0.147021 1.727869 -0.147021
v -0.147021 1.727869 0.147021
v 0.147021 1.727869 0.147021
v -0.100288 1.145450 -0.100288
v -0.100288 1.145450 0.100288
v 0.100288 1.145450 0.100288
v 0.100288 1.145450 -0.100288
v -0.101480 0.972892 -0.101480
v -0.101480 0.972892 0.101480
v 0.101480 0.972892 0.101480
v 0.101480 0.972892 -0.101480
v -0.132968 1.054079 -0.132968
v -0.132968 1.054079 0.132968
v 0.132968 1.054079 0.132968
v 0.132968 1.054079 -0.132968
v 0.291835 0.142018 -0.291835
v -0.291835 0.142018 -0.291835
v -0.291835 0.142018 0.291835
v 0.291835 0.142018 0.291835
v 0.279599 0.235023 -0.279599
v -0.279599 0.235023 -0.279599
v -0.279599 0.235023 0.279599
v 0.279599 0.235023 0.279599
v -0.077247 1.909771 -0.077247
v -0.077247 1.909771 0.077247
v 0.077247 1.909771 0.077247
v 0.077247 1.909771 -0.077247
vt 0.375000 0.027894
vt 0.625000 0.027894
vt 0.625000 0.037051
vt 0.375000 0.037051
vt 0.375000 0.250000
vt 0.625000 0.250000
vt 0.625000 0.500000
vt 0.375000 0.500000
vt 0.375000 0.712949
vt 0.625000 0.712949
vt 0.625000 0.722106
vt 0.375000 0.722106
vt 0.375000 0.750000
vt 0.625000 0.750000
vt 0.625000 1.000000
vt 0.375000 1.000000
vt 0.875000 0.027894
vt 0.875000 0.037051
vt 0.125000 0.027894
vt 0.125000 0.037051
vt 0.125000 0.226663
vt 0.375000 0.226663
vt 0.125000 0.250000
vt 0.625000 0.523337
vt 0.375000 0.523337
vt 0.625000 0.226663
vt 0.875000 0.226663
vt 0.875000 0.250000
vt 0.375000 0.544926
vt 0.625000 0.544926
vt 0.625000 0.614051
vt 0.375000 0.614051
vt 0.125000 0.135949
vt 0.375000 0.135949
vt 0.375000 0.205074
vt 0.125000 0.205074
vt 0.625000 0.135949
vt 0.625000 0.205074
vt 0.875000 0.135949
vt 0.875000 0.205074
vt 0.125000 0.125104
vt 0.375000 0.125104
vt 0.625000 0.125104
vt 0.875000 0.125104
vt 0.625000 0.624896
vt 0.375000 0.624896
vt 0.375000 0.115469
vt 0.125000 0.115469
vt 0.625000 0.115469
vt 0.875000 0.115469
vt 0.375000 0.634531
vt 0.625000 0.634531
vt 0.375000 0.733145
vt 0.625000 0.733145
vt 0.125000 0.000000
vt 0.375000 0.000000
vt 0.375000 0.016856
vt 0.125000 0.016856
vt 0.625000 0.000000
vt 0.625000 0.016856
vt 0.875000 0.000000
vt 0.875000 0.016856
vn 0.000000 0.392869 0.919594
vn 0.000000 0.392869 0.919594
vn 0.000000 0.417222 0.908805
vn 0.000000 0.417222 0.908805
vn 0.000000 1.000000 0.000000
vn 0.000000 1.000000 0.000000
vn 0.000000 1.000000 0.000000
vn 0.000000 1.000000 0.000000
vn 0.000000 0.417222 -0.908805
vn 0.000000 0.417222 -0.908805
vn 0.000000 0.392869 -0.919594
vn 0.000000 0.392869 -0.919594
vn 0.000000 -1.000000 0.000000
vn 0.000000 -1.000000 0.000000
vn 0.000000 -1.000000 0.000000
vn 0.000000 -1.000000 0.000000
vn 0.919594 0.392869 0.000000
vn 0.919594 0.392869 0.000000
vn 0.908805 0.417222 0.000000
vn 0.908805 0.417222 0.000000
vn -0.919595 0.392869 0.000000
vn -0.919595 0.392869 0.000000
vn -0.908805 0.417222 0.000000
vn -0.908805 0.417222 0.000000
vn -0.965205 0.261493 -0.000000
vn -0.965205 0.261493 -0.000000
vn -0.999397 0.034733 -0.000000
vn -0.999397 0.034733 -0.000000
vn 0.000000 0.034733 -0.999397
vn 0.000000 0.034733 -0.999397
vn 0.000000 0.261493 -0.965205
vn 0.000000 0.261493 -0.965205
vn 0.965205 0.261493 0.000000
vn 0.965205 0.261493 0.000000
vn 0.999397 0.034733 0.000000
vn 0.999397 0.034733 0.000000
vn 0.000000 0.261492 0.965206
vn 0.000000 0.261492 0.965206
vn 0.000000 0.034733 0.999397
vn 0.000000 0.034733 0.999397
vn 0.000000 -0.004092 -0.999992
vn 0.000000 -0.004092 -0.999992
vn 0.000000 -0.013093 -0.999914
vn 0.000000 -0.013093 -0.999914
vn -0.999914 -0.013093 0.000000
vn -0.999914 -0.013093 0.000000
vn -0.999992 -0.004092 0.000000
vn -0.999992 -0.004092 0.000000
vn 0.000000 -0.013093 0.999914
vn 0.000000 -0.013093 0.999914
vn 0.000000 -0.004092 0.999992
vn 0.000000 -0.004092 0.999992
vn 0.999914 -0.013093 0.000000
vn 0.999914 -0.013093 0.000000
vn 0.999992 -0.004092 0.000000
vn 0.999992 -0.004092 0.000000
vn -0.999954 0.009597 0.000000
vn -0.999954 0.009597 0.000000
vn -0.999914 -0.013093 0.000000
vn -0.999914 -0.013093 0.000000
vn 0.000000 0.009597 0.999954
vn 0.000000 0.009597 0.999954
vn 0.000000 -0.013093 0.999914
vn 0.000000 -0.013093 0.999914
vn 0.999954 0.009597 0.000000
vn 0.999954 0.009597 0.000000
vn 0.999914 -0.013093 0.000000
vn 0.999914 -0.013093 0.000000
vn 0.000000 -0.013093 -0.999914
vn 0.000000 -0.013093 -0.999914
vn 0.000000 0.009597 -0.999954
vn 0.000000 0.009597 -0.999954
vn -0.908805 0.417222 0.000000
vn -0.908805 0.417222 0.000000
vn -0.999378 0.035265 0.000000
vn -0.999378 0.035265 0.000000
vn 0.000000 0.417222 0.908805
vn 0.000000 0.417222 0.908805
vn 0.000000 0.035265 0.999378
vn 0.000000 0.035265 0.999378
vn 0.908805 0.417222 0.000000
vn 0.908805 0.417222 0.000000
vn 0.999378 0.035265 0.000000
vn 0.999378 0.035265 0.000000
vn 0.000000 0.035265 -0.999378
vn 0.000000 0.035265 -0.999378
vn 0.000000 0.417222 -0.908805
vn 0.000000 0.417222 -0.908805
vn -0.999378 0.035265 0.000000
vn -0.999378 0.035265 0.000000
vn -0.999954 0.009597 0.000000
vn -0.999954 0.009597 0.000000
vn 0.000000 0.035265 0.999378
vn 0.000000 0.035265 0.999378
vn 0.000000 0.009597 0.999954
vn 0.000000 0.009597 0.999954
vn 0.999378 0.035265 0.000000
vn 0.999378 0.035265 0.000000
vn 0.999954 0.009597 0.000000
vn 0.999954 0.009597 0.000000
vn 0.000000 0.009597 -0.999954
vn 0.000000 0.009597 -0.999954
vn 0.000000 0.035265 -0.999378
vn 0.000000 0.035265 -0.999378
vn 0.000000 0.527511 -0.849548
vn 0.000000 0.527511 -0.849548
vn 0.000000 0.606727 -0.794910
vn 0.000000 0.606727 -0.794910
vn -0.794911 0.606727 0.000000
vn -0.794911 0.606727 0.000000
vn -0.849548 0.527511 0.000000
vn -0.849548 0.527511 0.000000
vn 0.000000 0.606727 0.794910
vn 0.000000 0.606727 0.794910
vn 0.000000 0.527511 0.849548
vn 0.000000 0.527511 0.849548
vn 0.794911 0.606727 0.000000
vn 0.794911 0.606727 0.000000
vn 0.849548 0.527511 0.000000
vn 0.849548 0.527511 0.000000
vn 0.000000 0.392869 -0.919594
vn 0.000000 0.392869 -0.919594
vn 0.000000 0.527511 -0.849548
vn 0.000000 0.527511 -0.849548
vn -0.849548 0.527511 0.000000
vn -0.849548 0.527511 0.000000
vn -0.919595 0.392869 0.000000
vn -0.919595 0.392869 0.000000
vn 0.000000 0.527511 0.849548
vn 0.000000 0.527511 0.849548
vn 0.000000 0.392869 0.919594
vn 0.000000 0.392869 0.919594
vn 0.849548 0.527511 0.000000
vn 0.849548 0.527511 0.000000
vn 0.919594 0.392869 0.000000
vn 0.919594 0.392869 0.000000
vn -0.999992 -0.004092 0.000000
vn -0.999992 -0.004092 0.000000
vn -0.965205 0.261493 -0.000000
vn -0.965205 0.261493 -0.000000
vn 0.000000 -0.004092 0.999992
vn 0.000000 -0.004092 0.999992
vn 0.000000 0.261492 0.965206
vn 0.000000 0.261492 0.965206
vn 0.999992 -0.004092 0.000000
vn 0.999992 -0.004092 0.000000
vn 0.965205 0.261493 0.000000
vn 0.965205 0.261493 0.000000
vn 0.000000 0.261493 -0.965205
vn 0.000000 0.261493 -0.965205
vn 0.000000 -0.004092 -0.999992
vn 0.000000 -0.004092 -0.999992
s off
usemtl ghost_initialShadingGroup
f 35/1/1 36/2/2 12/3/3 9/4/4
f 3/5/5 4/6/6 6/7/7 5/8/8
f 10/9/9 11/10/10 33/11/11 34/12/12
f 7/13/13 8/14/14 2/15/15 1/16/16
f 36/2/17 33/17/18 11/18/19 12/3/20
f 34/19/21 35/1/22 9/4/23 10/20/24
f 37/21/25 38/22/26 3/5/27 5/23/28
f 5/8/29 6/7/30 40/24/31 37/25/32
f 39/26/33 40/27/34 6/28/35 4/6/36
f 38/22/37 39/26/38 4/6/39 3/5/40
f 14/29/41 13/30/42 20/31/43 17/32/44
f 17/33/45 18/34/46 15/35/47 14/36/48
f 18/34/49 19/37/50 16/38/51 15/35/52
f 19/37/53 20/39/54 13/40/55 16/38/56
f 25/41/57 26/42/58 18/34/59 17/33/60
f 26/42/61 27/43/62 19/37/63 18/34/64
f 27/43/65 28/44/66 20/39/67 19/37/68
f 17/32/69 20/31/70 28/45/71 25/46/72
f 10/20/73 9/4/74 22/47/75 21/48/76
f 9/4/77 12/3/78 23/49/79 22/47/80
f 12/3/81 11/18/82 24/50/83 23/49/84
f 21/51/85 24/52/86 11/10/87 10/9/88
f 21/48/89 22/47/90 26/42/91 25/41/92
f 22/47/93 23/49/94 27/43/95 26/42/96
f 23/49/97 24/50/98 28/44/99 27/43/100
f 25/46/101 28/45/102 24/52/103 21/51/104
f 30/53/105 29/54/106 8/14/107 7/13/108
f 7/55/109 1/56/110 31/57/111 30/58/112
f 1/56/113 2/59/114 32/60/115 31/57/116
f 2/59/117 8/61/118 29/62/119 32/60/120
f 34/12/121 33/11/122 29/54/123 30/53/124
f 30/58/125 31/57/126 35/1/127 34/19/128
f 31/57/129 32/60/130 36/2/131 35/1/132
f 32/60/133 29/62/134 33/17/135 36/2/136
f 14/36/137 15/35/138 38/22/139 37/21/140
f 15/35/141 16/38/142 39/26/143 38/22/144
f 16/38/145 13/40/146 40/27/147 39/26/148
f 37/25/149 40/24/150 13/30/151 14/29/152
