# This file uses centimeters as units for non-parametric coordinates.

mtllib lamp_lampShaft_3.mtl
v 0.391878 0.000000 -0.171664
v 0.288723 0.000000 -0.313646
v 0.136736 0.000000 -0.401395
v -0.037802 0.000000 -0.419740
v -0.204711 0.000000 -0.365508
v -0.335132 0.000000 -0.248076
v -0.406514 0.000000 -0.087750
v -0.406515 0.000000 0.087750
v -0.335132 0.000000 0.248076
v -0.204711 0.000000 0.365508
v -0.037802 0.000000 0.419740
v 0.136736 0.000000 0.401395
v 0.288723 0.000000 0.313646
v 0.391878 0.000000 0.171664
v 0.428367 0.000000 0.000000
v 0.182450 0.250000 -0.077292
v 0.136003 0.250000 -0.141220
v 0.067572 0.250000 -0.180730
v -0.011014 0.250000 -0.188988
v -0.086166 0.250000 -0.164570
v -0.144888 0.250000 -0.111698
v -0.177029 0.250000 -0.039509
v -0.177029 0.250000 0.039509
v -0.144888 0.250000 0.111698
v -0.086166 0.250000 0.164570
v -0.011014 0.250000 0.188988
v 0.067572 0.250000 0.180728
v 0.136003 0.250000 0.141220
v 0.182450 0.250000 0.077292
v 0.198881 0.250000 0.000000
v 0.091799 0.500000 -0.036484
v 0.069877 0.500000 -0.066658
v 0.037575 0.500000 -0.085308
v 0.000481 0.500000 -0.089207
v -0.034992 0.500000 -0.077681
v -0.062710 0.500000 -0.052723
v -0.077881 0.500000 -0.018649
v -0.077881 0.500000 0.018649
v -0.062710 0.500000 0.052723
v -0.034992 0.500000 0.077681
v 0.000481 0.500000 0.089207
v 0.037575 0.500000 0.085308
v 0.069877 0.500000 0.066659
v 0.091799 0.500000 0.036484
v 0.099554 0.500000 0.000000
v 0.091799 0.750000 -0.036484
v 0.069877 0.750000 -0.066658
v 0.037575 0.750000 -0.085308
v 0.000481 0.750000 -0.089207
v -0.034992 0.750000 -0.077681
v -0.062710 0.750000 -0.052723
v -0.077881 0.750000 -0.018649
v -0.077881 0.750000 0.018649
v -0.062710 0.750000 0.052723
v -0.034992 0.750000 0.077681
v 0.000481 0.750000 0.089207
v 0.037575 0.750000 0.085308
v 0.069877 0.750000 0.066659
v 0.091799 0.750000 0.036484
v 0.099554 0.750000 0.000000
v -0.004802 2.032941 0.000000
v -0.062710 1.805474 0.052723
v -0.077881 1.805474 0.018649
v -0.077881 1.805474 -0.018649
v -0.062710 1.805474 -0.052723
v -0.034992 1.805474 -0.077681
v 0.000481 1.805474 -0.089207
v 0.037575 1.805474 -0.085308
v 0.069877 1.805474 -0.066658
v 0.091799 1.805474 -0.036484
v 0.099554 1.805474 0.000000
v 0.091799 1.805474 0.036484
v 0.069877 1.805474 0.066659
v 0.037575 1.805474 0.085308
v 0.000481 1.805474 0.089207
v -0.034992 1.805474 0.077681
v -0.084745 1.823716 0.068733
v -0.084745 2.018242 0.068733
v -0.104523 2.018242 0.024313
v -0.104523 1.823716 0.024313
v -0.104523 1.823716 -0.024313
v -0.104523 2.018242 -0.024313
v -0.084745 1.823716 -0.068733
v -0.084745 2.018242 -0.068733
v -0.048611 1.823716 -0.101268
v -0.048611 2.018242 -0.101268
v -0.002367 1.823716 -0.116293
v -0.002367 2.018242 -0.116293
v 0.045991 1.823716 -0.111211
v 0.045991 2.018242 -0.111211
v 0.088101 1.823716 -0.086898
v 0.088101 2.018242 -0.086898
v 0.116682 1.823716 -0.047562
v 0.116682 2.018242 -0.047562
v 0.126791 1.823716 0.000000
v 0.126791 2.018242 0.000000
v 0.116682 1.823716 0.047562
v 0.116682 2.018242 0.047562
v 0.088101 1.823716 0.086900
v 0.088101 2.018242 0.086900
v 0.045991 1.823716 0.111212
v 0.045991 2.018242 0.111212
v -0.002367 1.823716 0.116293
v -0.002367 2.018242 0.116293
v -0.048611 1.823716 0.101268
v -0.048611 2.018242 0.101268
vt 0.003246 0.600923
vt 0.003174 0.567441
vt 0.086776 0.567259
vt 0.086849 0.600741
vt 0.003101 0.534073
vt 0.086703 0.533891
vt 0.003029 0.500850
vt 0.086631 0.500668
vt 0.004111 0.998691
vt 0.004039 0.965616
vt 0.087641 0.965434
vt 0.087713 0.998510
vt 0.003967 0.932668
vt 0.087569 0.932487
vt 0.003896 0.899805
vt 0.087498 0.899623
vt 0.003824 0.866972
vt 0.087427 0.866790
vt 0.003753 0.834108
vt 0.087355 0.833927
vt 0.003681 0.801160
vt 0.087284 0.800979
vt 0.003610 0.768085
vt 0.087212 0.767904
vt 0.003537 0.734862
vt 0.087140 0.734680
vt 0.003465 0.701494
vt 0.087067 0.701313
vt 0.003392 0.668013
vt 0.086994 0.667831
vt 0.003319 0.634467
vt 0.086922 0.634286
vt 0.170379 0.567078
vt 0.170452 0.600559
vt 0.170306 0.533710
vt 0.170234 0.500487
vt 0.171244 0.965253
vt 0.171316 0.998328
vt 0.171172 0.932305
vt 0.171101 0.899441
vt 0.171030 0.866608
vt 0.170958 0.833745
vt 0.170887 0.800797
vt 0.170815 0.767721
vt 0.170743 0.734499
vt 0.170670 0.701131
vt 0.170597 0.667650
vt 0.170524 0.634104
vt 0.253981 0.566897
vt 0.254054 0.600377
vt 0.253909 0.533529
vt 0.253836 0.500306
vt 0.254846 0.965071
vt 0.254918 0.998147
vt 0.254775 0.932123
vt 0.254703 0.899260
vt 0.254632 0.866427
vt 0.254561 0.833563
vt 0.254489 0.800615
vt 0.254417 0.767540
vt 0.254345 0.734317
vt 0.254272 0.700949
vt 0.254200 0.667468
vt 0.254127 0.633923
vt 0.606943 0.566130
vt 0.607016 0.599610
vt 0.606870 0.532762
vt 0.606798 0.499539
vt 0.607808 0.964305
vt 0.607880 0.997380
vt 0.607736 0.931357
vt 0.607665 0.898493
vt 0.607594 0.865660
vt 0.607522 0.832797
vt 0.607451 0.799848
vt 0.607379 0.766773
vt 0.607307 0.733550
vt 0.607234 0.700182
vt 0.607161 0.666701
vt 0.607088 0.633156
vt 0.682615 0.744940
vt 0.678168 0.599540
vt 0.678095 0.566126
vt 0.678023 0.532800
vt 0.677950 0.499583
vt 0.683697 0.881911
vt 0.679032 0.997425
vt 0.678960 0.964323
vt 0.678888 0.931319
vt 0.678817 0.898380
vt 0.678745 0.865464
vt 0.678674 0.832525
vt 0.678602 0.799521
vt 0.678530 0.766419
vt 0.678458 0.733203
vt 0.678386 0.699877
vt 0.678313 0.666463
vt 0.678240 0.633001
vt 0.677159 0.496030
vt 0.613622 0.832667
vt 0.613694 0.865605
vt 0.613765 0.898521
vt 0.613837 0.931460
vt 0.613909 0.964464
vt 0.613980 0.997566
vt 0.612971 0.532941
vt 0.612899 0.499725
vt 0.613043 0.566268
vt 0.613116 0.599681
vt 0.613189 0.633142
vt 0.613261 0.666604
vt 0.613334 0.700018
vt 0.613406 0.733344
vt 0.613479 0.766560
vt 0.613551 0.799662
vt 0.678023 0.893669
vt 0.677950 0.860453
vt 0.678095 0.926996
vt 0.678168 0.960409
vn 0.672564 0.676589 -0.299809
vn 0.491670 0.677578 -0.546945
vn 0.519619 0.630436 -0.576668
vn 0.709957 0.629404 -0.315930
vn 0.491670 0.677578 -0.546945
vn 0.226126 0.679028 -0.698418
vn 0.239832 0.631953 -0.736964
vn 0.519619 0.630436 -0.576668
vn 0.226126 0.679028 -0.698418
vn -0.077369 0.680682 -0.728482
vn -0.080493 0.633684 -0.769393
vn 0.239832 0.631953 -0.736964
vn -0.077369 0.680682 -0.728482
vn -0.366153 0.682253 -0.632821
vn -0.385834 0.635333 -0.668943
vn -0.080493 0.633684 -0.769393
vn -0.366153 0.682253 -0.632821
vn -0.590837 0.683472 -0.428693
vn -0.623768 0.636615 -0.453469
vn -0.385834 0.635333 -0.668943
vn -0.590837 0.683472 -0.428693
vn -0.713450 0.684137 -0.151482
vn -0.753747 0.637315 -0.160296
vn -0.623768 0.636615 -0.453469
vn -0.713450 0.684137 -0.151482
vn -0.713450 0.684137 0.151482
vn -0.753747 0.637315 0.160296
vn -0.753747 0.637315 -0.160296
vn -0.713450 0.684137 0.151482
vn -0.590837 0.683472 0.428692
vn -0.623768 0.636615 0.453469
vn -0.753747 0.637315 0.160296
vn -0.590837 0.683472 0.428692
vn -0.366153 0.682253 0.632821
vn -0.385834 0.635333 0.668943
vn -0.623768 0.636615 0.453469
vn -0.366153 0.682253 0.632821
vn -0.077366 0.680683 0.728481
vn -0.080489 0.633685 0.769393
vn -0.385834 0.635333 0.668943
vn -0.077366 0.680683 0.728481
vn 0.226125 0.679029 0.698417
vn 0.239832 0.631953 0.736964
vn -0.080489 0.633685 0.769393
vn 0.226125 0.679029 0.698417
vn 0.491667 0.677579 0.546946
vn 0.519616 0.630437 0.576670
vn 0.239832 0.631953 0.736964
vn 0.491667 0.677579 0.546946
vn 0.672564 0.676589 0.299809
vn 0.709957 0.629404 0.315930
vn 0.519616 0.630437 0.576670
vn 0.672564 0.676589 0.299809
vn 0.736683 0.676238 0.000000
vn 0.777373 0.629040 0.000000
vn 0.709957 0.629404 0.315930
vn 0.736683 0.676238 0.000000
vn 0.672564 0.676589 -0.299809
vn 0.709957 0.629404 -0.315930
vn 0.777373 0.629040 0.000000
vn 0.709957 0.629404 -0.315930
vn 0.519619 0.630436 -0.576668
vn 0.632872 0.325701 -0.702419
vn 0.864045 0.324908 -0.384527
vn 0.519619 0.630436 -0.576668
vn 0.239832 0.631953 -0.736964
vn 0.292404 0.326872 -0.898696
vn 0.632872 0.325701 -0.702419
vn 0.239832 0.631953 -0.736964
vn -0.080493 0.633684 -0.769393
vn -0.098348 0.328212 -0.939470
vn 0.292404 0.326872 -0.898696
vn -0.080493 0.633684 -0.769393
vn -0.385834 0.635333 -0.668943
vn -0.471773 0.329494 -0.817841
vn -0.098348 0.328212 -0.939470
vn -0.385834 0.635333 -0.668943
vn -0.623768 0.636615 -0.453469
vn -0.763418 0.330497 -0.554946
vn -0.471773 0.329494 -0.817841
vn -0.623768 0.636615 -0.453469
vn -0.753747 0.637315 -0.160296
vn -0.922976 0.331047 -0.196272
vn -0.763418 0.330497 -0.554946
vn -0.753747 0.637315 -0.160296
vn -0.753747 0.637315 0.160296
vn -0.922976 0.331047 0.196272
vn -0.922976 0.331047 -0.196272
vn -0.753747 0.637315 0.160296
vn -0.623768 0.636615 0.453469
vn -0.763418 0.330497 0.554946
vn -0.922976 0.331047 0.196272
vn -0.623768 0.636615 0.453469
vn -0.385834 0.635333 0.668943
vn -0.471773 0.329494 0.817841
vn -0.763418 0.330497 0.554946
vn -0.385834 0.635333 0.668943
vn -0.080489 0.633685 0.769393
vn -0.098343 0.328211 0.939471
vn -0.471773 0.329494 0.817841
vn -0.080489 0.633685 0.769393
vn 0.239832 0.631953 0.736964
vn 0.292403 0.326869 0.898698
vn -0.098343 0.328211 0.939471
vn 0.239832 0.631953 0.736964
vn 0.519616 0.630437 0.576670
vn 0.632868 0.325700 0.702422
vn 0.292403 0.326869 0.898698
vn 0.519616 0.630437 0.576670
vn 0.709957 0.629404 0.315930
vn 0.864045 0.324908 0.384527
vn 0.632868 0.325700 0.702422
vn 0.709957 0.629404 0.315930
vn 0.777373 0.629040 0.000000
vn 0.945841 0.324629 0.000000
vn 0.864045 0.324908 0.384527
vn 0.777373 0.629040 0.000000
vn 0.709957 0.629404 -0.315930
vn 0.864045 0.324908 -0.384527
vn 0.945841 0.324629 0.000000
vn 0.864045 0.324908 -0.384527
vn 0.632872 0.325701 -0.702419
vn 0.669134 0.000000 -0.743142
vn 0.913546 0.000000 -0.406735
vn 0.632872 0.325701 -0.702419
vn 0.292404 0.326872 -0.898696
vn 0.309018 0.000000 -0.951056
vn 0.669134 0.000000 -0.743142
vn 0.292404 0.326872 -0.898696
vn -0.098348 0.328212 -0.939470
vn -0.104530 0.000000 -0.994522
vn 0.309018 0.000000 -0.951056
vn -0.098348 0.328212 -0.939470
vn -0.471773 0.329494 -0.817841
vn -0.499998 0.000000 -0.866027
vn -0.104530 0.000000 -0.994522
vn -0.471773 0.329494 -0.817841
vn -0.763418 0.330497 -0.554946
vn -0.809020 0.000000 -0.587782
vn -0.499998 0.000000 -0.866027
vn -0.763418 0.330497 -0.554946
vn -0.922976 0.331047 -0.196272
vn -0.978148 0.000000 -0.207910
vn -0.809020 0.000000 -0.587782
vn -0.922976 0.331047 -0.196272
vn -0.922976 0.331047 0.196272
vn -0.978148 0.000000 0.207910
vn -0.978148 0.000000 -0.207910
vn -0.922976 0.331047 0.196272
vn -0.763418 0.330497 0.554946
vn -0.809020 0.000000 0.587782
vn -0.978148 0.000000 0.207910
vn -0.763418 0.330497 0.554946
vn -0.471773 0.329494 0.817841
vn -0.499998 0.000000 0.866027
vn -0.809020 0.000000 0.587782
vn -0.471773 0.329494 0.817841
vn -0.098343 0.328211 0.939471
vn -0.104530 0.000000 0.994522
vn -0.499998 0.000000 0.866027
vn -0.098343 0.328211 0.939471
vn 0.292403 0.326869 0.898698
vn 0.309016 0.000000 0.951057
vn -0.104530 0.000000 0.994522
vn 0.292403 0.326869 0.898698
vn 0.632868 0.325700 0.702422
vn 0.669134 0.000000 0.743142
vn 0.309016 0.000000 0.951057
vn 0.632868 0.325700 0.702422
vn 0.864045 0.324908 0.384527
vn 0.913547 0.000000 0.406734
vn 0.669134 0.000000 0.743142
vn 0.864045 0.324908 0.384527
vn 0.945841 0.324629 0.000000
vn 1.000000 0.000000 0.000000
vn 0.913547 0.000000 0.406734
vn 0.945841 0.324629 0.000000
vn 0.864045 0.324908 -0.384527
vn 0.913546 0.000000 -0.406735
vn 1.000000 0.000000 0.000000
vn 0.669134 0.000000 -0.743142
vn 0.669134 0.000000 -0.743142
vn 0.913546 0.000000 -0.406735
vn 0.913546 0.000000 -0.406735
vn 0.309018 0.000000 -0.951056
vn 0.309018 0.000000 -0.951056
vn 0.669134 0.000000 -0.743142
vn 0.669134 0.000000 -0.743142
vn -0.104530 0.000000 -0.994522
vn -0.104530 0.000000 -0.994522
vn 0.309018 0.000000 -0.951056
vn 0.309018 0.000000 -0.951056
vn -0.499998 0.000000 -0.866027
vn -0.499998 0.000000 -0.866027
vn -0.104530 0.000000 -0.994522
vn -0.104530 0.000000 -0.994522
vn -0.809020 0.000000 -0.587782
vn -0.809020 0.000000 -0.587782
vn -0.499998 0.000000 -0.866027
vn -0.499998 0.000000 -0.866027
vn -0.978148 0.000000 -0.207910
vn -0.978148 0.000000 -0.207910
vn -0.809020 0.000000 -0.587782
vn -0.809020 0.000000 -0.587782
vn -0.978148 0.000000 0.207910
vn -0.978148 0.000000 0.207910
vn -0.978148 0.000000 -0.207910
vn -0.978148 0.000000 -0.207910
vn -0.809020 0.000000 0.587782
vn -0.809020 0.000000 0.587782
vn -0.978148 0.000000 0.207910
vn -0.978148 0.000000 0.207910
vn -0.499998 0.000000 0.866027
vn -0.499998 0.000000 0.866027
vn -0.809020 0.000000 0.587782
vn -0.809020 0.000000 0.587782
vn -0.104530 0.000000 0.994522
vn -0.104530 0.000000 0.994522
vn -0.499998 0.000000 0.866027
vn -0.499998 0.000000 0.866027
vn 0.309016 0.000000 0.951057
vn 0.309016 0.000000 0.951057
vn -0.104530 0.000000 0.994522
vn -0.104530 0.000000 0.994522
vn 0.669134 0.000000 0.743142
vn 0.669134 0.000000 0.743142
vn 0.309016 0.000000 0.951057
vn 0.309016 0.000000 0.951057
vn 0.913547 0.000000 0.406734
vn 0.913547 0.000000 0.406734
vn 0.669134 0.000000 0.743142
vn 0.669134 0.000000 0.743142
vn 1.000000 0.000000 0.000000
vn 1.000000 0.000000 0.000000
vn 0.913547 0.000000 0.406734
vn 0.913547 0.000000 0.406734
vn 0.913546 0.000000 -0.406735
vn 0.913546 0.000000 -0.406735
vn 1.000000 0.000000 0.000000
vn 1.000000 0.000000 0.000000
vn -0.011159 0.999938 0.000000
vn 0.145998 0.987227 -0.063777
vn 0.111051 0.986529 -0.120115
vn -0.011159 0.999938 0.000000
vn 0.111051 0.986529 -0.120115
vn 0.055475 0.985383 -0.161071
vn -0.011159 0.999938 0.000000
vn 0.055475 0.985383 -0.161071
vn -0.015279 0.983857 -0.178305
vn -0.011159 0.999938 0.000000
vn -0.015279 0.983857 -0.178305
vn -0.091195 0.982138 -0.164584
vn -0.011159 0.999938 0.000000
vn -0.091195 0.982138 -0.164584
vn -0.157234 0.980575 -0.117261
vn -0.011159 0.999938 0.000000
vn -0.157234 0.980575 -0.117261
vn -0.196274 0.979621 -0.042649
vn -0.011159 0.999938 0.000000
vn -0.196274 0.979621 -0.042649
vn -0.196274 0.979621 0.042649
vn -0.011159 0.999938 0.000000
vn -0.196274 0.979621 0.042649
vn -0.157234 0.980575 0.117262
vn -0.011159 0.999938 0.000000
vn -0.157234 0.980575 0.117262
vn -0.091195 0.982138 0.164585
vn -0.011159 0.999938 0.000000
vn -0.091195 0.982138 0.164585
vn -0.015279 0.983856 0.178306
vn -0.011159 0.999938 0.000000
vn -0.015279 0.983856 0.178306
vn 0.055475 0.985383 0.161071
vn -0.011159 0.999938 0.000000
vn 0.055475 0.985383 0.161071
vn 0.111051 0.986529 0.120114
vn -0.011159 0.999938 0.000000
vn 0.111051 0.986529 0.120114
vn 0.145998 0.987227 0.063777
vn -0.011159 0.999938 0.000000
vn 0.145998 0.987227 0.063777
vn 0.157869 0.987460 0.000000
vn -0.011159 0.999938 0.000000
vn 0.157869 0.987460 0.000000
vn 0.145998 0.987227 -0.063777
vn -0.809019 0.000000 0.587783
vn -0.809019 0.000000 0.587783
vn -0.978148 0.000000 0.207910
vn -0.978148 0.000000 0.207910
vn -0.978148 0.000000 -0.207910
vn -0.978148 0.000000 0.207910
vn -0.978148 0.000000 0.207910
vn -0.978148 0.000000 -0.207910
vn -0.809019 0.000000 -0.587783
vn -0.978148 0.000000 -0.207910
vn -0.978148 0.000000 -0.207910
vn -0.809019 0.000000 -0.587783
vn -0.499999 0.000000 -0.866026
vn -0.809019 0.000000 -0.587783
vn -0.809019 0.000000 -0.587783
vn -0.499999 0.000000 -0.866026
vn -0.104529 0.000000 -0.994522
vn -0.499999 0.000000 -0.866026
vn -0.499999 0.000000 -0.866026
vn -0.104529 0.000000 -0.994522
vn 0.309019 0.000000 -0.951056
vn -0.104529 0.000000 -0.994522
vn -0.104529 0.000000 -0.994522
vn 0.309019 0.000000 -0.951056
vn 0.669132 0.000000 -0.743143
vn 0.309019 0.000000 -0.951056
vn 0.309019 0.000000 -0.951056
vn 0.669132 0.000000 -0.743143
vn 0.913547 0.000000 -0.406734
vn 0.669132 0.000000 -0.743143
vn 0.669132 0.000000 -0.743143
vn 0.913547 0.000000 -0.406734
vn 1.000000 0.000000 0.000000
vn 0.913547 0.000000 -0.406734
vn 0.913547 0.000000 -0.406734
vn 1.000000 0.000000 0.000000
vn 0.913547 0.000000 0.406734
vn 1.000000 0.000000 0.000000
vn 1.000000 0.000000 0.000000
vn 0.913547 0.000000 0.406734
vn 0.669132 0.000000 0.743143
vn 0.913547 0.000000 0.406734
vn 0.913547 0.000000 0.406734
vn 0.669132 0.000000 0.743143
vn 0.309017 0.000000 0.951056
vn 0.669132 0.000000 0.743143
vn 0.669132 0.000000 0.743143
vn 0.309017 0.000000 0.951056
vn -0.104530 0.000000 0.994522
vn 0.309017 0.000000 0.951056
vn 0.309017 0.000000 0.951056
vn -0.104530 0.000000 0.994522
vn -0.499999 0.000000 0.866026
vn -0.104530 0.000000 0.994522
vn -0.104530 0.000000 0.994522
vn -0.499999 0.000000 0.866026
vn -0.809019 0.000000 0.587783
vn -0.499999 0.000000 0.866026
vn -0.499999 0.000000 0.866026
vn -0.809019 0.000000 0.587783
vn -0.676876 -0.721900 0.143873
vn -0.559839 -0.721900 0.406744
vn -0.559839 -0.721900 0.406744
vn -0.676876 -0.721900 0.143873
vn -0.676876 -0.721900 -0.143874
vn -0.676876 -0.721900 0.143873
vn -0.676876 -0.721900 0.143873
vn -0.676876 -0.721900 -0.143874
vn -0.559839 -0.721900 -0.406744
vn -0.676876 -0.721900 -0.143874
vn -0.676876 -0.721900 -0.143874
vn -0.559839 -0.721900 -0.406744
vn -0.345998 -0.721900 -0.599288
vn -0.559839 -0.721900 -0.406744
vn -0.559839 -0.721900 -0.406744
vn -0.345998 -0.721900 -0.599288
vn -0.072334 -0.721899 -0.688207
vn -0.345998 -0.721900 -0.599288
vn -0.345998 -0.721900 -0.599288
vn -0.072334 -0.721899 -0.688207
vn 0.213840 -0.721900 -0.658128
vn -0.072334 -0.721899 -0.688207
vn -0.072334 -0.721899 -0.688207
vn 0.213840 -0.721900 -0.658128
vn 0.463038 -0.721900 -0.514253
vn 0.213840 -0.721900 -0.658128
vn 0.213840 -0.721900 -0.658128
vn 0.463038 -0.721900 -0.514253
vn 0.632172 -0.721900 -0.281459
vn 0.463038 -0.721900 -0.514253
vn 0.463038 -0.721900 -0.514253
vn 0.632172 -0.721900 -0.281459
vn 0.691997 -0.721900 0.000000
vn 0.632172 -0.721900 -0.281459
vn 0.632172 -0.721900 -0.281459
vn 0.691997 -0.721900 0.000000
vn 0.632172 -0.721900 0.281458
vn 0.691997 -0.721900 0.000000
vn 0.691997 -0.721900 0.000000
vn 0.632172 -0.721900 0.281458
vn 0.463039 -0.721900 0.514252
vn 0.632172 -0.721900 0.281458
vn 0.632172 -0.721900 0.281458
vn 0.463039 -0.721900 0.514252
vn 0.213839 -0.721900 0.658128
vn 0.463039 -0.721900 0.514252
vn 0.463039 -0.721900 0.514252
vn 0.213839 -0.721900 0.658128
vn -0.072334 -0.721899 0.688208
vn 0.213839 -0.721900 0.658128
vn 0.213839 -0.721900 0.658128
vn -0.072334 -0.721899 0.688208
vn -0.345997 -0.721900 0.599288
vn -0.072334 -0.721899 0.688208
vn -0.072334 -0.721899 0.688208
vn -0.345997 -0.721900 0.599288
vn -0.559839 -0.721900 0.406744
vn -0.345997 -0.721900 0.599288
vn -0.345997 -0.721900 0.599288
vn -0.559839 -0.721900 0.406744
s off
usemtl lamp_lampShaft_3_initialShadingGroup
f 1/1/1 2/2/2 17/3/3 16/4/4
f 2/2/5 3/5/6 18/6/7 17/3/8
f 3/5/9 4/7/10 19/8/11 18/6/12
f 4/9/13 5/10/14 20/11/15 19/12/16
f 5/10/17 6/13/18 21/14/19 20/11/20
f 6/13/21 7/15/22 22/16/23 21/14/24
f 7/15/25 8/17/26 23/18/27 22/16/28
f 8/17/29 9/19/30 24/20/31 23/18/32
f 9/19/33 10/21/34 25/22/35 24/20/36
f 10/21/37 11/23/38 26/24/39 25/22/40
f 11/23/41 12/25/42 27/26/43 26/24/44
f 12/25/45 13/27/46 28/28/47 27/26/48
f 13/27/49 14/29/50 29/30/51 28/28/52
f 14/29/53 15/31/54 30/32/55 29/30/56
f 15/31/57 1/1/58 16/4/59 30/32/60
f 16/4/61 17/3/62 32/33/63 31/34/64
f 17/3/65 18/6/66 33/35/67 32/33/68
f 18/6/69 19/8/70 34/36/71 33/35/72
f 19/12/73 20/11/74 35/37/75 34/38/76
f 20/11/77 21/14/78 36/39/79 35/37/80
f 21/14/81 22/16/82 37/40/83 36/39/84
f 22/16/85 23/18/86 38/41/87 37/40/88
f 23/18/89 24/20/90 39/42/91 38/41/92
f 24/20/93 25/22/94 40/43/95 39/42/96
f 25/22/97 26/24/98 41/44/99 40/43/100
f 26/24/101 27/26/102 42/45/103 41/44/104
f 27/26/105 28/28/106 43/46/107 42/45/108
f 28/28/109 29/30/110 44/47/111 43/46/112
f 29/30/113 30/32/114 45/48/115 44/47/116
f 30/32/117 16/4/118 31/34/119 45/48/120
f 31/34/121 32/33/122 47/49/123 46/50/124
f 32/33/125 33/35/126 48/51/127 47/49/128
f 33/35/129 34/36/130 49/52/131 48/51/132
f 34/38/133 35/37/134 50/53/135 49/54/136
f 35/37/137 36/39/138 51/55/139 50/53/140
f 36/39/141 37/40/142 52/56/143 51/55/144
f 37/40/145 38/41/146 53/57/147 52/56/148
f 38/41/149 39/42/150 54/58/151 53/57/152
f 39/42/153 40/43/154 55/59/155 54/58/156
f 40/43/157 41/44/158 56/60/159 55/59/160
f 41/44/161 42/45/162 57/61/163 56/60/164
f 42/45/165 43/46/166 58/62/167 57/61/168
f 43/46/169 44/47/170 59/63/171 58/62/172
f 44/47/173 45/48/174 60/64/175 59/63/176
f 45/48/177 31/34/178 46/50/179 60/64/180
f 47/49/181 69/65/182 70/66/183 46/50/184
f 48/51/185 68/67/186 69/65/187 47/49/188
f 49/52/189 67/68/190 68/67/191 48/51/192
f 50/53/193 66/69/194 67/70/195 49/54/196
f 51/55/197 65/71/198 66/69/199 50/53/200
f 52/56/201 64/72/202 65/71/203 51/55/204
f 53/57/205 63/73/206 64/72/207 52/56/208
f 54/58/209 62/74/210 63/73/211 53/57/212
f 55/59/213 76/75/214 62/74/215 54/58/216
f 56/60/217 75/76/218 76/75/219 55/59/220
f 57/61/221 74/77/222 75/76/223 56/60/224
f 58/62/225 73/78/226 74/77/227 57/61/228
f 59/63/229 72/79/230 73/78/231 58/62/232
f 60/64/233 71/80/234 72/79/235 59/63/236
f 46/50/237 70/66/238 71/80/239 60/64/240
f 61/81/241 94/119/242 92/118/243
f 61/81/244 92/118/245 90/116/246
f 61/81/247 90/116/248 88/117/249
f 61/86/250 88/87/251 86/88/252
f 61/86/253 86/88/254 84/89/255
f 61/86/256 84/89/257 82/90/258
f 61/86/259 82/90/260 79/91/261
f 61/86/262 79/91/263 78/92/264
f 61/86/265 78/92/266 106/93/267
f 61/86/268 106/93/269 104/94/270
f 61/86/271 104/94/272 102/95/273
f 61/86/274 102/95/275 100/96/276
f 61/86/277 100/96/278 98/97/279
f 61/86/280 98/97/281 96/98/282
f 61/81/283 96/99/284 94/119/285
f 77/100/286 78/92/287 79/91/288 80/101/289
f 81/102/290 80/101/291 79/91/292 82/90/293
f 83/103/294 81/102/295 82/90/296 84/89/297
f 85/104/298 83/103/299 84/89/300 86/88/301
f 87/105/302 85/104/303 86/88/304 88/87/305
f 89/106/306 87/107/307 88/85/308 90/84/309
f 91/108/310 89/106/311 90/84/312 92/83/313
f 93/109/314 91/108/315 92/83/316 94/82/317
f 95/110/318 93/109/319 94/82/320 96/98/321
f 97/111/322 95/110/323 96/98/324 98/97/325
f 99/112/326 97/111/327 98/97/328 100/96/329
f 101/113/330 99/112/331 100/96/332 102/95/333
f 103/114/334 101/113/335 102/95/336 104/94/337
f 105/115/338 103/114/339 104/94/340 106/93/341
f 77/100/342 105/115/343 106/93/344 78/92/345
f 63/73/346 62/74/347 77/100/348 80/101/349
f 64/72/350 63/73/351 80/101/352 81/102/353
f 65/71/354 64/72/355 81/102/356 83/103/357
f 66/69/358 65/71/359 83/103/360 85/104/361
f 67/70/362 66/69/363 85/104/364 87/105/365
f 68/67/366 67/68/367 87/107/368 89/106/369
f 69/65/370 68/67/371 89/106/372 91/108/373
f 70/66/374 69/65/375 91/108/376 93/109/377
f 71/80/378 70/66/379 93/109/380 95/110/381
f 72/79/382 71/80/383 95/110/384 97/111/385
f 73/78/386 72/79/387 97/111/388 99/112/389
f 74/77/390 73/78/391 99/112/392 101/113/393
f 75/76/394 74/77/395 101/113/396 103/114/397
f 76/75/398 75/76/399 103/114/400 105/115/401
f 62/74/402 76/75/403 105/115/404 77/100/405
