# This file uses centimeters as units for non-parametric coordinates.

mtllib lamp_lampBase_2.mtl
v 0.456773 0.000000 -0.203368
v 0.334565 0.000000 -0.371572
v 0.154509 0.000000 -0.475528
v -0.052264 0.000000 -0.497261
v -0.250000 0.000000 -0.433013
v -0.404508 0.000000 -0.293893
v -0.489074 0.000000 -0.103956
v -0.489074 0.000000 0.103956
v -0.404508 0.000000 0.293893
v -0.250000 0.000000 0.433013
v -0.052264 0.000000 0.497261
v 0.154508 0.000000 0.475528
v 0.334565 0.000000 0.371572
v 0.456773 0.000000 0.203368
v 0.500000 0.000000 0.000000
v 0.913545 0.000000 -0.406736
v 0.669131 0.000000 -0.743145
v 0.309017 0.000000 -0.951056
v -0.104528 0.000000 -0.994522
v -0.500000 0.000000 -0.866025
v -0.809017 0.000000 -0.587785
v -0.978147 0.000000 -0.207912
v -0.978148 0.000000 0.207912
v -0.809017 0.000000 0.587785
v -0.500000 0.000000 0.866025
v -0.104529 0.000000 0.994522
v 0.309017 0.000000 0.951056
v 0.669131 0.000000 0.743145
v 0.913545 0.000000 0.406737
v 1.000000 0.000000 0.000000
v 0.913545 0.118130 -0.406736
v 0.669131 0.118130 -0.743145
v 0.309017 0.118130 -0.951056
v -0.104528 0.118130 -0.994522
v -0.500000 0.118130 -0.866025
v -0.809017 0.118130 -0.587785
v -0.978147 0.118130 -0.207912
v -0.978148 0.118130 0.207912
v -0.809017 0.118130 0.587785
v -0.500000 0.118130 0.866025
v -0.104529 0.118130 0.994522
v 0.309017 0.118130 0.951056
v 0.669131 0.118130 0.743145
v 0.913545 0.118130 0.406737
v 1.000000 0.118130 0.000000
v 0.380021 0.270637 -0.168782
v 0.278597 0.270637 -0.308381
v 0.129161 0.270637 -0.394658
v -0.042447 0.270637 -0.412694
v -0.206555 0.270637 -0.359373
v -0.334787 0.270637 -0.243912
v -0.404971 0.270637 -0.086277
v -0.404971 0.270637 0.086277
v -0.334787 0.270637 0.243912
v -0.206555 0.270637 0.359373
v -0.042447 0.270637 0.412694
v 0.129161 0.270637 0.394658
v 0.278597 0.270637 0.308381
v 0.380021 0.270637 0.168783
v 0.415897 0.270637 0.000000
v 0.000000 0.000000 0.000000
v 0.000000 0.270637 0.000000
v 0.411197 0.209826 0.182010
v 0.301823 0.209826 0.332549
v 0.140677 0.209826 0.425588
v -0.044381 0.209826 0.445038
v -0.221350 0.209826 0.387537
v -0.359632 0.209826 0.263027
v -0.435316 0.209826 0.093038
v -0.435316 0.209826 -0.093038
v -0.359632 0.209826 -0.263028
v -0.221350 0.209826 -0.387537
v -0.044380 0.209826 -0.445038
v 0.140677 0.209826 -0.425587
v 0.301824 0.209826 -0.332549
v 0.411196 0.209826 -0.182010
v 0.449884 0.209826 0.000000
v 0.735704 0.118130 0.327419
v 0.538953 0.118130 0.598224
v 0.249065 0.118130 0.765590
v -0.083835 0.118130 0.800579
v -0.402185 0.118130 0.697141
v -0.650940 0.118130 0.473161
v -0.787089 0.118130 0.167367
v -0.787089 0.118130 -0.167367
v -0.650940 0.118130 -0.473161
v -0.402185 0.118130 -0.697141
v -0.083834 0.118130 -0.800579
v 0.249065 0.118130 -0.765590
v 0.538953 0.118130 -0.598223
v 0.735704 0.118130 -0.327418
v 0.805299 0.118130 0.000000
vt 0.571371 0.124474
vt 0.552276 0.098192
vt 0.524142 0.081949
vt 0.491834 0.078553
vt 0.460938 0.088592
vt 0.436796 0.110329
vt 0.423582 0.140007
vt 0.423582 0.172493
vt 0.436796 0.202171
vt 0.460938 0.223908
vt 0.491834 0.233947
vt 0.524142 0.230551
vt 0.552276 0.214308
vt 0.571371 0.188026
vt 0.578125 0.156250
vt 0.642741 0.092697
vt 0.604552 0.040134
vt 0.548284 0.007647
vt 0.483667 0.000856
vt 0.421875 0.020934
vt 0.373591 0.064409
vt 0.347164 0.123764
vt 0.347164 0.188736
vt 0.373591 0.248091
vt 0.421875 0.291566
vt 0.483667 0.311644
vt 0.548284 0.304853
vt 0.604552 0.272366
vt 0.642741 0.219803
vt 0.656250 0.156250
vt 0.375000 0.312500
vt 0.391667 0.312500
vt 0.408333 0.312500
vt 0.425000 0.312500
vt 0.441667 0.312500
vt 0.458333 0.312500
vt 0.475000 0.312500
vt 0.491667 0.312500
vt 0.508333 0.312500
vt 0.525000 0.312500
vt 0.541667 0.312500
vt 0.558333 0.312500
vt 0.575000 0.312500
vt 0.591667 0.312500
vt 0.608333 0.312500
vt 0.625000 0.312500
vt 0.375000 0.688440
vt 0.391667 0.688440
vt 0.408333 0.688440
vt 0.425000 0.688440
vt 0.441667 0.688440
vt 0.458333 0.688440
vt 0.475000 0.688440
vt 0.491667 0.688440
vt 0.508333 0.688440
vt 0.525000 0.688440
vt 0.541667 0.688440
vt 0.558333 0.688440
vt 0.575000 0.688440
vt 0.591667 0.688440
vt 0.608333 0.688440
vt 0.625000 0.688440
vt 0.642741 0.780197
vt 0.604552 0.727634
vt 0.548284 0.695147
vt 0.483667 0.688356
vt 0.421875 0.708434
vt 0.373591 0.751909
vt 0.347164 0.811264
vt 0.347164 0.876236
vt 0.373591 0.935591
vt 0.421875 0.979066
vt 0.483667 0.999144
vt 0.548284 0.992353
vt 0.604552 0.959866
vt 0.642741 0.907303
vt 0.656250 0.843750
vt 0.571371 0.811974
vt 0.552276 0.785692
vt 0.524142 0.769449
vt 0.491834 0.766053
vt 0.460938 0.776092
vt 0.436796 0.797829
vt 0.423582 0.827507
vt 0.423582 0.859993
vt 0.436796 0.889671
vt 0.460938 0.911408
vt 0.491834 0.921447
vt 0.524142 0.918051
vt 0.552276 0.901808
vt 0.571371 0.875526
vt 0.578125 0.843750
vt 0.500000 0.150000
vt 0.500000 0.837500
vt 0.595161 0.801382
vt 0.569701 0.766339
vt 0.532189 0.744682
vt 0.489112 0.740154
vt 0.447917 0.753539
vt 0.415727 0.782522
vt 0.398110 0.822093
vt 0.398110 0.865407
vt 0.415727 0.904978
vt 0.447917 0.933961
vt 0.489112 0.947346
vt 0.532189 0.942818
vt 0.569701 0.921161
vt 0.595161 0.886118
vt 0.604167 0.843750
vt 0.618951 0.790789
vt 0.587126 0.746986
vt 0.540237 0.719915
vt 0.486390 0.714255
vt 0.434896 0.730986
vt 0.394659 0.767215
vt 0.372637 0.816678
vt 0.372637 0.870822
vt 0.394659 0.920285
vt 0.434896 0.956514
vt 0.486390 0.973245
vt 0.540237 0.967586
vt 0.587126 0.940514
vt 0.618951 0.896711
vt 0.630208 0.843750
vn 0.000000 -1.000000 0.000000
vn 0.000000 -1.000000 0.000000
vn 0.000000 -1.000000 0.000000
vn 0.000000 -1.000000 0.000000
vn 0.000000 -1.000000 0.000000
vn 0.000000 -1.000000 0.000000
vn 0.000000 -1.000000 0.000000
vn 0.000000 -1.000000 0.000000
vn 0.000000 -1.000000 0.000000
vn 0.000000 -1.000000 0.000000
vn 0.000000 -1.000000 0.000000
vn 0.000000 -1.000000 0.000000
vn 0.000000 -1.000000 0.000000
vn 0.000000 -1.000000 0.000000
vn 0.000000 -1.000000 0.000000
vn 0.000000 -1.000000 0.000000
vn 0.000000 -1.000000 0.000000
vn 0.000000 -1.000000 0.000000
vn 0.000000 -1.000000 0.000000
vn 0.000000 -1.000000 0.000000
vn 0.000000 -1.000000 0.000000
vn 0.000000 -1.000000 0.000000
vn 0.000000 -1.000000 0.000000
vn 0.000000 -1.000000 0.000000
vn 0.000000 -1.000000 0.000000
vn 0.000000 -1.000000 0.000000
vn 0.000000 -1.000000 0.000000
vn 0.000000 -1.000000 0.000000
vn 0.000000 -1.000000 0.000000
vn 0.000000 -1.000000 0.000000
vn 0.913545 0.000000 -0.406737
vn 0.669131 0.000000 -0.743145
vn 0.669131 0.000000 -0.743145
vn 0.913545 0.000000 -0.406737
vn 0.309017 0.000000 -0.951056
vn 0.309017 0.000000 -0.951056
vn -0.104528 0.000000 -0.994522
vn -0.104528 0.000000 -0.994522
vn -0.500000 0.000000 -0.866026
vn -0.500000 0.000000 -0.866026
vn -0.809017 0.000000 -0.587785
vn -0.809017 0.000000 -0.587785
vn -0.978148 0.000000 -0.207912
vn -0.978148 0.000000 -0.207912
vn -0.978148 0.000000 0.207912
vn -0.978148 0.000000 0.207912
vn -0.809017 0.000000 0.587785
vn -0.809017 0.000000 0.587785
vn -0.500000 0.000000 0.866025
vn -0.500000 0.000000 0.866025
vn -0.104529 0.000000 0.994522
vn -0.104529 0.000000 0.994522
vn 0.309017 0.000000 0.951057
vn 0.309017 0.000000 0.951057
vn 0.669131 0.000000 0.743145
vn 0.669131 0.000000 0.743145
vn 0.913545 0.000000 0.406737
vn 0.913545 0.000000 0.406737
vn 1.000000 0.000000 -0.000000
vn 1.000000 0.000000 -0.000000
vn 0.000000 1.000000 0.000000
vn 0.000000 1.000000 0.000000
vn 0.088897 0.991133 -0.098756
vn 0.121496 0.991116 -0.054104
vn 0.000000 1.000000 0.000000
vn 0.040982 0.991157 -0.126204
vn 0.000000 1.000000 -0.000000
vn -0.013872 0.991185 -0.131754
vn 0.000000 1.000000 -0.000000
vn -0.066159 0.991212 -0.114550
vn 0.000000 1.000000 0.000000
vn -0.106901 0.991233 -0.077651
vn 0.000000 1.000000 0.000000
vn -0.129158 0.991244 -0.027448
vn 0.000000 1.000000 0.000000
vn -0.129158 0.991244 0.027448
vn 0.000000 1.000000 0.000000
vn -0.106901 0.991233 0.077651
vn 0.000000 1.000000 0.000000
vn -0.066159 0.991212 0.114550
vn 0.000000 1.000000 0.000000
vn -0.013872 0.991185 0.131754
vn 0.000000 1.000000 0.000000
vn 0.040982 0.991157 0.126204
vn 0.000000 1.000000 0.000000
vn 0.088897 0.991133 0.098756
vn 0.000000 1.000000 0.000000
vn 0.121496 0.991116 0.054104
vn 0.000000 1.000000 0.000000
vn 0.133042 0.991110 -0.000000
vn 0.000000 -1.000000 0.000000
vn 0.258055 0.959271 -0.114917
vn 0.189366 0.959106 -0.210371
vn 0.000000 1.000000 0.000000
vn 0.087675 0.958861 -0.269999
vn -0.029826 0.958576 -0.283270
vn -0.142920 0.958302 -0.247451
vn -0.231789 0.958085 -0.168366
vn -0.280616 0.957966 -0.059635
vn -0.280616 0.957966 0.059635
vn -0.231789 0.958085 0.168365
vn -0.142920 0.958302 0.247451
vn -0.029826 0.958576 0.283270
vn 0.087675 0.958861 0.269999
vn 0.189366 0.959106 0.210371
vn 0.258055 0.959271 0.114917
vn 0.282288 0.959330 -0.000000
vn 0.220702 0.944056 0.245050
vn 0.301476 0.943982 0.134200
vn 0.101866 0.944164 0.313335
vn -0.034346 0.944287 0.327326
vn -0.164349 0.944405 0.284761
vn -0.265759 0.944497 0.193127
vn -0.321198 0.944547 0.068285
vn -0.321198 0.944547 -0.068285
vn -0.265759 0.944497 -0.193127
vn -0.164349 0.944405 -0.284761
vn -0.034346 0.944287 -0.327326
vn 0.101866 0.944164 -0.313335
vn 0.220702 0.944056 -0.245050
vn 0.301476 0.943982 -0.134200
vn 0.330071 0.943956 -0.000000
s 1
usemtl initialShadingGroup
f 1/1/1 2/2/2 17/17/3 16/16/4
f 2/2/2 3/3/5 18/18/6 17/17/3
f 3/3/5 4/4/7 19/19/8 18/18/6
f 4/4/7 5/5/9 20/20/10 19/19/8
f 5/5/9 6/6/11 21/21/12 20/20/10
f 6/6/11 7/7/13 22/22/14 21/21/12
f 7/7/13 8/8/15 23/23/16 22/22/14
f 8/8/15 9/9/17 24/24/18 23/23/16
f 9/9/17 10/10/19 25/25/20 24/24/18
f 10/10/19 11/11/21 26/26/22 25/25/20
f 11/11/21 12/12/23 27/27/24 26/26/22
f 12/12/23 13/13/25 28/28/26 27/27/24
f 13/13/25 14/14/27 29/29/28 28/28/26
f 14/14/27 15/15/29 30/30/30 29/29/28
f 15/15/29 1/1/1 16/16/4 30/30/30
s 2
f 16/31/31 17/32/32 32/48/33 31/47/34
f 17/32/32 18/33/35 33/49/36 32/48/33
f 18/33/35 19/34/37 34/50/38 33/49/36
f 19/34/37 20/35/39 35/51/40 34/50/38
f 20/35/39 21/36/41 36/52/42 35/51/40
f 21/36/41 22/37/43 37/53/44 36/52/42
f 22/37/43 23/38/45 38/54/46 37/53/44
f 23/38/45 24/39/47 39/55/48 38/54/46
f 24/39/47 25/40/49 40/56/50 39/55/48
f 25/40/49 26/41/51 41/57/52 40/56/50
f 26/41/51 27/42/53 42/58/54 41/57/52
f 27/42/53 28/43/55 43/59/56 42/58/54
f 28/43/55 29/44/57 44/60/58 43/59/56
f 29/44/57 30/45/59 45/61/60 44/60/58
f 30/45/59 16/46/31 31/62/34 45/61/60
s 3
f 31/76/61 32/75/62 90/122/63 91/123/64
f 32/75/62 33/74/65 89/121/66 90/122/63
f 33/74/65 34/73/67 88/120/68 89/121/66
f 34/73/67 35/72/69 87/119/70 88/120/68
f 35/72/69 36/71/71 86/118/72 87/119/70
f 36/71/71 37/70/73 85/117/74 86/118/72
f 37/70/73 38/69/75 84/116/76 85/117/74
f 38/69/75 39/68/77 83/115/78 84/116/76
f 39/68/77 40/67/79 82/114/80 83/115/78
f 40/67/79 41/66/81 81/113/82 82/114/80
f 41/66/81 42/65/83 80/112/84 81/113/82
f 42/65/83 43/64/85 79/111/86 80/112/84
f 43/64/85 44/63/87 78/110/88 79/111/86
f 44/63/87 45/77/89 92/124/90 78/110/88
f 45/77/89 31/76/61 91/123/64 92/124/90
s 1
f 2/2/2 1/1/1 61/93/91
f 3/3/5 2/2/2 61/93/91
f 4/4/7 3/3/5 61/93/91
f 5/5/9 4/4/7 61/93/91
f 6/6/11 5/5/9 61/93/91
f 7/7/13 6/6/11 61/93/91
f 8/8/15 7/7/13 61/93/91
f 9/9/17 8/8/15 61/93/91
f 10/10/19 9/9/17 61/93/91
f 11/11/21 10/10/19 61/93/91
f 12/12/23 11/11/21 61/93/91
f 13/13/25 12/12/23 61/93/91
f 14/14/27 13/13/25 61/93/91
f 15/15/29 14/14/27 61/93/91
f 1/1/1 15/15/29 61/93/91
s 3
f 46/91/92 47/90/93 62/94/94
f 47/90/93 48/89/95 62/94/94
f 48/89/95 49/88/96 62/94/94
f 49/88/96 50/87/97 62/94/94
f 50/87/97 51/86/98 62/94/94
f 51/86/98 52/85/99 62/94/94
f 52/85/99 53/84/100 62/94/94
f 53/84/100 54/83/101 62/94/94
f 54/83/101 55/82/102 62/94/94
f 55/82/102 56/81/103 62/94/94
f 56/81/103 57/80/104 62/94/94
f 57/80/104 58/79/105 62/94/94
f 58/79/105 59/78/106 62/94/94
f 59/78/106 60/92/107 62/94/94
f 60/92/107 46/91/92 62/94/94
f 64/96/108 63/95/109 59/78/106 58/79/105
f 65/97/110 64/96/108 58/79/105 57/80/104
f 66/98/111 65/97/110 57/80/104 56/81/103
f 67/99/112 66/98/111 56/81/103 55/82/102
f 68/100/113 67/99/112 55/82/102 54/83/101
f 69/101/114 68/100/113 54/83/101 53/84/100
f 70/102/115 69/101/114 53/84/100 52/85/99
f 71/103/116 70/102/115 52/85/99 51/86/98
f 72/104/117 71/103/116 51/86/98 50/87/97
f 73/105/118 72/104/117 50/87/97 49/88/96
f 74/106/119 73/105/118 49/88/96 48/89/95
f 75/107/120 74/106/119 48/89/95 47/90/93
f 76/108/121 75/107/120 47/90/93 46/91/92
f 77/109/122 76/108/121 46/91/92 60/92/107
f 63/95/109 77/109/122 60/92/107 59/78/106
f 79/111/86 78/110/88 63/95/109 64/96/108
f 80/112/84 79/111/86 64/96/108 65/97/110
f 81/113/82 80/112/84 65/97/110 66/98/111
f 82/114/80 81/113/82 66/98/111 67/99/112
f 83/115/78 82/114/80 67/99/112 68/100/113
f 84/116/76 83/115/78 68/100/113 69/101/114
f 85/117/74 84/116/76 69/101/114 70/102/115
f 86/118/72 85/117/74 70/102/115 71/103/116
f 87/119/70 86/118/72 71/103/116 72/104/117
f 88/120/68 87/119/70 72/104/117 73/105/118
f 89/121/66 88/120/68 73/105/118 74/106/119
f 90/122/63 89/121/66 74/106/119 75/107/120
f 91/123/64 90/122/63 75/107/120 76/108/121
f 92/124/90 91/123/64 76/108/121 77/109/122
f 78/110/88 92/124/90 77/109/122 63/95/109
