# This file uses centimeters as units for non-parametric coordinates.

mtllib lamp_lampShade_1.mtl
v -0.400232 0.000000 0.400232
v 0.400232 0.000000 0.400232
v -0.175623 1.047755 0.175623
v 0.175623 1.047755 0.175623
v -0.175623 1.047755 -0.175623
v 0.175623 1.047755 -0.175623
v -0.400232 0.000000 -0.400232
v 0.400232 0.000000 -0.400232
v -0.144345 1.047755 0.144345
v 0.144345 1.047755 0.144345
v 0.144345 1.047755 -0.144345
v -0.144345 1.047755 -0.144345
v -0.328950 0.000000 -0.328950
v 0.328950 0.000000 -0.328950
v 0.328950 0.000000 0.328950
v -0.328950 0.000000 0.328950
vt 0.375000 0.250000
vt 0.625000 0.250000
vt 0.625000 0.500000
vt 0.375000 0.500000
vt 0.375000 0.750000
vt 0.625000 0.750000
vt 0.625000 1.000000
vt 0.375000 1.000000
vt 0.125000 0.250000
vt 0.875000 0.250000
vt 0.125000 0.000000
vt 0.375000 0.000000
vt 0.625000 0.000000
vt 0.875000 0.000000
vt 0.375000 0.250000
vt 0.625000 0.250000
vt 0.625000 0.500000
vt 0.375000 0.500000
vt 0.375000 0.750000
vt 0.625000 0.750000
vt 0.625000 1.000000
vt 0.375000 1.000000
vn 0.000000 0.209609 -0.977785
vn 0.000000 0.209609 -0.977785
vn 0.000000 0.209609 -0.977785
vn 0.000000 0.209609 -0.977785
vn -0.977785 0.209609 0.000000
vn -0.977785 0.209609 0.000000
vn -0.977785 0.209609 0.000000
vn -0.977785 0.209609 0.000000
vn 0.000000 0.209609 0.977785
vn 0.000000 0.209609 0.977785
vn 0.000000 0.209609 0.977785
vn 0.000000 0.209609 0.977785
vn 0.977785 0.209609 0.000000
vn 0.977785 0.209609 0.000000
vn 0.977785 0.209609 0.000000
vn 0.977785 0.209609 0.000000
vn 0.000000 1.000000 0.000001
vn 0.000000 1.000000 0.000001
vn 0.000000 1.000000 0.000001
vn 0.000000 1.000000 0.000001
vn 0.000000 1.000000 -0.000001
vn 0.000000 1.000000 -0.000001
vn 0.000000 1.000000 -0.000001
vn 0.000000 1.000000 -0.000001
vn 0.000000 -1.000000 0.000000
vn 0.000000 -1.000000 0.000000
vn 0.000000 -1.000000 0.000000
vn 0.000000 -1.000000 0.000000
vn 0.000000 -1.000000 0.000000
vn 0.000000 -1.000000 0.000000
vn 0.000000 -1.000000 0.000000
vn 0.000000 -1.000000 0.000000
vn -0.984831 -0.173519 0.000000
vn -0.984831 -0.173519 0.000000
vn -0.984831 -0.173519 0.000000
vn -0.984831 -0.173519 0.000000
vn 0.000000 -0.173519 -0.984831
vn 0.000000 -0.173519 -0.984831
vn 0.000000 -0.173519 -0.984831
vn 0.000000 -0.173519 -0.984831
vn 0.984831 -0.173519 0.000000
vn 0.984831 -0.173519 0.000000
vn 0.984831 -0.173519 0.000000
vn 0.984831 -0.173519 0.000000
vn 0.000000 -0.173519 0.984831
vn 0.000000 -0.173519 0.984831
vn 0.000000 -0.173519 0.984831
vn 0.000000 -0.173519 0.984831
s off
usemtl ghost_ghost_initialShadingGroup
f 8/6/1 7/5/2 5/4/3 6/3/4
f 7/11/5 1/12/6 3/1/7 5/9/8
f 1/12/9 2/13/10 4/2/11 3/1/12
f 2/13/13 8/14/14 6/10/15 4/2/16
s 1
f 3/1/17 4/2/18 10/16/19 9/15/20
f 4/2/18 6/3/21 11/17/22 10/16/19
f 6/3/21 5/4/23 12/18/24 11/17/22
f 5/4/23 3/1/17 9/15/20 12/18/24
s 2
f 7/5/25 8/6/26 14/20/27 13/19/28
f 8/6/26 2/7/29 15/21/30 14/20/27
f 2/7/29 1/8/31 16/22/32 15/21/30
f 1/8/31 7/5/25 13/19/28 16/22/32
s off
f 10/16/33 11/17/34 14/20/35 15/21/36
f 9/15/37 10/16/38 15/21/39 16/22/40
f 12/18/41 9/15/42 16/22/43 13/19/44
f 11/17/45 12/18/46 13/19/47 14/20/48
