# This file uses centimeters as units for non-parametric coordinates.

mtllib lamp_lampBase_2.mtl
v 0.456773 0.000000 -0.203368
v 0.334565 0.000000 -0.371572
v 0.154509 0.000000 -0.475528
v -0.052264 0.000000 -0.497261
v -0.250000 0.000000 -0.433013
v -0.404508 0.000000 -0.293893
v -0.489074 0.000000 -0.103956
v -0.489074 0.000000 0.103956
v -0.404508 0.000000 0.293893
v -0.250000 0.000000 0.433013
v -0.052264 0.000000 0.497261
v 0.154508 0.000000 0.475528
v 0.334565 0.000000 0.371572
v 0.456773 0.000000 0.203368
v 0.500000 0.000000 0.000000
v 0.913545 0.000000 -0.406736
v 0.669131 0.000000 -0.743145
v 0.309017 0.000000 -0.951056
v -0.104528 0.000000 -0.994522
v -0.500000 0.000000 -0.866025
v -0.809017 0.000000 -0.587785
v -0.978147 0.000000 -0.207912
v -0.978148 0.000000 0.207912
v -0.809017 0.000000 0.587785
v -0.500000 0.000000 0.866025
v -0.104529 0.000000 0.994522
v 0.309017 0.000000 0.951056
v 0.669131 0.000000 0.743145
v 0.913545 0.000000 0.406737
v 1.000000 0.000000 0.000000
v 0.913545 0.118130 -0.406736
v 0.669131 0.118130 -0.743145
v 0.309017 0.118130 -0.951056
v -0.104528 0.118130 -0.994522
v -0.500000 0.118130 -0.866025
v -0.809017 0.118130 -0.587785
v -0.978147 0.118130 -0.207912
v -0.978148 0.118130 0.207912
v -0.809017 0.118130 0.587785
v -0.500000 0.118130 0.866025
v -0.104529 0.118130 0.994522
v 0.309017 0.118130 0.951056
v 0.669131 0.118130 0.743145
v 0.913545 0.118130 0.406737
v 1.000000 0.118130 0.000000
v 0.380021 0.270637 -0.168782
v 0.278597 0.270637 -0.308381
v 0.129161 0.270637 -0.394658
v -0.042447 0.270637 -0.412694
v -0.206555 0.270637 -0.359373
v -0.334787 0.270637 -0.243912
v -0.404971 0.270637 -0.086277
v -0.404971 0.270637 0.086277
v -0.334787 0.270637 0.243912
v -0.206555 0.270637 0.359373
v -0.042447 0.270637 0.412694
v 0.129161 0.270637 0.394658
v 0.278597 0.270637 0.308381
v 0.380021 0.270637 0.168783
v 0.415897 0.270637 0.000000
v 0.000000 0.000000 0.000000
v 0.000000 0.270637 0.000000
v 0.411197 0.209826 0.182010
v 0.301823 0.209826 0.332549
v 0.140677 0.209826 0.425588
v -0.044381 0.209826 0.445038
v -0.221350 0.209826 0.387537
v -0.359632 0.209826 0.263027
v -0.435316 0.209826 0.093038
v -0.435316 0.209826 -0.093038
v -0.359632 0.209826 -0.263028
v -0.221350 0.209826 -0.387537
v -0.044380 0.209826 -0.445038
v 0.140677 0.209826 -0.425587
v 0.301824 0.209826 -0.332549
v 0.411196 0.209826 -0.182010
v 0.449884 0.209826 0.000000
v 0.735704 0.118130 0.327419
v 0.538953 0.118130 0.598224
v 0.249065 0.118130 0.765590
v -0.083835 0.118130 0.800579
v -0.402185 0.118130 0.697141
v -0.650940 0.118130 0.473161
v -0.787089 0.118130 0.167367
v -0.787089 0.118130 -0.167367
v -0.650940 0.118130 -0.473161
v -0.402185 0.118130 -0.697141
v -0.083834 0.118130 -0.800579
v 0.249065 0.118130 -0.765590
v 0.538953 0.118130 -0.598223
v 0.735704 0.118130 -0.327418
v 0.805299 0.118130 0.000000
vt 0.605061 0.718407
vt 0.690690 0.656535
vt 0.879848 0.825921
vt 0.708591 0.949664
vt 0.743612 0.565375
vt 0.985691 0.643600
vt 0.754675 0.460688
vt 1.007818 0.434228
vt 0.721968 0.360577
vt 0.942404 0.234006
vt 0.651145 0.282352
vt 0.800758 0.077555
vt 0.554453 0.239538
vt 0.607375 -0.008073
vt 0.448611 0.239538
vt 0.395689 -0.008074
vt 0.351918 0.282352
vt 0.202306 0.077555
vt 0.281096 0.360577
vt 0.060661 0.234006
vt 0.248389 0.460688
vt -0.004754 0.434227
vt 0.259453 0.565374
vt 0.017374 0.643600
vt 0.312374 0.656535
vt 0.123216 0.825921
vt 0.398003 0.718407
vt 0.294472 0.949664
vt 0.501532 0.740292
vt 0.501532 0.993435
vt 1.144307 -0.013605
vt 1.280506 -0.013605
vt 1.280506 0.428371
vt 1.144307 0.428371
vt 1.416240 -0.013605
vt 1.416240 0.428371
vt 1.551386 -0.013605
vt 1.551386 0.428371
vt -0.473757 -0.013605
vt -0.339213 -0.013605
vt -0.339213 0.428371
vt -0.473757 0.428371
vt -0.205184 -0.013605
vt -0.205184 0.428371
vt -0.071502 -0.013605
vt -0.071502 0.428371
vt 0.062059 -0.013605
vt 0.062059 0.428371
vt 0.195741 -0.013605
vt 0.195741 0.428371
vt 0.329769 -0.013605
vt 0.329769 0.428371
vt 0.464314 -0.013605
vt 0.464314 0.428371
vt 0.599461 -0.013605
vt 0.599461 0.428371
vt 0.735195 -0.013605
vt 0.735195 0.428371
vt 0.871394 -0.013605
vt 0.871394 0.428371
vt 1.007850 -0.013605
vt 1.007850 0.428371
vt 0.708591 0.949664
vt 0.879848 0.825921
vt 0.806072 0.760013
vt 0.668212 0.859626
vt 0.985691 0.643600
vt 0.891274 0.613247
vt 1.007818 0.434228
vt 0.909086 0.444705
vt 0.942404 0.234006
vt 0.856429 0.283528
vt 0.800758 0.077555
vt 0.742406 0.157587
vt 0.607375 -0.008073
vt 0.586734 0.088657
vt 0.395689 -0.008074
vt 0.416330 0.088657
vt 0.202306 0.077555
vt 0.260658 0.157587
vt 0.060661 0.234006
vt 0.146635 0.283528
vt -0.004754 0.434227
vt 0.093977 0.444705
vt 0.017374 0.643600
vt 0.111790 0.613247
vt 0.123216 0.825921
vt 0.196991 0.760013
vt 0.294472 0.949664
vt 0.334851 0.859626
vt 0.501532 0.993435
vt 0.501532 0.894861
vt 0.501532 0.487149
vt 0.587455 0.679548
vt 0.658521 0.628199
vt 0.501532 0.487149
vt 0.702442 0.552541
vt 0.711624 0.465659
vt 0.684480 0.382573
vt 0.625702 0.317651
vt 0.545454 0.282118
vt 0.457610 0.282118
vt 0.377363 0.317651
vt 0.318584 0.382573
vt 0.291440 0.465659
vt 0.300622 0.552541
vt 0.344543 0.628199
vt 0.415609 0.679548
vt 0.501532 0.697712
vt 0.733206 0.771446
vt 0.870297 0.771446
vt 0.869611 0.998967
vt 0.731967 0.998967
vt 0.596944 0.771446
vt 0.595383 0.998967
vt 0.461713 0.771446
vt 0.460111 0.998967
vt 0.327531 0.771446
vt 0.326159 0.998967
vt 0.194236 0.771446
vt 0.193316 0.998967
vt 0.061529 0.771446
vt 0.061206 0.998967
vt -0.070972 0.771446
vt -0.070649 0.998967
vt -0.203679 0.771446
vt -0.202760 0.998967
vt -0.336975 0.771446
vt -0.335602 0.998967
vt -0.471157 0.771446
vt -0.469554 0.998967
vt 1.418757 0.771446
vt 1.553987 0.771446
vt 1.555590 0.998967
vt 1.420318 0.998967
vt 1.282494 0.771446
vt 1.283734 0.998967
vt 1.145404 0.771446
vt 1.146089 0.998967
vt 1.007850 0.771446
vt 1.007850 0.998967
vt 0.408876 0.695332
vt 0.332240 0.639958
vt 0.284876 0.558372
vt 0.274975 0.464679
vt 0.304247 0.375083
vt 0.367632 0.305072
vt 0.454169 0.266755
vt 0.548895 0.266755
vt 0.635433 0.305072
vt 0.698817 0.375083
vt 0.728090 0.464680
vt 0.718188 0.558372
vt 0.670824 0.639958
vt 0.594189 0.695332
vt 0.501532 0.714919
vn 0.000000 -1.000000 0.000000
vn 0.000000 -1.000000 0.000000
vn 0.000000 -1.000000 0.000000
vn 0.000000 -1.000000 0.000000
vn 0.000000 -1.000000 0.000000
vn 0.000000 -1.000000 0.000000
vn 0.000000 -1.000000 0.000000
vn 0.000000 -1.000000 0.000000
vn 0.000000 -1.000000 0.000000
vn 0.000000 -1.000000 0.000000
vn 0.000000 -1.000000 0.000000
vn 0.000000 -1.000000 0.000000
vn 0.000000 -1.000000 0.000000
vn 0.000000 -1.000000 0.000000
vn 0.000000 -1.000000 0.000000
vn 0.000000 -1.000000 0.000000
vn 0.000000 -1.000000 0.000000
vn 0.000000 -1.000000 0.000000
vn 0.000000 -1.000000 0.000000
vn 0.000000 -1.000000 0.000000
vn 0.000000 -1.000000 0.000000
vn 0.000000 -1.000000 0.000000
vn 0.000000 -1.000000 0.000000
vn 0.000000 -1.000000 0.000000
vn 0.000000 -1.000000 0.000000
vn 0.000000 -1.000000 0.000000
vn 0.000000 -1.000000 0.000000
vn 0.000000 -1.000000 0.000000
vn 0.000000 -1.000000 0.000000
vn 0.000000 -1.000000 0.000000
vn 0.000000 -1.000000 0.000000
vn 0.000000 -1.000000 0.000000
vn 0.000000 -1.000000 0.000000
vn 0.000000 -1.000000 0.000000
vn 0.000000 -1.000000 0.000000
vn 0.000000 -1.000000 0.000000
vn 0.000000 -1.000000 0.000000
vn 0.000000 -1.000000 0.000000
vn 0.000000 -1.000000 0.000000
vn 0.000000 -1.000000 0.000000
vn 0.000000 -1.000000 0.000000
vn 0.000000 -1.000000 0.000000
vn 0.000000 -1.000000 0.000000
vn 0.000000 -1.000000 0.000000
vn 0.000000 -1.000000 0.000000
vn 0.000000 -1.000000 0.000000
vn 0.000000 -1.000000 0.000000
vn 0.000000 -1.000000 0.000000
vn 0.000000 -1.000000 0.000000
vn 0.000000 -1.000000 0.000000
vn 0.000000 -1.000000 0.000000
vn 0.000000 -1.000000 0.000000
vn 0.000000 -1.000000 0.000000
vn 0.000000 -1.000000 0.000000
vn 0.000000 -1.000000 0.000000
vn 0.000000 -1.000000 0.000000
vn 0.000000 -1.000000 0.000000
vn 0.000000 -1.000000 0.000000
vn 0.000000 -1.000000 0.000000
vn 0.000000 -1.000000 0.000000
vn 0.913545 0.000000 -0.406737
vn 0.669131 0.000000 -0.743145
vn 0.669131 0.000000 -0.743145
vn 0.913545 0.000000 -0.406737
vn 0.669131 0.000000 -0.743145
vn 0.309017 0.000000 -0.951056
vn 0.309017 0.000000 -0.951056
vn 0.669131 0.000000 -0.743145
vn 0.309017 0.000000 -0.951056
vn -0.104528 0.000000 -0.994522
vn -0.104528 0.000000 -0.994522
vn 0.309017 0.000000 -0.951056
vn -0.104528 0.000000 -0.994522
vn -0.500000 0.000000 -0.866026
vn -0.500000 0.000000 -0.866026
vn -0.104528 0.000000 -0.994522
vn -0.500000 0.000000 -0.866026
vn -0.809017 0.000000 -0.587785
vn -0.809017 0.000000 -0.587785
vn -0.500000 0.000000 -0.866026
vn -0.809017 0.000000 -0.587785
vn -0.978148 0.000000 -0.207912
vn -0.978148 0.000000 -0.207912
vn -0.809017 0.000000 -0.587785
vn -0.978148 0.000000 -0.207912
vn -0.978148 0.000000 0.207912
vn -0.978148 0.000000 0.207912
vn -0.978148 0.000000 -0.207912
vn -0.978148 0.000000 0.207912
vn -0.809017 0.000000 0.587785
vn -0.809017 0.000000 0.587785
vn -0.978148 0.000000 0.207912
vn -0.809017 0.000000 0.587785
vn -0.500000 0.000000 0.866025
vn -0.500000 0.000000 0.866025
vn -0.809017 0.000000 0.587785
vn -0.500000 0.000000 0.866025
vn -0.104529 0.000000 0.994522
vn -0.104529 0.000000 0.994522
vn -0.500000 0.000000 0.866025
vn -0.104529 0.000000 0.994522
vn 0.309017 0.000000 0.951057
vn 0.309017 0.000000 0.951057
vn -0.104529 0.000000 0.994522
vn 0.309017 0.000000 0.951057
vn 0.669131 0.000000 0.743145
vn 0.669131 0.000000 0.743145
vn 0.309017 0.000000 0.951057
vn 0.669131 0.000000 0.743145
vn 0.913545 0.000000 0.406737
vn 0.913545 0.000000 0.406737
vn 0.669131 0.000000 0.743145
vn 0.913545 0.000000 0.406737
vn 1.000000 0.000000 0.000000
vn 1.000000 0.000000 0.000000
vn 0.913545 0.000000 0.406737
vn 1.000000 0.000000 0.000000
vn 0.913545 0.000000 -0.406737
vn 0.913545 0.000000 -0.406737
vn 1.000000 0.000000 0.000000
vn 0.000000 1.000000 0.000000
vn 0.000000 1.000000 0.000000
vn 0.088897 0.991133 -0.098756
vn 0.121496 0.991116 -0.054104
vn 0.000000 1.000000 0.000000
vn 0.000000 1.000000 0.000000
vn 0.040982 0.991157 -0.126204
vn 0.088897 0.991133 -0.098756
vn 0.000000 1.000000 0.000000
vn 0.000000 1.000000 0.000000
vn -0.013872 0.991185 -0.131754
vn 0.040982 0.991157 -0.126204
vn 0.000000 1.000000 0.000000
vn 0.000000 1.000000 0.000000
vn -0.066159 0.991212 -0.114550
vn -0.013872 0.991185 -0.131754
vn 0.000000 1.000000 0.000000
vn 0.000000 1.000000 0.000000
vn -0.106901 0.991233 -0.077651
vn -0.066159 0.991212 -0.114550
vn 0.000000 1.000000 0.000000
vn 0.000000 1.000000 0.000000
vn -0.129158 0.991244 -0.027448
vn -0.106901 0.991233 -0.077651
vn 0.000000 1.000000 0.000000
vn 0.000000 1.000000 0.000000
vn -0.129158 0.991244 0.027448
vn -0.129158 0.991244 -0.027448
vn 0.000000 1.000000 0.000000
vn 0.000000 1.000000 0.000000
vn -0.106901 0.991233 0.077651
vn -0.129158 0.991244 0.027448
vn 0.000000 1.000000 0.000000
vn 0.000000 1.000000 0.000000
vn -0.066159 0.991212 0.114550
vn -0.106901 0.991233 0.077651
vn 0.000000 1.000000 0.000000
vn 0.000000 1.000000 0.000000
vn -0.013872 0.991185 0.131754
vn -0.066159 0.991212 0.114550
vn 0.000000 1.000000 0.000000
vn 0.000000 1.000000 0.000000
vn 0.040982 0.991157 0.126204
vn -0.013872 0.991185 0.131754
vn 0.000000 1.000000 0.000000
vn 0.000000 1.000000 0.000000
vn 0.088897 0.991133 0.098756
vn 0.040982 0.991157 0.126204
vn 0.000000 1.000000 0.000000
vn 0.000000 1.000000 0.000000
vn 0.121496 0.991116 0.054104
vn 0.088897 0.991133 0.098756
vn 0.000000 1.000000 0.000000
vn 0.000000 1.000000 0.000000
vn 0.133042 0.991110 0.000000
vn 0.121496 0.991116 0.054104
vn 0.000000 1.000000 0.000000
vn 0.000000 1.000000 0.000000
vn 0.121496 0.991116 -0.054104
vn 0.133042 0.991110 0.000000
vn 0.000000 -1.000000 0.000000
vn 0.000000 -1.000000 0.000000
vn 0.000000 -1.000000 0.000000
vn 0.000000 -1.000000 0.000000
vn 0.000000 -1.000000 0.000000
vn 0.000000 -1.000000 0.000000
vn 0.000000 -1.000000 0.000000
vn 0.000000 -1.000000 0.000000
vn 0.000000 -1.000000 0.000000
vn 0.000000 -1.000000 0.000000
vn 0.000000 -1.000000 0.000000
vn 0.000000 -1.000000 0.000000
vn 0.000000 -1.000000 0.000000
vn 0.000000 -1.000000 0.000000
vn 0.000000 -1.000000 0.000000
vn 0.000000 -1.000000 0.000000
vn 0.000000 -1.000000 0.000000
vn 0.000000 -1.000000 0.000000
vn 0.000000 -1.000000 0.000000
vn 0.000000 -1.000000 0.000000
vn 0.000000 -1.000000 0.000000
vn 0.000000 -1.000000 0.000000
vn 0.000000 -1.000000 0.000000
vn 0.000000 -1.000000 0.000000
vn 0.000000 -1.000000 0.000000
vn 0.000000 -1.000000 0.000000
vn 0.000000 -1.000000 0.000000
vn 0.000000 -1.000000 0.000000
vn 0.000000 -1.000000 0.000000
vn 0.000000 -1.000000 0.000000
vn 0.000000 -1.000000 0.000000
vn 0.000000 -1.000000 0.000000
vn 0.000000 -1.000000 0.000000
vn 0.000000 -1.000000 0.000000
vn 0.000000 -1.000000 0.000000
vn 0.000000 -1.000000 0.000000
vn 0.000000 -1.000000 0.000000
vn 0.000000 -1.000000 0.000000
vn 0.000000 -1.000000 0.000000
vn 0.000000 -1.000000 0.000000
vn 0.000000 -1.000000 0.000000
vn 0.000000 -1.000000 0.000000
vn 0.000000 -1.000000 0.000000
vn 0.000000 -1.000000 0.000000
vn 0.000000 -1.000000 0.000000
vn 0.258055 0.959271 -0.114917
vn 0.189366 0.959106 -0.210371
vn 0.000000 1.000000 0.000000
vn 0.189366 0.959106 -0.210371
vn 0.087675 0.958861 -0.269999
vn 0.000000 1.000000 0.000000
vn 0.087675 0.958861 -0.269999
vn -0.029826 0.958576 -0.283270
vn 0.000000 1.000000 0.000000
vn -0.029826 0.958576 -0.283270
vn -0.142920 0.958302 -0.247451
vn 0.000000 1.000000 0.000000
vn -0.142920 0.958302 -0.247451
vn -0.231789 0.958085 -0.168366
vn 0.000000 1.000000 0.000000
vn -0.231789 0.958085 -0.168366
vn -0.280616 0.957966 -0.059635
vn 0.000000 1.000000 0.000000
vn -0.280616 0.957966 -0.059635
vn -0.280616 0.957966 0.059635
vn 0.000000 1.000000 0.000000
vn -0.280616 0.957966 0.059635
vn -0.231789 0.958085 0.168365
vn 0.000000 1.000000 0.000000
vn -0.231789 0.958085 0.168365
vn -0.142920 0.958302 0.247451
vn 0.000000 1.000000 0.000000
vn -0.142920 0.958302 0.247451
vn -0.029826 0.958576 0.283270
vn 0.000000 1.000000 0.000000
vn -0.029826 0.958576 0.283270
vn 0.087675 0.958861 0.269999
vn 0.000000 1.000000 0.000000
vn 0.087675 0.958861 0.269999
vn 0.189366 0.959106 0.210371
vn 0.000000 1.000000 0.000000
vn 0.189366 0.959106 0.210371
vn 0.258055 0.959271 0.114917
vn 0.000000 1.000000 0.000000
vn 0.258055 0.959271 0.114917
vn 0.282288 0.959330 0.000000
vn 0.000000 1.000000 0.000000
vn 0.282288 0.959330 0.000000
vn 0.258055 0.959271 -0.114917
vn 0.000000 1.000000 0.000000
vn 0.220702 0.944056 0.245050
vn 0.301476 0.943982 0.134200
vn 0.258055 0.959271 0.114917
vn 0.189366 0.959106 0.210371
vn 0.101866 0.944163 0.313335
vn 0.220702 0.944056 0.245050
vn 0.189366 0.959106 0.210371
vn 0.087675 0.958861 0.269999
vn -0.034346 0.944287 0.327326
vn 0.101866 0.944163 0.313335
vn 0.087675 0.958861 0.269999
vn -0.029826 0.958576 0.283270
vn -0.164349 0.944405 0.284761
vn -0.034346 0.944287 0.327326
vn -0.029826 0.958576 0.283270
vn -0.142920 0.958302 0.247451
vn -0.265759 0.944497 0.193127
vn -0.164349 0.944405 0.284761
vn -0.142920 0.958302 0.247451
vn -0.231789 0.958085 0.168365
vn -0.321198 0.944547 0.068285
vn -0.265759 0.944497 0.193127
vn -0.231789 0.958085 0.168365
vn -0.280616 0.957966 0.059635
vn -0.321198 0.944547 -0.068285
vn -0.321198 0.944547 0.068285
vn -0.280616 0.957966 0.059635
vn -0.280616 0.957966 -0.059635
vn -0.265759 0.944497 -0.193127
vn -0.321198 0.944547 -0.068285
vn -0.280616 0.957966 -0.059635
vn -0.231789 0.958085 -0.168366
vn -0.164349 0.944405 -0.284761
vn -0.265759 0.944497 -0.193127
vn -0.231789 0.958085 -0.168366
vn -0.142920 0.958302 -0.247451
vn -0.034346 0.944287 -0.327326
vn -0.164349 0.944405 -0.284761
vn -0.142920 0.958302 -0.247451
vn -0.029826 0.958576 -0.283270
vn 0.101866 0.944163 -0.313335
vn -0.034346 0.944287 -0.327326
vn -0.029826 0.958576 -0.283270
vn 0.087675 0.958861 -0.269999
vn 0.220702 0.944056 -0.245050
vn 0.101866 0.944163 -0.313335
vn 0.087675 0.958861 -0.269999
vn 0.189366 0.959106 -0.210371
vn 0.301476 0.943982 -0.134200
vn 0.220702 0.944056 -0.245050
vn 0.189366 0.959106 -0.210371
vn 0.258055 0.959271 -0.114917
vn 0.330071 0.943956 0.000000
vn 0.301476 0.943982 -0.134200
vn 0.258055 0.959271 -0.114917
vn 0.282288 0.959330 0.000000
vn 0.301476 0.943982 0.134200
vn 0.330071 0.943956 0.000000
vn 0.282288 0.959330 0.000000
vn 0.258055 0.959271 0.114917
vn 0.088897 0.991133 0.098756
vn 0.121496 0.991116 0.054104
vn 0.301476 0.943982 0.134200
vn 0.220702 0.944056 0.245050
vn 0.040982 0.991157 0.126204
vn 0.088897 0.991133 0.098756
vn 0.220702 0.944056 0.245050
vn 0.101866 0.944163 0.313335
vn -0.013872 0.991185 0.131754
vn 0.040982 0.991157 0.126204
vn 0.101866 0.944163 0.313335
vn -0.034346 0.944287 0.327326
vn -0.066159 0.991212 0.114550
vn -0.013872 0.991185 0.131754
vn -0.034346 0.944287 0.327326
vn -0.164349 0.944405 0.284761
vn -0.106901 0.991233 0.077651
vn -0.066159 0.991212 0.114550
vn -0.164349 0.944405 0.284761
vn -0.265759 0.944497 0.193127
vn -0.129158 0.991244 0.027448
vn -0.106901 0.991233 0.077651
vn -0.265759 0.944497 0.193127
vn -0.321198 0.944547 0.068285
vn -0.129158 0.991244 -0.027448
vn -0.129158 0.991244 0.027448
vn -0.321198 0.944547 0.068285
vn -0.321198 0.944547 -0.068285
vn -0.106901 0.991233 -0.077651
vn -0.129158 0.991244 -0.027448
vn -0.321198 0.944547 -0.068285
vn -0.265759 0.944497 -0.193127
vn -0.066159 0.991212 -0.114550
vn -0.106901 0.991233 -0.077651
vn -0.265759 0.944497 -0.193127
vn -0.164349 0.944405 -0.284761
vn -0.013872 0.991185 -0.131754
vn -0.066159 0.991212 -0.114550
vn -0.164349 0.944405 -0.284761
vn -0.034346 0.944287 -0.327326
vn 0.040982 0.991157 -0.126204
vn -0.013872 0.991185 -0.131754
vn -0.034346 0.944287 -0.327326
vn 0.101866 0.944163 -0.313335
vn 0.088897 0.991133 -0.098756
vn 0.040982 0.991157 -0.126204
vn 0.101866 0.944163 -0.313335
vn 0.220702 0.944056 -0.245050
vn 0.121496 0.991116 -0.054104
vn 0.088897 0.991133 -0.098756
vn 0.220702 0.944056 -0.245050
vn 0.301476 0.943982 -0.134200
vn 0.133042 0.991110 0.000000
vn 0.121496 0.991116 -0.054104
vn 0.301476 0.943982 -0.134200
vn 0.330071 0.943956 0.000000
vn 0.121496 0.991116 0.054104
vn 0.133042 0.991110 0.000000
vn 0.330071 0.943956 0.000000
vn 0.301476 0.943982 0.134200
s off
usemtl initialShadingGroup
f 1/1/1 2/2/2 17/3/3 16/4/4
f 2/2/5 3/5/6 18/6/7 17/3/8
f 3/5/9 4/7/10 19/8/11 18/6/12
f 4/7/13 5/9/14 20/10/15 19/8/16
f 5/9/17 6/11/18 21/12/19 20/10/20
f 6/11/21 7/13/22 22/14/23 21/12/24
f 7/13/25 8/15/26 23/16/27 22/14/28
f 8/15/29 9/17/30 24/18/31 23/16/32
f 9/17/33 10/19/34 25/20/35 24/18/36
f 10/19/37 11/21/38 26/22/39 25/20/40
f 11/21/41 12/23/42 27/24/43 26/22/44
f 12/23/45 13/25/46 28/26/47 27/24/48
f 13/25/49 14/27/50 29/28/51 28/26/52
f 14/27/53 15/29/54 30/30/55 29/28/56
f 15/29/57 1/1/58 16/4/59 30/30/60
f 16/31/61 17/32/62 32/33/63 31/34/64
f 17/32/65 18/35/66 33/36/67 32/33/68
f 18/35/69 19/37/70 34/38/71 33/36/72
f 19/39/73 20/40/74 35/41/75 34/42/76
f 20/40/77 21/43/78 36/44/79 35/41/80
f 21/43/81 22/45/82 37/46/83 36/44/84
f 22/45/85 23/47/86 38/48/87 37/46/88
f 23/47/89 24/49/90 39/50/91 38/48/92
f 24/49/93 25/51/94 40/52/95 39/50/96
f 25/51/97 26/53/98 41/54/99 40/52/100
f 26/53/101 27/55/102 42/56/103 41/54/104
f 27/55/105 28/57/106 43/58/107 42/56/108
f 28/57/109 29/59/110 44/60/111 43/58/112
f 29/59/113 30/61/114 45/62/115 44/60/116
f 30/61/117 16/31/118 31/34/119 45/62/120
f 31/63/121 32/64/122 90/65/123 91/66/124
f 32/64/125 33/67/126 89/68/127 90/65/128
f 33/67/129 34/69/130 88/70/131 89/68/132
f 34/69/133 35/71/134 87/72/135 88/70/136
f 35/71/137 36/73/138 86/74/139 87/72/140
f 36/73/141 37/75/142 85/76/143 86/74/144
f 37/75/145 38/77/146 84/78/147 85/76/148
f 38/77/149 39/79/150 83/80/151 84/78/152
f 39/79/153 40/81/154 82/82/155 83/80/156
f 40/81/157 41/83/158 81/84/159 82/82/160
f 41/83/161 42/85/162 80/86/163 81/84/164
f 42/85/165 43/87/166 79/88/167 80/86/168
f 43/87/169 44/89/170 78/90/171 79/88/172
f 44/89/173 45/91/174 92/92/175 78/90/176
f 45/91/177 31/63/178 91/66/179 92/92/180
f 2/2/181 1/1/182 61/93/183
f 3/5/184 2/2/185 61/93/186
f 4/7/187 3/5/188 61/93/189
f 5/9/190 4/7/191 61/93/192
f 6/11/193 5/9/194 61/93/195
f 7/13/196 6/11/197 61/93/198
f 8/15/199 7/13/200 61/93/201
f 9/17/202 8/15/203 61/93/204
f 10/19/205 9/17/206 61/93/207
f 11/21/208 10/19/209 61/93/210
f 12/23/211 11/21/212 61/93/213
f 13/25/214 12/23/215 61/93/216
f 14/27/217 13/25/218 61/93/219
f 15/29/220 14/27/221 61/93/222
f 1/1/223 15/29/224 61/93/225
f 46/94/226 47/95/227 62/96/228
f 47/95/229 48/97/230 62/96/231
f 48/97/232 49/98/233 62/96/234
f 49/98/235 50/99/236 62/96/237
f 50/99/238 51/100/239 62/96/240
f 51/100/241 52/101/242 62/96/243
f 52/101/244 53/102/245 62/96/246
f 53/102/247 54/103/248 62/96/249
f 54/103/250 55/104/251 62/96/252
f 55/104/253 56/105/254 62/96/255
f 56/105/256 57/106/257 62/96/258
f 57/106/259 58/107/260 62/96/261
f 58/107/262 59/108/263 62/96/264
f 59/108/265 60/109/266 62/96/267
f 60/109/268 46/94/269 62/96/270
f 64/110/271 63/111/272 59/112/273 58/113/274
f 65/114/275 64/110/276 58/113/277 57/115/278
f 66/116/279 65/114/280 57/115/281 56/117/282
f 67/118/283 66/116/284 56/117/285 55/119/286
f 68/120/287 67/118/288 55/119/289 54/121/290
f 69/122/291 68/120/292 54/121/293 53/123/294
f 70/124/295 69/122/296 53/123/297 52/125/298
f 71/126/299 70/124/300 52/125/301 51/127/302
f 72/128/303 71/126/304 51/127/305 50/129/306
f 73/130/307 72/128/308 50/129/309 49/131/310
f 74/132/311 73/133/312 49/134/313 48/135/314
f 75/136/315 74/132/316 48/135/317 47/137/318
f 76/138/319 75/136/320 47/137/321 46/139/322
f 77/140/323 76/138/324 46/139/325 60/141/326
f 63/111/327 77/140/328 60/141/329 59/112/330
f 79/88/331 78/90/332 63/142/333 64/143/334
f 80/86/335 79/88/336 64/143/337 65/144/338
f 81/84/339 80/86/340 65/144/341 66/145/342
f 82/82/343 81/84/344 66/145/345 67/146/346
f 83/80/347 82/82/348 67/146/349 68/147/350
f 84/78/351 83/80/352 68/147/353 69/148/354
f 85/76/355 84/78/356 69/148/357 70/149/358
f 86/74/359 85/76/360 70/149/361 71/150/362
f 87/72/363 86/74/364 71/150/365 72/151/366
f 88/70/367 87/72/368 72/151/369 73/152/370
f 89/68/371 88/70/372 73/152/373 74/153/374
f 90/65/375 89/68/376 74/153/377 75/154/378
f 91/66/379 90/65/380 75/154/381 76/155/382
f 92/92/383 91/66/384 76/155/385 77/156/386
f 78/90/387 92/92/388 77/156/389 63/142/390
