# This file uses centimeters as units for non-parametric coordinates.

g default
v 0.391878 0.000000 -0.171664
v 0.288723 0.000000 -0.313646
v 0.136736 0.000000 -0.401395
v -0.037802 0.000000 -0.419740
v -0.204711 0.000000 -0.365508
v -0.335132 0.000000 -0.248076
v -0.406514 0.000000 -0.087750
v -0.406515 0.000000 0.087750
v -0.335132 0.000000 0.248076
v -0.204711 0.000000 0.365508
v -0.037802 0.000000 0.419740
v 0.136736 0.000000 0.401395
v 0.288723 0.000000 0.313646
v 0.391878 0.000000 0.171664
v 0.428367 0.000000 0.000000
v 0.182450 0.250000 -0.077292
v 0.136003 0.250000 -0.141220
v 0.067572 0.250000 -0.180730
v -0.011014 0.250000 -0.188988
v -0.086166 0.250000 -0.164570
v -0.144888 0.250000 -0.111698
v -0.177029 0.250000 -0.039509
v -0.177029 0.250000 0.039509
v -0.144888 0.250000 0.111698
v -0.086166 0.250000 0.164570
v -0.011014 0.250000 0.188988
v 0.067572 0.250000 0.180728
v 0.136003 0.250000 0.141220
v 0.182450 0.250000 0.077292
v 0.198881 0.250000 0.000000
v 0.067494 0.500000 -0.025491
v 0.052177 0.500000 -0.046573
v 0.029608 0.500000 -0.059604
v 0.003691 0.500000 -0.062328
v -0.021094 0.500000 -0.054275
v -0.040460 0.500000 -0.036837
v -0.051060 0.500000 -0.013030
v -0.051060 0.500000 0.013030
v -0.040460 0.500000 0.036837
v -0.021094 0.500000 0.054275
v 0.003691 0.500000 0.062328
v 0.029608 0.500000 0.059604
v 0.052177 0.500000 0.046574
v 0.067494 0.500000 0.025491
v 0.072912 0.500000 0.000000
v 0.067494 0.750000 -0.025491
v 0.052177 0.750000 -0.046573
v 0.029608 0.750000 -0.059604
v 0.003691 0.750000 -0.062328
v -0.021094 0.750000 -0.054275
v -0.040460 0.750000 -0.036837
v -0.051060 0.750000 -0.013030
v -0.051060 0.750000 0.013030
v -0.040460 0.750000 0.036837
v -0.021094 0.750000 0.054275
v 0.003691 0.750000 0.062328
v 0.029608 0.750000 0.059604
v 0.052177 0.750000 0.046574
v 0.067494 0.750000 0.025491
v 0.072912 0.750000 0.000000
v 0.000000 2.032941 0.000000
v -0.040460 1.805474 0.036837
v -0.051060 1.805474 0.013030
v -0.051060 1.805474 -0.013030
v -0.040460 1.805474 -0.036837
v -0.021094 1.805474 -0.054275
v 0.003691 1.805474 -0.062328
v 0.029608 1.805474 -0.059604
v 0.052177 1.805474 -0.046573
v 0.067494 1.805474 -0.025491
v 0.072912 1.805474 0.000000
v 0.067494 1.805474 0.025491
v 0.052177 1.805474 0.046574
v 0.029608 1.805474 0.059604
v 0.003691 1.805474 0.062328
v -0.021094 1.805474 0.054275
v -0.055856 1.823716 0.048023
v -0.055856 2.018242 0.048023
v -0.069674 2.018242 0.016987
v -0.069674 1.823716 0.016987
v -0.069674 1.823716 -0.016987
v -0.069674 2.018242 -0.016987
v -0.055856 1.823716 -0.048023
v -0.055856 2.018242 -0.048023
v -0.030609 1.823716 -0.070755
v -0.030609 2.018242 -0.070755
v 0.001701 1.823716 -0.081253
v 0.001701 2.018242 -0.081253
v 0.035488 1.823716 -0.077702
v 0.035488 2.018242 -0.077702
v 0.064910 1.823716 -0.060715
v 0.064910 2.018242 -0.060715
v 0.084879 1.823716 -0.033231
v 0.084879 2.018242 -0.033231
v 0.091942 1.823716 0.000000
v 0.091942 2.018242 0.000000
v 0.084879 1.823716 0.033231
v 0.084879 2.018242 0.033231
v 0.064910 1.823716 0.060716
v 0.064910 2.018242 0.060716
v 0.035488 1.823716 0.077703
v 0.035488 2.018242 0.077703
v 0.001701 1.823716 0.081253
v 0.001701 2.018242 0.081253
v -0.030609 1.823716 0.070755
v -0.030609 2.018242 0.070755
vt 1.597513 0.000725
vt 1.732021 0.000725
vt 1.732023 0.336585
vt 1.597513 0.336585
vt 1.866071 0.336585
vt -0.000461 0.000725
vt -0.000460 0.336585
vt 0.132413 0.000725
vt 0.132415 0.336585
vt 0.264777 0.000725
vt 0.264776 0.336585
vt 0.396799 0.000725
vt 0.396801 0.336585
vt 0.528702 0.000725
vt 0.528701 0.336585
vt 0.660725 0.000725
vt 0.660726 0.336585
vt 0.793089 0.000725
vt 0.793087 0.336585
vt 0.925963 0.000725
vt 0.925962 0.336585
vt 1.059432 0.000725
vt 1.059433 0.336585
vt 1.193481 0.000725
vt 1.193479 0.336585
vt 1.327989 0.000725
vt 1.327989 0.336585
vt 1.462751 0.000725
vt 1.462751 0.336585
vt 1.732017 0.672446
vt 1.597515 0.672446
vt 1.866069 0.672446
vt -0.000464 0.672446
vt 0.132411 0.672446
vt 0.264776 0.672446
vt 0.396800 0.672446
vt 0.528702 0.672446
vt 0.660726 0.672446
vt 0.793091 0.672446
vt 0.925966 0.672446
vt 1.059433 0.672446
vt 1.193482 0.672446
vt 1.327987 0.672446
vt 1.462751 0.672446
vt 1.732017 1.008306
vt 1.597515 1.008306
vt 1.866069 1.008306
vt -0.000464 1.008306
vt 0.132411 1.008306
vt 0.264776 1.008306
vt 0.396800 1.008306
vt 0.528702 1.008306
vt 0.660726 1.008306
vt 0.793091 1.008306
vt 0.925966 1.008306
vt 1.059433 1.008306
vt 1.193482 1.008306
vt 1.327987 1.008306
vt 1.462751 1.008306
vt 1.732017 2.426274
vt 1.597515 2.426274
vt 1.866069 2.426274
vt -0.000464 2.426274
vt 0.132411 2.426274
vt 0.264776 2.426274
vt 0.396800 2.426274
vt 0.528702 2.426274
vt 0.660726 2.426274
vt 0.793091 2.426274
vt 0.925966 2.426274
vt 1.059433 2.426274
vt 1.193482 2.426274
vt 1.327987 2.426274
vt 1.462751 2.426274
vt 0.462751 2.731863
vt 1.597178 2.712115
vt 1.731409 2.712115
vt -0.001264 2.712115
vt 0.131718 2.712115
vt 0.264307 2.712115
vt 0.396633 2.712115
vt 0.528869 2.712115
vt 0.661195 2.712115
vt 0.793784 2.712115
vt 0.926766 2.712115
vt 1.060205 2.712115
vt 1.194090 2.712115
vt 1.328324 2.712115
vt 1.462751 2.712115
vt 0.661195 2.450781
vt 0.528869 2.450781
vt 0.396633 2.450781
vt 0.264307 2.450781
vt 0.131718 2.450781
vt -0.001264 2.450781
vt 1.731409 2.450781
vt 1.597178 2.450781
vt 1.462751 2.450781
vt 1.328324 2.450781
vt 1.194090 2.450781
vt 1.060205 2.450781
vt 0.926766 2.450781
vt 0.793784 2.450781
vt 1.866070 0.000725
vt 1.999539 0.000725
vt 1.999540 0.336585
vt 1.999536 0.672446
vt 1.999536 1.008306
vt 1.998736 2.712115
vt 2.462751 2.731863
vt 3.462751 2.712115
vt 1.998736 2.450781
vt 1.865295 2.712115
vt 1.999536 2.426274
vt 1.865295 2.450781
vn 0.672564 0.676589 -0.299809
vn 0.491670 0.677578 -0.546945
vn 0.519619 0.630436 -0.576668
vn 0.709957 0.629404 -0.315930
vn 0.491670 0.677578 -0.546945
vn 0.226126 0.679028 -0.698418
vn 0.239832 0.631953 -0.736964
vn 0.519619 0.630436 -0.576668
vn 0.226126 0.679028 -0.698418
vn -0.077369 0.680682 -0.728482
vn -0.080493 0.633684 -0.769393
vn 0.239832 0.631953 -0.736964
vn -0.077369 0.680682 -0.728482
vn -0.366153 0.682253 -0.632821
vn -0.385834 0.635333 -0.668943
vn -0.080493 0.633684 -0.769393
vn -0.366153 0.682253 -0.632821
vn -0.590837 0.683472 -0.428693
vn -0.623768 0.636615 -0.453469
vn -0.385834 0.635333 -0.668943
vn -0.590837 0.683472 -0.428693
vn -0.713450 0.684137 -0.151482
vn -0.753747 0.637315 -0.160296
vn -0.623768 0.636615 -0.453469
vn -0.713450 0.684137 -0.151482
vn -0.713450 0.684137 0.151482
vn -0.753747 0.637315 0.160296
vn -0.753747 0.637315 -0.160296
vn -0.713450 0.684137 0.151482
vn -0.590837 0.683472 0.428692
vn -0.623768 0.636615 0.453469
vn -0.753747 0.637315 0.160296
vn -0.590837 0.683472 0.428692
vn -0.366153 0.682253 0.632821
vn -0.385834 0.635333 0.668943
vn -0.623768 0.636615 0.453469
vn -0.366153 0.682253 0.632821
vn -0.077366 0.680683 0.728481
vn -0.080489 0.633685 0.769393
vn -0.385834 0.635333 0.668943
vn -0.077366 0.680683 0.728481
vn 0.226125 0.679029 0.698417
vn 0.239832 0.631953 0.736964
vn -0.080489 0.633685 0.769393
vn 0.226125 0.679029 0.698417
vn 0.491667 0.677579 0.546946
vn 0.519616 0.630437 0.576670
vn 0.239832 0.631953 0.736964
vn 0.491667 0.677579 0.546946
vn 0.672564 0.676589 0.299809
vn 0.709957 0.629404 0.315930
vn 0.519616 0.630437 0.576670
vn 0.672564 0.676589 0.299809
vn 0.736683 0.676238 0.000000
vn 0.777373 0.629040 0.000000
vn 0.709957 0.629404 0.315930
vn 0.736683 0.676238 0.000000
vn 0.672564 0.676589 -0.299809
vn 0.709957 0.629404 -0.315930
vn 0.777373 0.629040 0.000000
vn 0.709957 0.629404 -0.315930
vn 0.519619 0.630436 -0.576668
vn 0.632872 0.325701 -0.702419
vn 0.864045 0.324908 -0.384527
vn 0.519619 0.630436 -0.576668
vn 0.239832 0.631953 -0.736964
vn 0.292404 0.326872 -0.898696
vn 0.632872 0.325701 -0.702419
vn 0.239832 0.631953 -0.736964
vn -0.080493 0.633684 -0.769393
vn -0.098348 0.328212 -0.939470
vn 0.292404 0.326872 -0.898696
vn -0.080493 0.633684 -0.769393
vn -0.385834 0.635333 -0.668943
vn -0.471773 0.329494 -0.817841
vn -0.098348 0.328212 -0.939470
vn -0.385834 0.635333 -0.668943
vn -0.623768 0.636615 -0.453469
vn -0.763418 0.330497 -0.554946
vn -0.471773 0.329494 -0.817841
vn -0.623768 0.636615 -0.453469
vn -0.753747 0.637315 -0.160296
vn -0.922976 0.331047 -0.196272
vn -0.763418 0.330497 -0.554946
vn -0.753747 0.637315 -0.160296
vn -0.753747 0.637315 0.160296
vn -0.922976 0.331047 0.196272
vn -0.922976 0.331047 -0.196272
vn -0.753747 0.637315 0.160296
vn -0.623768 0.636615 0.453469
vn -0.763418 0.330497 0.554946
vn -0.922976 0.331047 0.196272
vn -0.623768 0.636615 0.453469
vn -0.385834 0.635333 0.668943
vn -0.471773 0.329494 0.817841
vn -0.763418 0.330497 0.554946
vn -0.385834 0.635333 0.668943
vn -0.080489 0.633685 0.769393
vn -0.098343 0.328211 0.939471
vn -0.471773 0.329494 0.817841
vn -0.080489 0.633685 0.769393
vn 0.239832 0.631953 0.736964
vn 0.292403 0.326869 0.898698
vn -0.098343 0.328211 0.939471
vn 0.239832 0.631953 0.736964
vn 0.519616 0.630437 0.576670
vn 0.632868 0.325700 0.702422
vn 0.292403 0.326869 0.898698
vn 0.519616 0.630437 0.576670
vn 0.709957 0.629404 0.315930
vn 0.864045 0.324908 0.384527
vn 0.632868 0.325700 0.702422
vn 0.709957 0.629404 0.315930
vn 0.777373 0.629040 0.000000
vn 0.945841 0.324629 0.000000
vn 0.864045 0.324908 0.384527
vn 0.777373 0.629040 0.000000
vn 0.709957 0.629404 -0.315930
vn 0.864045 0.324908 -0.384527
vn 0.945841 0.324629 0.000000
vn 0.864045 0.324908 -0.384527
vn 0.632872 0.325701 -0.702419
vn 0.669134 0.000000 -0.743142
vn 0.913546 0.000000 -0.406735
vn 0.632872 0.325701 -0.702419
vn 0.292404 0.326872 -0.898696
vn 0.309018 0.000000 -0.951056
vn 0.669134 0.000000 -0.743142
vn 0.292404 0.326872 -0.898696
vn -0.098348 0.328212 -0.939470
vn -0.104530 0.000000 -0.994522
vn 0.309018 0.000000 -0.951056
vn -0.098348 0.328212 -0.939470
vn -0.471773 0.329494 -0.817841
vn -0.499998 0.000000 -0.866027
vn -0.104530 0.000000 -0.994522
vn -0.471773 0.329494 -0.817841
vn -0.763418 0.330497 -0.554946
vn -0.809020 0.000000 -0.587782
vn -0.499998 0.000000 -0.866027
vn -0.763418 0.330497 -0.554946
vn -0.922976 0.331047 -0.196272
vn -0.978148 0.000000 -0.207910
vn -0.809020 0.000000 -0.587782
vn -0.922976 0.331047 -0.196272
vn -0.922976 0.331047 0.196272
vn -0.978148 0.000000 0.207910
vn -0.978148 0.000000 -0.207910
vn -0.922976 0.331047 0.196272
vn -0.763418 0.330497 0.554946
vn -0.809020 0.000000 0.587782
vn -0.978148 0.000000 0.207910
vn -0.763418 0.330497 0.554946
vn -0.471773 0.329494 0.817841
vn -0.499998 0.000000 0.866027
vn -0.809020 0.000000 0.587782
vn -0.471773 0.329494 0.817841
vn -0.098343 0.328211 0.939471
vn -0.104530 0.000000 0.994522
vn -0.499998 0.000000 0.866027
vn -0.098343 0.328211 0.939471
vn 0.292403 0.326869 0.898698
vn 0.309016 0.000000 0.951057
vn -0.104530 0.000000 0.994522
vn 0.292403 0.326869 0.898698
vn 0.632868 0.325700 0.702422
vn 0.669134 0.000000 0.743142
vn 0.309016 0.000000 0.951057
vn 0.632868 0.325700 0.702422
vn 0.864045 0.324908 0.384527
vn 0.913547 0.000000 0.406734
vn 0.669134 0.000000 0.743142
vn 0.864045 0.324908 0.384527
vn 0.945841 0.324629 0.000000
vn 1.000000 0.000000 0.000000
vn 0.913547 0.000000 0.406734
vn 0.945841 0.324629 0.000000
vn 0.864045 0.324908 -0.384527
vn 0.913546 0.000000 -0.406735
vn 1.000000 0.000000 0.000000
vn 0.669134 0.000000 -0.743142
vn 0.669134 0.000000 -0.743142
vn 0.913546 0.000000 -0.406735
vn 0.913546 0.000000 -0.406735
vn 0.309018 0.000000 -0.951056
vn 0.309018 0.000000 -0.951056
vn 0.669134 0.000000 -0.743142
vn 0.669134 0.000000 -0.743142
vn -0.104530 0.000000 -0.994522
vn -0.104530 0.000000 -0.994522
vn 0.309018 0.000000 -0.951056
vn 0.309018 0.000000 -0.951056
vn -0.499998 0.000000 -0.866027
vn -0.499998 0.000000 -0.866027
vn -0.104530 0.000000 -0.994522
vn -0.104530 0.000000 -0.994522
vn -0.809020 0.000000 -0.587782
vn -0.809020 0.000000 -0.587782
vn -0.499998 0.000000 -0.866027
vn -0.499998 0.000000 -0.866027
vn -0.978148 0.000000 -0.207910
vn -0.978148 0.000000 -0.207910
vn -0.809020 0.000000 -0.587782
vn -0.809020 0.000000 -0.587782
vn -0.978148 0.000000 0.207910
vn -0.978148 0.000000 0.207910
vn -0.978148 0.000000 -0.207910
vn -0.978148 0.000000 -0.207910
vn -0.809020 0.000000 0.587782
vn -0.809020 0.000000 0.587782
vn -0.978148 0.000000 0.207910
vn -0.978148 0.000000 0.207910
vn -0.499998 0.000000 0.866027
vn -0.499998 0.000000 0.866027
vn -0.809020 0.000000 0.587782
vn -0.809020 0.000000 0.587782
vn -0.104530 0.000000 0.994522
vn -0.104530 0.000000 0.994522
vn -0.499998 0.000000 0.866027
vn -0.499998 0.000000 0.866027
vn 0.309016 0.000000 0.951057
vn 0.309016 0.000000 0.951057
vn -0.104530 0.000000 0.994522
vn -0.104530 0.000000 0.994522
vn 0.669134 0.000000 0.743142
vn 0.669134 0.000000 0.743142
vn 0.309016 0.000000 0.951057
vn 0.309016 0.000000 0.951057
vn 0.913547 0.000000 0.406734
vn 0.913547 0.000000 0.406734
vn 0.669134 0.000000 0.743142
vn 0.669134 0.000000 0.743142
vn 1.000000 0.000000 0.000000
vn 1.000000 0.000000 0.000000
vn 0.913547 0.000000 0.406734
vn 0.913547 0.000000 0.406734
vn 0.913546 0.000000 -0.406735
vn 0.913546 0.000000 -0.406735
vn 1.000000 0.000000 0.000000
vn 1.000000 0.000000 0.000000
vn -0.011159 0.999938 0.000000
vn 0.145998 0.987227 -0.063777
vn 0.111051 0.986529 -0.120115
vn -0.011159 0.999938 0.000000
vn 0.111051 0.986529 -0.120115
vn 0.055475 0.985383 -0.161071
vn -0.011159 0.999938 0.000000
vn 0.055475 0.985383 -0.161071
vn -0.015279 0.983857 -0.178305
vn -0.011159 0.999938 0.000000
vn -0.015279 0.983857 -0.178305
vn -0.091195 0.982138 -0.164584
vn -0.011159 0.999938 0.000000
vn -0.091195 0.982138 -0.164584
vn -0.157234 0.980575 -0.117261
vn -0.011159 0.999938 0.000000
vn -0.157234 0.980575 -0.117261
vn -0.196274 0.979621 -0.042649
vn -0.011159 0.999938 0.000000
vn -0.196274 0.979621 -0.042649
vn -0.196274 0.979621 0.042649
vn -0.011159 0.999938 0.000000
vn -0.196274 0.979621 0.042649
vn -0.157234 0.980575 0.117262
vn -0.011159 0.999938 0.000000
vn -0.157234 0.980575 0.117262
vn -0.091195 0.982138 0.164585
vn -0.011159 0.999938 0.000000
vn -0.091195 0.982138 0.164585
vn -0.015279 0.983856 0.178306
vn -0.011159 0.999938 0.000000
vn -0.015279 0.983856 0.178306
vn 0.055475 0.985383 0.161071
vn -0.011159 0.999938 0.000000
vn 0.055475 0.985383 0.161071
vn 0.111051 0.986529 0.120114
vn -0.011159 0.999938 0.000000
vn 0.111051 0.986529 0.120114
vn 0.145998 0.987227 0.063777
vn -0.011159 0.999938 0.000000
vn 0.145998 0.987227 0.063777
vn 0.157869 0.987460 0.000000
vn -0.011159 0.999938 0.000000
vn 0.157869 0.987460 0.000000
vn 0.145998 0.987227 -0.063777
vn -0.809019 0.000000 0.587783
vn -0.809019 0.000000 0.587783
vn -0.978148 0.000000 0.207910
vn -0.978148 0.000000 0.207910
vn -0.978148 0.000000 -0.207910
vn -0.978148 0.000000 0.207910
vn -0.978148 0.000000 0.207910
vn -0.978148 0.000000 -0.207910
vn -0.809019 0.000000 -0.587783
vn -0.978148 0.000000 -0.207910
vn -0.978148 0.000000 -0.207910
vn -0.809019 0.000000 -0.587783
vn -0.499999 0.000000 -0.866026
vn -0.809019 0.000000 -0.587783
vn -0.809019 0.000000 -0.587783
vn -0.499999 0.000000 -0.866026
vn -0.104529 0.000000 -0.994522
vn -0.499999 0.000000 -0.866026
vn -0.499999 0.000000 -0.866026
vn -0.104529 0.000000 -0.994522
vn 0.309019 0.000000 -0.951056
vn -0.104529 0.000000 -0.994522
vn -0.104529 0.000000 -0.994522
vn 0.309019 0.000000 -0.951056
vn 0.669132 0.000000 -0.743143
vn 0.309019 0.000000 -0.951056
vn 0.309019 0.000000 -0.951056
vn 0.669132 0.000000 -0.743143
vn 0.913547 0.000000 -0.406734
vn 0.669132 0.000000 -0.743143
vn 0.669132 0.000000 -0.743143
vn 0.913547 0.000000 -0.406734
vn 1.000000 0.000000 0.000000
vn 0.913547 0.000000 -0.406734
vn 0.913547 0.000000 -0.406734
vn 1.000000 0.000000 0.000000
vn 0.913547 0.000000 0.406734
vn 1.000000 0.000000 0.000000
vn 1.000000 0.000000 0.000000
vn 0.913547 0.000000 0.406734
vn 0.669132 0.000000 0.743143
vn 0.913547 0.000000 0.406734
vn 0.913547 0.000000 0.406734
vn 0.669132 0.000000 0.743143
vn 0.309017 0.000000 0.951056
vn 0.669132 0.000000 0.743143
vn 0.669132 0.000000 0.743143
vn 0.309017 0.000000 0.951056
vn -0.104530 0.000000 0.994522
vn 0.309017 0.000000 0.951056
vn 0.309017 0.000000 0.951056
vn -0.104530 0.000000 0.994522
vn -0.499999 0.000000 0.866026
vn -0.104530 0.000000 0.994522
vn -0.104530 0.000000 0.994522
vn -0.499999 0.000000 0.866026
vn -0.809019 0.000000 0.587783
vn -0.499999 0.000000 0.866026
vn -0.499999 0.000000 0.866026
vn -0.809019 0.000000 0.587783
vn -0.676876 -0.721900 0.143873
vn -0.559839 -0.721900 0.406744
vn -0.559839 -0.721900 0.406744
vn -0.676876 -0.721900 0.143873
vn -0.676876 -0.721900 -0.143874
vn -0.676876 -0.721900 0.143873
vn -0.676876 -0.721900 0.143873
vn -0.676876 -0.721900 -0.143874
vn -0.559839 -0.721900 -0.406744
vn -0.676876 -0.721900 -0.143874
vn -0.676876 -0.721900 -0.143874
vn -0.559839 -0.721900 -0.406744
vn -0.345998 -0.721900 -0.599288
vn -0.559839 -0.721900 -0.406744
vn -0.559839 -0.721900 -0.406744
vn -0.345998 -0.721900 -0.599288
vn -0.072334 -0.721899 -0.688207
vn -0.345998 -0.721900 -0.599288
vn -0.345998 -0.721900 -0.599288
vn -0.072334 -0.721899 -0.688207
vn 0.213840 -0.721900 -0.658128
vn -0.072334 -0.721899 -0.688207
vn -0.072334 -0.721899 -0.688207
vn 0.213840 -0.721900 -0.658128
vn 0.463038 -0.721900 -0.514253
vn 0.213840 -0.721900 -0.658128
vn 0.213840 -0.721900 -0.658128
vn 0.463038 -0.721900 -0.514253
vn 0.632172 -0.721900 -0.281459
vn 0.463038 -0.721900 -0.514253
vn 0.463038 -0.721900 -0.514253
vn 0.632172 -0.721900 -0.281459
vn 0.691997 -0.721900 0.000000
vn 0.632172 -0.721900 -0.281459
vn 0.632172 -0.721900 -0.281459
vn 0.691997 -0.721900 0.000000
vn 0.632172 -0.721900 0.281458
vn 0.691997 -0.721900 0.000000
vn 0.691997 -0.721900 0.000000
vn 0.632172 -0.721900 0.281458
vn 0.463039 -0.721900 0.514252
vn 0.632172 -0.721900 0.281458
vn 0.632172 -0.721900 0.281458
vn 0.463039 -0.721900 0.514252
vn 0.213839 -0.721900 0.658128
vn 0.463039 -0.721900 0.514252
vn 0.463039 -0.721900 0.514252
vn 0.213839 -0.721900 0.658128
vn -0.072334 -0.721899 0.688208
vn 0.213839 -0.721900 0.658128
vn 0.213839 -0.721900 0.658128
vn -0.072334 -0.721899 0.688208
vn -0.345997 -0.721900 0.599288
vn -0.072334 -0.721899 0.688208
vn -0.072334 -0.721899 0.688208
vn -0.345997 -0.721900 0.599288
vn -0.559839 -0.721900 0.406744
vn -0.345997 -0.721900 0.599288
vn -0.345997 -0.721900 0.599288
vn -0.559839 -0.721900 0.406744
s off
g ghost_Mesh
f 1/1/1 2/2/2 17/3/3 16/4/4
f 2/2/5 3/104/6 18/5/7 17/3/8
f 3/104/9 4/105/10 19/106/11 18/5/12
f 4/6/13 5/8/14 20/9/15 19/7/16
f 5/8/17 6/10/18 21/11/19 20/9/20
f 6/10/21 7/12/22 22/13/23 21/11/24
f 7/12/25 8/14/26 23/15/27 22/13/28
f 8/14/29 9/16/30 24/17/31 23/15/32
f 9/16/33 10/18/34 25/19/35 24/17/36
f 10/18/37 11/20/38 26/21/39 25/19/40
f 11/20/41 12/22/42 27/23/43 26/21/44
f 12/22/45 13/24/46 28/25/47 27/23/48
f 13/24/49 14/26/50 29/27/51 28/25/52
f 14/26/53 15/28/54 30/29/55 29/27/56
f 15/28/57 1/1/58 16/4/59 30/29/60
f 16/4/61 17/3/62 32/30/63 31/31/64
f 17/3/65 18/5/66 33/32/67 32/30/68
f 18/5/69 19/106/70 34/107/71 33/32/72
f 19/7/73 20/9/74 35/34/75 34/33/76
f 20/9/77 21/11/78 36/35/79 35/34/80
f 21/11/81 22/13/82 37/36/83 36/35/84
f 22/13/85 23/15/86 38/37/87 37/36/88
f 23/15/89 24/17/90 39/38/91 38/37/92
f 24/17/93 25/19/94 40/39/95 39/38/96
f 25/19/97 26/21/98 41/40/99 40/39/100
f 26/21/101 27/23/102 42/41/103 41/40/104
f 27/23/105 28/25/106 43/42/107 42/41/108
f 28/25/109 29/27/110 44/43/111 43/42/112
f 29/27/113 30/29/114 45/44/115 44/43/116
f 30/29/117 16/4/118 31/31/119 45/44/120
f 31/31/121 32/30/122 47/45/123 46/46/124
f 32/30/125 33/32/126 48/47/127 47/45/128
f 33/32/129 34/107/130 49/108/131 48/47/132
f 34/33/133 35/34/134 50/49/135 49/48/136
f 35/34/137 36/35/138 51/50/139 50/49/140
f 36/35/141 37/36/142 52/51/143 51/50/144
f 37/36/145 38/37/146 53/52/147 52/51/148
f 38/37/149 39/38/150 54/53/151 53/52/152
f 39/38/153 40/39/154 55/54/155 54/53/156
f 40/39/157 41/40/158 56/55/159 55/54/160
f 41/40/161 42/41/162 57/56/163 56/55/164
f 42/41/165 43/42/166 58/57/167 57/56/168
f 43/42/169 44/43/170 59/58/171 58/57/172
f 44/43/173 45/44/174 60/59/175 59/58/176
f 45/44/177 31/31/178 46/46/179 60/59/180
f 47/45/181 69/60/182 70/61/183 46/46/184
f 48/47/185 68/62/186 69/60/187 47/45/188
f 49/108/189 67/114/190 68/62/191 48/47/192
f 50/49/193 66/64/194 67/63/195 49/48/196
f 51/50/197 65/65/198 66/64/199 50/49/200
f 52/51/201 64/66/202 65/65/203 51/50/204
f 53/52/205 63/67/206 64/66/207 52/51/208
f 54/53/209 62/68/210 63/67/211 53/52/212
f 55/54/213 76/69/214 62/68/215 54/53/216
f 56/55/217 75/70/218 76/69/219 55/54/220
f 57/56/221 74/71/222 75/70/223 56/55/224
f 58/57/225 73/72/226 74/71/227 57/56/228
f 59/58/229 72/73/230 73/72/231 58/57/232
f 60/59/233 71/74/234 72/73/235 59/58/236
f 46/46/237 70/61/238 71/74/239 60/59/240
f 61/110/241 94/76/242 92/77/243
f 61/110/244 92/77/245 90/113/246
f 61/110/247 90/113/248 88/109/249
f 61/75/250 88/78/251 86/79/252
f 61/75/253 86/79/254 84/80/255
f 61/75/256 84/80/257 82/81/258
f 61/75/259 82/81/260 79/82/261
f 61/75/262 79/82/263 78/83/264
f 61/75/265 78/83/266 106/84/267
f 61/75/268 106/84/269 104/85/270
f 61/75/271 104/85/272 102/86/273
f 61/75/274 102/86/275 100/87/276
f 61/75/277 100/87/278 98/88/279
f 61/75/280 98/88/281 96/89/282
f 61/110/283 96/111/284 94/76/285
f 77/90/286 78/83/287 79/82/288 80/91/289
f 81/92/290 80/91/291 79/82/292 82/81/293
f 83/93/294 81/92/295 82/81/296 84/80/297
f 85/94/298 83/93/299 84/80/300 86/79/301
f 87/95/302 85/94/303 86/79/304 88/78/305
f 89/115/306 87/112/307 88/109/308 90/113/309
f 91/96/310 89/115/311 90/113/312 92/77/313
f 93/97/314 91/96/315 92/77/316 94/76/317
f 95/98/318 93/97/319 94/76/320 96/89/321
f 97/99/322 95/98/323 96/89/324 98/88/325
f 99/100/326 97/99/327 98/88/328 100/87/329
f 101/101/330 99/100/331 100/87/332 102/86/333
f 103/102/334 101/101/335 102/86/336 104/85/337
f 105/103/338 103/102/339 104/85/340 106/84/341
f 77/90/342 105/103/343 106/84/344 78/83/345
f 63/67/346 62/68/347 77/90/348 80/91/349
f 64/66/350 63/67/351 80/91/352 81/92/353
f 65/65/354 64/66/355 81/92/356 83/93/357
f 66/64/358 65/65/359 83/93/360 85/94/361
f 67/63/362 66/64/363 85/94/364 87/95/365
f 68/62/366 67/114/367 87/112/368 89/115/369
f 69/60/370 68/62/371 89/115/372 91/96/373
f 70/61/374 69/60/375 91/96/376 93/97/377
f 71/74/378 70/61/379 93/97/380 95/98/381
f 72/73/382 71/74/383 95/98/384 97/99/385
f 73/72/386 72/73/387 97/99/388 99/100/389
f 74/71/390 73/72/391 99/100/392 101/101/393
f 75/70/394 74/71/395 101/101/396 103/102/397
f 76/69/398 75/70/399 103/102/400 105/103/401
f 62/68/402 76/69/403 105/103/404 77/90/405
