# This file uses centimeters as units for non-parametric coordinates.

g default
v 0.456773 0.000000 -0.203368
v 0.334565 0.000000 -0.371572
v 0.154509 0.000000 -0.475528
v -0.052264 0.000000 -0.497261
v -0.250000 0.000000 -0.433013
v -0.404508 0.000000 -0.293893
v -0.489074 0.000000 -0.103956
v -0.489074 0.000000 0.103956
v -0.404508 0.000000 0.293893
v -0.250000 0.000000 0.433013
v -0.052264 0.000000 0.497261
v 0.154508 0.000000 0.475528
v 0.334565 0.000000 0.371572
v 0.456773 0.000000 0.203368
v 0.500000 0.000000 0.000000
v 0.913545 0.000000 -0.406736
v 0.669131 0.000000 -0.743145
v 0.309017 0.000000 -0.951056
v -0.104528 0.000000 -0.994522
v -0.500000 0.000000 -0.866025
v -0.809017 0.000000 -0.587785
v -0.978147 0.000000 -0.207912
v -0.978148 0.000000 0.207912
v -0.809017 0.000000 0.587785
v -0.500000 0.000000 0.866025
v -0.104529 0.000000 0.994522
v 0.309017 0.000000 0.951056
v 0.669131 0.000000 0.743145
v 0.913545 0.000000 0.406737
v 1.000000 0.000000 0.000000
v 0.913545 0.118130 -0.406736
v 0.669131 0.118130 -0.743145
v 0.309017 0.118130 -0.951056
v -0.104528 0.118130 -0.994522
v -0.500000 0.118130 -0.866025
v -0.809017 0.118130 -0.587785
v -0.978147 0.118130 -0.207912
v -0.978148 0.118130 0.207912
v -0.809017 0.118130 0.587785
v -0.500000 0.118130 0.866025
v -0.104529 0.118130 0.994522
v 0.309017 0.118130 0.951056
v 0.669131 0.118130 0.743145
v 0.913545 0.118130 0.406737
v 1.000000 0.118130 0.000000
v 0.380021 0.270637 -0.168782
v 0.278597 0.270637 -0.308381
v 0.129161 0.270637 -0.394658
v -0.042447 0.270637 -0.412694
v -0.206555 0.270637 -0.359373
v -0.334787 0.270637 -0.243912
v -0.404971 0.270637 -0.086277
v -0.404971 0.270637 0.086277
v -0.334787 0.270637 0.243912
v -0.206555 0.270637 0.359373
v -0.042447 0.270637 0.412694
v 0.129161 0.270637 0.394658
v 0.278597 0.270637 0.308381
v 0.380021 0.270637 0.168783
v 0.415897 0.270637 0.000000
v 0.000000 0.000000 0.000000
v 0.000000 0.270637 0.000000
v 0.411197 0.209826 0.182010
v 0.301823 0.209826 0.332549
v 0.140677 0.209826 0.425588
v -0.044381 0.209826 0.445038
v -0.221350 0.209826 0.387537
v -0.359632 0.209826 0.263027
v -0.435316 0.209826 0.093038
v -0.435316 0.209826 -0.093038
v -0.359632 0.209826 -0.263028
v -0.221350 0.209826 -0.387537
v -0.044380 0.209826 -0.445038
v 0.140677 0.209826 -0.425587
v 0.301824 0.209826 -0.332549
v 0.411196 0.209826 -0.182010
v 0.449884 0.209826 0.000000
v 0.735704 0.118130 0.327419
v 0.538953 0.118130 0.598224
v 0.249065 0.118130 0.765590
v -0.083835 0.118130 0.800579
v -0.402185 0.118130 0.697141
v -0.650940 0.118130 0.473161
v -0.787089 0.118130 0.167367
v -0.787089 0.118130 -0.167367
v -0.650940 0.118130 -0.473161
v -0.402185 0.118130 -0.697141
v -0.083834 0.118130 -0.800579
v 0.249065 0.118130 -0.765590
v 0.538953 0.118130 -0.598223
v 0.735704 0.118130 -0.327418
v 0.805299 0.118130 0.000000
vt 3.842316 2.590022
vt 4.148224 2.368984
vt 4.823990 2.974115
vt 4.212175 3.416187
vt 4.337285 2.043316
vt 5.202111 2.322775
vt 4.376810 1.669325
vt 5.281161 1.574795
vt 4.259964 1.311679
vt 5.047468 0.859504
vt 4.006951 1.032220
vt 4.541442 0.300584
vt 3.661519 0.879266
vt 3.850580 -0.005322
vt 3.283397 0.879266
vt 3.094336 -0.005324
vt 2.937964 1.032220
vt 2.403474 0.300584
vt 2.684952 1.311679
vt 1.897448 0.859504
vt 2.568106 1.669325
vt 1.663755 1.574793
vt 2.607631 2.043314
vt 1.742805 2.322775
vt 2.796692 2.368984
vt 2.120926 2.974115
vt 3.102600 2.590022
vt 2.732739 3.416187
vt 3.472458 2.668207
vt 3.472458 3.572558
vt 5.768766 -0.025086
vt 6.255336 -0.025086
vt 6.255336 1.553871
vt 5.768766 1.553871
vt 6.740245 -0.025086
vt 6.740245 1.553871
vt -0.011756 -0.025086
vt -0.011756 1.553871
vt 0.468904 -0.025086
vt 0.468904 1.553871
vt 0.947719 -0.025086
vt 0.947719 1.553871
vt 1.425297 -0.025086
vt 1.425297 1.553871
vt 1.902443 -0.025086
vt 1.902443 1.553871
vt 2.380021 -0.025086
vt 2.380021 1.553871
vt 2.858836 -0.025086
vt 2.858836 1.553871
vt 3.339496 -0.025086
vt 3.339496 1.553871
vt 3.822309 -0.025086
vt 3.822309 1.553871
vt 4.307217 -0.025086
vt 4.307217 1.553871
vt 4.793787 -0.025086
vt 4.793787 1.553871
vt 5.281276 -0.025086
vt 5.281276 1.553871
vt 4.300111 2.779504
vt 4.789870 2.779504
vt 4.212175 3.416187
vt 4.823990 2.974115
vt 4.560426 2.738661
vt 4.067922 3.094525
vt 5.202111 2.322775
vt 4.864810 2.214340
vt 5.281161 1.574795
vt 4.928443 1.612224
vt 5.047468 0.859504
vt 4.740324 1.036422
vt 4.541442 0.300584
vt 4.332980 0.586498
vt 3.850580 -0.005322
vt 3.776843 0.340245
vt 3.094336 -0.005324
vt 3.168073 0.340245
vt 2.403474 0.300584
vt 2.611937 0.586498
vt 1.897448 0.859504
vt 2.204592 1.036422
vt 1.663755 1.574793
vt 2.016472 1.612223
vt 1.742805 2.322775
vt 2.080106 2.214340
vt 2.120926 2.974115
vt 2.384488 2.738661
vt 2.732739 3.416187
vt 2.876992 3.094525
vt 3.472458 3.572558
vt 3.472458 3.220402
vt 3.472458 1.763855
vt 3.779416 2.451200
vt 4.033300 2.267755
vt 3.472458 1.763855
vt 4.190208 1.997469
vt 4.223010 1.687081
vt 4.126038 1.390258
vt 3.916053 1.158325
vt 3.629367 1.031383
vt 3.315549 1.031383
vt 3.028864 1.158325
vt 2.818879 1.390258
vt 2.721906 1.687081
vt 2.754707 1.997469
vt 2.911616 2.267755
vt 3.165498 2.451200
vt 3.472458 2.516090
vt 3.141443 2.507588
vt 2.867663 2.309763
vt 2.698456 2.018298
vt 2.663083 1.683583
vt 2.767658 1.363499
vt 2.994100 1.113388
vt 3.303253 0.976498
vt 3.641663 0.976498
vt 3.950818 1.113388
vt 4.177258 1.363499
vt 4.281834 1.683585
vt 4.246459 2.018298
vt 4.077253 2.309765
vt 3.803474 2.507586
vt 3.472458 2.577562
vt 4.787418 3.592320
vt 4.295686 3.592320
vt 3.813316 2.779504
vt 3.807738 3.592320
vt 3.330206 2.779504
vt 3.324480 3.592320
vt 2.850842 2.779504
vt 2.845939 3.592320
vt 2.374644 2.779504
vt 2.371359 3.592320
vt 1.900549 2.779504
vt 1.899397 3.592320
vt 1.427191 2.779504
vt 1.428344 3.592320
vt 0.953096 2.779504
vt 0.956381 3.592320
vt 0.476899 2.779504
vt 0.481802 3.592320
vt -0.002468 2.779504
vt 0.003261 3.592320
vt 6.262440 2.779504
vt 6.266868 3.592320
vt 5.772684 2.779504
vt 5.775132 3.592320
vt 5.281276 2.779504
vt 5.281276 3.592320
vt 7.223056 -0.025086
vt 7.223056 1.553871
vt 6.749237 2.779504
vt 7.232345 2.779504
vt 7.238073 3.592320
vt 6.754815 3.592320
vn 0.000000 -1.000000 0.000000
vn 0.000000 -1.000000 0.000000
vn 0.000000 -1.000000 0.000000
vn 0.000000 -1.000000 0.000000
vn 0.000000 -1.000000 0.000000
vn 0.000000 -1.000000 0.000000
vn 0.000000 -1.000000 0.000000
vn 0.000000 -1.000000 0.000000
vn 0.000000 -1.000000 0.000000
vn 0.000000 -1.000000 0.000000
vn 0.000000 -1.000000 0.000000
vn 0.000000 -1.000000 0.000000
vn 0.000000 -1.000000 0.000000
vn 0.000000 -1.000000 0.000000
vn 0.000000 -1.000000 0.000000
vn 0.000000 -1.000000 0.000000
vn 0.000000 -1.000000 0.000000
vn 0.000000 -1.000000 0.000000
vn 0.000000 -1.000000 0.000000
vn 0.000000 -1.000000 0.000000
vn 0.000000 -1.000000 0.000000
vn 0.000000 -1.000000 0.000000
vn 0.000000 -1.000000 0.000000
vn 0.000000 -1.000000 0.000000
vn 0.000000 -1.000000 0.000000
vn 0.000000 -1.000000 0.000000
vn 0.000000 -1.000000 0.000000
vn 0.000000 -1.000000 0.000000
vn 0.000000 -1.000000 0.000000
vn 0.000000 -1.000000 0.000000
vn 0.000000 -1.000000 0.000000
vn 0.000000 -1.000000 0.000000
vn 0.000000 -1.000000 0.000000
vn 0.000000 -1.000000 0.000000
vn 0.000000 -1.000000 0.000000
vn 0.000000 -1.000000 0.000000
vn 0.000000 -1.000000 0.000000
vn 0.000000 -1.000000 0.000000
vn 0.000000 -1.000000 0.000000
vn 0.000000 -1.000000 0.000000
vn 0.000000 -1.000000 0.000000
vn 0.000000 -1.000000 0.000000
vn 0.000000 -1.000000 0.000000
vn 0.000000 -1.000000 0.000000
vn 0.000000 -1.000000 0.000000
vn 0.000000 -1.000000 0.000000
vn 0.000000 -1.000000 0.000000
vn 0.000000 -1.000000 0.000000
vn 0.000000 -1.000000 0.000000
vn 0.000000 -1.000000 0.000000
vn 0.000000 -1.000000 0.000000
vn 0.000000 -1.000000 0.000000
vn 0.000000 -1.000000 0.000000
vn 0.000000 -1.000000 0.000000
vn 0.000000 -1.000000 0.000000
vn 0.000000 -1.000000 0.000000
vn 0.000000 -1.000000 0.000000
vn 0.000000 -1.000000 0.000000
vn 0.000000 -1.000000 0.000000
vn 0.000000 -1.000000 0.000000
vn 0.913545 0.000000 -0.406737
vn 0.669131 0.000000 -0.743145
vn 0.669131 0.000000 -0.743145
vn 0.913545 0.000000 -0.406737
vn 0.669131 0.000000 -0.743145
vn 0.309017 0.000000 -0.951056
vn 0.309017 0.000000 -0.951056
vn 0.669131 0.000000 -0.743145
vn 0.309017 0.000000 -0.951056
vn -0.104528 0.000000 -0.994522
vn -0.104528 0.000000 -0.994522
vn 0.309017 0.000000 -0.951056
vn -0.104528 0.000000 -0.994522
vn -0.500000 0.000000 -0.866026
vn -0.500000 0.000000 -0.866026
vn -0.104528 0.000000 -0.994522
vn -0.500000 0.000000 -0.866026
vn -0.809017 0.000000 -0.587785
vn -0.809017 0.000000 -0.587785
vn -0.500000 0.000000 -0.866026
vn -0.809017 0.000000 -0.587785
vn -0.978148 0.000000 -0.207912
vn -0.978148 0.000000 -0.207912
vn -0.809017 0.000000 -0.587785
vn -0.978148 0.000000 -0.207912
vn -0.978148 0.000000 0.207912
vn -0.978148 0.000000 0.207912
vn -0.978148 0.000000 -0.207912
vn -0.978148 0.000000 0.207912
vn -0.809017 0.000000 0.587785
vn -0.809017 0.000000 0.587785
vn -0.978148 0.000000 0.207912
vn -0.809017 0.000000 0.587785
vn -0.500000 0.000000 0.866025
vn -0.500000 0.000000 0.866025
vn -0.809017 0.000000 0.587785
vn -0.500000 0.000000 0.866025
vn -0.104529 0.000000 0.994522
vn -0.104529 0.000000 0.994522
vn -0.500000 0.000000 0.866025
vn -0.104529 0.000000 0.994522
vn 0.309017 0.000000 0.951057
vn 0.309017 0.000000 0.951057
vn -0.104529 0.000000 0.994522
vn 0.309017 0.000000 0.951057
vn 0.669131 0.000000 0.743145
vn 0.669131 0.000000 0.743145
vn 0.309017 0.000000 0.951057
vn 0.669131 0.000000 0.743145
vn 0.913545 0.000000 0.406737
vn 0.913545 0.000000 0.406737
vn 0.669131 0.000000 0.743145
vn 0.913545 0.000000 0.406737
vn 1.000000 0.000000 0.000000
vn 1.000000 0.000000 0.000000
vn 0.913545 0.000000 0.406737
vn 1.000000 0.000000 0.000000
vn 0.913545 0.000000 -0.406737
vn 0.913545 0.000000 -0.406737
vn 1.000000 0.000000 0.000000
vn 0.000000 1.000000 0.000000
vn 0.000000 1.000000 0.000000
vn 0.088897 0.991133 -0.098756
vn 0.121496 0.991116 -0.054104
vn 0.000000 1.000000 0.000000
vn 0.000000 1.000000 0.000000
vn 0.040982 0.991157 -0.126204
vn 0.088897 0.991133 -0.098756
vn 0.000000 1.000000 0.000000
vn 0.000000 1.000000 0.000000
vn -0.013872 0.991185 -0.131754
vn 0.040982 0.991157 -0.126204
vn 0.000000 1.000000 0.000000
vn 0.000000 1.000000 0.000000
vn -0.066159 0.991212 -0.114550
vn -0.013872 0.991185 -0.131754
vn 0.000000 1.000000 0.000000
vn 0.000000 1.000000 0.000000
vn -0.106901 0.991233 -0.077651
vn -0.066159 0.991212 -0.114550
vn 0.000000 1.000000 0.000000
vn 0.000000 1.000000 0.000000
vn -0.129158 0.991244 -0.027448
vn -0.106901 0.991233 -0.077651
vn 0.000000 1.000000 0.000000
vn 0.000000 1.000000 0.000000
vn -0.129158 0.991244 0.027448
vn -0.129158 0.991244 -0.027448
vn 0.000000 1.000000 0.000000
vn 0.000000 1.000000 0.000000
vn -0.106901 0.991233 0.077651
vn -0.129158 0.991244 0.027448
vn 0.000000 1.000000 0.000000
vn 0.000000 1.000000 0.000000
vn -0.066159 0.991212 0.114550
vn -0.106901 0.991233 0.077651
vn 0.000000 1.000000 0.000000
vn 0.000000 1.000000 0.000000
vn -0.013872 0.991185 0.131754
vn -0.066159 0.991212 0.114550
vn 0.000000 1.000000 0.000000
vn 0.000000 1.000000 0.000000
vn 0.040982 0.991157 0.126204
vn -0.013872 0.991185 0.131754
vn 0.000000 1.000000 0.000000
vn 0.000000 1.000000 0.000000
vn 0.088897 0.991133 0.098756
vn 0.040982 0.991157 0.126204
vn 0.000000 1.000000 0.000000
vn 0.000000 1.000000 0.000000
vn 0.121496 0.991116 0.054104
vn 0.088897 0.991133 0.098756
vn 0.000000 1.000000 0.000000
vn 0.000000 1.000000 0.000000
vn 0.133042 0.991110 0.000000
vn 0.121496 0.991116 0.054104
vn 0.000000 1.000000 0.000000
vn 0.000000 1.000000 0.000000
vn 0.121496 0.991116 -0.054104
vn 0.133042 0.991110 0.000000
vn 0.000000 -1.000000 0.000000
vn 0.000000 -1.000000 0.000000
vn 0.000000 -1.000000 0.000000
vn 0.000000 -1.000000 0.000000
vn 0.000000 -1.000000 0.000000
vn 0.000000 -1.000000 0.000000
vn 0.000000 -1.000000 0.000000
vn 0.000000 -1.000000 0.000000
vn 0.000000 -1.000000 0.000000
vn 0.000000 -1.000000 0.000000
vn 0.000000 -1.000000 0.000000
vn 0.000000 -1.000000 0.000000
vn 0.000000 -1.000000 0.000000
vn 0.000000 -1.000000 0.000000
vn 0.000000 -1.000000 0.000000
vn 0.000000 -1.000000 0.000000
vn 0.000000 -1.000000 0.000000
vn 0.000000 -1.000000 0.000000
vn 0.000000 -1.000000 0.000000
vn 0.000000 -1.000000 0.000000
vn 0.000000 -1.000000 0.000000
vn 0.000000 -1.000000 0.000000
vn 0.000000 -1.000000 0.000000
vn 0.000000 -1.000000 0.000000
vn 0.000000 -1.000000 0.000000
vn 0.000000 -1.000000 0.000000
vn 0.000000 -1.000000 0.000000
vn 0.000000 -1.000000 0.000000
vn 0.000000 -1.000000 0.000000
vn 0.000000 -1.000000 0.000000
vn 0.000000 -1.000000 0.000000
vn 0.000000 -1.000000 0.000000
vn 0.000000 -1.000000 0.000000
vn 0.000000 -1.000000 0.000000
vn 0.000000 -1.000000 0.000000
vn 0.000000 -1.000000 0.000000
vn 0.000000 -1.000000 0.000000
vn 0.000000 -1.000000 0.000000
vn 0.000000 -1.000000 0.000000
vn 0.000000 -1.000000 0.000000
vn 0.000000 -1.000000 0.000000
vn 0.000000 -1.000000 0.000000
vn 0.000000 -1.000000 0.000000
vn 0.000000 -1.000000 0.000000
vn 0.000000 -1.000000 0.000000
vn 0.258055 0.959271 -0.114917
vn 0.189366 0.959106 -0.210371
vn 0.000000 1.000000 0.000000
vn 0.189366 0.959106 -0.210371
vn 0.087675 0.958861 -0.269999
vn 0.000000 1.000000 0.000000
vn 0.087675 0.958861 -0.269999
vn -0.029826 0.958576 -0.283270
vn 0.000000 1.000000 0.000000
vn -0.029826 0.958576 -0.283270
vn -0.142920 0.958302 -0.247451
vn 0.000000 1.000000 0.000000
vn -0.142920 0.958302 -0.247451
vn -0.231789 0.958085 -0.168366
vn 0.000000 1.000000 0.000000
vn -0.231789 0.958085 -0.168366
vn -0.280616 0.957966 -0.059635
vn 0.000000 1.000000 0.000000
vn -0.280616 0.957966 -0.059635
vn -0.280616 0.957966 0.059635
vn 0.000000 1.000000 0.000000
vn -0.280616 0.957966 0.059635
vn -0.231789 0.958085 0.168365
vn 0.000000 1.000000 0.000000
vn -0.231789 0.958085 0.168365
vn -0.142920 0.958302 0.247451
vn 0.000000 1.000000 0.000000
vn -0.142920 0.958302 0.247451
vn -0.029826 0.958576 0.283270
vn 0.000000 1.000000 0.000000
vn -0.029826 0.958576 0.283270
vn 0.087675 0.958861 0.269999
vn 0.000000 1.000000 0.000000
vn 0.087675 0.958861 0.269999
vn 0.189366 0.959106 0.210371
vn 0.000000 1.000000 0.000000
vn 0.189366 0.959106 0.210371
vn 0.258055 0.959271 0.114917
vn 0.000000 1.000000 0.000000
vn 0.258055 0.959271 0.114917
vn 0.282288 0.959330 0.000000
vn 0.000000 1.000000 0.000000
vn 0.282288 0.959330 0.000000
vn 0.258055 0.959271 -0.114917
vn 0.000000 1.000000 0.000000
vn 0.220702 0.944056 0.245050
vn 0.301476 0.943982 0.134200
vn 0.258055 0.959271 0.114917
vn 0.189366 0.959106 0.210371
vn 0.101866 0.944163 0.313335
vn 0.220702 0.944056 0.245050
vn 0.189366 0.959106 0.210371
vn 0.087675 0.958861 0.269999
vn -0.034346 0.944287 0.327326
vn 0.101866 0.944163 0.313335
vn 0.087675 0.958861 0.269999
vn -0.029826 0.958576 0.283270
vn -0.164349 0.944405 0.284761
vn -0.034346 0.944287 0.327326
vn -0.029826 0.958576 0.283270
vn -0.142920 0.958302 0.247451
vn -0.265759 0.944497 0.193127
vn -0.164349 0.944405 0.284761
vn -0.142920 0.958302 0.247451
vn -0.231789 0.958085 0.168365
vn -0.321198 0.944547 0.068285
vn -0.265759 0.944497 0.193127
vn -0.231789 0.958085 0.168365
vn -0.280616 0.957966 0.059635
vn -0.321198 0.944547 -0.068285
vn -0.321198 0.944547 0.068285
vn -0.280616 0.957966 0.059635
vn -0.280616 0.957966 -0.059635
vn -0.265759 0.944497 -0.193127
vn -0.321198 0.944547 -0.068285
vn -0.280616 0.957966 -0.059635
vn -0.231789 0.958085 -0.168366
vn -0.164349 0.944405 -0.284761
vn -0.265759 0.944497 -0.193127
vn -0.231789 0.958085 -0.168366
vn -0.142920 0.958302 -0.247451
vn -0.034346 0.944287 -0.327326
vn -0.164349 0.944405 -0.284761
vn -0.142920 0.958302 -0.247451
vn -0.029826 0.958576 -0.283270
vn 0.101866 0.944163 -0.313335
vn -0.034346 0.944287 -0.327326
vn -0.029826 0.958576 -0.283270
vn 0.087675 0.958861 -0.269999
vn 0.220702 0.944056 -0.245050
vn 0.101866 0.944163 -0.313335
vn 0.087675 0.958861 -0.269999
vn 0.189366 0.959106 -0.210371
vn 0.301476 0.943982 -0.134200
vn 0.220702 0.944056 -0.245050
vn 0.189366 0.959106 -0.210371
vn 0.258055 0.959271 -0.114917
vn 0.330071 0.943956 0.000000
vn 0.301476 0.943982 -0.134200
vn 0.258055 0.959271 -0.114917
vn 0.282288 0.959330 0.000000
vn 0.301476 0.943982 0.134200
vn 0.330071 0.943956 0.000000
vn 0.282288 0.959330 0.000000
vn 0.258055 0.959271 0.114917
vn 0.088897 0.991133 0.098756
vn 0.121496 0.991116 0.054104
vn 0.301476 0.943982 0.134200
vn 0.220702 0.944056 0.245050
vn 0.040982 0.991157 0.126204
vn 0.088897 0.991133 0.098756
vn 0.220702 0.944056 0.245050
vn 0.101866 0.944163 0.313335
vn -0.013872 0.991185 0.131754
vn 0.040982 0.991157 0.126204
vn 0.101866 0.944163 0.313335
vn -0.034346 0.944287 0.327326
vn -0.066159 0.991212 0.114550
vn -0.013872 0.991185 0.131754
vn -0.034346 0.944287 0.327326
vn -0.164349 0.944405 0.284761
vn -0.106901 0.991233 0.077651
vn -0.066159 0.991212 0.114550
vn -0.164349 0.944405 0.284761
vn -0.265759 0.944497 0.193127
vn -0.129158 0.991244 0.027448
vn -0.106901 0.991233 0.077651
vn -0.265759 0.944497 0.193127
vn -0.321198 0.944547 0.068285
vn -0.129158 0.991244 -0.027448
vn -0.129158 0.991244 0.027448
vn -0.321198 0.944547 0.068285
vn -0.321198 0.944547 -0.068285
vn -0.106901 0.991233 -0.077651
vn -0.129158 0.991244 -0.027448
vn -0.321198 0.944547 -0.068285
vn -0.265759 0.944497 -0.193127
vn -0.066159 0.991212 -0.114550
vn -0.106901 0.991233 -0.077651
vn -0.265759 0.944497 -0.193127
vn -0.164349 0.944405 -0.284761
vn -0.013872 0.991185 -0.131754
vn -0.066159 0.991212 -0.114550
vn -0.164349 0.944405 -0.284761
vn -0.034346 0.944287 -0.327326
vn 0.040982 0.991157 -0.126204
vn -0.013872 0.991185 -0.131754
vn -0.034346 0.944287 -0.327326
vn 0.101866 0.944163 -0.313335
vn 0.088897 0.991133 -0.098756
vn 0.040982 0.991157 -0.126204
vn 0.101866 0.944163 -0.313335
vn 0.220702 0.944056 -0.245050
vn 0.121496 0.991116 -0.054104
vn 0.088897 0.991133 -0.098756
vn 0.220702 0.944056 -0.245050
vn 0.301476 0.943982 -0.134200
vn 0.133042 0.991110 0.000000
vn 0.121496 0.991116 -0.054104
vn 0.301476 0.943982 -0.134200
vn 0.330071 0.943956 0.000000
vn 0.121496 0.991116 0.054104
vn 0.133042 0.991110 0.000000
vn 0.330071 0.943956 0.000000
vn 0.301476 0.943982 0.134200
s off
g ghost_Mesh
f 1/1/1 2/2/2 17/3/3 16/4/4
f 2/2/5 3/5/6 18/6/7 17/3/8
f 3/5/9 4/7/10 19/8/11 18/6/12
f 4/7/13 5/9/14 20/10/15 19/8/16
f 5/9/17 6/11/18 21/12/19 20/10/20
f 6/11/21 7/13/22 22/14/23 21/12/24
f 7/13/25 8/15/26 23/16/27 22/14/28
f 8/15/29 9/17/30 24/18/31 23/16/32
f 9/17/33 10/19/34 25/20/35 24/18/36
f 10/19/37 11/21/38 26/22/39 25/20/40
f 11/21/41 12/23/42 27/24/43 26/22/44
f 12/23/45 13/25/46 28/26/47 27/24/48
f 13/25/49 14/27/50 29/28/51 28/26/52
f 14/27/53 15/29/54 30/30/55 29/28/56
f 15/29/57 1/1/58 16/4/59 30/30/60
f 16/31/61 17/32/62 32/33/63 31/34/64
f 17/32/65 18/35/66 33/36/67 32/33/68
f 18/35/69 19/151/70 34/152/71 33/36/72
f 19/37/73 20/39/74 35/40/75 34/38/76
f 20/39/77 21/41/78 36/42/79 35/40/80
f 21/41/81 22/43/82 37/44/83 36/42/84
f 22/43/85 23/45/86 38/46/87 37/44/88
f 23/45/89 24/47/90 39/48/91 38/46/92
f 24/47/93 25/49/94 40/50/95 39/48/96
f 25/49/97 26/51/98 41/52/99 40/50/100
f 26/51/101 27/53/102 42/54/103 41/52/104
f 27/53/105 28/55/106 43/56/107 42/54/108
f 28/55/109 29/57/110 44/58/111 43/56/112
f 29/57/113 30/59/114 45/60/115 44/58/116
f 30/59/117 16/31/118 31/34/119 45/60/120
f 31/63/121 32/64/122 90/65/123 91/66/124
f 32/64/125 33/67/126 89/68/127 90/65/128
f 33/67/129 34/69/130 88/70/131 89/68/132
f 34/69/133 35/71/134 87/72/135 88/70/136
f 35/71/137 36/73/138 86/74/139 87/72/140
f 36/73/141 37/75/142 85/76/143 86/74/144
f 37/75/145 38/77/146 84/78/147 85/76/148
f 38/77/149 39/79/150 83/80/151 84/78/152
f 39/79/153 40/81/154 82/82/155 83/80/156
f 40/81/157 41/83/158 81/84/159 82/82/160
f 41/83/161 42/85/162 80/86/163 81/84/164
f 42/85/165 43/87/166 79/88/167 80/86/168
f 43/87/169 44/89/170 78/90/171 79/88/172
f 44/89/173 45/91/174 92/92/175 78/90/176
f 45/91/177 31/63/178 91/66/179 92/92/180
f 2/2/181 1/1/182 61/93/183
f 3/5/184 2/2/185 61/93/186
f 4/7/187 3/5/188 61/93/189
f 5/9/190 4/7/191 61/93/192
f 6/11/193 5/9/194 61/93/195
f 7/13/196 6/11/197 61/93/198
f 8/15/199 7/13/200 61/93/201
f 9/17/202 8/15/203 61/93/204
f 10/19/205 9/17/206 61/93/207
f 11/21/208 10/19/209 61/93/210
f 12/23/211 11/21/212 61/93/213
f 13/25/214 12/23/215 61/93/216
f 14/27/217 13/25/218 61/93/219
f 15/29/220 14/27/221 61/93/222
f 1/1/223 15/29/224 61/93/225
f 46/94/226 47/95/227 62/96/228
f 47/95/229 48/97/230 62/96/231
f 48/97/232 49/98/233 62/96/234
f 49/98/235 50/99/236 62/96/237
f 50/99/238 51/100/239 62/96/240
f 51/100/241 52/101/242 62/96/243
f 52/101/244 53/102/245 62/96/246
f 53/102/247 54/103/248 62/96/249
f 54/103/250 55/104/251 62/96/252
f 55/104/253 56/105/254 62/96/255
f 56/105/256 57/106/257 62/96/258
f 57/106/259 58/107/260 62/96/261
f 58/107/262 59/108/263 62/96/264
f 59/108/265 60/109/266 62/96/267
f 60/109/268 46/94/269 62/96/270
f 64/61/271 63/62/272 59/125/273 58/126/274
f 65/127/275 64/61/276 58/126/277 57/128/278
f 66/129/279 65/127/280 57/128/281 56/130/282
f 67/131/283 66/129/284 56/130/285 55/132/286
f 68/133/287 67/131/288 55/132/289 54/134/290
f 69/135/291 68/133/292 54/134/293 53/136/294
f 70/137/295 69/135/296 53/136/297 52/138/298
f 71/139/299 70/137/300 52/138/301 51/140/302
f 72/141/303 71/139/304 51/140/305 50/142/306
f 73/143/307 72/141/308 50/142/309 49/144/310
f 74/153/311 73/154/312 49/155/313 48/156/314
f 75/145/315 74/153/316 48/156/317 47/146/318
f 76/147/319 75/145/320 47/146/321 46/148/322
f 77/149/323 76/147/324 46/148/325 60/150/326
f 63/62/327 77/149/328 60/150/329 59/125/330
f 79/88/331 78/90/332 63/110/333 64/111/334
f 80/86/335 79/88/336 64/111/337 65/112/338
f 81/84/339 80/86/340 65/112/341 66/113/342
f 82/82/343 81/84/344 66/113/345 67/114/346
f 83/80/347 82/82/348 67/114/349 68/115/350
f 84/78/351 83/80/352 68/115/353 69/116/354
f 85/76/355 84/78/356 69/116/357 70/117/358
f 86/74/359 85/76/360 70/117/361 71/118/362
f 87/72/363 86/74/364 71/118/365 72/119/366
f 88/70/367 87/72/368 72/119/369 73/120/370
f 89/68/371 88/70/372 73/120/373 74/121/374
f 90/65/375 89/68/376 74/121/377 75/122/378
f 91/66/379 90/65/380 75/122/381 76/123/382
f 92/92/383 91/66/384 76/123/385 77/124/386
f 78/90/387 92/92/388 77/124/389 63/110/390
