# This file uses centimeters as units for non-parametric coordinates.

mtllib lamp_lampShade_1.mtl
v -0.799182 0.000000 0.799182
v 0.799182 0.000000 0.799182
v -0.350683 2.092153 0.350683
v 0.350683 2.092153 0.350683
v -0.350683 2.092153 -0.350683
v 0.350683 2.092153 -0.350683
v -0.799182 0.000000 -0.799182
v 0.799182 0.000000 -0.799182
v -0.288228 2.092153 0.288228
v 0.288228 2.092153 0.288228
v 0.288228 2.092153 -0.288228
v -0.288228 2.092153 -0.288228
v -0.656846 0.000000 -0.656846
v 0.656846 0.000000 -0.656846
v 0.656846 0.000000 0.656846
v -0.656846 0.000000 0.656846
vt 0.823944 0.402149
vt 1.019642 0.490095
vt 0.849614 0.721573
vt 0.763742 0.682982
vt 0.271244 0.650530
vt 0.413696 0.490095
vt 0.583724 0.721573
vt 0.521215 0.791972
vt 0.609393 0.402149
vt 0.669596 0.682982
vt 0.453955 0.834429
vt 0.548100 0.834429
vt 0.539717 0.842812
vt 0.462338 0.842812
vt 0.548100 0.928574
vt 0.539717 0.920191
vt 0.453955 0.928574
vt 0.462338 0.920191
vt 0.233428 0.834429
vt 0.447979 0.834429
vt 0.428873 0.853534
vt 0.252534 0.853534
vt 0.447979 1.048980
vt 0.428873 1.029874
vt 0.233428 1.048980
vt 0.252534 1.029874
vt 0.315783 0.450490
vt 0.277040 0.517471
vt 0.009169 0.419693
vt 0.097460 0.267049
vt 0.375085 0.400783
vt 0.232604 0.153772
vt 0.447804 0.374338
vt 0.398324 0.093505
vt 0.525183 0.374338
vt 0.574663 0.093505
vn 0.000000 0.209609 -0.977785
vn 0.000000 0.209609 -0.977785
vn 0.000000 0.209609 -0.977785
vn 0.000000 0.209609 -0.977785
vn -0.977785 0.209609 0.000000
vn -0.977785 0.209609 0.000000
vn -0.977785 0.209609 0.000000
vn -0.977785 0.209609 0.000000
vn 0.000000 0.209609 0.977785
vn 0.000000 0.209609 0.977785
vn 0.000000 0.209609 0.977785
vn 0.000000 0.209609 0.977785
vn 0.977785 0.209609 0.000000
vn 0.977785 0.209609 0.000000
vn 0.977785 0.209609 0.000000
vn 0.977785 0.209609 0.000000
vn 0.000000 1.000000 0.000001
vn 0.000000 1.000000 0.000001
vn 0.000000 1.000000 0.000001
vn 0.000000 1.000000 0.000001
vn 0.000000 1.000000 0.000001
vn 0.000000 1.000000 -0.000001
vn 0.000000 1.000000 -0.000001
vn 0.000000 1.000000 0.000001
vn 0.000000 1.000000 -0.000001
vn 0.000000 1.000000 -0.000001
vn 0.000000 1.000000 -0.000001
vn 0.000000 1.000000 -0.000001
vn 0.000000 1.000000 -0.000001
vn 0.000000 1.000000 0.000001
vn 0.000000 1.000000 0.000001
vn 0.000000 1.000000 -0.000001
vn 0.000000 -1.000000 0.000000
vn 0.000000 -1.000000 0.000000
vn 0.000000 -1.000000 0.000000
vn 0.000000 -1.000000 0.000000
vn 0.000000 -1.000000 0.000000
vn 0.000000 -1.000000 0.000000
vn 0.000000 -1.000000 0.000000
vn 0.000000 -1.000000 0.000000
vn 0.000000 -1.000000 0.000000
vn 0.000000 -1.000000 0.000000
vn 0.000000 -1.000000 0.000000
vn 0.000000 -1.000000 0.000000
vn 0.000000 -1.000000 0.000000
vn 0.000000 -1.000000 0.000000
vn 0.000000 -1.000000 0.000000
vn 0.000000 -1.000000 0.000000
vn -0.984830 -0.173519 0.000000
vn -0.984830 -0.173519 0.000000
vn -0.984830 -0.173519 0.000000
vn -0.984830 -0.173519 0.000000
vn 0.000000 -0.173519 -0.984830
vn 0.000000 -0.173519 -0.984830
vn 0.000000 -0.173519 -0.984830
vn 0.000000 -0.173519 -0.984830
vn 0.984830 -0.173519 0.000000
vn 0.984830 -0.173519 0.000000
vn 0.984830 -0.173519 0.000000
vn 0.984830 -0.173519 0.000000
vn 0.000000 -0.173519 0.984830
vn 0.000000 -0.173519 0.984830
vn 0.000000 -0.173519 0.984830
vn 0.000000 -0.173519 0.984830
s off
usemtl initialShadingGroup
f 8/1/1 7/2/2 5/3/3 6/4/4
f 7/5/5 1/6/6 3/7/7 5/8/8
f 1/6/9 2/9/10 4/10/11 3/7/12
f 2/9/13 8/1/14 6/4/15 4/10/16
f 3/11/17 4/12/18 10/13/19 9/14/20
f 4/12/21 6/15/22 11/16/23 10/13/24
f 6/15/25 5/17/26 12/18/27 11/16/28
f 5/17/29 3/11/30 9/14/31 12/18/32
f 7/19/33 8/20/34 14/21/35 13/22/36
f 8/20/37 2/23/38 15/24/39 14/21/40
f 2/23/41 1/25/42 16/26/43 15/24/44
f 1/25/45 7/19/46 13/22/47 16/26/48
f 10/27/49 11/28/50 14/29/51 15/30/52
f 9/31/53 10/27/54 15/30/55 16/32/56
f 12/33/57 9/31/58 16/32/59 13/34/60
f 11/35/61 12/33/62 13/34/63 14/36/64
