# This file uses centimeters as units for non-parametric coordinates.

mtllib loveseat_back_1.mtl
v 0.000000 0.000000 -2.208256
v 0.000000 0.000000 0.000000
v -9.553721 8.852057 -2.111248
v -9.553721 8.617860 -2.208256
v -9.787919 8.617860 -2.111248
v -9.884927 8.617860 -1.877050
v -9.787919 8.852057 -1.877050
v -9.553721 9.081040 -1.788410
v -9.553721 8.448120 -0.097008
v -9.553721 8.677103 -0.419846
v -9.787919 8.448120 -0.331206
v -9.884927 8.213923 -0.331206
v -9.787919 8.213923 -0.097008
v -9.553721 8.213923 0.000000
v -9.553721 0.000000 -2.208256
v -9.884927 0.000000 -1.877050
v -9.787919 0.000000 -2.111248
v -9.553721 0.000000 0.000000
v -9.787919 0.000000 -0.097008
v -9.884927 0.000000 -0.331206
v 0.000000 8.617860 -2.208256
v 0.000000 8.852057 -2.111248
v 0.000000 9.081040 -1.788410
v 0.000000 8.213923 0.000000
v 0.000000 8.677103 -0.419846
v 0.000000 8.448120 -0.097008
v -9.744877 8.809014 -2.068205
v -9.744877 8.405077 -0.140051
v 0.000000 0.000000 -2.208256
v 0.000000 0.000000 0.000000
v 9.549120 8.852057 -2.111248
v 9.549120 8.617860 -2.208256
v 9.783205 8.617860 -2.111248
v 9.880165 8.617860 -1.877050
v 9.783205 8.852057 -1.877050
v 9.549120 9.081040 -1.788410
v 9.549120 8.448120 -0.097008
v 9.549120 8.677103 -0.419846
v 9.783205 8.448120 -0.331206
v 9.880165 8.213923 -0.331206
v 9.783205 8.213923 -0.097008
v 9.549120 8.213923 0.000000
v 9.549120 0.000000 -2.208256
v 9.880165 0.000000 -1.877050
v 9.783205 0.000000 -2.111248
v 9.549120 0.000000 0.000000
v 9.783205 0.000000 -0.097008
v 9.880165 0.000000 -0.331206
v 0.000000 8.617860 -2.208256
v 0.000000 8.852057 -2.111248
v 0.000000 9.081040 -1.788410
v 0.000000 8.213923 0.000000
v 0.000000 8.677103 -0.419846
v 0.000000 8.448120 -0.097008
v 9.740184 8.809014 -2.068205
v 9.740184 8.405077 -0.140051
vt 0.774999 0.923819
vt 0.770316 0.929569
vt 0.772244 0.752672
vt 0.776802 0.758523
vt 0.763883 0.935301
vt 0.765938 0.746801
vt 0.733683 0.962296
vt 0.733647 0.966917
vt 0.563608 0.965653
vt 0.563643 0.961032
vt 0.774955 0.927871
vt 0.945035 0.925672
vt 0.944990 0.929724
vt 0.765581 0.939941
vt 0.735081 0.939608
vt 0.736880 0.935006
vt 0.738304 0.962330
vt 0.725939 0.931736
vt 0.730560 0.931770
vt 0.730572 0.929292
vt 0.732504 0.752082
vt 0.738000 0.748653
vt 0.726013 0.923597
vt 0.727807 0.758624
vt 0.725971 0.927382
vt 0.563903 0.925898
vt 0.563884 0.927630
vt 0.563869 0.930531
vt 0.565810 0.750724
vt 0.946836 0.760377
vt 0.526715 0.939559
vt 0.522116 0.937595
vt 0.520251 0.932953
vt 0.522303 0.744453
vt 0.561857 0.938027
vt 0.557216 0.939891
vt 0.769362 0.939133
vt 0.771192 0.927085
vt 0.737426 0.966095
vt 0.730531 0.933093
vt 0.725179 0.923658
vt 0.725834 0.758355
vt 0.730478 0.752571
vt 0.729777 0.929478
vt 0.736871 0.746795
vt 0.736124 0.935305
vt 0.765920 0.962745
vt 0.935960 0.964008
vt 0.935925 0.968629
vt 0.765886 0.967366
vt 0.725163 0.927711
vt 0.555120 0.927037
vt 0.555136 0.922984
vt 0.763128 0.935411
vt 0.764859 0.940040
vt 0.734357 0.939919
vt 0.761299 0.962711
vt 0.769496 0.932269
vt 0.774117 0.932303
vt 0.764778 0.749063
vt 0.770223 0.752573
vt 0.769521 0.929792
vt 0.774822 0.759183
vt 0.774164 0.924165
vt 0.936214 0.930607
vt 0.936221 0.928874
vt 0.774150 0.927950
vt 0.936186 0.933507
vt 0.936918 0.753691
vt 0.555791 0.757681
vt 0.973202 0.943086
vt 0.942700 0.942965
vt 0.938087 0.941032
vt 0.980514 0.748068
vt 0.979763 0.936577
vt 0.977831 0.941191
vt 0.730589 0.939054
vt 0.728938 0.926981
vt 0.762120 0.966489
vt 0.769505 0.933593
vn -0.009738 0.010786 -0.999894
vn -0.008857 0.381679 -0.924253
vn 0.000000 0.382682 -0.923880
vn 0.000000 0.010958 -0.999940
vn -0.004524 0.816139 -0.577838
vn -0.030709 0.993756 0.107270
vn 0.000000 0.994693 0.102889
vn 0.000000 0.815661 -0.578530
vn -0.998458 0.011500 -0.054318
vn -0.924060 0.004077 -0.382226
vn -0.923879 0.000000 -0.382684
vn -0.998456 0.000000 -0.055544
vn -0.381570 0.009810 -0.924288
vn -0.009738 0.010786 -0.999894
vn -0.009910 0.000000 -0.999951
vn -0.382684 0.000000 -0.923879
vn -0.030709 0.993756 0.107270
vn -0.643992 0.764967 -0.010008
vn -0.611840 0.737350 0.286298
vn -0.030184 0.937028 0.347947
vn -0.924414 0.377959 0.051039
vn -0.998458 0.011500 -0.054318
vn -0.998514 0.010091 0.053554
vn -0.918348 0.375804 0.124128
vn -0.030184 0.937028 0.347947
vn -0.004524 0.816138 0.577839
vn 0.000000 0.815661 0.578531
vn 0.000000 0.936576 0.350465
vn -0.008857 0.381679 0.924253
vn -0.009729 0.011302 0.999889
vn 0.000000 0.011482 0.999934
vn 0.000000 0.382683 0.923880
vn -0.009729 0.011302 0.999889
vn -0.381517 0.010278 0.924305
vn -0.382684 0.000000 0.923879
vn -0.009910 0.000000 0.999951
vn -0.924069 0.004275 0.382203
vn -0.998514 0.010091 0.053554
vn -0.998580 0.000000 0.053282
vn -0.923879 0.000000 0.382684
vn -0.998458 0.011500 -0.054318
vn -0.998456 0.000000 -0.055544
vn -0.998580 0.000000 0.053282
vn -0.998514 0.010091 0.053554
vn -0.030709 0.993756 0.107270
vn -0.030184 0.937028 0.347947
vn 0.000000 0.936576 0.350465
vn 0.000000 0.994693 0.102889
vn -0.009729 0.011302 0.999889
vn -0.009910 0.000000 0.999951
vn 0.000000 0.000000 1.000000
vn 0.000000 0.011482 0.999934
vn 0.000000 0.000000 -1.000000
vn -0.009910 0.000000 -0.999951
vn -0.009738 0.010786 -0.999894
vn 0.000000 0.010958 -0.999940
vn 0.000000 -1.000000 0.000000
vn 0.000000 -1.000000 0.000000
vn 0.000000 -1.000000 0.000000
vn 0.000000 -1.000000 0.000000
vn 0.000000 -1.000000 0.000000
vn 0.000000 -1.000000 0.000000
vn 0.000000 -1.000000 0.000000
vn 0.000000 -1.000000 0.000000
vn -0.643992 0.764967 -0.010008
vn -0.030709 0.993756 0.107270
vn -0.004524 0.816139 -0.577838
vn -0.447334 0.774458 -0.447333
vn -0.008857 0.381679 -0.924253
vn -0.009738 0.010786 -0.999894
vn -0.381570 0.009810 -0.924288
vn -0.325270 0.325268 -0.887919
vn -0.924060 0.004077 -0.382226
vn -0.998458 0.011500 -0.054318
vn -0.924414 0.377959 0.051039
vn -0.887919 0.325269 -0.325269
vn -0.381517 0.010278 0.924305
vn -0.009729 0.011302 0.999889
vn -0.008857 0.381679 0.924253
vn -0.325270 0.325268 0.887919
vn -0.004524 0.816138 0.577839
vn -0.030184 0.937028 0.347947
vn -0.611840 0.737350 0.286298
vn -0.447334 0.774457 0.447334
vn -0.918348 0.375804 0.124128
vn -0.998514 0.010091 0.053554
vn -0.924069 0.004275 0.382203
vn -0.887919 0.325269 0.325270
vn 0.009743 0.010786 -0.999894
vn 0.000000 0.010958 -0.999940
vn 0.000000 0.382682 -0.923880
vn 0.008861 0.381679 -0.924253
vn 0.004526 0.816139 -0.577838
vn 0.000000 0.815661 -0.578530
vn 0.000000 0.994693 0.102889
vn 0.030724 0.993755 0.107270
vn 0.998459 0.011494 -0.054292
vn 0.998458 0.000000 -0.055517
vn 0.923944 0.000000 -0.382527
vn 0.924125 0.004075 -0.382069
vn 0.381727 0.009809 -0.924223
vn 0.382842 0.000000 -0.923814
vn 0.009915 0.000000 -0.999951
vn 0.009743 0.010786 -0.999894
vn 0.030724 0.993755 0.107270
vn 0.030199 0.937028 0.347947
vn 0.612025 0.737217 0.286246
vn 0.644173 0.764814 -0.010006
vn 0.924479 0.377804 0.051018
vn 0.918418 0.375651 0.124078
vn 0.998515 0.010086 0.053528
vn 0.998459 0.011494 -0.054292
vn 0.030199 0.937028 0.347947
vn 0.000000 0.936576 0.350465
vn 0.000000 0.815661 0.578531
vn 0.004526 0.816138 0.577839
vn 0.008861 0.381679 0.924253
vn 0.000000 0.382683 0.923880
vn 0.000000 0.011482 0.999934
vn 0.009734 0.011302 0.999889
vn 0.009734 0.011302 0.999889
vn 0.009915 0.000000 0.999951
vn 0.382842 0.000000 0.923814
vn 0.381674 0.010277 0.924240
vn 0.924133 0.004273 0.382046
vn 0.923944 0.000000 0.382527
vn 0.998581 0.000000 0.053256
vn 0.998515 0.010086 0.053528
vn 0.998459 0.011494 -0.054292
vn 0.998515 0.010086 0.053528
vn 0.998581 0.000000 0.053256
vn 0.998458 0.000000 -0.055517
vn 0.030724 0.993755 0.107270
vn 0.000000 0.994693 0.102889
vn 0.000000 0.936576 0.350465
vn 0.030199 0.937028 0.347947
vn 0.009734 0.011302 0.999889
vn 0.000000 0.011482 0.999934
vn 0.000000 0.000000 1.000000
vn 0.009915 0.000000 0.999951
vn 0.000000 0.000000 -1.000000
vn 0.000000 0.010958 -0.999940
vn 0.009743 0.010786 -0.999894
vn 0.009915 0.000000 -0.999951
vn 0.000000 -1.000000 0.000000
vn 0.000000 -1.000000 0.000000
vn 0.000000 -1.000000 0.000000
vn 0.000000 -1.000000 0.000000
vn 0.000000 -1.000000 0.000000
vn 0.000000 -1.000000 0.000000
vn 0.000000 -1.000000 0.000000
vn 0.000000 -1.000000 0.000000
vn 0.644173 0.764814 -0.010006
vn 0.447507 0.774383 -0.447290
vn 0.004526 0.816139 -0.577838
vn 0.030724 0.993755 0.107270
vn 0.008861 0.381679 -0.924253
vn 0.325410 0.325251 -0.887874
vn 0.381727 0.009809 -0.924223
vn 0.009743 0.010786 -0.999894
vn 0.924125 0.004075 -0.382069
vn 0.888010 0.325145 -0.325145
vn 0.924479 0.377804 0.051018
vn 0.998459 0.011494 -0.054292
vn 0.381674 0.010277 0.924240
vn 0.325410 0.325251 0.887874
vn 0.008861 0.381679 0.924253
vn 0.009734 0.011302 0.999889
vn 0.004526 0.816138 0.577839
vn 0.447507 0.774383 0.447291
vn 0.612025 0.737217 0.286246
vn 0.030199 0.937028 0.347947
vn 0.918418 0.375651 0.124078
vn 0.888009 0.325145 0.325146
vn 0.924133 0.004273 0.382046
vn 0.998515 0.010086 0.053528
s off
usemtl initialShadingGroup
f 4/1/1 3/2/2 22/3/3 21/4/4
f 3/2/5 8/5/6 23/6/7 22/3/8
f 6/7/9 5/8/10 17/9/11 16/10/12
f 5/11/13 4/1/14 15/12/15 17/13/16
f 8/5/17 7/14/18 11/15/19 10/16/20
f 7/17/21 6/7/22 12/18/23 11/19/24
f 10/16/25 9/20/26 26/21/27 25/22/28
f 9/20/29 14/23/30 24/24/31 26/21/32
f 14/23/33 13/25/34 19/26/35 18/27/36
f 13/25/37 12/18/38 20/28/39 19/26/40
f 6/7/41 16/10/42 20/28/43 12/18/44
f 8/5/45 10/16/46 25/22/47 23/6/48
f 14/23/49 18/27/50 2/29/51 24/24/52
f 1/30/53 15/12/54 4/1/55 21/4/56
f 16/31/57 17/32/58 15/33/59 1/34/60 2/29/61 18/27/62 19/35/63 20/36/64
f 7/14/65 8/5/66 3/2/67 27/37/68
f 3/2/69 4/1/70 5/11/71 27/38/72
f 5/8/73 6/7/74 7/17/75 27/39/76
f 13/25/77 14/23/78 9/20/79 28/40/80
f 9/20/81 10/16/82 11/15/83 28/40/84
f 11/19/85 12/18/86 13/25/87 28/40/88
f 32/41/89 49/42/90 50/43/91 31/44/92
f 31/44/93 50/43/94 51/45/95 36/46/96
f 34/47/97 44/48/98 45/49/99 33/50/100
f 33/51/101 45/52/102 43/53/103 32/41/104
f 36/46/105 38/54/106 39/55/107 35/56/108
f 35/57/109 39/58/110 40/59/111 34/47/112
f 38/54/113 53/60/114 54/61/115 37/62/116
f 37/62/117 54/61/118 52/63/119 42/64/120
f 42/64/121 46/65/122 47/66/123 41/67/124
f 41/67/125 47/66/126 48/68/127 40/59/128
f 34/47/129 40/59/130 48/68/131 44/48/132
f 36/46/133 51/45/134 53/60/135 38/54/136
f 42/64/137 52/63/138 30/69/139 46/65/140
f 29/70/141 49/42/142 32/41/143 43/53/144
f 44/71/145 48/72/146 47/73/147 46/65/148 30/69/149 29/74/150 43/75/151 45/76/152
f 35/56/153 55/77/154 31/44/155 36/46/156
f 31/44/157 55/78/158 33/51/159 32/41/160
f 33/50/161 55/79/162 35/57/163 34/47/164
f 41/67/165 56/80/166 37/62/167 42/64/168
f 37/62/169 56/80/170 39/55/171 38/54/172
f 39/58/173 56/80/174 41/67/175 40/59/176
