# This file uses centimeters as units for non-parametric coordinates.

v -0.500000 -8.000000 0.200691
v 0.500000 -8.000000 0.200691
v -0.500000 -8.000000 0.000000
v 0.500000 -8.000000 0.000000
v -6.702148 28.280157 0.254829
v 6.702148 28.280157 0.254829
v -6.702148 5.959108 0.254829
v 6.702148 5.959112 0.254829
vt 0.024862 0.047822
vt 0.065768 0.047822
vt 0.065768 0.047822
vt 0.024862 0.047822
vt 0.413399 0.969228
vt 0.413399 0.056162
vt 0.961716 0.056162
vt 0.961716 0.969228
vn 0.000000 1.000000 0.000000
vn 0.000000 1.000000 0.000000
vn 0.000000 1.000000 0.000000
vn 0.000000 1.000000 0.000000
vn 0.000000 0.000000 1.000000
vn 0.000000 0.000000 1.000000
vn 0.000000 0.000000 1.000000
vn 0.000000 0.000000 1.000000
g pPlane5
f 1/1/1 2/2/2 4/3/3 3/4/4
f 5/5/5 7/6/6 8/7/7 6/8/8
