# This file uses centimeters as units for non-parametric coordinates.

mtllib pillows_1.mtl
v -1.469887 0.632659 -2.021877
v -1.462546 0.192601 2.023708
v -1.462546 0.699334 2.023708
v -2.751467 0.465158 -2.033596
v -1.469887 0.245516 -2.021877
v 2.684133 0.501032 -2.024842
v -1.323316 1.073049 0.693464
v -2.924864 0.674808 0.966385
v 2.924864 0.677489 0.966385
v 2.924864 0.230461 0.966385
v 2.924865 0.253372 -0.966385
v 1.322432 -0.147612 -0.694828
v 2.924865 0.703323 -0.966385
v -1.325747 1.038236 -0.699331
v -2.929716 0.630736 -0.980941
v 1.462546 0.709143 -2.023708
v 1.322860 -0.170395 0.693751
v 0.839948 0.006325 1.579759
v 1.462546 0.205115 2.023708
v 1.462546 0.696269 2.023708
v 0.839226 0.948614 -1.580329
v -3.019821 0.484140 1.657048
v -2.684133 0.482647 2.024842
v 2.684133 0.392364 2.024842
v 2.684133 0.509743 2.024842
v 3.019821 0.510566 1.657048
v -3.071020 0.470213 -1.772010
v 3.019821 0.496548 -1.657048
v 3.019821 0.362024 -1.657047
v -2.315828 0.297413 2.041661
v 3.019821 0.391455 1.657048
v 2.980266 0.562980 1.442229
v 2.980266 0.339001 1.442229
v -2.980266 0.297969 1.442229
v -2.924864 0.218401 0.966385
v -3.019821 0.338541 1.657048
v -2.980266 0.552293 1.442229
v -2.923353 0.485721 1.875594
v -2.327771 0.742092 1.579218
v 2.315828 0.340831 2.041661
v 2.923353 0.391284 1.875594
v 2.327771 0.163518 1.579218
v 0.839948 0.894449 1.579759
v 1.322861 1.080301 0.693751
v 1.108606 1.020614 1.229648
v -0.840030 0.895561 1.579736
v -1.108789 1.020665 1.229567
v 1.108606 -0.118696 1.229648
v -0.840030 -0.000767 1.579736
v -1.323316 -0.177575 0.693464
v -1.108789 -0.128193 1.229567
v -2.929716 0.262451 -0.980941
v -3.006777 0.658177 0.000000
v -3.006777 0.243625 0.000000
v -2.337296 0.218161 -1.589159
v -1.325747 -0.139916 -0.699331
v -0.844182 -0.016360 -1.580971
v 1.384763 -0.163320 -0.000546
v 0.839226 -0.039129 -1.580329
v 1.107902 -0.130014 -1.230539
v 3.006777 0.693768 0.000000
v 3.006777 0.246618 0.000000
v 2.980266 0.568433 -1.442229
v 2.980266 0.325052 -1.442229
v 2.315828 0.559772 -2.041661
v 2.923353 0.499039 -1.875594
v 2.327771 0.747927 -1.579217
v 1.322432 1.082120 -0.694828
v -1.386003 1.064790 -0.001786
v -0.844182 0.845524 -1.580971
v -1.113041 0.963805 -1.234098
v 0.000000 0.688832 -2.086818
v 1.462546 0.196762 -2.023708
v 0.000000 0.210719 -2.086818
v 2.684133 0.383020 -2.024842
v 2.315828 0.340401 -2.041661
v -0.000298 -0.255309 0.626377
v -0.001428 -0.230061 -0.629212
v -0.000047 -0.030431 1.572025
v 0.000000 0.688387 2.086818
v 0.000000 0.213181 2.086818
v 2.315828 0.563648 2.041661
v -0.000298 1.158376 0.626377
v -0.001691 0.958926 -1.572904
v -0.001428 1.142342 -0.629212
v -2.923353 0.327043 1.875594
v -2.327771 0.144385 1.579218
v 2.923353 0.510736 1.875594
v 2.327771 0.737859 1.579218
v -2.337296 0.661744 -1.589159
v 2.923353 0.363457 -1.875594
v 2.327771 0.183094 -1.579217
v -3.010587 0.521034 -1.533203
v -3.071020 0.352469 -1.772010
v -3.010586 0.329169 -1.533203
v -2.990027 0.473416 -1.945185
v -2.751467 0.356583 -2.033596
v -2.990026 0.339348 -1.945185
v -2.361707 0.512820 -2.030220
v -2.361706 0.330914 -2.030220
v -2.684133 0.339792 2.024842
v -2.315828 0.549044 2.041661
v -2.648047 0.595655 1.741945
v 2.648047 0.299486 1.741945
v -1.386003 -0.164263 -0.001786
v -1.113041 -0.110977 -1.234098
v 2.648047 0.602105 -1.741945
v 1.384763 1.090378 -0.000546
v 1.107902 1.052008 -1.230539
v -0.001691 -0.056325 -1.572903
v -0.000678 -0.250921 -0.001138
v -0.001980 -0.177886 -1.152239
v -0.000118 -0.179867 1.150057
v -0.000047 0.929275 1.572024
v -0.000118 1.078659 1.150057
v -0.001980 1.085255 -1.152239
v -0.000678 1.161352 -0.001138
v -2.648047 0.253112 1.741945
v 2.648047 0.602398 1.741945
v 2.648047 0.294609 -1.741945
v -2.686146 0.547006 -1.781711
v -2.686146 0.300037 -1.781711
vt 0.085333 0.855738
vt 0.085296 0.836969
vt 0.088328 0.856615
vt 0.088322 0.836969
vt 0.092395 0.836969
vt 0.092394 0.858847
vt 0.116724 0.866666
vt 0.115759 0.836969
vt 0.119914 0.866666
vt 0.119191 0.836969
vt 0.122622 0.836969
vt 0.123105 0.866666
vt 0.079661 0.836969
vt 0.076471 0.836969
vt 0.082852 0.836969
vt 0.083816 0.866666
vt 0.080385 0.866666
vt 0.076953 0.866666
vt 0.086876 0.864338
vt 0.085136 0.861764
vt 0.088165 0.866649
vt 0.084939 0.871221
vt 0.084939 0.867789
vt 0.084939 0.874652
vt 0.113717 0.955759
vt 0.110929 0.955759
vt 0.112498 0.953482
vt 0.114177 0.955198
vt 0.106947 0.955759
vt 0.111270 0.952250
vt 0.114637 0.951205
vt 0.114637 0.954637
vt 0.114637 0.947774
vt 0.104164 0.869293
vt 0.114637 0.875134
vt 0.106173 0.875194
vt 0.105840 0.871143
vt 0.095410 0.869289
vt 0.093734 0.871138
vt 0.093402 0.875207
vt 0.104159 0.953035
vt 0.105839 0.951255
vt 0.106173 0.947229
vt 0.092395 0.955759
vt 0.095410 0.953034
vt 0.084939 0.947291
vt 0.093402 0.947224
vt 0.093735 0.951252
vt 0.063889 0.854264
vt 0.063227 0.836969
vt 0.070421 0.860465
vt 0.069849 0.836969
vt 0.084939 0.940669
vt 0.084939 0.934047
vt 0.088133 0.927217
vt 0.092364 0.920557
vt 0.093291 0.940907
vt 0.093402 0.934586
vt 0.093734 0.930542
vt 0.095410 0.928709
vt 0.114637 0.934530
vt 0.106284 0.940913
vt 0.106173 0.934591
vt 0.104166 0.928715
vt 0.105841 0.930546
vt 0.129727 0.866666
vt 0.129244 0.836969
vt 0.135866 0.836969
vt 0.136349 0.866666
vt 0.139780 0.866666
vt 0.139057 0.836969
vt 0.142247 0.836969
vt 0.143212 0.866666
vt 0.114637 0.881756
vt 0.114637 0.888378
vt 0.114335 0.907739
vt 0.111297 0.905411
vt 0.112728 0.898488
vt 0.114486 0.901490
vt 0.107193 0.902826
vt 0.111425 0.895927
vt 0.114637 0.891810
vt 0.114637 0.895241
vt 0.106284 0.881518
vt 0.106173 0.887840
vt 0.105841 0.891885
vt 0.104166 0.893719
vt 0.084939 0.900119
vt 0.093291 0.881589
vt 0.093402 0.887949
vt 0.092363 0.904472
vt 0.095410 0.893746
vt 0.093734 0.891956
vt 0.099789 0.903922
vt 0.107193 0.920326
vt 0.099789 0.918576
vt 0.114335 0.920750
vt 0.111297 0.919928
vt 0.099788 0.928334
vt 0.099788 0.940910
vt 0.099788 0.947175
vt 0.099788 0.934646
vt 0.099788 0.930702
vt 0.099788 0.951119
vt 0.099786 0.953439
vt 0.099724 0.857321
vt 0.099679 0.836969
vt 0.106947 0.836969
vt 0.107062 0.859163
vt 0.111109 0.857971
vt 0.110929 0.836969
vt 0.113717 0.836969
vt 0.114134 0.858975
vt 0.099787 0.868922
vt 0.099788 0.871307
vt 0.099788 0.875251
vt 0.099788 0.891724
vt 0.099788 0.894093
vt 0.099788 0.887780
vt 0.099788 0.881515
vt 0.085296 0.955759
vt 0.085117 0.954716
vt 0.086872 0.953120
vt 0.088322 0.955759
vt 0.084939 0.953672
vt 0.084939 0.950482
vt 0.088170 0.952006
vt 0.099679 0.955759
vt 0.114385 0.863864
vt 0.112641 0.865543
vt 0.114637 0.868754
vt 0.114637 0.871944
vt 0.111357 0.867149
vt 0.084939 0.887385
vt 0.088132 0.902713
vt 0.114486 0.924450
vt 0.112728 0.925913
vt 0.114637 0.928149
vt 0.114637 0.931339
vt 0.111425 0.927271
vt 0.114637 0.941152
vt 0.084074 0.836969
vt 0.084575 0.861202
vt 0.113717 0.836969
vt 0.114738 0.836969
vt 0.115680 0.866666
vt 0.114637 0.866666
vt 0.060535 0.847556
vt 0.057181 0.840847
vt 0.055803 0.836969
vt 0.059515 0.836969
vt 0.056927 0.840340
vt 0.056673 0.839833
vt 0.055241 0.836969
vt 0.055522 0.836969
vt 0.084939 0.921765
vt 0.088148 0.913156
vt 0.084939 0.926062
vt 0.088148 0.922545
vt 0.144334 0.854354
vt 0.143773 0.860510
vt 0.144334 0.836969
vt 0.143291 0.836969
vt 0.086773 0.911096
vt 0.084939 0.921004
vt 0.084939 0.920244
vt 0.084939 0.910181
vt 0.086773 0.926669
vt 0.084939 0.930335
vt 0.084939 0.926623
vt 0.084939 0.926342
vn -0.242899 0.630269 0.737401
vn -0.206516 -0.668143 0.714798
vn -0.075022 -0.621090 0.780140
vn -0.105366 0.587882 0.802055
vn -0.063191 -0.610072 0.789823
vn -0.069679 0.610977 0.788576
vn 0.633298 0.760653 0.142623
vn 0.633490 -0.760479 0.142695
vn 0.658094 -0.747435 0.090850
vn 0.659713 0.745435 0.095419
vn 0.465029 -0.883231 0.060422
vn 0.464699 0.881760 0.080958
vn -0.653340 -0.755845 0.042965
vn -0.670189 -0.733892 0.110673
vn -0.708221 0.686177 0.166082
vn -0.688619 0.718059 0.100971
vn -0.462368 -0.885410 0.047595
vn -0.463004 0.884294 0.060426
vn -0.248479 0.925297 0.286502
vn -0.502666 0.726190 0.469014
vn -0.193670 0.956982 0.216049
vn 0.216774 -0.704138 0.676164
vn 0.100074 -0.619904 0.778270
vn 0.225800 -0.939439 0.257813
vn 0.442896 -0.796474 0.411671
vn 0.070872 -0.617337 0.783500
vn 0.190489 -0.959025 0.209728
vn 0.070464 0.617286 0.783577
vn 0.189027 0.957985 0.215715
vn 0.113264 0.969535 0.217192
vn 0.045859 0.927741 0.370397
vn 0.161943 0.984050 0.073626
vn -0.113620 0.970917 0.210737
vn -0.166687 0.984437 0.055676
vn -0.044421 0.928324 0.369109
vn 0.115588 -0.970757 0.210405
vn 0.167231 -0.984404 0.054611
vn 0.046920 -0.927401 0.371114
vn -0.177831 -0.965344 0.191018
vn -0.109971 -0.972285 0.206321
vn -0.039156 -0.927744 0.371159
vn -0.164574 -0.985239 0.047121
vn -0.441910 0.892089 -0.094299
vn -0.445163 -0.892332 -0.074660
vn -0.489864 -0.871599 -0.018676
vn -0.488495 0.872380 -0.018039
vn -0.176338 -0.984052 -0.023371
vn -0.170905 -0.982449 -0.074741
vn -0.180941 -0.965775 -0.185848
vn -0.135624 -0.970347 -0.200084
vn -0.094269 -0.633590 -0.767904
vn -0.070404 -0.918980 -0.387968
vn 0.471672 -0.879283 -0.066234
vn 0.507868 -0.861356 -0.011679
vn 0.177146 -0.984069 -0.015088
vn 0.169926 -0.983628 -0.060017
vn 0.086848 -0.611422 -0.786525
vn 0.199303 -0.962523 -0.183923
vn 0.130561 -0.975540 -0.176846
vn 0.051936 -0.926027 -0.373867
vn 0.501407 0.865182 0.007208
vn 0.460708 0.884720 -0.070841
vn 0.633442 -0.772211 -0.049413
vn 0.678301 0.725070 -0.119084
vn 0.620013 -0.775522 -0.118950
vn 0.686319 0.707675 -0.167816
vn 0.233492 0.687536 -0.687587
vn 0.107616 0.605198 -0.788767
vn 0.241262 0.926750 -0.287970
vn 0.476490 0.760446 -0.441225
vn 0.080261 0.604765 -0.792350
vn 0.197872 0.955439 -0.219050
vn 0.168253 0.985738 0.003347
vn 0.157125 0.985725 -0.060487
vn 0.115662 0.973740 -0.196096
vn 0.042771 0.920814 -0.387650
vn -0.179044 0.983613 -0.021206
vn -0.171517 0.980681 -0.094062
vn -0.088613 0.640616 -0.762731
vn -0.177714 0.958103 -0.224625
vn -0.133741 0.964396 -0.228155
vn -0.092645 0.924186 -0.370536
vn -0.017368 0.502579 -0.864357
vn -0.006099 -0.494581 -0.869110
vn 0.093629 -0.624602 -0.775310
vn 0.193527 -0.705641 -0.681629
vn -0.012295 -0.920125 -0.391432
vn 0.000117 -0.999781 -0.020941
vn 0.002186 -0.998884 0.047182
vn -0.002744 -0.998577 -0.053255
vn -0.006692 -0.988352 -0.152039
vn 0.003562 -0.978409 0.206649
vn 0.003929 -0.924035 0.382287
vn 0.001814 -0.493730 0.869613
vn 0.000214 0.495281 0.868733
vn 0.099607 0.622745 0.776058
vn 0.219266 0.703463 0.676064
vn 0.000593 0.924724 0.380637
vn -0.000986 0.977230 0.212179
vn -0.004382 0.998240 0.059139
vn -0.032333 0.982180 -0.185139
vn -0.038397 0.920500 -0.388851
vn -0.017755 0.997769 -0.064362
vn -0.009447 0.999880 -0.012239
vn -0.464144 -0.777704 0.423967
vn -0.190144 -0.958239 0.213596
vn 0.443899 0.796219 0.411084
vn 0.225983 0.939159 0.258675
vn 0.421909 -0.809050 -0.409183
vn 0.188025 -0.957204 -0.220018
vn -0.588723 0.805613 -0.066285
vn -0.553777 -0.832641 -0.006384
vn -0.583699 0.805841 -0.099573
vn -0.539418 -0.841449 -0.031510
vn -0.356731 0.834111 -0.420716
vn -0.314142 -0.879622 -0.357184
vn -0.127671 0.726221 -0.675503
vn -0.089216 -0.764794 -0.638067
vn -0.087198 0.689628 -0.718895
vn -0.060592 -0.723184 -0.687993
vn -0.170791 0.959437 -0.224302
vn -0.125210 -0.980420 -0.151986
s 1
usemtl initialShadingGroup
f 23/1/1 101/2/2 30/4/3 102/3/4
f 102/3/4 30/4/3 2/5/5 3/6/6
f 26/7/7 31/8/8 33/10/9 32/9/10
f 32/9/10 33/10/9 10/11/11 9/12/12
f 34/13/13 36/15/14 22/16/15 37/17/16
f 35/14/17 34/13/13 37/17/16 8/18/18
f 23/1/1 102/3/4 103/19/19 38/20/20
f 102/3/4 3/6/6 39/21/21 103/19/19
f 103/19/19 39/21/21 8/24/18 37/22/16
f 38/20/20 103/19/19 37/22/16 22/23/15
f 24/25/22 40/26/23 104/27/24 41/28/25
f 40/26/23 19/29/26 42/30/27 104/27/24
f 104/27/24 42/30/27 10/33/11 33/31/9
f 41/28/25 104/27/24 33/31/9 31/32/8
f 20/109/28 89/133/29 45/37/30 43/34/31
f 89/133/29 9/35/12 44/36/32 45/37/30
f 8/24/18 39/21/21 47/39/33 7/40/34
f 39/21/21 3/6/6 46/38/35 47/39/33
f 10/33/11 42/30/27 48/42/36 17/43/37
f 42/30/27 19/29/26 18/41/38 48/42/36
f 2/44/5 87/127/39 51/48/40 49/45/41
f 87/127/39 35/46/17 50/47/42 51/48/40
f 15/49/43 52/50/44 54/52/45 53/51/46
f 53/51/46 54/52/45 35/14/17 8/18/18
f 50/47/42 35/46/17 54/53/45 105/57/47
f 105/57/47 54/53/45 52/54/44 56/58/48
f 56/58/48 52/54/44 55/55/49 106/59/50
f 106/59/50 55/55/49 5/56/51 57/60/52
f 11/61/53 62/141/54 58/62/55 12/63/56
f 62/141/54 10/33/11 17/43/37 58/62/55
f 73/95/57 92/140/58 60/65/59 59/64/60
f 92/140/58 11/61/53 12/63/56 60/65/59
f 9/12/12 10/11/11 62/67/54 61/66/61
f 61/66/61 62/67/54 11/68/53 13/69/62
f 13/69/62 11/68/53 64/71/63 63/70/64
f 63/70/64 64/71/63 29/72/65 28/73/66
f 6/76/67 65/77/68 107/78/69 66/79/70
f 65/77/68 16/80/71 67/81/72 107/78/69
f 107/78/69 67/81/72 13/75/62 63/82/64
f 66/79/70 107/78/69 63/82/64 28/83/66
f 44/36/32 9/35/12 61/74/61 108/84/73
f 108/84/73 61/74/61 13/75/62 68/85/74
f 68/85/74 13/75/62 67/81/72 109/86/75
f 109/86/75 67/81/72 16/80/71 21/87/76
f 15/88/43 53/134/46 69/89/77 14/90/78
f 53/134/46 8/24/18 7/40/34 69/89/77
f 1/91/79 90/135/80 71/93/81 70/92/82
f 90/135/80 15/88/43 14/90/78 71/93/81
f 1/91/79 72/94/83 74/96/84 5/56/51
f 72/94/83 16/80/71 73/95/57 74/96/84
f 16/80/71 65/77/68 76/98/85 73/95/57
f 65/77/68 6/76/67 75/97/86 76/98/85
f 57/60/52 5/56/51 74/96/84 110/99/87
f 110/99/87 74/96/84 73/95/57 59/64/60
f 50/47/42 105/57/47 111/100/88 77/101/89
f 105/57/47 56/58/48 78/102/90 111/100/88
f 111/100/88 78/102/90 12/63/56 58/62/55
f 77/101/89 111/100/88 58/62/55 17/43/37
f 56/58/48 106/59/50 112/103/91 78/102/90
f 106/59/50 57/60/52 110/99/87 112/103/91
f 112/103/91 110/99/87 59/64/60 60/65/59
f 78/102/90 112/103/91 60/65/59 12/63/56
f 49/45/41 51/48/40 113/104/92 79/105/93
f 51/48/40 50/47/42 77/101/89 113/104/92
f 113/104/92 77/101/89 17/43/37 48/42/36
f 79/105/93 113/104/92 48/42/36 18/41/38
f 19/29/26 81/128/94 79/105/93 18/41/38
f 81/128/94 2/44/5 49/45/41 79/105/93
f 3/6/6 2/5/5 81/107/94 80/106/95
f 80/106/95 81/107/94 19/108/26 20/109/28
f 20/109/28 19/108/26 40/111/23 82/110/96
f 82/110/96 40/111/23 24/112/22 25/113/97
f 46/38/35 3/6/6 80/106/95 114/114/98
f 114/114/98 80/106/95 20/109/28 43/34/31
f 7/40/34 47/39/33 115/115/99 83/116/100
f 47/39/33 46/38/35 114/114/98 115/115/99
f 115/115/99 114/114/98 43/34/31 45/37/30
f 83/116/100 115/115/99 45/37/30 44/36/32
f 70/92/82 71/93/81 116/117/101 84/118/102
f 71/93/81 14/90/78 85/119/103 116/117/101
f 116/117/101 85/119/103 68/85/74 109/86/75
f 84/118/102 116/117/101 109/86/75 21/87/76
f 14/90/78 69/89/77 117/120/104 85/119/103
f 69/89/77 7/40/34 83/116/100 117/120/104
f 117/120/104 83/116/100 44/36/32 108/84/73
f 85/119/103 117/120/104 108/84/73 68/85/74
f 16/80/71 72/94/83 84/118/102 21/87/76
f 72/94/83 1/91/79 70/92/82 84/118/102
f 101/121/2 86/122/105 118/123/106 30/124/3
f 86/122/105 36/125/14 34/126/13 118/123/106
f 118/123/106 34/126/13 35/46/17 87/127/39
f 30/124/3 118/123/106 87/127/39 2/44/5
f 25/113/97 88/129/107 119/130/108 82/110/96
f 88/129/107 26/131/7 32/132/10 119/130/108
f 119/130/108 32/132/10 9/35/12 89/133/29
f 82/110/96 119/130/108 89/133/29 20/109/28
f 75/97/86 91/136/109 120/137/110 76/98/85
f 91/136/109 29/138/65 64/139/63 120/137/110
f 120/137/110 64/139/63 11/61/53 92/140/58
f 76/98/85 120/137/110 92/140/58 73/95/57
f 86/142/105 101/2/2 23/1/1 38/143/20
f 36/15/14 86/142/105 38/143/20 22/16/15
f 41/145/25 31/8/8 26/7/7 88/146/107
f 24/144/22 41/145/25 88/146/107 25/147/97
f 15/49/43 93/148/111 95/151/112 52/50/44
f 93/148/111 27/149/113 94/150/114 95/151/112
f 27/149/113 96/152/115 98/155/116 94/150/114
f 96/152/115 4/153/117 97/154/118 98/155/116
f 4/156/117 99/157/119 100/159/120 97/158/118
f 99/157/119 1/91/79 5/56/51 100/159/120
f 6/160/67 66/161/70 91/163/109 75/162/86
f 66/161/70 28/73/66 29/72/65 91/163/109
f 1/91/79 99/157/119 121/164/121 90/135/80
f 99/157/119 4/156/117 96/165/115 121/164/121
f 121/164/121 96/165/115 27/166/113 93/167/111
f 90/135/80 121/164/121 93/167/111 15/88/43
f 5/56/51 55/55/49 122/168/122 100/159/120
f 55/55/49 52/54/44 95/169/112 122/168/122
f 122/168/122 95/169/112 94/170/114 98/171/116
f 100/159/120 122/168/122 98/171/116 97/158/118
