# This file uses centimeters as units for non-parametric coordinates.

mtllib sideTableShelf_5.mtl
v -3.686117 -1.670522 3.686117
v 3.686117 -1.670522 3.686117
v -3.686117 0.000000 3.686117
v 3.686117 0.000000 3.686117
v -3.686117 0.000000 -3.686117
v 3.686117 0.000000 -3.686117
v -3.686117 -1.670522 -3.686117
v 3.686117 -1.670522 -3.686117
vt 0.375000 0.000000
vt 0.625000 0.000000
vt 0.375000 0.250000
vt 0.625000 0.250000
vt 0.375000 0.500000
vt 0.625000 0.500000
vt 0.375000 0.750000
vt 0.625000 0.750000
vt 0.375000 1.000000
vt 0.625000 1.000000
vt 0.875000 0.000000
vt 0.875000 0.250000
vt 0.125000 0.000000
vt 0.125000 0.250000
vn 0.000000 0.000000 1.000000
vn 0.000000 0.000000 1.000000
vn 0.000000 0.000000 1.000000
vn 0.000000 0.000000 1.000000
vn 0.000000 1.000000 0.000000
vn 0.000000 1.000000 0.000000
vn 0.000000 1.000000 0.000000
vn 0.000000 1.000000 0.000000
vn 0.000000 0.000000 -1.000000
vn 0.000000 0.000000 -1.000000
vn 0.000000 0.000000 -1.000000
vn 0.000000 0.000000 -1.000000
vn 0.000000 -1.000000 0.000000
vn 0.000000 -1.000000 0.000000
vn 0.000000 -1.000000 0.000000
vn 0.000000 -1.000000 0.000000
vn 1.000000 0.000000 0.000000
vn 1.000000 0.000000 0.000000
vn 1.000000 0.000000 0.000000
vn 1.000000 0.000000 0.000000
vn -1.000000 0.000000 0.000000
vn -1.000000 0.000000 0.000000
vn -1.000000 0.000000 0.000000
vn -1.000000 0.000000 0.000000
s off
usemtl initialShadingGroup
f 1/1/1 2/2/2 4/4/3 3/3/4
f 3/3/5 4/4/6 6/6/7 5/5/8
f 5/5/9 6/6/10 8/8/11 7/7/12
f 7/7/13 8/8/14 2/10/15 1/9/16
f 2/2/17 8/11/18 6/12/19 4/4/20
f 7/13/21 1/1/22 3/3/23 5/14/24
v -3.423147 -1.459537 3.795519
v 3.423147 -1.459537 3.795519
v -3.423147 -0.459537 3.795519
v 3.423147 -0.459537 3.795519
v -3.634132 -0.337680 3.553732
v 3.634132 -0.337680 3.553732
v -3.634132 -1.581393 3.553732
v 3.634132 -1.581393 3.553732
vt 0.375000 0.000000
vt 0.625000 0.000000
vt 0.375000 0.250000
vt 0.625000 0.250000
vt 0.375000 0.500000
vt 0.625000 0.500000
vt 0.375000 0.750000
vt 0.625000 0.750000
vt 0.375000 1.000000
vt 0.625000 1.000000
vt 0.875000 0.000000
vt 0.875000 0.250000
vt 0.125000 0.000000
vt 0.125000 0.250000
vn 0.000000 0.000000 1.000000
vn 0.000000 0.000000 1.000000
vn 0.000000 0.000000 1.000000
vn 0.000000 0.000000 1.000000
vn 0.000000 0.893000 0.450057
vn 0.000000 0.893000 0.450057
vn 0.000000 0.893000 0.450057
vn 0.000000 0.893000 0.450057
vn 0.000000 -0.893000 0.450057
vn 0.000000 -0.893000 0.450057
vn 0.000000 -0.893000 0.450057
vn 0.000000 -0.893000 0.450057
vn 0.753469 0.000000 0.657484
vn 0.753469 0.000000 0.657484
vn 0.753469 0.000000 0.657484
vn 0.753469 0.000000 0.657484
vn -0.753469 0.000000 0.657484
vn -0.753469 0.000000 0.657484
vn -0.753469 0.000000 0.657484
vn -0.753469 0.000000 0.657484
s off
f 9/15/25 10/16/26 12/18/27 11/17/28
f 11/17/29 12/18/30 14/20/31 13/19/32
f 15/21/33 16/22/34 10/24/35 9/23/36
f 10/16/37 16/25/38 14/26/39 12/18/40
f 15/27/41 9/15/42 11/17/43 13/28/44
v -0.800531 -1.018850 4.217426
v -0.768956 -1.031929 4.217426
v -0.768956 -1.018850 4.249001
v -0.768956 -0.987275 4.262080
v -0.800531 -0.987275 4.249001
v -0.813610 -0.987275 4.217426
v -0.629704 -1.018850 4.249001
v -0.629704 -1.031929 4.217426
v -0.629704 -0.987275 4.262080
v -0.800531 -0.908593 4.217426
v -0.813610 -0.940168 4.217426
v -0.800531 -0.940168 4.249001
v -0.768956 -0.940168 4.262080
v -0.768956 -0.908593 4.249001
v -0.768956 -0.895514 4.217426
v -0.629704 -0.908593 4.249001
v -0.629704 -0.940168 4.262080
v -0.629704 -0.895514 4.217426
v 0.768956 -1.018850 4.249001
v 0.768956 -1.031929 4.217426
v 0.800531 -1.018850 4.217426
v 0.813610 -0.987275 4.217426
v 0.800531 -0.987275 4.249001
v 0.768956 -0.987275 4.262080
v 0.768956 -0.908593 4.249001
v 0.768956 -0.940168 4.262080
v 0.800531 -0.940168 4.249001
v 0.813610 -0.940168 4.217426
v 0.800531 -0.908593 4.217426
v 0.768956 -0.895514 4.217426
v -0.800531 -0.908593 4.081632
v -0.813610 -0.940168 4.081632
v -0.768956 -0.895514 4.081632
v 0.800531 -0.908593 4.081632
v 0.813610 -0.940168 4.081632
v 0.768956 -0.895514 4.081632
v -0.768956 -1.031929 3.262080
v -0.800531 -1.018850 3.262080
v -0.813610 -0.987275 3.262080
v -0.800531 -1.018850 4.081632
v -0.813610 -0.987275 4.081632
v -0.768956 -1.031929 4.081632
v 0.813610 -0.987275 3.262080
v 0.800531 -1.018850 3.262080
v 0.768956 -1.031929 3.262080
v 0.800531 -1.018850 4.081632
v 0.813610 -0.987275 4.081632
v 0.768956 -1.031929 4.081632
v -0.813610 -0.940168 3.262080
v -0.800531 -0.908593 3.262080
v -0.768956 -0.895514 3.262080
v 0.768956 -0.895514 3.262080
v 0.800531 -0.908593 3.262080
v 0.813610 -0.940168 3.262080
v 0.629704 -1.018850 4.249001
v 0.629704 -1.031929 4.217426
v 0.629704 -0.987275 4.262080
v 0.629704 -0.908593 4.249001
v 0.629704 -0.940168 4.262080
v 0.629704 -0.895514 4.217426
v 0.642783 -0.908593 4.094711
v 0.674358 -0.895514 4.126286
v 0.629704 -0.940168 4.081632
v -0.642783 -0.908593 4.094711
v -0.674359 -0.895514 4.126286
v -0.629704 -0.940168 4.081632
v 0.629704 -0.940168 3.262080
v 0.642783 -0.908593 3.262080
v 0.674358 -0.895514 3.262080
v 0.629704 -0.987275 4.081632
v 0.642783 -1.018850 4.081632
v 0.674358 -1.031929 4.081632
v 0.629704 -1.031929 4.144783
v 0.566554 -1.031929 4.081632
v 0.674358 -1.031929 3.262080
v 0.642783 -1.018850 3.262080
v 0.629704 -0.987275 3.262080
v -0.674359 -0.895514 3.262080
v -0.642783 -0.908593 3.262080
v -0.629704 -0.940168 3.262080
v -0.629704 -0.987275 4.081632
v -0.566554 -1.031929 4.081632
v -0.629704 -1.031929 4.144783
v -0.674359 -1.031929 4.081632
v -0.642783 -1.018850 4.081632
v -0.629704 -0.987275 3.262080
v -0.642783 -1.018850 3.262080
v -0.674359 -1.031929 3.262080
v -0.794728 -1.013047 4.243198
v -0.794728 -0.914396 4.243198
v 0.794728 -1.013047 4.243198
v 0.794728 -0.914396 4.243198
v -0.813610 -0.963721 3.262080
v -0.813610 -0.963721 4.081632
v -0.813610 -0.963721 4.217426
v -0.800531 -0.963721 4.249001
v -0.768956 -0.963721 4.262080
v -0.629704 -0.963721 4.262080
v 0.629704 -0.963721 4.262080
v 0.768956 -0.963721 4.262080
v 0.800531 -0.963721 4.249001
v 0.813610 -0.963721 4.217426
v 0.813610 -0.963721 4.081632
v 0.813610 -0.963721 3.262080
vt 0.458333 0.918746
vt 0.537488 0.875000
vt 0.541667 0.918746
vt 0.462512 0.875000
vt 0.375000 0.979238
vt 0.354238 -0.000000
vt 0.389542 0.973606
vt 0.388554 -0.000000
vt 0.388554 1.000000
vt 0.387717 0.067663
vt 0.371409 0.068683
vt 0.351271 0.073390
vt 0.458333 1.000000
vt 0.458333 0.000000
vt 0.457586 0.973999
vt 0.451066 0.065785
vt 0.354238 0.250000
vt 0.375000 0.270762
vt 0.351222 0.174328
vt 0.371125 0.172819
vt 0.386478 0.158081
vt 0.385950 0.219009
vt 0.385558 0.264549
vt 0.436172 0.222171
vt 0.442081 0.156434
vt 0.430695 0.287946
vt 0.611446 1.000000
vt 0.611446 -0.000000
vt 0.610623 0.973123
vt 0.645762 -0.000000
vt 0.625000 0.979238
vt 0.648738 0.073297
vt 0.628601 0.068637
vt 0.612307 0.067616
vt 0.614017 0.218975
vt 0.613549 0.158006
vt 0.628883 0.172773
vt 0.648775 0.174258
vt 0.625000 0.270762
vt 0.645762 0.250000
vt 0.614235 0.264639
vt 0.375000 0.375000
vt 0.250000 0.250000
vt 0.252042 0.177049
vt 0.380887 0.394711
vt 0.750000 0.250000
vt 0.625000 0.375000
vt 0.747812 0.176474
vt 0.616109 0.396982
vt 0.355641 0.711283
vt 0.375000 0.750000
vt 0.300998 0.601997
vt 0.250000 0.000000
vt 0.375000 0.875000
vt 0.252189 0.075500
vt 0.383402 0.849865
vt 0.800998 0.148003
vt 0.875000 0.000000
vt 0.855641 0.038717
vt 0.625000 0.875000
vt 0.750000 0.000000
vt 0.747958 0.074340
vt 0.618185 0.845232
vt 0.199002 0.398003
vt 0.125000 0.250000
vt 0.144359 0.288717
vt 0.644359 0.461283
vt 0.625000 0.500000
vt 0.699002 0.351997
vt 0.541667 1.000000
vt 0.541667 0.000000
vt 0.542416 0.973993
vt 0.549197 0.065493
vt 0.564736 0.221161
vt 0.558551 0.155732
vt 0.570500 0.286614
vt 0.588685 0.519756
vt 0.589785 0.461933
vt 0.587929 0.582220
vt 0.412462 0.523876
vt 0.412228 0.464284
vt 0.413036 0.587021
vt 0.736659 0.276682
vt 0.717300 0.315400
vt 0.697941 0.354117
vt 0.587017 0.672735
vt 0.590795 0.721962
vt 0.596339 0.763376
vt 0.802059 0.145883
vt 0.782700 0.184600
vt 0.763341 0.223318
vt 0.197941 0.395883
vt 0.217300 0.434600
vt 0.236659 0.473318
vt 0.414000 0.676462
vt 0.406514 0.770832
vt 0.412191 0.733248
vt 0.263341 0.526682
vt 0.282700 0.565400
vt 0.302059 0.604117
vt 0.375000 1.000000
vt 0.375000 0.000000
vt 0.375000 0.250000
vt 0.625000 1.000000
vt 0.625000 0.000000
vt 0.625000 0.250000
vt 0.250000 0.500000
vt 0.252115 0.126274
vt 0.351246 0.123859
vt 0.371267 0.120751
vt 0.387098 0.112872
vt 0.446574 0.111110
vt 0.553874 0.110612
vt 0.612928 0.112811
vt 0.628742 0.120705
vt 0.648756 0.123778
vt 0.747885 0.125407
vt 0.750000 0.250000
vn -0.075562 -0.994146 0.077232
vn -0.376534 -0.925017 0.050647
vn -0.382684 -0.923880 0.000000
vn -0.099312 -0.995056 0.000000
vn -0.925017 -0.376535 0.050647
vn -0.973019 -0.222031 0.062745
vn -0.972992 -0.230838 0.000000
vn -0.923879 -0.382684 0.000000
vn -0.061442 -0.222226 0.973057
vn -0.049574 -0.376681 0.925016
vn 0.000000 -0.382689 0.923877
vn 0.000000 -0.230841 0.972992
vn -0.049573 -0.925018 0.376676
vn 0.000000 -0.996816 0.079734
vn 0.000000 -0.923879 0.382685
vn -0.996961 0.000000 0.077907
vn -0.923879 0.000000 0.382685
vn -0.918174 0.169273 0.358194
vn -0.973019 0.222031 0.062745
vn -0.382690 0.000000 0.923877
vn -0.076340 0.000000 0.997082
vn -0.061442 0.222226 0.973057
vn -0.358198 0.169276 0.918172
vn 0.000000 -0.382689 0.923877
vn 0.000000 -0.230841 0.972991
vn 0.000000 -0.996816 0.079734
vn 0.000000 -0.923879 0.382685
vn -0.925017 0.376535 0.050647
vn -0.923879 0.382684 0.000000
vn -0.972992 0.230838 0.000000
vn -0.376534 0.925017 0.050647
vn -0.091420 0.991419 0.093441
vn -0.088054 0.996116 0.000000
vn -0.382684 0.923880 0.000000
vn -0.049573 0.925018 0.376676
vn 0.000000 0.923879 0.382685
vn 0.000000 0.996101 0.088219
vn -0.049574 0.376681 0.925016
vn 0.000000 0.230841 0.972992
vn 0.000000 0.382689 0.923877
vn 0.000000 0.923879 0.382685
vn 0.000000 0.996101 0.088219
vn 0.000000 0.230841 0.972991
vn 0.000000 0.382689 0.923877
vn 0.075562 -0.994146 0.077232
vn 0.049573 -0.925018 0.376676
vn 0.049574 -0.376680 0.925016
vn 0.061442 -0.222226 0.973057
vn 0.973019 -0.222031 0.062745
vn 0.925017 -0.376535 0.050647
vn 0.923879 -0.382684 0.000000
vn 0.972992 -0.230838 0.000000
vn 0.376534 -0.925017 0.050647
vn 0.099312 -0.995056 0.000000
vn 0.382684 -0.923880 0.000000
vn 0.076340 0.000000 0.997082
vn 0.382690 0.000000 0.923877
vn 0.358197 0.169276 0.918172
vn 0.061442 0.222226 0.973057
vn 0.923879 0.000000 0.382685
vn 0.996961 0.000000 0.077907
vn 0.973019 0.222031 0.062745
vn 0.918174 0.169274 0.358194
vn 0.049574 0.376680 0.925016
vn 0.049573 0.925018 0.376676
vn 0.091420 0.991419 0.093441
vn 0.376534 0.925017 0.050647
vn 0.382684 0.923880 0.000000
vn 0.088054 0.996116 0.000000
vn 0.925017 0.376535 0.050647
vn 0.972992 0.230838 0.000000
vn 0.923879 0.382684 0.000000
vn -0.923879 0.382684 0.000000
vn -0.972992 0.230838 0.000000
vn -0.101064 0.994880 0.000000
vn -0.382684 0.923880 0.000000
vn 0.382684 0.923880 0.000000
vn 0.101064 0.994880 0.000000
vn 0.972992 0.230838 0.000000
vn 0.923879 0.382684 0.000000
vn -0.972992 -0.230838 0.000000
vn -0.923879 -0.382684 0.000000
vn -0.382684 -0.923880 0.000000
vn -0.103106 -0.994670 0.000000
vn 0.103106 -0.994670 0.000000
vn 0.382684 -0.923880 0.000000
vn 0.923879 -0.382684 0.000000
vn 0.972992 -0.230838 0.000000
vn -0.029444 0.998521 -0.045711
vn 0.000000 0.923879 -0.382685
vn 0.000000 0.923879 -0.382685
vn 0.029444 0.998521 -0.045711
vn 0.000000 0.382689 -0.923877
vn -0.000000 0.125428 -0.992103
vn -0.000000 0.125428 -0.992103
vn 0.000000 0.382689 -0.923877
vn -0.982744 0.184973 0.000000
vn -0.923879 0.382684 0.000000
vn -0.923879 0.382684 0.000000
vn -0.986338 0.164736 0.000000
vn -0.382684 0.923879 0.000000
vn -0.103699 0.994609 0.000000
vn -0.382684 0.923879 0.000000
vn 0.382684 0.923879 0.000000
vn 0.382684 0.923879 0.000000
vn 0.103699 0.994609 0.000000
vn 0.923879 0.382684 0.000000
vn 0.982744 0.184973 0.000000
vn 0.986338 0.164736 0.000000
vn 0.923879 0.382684 0.000000
vn -0.085232 -0.996360 -0.001454
vn -0.382662 -0.923827 -0.010700
vn -0.382684 -0.923880 0.000000
vn -0.103106 -0.994670 0.000000
vn -0.923826 -0.382662 -0.010700
vn -0.986069 -0.166313 -0.002838
vn -0.986464 -0.163976 0.000000
vn -0.923879 -0.382684 0.000000
vn 0.986464 -0.163976 0.000000
vn 0.923879 -0.382684 0.000000
vn 0.923879 -0.382684 0.000000
vn 0.986464 -0.163976 0.000000
vn 0.382684 -0.923880 0.000000
vn 0.082280 -0.996609 0.000000
vn 0.103106 -0.994670 0.000000
vn 0.382684 -0.923880 0.000000
vn 0.000000 0.000000 1.000000
vn 0.000000 -1.000000 -0.000000
vn 1.000000 0.000000 0.000000
vn -1.000000 0.000000 0.000000
vn -1.000000 0.000000 0.000000
vn 1.000000 0.000000 0.000000
vn 0.000000 0.000000 1.000000
vn -0.000000 0.000000 -1.000000
vn -0.000000 0.000000 -1.000000
vn -0.000000 0.000000 -1.000000
vn -0.000000 0.000000 -1.000000
vn -0.000429 -1.000000 -0.000303
vn 0.000000 -1.000000 -0.000000
vn 0.000000 -1.000000 -0.000000
vn 0.500000 -0.707107 -0.499999
vn 0.500000 -0.707108 -0.499999
vn 0.500000 -0.707108 -0.499999
vn -0.891807 -0.369396 -0.261203
vn 0.000000 0.000000 -1.000000
vn 0.000000 0.000000 -1.000000
vn -0.918174 -0.169274 0.358194
vn -0.887919 -0.325268 0.325270
vn -0.325269 -0.887919 0.325270
vn -0.358197 -0.169276 0.918172
vn -0.325272 -0.325272 0.887917
vn -0.325269 0.887919 0.325270
vn -0.887919 0.325267 0.325270
vn -0.325272 0.325272 0.887917
vn 0.358198 -0.169276 0.918172
vn 0.325272 -0.325272 0.887917
vn 0.325269 -0.887919 0.325270
vn 0.918174 -0.169273 0.358194
vn 0.887919 -0.325267 0.325270
vn 0.325269 0.887919 0.325270
vn 0.325272 0.325272 0.887917
vn 0.887919 0.325268 0.325270
s 1
f 18/35/45 17/33/46 56/82/47 58/84/48
s 2
f 17/34/49 22/40/50 57/83/51 56/81/52
s 3
f 20/38/53 19/36/54 23/42/55 25/44/56
s 1
f 19/37/57 18/35/45 24/43/58 23/41/59
s 2
f 111/137/60 112/138/61 28/48/62 27/47/63
s 3
f 112/138/64 113/139/65 29/49/66 28/48/67
f 25/44/56 23/42/55 71/99/68 73/101/69
s 1
f 23/41/59 24/43/58 72/100/70 71/98/71
s 2
f 27/47/63 26/45/72 47/71/73 48/72/74
s 6
f 26/46/75 31/51/76 49/73/77 47/70/78
f 31/51/76 30/50/79 32/52/80 34/54/81
s 3
f 30/50/82 29/49/66 33/53/83 32/52/84
s 6
f 34/54/81 32/52/80 74/102/85 76/104/86
s 3
f 32/52/84 33/53/83 75/103/87 74/102/88
s 1
f 36/57/89 35/55/90 71/98/71 72/100/70
s 3
f 35/56/91 40/62/92 73/101/69 71/99/68
s 7
f 38/60/93 37/58/94 62/89/95 63/90/96
s 1
f 37/59/97 36/57/89 64/91/98 62/88/99
s 3
f 116/142/100 117/143/101 43/65/102 42/64/103
s 7
f 117/143/104 118/144/105 44/66/106 43/65/107
s 3
f 42/64/103 41/63/108 74/102/88 75/103/87
s 6
f 41/63/109 46/69/110 76/104/86 74/102/85
f 46/69/110 45/67/111 50/75/112 52/77/113
s 7
f 45/68/114 44/66/106 51/76/115 50/74/116
s 2
f 48/72/74 47/71/73 66/93/117 65/92/118
s 6
f 47/70/78 49/73/77 67/94/119 66/93/120
f 52/77/113 50/75/112 69/96/121 68/95/122
s 7
f 50/74/116 51/76/115 70/97/123 69/96/124
s 2
f 55/80/125 54/79/126 56/81/52 57/83/51
s 1
f 54/79/127 53/78/128 58/84/48 56/82/47
f 61/87/129 60/86/130 62/88/99 64/91/98
s 7
f 60/86/131 59/85/132 63/90/96 62/89/95
s 6
f 78/106/133 77/105/134 80/108/135 81/109/136
s 10
f 77/105/137 79/107/138 82/110/139 80/108/140
s 11
f 79/107/141 77/105/142 84/112/143 83/111/144
s 6
f 77/105/145 78/106/133 85/113/146 84/112/147
f 81/109/136 80/108/148 95/121/149 94/120/150
s 12
f 80/108/151 82/110/152 96/122/153 95/121/154
s 1
f 88/116/155 87/115/156 92/118/157 91/117/158
s 11
f 87/115/159 86/114/160 93/119/161 92/118/162
s 12
f 97/123/163 101/125/164 103/127/165 102/126/166
s 1
f 101/125/167 100/124/168 104/128/169 103/127/170
s 3
f 113/139/65 114/140/171 33/53/83 29/49/66
s 6
f 31/51/76 34/54/81 81/109/136 49/73/77
s 1
f 58/84/48 100/124/168 99/29/172 24/43/58 18/35/45
s 7
f 118/144/105 119/145/173 51/76/115 44/66/106
s 2
f 110/136/174 111/137/60 27/47/63 48/72/74
f 109/135/175 110/136/174 48/72/74 65/92/118
s 1
f 58/84/48 53/78/128 104/128/169 100/124/168
s 7
f 51/76/115 119/145/173 120/146/176 70/97/123
s 6
f 49/73/77 81/109/136 94/120/150 67/94/119
s 3
f 75/103/87 115/141/177 116/142/100 42/64/103
s 6
f 78/106/133 76/104/86 46/69/110 52/77/113
f 85/113/146 78/106/133 52/77/113 68/95/122
s 1
f 88/116/155 91/117/158 61/87/129 64/91/98
s 3
f 33/53/83 114/140/171 115/141/177 75/103/87
s 6
f 81/109/136 34/54/81 76/104/86 78/106/133
s 11
f 79/107/141 83/111/144 93/119/161 86/114/160
s 10
f 82/110/139 79/107/138 86/114/178 90/30/179 98/32/180 97/123/181
s 12
f 96/122/153 82/110/152 97/123/163 102/126/166
s 1
f 89/31/182 88/116/155 64/91/98 36/57/89 72/100/70
f 99/29/172 98/32/183 90/30/184 89/31/182 72/100/70 24/43/58
s off
f 89/31/185 90/30/186 86/114/187
s 11
f 89/31/188 86/114/160 87/115/159
s 1
f 89/31/182 87/115/156 88/116/155
f 98/32/183 99/29/172 100/124/168
s 10
f 98/32/180 100/124/189 101/125/190
f 98/32/180 101/125/190 97/123/181
s 2
f 21/39/191 22/40/50 17/34/49 105/130/192
s 1
f 17/33/46 18/35/45 19/37/57 105/129/193
s 3
f 19/36/54 20/38/53 21/39/194 105/130/195
s 6
f 30/50/79 31/51/76 26/46/75 106/131/196
s 2
f 26/45/72 27/47/63 28/48/62 106/131/197
s 3
f 28/48/67 29/49/66 30/50/82 106/131/198
f 39/61/199 40/62/92 35/56/91 107/133/200
s 1
f 35/55/90 36/57/89 37/59/97 107/132/201
s 7
f 37/58/94 38/60/93 39/61/202 107/133/203
s 6
f 45/67/111 46/69/110 41/63/109 108/134/204
s 3
f 41/63/108 42/64/103 43/65/102 108/134/205
s 7
f 43/65/107 44/66/106 45/68/114 108/134/206
s 2
f 55/80/125 57/83/51 110/136/174 109/135/175
f 57/83/51 22/40/50 111/137/60 110/136/174
f 22/40/50 21/39/191 112/138/61 111/137/60
s 3
f 21/39/194 20/38/53 113/139/65 112/138/64
f 20/38/53 25/44/56 114/140/171 113/139/65
f 115/141/177 114/140/171 25/44/56 73/101/69
f 116/142/100 115/141/177 73/101/69 40/62/92
f 40/62/92 39/61/199 117/143/101 116/142/100
s 7
f 39/61/202 38/60/93 118/144/105 117/143/104
f 38/60/93 63/90/96 119/145/173 118/144/105
f 120/146/176 119/145/173 63/90/96 59/85/132
v -1.411261 -0.690647 2.846362
v 1.411261 -0.690647 2.846362
v -1.411261 -1.236795 2.846362
v 1.411261 -1.236795 2.846362
v -1.395266 -1.220801 3.818095
v -1.356652 -1.182186 3.846362
v -1.411261 -1.236795 3.791752
v 1.395266 -1.220801 3.818095
v 1.356652 -1.182186 3.846362
v 1.411261 -1.236795 3.791752
v -1.395266 -0.706642 3.818095
v -1.356652 -0.745257 3.846362
v -1.411261 -0.690647 3.791752
v 1.395266 -0.706642 3.818095
v 1.356652 -0.745257 3.846362
v 1.411261 -0.690647 3.791752
v 1.411261 -0.963721 2.846362
v 1.411261 -0.963721 3.791752
v 1.395266 -0.963721 3.818095
v 1.356652 -0.963721 3.846362
v -1.356652 -0.963721 3.846362
v -1.395266 -0.963721 3.818095
v -1.411261 -0.963721 3.791752
v -1.411261 -0.963721 2.846362
vt 0.625000 0.500000
vt 0.375000 0.500000
vt 0.375000 0.750000
vt 0.625000 0.750000
vt 0.875000 0.000000
vt 0.875000 0.250000
vt 0.125000 0.000000
vt 0.125000 0.250000
vt 0.375000 0.000000
vt 0.375000 1.000000
vt 0.378504 0.019903
vt 0.363701 -0.000000
vt 0.375000 0.988701
vt 0.625000 0.000000
vt 0.625000 1.000000
vt 0.621496 0.019903
vt 0.625000 0.988701
vt 0.636299 -0.000000
vt 0.375000 0.250000
vt 0.378504 0.230097
vt 0.375000 0.261299
vt 0.363701 0.250000
vt 0.625000 0.250000
vt 0.621496 0.230097
vt 0.636299 0.250000
vt 0.625000 0.261299
vt 0.875000 0.125000
vt 0.636299 0.125000
vt 0.625000 0.125000
vt 0.621496 0.125000
vt 0.378504 0.125000
vt 0.375000 0.125000
vt 0.363701 0.125000
vt 0.125000 0.125000
vn -0.012562 -0.145384 0.989296
vn 0.000000 -0.590674 0.806911
vn 0.000000 -0.590674 0.806911
vn 0.012562 -0.145384 0.989296
vn 0.000000 -0.854774 0.519000
vn 0.000000 -0.999934 0.011474
vn 0.000000 -0.999934 0.011474
vn 0.000000 -0.854774 0.519000
vn -0.999937 0.000000 0.011206
vn -0.854775 0.000000 0.518999
vn -0.854775 0.000000 0.518999
vn -0.999872 0.000000 0.015989
vn -0.590673 0.000000 0.806911
vn -0.011165 0.000000 0.999938
vn -0.590673 0.000000 0.806911
vn 0.590673 0.000000 0.806911
vn 0.590673 0.000000 0.806911
vn 0.011165 0.000000 0.999938
vn 0.854775 0.000000 0.518999
vn 0.999937 0.000000 0.011206
vn 0.999872 0.000000 0.015989
vn 0.854775 0.000000 0.518999
vn 0.000000 0.999934 0.011474
vn 0.000000 0.854774 0.519001
vn 0.000000 0.854774 0.519001
vn 0.000000 0.999934 0.011474
vn 0.000000 0.590674 0.806911
vn -0.012562 0.145384 0.989296
vn 0.012562 0.145384 0.989296
vn 0.000000 0.590674 0.806911
vn 0.000000 1.000000 0.000000
vn 0.000000 1.000000 0.000000
vn 0.000000 -1.000000 0.000000
vn 0.000000 -1.000000 0.000000
vn 1.000000 0.000000 0.000000
vn 1.000000 0.000000 0.000000
vn -1.000000 0.000000 0.000000
vn -1.000000 0.000000 0.000000
vn 1.000000 0.000000 0.000000
vn 0.999937 0.000000 0.011206
vn 0.854775 0.000000 0.518999
vn 0.590673 0.000000 0.806911
vn -0.590673 0.000000 0.806911
vn -0.854775 0.000000 0.518999
vn -0.999937 0.000000 0.011206
vn -1.000000 0.000000 0.000000
s 1
f 126/157/207 125/155/208 128/160/209 129/162/210
s 2
f 125/156/211 127/159/212 130/163/213 128/161/214
s 3
f 127/158/215 125/155/216 142/178/217 143/179/218
s 1
f 125/155/219 126/157/207 141/177/220 142/178/221
f 129/162/210 128/160/222 139/175/223 140/176/224
s 5
f 128/160/225 130/164/226 138/174/227 139/175/228
s 6
f 133/167/229 131/165/230 134/169/231 136/172/232
s 1
f 131/165/233 132/166/234 135/170/235 134/169/236
f 126/157/207 129/162/210 140/176/224 141/177/220
s 6
f 133/167/229 136/172/232 122/147/237 121/148/238
s 2
f 123/149/239 124/150/240 130/163/213 127/159/212
s 5
f 130/164/226 124/151/241 137/173/242 138/174/227
s 3
f 123/153/243 127/158/215 143/179/218 144/180/244
s 5
f 138/174/227 137/173/242 122/152/245 136/171/246
f 139/175/228 138/174/227 136/171/246 134/169/247
s 1
f 140/176/224 139/175/223 134/169/248 135/170/235
f 141/177/220 140/176/224 135/170/235 132/166/234
f 142/178/221 141/177/220 132/166/234 131/165/249
s 3
f 143/179/218 142/178/217 131/165/250 133/168/251
f 144/180/244 143/179/218 133/168/251 121/154/252
