# This file uses centimeters as units for non-parametric coordinates.

mtllib sideTabletop_1.mtl
v -4.010285 -0.269327 4.010285
v 4.010285 -0.269327 4.010285
v -4.010285 0.269327 4.010285
v 4.010285 0.269327 4.010285
v -4.010285 0.269327 -4.010285
v 4.010285 0.269327 -4.010285
v -4.010285 -0.269327 -4.010285
v 4.010285 -0.269327 -4.010285
vt 0.036611 0.246205
vt 0.037655 0.143078
vt 0.140782 0.144122
vt 0.139738 0.247249
vt 0.243908 0.145166
vt 0.242864 0.248292
vt 0.347035 0.146210
vt 0.345991 0.249336
vt 0.450161 0.147253
vt 0.449117 0.250380
vt 0.038699 0.039952
vt 0.141825 0.040996
vt 0.035567 0.349331
vt 0.138694 0.350375
vn 0.000000 0.000000 1.000000
vn 0.000000 0.000000 1.000000
vn 0.000000 0.000000 1.000000
vn 0.000000 0.000000 1.000000
vn 0.000000 1.000000 0.000000
vn 0.000000 1.000000 0.000000
vn 0.000000 1.000000 0.000000
vn 0.000000 1.000000 0.000000
vn 0.000000 0.000000 -1.000000
vn 0.000000 0.000000 -1.000000
vn 0.000000 0.000000 -1.000000
vn 0.000000 0.000000 -1.000000
vn 0.000000 -1.000000 0.000000
vn 0.000000 -1.000000 0.000000
vn 0.000000 -1.000000 0.000000
vn 0.000000 -1.000000 0.000000
vn 1.000000 0.000000 0.000000
vn 1.000000 0.000000 0.000000
vn 1.000000 0.000000 0.000000
vn 1.000000 0.000000 0.000000
vn -1.000000 0.000000 0.000000
vn -1.000000 0.000000 0.000000
vn -1.000000 0.000000 0.000000
vn -1.000000 0.000000 0.000000
s off
usemtl initialShadingGroup
f 1/1/1 2/2/2 4/3/3 3/4/4
f 3/4/5 4/3/6 6/5/7 5/6/8
f 5/6/9 6/5/10 8/7/11 7/8/12
f 7/8/13 8/7/14 2/9/15 1/10/16
f 2/2/17 8/11/18 6/12/19 4/3/20
f 7/13/21 1/1/22 3/4/23 5/14/24
