# This file uses centimeters as units for non-parametric coordinates.

mtllib table_tableTop_1.mtl
v 17.173744 -0.089411 9.251498
v 17.173744 -0.089411 -9.251499
v 17.173744 0.225335 9.251498
v 17.173744 0.225335 -9.251499
v -17.173744 0.225335 9.251499
v -17.173744 0.225335 -9.251498
v -17.173744 -0.089411 9.251499
v -17.173744 -0.089411 -9.251498
v -16.646168 0.225335 9.251499
v -16.646168 -0.089411 9.251499
v -16.646168 -0.089411 -9.251498
v -16.646168 0.225335 -9.251498
v 16.646172 0.225335 9.251498
v 16.646172 -0.089411 9.251498
v 16.646172 -0.089411 -9.251499
v 16.646172 0.225335 -9.251499
v 17.173744 0.225335 -8.657595
v 16.646172 0.747808 -8.657595
v -16.646168 0.747808 -8.657595
v -17.173744 0.225335 -8.657595
v -17.173744 -0.089411 -8.657595
v -16.646168 -0.089411 -8.657595
v 16.646172 -0.089411 -8.657595
v 17.173744 -0.089411 -8.657595
v 17.173744 0.225335 8.657597
v 16.646172 0.747808 8.657597
v -16.646168 0.747808 8.657597
v -17.173744 0.225335 8.657597
v -17.173744 -0.089411 8.657597
v -16.646168 -0.089411 8.657597
v 16.646172 -0.089411 8.657597
v 17.173744 -0.089411 8.657597
vt 0.246894 0.441135
vt 0.253472 0.441135
vt 0.253472 0.444621
vt 0.246894 0.444621
vt 0.243434 0.060694
vt 0.236856 0.060694
vt 0.236856 0.066537
vt 0.243434 0.066537
vt 0.243434 0.441135
vt 0.236856 0.441135
vt 0.236856 0.437648
vt 0.243434 0.437648
vt 0.246894 0.435291
vt 0.253472 0.435291
vt 0.246894 0.441135
vt 0.451837 0.441135
vt 0.451837 0.435291
vt 0.455323 0.435291
vt 0.455323 0.441135
vt 0.246129 0.066537
vt 0.246129 0.060694
vt 0.242643 0.060694
vt 0.242643 0.066537
vt 0.246129 0.441135
vt 0.246129 0.435291
vt 0.242643 0.435291
vt 0.242643 0.441135
vt 0.246894 0.060694
vt 0.253472 0.060694
vt 0.253472 0.066537
vt 0.246894 0.066537
vt 0.455323 0.066537
vt 0.451837 0.066537
vt 0.451837 0.060694
vt 0.455323 0.060694
vt 0.243434 0.435291
vt 0.236856 0.435291
vt 0.243434 0.441135
vt 0.045069 0.060694
vt 0.038491 0.060694
vt 0.038491 0.066537
vt 0.045069 0.066537
vt 0.461110 0.066537
vt 0.461110 0.435291
vt 0.045069 0.441135
vt 0.045069 0.435291
vt 0.038491 0.435291
vt 0.038491 0.441135
vt 0.045069 0.437648
vt 0.038491 0.441135
vt 0.038491 0.437648
vt 0.445259 0.066537
vt 0.445259 0.060694
vt 0.451837 0.060694
vt 0.445259 0.435291
vt 0.445259 0.441135
vt 0.451837 0.441135
vt 0.445259 0.444621
vt 0.451837 0.441135
vt 0.451837 0.444621
vn 1.000000 0.000000 0.000000
vn 1.000000 0.000000 0.000000
vn 1.000000 0.000000 0.000000
vn 1.000000 0.000000 0.000000
vn 0.412829 0.833719 0.366723
vn 0.697662 0.716351 0.010449
vn 0.014940 0.999476 0.028721
vn 0.005819 0.753359 0.657583
vn -1.000000 0.000000 -0.000000
vn -1.000000 0.000000 -0.000000
vn -1.000000 0.000000 -0.000000
vn -1.000000 0.000000 -0.000000
vn 0.000000 -1.000000 0.000000
vn 0.000000 -1.000000 0.000000
vn 0.000000 -1.000000 0.000000
vn 0.000000 -1.000000 0.000000
vn 0.000000 0.000000 -1.000000
vn 0.000000 0.000000 -1.000000
vn 0.000000 0.000000 -1.000000
vn 0.000000 0.000000 -1.000000
vn 0.000000 0.000000 1.000000
vn 0.000000 0.000000 1.000000
vn 0.000000 0.000000 1.000000
vn 0.000000 0.000000 1.000000
vn 0.000000 0.000000 1.000000
vn 0.000000 0.000000 1.000000
vn 0.000000 0.000000 1.000000
vn 0.000000 0.000000 1.000000
vn 0.000000 -1.000000 0.000000
vn 0.000000 -1.000000 0.000000
vn 0.000000 -1.000000 0.000000
vn 0.000000 -1.000000 0.000000
vn 0.000000 0.000000 -1.000000
vn 0.000000 0.000000 -1.000000
vn 0.000000 0.000000 -1.000000
vn 0.000000 0.000000 -1.000000
vn -0.005819 0.753359 0.657583
vn -0.014940 0.999476 0.028721
vn -0.697659 0.716353 0.010449
vn -0.412827 0.833719 0.366724
vn 0.000000 0.000000 1.000000
vn 0.000000 0.000000 1.000000
vn 0.000000 0.000000 1.000000
vn 0.000000 0.000000 1.000000
vn 0.000000 -1.000000 0.000000
vn 0.000000 -1.000000 0.000000
vn 0.000000 -1.000000 0.000000
vn 0.000000 -1.000000 0.000000
vn 0.000000 0.000000 -1.000000
vn 0.000000 0.000000 -1.000000
vn 0.000000 0.000000 -1.000000
vn 0.000000 0.000000 -1.000000
vn 0.005819 0.753359 0.657583
vn 0.014940 0.999476 0.028721
vn -0.014940 0.999476 0.028721
vn -0.005819 0.753359 0.657583
vn 0.697662 0.716351 -0.010449
vn 0.412829 0.833719 -0.366722
vn 0.005819 0.753360 -0.657583
vn 0.014940 0.999476 -0.028721
vn -0.014940 0.999476 -0.028721
vn 0.014940 0.999476 -0.028721
vn 0.005819 0.753360 -0.657583
vn -0.005819 0.753360 -0.657583
vn -0.697659 0.716353 -0.010449
vn -0.014940 0.999476 -0.028721
vn -0.005819 0.753360 -0.657583
vn -0.412827 0.833719 -0.366723
vn -1.000000 0.000000 -0.000000
vn -1.000000 0.000000 -0.000000
vn -1.000000 0.000000 -0.000000
vn -1.000000 0.000000 -0.000000
vn 0.000000 -1.000000 0.000000
vn 0.000000 -1.000000 0.000000
vn 0.000000 -1.000000 0.000000
vn 0.000000 -1.000000 0.000000
vn 0.000000 -1.000000 0.000000
vn 0.000000 -1.000000 0.000000
vn 0.000000 -1.000000 0.000000
vn 0.000000 -1.000000 0.000000
vn 0.000000 -1.000000 0.000000
vn 0.000000 -1.000000 0.000000
vn 0.000000 -1.000000 0.000000
vn 0.000000 -1.000000 0.000000
vn 1.000000 0.000000 0.000000
vn 1.000000 0.000000 0.000000
vn 1.000000 0.000000 0.000000
vn 1.000000 0.000000 0.000000
vn 0.697662 0.716351 0.010449
vn 0.697662 0.716351 -0.010449
vn 0.014940 0.999476 -0.028721
vn 0.014940 0.999476 0.028721
vn -0.014940 0.999476 0.028721
vn 0.014940 0.999476 0.028721
vn 0.014940 0.999476 -0.028721
vn -0.014940 0.999476 -0.028721
vn -0.697659 0.716353 0.010449
vn -0.014940 0.999476 0.028721
vn -0.014940 0.999476 -0.028721
vn -0.697659 0.716353 -0.010449
vn -1.000000 0.000000 -0.000000
vn -1.000000 0.000000 -0.000000
vn -1.000000 0.000000 -0.000000
vn -1.000000 0.000000 -0.000000
vn 0.000000 -1.000000 0.000000
vn 0.000000 -1.000000 0.000000
vn 0.000000 -1.000000 0.000000
vn 0.000000 -1.000000 0.000000
vn 0.000000 -1.000000 0.000000
vn 0.000000 -1.000000 0.000000
vn 0.000000 -1.000000 0.000000
vn 0.000000 -1.000000 0.000000
vn 0.000000 -1.000000 0.000000
vn 0.000000 -1.000000 0.000000
vn 0.000000 -1.000000 0.000000
vn 0.000000 -1.000000 0.000000
vn 1.000000 0.000000 0.000000
vn 1.000000 0.000000 0.000000
vn 1.000000 0.000000 0.000000
vn 1.000000 0.000000 0.000000
s off
usemtl initialShadingGroup
f 1/1/1 32/2/2 25/3/3 3/4/4
f 3/5/5 25/6/6 26/7/7 13/8/8
f 5/9/9 28/10/10 29/11/11 7/12/12
f 14/13/13 31/14/14 32/2/15 1/15/16
f 2/16/17 15/17/18 16/18/19 4/19/20
f 14/20/21 1/21/22 3/22/23 13/23/24
f 7/24/25 10/25/26 9/26/27 5/27/28
f 7/28/29 29/29/30 30/30/31 10/31/32
f 12/32/33 11/33/34 8/34/35 6/35/36
f 9/36/37 27/37/38 28/10/39 5/38/40
f 10/25/41 14/20/42 13/23/43 9/26/44
f 10/31/45 30/30/46 31/14/47 14/13/48
f 16/18/49 15/17/50 11/33/51 12/32/52
f 13/23/53 26/7/54 27/37/55 9/26/56
f 17/39/57 4/40/58 16/41/59 18/42/60
f 19/43/61 18/44/62 16/18/63 12/32/64
f 20/45/65 19/46/66 12/47/67 6/48/68
f 21/49/69 20/45/70 6/50/71 8/51/72
f 22/52/73 21/53/74 8/54/75 11/33/76
f 23/55/77 22/52/78 11/33/79 15/17/80
f 24/56/81 23/55/82 15/17/83 2/57/84
f 17/58/85 24/56/86 2/59/87 4/60/88
f 25/6/89 17/39/90 18/42/91 26/7/92
f 27/37/93 26/7/94 18/42/95 19/46/96
f 28/10/97 27/37/98 19/46/99 20/45/100
f 29/11/101 28/10/102 20/45/103 21/49/104
f 30/30/105 29/29/106 21/53/107 22/52/108
f 31/14/109 30/30/110 22/52/111 23/55/112
f 32/2/113 31/14/114 23/55/115 24/56/116
f 25/3/117 32/2/118 24/56/119 17/58/120
