# This file uses centimeters as units for non-parametric coordinates.

g default
v -8.035645 -0.180846 8.035645
v 8.035645 -0.180846 8.035645
v -8.035645 0.180846 8.035645
v 8.035645 0.180846 8.035645
v -8.035645 0.180846 -8.035645
v 8.035645 0.180846 -8.035645
v -8.035645 -0.180846 -8.035645
v 8.035645 -0.180846 -8.035645
v -7.388836 -0.180846 -7.388836
v 7.388836 -0.180846 -7.388836
v 7.388836 -0.180846 7.388836
v -7.388836 -0.180846 7.388836
v -6.985252 -0.180846 -6.985252
v 6.985252 -0.180846 -6.985252
v 6.985252 -0.180846 6.985252
v -6.985252 -0.180846 6.985252
v -7.388836 -0.742786 -7.388836
v 7.388836 -0.742786 -7.388836
v 6.985252 -0.742786 -6.985252
v -6.985252 -0.742786 -6.985252
v 7.388836 -0.742786 7.388836
v 6.985252 -0.742786 6.985252
v -7.388836 -0.742786 7.388836
v -6.985252 -0.742786 6.985252
vt 4.474504 -0.331626
vt 4.474510 4.414832
vt 4.367689 4.414832
vt 4.367683 -0.331627
vt -0.485593 4.414838
vt -0.485595 -0.331619
vt -0.378776 -0.331619
vt -0.378771 4.414838
vt 4.665537 4.223804
vt 4.665532 -0.140600
vt 4.831496 -0.140602
vt 4.831501 4.223804
vt 5.116655 -0.021407
vt 5.116658 4.104612
vt 4.950696 4.104611
vt 4.950692 -0.021406
vt -0.676623 -0.140595
vt -0.676620 4.223809
vt -0.842580 4.223809
vt -0.842588 -0.140595
vt -1.127738 4.104615
vt -1.127742 -0.021403
vt -0.961782 -0.021403
vt -0.961776 4.104615
vt -0.007988 4.111779
vt -0.007988 -0.014238
vt 4.118031 -0.014238
vt 4.118031 4.111779
vt -0.378770 4.521657
vt -0.187743 4.712686
vt 4.367683 -0.438449
vt 4.176657 -0.629477
vt 4.176663 4.878649
vt -0.068549 4.997840
vt 4.057461 -0.914633
vt -0.187750 -0.795427
vt -0.378777 -0.438441
vt 4.367690 4.521653
vt 4.176663 4.712684
vt -0.187743 4.878646
vt 4.057468 5.163803
vt -0.068550 5.163802
vt 4.057468 4.997841
vt -0.187750 -0.629465
vt 4.176655 -0.795440
vt -0.068557 -1.080582
vt 4.057460 -1.080594
vt -0.068557 -0.914621
vn 0.000000 0.000000 1.000000
vn 0.000000 0.000000 1.000000
vn 0.000000 0.000000 1.000000
vn 0.000000 0.000000 1.000000
vn 0.000000 1.000000 0.000000
vn 0.000000 1.000000 0.000000
vn 0.000000 1.000000 0.000000
vn 0.000000 1.000000 0.000000
vn 0.000000 0.000000 -1.000000
vn 0.000000 0.000000 -1.000000
vn 0.000000 0.000000 -1.000000
vn 0.000000 0.000000 -1.000000
vn 0.000000 -1.000000 0.000000
vn 0.000000 -1.000000 0.000000
vn 0.000000 -1.000000 0.000000
vn 0.000000 -1.000000 0.000000
vn 1.000000 0.000000 0.000000
vn 1.000000 0.000000 0.000000
vn 1.000000 0.000000 0.000000
vn 1.000000 0.000000 0.000000
vn -1.000000 0.000000 0.000000
vn -1.000000 0.000000 0.000000
vn -1.000000 0.000000 0.000000
vn -1.000000 0.000000 0.000000
vn 0.000000 -1.000000 0.000000
vn 0.000000 -1.000000 0.000000
vn 0.000000 -1.000000 0.000000
vn 0.000000 -1.000000 0.000000
vn 0.000000 -1.000000 0.000000
vn 0.000000 -1.000000 0.000000
vn 0.000000 -1.000000 0.000000
vn 0.000000 -1.000000 0.000000
vn 0.000000 -1.000000 0.000000
vn 0.000000 -1.000000 0.000000
vn 0.000000 -1.000000 0.000000
vn 0.000000 -1.000000 0.000000
vn 0.000000 -1.000000 0.000000
vn 0.000000 -1.000000 0.000000
vn 0.000000 -1.000000 0.000000
vn 0.000000 -1.000000 0.000000
vn 0.000000 -1.000000 0.000000
vn 0.000000 -1.000000 0.000000
vn 0.000000 -1.000000 0.000000
vn 0.000000 -1.000000 0.000000
vn 0.000000 -1.000000 0.000000
vn 0.000000 -1.000000 0.000000
vn 0.000000 -1.000000 0.000000
vn 0.000000 -1.000000 0.000000
vn 0.000000 -1.000000 0.000000
vn 0.000000 -1.000000 0.000000
vn 0.000000 -1.000000 0.000000
vn 0.000000 -1.000000 0.000000
vn 0.000000 -1.000000 0.000000
vn 0.000000 -1.000000 0.000000
vn 0.000000 -1.000000 0.000000
vn 0.000000 -1.000000 0.000000
vn 0.000000 0.000000 -1.000000
vn 0.000000 0.000000 -1.000000
vn 0.000000 0.000000 -1.000000
vn 0.000000 0.000000 -1.000000
vn 0.000000 0.000000 1.000000
vn 0.000000 0.000000 1.000000
vn 0.000000 0.000000 1.000000
vn 0.000000 0.000000 1.000000
vn 1.000000 0.000000 0.000000
vn 1.000000 0.000000 0.000000
vn 1.000000 0.000000 0.000000
vn 1.000000 0.000000 0.000000
vn -1.000000 0.000000 0.000000
vn -1.000000 0.000000 0.000000
vn -1.000000 0.000000 0.000000
vn -1.000000 0.000000 0.000000
vn 0.000000 0.000000 1.000000
vn 0.000000 0.000000 1.000000
vn 0.000000 0.000000 1.000000
vn 0.000000 0.000000 1.000000
vn 0.000000 0.000000 -1.000000
vn 0.000000 0.000000 -1.000000
vn 0.000000 0.000000 -1.000000
vn 0.000000 0.000000 -1.000000
vn -1.000000 0.000000 0.000000
vn -1.000000 0.000000 0.000000
vn -1.000000 0.000000 0.000000
vn -1.000000 0.000000 0.000000
vn 1.000000 0.000000 0.000000
vn 1.000000 0.000000 0.000000
vn 1.000000 0.000000 0.000000
vn 1.000000 0.000000 0.000000
s off
g ghost_Mesh
f 1/37/1 2/31/2 4/4/3 3/7/4
f 3/7/5 4/4/6 6/3/7 5/8/8
f 5/8/9 6/3/10 8/38/11 7/29/12
f 13/25/13 14/26/14 15/27/15 16/28/16
f 2/1/17 8/2/18 6/3/19 4/4/20
f 7/5/21 1/6/22 3/7/23 5/8/24
f 7/29/25 8/38/26 10/39/27 9/30/28
f 8/2/29 2/1/30 11/10/31 10/9/32
f 2/31/33 1/37/34 12/44/35 11/32/36
f 1/6/37 7/5/38 9/18/39 12/17/40
f 17/40/41 18/33/42 19/43/43 20/34/44
f 18/12/45 21/11/46 22/16/47 19/15/48
f 21/45/49 23/36/50 24/48/51 22/35/52
f 23/20/53 17/19/54 20/24/55 24/23/56
f 9/30/57 10/39/58 18/33/59 17/40/60
f 14/41/61 13/42/62 20/34/63 19/43/64
f 10/9/65 11/10/66 21/11/67 18/12/68
f 15/13/69 14/14/70 19/15/71 22/16/72
f 11/32/73 12/44/74 23/36/75 21/45/76
f 16/46/77 15/47/78 22/35/79 24/48/80
f 12/17/81 9/18/82 17/19/83 23/20/84
f 13/21/85 16/22/86 24/23/87 20/24/88
