# This file uses centimeters as units for non-parametric coordinates.

mtllib table_tableTop_2.mtl
v 5.398607 -0.162957 -1.754114
v 4.592330 -0.162957 -3.336522
v 3.336522 -0.162957 -4.592329
v 1.754113 -0.162957 -5.398607
v 0.000000 -0.162957 -5.676430
v -1.754113 -0.162957 -5.398606
v -3.336522 -0.162957 -4.592328
v -4.592328 -0.162957 -3.336521
v -5.398605 -0.162957 -1.754113
v -5.676429 -0.162957 0.000000
v -5.398605 -0.162957 1.754113
v -4.592327 -0.162957 3.336521
v -3.336521 -0.162957 4.592327
v -1.754113 -0.162957 5.398604
v -0.000000 -0.162957 5.676428
v 1.754112 -0.162957 5.398604
v 3.336520 -0.162957 4.592327
v 4.592326 -0.162957 3.336521
v 5.398604 -0.162957 1.754113
v 5.676428 -0.162957 0.000000
v 10.797214 -0.162957 -3.508227
v 9.184659 -0.162957 -6.673045
v 6.673045 -0.162957 -9.184658
v 3.508227 -0.162957 -10.797213
v 0.000000 -0.162957 -11.352860
v -3.508227 -0.162957 -10.797212
v -6.673043 -0.162957 -9.184656
v -9.184655 -0.162957 -6.673043
v -10.797210 -0.162957 -3.508226
v -11.352858 -0.162957 0.000000
v -10.797210 -0.162957 3.508226
v -9.184655 -0.162957 6.673042
v -6.673042 -0.162957 9.184655
v -3.508226 -0.162957 10.797208
v -0.000000 -0.162957 11.352856
v 3.508225 -0.162957 10.797208
v 6.673041 -0.162957 9.184653
v 9.184653 -0.162957 6.673041
v 10.797207 -0.162957 3.508225
v 11.352855 -0.162957 0.000000
v 10.635882 0.162957 -3.455808
v 9.047426 0.162957 -6.573336
v 6.573337 0.162957 -9.047423
v 3.455809 0.162957 -10.635880
v 0.000001 0.162957 -11.183231
v -3.455808 0.162957 -10.635879
v -6.573334 0.162957 -9.047421
v -9.047421 0.162957 -6.573334
v -10.635879 0.162957 -3.455807
v -11.183228 0.162957 0.000001
v -10.635879 0.162957 3.455809
v -9.047421 0.162957 6.573335
v -6.573333 0.162957 9.047421
v -3.455807 0.162957 10.635877
v 0.000000 0.162957 11.183228
v 3.455807 0.162957 10.635877
v 6.573333 0.162957 9.047421
v 9.047421 0.162957 6.573335
v 10.635877 0.162957 3.455808
v 11.183227 0.162957 0.000001
v 0.000000 -0.162957 0.000000
v 10.635882 0.216764 -3.455808
v 9.047426 0.216764 -6.573336
v 0.000000 0.216764 -0.000000
v 6.573337 0.216764 -9.047423
v 3.455809 0.216764 -10.635880
v 0.000001 0.216764 -11.183231
v -3.455808 0.216764 -10.635879
v -6.573334 0.216764 -9.047421
v -9.047421 0.216764 -6.573334
v -10.635879 0.216764 -3.455807
v -11.183228 0.216764 0.000001
v -10.635879 0.216764 3.455809
v -9.047421 0.216764 6.573335
v -6.573333 0.216764 9.047421
v -3.455807 0.216764 10.635877
v 0.000000 0.216764 11.183228
v 3.455807 0.216764 10.635877
v 6.573333 0.216764 9.047421
v 9.047421 0.216764 6.573335
v 10.635877 0.216764 3.455808
v 11.183227 0.216764 0.000001
v 10.759991 0.124300 -3.496133
v 10.797214 0.030975 -3.508227
v 10.670127 0.162957 -3.466934
v 9.152995 0.124300 -6.650040
v 9.184659 0.030975 -6.673045
v 9.076553 0.162957 -6.594501
v 6.650040 0.124300 -9.152994
v 6.673045 0.030975 -9.184658
v 6.594501 0.162957 -9.076552
v 3.496133 0.124300 -10.759990
v 3.508227 0.030975 -10.797213
v 3.466934 0.162957 -10.670126
v 0.000000 0.124300 -11.313722
v 0.000000 0.030975 -11.352860
v 0.000000 0.162957 -11.219234
v -3.496133 0.124300 -10.759989
v -3.508227 0.030975 -10.797212
v -3.466934 0.162957 -10.670125
v -6.650038 0.124300 -9.152993
v -6.673043 0.030975 -9.184656
v -6.594499 0.162957 -9.076550
v -9.152991 0.124300 -6.650037
v -9.184655 0.030975 -6.673043
v -9.076549 0.162957 -6.594498
v -10.759987 0.124300 -3.496132
v -10.797210 0.030975 -3.508226
v -10.670123 0.162957 -3.466933
v -11.313719 0.124300 -0.000000
v -11.352858 0.030975 0.000000
v -11.219231 0.162957 -0.000000
v -10.759987 0.124300 3.496132
v -10.797210 0.030975 3.508226
v -10.670123 0.162957 3.466933
v -9.152991 0.124300 6.650037
v -9.184655 0.030975 6.673042
v -9.076548 0.162957 6.594498
v -6.650037 0.124300 9.152991
v -6.673042 0.030975 9.184655
v -6.594498 0.162957 9.076548
v -3.496132 0.124300 10.759985
v -3.508226 0.030975 10.797208
v -3.466933 0.162957 10.670121
v -0.000000 0.124300 11.313717
v -0.000000 0.030975 11.352856
v -0.000000 0.162957 11.219229
v 3.496130 0.124300 10.759985
v 3.508225 0.030975 10.797208
v 3.466932 0.162957 10.670121
v 6.650035 0.124300 9.152989
v 6.673041 0.030975 9.184653
v 6.594497 0.162957 9.076547
v 9.152989 0.124300 6.650037
v 9.184653 0.030975 6.673041
v 9.076546 0.162957 6.594497
v 10.759984 0.124300 3.496131
v 10.797207 0.030975 3.508225
v 10.670121 0.162957 3.466932
v 11.313716 0.124300 -0.000000
v 11.352855 0.030975 0.000000
v 11.219228 0.162957 -0.000000
vt 0.574301 0.132108
vt 0.563205 0.110329
vt 0.545921 0.093046
vt 0.524142 0.081949
vt 0.500000 0.078125
vt 0.475858 0.081949
vt 0.454079 0.093046
vt 0.436796 0.110329
vt 0.425699 0.132108
vt 0.421875 0.156250
vt 0.425699 0.180392
vt 0.436796 0.202171
vt 0.454079 0.219454
vt 0.475858 0.230551
vt 0.500000 0.234375
vt 0.524142 0.230551
vt 0.545921 0.219454
vt 0.563204 0.202171
vt 0.574301 0.180392
vt 0.578125 0.156250
vt 0.648603 0.107966
vt 0.626409 0.064408
vt 0.591842 0.029841
vt 0.548284 0.007647
vt 0.500000 -0.000000
vt 0.451716 0.007647
vt 0.408159 0.029841
vt 0.373591 0.064409
vt 0.351397 0.107966
vt 0.343750 0.156250
vt 0.351397 0.204534
vt 0.373591 0.248091
vt 0.408159 0.282659
vt 0.451716 0.304853
vt 0.500000 0.312500
vt 0.548284 0.304853
vt 0.591841 0.282659
vt 0.626409 0.248091
vt 0.648603 0.204534
vt 0.656250 0.156250
vt 0.500000 0.150000
vt 0.500000 0.837500
vt 0.574301 0.867892
vt 0.563204 0.889671
vt 0.545921 0.906954
vt 0.524142 0.918051
vt 0.500000 0.921875
vt 0.475858 0.918051
vt 0.454079 0.906954
vt 0.436796 0.889671
vt 0.425699 0.867892
vt 0.421875 0.843750
vt 0.425699 0.819608
vt 0.436796 0.797829
vt 0.454079 0.780546
vt 0.475858 0.769449
vt 0.500000 0.765625
vt 0.524142 0.769449
vt 0.545921 0.780546
vt 0.563205 0.797829
vt 0.574301 0.819608
vt 0.578125 0.843750
vt 0.375000 0.312500
vt 0.387500 0.312500
vt 0.400000 0.312500
vt 0.412500 0.312500
vt 0.425000 0.312500
vt 0.437500 0.312500
vt 0.450000 0.312500
vt 0.462500 0.312500
vt 0.475000 0.312500
vt 0.487500 0.312500
vt 0.500000 0.312500
vt 0.512500 0.312500
vt 0.525000 0.312500
vt 0.537500 0.312500
vt 0.550000 0.312500
vt 0.562500 0.312500
vt 0.575000 0.312500
vt 0.587500 0.312500
vt 0.600000 0.312500
vt 0.612500 0.312500
vt 0.625000 0.312500
vt 0.574301 0.867892
vt 0.563204 0.889671
vt 0.545921 0.906954
vt 0.524142 0.918051
vt 0.500000 0.921875
vt 0.475858 0.918051
vt 0.454079 0.906954
vt 0.436796 0.889671
vt 0.425699 0.867892
vt 0.421875 0.843750
vt 0.425699 0.819608
vt 0.436796 0.797829
vt 0.454079 0.780546
vt 0.475858 0.769449
vt 0.500000 0.765625
vt 0.524142 0.769449
vt 0.545921 0.780546
vt 0.563205 0.797829
vt 0.574301 0.819608
vt 0.578125 0.843750
vt 0.375000 0.688440
vt 0.648603 0.892034
vt 0.625000 0.688440
vt 0.625000 0.566301
vt 0.375000 0.566301
vt 0.575252 0.868201
vt 0.387500 0.688440
vt 0.626409 0.935591
vt 0.387500 0.566243
vt 0.564013 0.890258
vt 0.400000 0.688440
vt 0.591841 0.970159
vt 0.400000 0.566209
vt 0.546508 0.907763
vt 0.412500 0.688440
vt 0.548284 0.992353
vt 0.412500 0.566188
vt 0.524451 0.919001
vt 0.425000 0.688440
vt 0.500000 1.000000
vt 0.425000 0.566176
vt 0.500000 0.922874
vt 0.437500 0.688440
vt 0.451716 0.992353
vt 0.437500 0.566169
vt 0.475549 0.919002
vt 0.450000 0.688440
vt 0.408159 0.970159
vt 0.450000 0.566165
vt 0.453492 0.907762
vt 0.462500 0.688440
vt 0.373591 0.935591
vt 0.462500 0.566163
vt 0.435987 0.890258
vt 0.475000 0.688440
vt 0.351397 0.892034
vt 0.475000 0.566162
vt 0.424749 0.868201
vt 0.487500 0.688440
vt 0.343750 0.843750
vt 0.487500 0.566161
vt 0.420877 0.843750
vt 0.500000 0.688440
vt 0.351397 0.795466
vt 0.500000 0.566161
vt 0.424749 0.819299
vt 0.512500 0.688440
vt 0.373591 0.751909
vt 0.512500 0.566161
vt 0.435987 0.797242
vt 0.525000 0.688440
vt 0.408159 0.717341
vt 0.525000 0.566162
vt 0.453492 0.779738
vt 0.537500 0.688440
vt 0.451716 0.695147
vt 0.537500 0.566163
vt 0.475549 0.768499
vt 0.550000 0.688440
vt 0.500000 0.687500
vt 0.550000 0.566165
vt 0.500000 0.764626
vt 0.562500 0.688440
vt 0.548284 0.695147
vt 0.562500 0.566169
vt 0.524451 0.768498
vt 0.575000 0.688440
vt 0.591842 0.717341
vt 0.575000 0.566176
vt 0.546508 0.779737
vt 0.587500 0.688440
vt 0.626409 0.751908
vt 0.587500 0.566188
vt 0.564013 0.797242
vt 0.600000 0.688440
vt 0.648603 0.795466
vt 0.600000 0.566209
vt 0.575252 0.819299
vt 0.656250 0.843750
vt 0.612500 0.688440
vt 0.612500 0.566243
vt 0.579124 0.843750
vn 0.000000 -1.000000 0.000000
vn 0.000000 -1.000000 0.000000
vn 0.000000 -1.000000 0.000000
vn 0.000000 -1.000000 0.000000
vn 0.000000 -1.000000 0.000000
vn 0.000000 -1.000000 0.000000
vn 0.000000 -1.000000 0.000000
vn 0.000000 -1.000000 0.000000
vn 0.000000 -1.000000 0.000000
vn 0.000000 -1.000000 0.000000
vn 0.000000 -1.000000 0.000000
vn 0.000000 -1.000000 0.000000
vn 0.000000 -1.000000 0.000000
vn 0.000000 -1.000000 0.000000
vn 0.000000 -1.000000 -0.000000
vn 0.000000 -1.000000 -0.000000
vn 0.000000 -1.000000 -0.000000
vn 0.000000 -1.000000 -0.000000
vn 0.000000 -1.000000 0.000000
vn 0.000000 -1.000000 0.000000
vn 0.000000 -1.000000 0.000000
vn 0.000000 -1.000000 0.000000
vn 0.000000 -1.000000 0.000000
vn 0.000000 -1.000000 0.000000
vn 0.000000 -1.000000 0.000000
vn 0.000000 -1.000000 0.000000
vn 0.000000 -1.000000 0.000000
vn 0.000000 -1.000000 0.000000
vn 0.000000 -1.000000 0.000000
vn 0.000000 -1.000000 0.000000
vn 0.000000 -1.000000 0.000000
vn 0.000000 -1.000000 0.000000
vn 0.000000 -1.000000 0.000000
vn 0.000000 -1.000000 0.000000
vn 0.000000 -1.000000 -0.000000
vn 0.000000 -1.000000 -0.000000
vn 0.000000 -1.000000 -0.000000
vn 0.000000 -1.000000 -0.000000
vn 0.000000 -1.000000 0.000000
vn 0.000000 -1.000000 0.000000
vn 0.000000 -1.000000 0.000000
vn 0.000000 1.000000 0.000000
vn 0.000000 1.000000 0.000000
vn 0.000000 1.000000 0.000000
vn 0.000000 1.000000 0.000000
vn 0.000000 1.000000 0.000000
vn 0.000000 1.000000 -0.000000
vn 0.000000 1.000000 0.000000
vn 0.000000 1.000000 0.000000
vn 0.000000 1.000000 -0.000000
vn 0.000000 1.000000 -0.000000
vn 0.000000 1.000000 0.000000
vn 0.000000 1.000000 0.000000
vn 0.000000 1.000000 0.000000
vn 0.000000 1.000000 0.000000
vn 0.000000 1.000000 0.000000
vn 0.000000 1.000000 0.000000
vn 0.000000 1.000000 0.000000
vn 0.000000 1.000000 0.000000
vn 0.000000 1.000000 -0.000000
vn 0.000000 1.000000 0.000000
vn 0.000000 1.000000 0.000000
vn 0.951057 0.000000 -0.309016
vn 0.809017 0.000000 -0.587785
vn 0.809017 0.000000 -0.587785
vn 0.951057 0.000000 -0.309016
vn 0.587785 0.000000 -0.809017
vn 0.587785 0.000000 -0.809017
vn 0.309017 0.000000 -0.951056
vn 0.309017 0.000000 -0.951056
vn 0.000000 0.000000 -1.000000
vn 0.000000 0.000000 -1.000000
vn -0.309017 0.000000 -0.951056
vn -0.309017 0.000000 -0.951056
vn -0.587785 0.000000 -0.809017
vn -0.587785 0.000000 -0.809017
vn -0.809017 0.000000 -0.587785
vn -0.809017 0.000000 -0.587785
vn -0.951056 0.000000 -0.309017
vn -0.951057 0.000000 -0.309017
vn -1.000000 0.000000 -0.000000
vn -1.000000 0.000000 -0.000000
vn -0.951056 0.000000 0.309017
vn -0.951056 0.000000 0.309017
vn -0.809017 0.000000 0.587785
vn -0.809017 0.000000 0.587785
vn -0.587785 0.000000 0.809017
vn -0.587785 0.000000 0.809017
vn -0.309017 0.000000 0.951057
vn -0.309017 0.000000 0.951057
vn 0.000000 0.000000 1.000000
vn 0.000000 0.000000 1.000000
vn 0.309017 0.000000 0.951056
vn 0.309017 0.000000 0.951056
vn 0.587785 0.000000 0.809017
vn 0.587785 0.000000 0.809017
vn 0.809017 0.000000 0.587785
vn 0.809017 0.000000 0.587785
vn 0.951056 0.000000 0.309017
vn 0.951056 0.000000 0.309017
vn 1.000000 0.000000 0.000001
vn 1.000000 0.000000 0.000001
vn 0.942377 0.134794 -0.306196
vn 0.877051 0.386746 -0.284970
vn 0.922188 0.386742 0.000001
vn 0.990874 0.134793 0.000001
vn 0.360121 0.925538 -0.117010
vn 0.277756 0.956403 -0.090248
vn 0.292051 0.956403 0.000000
vn 0.378654 0.925538 0.000000
vn 0.306336 0.925539 -0.222566
vn 0.236272 0.956403 -0.171662
vn 0.801634 0.134795 -0.582421
vn 0.746064 0.386746 -0.542047
vn 0.222565 0.925540 -0.306335
vn 0.171661 0.956404 -0.236272
vn 0.582421 0.134795 -0.801634
vn 0.542047 0.386746 -0.746064
vn 0.117010 0.925539 -0.360120
vn 0.090248 0.956404 -0.277754
vn 0.306197 0.134794 -0.942377
vn 0.284971 0.386746 -0.877051
vn 0.000000 0.925539 -0.378653
vn 0.000000 0.956404 -0.292048
vn -0.000000 0.134794 -0.990874
vn -0.000000 0.386745 -0.922187
vn -0.117010 0.925539 -0.360120
vn -0.090247 0.956404 -0.277753
vn -0.306197 0.134794 -0.942377
vn -0.284971 0.386744 -0.877052
vn -0.222566 0.925539 -0.306336
vn -0.171661 0.956404 -0.236271
vn -0.582421 0.134793 -0.801634
vn -0.542048 0.386743 -0.746065
vn -0.306335 0.925540 -0.222565
vn -0.236272 0.956404 -0.171661
vn -0.801634 0.134794 -0.582421
vn -0.746065 0.386744 -0.542048
vn -0.360117 0.925540 -0.117009
vn -0.277754 0.956404 -0.090248
vn -0.942377 0.134793 -0.306197
vn -0.877053 0.386742 -0.284972
vn -0.378650 0.925540 0.000000
vn -0.292048 0.956404 0.000000
vn -0.990874 0.134791 0.000000
vn -0.922190 0.386737 0.000000
vn -0.360117 0.925540 0.117009
vn -0.277755 0.956403 0.090248
vn -0.942377 0.134793 0.306197
vn -0.877053 0.386742 0.284972
vn -0.306335 0.925540 0.222565
vn -0.236274 0.956403 0.171663
vn -0.801633 0.134796 0.582421
vn -0.746063 0.386749 0.542047
vn -0.222566 0.925539 0.306336
vn -0.171663 0.956403 0.236274
vn -0.582421 0.134796 0.801634
vn -0.542047 0.386749 0.746063
vn -0.117010 0.925539 0.360120
vn -0.090248 0.956403 0.277756
vn -0.306197 0.134795 0.942377
vn -0.284971 0.386747 0.877051
vn 0.000000 0.925539 0.378652
vn 0.000000 0.956403 0.292051
vn 0.000000 0.134795 0.990874
vn 0.000000 0.386748 0.922186
vn 0.117010 0.925539 0.360120
vn 0.090249 0.956403 0.277757
vn 0.306197 0.134794 0.942377
vn 0.284971 0.386746 0.877051
vn 0.222566 0.925539 0.306335
vn 0.171663 0.956403 0.236275
vn 0.582421 0.134793 0.801634
vn 0.542048 0.386743 0.746065
vn 0.306336 0.925539 0.222566
vn 0.236276 0.956402 0.171664
vn 0.801634 0.134794 0.582421
vn 0.746065 0.386744 0.542048
vn 0.360121 0.925538 0.117010
vn 0.277759 0.956402 0.090249
vn 0.942377 0.134793 0.306197
vn 0.877053 0.386742 0.284972
vn 0.951057 0.000000 -0.309016
vn 0.809017 0.000000 -0.587785
vn 0.587785 0.000000 -0.809017
vn 0.309017 0.000000 -0.951057
vn -0.000000 0.000000 -1.000000
vn -0.309017 0.000000 -0.951056
vn -0.587786 0.000000 -0.809017
vn -0.809017 0.000000 -0.587785
vn -0.951057 0.000000 -0.309017
vn -1.000000 0.000000 0.000000
vn -0.951057 0.000000 0.309017
vn -0.809017 0.000000 0.587785
vn -0.587785 0.000000 0.809017
vn -0.309017 0.000000 0.951057
vn 0.000000 0.000000 1.000000
vn 0.309017 0.000000 0.951056
vn 0.587785 0.000000 0.809017
vn 0.809017 0.000000 0.587785
vn 0.951057 0.000000 0.309017
vn 1.000000 0.000000 0.000001
vn 0.000001 1.000000 -0.000001
vn 0.000000 1.000000 0.000000
vn 0.000001 1.000000 -0.000002
vn 0.000001 1.000000 -0.000001
vn 0.000000 1.000000 -0.000000
vn 0.000000 1.000000 -0.000000
vn 0.000000 1.000000 0.000000
vn 0.000000 1.000000 0.000000
vn 0.000000 1.000000 0.000000
vn 0.000000 1.000000 0.000000
vn 0.000000 1.000000 0.000000
vn 0.000000 1.000000 0.000000
vn 0.000000 1.000000 0.000000
vn 0.000000 1.000000 0.000000
vn 0.000000 1.000000 -0.000000
vn 0.000000 1.000000 -0.000000
vn 0.000000 1.000000 0.000000
vn 0.000000 1.000000 0.000000
vn 0.000000 1.000000 0.000000
vn 0.000000 1.000000 0.000000
s 1
usemtl initialShadingGroup
f 1/1/1 2/2/2 22/22/3 21/21/4
f 2/2/2 3/3/5 23/23/6 22/22/3
f 3/3/5 4/4/7 24/24/8 23/23/6
f 4/4/7 5/5/9 25/25/10 24/24/8
f 5/5/9 6/6/11 26/26/12 25/25/10
f 6/6/11 7/7/13 27/27/14 26/26/12
f 7/7/13 8/8/15 28/28/16 27/27/14
f 8/8/15 9/9/17 29/29/18 28/28/16
f 9/9/17 10/10/19 30/30/20 29/29/18
f 10/10/19 11/11/21 31/31/22 30/30/20
f 11/11/21 12/12/23 32/32/24 31/31/22
f 12/12/23 13/13/25 33/33/26 32/32/24
f 13/13/25 14/14/27 34/34/28 33/33/26
f 14/14/27 15/15/29 35/35/30 34/34/28
f 15/15/29 16/16/31 36/36/32 35/35/30
f 16/16/31 17/17/33 37/37/34 36/36/32
f 17/17/33 18/18/35 38/38/36 37/37/34
f 18/18/35 19/19/37 39/39/38 38/38/36
f 19/19/37 20/20/39 40/40/40 39/39/38
f 20/20/39 1/1/1 21/21/4 40/40/40
f 2/2/2 1/1/1 61/41/41
f 3/3/5 2/2/2 61/41/41
f 4/4/7 3/3/5 61/41/41
f 5/5/9 4/4/7 61/41/41
f 6/6/11 5/5/9 61/41/41
f 7/7/13 6/6/11 61/41/41
f 8/8/15 7/7/13 61/41/41
f 9/9/17 8/8/15 61/41/41
f 10/10/19 9/9/17 61/41/41
f 11/11/21 10/10/19 61/41/41
f 12/12/23 11/11/21 61/41/41
f 13/13/25 12/12/23 61/41/41
f 14/14/27 13/13/25 61/41/41
f 15/15/29 14/14/27 61/41/41
f 16/16/31 15/15/29 61/41/41
f 17/17/33 16/16/31 61/41/41
f 18/18/35 17/17/33 61/41/41
f 19/19/37 18/18/35 61/41/41
f 20/20/39 19/19/37 61/41/41
f 1/1/1 20/20/39 61/41/41
s 2
f 62/43/42 63/44/43 64/42/44
f 63/44/43 65/45/45 64/42/44
f 65/45/45 66/46/46 64/42/44
f 66/46/46 67/47/47 64/42/44
f 67/47/47 68/48/48 64/42/44
f 68/48/48 69/49/49 64/42/44
f 69/49/49 70/50/50 64/42/44
f 70/50/50 71/51/51 64/42/44
f 71/51/51 72/52/52 64/42/44
f 72/52/52 73/53/53 64/42/44
f 73/53/53 74/54/54 64/42/44
f 74/54/54 75/55/55 64/42/44
f 75/55/55 76/56/56 64/42/44
f 76/56/56 77/57/57 64/42/44
f 77/57/57 78/58/58 64/42/44
f 78/58/58 79/59/59 64/42/44
f 79/59/59 80/60/60 64/42/44
f 80/60/60 81/61/61 64/42/44
f 81/61/61 82/62/62 64/42/44
f 82/62/62 62/43/42 64/42/44
s 3
f 41/84/63 42/85/64 63/44/65 62/43/66
f 42/85/64 43/86/67 65/45/68 63/44/65
f 43/86/67 44/87/69 66/46/70 65/45/68
f 44/87/69 45/88/71 67/47/72 66/46/70
f 45/88/71 46/89/73 68/48/74 67/47/72
f 46/89/73 47/90/75 69/49/76 68/48/74
f 47/90/75 48/91/77 70/50/78 69/49/76
f 48/91/77 49/92/79 71/51/80 70/50/78
f 49/92/79 50/93/81 72/52/82 71/51/80
f 50/93/81 51/94/83 73/53/84 72/52/82
f 51/94/83 52/95/85 74/54/86 73/53/84
f 52/95/85 53/96/87 75/55/88 74/54/86
f 53/96/87 54/97/89 76/56/90 75/55/88
f 54/97/89 55/98/91 77/57/92 76/56/90
f 55/98/91 56/99/93 78/58/94 77/57/92
f 56/99/93 57/100/95 79/59/96 78/58/94
f 57/100/95 58/101/97 80/60/98 79/59/96
f 58/101/97 59/102/99 81/61/100 80/60/98
f 59/102/99 60/103/101 82/62/102 81/61/100
f 60/103/101 41/84/63 62/43/66 82/62/102
s 4
f 84/107/103 83/106/104 140/183/105 141/184/106
s 5
f 83/105/107 85/109/108 142/185/109 140/182/110
f 85/109/108 83/105/107 86/111/111 88/113/112
s 4
f 83/104/104 84/108/103 87/112/113 86/110/114
s 5
f 88/113/112 86/111/111 89/115/115 91/117/116
s 4
f 86/110/114 87/112/113 90/116/117 89/114/118
s 5
f 91/117/116 89/115/115 92/119/119 94/121/120
s 4
f 89/114/118 90/116/117 93/120/121 92/118/122
s 5
f 94/121/120 92/119/119 95/123/123 97/125/124
s 4
f 92/118/122 93/120/121 96/124/125 95/122/126
s 5
f 97/125/124 95/123/123 98/127/127 100/129/128
s 4
f 95/122/126 96/124/125 99/128/129 98/126/130
s 5
f 100/129/128 98/127/127 101/131/131 103/133/132
s 4
f 98/126/130 99/128/129 102/132/133 101/130/134
s 5
f 103/133/132 101/131/131 104/135/135 106/137/136
s 4
f 101/130/134 102/132/133 105/136/137 104/134/138
s 5
f 106/137/136 104/135/135 107/139/139 109/141/140
s 4
f 104/134/138 105/136/137 108/140/141 107/138/142
s 5
f 109/141/140 107/139/139 110/143/143 112/145/144
s 4
f 107/138/142 108/140/141 111/144/145 110/142/146
s 5
f 112/145/144 110/143/143 113/147/147 115/149/148
s 4
f 110/142/146 111/144/145 114/148/149 113/146/150
s 5
f 115/149/148 113/147/147 116/151/151 118/153/152
s 4
f 113/146/150 114/148/149 117/152/153 116/150/154
s 5
f 118/153/152 116/151/151 119/155/155 121/157/156
s 4
f 116/150/154 117/152/153 120/156/157 119/154/158
s 5
f 121/157/156 119/155/155 122/159/159 124/161/160
s 4
f 119/154/158 120/156/157 123/160/161 122/158/162
s 5
f 124/161/160 122/159/159 125/163/163 127/165/164
s 4
f 122/158/162 123/160/161 126/164/165 125/162/166
s 5
f 127/165/164 125/163/163 128/167/167 130/169/168
s 4
f 125/162/166 126/164/165 129/168/169 128/166/170
s 5
f 130/169/168 128/167/167 131/171/171 133/173/172
s 4
f 128/166/170 129/168/169 132/172/173 131/170/174
s 5
f 133/173/172 131/171/171 134/175/175 136/177/176
s 4
f 131/170/174 132/172/173 135/176/177 134/174/178
s 5
f 136/177/176 134/175/175 137/179/179 139/181/180
s 4
f 134/174/178 135/176/177 138/180/181 137/178/182
s 5
f 139/181/180 137/179/179 140/182/110 142/185/109
s 4
f 137/178/182 138/180/181 141/184/106 140/183/105
f 21/63/183 22/64/184 87/112/113 84/108/103
f 22/64/184 23/65/185 90/116/117 87/112/113
f 23/65/185 24/66/186 93/120/121 90/116/117
f 24/66/186 25/67/187 96/124/125 93/120/121
f 25/67/187 26/68/188 99/128/129 96/124/125
f 26/68/188 27/69/189 102/132/133 99/128/129
f 27/69/189 28/70/190 105/136/137 102/132/133
f 28/70/190 29/71/191 108/140/141 105/136/137
f 29/71/191 30/72/192 111/144/145 108/140/141
f 30/72/192 31/73/193 114/148/149 111/144/145
f 31/73/193 32/74/194 117/152/153 114/148/149
f 32/74/194 33/75/195 120/156/157 117/152/153
f 33/75/195 34/76/196 123/160/161 120/156/157
f 34/76/196 35/77/197 126/164/165 123/160/161
f 35/77/197 36/78/198 129/168/169 126/164/165
f 36/78/198 37/79/199 132/172/173 129/168/169
f 37/79/199 38/80/200 135/176/177 132/172/173
f 38/80/200 39/81/201 138/180/181 135/176/177
f 39/81/201 40/82/202 141/184/106 138/180/181
f 40/82/202 21/83/183 84/107/103 141/184/106
s 5
f 85/109/108 88/113/112 42/85/203 41/84/204
f 88/113/112 91/117/116 43/86/205 42/85/203
f 91/117/116 94/121/120 44/87/206 43/86/205
f 94/121/120 97/125/124 45/88/207 44/87/206
f 97/125/124 100/129/128 46/89/208 45/88/207
f 100/129/128 103/133/132 47/90/209 46/89/208
f 103/133/132 106/137/136 48/91/210 47/90/209
f 106/137/136 109/141/140 49/92/211 48/91/210
f 109/141/140 112/145/144 50/93/212 49/92/211
f 112/145/144 115/149/148 51/94/213 50/93/212
f 115/149/148 118/153/152 52/95/214 51/94/213
f 118/153/152 121/157/156 53/96/215 52/95/214
f 121/157/156 124/161/160 54/97/216 53/96/215
f 124/161/160 127/165/164 55/98/217 54/97/216
f 127/165/164 130/169/168 56/99/218 55/98/217
f 130/169/168 133/173/172 57/100/219 56/99/218
f 133/173/172 136/177/176 58/101/220 57/100/219
f 136/177/176 139/181/180 59/102/221 58/101/220
f 139/181/180 142/185/109 60/103/222 59/102/221
f 142/185/109 85/109/108 41/84/204 60/103/222
