# This file uses centimeters as units for non-parametric coordinates.

mtllib table_tableTop_3.mtl
v -8.035645 -0.180846 8.035645
v 8.035645 -0.180846 8.035645
v -8.035645 0.180846 8.035645
v 8.035645 0.180846 8.035645
v -8.035645 0.180846 -8.035645
v 8.035645 0.180846 -8.035645
v -8.035645 -0.180846 -8.035645
v 8.035645 -0.180846 -8.035645
v -7.388836 -0.180846 -7.388836
v 7.388836 -0.180846 -7.388836
v 7.388836 -0.180846 7.388836
v -7.388836 -0.180846 7.388836
v -6.985252 -0.180846 -6.985252
v 6.985252 -0.180846 -6.985252
v 6.985252 -0.180846 6.985252
v -6.985252 -0.180846 6.985252
v -7.388836 -0.742786 -7.388836
v 7.388836 -0.742786 -7.388836
v 6.985252 -0.742786 -6.985252
v -6.985252 -0.742786 -6.985252
v 7.388836 -0.742786 7.388836
v 6.985252 -0.742786 6.985252
v -7.388836 -0.742786 7.388836
v -6.985252 -0.742786 6.985252
vt 0.375000 0.000000
vt 0.625000 0.000000
vt 0.375000 0.250000
vt 0.625000 0.250000
vt 0.375000 0.500000
vt 0.625000 0.500000
vt 0.375000 0.750000
vt 0.625000 0.750000
vt 0.375000 1.000000
vt 0.625000 1.000000
vt 0.875000 0.000000
vt 0.875000 0.250000
vt 0.125000 0.000000
vt 0.125000 0.250000
vt 0.375000 0.750000
vt 0.625000 0.750000
vt 0.625000 1.000000
vt 0.375000 1.000000
vt 0.375000 0.750000
vt 0.625000 0.750000
vt 0.625000 1.000000
vt 0.375000 1.000000
vt 0.375000 0.750000
vt 0.625000 0.750000
vt 0.625000 0.750000
vt 0.375000 0.750000
vt 0.625000 1.000000
vt 0.625000 1.000000
vt 0.375000 1.000000
vt 0.375000 1.000000
vn 0.000000 0.000000 1.000000
vn 0.000000 0.000000 1.000000
vn 0.000000 0.000000 1.000000
vn 0.000000 0.000000 1.000000
vn 0.000000 1.000000 0.000000
vn 0.000000 1.000000 0.000000
vn 0.000000 1.000000 0.000000
vn 0.000000 1.000000 0.000000
vn 0.000000 0.000000 -1.000000
vn 0.000000 0.000000 -1.000000
vn 0.000000 0.000000 -1.000000
vn 0.000000 0.000000 -1.000000
vn 0.000000 -1.000000 0.000000
vn 0.000000 -1.000000 0.000000
vn 0.000000 -1.000000 0.000000
vn 0.000000 -1.000000 0.000000
vn 1.000000 0.000000 0.000000
vn 1.000000 0.000000 0.000000
vn 1.000000 0.000000 0.000000
vn 1.000000 0.000000 0.000000
vn -1.000000 0.000000 0.000000
vn -1.000000 0.000000 0.000000
vn -1.000000 0.000000 0.000000
vn -1.000000 0.000000 0.000000
vn 0.000000 -1.000000 0.000000
vn 0.000000 -1.000000 0.000000
vn 0.000000 -1.000000 0.000000
vn 0.000000 -1.000000 0.000000
vn 0.000000 -1.000000 0.000000
vn 0.000000 -1.000000 0.000000
vn 0.000000 -1.000000 0.000000
vn 0.000000 -1.000000 0.000000
vn 0.000000 -1.000000 -0.000000
vn 0.000000 -1.000000 -0.000000
vn 0.000000 -1.000000 -0.000000
vn 0.000000 -1.000000 -0.000000
vn 0.000000 -1.000000 0.000000
vn 0.000000 -1.000000 0.000000
vn 0.000000 -1.000000 0.000000
vn 0.000000 -1.000000 0.000000
vn 0.000000 0.000000 -1.000000
vn 0.000000 0.000000 -1.000000
vn 0.000000 0.000000 -1.000000
vn 0.000000 0.000000 -1.000000
vn 0.000000 0.000000 1.000000
vn 0.000000 0.000000 1.000000
vn 0.000000 0.000000 1.000000
vn 0.000000 0.000000 1.000000
vn 1.000000 0.000000 0.000000
vn 1.000000 0.000000 0.000000
vn 1.000000 0.000000 0.000000
vn 1.000000 0.000000 0.000000
vn -1.000000 0.000000 0.000000
vn -1.000000 0.000000 0.000000
vn -1.000000 0.000000 0.000000
vn -1.000000 0.000000 0.000000
vn 0.000000 0.000000 1.000000
vn 0.000000 0.000000 1.000000
vn 0.000000 0.000000 1.000000
vn 0.000000 0.000000 1.000000
vn 0.000000 0.000000 -1.000000
vn 0.000000 0.000000 -1.000000
vn 0.000000 0.000000 -1.000000
vn 0.000000 0.000000 -1.000000
vn -1.000000 0.000000 0.000000
vn -1.000000 0.000000 0.000000
vn -1.000000 0.000000 0.000000
vn -1.000000 0.000000 0.000000
vn 1.000000 0.000000 0.000000
vn 1.000000 0.000000 0.000000
vn 1.000000 0.000000 0.000000
vn 1.000000 0.000000 0.000000
s off
usemtl initialShadingGroup
f 1/1/1 2/2/2 4/4/3 3/3/4
f 3/3/5 4/4/6 6/6/7 5/5/8
f 5/5/9 6/6/10 8/8/11 7/7/12
f 13/19/13 14/20/14 15/21/15 16/22/16
f 2/2/17 8/11/18 6/12/19 4/4/20
f 7/13/21 1/1/22 3/3/23 5/14/24
s 1
f 7/7/25 8/8/26 10/16/27 9/15/28
f 8/8/26 2/10/29 11/17/30 10/16/27
f 2/10/29 1/9/31 12/18/32 11/17/30
f 1/9/31 7/7/25 9/15/28 12/18/32
s 2
f 17/23/33 18/24/34 19/25/35 20/26/36
f 18/24/34 21/27/37 22/28/38 19/25/35
f 21/27/37 23/29/39 24/30/40 22/28/38
f 23/29/39 17/23/33 20/26/36 24/30/40
s off
f 9/15/41 10/16/42 18/24/43 17/23/44
f 14/20/45 13/19/46 20/26/47 19/25/48
f 10/16/49 11/17/50 21/27/51 18/24/52
f 15/21/53 14/20/54 19/25/55 22/28/56
f 11/17/57 12/18/58 23/29/59 21/27/60
f 16/22/61 15/21/62 22/28/63 24/30/64
f 12/18/65 9/15/66 17/23/67 23/29/68
f 13/19/69 16/22/70 24/30/71 20/26/72
