# This file uses centimeters as units for non-parametric coordinates.

g default
v -11.658319 -0.198314 21.641577
v 11.658319 -0.198314 21.641577
v -11.658319 0.198314 21.641577
v 11.658319 0.198314 21.641577
v -11.658319 0.198314 -21.641577
v 11.658319 0.198314 -21.641577
v -11.658319 -0.198314 -21.641577
v 11.658319 -0.198314 -21.641577
v -11.658319 0.198314 -20.976749
v -11.658319 -0.198314 -20.976749
v 11.658319 -0.198314 -20.976749
v 11.658319 0.198314 -20.976749
v -11.658319 0.198314 20.976751
v -11.658319 -0.198314 20.976751
v 11.658319 -0.198314 20.976751
v 11.658319 0.198314 20.976751
v 10.909910 0.198314 21.641577
v 10.909910 0.856711 20.976753
v 10.909910 0.856711 -20.976748
v 10.909910 0.198314 -21.641577
v 10.909910 -0.198314 -21.641577
v 10.909910 -0.198314 -20.976748
v 10.909910 -0.198314 20.976753
v 10.909910 -0.198314 21.641577
v -10.909912 0.198314 21.641577
v -10.909912 0.856711 20.976753
v -10.909912 0.856711 -20.976748
v -10.909912 0.198314 -21.641577
v -10.909912 -0.198314 -21.641577
v -10.909912 -0.198314 -20.976748
v -10.909912 -0.198314 20.976753
v -10.909912 -0.198314 21.641577
vt 6.166845 5.716917
vt 6.166845 5.628464
vt 6.219615 5.628465
vt 6.219615 5.716917
vt 6.166845 0.046662
vt 6.219615 0.046661
vt 6.166845 -0.041792
vt 6.219615 -0.041792
vt 6.307213 0.046662
vt 6.307213 5.628465
vt 3.053055 0.046662
vt 3.053055 -0.041792
vt 3.000284 -0.041791
vt 3.000284 0.046662
vt 3.053055 5.628466
vt 3.000284 5.628466
vt 2.912687 0.046661
vt 2.912687 5.628464
vt 3.053055 5.716919
vt 3.000285 5.716919
vt 3.012260 -0.041792
vt 2.912687 -0.041792
vt 3.012260 0.046661
vt 0.009617 -0.041792
vt 0.009617 0.046661
vt -0.089957 -0.041792
vt -0.089957 0.046661
vt 0.009617 5.628464
vt 2.912687 5.716918
vt 0.009617 5.716917
vt 3.012260 5.628465
vt 3.012260 5.716918
vt -0.089957 5.628465
vt -0.089957 5.716918
vt 3.064628 5.628464
vt 3.164201 5.628465
vt 3.164201 5.716918
vt 3.064628 5.716918
vt 3.064628 0.046662
vt 3.164201 0.046662
vt 6.067271 5.628465
vt 6.067271 5.716917
vt 3.064628 -0.041792
vt 3.164201 -0.041792
vt 6.067271 0.046662
vt 6.166845 5.716918
vt 6.067271 -0.041792
vt 6.166845 -0.041792
vt 3.064628 5.716918
vt 3.164201 5.769689
vt 3.064628 5.769689
vt 6.067272 5.769688
vt 6.166845 5.716917
vt 6.166845 5.769688
vt 3.012261 5.716918
vt 2.912686 5.664149
vt 3.012261 5.664149
vt 0.009618 5.664148
vt -0.089957 5.716917
vt -0.089957 5.664148
vn 0.000000 0.000000 1.000000
vn 0.000000 0.000000 1.000000
vn 0.000000 0.000000 1.000000
vn 0.000000 0.000000 1.000000
vn -0.366723 0.833719 0.412829
vn -0.010449 0.716351 0.697662
vn -0.028721 0.999476 0.014940
vn -0.657583 0.753359 0.005819
vn 0.000000 0.000000 -1.000000
vn 0.000000 0.000000 -1.000000
vn 0.000000 0.000000 -1.000000
vn 0.000000 0.000000 -1.000000
vn 0.000000 -1.000000 0.000000
vn 0.000000 -1.000000 0.000000
vn 0.000000 -1.000000 0.000000
vn 0.000000 -1.000000 0.000000
vn 1.000000 0.000000 0.000000
vn 1.000000 0.000000 0.000000
vn 1.000000 0.000000 0.000000
vn 1.000000 0.000000 0.000000
vn -1.000000 0.000000 0.000000
vn -1.000000 0.000000 0.000000
vn -1.000000 0.000000 0.000000
vn -1.000000 0.000000 0.000000
vn -1.000000 0.000000 0.000000
vn -1.000000 0.000000 0.000000
vn -1.000000 0.000000 0.000000
vn -1.000000 0.000000 0.000000
vn 0.000000 -1.000000 0.000000
vn 0.000000 -1.000000 0.000000
vn 0.000000 -1.000000 0.000000
vn 0.000000 -1.000000 0.000000
vn 1.000000 0.000000 0.000000
vn 1.000000 0.000000 0.000000
vn 1.000000 0.000000 0.000000
vn 1.000000 0.000000 0.000000
vn -0.657583 0.753359 -0.005819
vn -0.028721 0.999476 -0.014940
vn -0.010449 0.716353 -0.697659
vn -0.366724 0.833719 -0.412827
vn -1.000000 0.000000 0.000000
vn -1.000000 0.000000 0.000000
vn -1.000000 0.000000 0.000000
vn -1.000000 0.000000 0.000000
vn 0.000000 -1.000000 0.000000
vn 0.000000 -1.000000 0.000000
vn 0.000000 -1.000000 0.000000
vn 0.000000 -1.000000 0.000000
vn 1.000000 0.000000 0.000000
vn 1.000000 0.000000 0.000000
vn 1.000000 0.000000 0.000000
vn 1.000000 0.000000 0.000000
vn -0.657583 0.753359 0.005819
vn -0.028721 0.999476 0.014940
vn -0.028721 0.999476 -0.014940
vn -0.657583 0.753359 -0.005819
vn 0.010449 0.716351 0.697662
vn 0.366722 0.833719 0.412829
vn 0.657583 0.753360 0.005819
vn 0.028721 0.999476 0.014940
vn 0.028721 0.999476 -0.014940
vn 0.028721 0.999476 0.014940
vn 0.657583 0.753360 0.005819
vn 0.657583 0.753360 -0.005819
vn 0.010449 0.716353 -0.697659
vn 0.028721 0.999476 -0.014940
vn 0.657583 0.753360 -0.005819
vn 0.366723 0.833719 -0.412827
vn 0.000000 0.000000 -1.000000
vn 0.000000 0.000000 -1.000000
vn 0.000000 0.000000 -1.000000
vn 0.000000 0.000000 -1.000000
vn 0.000000 -1.000000 0.000000
vn 0.000000 -1.000000 0.000000
vn 0.000000 -1.000000 0.000000
vn 0.000000 -1.000000 0.000000
vn 0.000000 -1.000000 0.000000
vn 0.000000 -1.000000 0.000000
vn 0.000000 -1.000000 0.000000
vn 0.000000 -1.000000 0.000000
vn 0.000000 -1.000000 0.000000
vn 0.000000 -1.000000 0.000000
vn 0.000000 -1.000000 0.000000
vn 0.000000 -1.000000 0.000000
vn 0.000000 0.000000 1.000000
vn 0.000000 0.000000 1.000000
vn 0.000000 0.000000 1.000000
vn 0.000000 0.000000 1.000000
vn -0.010449 0.716351 0.697662
vn 0.010449 0.716351 0.697662
vn 0.028721 0.999476 0.014940
vn -0.028721 0.999476 0.014940
vn -0.028721 0.999476 -0.014940
vn -0.028721 0.999476 0.014940
vn 0.028721 0.999476 0.014940
vn 0.028721 0.999476 -0.014940
vn -0.010449 0.716353 -0.697659
vn -0.028721 0.999476 -0.014940
vn 0.028721 0.999476 -0.014940
vn 0.010449 0.716353 -0.697659
vn 0.000000 0.000000 -1.000000
vn 0.000000 0.000000 -1.000000
vn 0.000000 0.000000 -1.000000
vn 0.000000 0.000000 -1.000000
vn 0.000000 -1.000000 0.000000
vn 0.000000 -1.000000 0.000000
vn 0.000000 -1.000000 0.000000
vn 0.000000 -1.000000 0.000000
vn 0.000000 -1.000000 0.000000
vn 0.000000 -1.000000 0.000000
vn 0.000000 -1.000000 0.000000
vn 0.000000 -1.000000 0.000000
vn 0.000000 -1.000000 0.000000
vn 0.000000 -1.000000 0.000000
vn 0.000000 -1.000000 0.000000
vn 0.000000 -1.000000 0.000000
vn 0.000000 0.000000 1.000000
vn 0.000000 0.000000 1.000000
vn 0.000000 0.000000 1.000000
vn 0.000000 0.000000 1.000000
s off
g ghost_Mesh
f 1/49/1 32/37/2 25/50/3 3/51/4
f 3/21/5 25/22/6 26/17/7 13/23/8
f 5/55/9 28/29/10 29/56/11 7/57/12
f 14/35/13 31/36/14 32/37/15 1/38/16
f 2/1/17 15/2/18 16/3/19 4/4/20
f 14/11/21 1/12/22 3/13/23 13/14/24
f 7/19/25 10/15/26 9/16/27 5/20/28
f 7/43/29 29/44/30 30/40/31 10/39/32
f 12/6/33 11/5/34 8/7/35 6/8/36
f 9/31/37 27/18/38 28/29/39 5/32/40
f 10/15/41 14/11/42 13/14/43 9/16/44
f 10/39/45 30/40/46 31/36/47 14/35/48
f 16/3/49 15/2/50 11/5/51 12/6/52
f 13/14/53 26/17/54 27/18/55 9/16/56
f 17/24/57 4/26/58 16/27/59 18/25/60
f 19/9/61 18/10/62 16/3/63 12/6/64
f 20/30/65 19/28/66 12/33/67 6/34/68
f 21/58/69 20/30/70 6/59/71 8/60/72
f 22/45/73 21/47/74 8/48/75 11/5/76
f 23/41/77 22/45/78 11/5/79 15/2/80
f 24/42/81 23/41/82 15/2/83 2/46/84
f 17/52/85 24/42/86 2/53/87 4/54/88
f 25/22/89 17/24/90 18/25/91 26/17/92
f 27/18/93 26/17/94 18/25/95 19/28/96
f 28/29/97 27/18/98 19/28/99 20/30/100
f 29/56/101 28/29/102 20/30/103 21/58/104
f 30/40/105 29/44/106 21/47/107 22/45/108
f 31/36/109 30/40/110 22/45/111 23/41/112
f 32/37/113 31/36/114 23/41/115 24/42/116
f 25/50/117 32/37/118 24/42/119 17/52/120
