# This file uses centimeters as units for non-parametric coordinates.

mtllib toilet_base_2.mtl
v 0.727108 -3.737711 2.607454
v 1.504492 -3.737711 1.963328
v 2.432720 -3.737711 1.134913
v 3.140295 -3.737711 0.044584
v 3.360980 -3.737711 -0.895638
v 3.207588 -3.737711 -1.641845
v 2.879927 -3.737711 -2.337696
v 2.330480 -3.737711 -3.194556
v 1.380446 -3.737711 -4.043322
v -0.028309 -3.737711 -4.400705
v -1.437063 -3.737711 -4.043322
v -2.387098 -3.737711 -3.194555
v -2.936543 -3.737711 -2.337695
v -3.264204 -3.737711 -1.641845
v -3.417597 -3.737711 -0.895638
v -3.196911 -3.737711 0.044583
v -2.489336 -3.737711 1.134911
v -1.561109 -3.737711 1.963324
v -0.783725 -3.737711 2.607450
v -0.028309 -3.737711 2.904273
v 0.529165 -1.132268 1.387934
v 1.105002 -0.996271 1.077765
v 1.630469 -0.808054 0.490114
v 1.971557 -0.596547 -0.265034
v 2.050915 -0.382389 -1.022951
v 1.875614 -0.241381 -1.834503
v 1.544111 -0.121377 -2.740875
v 1.090695 0.019000 -3.456329
v 0.548390 0.127022 -3.904927
v -0.028308 0.171298 -4.061622
v -0.605007 0.127022 -3.904927
v -1.147311 0.019000 -3.456329
v -1.600727 -0.121377 -2.740874
v -1.932230 -0.241381 -1.834503
v -2.107532 -0.382389 -1.022952
v -2.028173 -0.596547 -0.265034
v -1.687085 -0.808054 0.490113
v -1.161619 -0.996271 1.077763
v -0.585782 -1.132268 1.387931
v -0.028309 -1.206763 1.435135
v -0.028309 -3.737711 -1.912853
v -0.028309 0.000000 -1.347963
v -2.163486 -2.564085 0.738766
v -2.708658 -2.498181 -0.228891
v -2.872943 -2.389775 -1.108065
v -2.818579 -2.284133 -1.764084
v -2.509481 -2.231749 -2.513482
v -1.914604 -2.160676 -3.399840
v -1.075306 -2.037511 -4.149594
v -0.028309 -1.983934 -4.428681
v 1.018689 -2.037511 -4.149594
v 1.857987 -2.160676 -3.399841
v 2.452864 -2.231749 -2.513483
v 2.761963 -2.284133 -1.764084
v 2.816326 -2.389775 -1.108065
v 2.652042 -2.498181 -0.228891
v 2.106870 -2.564085 0.738769
v 1.349801 -2.642062 1.479942
v 0.635418 -2.697583 1.931203
v -0.028309 -2.707593 2.122297
v -0.692034 -2.697583 1.931200
v -1.406417 -2.642062 1.479938
v 2.271643 -1.435950 -0.315679
v 1.841838 -1.605401 0.551899
v 1.216536 -1.747351 1.212257
v 0.575657 -1.845125 1.567083
v -0.028309 -1.888186 1.663091
v -0.632274 -1.845125 1.567081
v -1.273152 -1.747351 1.212255
v -1.898454 -1.605401 0.551898
v -2.328259 -1.435950 -0.315679
v -2.451050 -1.248325 -1.108941
v -2.346049 -1.098619 -1.820230
v -1.965851 -1.030141 -2.679328
v -1.455119 -0.870527 -3.512036
v -0.779488 -0.720872 -4.085390
v -0.028309 -0.660313 -4.288035
v 0.722871 -0.720872 -4.085390
v 1.398501 -0.870527 -3.512037
v 1.909234 -1.030141 -2.679328
v 2.289432 -1.098619 -1.820230
v 2.394434 -1.248325 -1.108941
vt 0.198786 0.150919
vt 0.201567 0.150919
vt 0.201567 0.185857
vt 0.198786 0.185857
vt 0.204348 0.150919
vt 0.204348 0.185857
vt 0.207128 0.150919
vt 0.207128 0.185857
vt 0.209909 0.150919
vt 0.209909 0.185857
vt 0.212690 0.150919
vt 0.212690 0.185857
vt 0.215471 0.150919
vt 0.215471 0.185857
vt 0.218252 0.150919
vt 0.218252 0.185857
vt 0.221032 0.150919
vt 0.221032 0.185857
vt 0.223813 0.150919
vt 0.223813 0.185857
vt 0.226594 0.150919
vt 0.226594 0.185857
vt 0.229375 0.150919
vt 0.229375 0.185857
vt 0.232155 0.150919
vt 0.232155 0.185857
vt 0.234936 0.150919
vt 0.234936 0.185857
vt 0.237717 0.150919
vt 0.237717 0.185857
vt 0.240498 0.150919
vt 0.240498 0.185857
vt 0.243279 0.150919
vt 0.243279 0.185857
vt 0.246059 0.150919
vt 0.246059 0.185857
vt 0.248840 0.150919
vt 0.248840 0.185857
vt 0.251621 0.150919
vt 0.251621 0.185857
vt 0.254402 0.150919
vt 0.254402 0.185857
vt 0.254715 0.095728
vt 0.259652 0.105418
vt 0.226594 0.114769
vt 0.247025 0.088038
vt 0.237335 0.083100
vt 0.226594 0.081399
vt 0.215853 0.083100
vt 0.206163 0.088038
vt 0.198473 0.095728
vt 0.193535 0.105418
vt 0.191834 0.116159
vt 0.193535 0.126900
vt 0.198473 0.136590
vt 0.206163 0.144280
vt 0.215853 0.149218
vt 0.226594 0.150919
vt 0.237335 0.149218
vt 0.247025 0.144280
vt 0.254715 0.136590
vt 0.259652 0.126900
vt 0.261354 0.116159
vt 0.259652 0.279843
vt 0.254715 0.289533
vt 0.226594 0.267711
vt 0.247025 0.297223
vt 0.237335 0.302160
vt 0.226594 0.303861
vt 0.215853 0.302160
vt 0.206163 0.297223
vt 0.198473 0.289533
vt 0.193535 0.279843
vt 0.191834 0.269102
vt 0.193535 0.258360
vt 0.198473 0.248671
vt 0.206163 0.240981
vt 0.215853 0.236043
vt 0.226594 0.234342
vt 0.237335 0.236043
vt 0.247025 0.240981
vt 0.254715 0.248670
vt 0.259652 0.258360
vt 0.261354 0.269102
vt 0.243279 0.213078
vt 0.240498 0.213078
vt 0.237717 0.213078
vt 0.234936 0.213078
vt 0.232155 0.213078
vt 0.229375 0.213078
vt 0.226594 0.213078
vt 0.223813 0.213078
vt 0.221032 0.213078
vt 0.218252 0.213078
vt 0.215471 0.213078
vt 0.212690 0.213078
vt 0.209909 0.213078
vt 0.207128 0.213078
vt 0.204348 0.213078
vt 0.201567 0.213078
vt 0.198786 0.213078
vt 0.254402 0.213078
vt 0.251621 0.213078
vt 0.248840 0.213078
vt 0.246059 0.213078
vt 0.207128 0.234551
vt 0.204348 0.234551
vt 0.201567 0.234551
vt 0.198786 0.234551
vt 0.254402 0.234551
vt 0.251621 0.234551
vt 0.248840 0.234551
vt 0.246059 0.234551
vt 0.243279 0.234551
vt 0.240498 0.234551
vt 0.237717 0.234551
vt 0.234936 0.234551
vt 0.232155 0.234551
vt 0.229375 0.234551
vt 0.226594 0.234551
vt 0.223813 0.234551
vt 0.221032 0.234551
vt 0.218252 0.234551
vt 0.215471 0.234551
vt 0.212690 0.234551
vt 0.209909 0.234551
vn 0.516356 0.453868 0.726210
vn 0.516356 0.453868 0.726210
vn 0.516356 0.453868 0.726210
vn 0.516356 0.453868 0.726210
vn 0.616380 0.394633 0.681425
vn 0.616380 0.394633 0.681425
vn 0.616380 0.394633 0.681425
vn 0.616380 0.394633 0.681425
vn 0.778108 0.397467 0.486382
vn 0.778108 0.397467 0.486382
vn 0.778108 0.397467 0.486382
vn 0.778109 0.397467 0.486381
vn 0.893103 0.396447 0.212595
vn 0.893103 0.396447 0.212595
vn 0.893103 0.396447 0.212595
vn 0.893103 0.396447 0.212595
vn 0.940785 0.318767 -0.115372
vn 0.940785 0.318767 -0.115372
vn 0.940785 0.318767 -0.115372
vn 0.940785 0.318767 -0.115372
vn 0.894648 0.224935 -0.386018
vn 0.894648 0.224935 -0.386018
vn 0.894648 0.224935 -0.386018
vn 0.894648 0.224935 -0.386018
vn 0.826339 0.174942 -0.535312
vn 0.826339 0.174942 -0.535312
vn 0.826339 0.174942 -0.535312
vn 0.826339 0.174942 -0.535312
vn 0.666719 0.099499 -0.738638
vn 0.666719 0.099499 -0.738638
vn 0.666719 0.099499 -0.738638
vn 0.666719 0.099499 -0.738638
vn 0.250637 -0.011374 -0.968014
vn 0.250637 -0.011374 -0.968014
vn 0.250637 -0.011374 -0.968014
vn 0.250637 -0.011374 -0.968014
vn -0.250637 -0.011373 -0.968014
vn -0.250637 -0.011373 -0.968014
vn -0.250637 -0.011373 -0.968014
vn -0.250637 -0.011373 -0.968014
vn -0.666719 0.099500 -0.738638
vn -0.666719 0.099500 -0.738637
vn -0.666719 0.099500 -0.738637
vn -0.666719 0.099500 -0.738637
vn -0.826339 0.174943 -0.535311
vn -0.826339 0.174943 -0.535311
vn -0.826339 0.174943 -0.535311
vn -0.826339 0.174943 -0.535311
vn -0.894648 0.224935 -0.386018
vn -0.894648 0.224935 -0.386018
vn -0.894648 0.224935 -0.386018
vn -0.894648 0.224935 -0.386018
vn -0.940785 0.318766 -0.115373
vn -0.940785 0.318766 -0.115373
vn -0.940785 0.318766 -0.115373
vn -0.940785 0.318766 -0.115373
vn -0.893103 0.396447 0.212596
vn -0.893103 0.396447 0.212596
vn -0.893103 0.396447 0.212596
vn -0.893103 0.396447 0.212596
vn -0.778108 0.397467 0.486382
vn -0.778108 0.397467 0.486382
vn -0.778108 0.397467 0.486382
vn -0.778108 0.397467 0.486382
vn -0.616380 0.394633 0.681426
vn -0.616380 0.394633 0.681426
vn -0.616380 0.394633 0.681426
vn -0.616380 0.394633 0.681426
vn -0.516356 0.453867 0.726210
vn -0.516356 0.453867 0.726210
vn -0.516356 0.453867 0.726210
vn -0.516356 0.453867 0.726210
vn -0.265138 0.563071 0.782722
vn -0.265138 0.563071 0.782722
vn -0.265138 0.563071 0.782722
vn -0.265138 0.563071 0.782722
vn 0.265134 0.563072 0.782722
vn 0.265134 0.563072 0.782722
vn 0.265134 0.563072 0.782722
vn 0.265134 0.563072 0.782722
vn 0.000000 -1.000000 0.000000
vn 0.000000 -1.000000 0.000000
vn 0.000000 -1.000000 0.000000
vn 0.000000 -1.000000 0.000000
vn 0.000000 -1.000000 0.000000
vn 0.000000 -1.000000 0.000000
vn 0.000000 -1.000000 0.000000
vn 0.000000 -1.000000 0.000000
vn 0.000000 -1.000000 0.000000
vn 0.000000 -1.000000 0.000000
vn 0.000000 -1.000000 0.000000
vn 0.000000 -1.000000 0.000000
vn 0.000000 -1.000000 0.000000
vn 0.000000 -1.000000 0.000000
vn 0.000000 -1.000000 0.000000
vn 0.000000 -1.000000 0.000000
vn 0.000000 -1.000000 0.000000
vn 0.000000 -1.000000 0.000000
vn 0.000000 -1.000000 0.000000
vn 0.000000 -1.000000 0.000000
vn 0.000000 -1.000000 0.000000
vn 0.000000 -1.000000 0.000000
vn 0.000000 -1.000000 0.000000
vn 0.000000 -1.000000 0.000000
vn 0.000000 -1.000000 0.000000
vn 0.000000 -1.000000 0.000000
vn 0.000000 -1.000000 0.000000
vn 0.000000 -1.000000 0.000000
vn 0.000000 -1.000000 0.000000
vn 0.000000 -1.000000 0.000000
vn 0.000000 -1.000000 0.000000
vn 0.000000 -1.000000 0.000000
vn 0.000000 -1.000000 0.000000
vn 0.000000 -1.000000 0.000000
vn 0.000000 -1.000000 0.000000
vn 0.000000 -1.000000 0.000000
vn 0.000000 -1.000000 0.000000
vn 0.000000 -1.000000 0.000000
vn 0.000000 -1.000000 0.000000
vn 0.000000 -1.000000 0.000000
vn 0.000000 -1.000000 0.000000
vn 0.000000 -1.000000 0.000000
vn 0.000000 -1.000000 0.000000
vn 0.000000 -1.000000 0.000000
vn 0.000000 -1.000000 0.000000
vn 0.000000 -1.000000 0.000000
vn 0.000000 -1.000000 0.000000
vn 0.000000 -1.000000 0.000000
vn 0.000000 -1.000000 0.000000
vn 0.000000 -1.000000 0.000000
vn 0.000000 -1.000000 0.000000
vn 0.000000 -1.000000 0.000000
vn 0.000000 -1.000000 0.000000
vn 0.000000 -1.000000 0.000000
vn 0.000000 -1.000000 0.000000
vn 0.000000 -1.000000 0.000000
vn 0.000000 -1.000000 0.000000
vn 0.000000 -1.000000 0.000000
vn 0.000000 -1.000000 0.000000
vn 0.000000 -1.000000 0.000000
vn -0.011026 0.923144 0.384296
vn -0.011026 0.923144 0.384296
vn -0.011026 0.923144 0.384296
vn 0.061976 0.933086 0.354273
vn 0.061975 0.933086 0.354273
vn 0.061975 0.933086 0.354273
vn 0.111075 0.942822 0.314243
vn 0.111075 0.942822 0.314243
vn 0.111075 0.942822 0.314243
vn 0.130673 0.950406 0.282229
vn 0.130673 0.950406 0.282229
vn 0.130673 0.950406 0.282229
vn 0.158654 0.977971 0.135654
vn 0.158654 0.977971 0.135654
vn 0.158654 0.977971 0.135654
vn 0.144889 0.986400 0.077607
vn 0.144889 0.986400 0.077607
vn 0.144889 0.986400 0.077607
vn 0.158031 0.983070 0.092733
vn 0.158031 0.983070 0.092733
vn 0.158031 0.983070 0.092733
vn 0.131661 0.988159 0.078783
vn 0.131661 0.988159 0.078783
vn 0.131661 0.988159 0.078783
vn 0.059401 0.996251 0.062888
vn 0.059401 0.996251 0.062888
vn 0.059401 0.996251 0.062888
vn -0.059401 0.996251 0.062888
vn -0.059401 0.996251 0.062888
vn -0.059401 0.996251 0.062888
vn -0.131661 0.988159 0.078783
vn -0.131661 0.988159 0.078783
vn -0.131661 0.988159 0.078783
vn -0.158031 0.983070 0.092733
vn -0.158031 0.983070 0.092733
vn -0.158031 0.983070 0.092733
vn -0.144889 0.986400 0.077607
vn -0.144889 0.986400 0.077607
vn -0.144889 0.986400 0.077607
vn -0.158654 0.977971 0.135654
vn -0.158654 0.977971 0.135654
vn -0.158654 0.977971 0.135654
vn -0.130673 0.950406 0.282229
vn -0.130673 0.950406 0.282229
vn -0.130673 0.950406 0.282229
vn -0.111075 0.942822 0.314243
vn -0.111075 0.942822 0.314243
vn -0.111075 0.942822 0.314243
vn -0.061975 0.933086 0.354273
vn -0.061975 0.933086 0.354273
vn -0.061975 0.933086 0.354273
vn 0.011026 0.923144 0.384296
vn 0.011026 0.923144 0.384296
vn 0.011026 0.923144 0.384296
vn 0.088565 0.913860 0.396253
vn 0.088565 0.913860 0.396253
vn 0.088565 0.913860 0.396253
vn -0.088567 0.913860 0.396253
vn -0.088567 0.913860 0.396253
vn -0.088567 0.913860 0.396253
vn -0.817126 0.325404 0.475833
vn -0.817126 0.325404 0.475833
vn -0.817126 0.325404 0.475833
vn -0.817126 0.325404 0.475833
vn -0.914375 0.341544 0.217409
vn -0.914375 0.341544 0.217409
vn -0.914375 0.341544 0.217409
vn -0.914375 0.341544 0.217409
vn -0.932943 0.357570 -0.041961
vn -0.932943 0.357570 -0.041961
vn -0.932943 0.357570 -0.041961
vn -0.932943 0.357570 -0.041961
vn -0.873557 0.339418 -0.348845
vn -0.873557 0.339418 -0.348845
vn -0.873557 0.339418 -0.348845
vn -0.873557 0.339418 -0.348845
vn -0.824650 0.276948 -0.493205
vn -0.824650 0.276948 -0.493205
vn -0.824650 0.276948 -0.493205
vn -0.824650 0.276948 -0.493205
vn -0.665270 0.179416 -0.724724
vn -0.665270 0.179416 -0.724724
vn -0.665270 0.179416 -0.724724
vn -0.665270 0.179416 -0.724724
vn -0.263523 0.103935 -0.959038
vn -0.263523 0.103935 -0.959038
vn -0.263523 0.103935 -0.959038
vn -0.263523 0.103935 -0.959038
vn 0.263523 0.103935 -0.959038
vn 0.263523 0.103935 -0.959038
vn 0.263523 0.103935 -0.959038
vn 0.263523 0.103935 -0.959038
vn 0.665270 0.179416 -0.724725
vn 0.665270 0.179416 -0.724725
vn 0.665270 0.179416 -0.724725
vn 0.665270 0.179416 -0.724725
vn 0.824650 0.276948 -0.493206
vn 0.824650 0.276948 -0.493206
vn 0.824650 0.276948 -0.493206
vn 0.824650 0.276948 -0.493206
vn 0.873557 0.339419 -0.348845
vn 0.873557 0.339419 -0.348845
vn 0.873557 0.339419 -0.348845
vn 0.873557 0.339419 -0.348845
vn 0.932943 0.357570 -0.041961
vn 0.932943 0.357570 -0.041961
vn 0.932943 0.357570 -0.041961
vn 0.932943 0.357570 -0.041961
vn 0.914375 0.341544 0.217408
vn 0.914375 0.341544 0.217408
vn 0.914375 0.341544 0.217408
vn 0.914375 0.341544 0.217408
vn 0.817127 0.325404 0.475832
vn 0.817127 0.325404 0.475832
vn 0.817127 0.325404 0.475832
vn 0.817127 0.325404 0.475832
vn 0.652165 0.309836 0.691869
vn 0.652165 0.309836 0.691869
vn 0.652165 0.309836 0.691869
vn 0.652165 0.309835 0.691869
vn 0.450066 0.347232 0.822721
vn 0.450066 0.347232 0.822721
vn 0.450066 0.347232 0.822721
vn 0.450066 0.347232 0.822721
vn 0.180834 0.439705 0.879749
vn 0.180834 0.439705 0.879749
vn 0.180834 0.439705 0.879749
vn 0.180834 0.439705 0.879749
vn -0.180838 0.439704 0.879749
vn -0.180838 0.439704 0.879749
vn -0.180838 0.439704 0.879749
vn -0.180838 0.439704 0.879749
vn -0.450066 0.347232 0.822722
vn -0.450066 0.347232 0.822722
vn -0.450066 0.347232 0.822722
vn -0.450066 0.347232 0.822722
vn -0.652165 0.309835 0.691869
vn -0.652165 0.309835 0.691869
vn -0.652165 0.309835 0.691869
vn -0.652165 0.309835 0.691869
vn 0.844634 0.267091 0.463956
vn 0.844634 0.267091 0.463956
vn 0.844634 0.267091 0.463956
vn 0.844634 0.267091 0.463956
vn 0.684254 0.230395 0.691892
vn 0.684254 0.230395 0.691892
vn 0.684254 0.230395 0.691892
vn 0.684254 0.230395 0.691892
vn 0.431468 0.233278 0.871445
vn 0.431467 0.233278 0.871446
vn 0.431468 0.233278 0.871445
vn 0.431467 0.233278 0.871446
vn 0.089257 0.281902 0.955282
vn 0.089257 0.281902 0.955282
vn 0.089257 0.281902 0.955282
vn 0.089257 0.281902 0.955282
vn -0.089261 0.281902 0.955282
vn -0.089261 0.281902 0.955282
vn -0.089261 0.281902 0.955282
vn -0.089261 0.281902 0.955282
vn -0.431467 0.233278 0.871446
vn -0.431467 0.233278 0.871446
vn -0.431467 0.233278 0.871446
vn -0.431467 0.233278 0.871446
vn -0.684254 0.230394 0.691892
vn -0.684254 0.230394 0.691892
vn -0.684254 0.230394 0.691892
vn -0.684254 0.230394 0.691892
vn -0.844634 0.267091 0.463956
vn -0.844634 0.267091 0.463956
vn -0.844634 0.267091 0.463956
vn -0.844634 0.267091 0.463956
vn -0.920900 0.331067 0.205763
vn -0.920900 0.331067 0.205763
vn -0.920900 0.331067 0.205763
vn -0.920900 0.331067 0.205763
vn -0.910337 0.403859 -0.090464
vn -0.910337 0.403859 -0.090464
vn -0.910337 0.403859 -0.090464
vn -0.910337 0.403859 -0.090464
vn -0.873982 0.372072 -0.312599
vn -0.873982 0.372072 -0.312599
vn -0.873982 0.372072 -0.312599
vn -0.873982 0.372072 -0.312599
vn -0.832795 0.310148 -0.458541
vn -0.832795 0.310148 -0.458541
vn -0.832795 0.310148 -0.458541
vn -0.832795 0.310148 -0.458541
vn -0.651357 0.276840 -0.706466
vn -0.651356 0.276840 -0.706466
vn -0.651356 0.276840 -0.706466
vn -0.651357 0.276840 -0.706466
vn -0.271280 0.253148 -0.928614
vn -0.271280 0.253148 -0.928614
vn -0.271280 0.253148 -0.928614
vn -0.271280 0.253148 -0.928614
vn 0.271280 0.253147 -0.928614
vn 0.271280 0.253147 -0.928614
vn 0.271280 0.253147 -0.928614
vn 0.271280 0.253147 -0.928614
vn 0.651356 0.276840 -0.706466
vn 0.651356 0.276840 -0.706466
vn 0.651356 0.276840 -0.706466
vn 0.651356 0.276840 -0.706466
vn 0.832795 0.310148 -0.458542
vn 0.832795 0.310148 -0.458542
vn 0.832795 0.310148 -0.458542
vn 0.832795 0.310148 -0.458542
vn 0.873982 0.372072 -0.312600
vn 0.873982 0.372072 -0.312600
vn 0.873982 0.372072 -0.312599
vn 0.873982 0.372072 -0.312600
vn 0.910337 0.403859 -0.090464
vn 0.910337 0.403859 -0.090464
vn 0.910337 0.403859 -0.090464
vn 0.910337 0.403859 -0.090464
vn 0.920900 0.331067 0.205763
vn 0.920900 0.331067 0.205763
vn 0.920900 0.331067 0.205763
vn 0.920900 0.331067 0.205763
s off
usemtl toilet_base_2_initialShadingGroup
f 1/1/1 2/2/2 58/3/3 59/4/4
f 2/2/5 3/5/6 57/6/7 58/3/8
f 3/5/9 4/7/10 56/8/11 57/6/12
f 4/7/13 5/9/14 55/10/15 56/8/16
f 5/9/17 6/11/18 54/12/19 55/10/20
f 6/11/21 7/13/22 53/14/23 54/12/24
f 7/13/25 8/15/26 52/16/27 53/14/28
f 8/15/29 9/17/30 51/18/31 52/16/32
f 9/17/33 10/19/34 50/20/35 51/18/36
f 10/19/37 11/21/38 49/22/39 50/20/40
f 11/21/41 12/23/42 48/24/43 49/22/44
f 12/23/45 13/25/46 47/26/47 48/24/48
f 13/25/49 14/27/50 46/28/51 47/26/52
f 14/27/53 15/29/54 45/30/55 46/28/56
f 15/29/57 16/31/58 44/32/59 45/30/60
f 16/31/61 17/33/62 43/34/63 44/32/64
f 17/33/65 18/35/66 62/36/67 43/34/68
f 18/35/69 19/37/70 61/38/71 62/36/72
f 19/37/73 20/39/74 60/40/75 61/38/76
f 20/39/77 1/41/78 59/42/79 60/40/80
f 2/43/81 1/44/82 41/45/83
f 3/46/84 2/43/85 41/45/86
f 4/47/87 3/46/88 41/45/89
f 5/48/90 4/47/91 41/45/92
f 6/49/93 5/48/94 41/45/95
f 7/50/96 6/49/97 41/45/98
f 8/51/99 7/50/100 41/45/101
f 9/52/102 8/51/103 41/45/104
f 10/53/105 9/52/106 41/45/107
f 11/54/108 10/53/109 41/45/110
f 12/55/111 11/54/112 41/45/113
f 13/56/114 12/55/115 41/45/116
f 14/57/117 13/56/118 41/45/119
f 15/58/120 14/57/121 41/45/122
f 16/59/123 15/58/124 41/45/125
f 17/60/126 16/59/127 41/45/128
f 18/61/129 17/60/130 41/45/131
f 19/62/132 18/61/133 41/45/134
f 20/63/135 19/62/136 41/45/137
f 1/44/138 20/63/139 41/45/140
f 21/64/141 22/65/142 42/66/143
f 22/65/144 23/67/145 42/66/146
f 23/67/147 24/68/148 42/66/149
f 24/68/150 25/69/151 42/66/152
f 25/69/153 26/70/154 42/66/155
f 26/70/156 27/71/157 42/66/158
f 27/71/159 28/72/160 42/66/161
f 28/72/162 29/73/163 42/66/164
f 29/73/165 30/74/166 42/66/167
f 30/74/168 31/75/169 42/66/170
f 31/75/171 32/76/172 42/66/173
f 32/76/174 33/77/175 42/66/176
f 33/77/177 34/78/178 42/66/179
f 34/78/180 35/79/181 42/66/182
f 35/79/183 36/80/184 42/66/185
f 36/80/186 37/81/187 42/66/188
f 37/81/189 38/82/190 42/66/191
f 38/82/192 39/83/193 42/66/194
f 39/83/195 40/84/196 42/66/197
f 40/84/198 21/64/199 42/66/200
f 44/32/201 43/34/202 70/85/203 71/86/204
f 45/30/205 44/32/206 71/86/207 72/87/208
f 46/28/209 45/30/210 72/87/211 73/88/212
f 47/26/213 46/28/214 73/88/215 74/89/216
f 48/24/217 47/26/218 74/89/219 75/90/220
f 49/22/221 48/24/222 75/90/223 76/91/224
f 50/20/225 49/22/226 76/91/227 77/92/228
f 51/18/229 50/20/230 77/92/231 78/93/232
f 52/16/233 51/18/234 78/93/235 79/94/236
f 53/14/237 52/16/238 79/94/239 80/95/240
f 54/12/241 53/14/242 80/95/243 81/96/244
f 55/10/245 54/12/246 81/96/247 82/97/248
f 56/8/249 55/10/250 82/97/251 63/98/252
f 57/6/253 56/8/254 63/98/255 64/99/256
f 58/3/257 57/6/258 64/99/259 65/100/260
f 59/4/261 58/3/262 65/100/263 66/101/264
f 60/40/265 59/42/266 66/102/267 67/103/268
f 61/38/269 60/40/270 67/103/271 68/104/272
f 62/36/273 61/38/274 68/104/275 69/105/276
f 43/34/277 62/36/278 69/105/279 70/85/280
f 64/99/281 63/98/282 24/106/283 23/107/284
f 65/100/285 64/99/286 23/107/287 22/108/288
f 66/101/289 65/100/290 22/108/291 21/109/292
f 67/103/293 66/102/294 21/110/295 40/111/296
f 68/104/297 67/103/298 40/111/299 39/112/300
f 69/105/301 68/104/302 39/112/303 38/113/304
f 70/85/305 69/105/306 38/113/307 37/114/308
f 71/86/309 70/85/310 37/114/311 36/115/312
f 72/87/313 71/86/314 36/115/315 35/116/316
f 73/88/317 72/87/318 35/116/319 34/117/320
f 74/89/321 73/88/322 34/117/323 33/118/324
f 75/90/325 74/89/326 33/118/327 32/119/328
f 76/91/329 75/90/330 32/119/331 31/120/332
f 77/92/333 76/91/334 31/120/335 30/121/336
f 78/93/337 77/92/338 30/121/339 29/122/340
f 79/94/341 78/93/342 29/122/343 28/123/344
f 80/95/345 79/94/346 28/123/347 27/124/348
f 81/96/349 80/95/350 27/124/351 26/125/352
f 82/97/353 81/96/354 26/125/355 25/126/356
f 63/98/357 82/97/358 25/126/359 24/106/360
