# This file uses centimeters as units for non-parametric coordinates.

v 0.000000 4.856601 -0.451254
v 0.000000 6.769497 -0.320654
v -0.395539 6.675872 -0.320654
v -0.759116 6.404165 -0.320654
v -1.072709 5.980972 -0.320654
v -1.328902 5.447718 -0.320654
v -1.506944 4.856601 -0.320654
v -1.558484 4.265484 -0.320654
v -1.428566 3.732230 -0.320654
v -1.096359 3.309036 -0.320654
v -0.595117 3.037330 -0.320654
v 0.000000 2.943706 -0.320654
v 0.595118 3.037329 -0.320654
v 1.096360 3.309036 -0.320654
v 1.428567 3.732229 -0.320654
v 1.558486 4.265484 -0.320654
v 1.506945 4.856601 -0.320654
v 1.328903 5.447719 -0.320654
v 1.072709 5.980974 -0.320654
v 0.759117 6.404166 -0.320654
v 0.395540 6.675873 -0.320654
v 0.000000 7.914897 -0.018465
v -0.630435 7.765213 -0.018465
v -1.208658 7.330814 -0.018465
v -1.707018 6.654223 -0.018465
v -2.116747 5.801666 -0.018465
v -2.406370 4.856601 -0.018465
v -2.496261 3.911536 -0.018465
v -2.293911 3.058979 -0.018465
v -1.763152 2.382387 -0.018465
v -0.957709 1.947989 -0.018465
v 0.000000 1.798305 -0.018465
v 0.957710 1.947988 -0.018465
v 1.763153 2.382387 -0.018465
v 2.293911 3.058979 -0.018465
v 2.496262 3.911535 -0.018465
v 2.406370 4.856601 -0.018465
v 2.116747 5.801667 -0.018465
v 1.707019 6.654224 -0.018465
v 1.208659 7.330815 -0.018465
v 0.630436 7.765215 -0.018465
v 0.000000 8.478862 0.353796
v -0.740936 8.301576 0.353796
v -1.412497 7.787073 0.353796
v -1.986495 6.985713 0.353796
v -2.469564 5.975941 0.353796
v -2.835173 4.856601 0.353796
v -2.977490 3.737261 0.353796
v -2.762566 2.727489 0.353796
v -2.134248 1.926130 0.353796
v -1.161299 1.411625 0.353796
v 0.000000 1.234339 0.353796
v 1.161299 1.411625 0.353796
v 2.134248 1.926130 0.353796
v 2.762566 2.727489 0.353796
v 2.977490 3.737261 0.353796
v 2.835174 4.856601 0.353796
v 2.469565 5.975942 0.353796
v 1.986496 6.985714 0.353796
v 1.412498 7.787074 0.353796
v 0.740936 8.301579 0.353796
v 0.000000 9.186227 0.353796
v -0.885627 8.974320 0.353796
v -1.684564 8.359342 0.353796
v -2.318603 7.401491 0.353796
v -2.803345 6.194529 0.353796
v -3.218588 4.856601 0.353796
v -3.434147 3.518673 0.353796
v -3.224411 2.311711 0.353796
v -2.493813 1.353860 0.353796
v -1.375849 0.738882 0.353796
v 0.000000 0.526975 0.353796
v 1.375849 0.738882 0.353796
v 2.493813 1.353860 0.353796
v 3.224412 2.311710 0.353796
v 3.434149 3.518673 0.353796
v 3.218589 4.856601 0.353796
v 2.803346 6.194529 0.353796
v 2.318604 7.401492 0.353796
v 1.684564 8.359344 0.353796
v 0.885628 8.974322 0.353796
v 0.000000 9.417281 0.195589
v -0.935207 9.194066 0.195589
v -1.784709 8.546269 0.195589
v -2.477796 7.537301 0.195589
v -3.012036 6.265929 0.195589
v -3.422714 4.856601 0.195589
v -3.590888 3.447273 0.195589
v -3.332528 2.175901 0.195589
v -2.567993 1.166933 0.195589
v -1.409172 0.519136 0.195589
v 0.000000 0.295920 0.195589
v 1.409172 0.519136 0.195589
v 2.567993 1.166933 0.195589
v 3.332528 2.175900 0.195589
v 3.590890 3.447273 0.195589
v 3.422715 4.856601 0.195589
v 3.012036 6.265930 0.195589
v 2.477797 7.537303 0.195589
v 1.784710 8.546271 0.195589
v 0.935208 9.194068 0.195589
v 0.000000 6.163162 -0.972980
v -0.267659 6.099213 -0.972980
v -0.510456 5.913630 -0.972980
v -0.707339 5.624578 -0.972980
v -0.858673 5.260350 -0.972980
v -0.978317 4.856601 -0.972980
v -1.030626 4.452852 -0.972980
v -0.959324 4.088624 -0.972980
v -0.739788 3.799571 -0.972980
v -0.406649 3.613988 -0.972980
v 0.000000 3.550040 -0.972980
v 0.406650 3.613988 -0.972980
v 0.739788 3.799571 -0.972980
v 0.959325 4.088624 -0.972980
v 1.030627 4.452852 -0.972980
v 0.978318 4.856601 -0.972980
v 0.858674 5.260350 -0.972980
v 0.707340 5.624578 -0.972980
v 0.510457 5.913631 -0.972980
v 0.267660 6.099214 -0.972980
v 0.000000 4.856601 -1.050798
v 3.076425 2.385828 -0.264009
v 3.311686 3.557639 -0.264009
v 3.152320 4.856601 -0.264009
v 2.771698 6.155564 -0.264009
v 2.281108 7.327375 -0.264009
v 1.644068 8.257329 -0.264009
v 0.861694 8.854398 -0.264009
v 0.000000 9.060131 -0.264009
v -0.861693 8.854394 -0.264009
v -1.644067 8.257327 -0.264009
v -2.281107 7.327373 -0.264009
v -2.771698 6.155563 -0.264009
v -3.152319 4.856601 -0.264009
v -3.311685 3.557639 -0.264009
v -3.076425 2.385828 -0.264009
v -2.371222 1.455874 -0.264009
v -1.301929 0.858807 -0.264009
v 0.000000 0.653071 -0.264009
v 1.301929 0.858807 -0.264009
v 2.371223 1.455874 -0.264009
v 2.153098 4.012438 -0.759770
v 2.047532 4.856601 -0.759770
v 1.799213 5.700764 -0.759770
v 1.481221 6.462294 -0.759770
v 1.068035 7.066648 -0.759770
v 0.559866 7.454667 -0.759770
v 0.000000 7.588368 -0.759770
v -0.559866 7.454665 -0.759770
v -1.068034 7.066647 -0.759770
v -1.481220 6.462293 -0.759770
v -1.799212 5.700764 -0.759770
v -2.047531 4.856601 -0.759770
v -2.153097 4.012439 -0.759770
v -2.001520 3.250909 -0.759770
v -1.542980 2.646555 -0.759770
v -0.847515 2.258536 -0.759770
v 0.000000 2.124833 -0.759770
v 0.847515 2.258536 -0.759770
v 1.542981 2.646555 -0.759770
v 2.001521 3.250908 -0.759770
vt 0.802275 0.250842
vt 0.719842 0.230233
vt 0.728085 0.230233
vt 0.736328 0.230233
vt 0.744572 0.230233
vt 0.752815 0.230233
vt 0.761058 0.230233
vt 0.769302 0.230233
vt 0.777545 0.230233
vt 0.785788 0.230233
vt 0.794032 0.230233
vt 0.802275 0.230233
vt 0.810518 0.230233
vt 0.818762 0.230233
vt 0.827005 0.230233
vt 0.835248 0.230233
vt 0.843492 0.230233
vt 0.851735 0.230233
vt 0.859978 0.230233
vt 0.868222 0.230233
vt 0.876465 0.230233
vt 0.884709 0.230233
vt 0.719842 0.209625
vt 0.728085 0.209625
vt 0.736328 0.209625
vt 0.744572 0.209625
vt 0.752815 0.209625
vt 0.761058 0.209625
vt 0.769302 0.209625
vt 0.777545 0.209625
vt 0.785788 0.209625
vt 0.794032 0.209625
vt 0.802275 0.209625
vt 0.810518 0.209625
vt 0.818762 0.209625
vt 0.827005 0.209625
vt 0.835248 0.209625
vt 0.843492 0.209625
vt 0.851735 0.209625
vt 0.859978 0.209625
vt 0.868222 0.209625
vt 0.876465 0.209625
vt 0.884709 0.209625
vt 0.719842 0.189017
vt 0.728085 0.189017
vt 0.736328 0.189017
vt 0.744572 0.189017
vt 0.752815 0.189017
vt 0.761058 0.189017
vt 0.769302 0.189017
vt 0.777545 0.189017
vt 0.785788 0.189017
vt 0.794032 0.189017
vt 0.802275 0.189017
vt 0.810518 0.189017
vt 0.818762 0.189017
vt 0.827005 0.189017
vt 0.835248 0.189017
vt 0.843492 0.189017
vt 0.851735 0.189017
vt 0.859978 0.189017
vt 0.868222 0.189017
vt 0.876465 0.189017
vt 0.884709 0.189017
vt 0.719842 0.168408
vt 0.728085 0.168408
vt 0.736328 0.168408
vt 0.744572 0.168408
vt 0.752815 0.168408
vt 0.761058 0.168408
vt 0.769302 0.168408
vt 0.777545 0.168408
vt 0.785788 0.168408
vt 0.794032 0.168408
vt 0.802275 0.168408
vt 0.810518 0.168408
vt 0.818762 0.168408
vt 0.827005 0.168408
vt 0.835248 0.168408
vt 0.843492 0.168408
vt 0.851735 0.168408
vt 0.859978 0.168408
vt 0.868222 0.168408
vt 0.876465 0.168408
vt 0.884709 0.168408
vt 0.719842 0.147800
vt 0.728085 0.147800
vt 0.736328 0.147800
vt 0.744572 0.147800
vt 0.752815 0.147800
vt 0.761058 0.147800
vt 0.769302 0.147800
vt 0.777545 0.147800
vt 0.785788 0.147800
vt 0.794032 0.147800
vt 0.802275 0.147800
vt 0.810518 0.147800
vt 0.818762 0.147800
vt 0.827005 0.147800
vt 0.835248 0.147800
vt 0.843492 0.147800
vt 0.851735 0.147800
vt 0.859978 0.147800
vt 0.868222 0.147800
vt 0.876465 0.147800
vt 0.884709 0.147800
vt 0.719842 0.138552
vt 0.728085 0.138552
vt 0.736328 0.138552
vt 0.744572 0.138552
vt 0.752815 0.138552
vt 0.761058 0.138552
vt 0.769302 0.138552
vt 0.777545 0.138552
vt 0.785788 0.138552
vt 0.794032 0.138552
vt 0.802275 0.138552
vt 0.810518 0.138552
vt 0.818762 0.138552
vt 0.827005 0.138552
vt 0.835248 0.138552
vt 0.843492 0.138552
vt 0.851735 0.138552
vt 0.859978 0.138552
vt 0.868222 0.138552
vt 0.876465 0.138552
vt 0.884709 0.138552
vt 0.728085 0.127192
vt 0.719842 0.127192
vt 0.802275 0.106583
vt 0.736328 0.127192
vt 0.744572 0.127192
vt 0.752815 0.127192
vt 0.761058 0.127192
vt 0.769302 0.127192
vt 0.777545 0.127192
vt 0.785788 0.127192
vt 0.794032 0.127192
vt 0.802275 0.127192
vt 0.810518 0.127192
vt 0.818762 0.127192
vt 0.827005 0.127192
vt 0.835248 0.127192
vt 0.843492 0.127192
vt 0.851735 0.127192
vt 0.859978 0.127192
vt 0.868222 0.127192
vt 0.876465 0.127192
vt 0.884709 0.127192
vt 0.827005 0.131414
vt 0.835248 0.131414
vt 0.843492 0.131414
vt 0.851735 0.131414
vt 0.859978 0.131414
vt 0.868222 0.131414
vt 0.876465 0.131414
vt 0.884709 0.131414
vt 0.719842 0.131414
vt 0.728085 0.131414
vt 0.736328 0.131414
vt 0.744572 0.131414
vt 0.752815 0.131414
vt 0.761058 0.131414
vt 0.769302 0.131414
vt 0.777545 0.131414
vt 0.785788 0.131414
vt 0.794032 0.131414
vt 0.802275 0.131414
vt 0.810518 0.131414
vt 0.818762 0.131414
vn 0.016121 -0.068106 0.997548
vn 0.016121 -0.068106 0.997548
vn 0.016121 -0.068106 0.997548
vn 0.046013 -0.061570 0.997042
vn 0.068276 -0.050594 0.996383
vn 0.080647 -0.038746 0.995989
vn 0.086312 -0.025997 0.995929
vn 0.086339 -0.007528 0.996237
vn 0.076472 0.018631 0.996898
vn 0.056362 0.044244 0.997430
vn 0.032973 0.060829 0.997603
vn 0.010715 0.068111 0.997620
vn -0.010715 0.068111 0.997620
vn -0.032973 0.060829 0.997603
vn -0.056362 0.044244 0.997430
vn -0.076472 0.018631 0.996898
vn -0.086339 -0.007528 0.996237
vn -0.086312 -0.025997 0.995929
vn -0.080647 -0.038746 0.995989
vn -0.068276 -0.050594 0.996383
vn -0.046013 -0.061570 0.997042
vn 0.060394 -0.254671 0.965140
vn 0.060394 -0.254671 0.965140
vn 0.171670 -0.228971 0.958176
vn 0.253263 -0.186980 0.949156
vn 0.297766 -0.143085 0.943855
vn 0.317600 -0.096688 0.943282
vn 0.317435 -0.029225 0.947830
vn 0.282212 0.067665 0.956963
vn 0.209023 0.164013 0.964059
vn 0.122669 0.227005 0.966137
vn 0.039927 0.254818 0.966164
vn -0.039927 0.254818 0.966164
vn -0.122669 0.227005 0.966137
vn -0.209023 0.164013 0.964059
vn -0.282212 0.067665 0.956963
vn -0.317435 -0.029225 0.947830
vn -0.317600 -0.096688 0.943282
vn -0.297766 -0.143085 0.943855
vn -0.253264 -0.186980 0.949155
vn -0.171669 -0.228971 0.958176
vn 0.130326 -0.546613 0.827182
vn 0.130326 -0.546613 0.827182
vn 0.365656 -0.481599 0.796466
vn 0.531949 -0.385967 0.753698
vn 0.618953 -0.296725 0.727222
vn 0.650339 -0.206414 0.731063
vn 0.639790 -0.071965 0.765173
vn 0.568926 0.127474 0.812449
vn 0.428448 0.336009 0.838767
vn 0.256418 0.480567 0.838633
vn 0.084500 0.547627 0.832445
vn -0.084500 0.547627 0.832445
vn -0.256418 0.480567 0.838633
vn -0.428448 0.336009 0.838767
vn -0.568926 0.127474 0.812449
vn -0.639790 -0.071965 0.765173
vn -0.650339 -0.206414 0.731062
vn -0.618952 -0.296725 0.727223
vn -0.531949 -0.385967 0.753698
vn -0.365657 -0.481599 0.796466
vn 0.000000 0.000000 1.000000
vn 0.000000 0.000000 1.000000
vn 0.000000 0.000000 1.000000
vn 0.000000 0.000000 1.000000
vn 0.000000 0.000000 1.000000
vn 0.000000 0.000000 1.000000
vn 0.000000 0.000000 1.000000
vn 0.000000 0.000000 1.000000
vn 0.000000 0.000000 1.000000
vn 0.000000 0.000000 1.000000
vn 0.000000 0.000000 1.000000
vn 0.000000 0.000000 1.000000
vn 0.000000 0.000000 1.000000
vn 0.000000 0.000000 1.000000
vn 0.000000 0.000000 1.000000
vn 0.000000 0.000000 1.000000
vn 0.000000 0.000000 1.000000
vn 0.000000 0.000000 1.000000
vn 0.000000 0.000000 1.000000
vn 0.000000 0.000000 1.000000
vn 0.000000 0.000000 1.000000
vn 0.000000 0.000000 1.000000
vn 0.000000 0.000000 1.000000
vn 0.000000 0.000000 1.000000
vn 0.000000 0.000000 1.000000
vn 0.000000 0.000000 1.000000
vn 0.000000 0.000000 1.000000
vn 0.000000 0.000000 1.000000
vn 0.000000 0.000000 1.000000
vn 0.000000 0.000000 1.000000
vn 0.000000 0.000000 1.000000
vn 0.000000 0.000000 1.000000
vn 0.000000 0.000000 1.000000
vn 0.000000 0.000000 1.000000
vn 0.000000 0.000000 1.000000
vn 0.000000 0.000000 1.000000
vn 0.000000 0.000000 1.000000
vn 0.000000 0.000000 1.000000
vn 0.000000 0.000000 1.000000
vn 0.000000 0.000000 1.000000
vn -0.133691 0.559452 0.818010
vn -0.133691 0.559452 0.818010
vn -0.133691 0.559452 0.818010
vn -0.133691 0.559452 0.818010
vn -0.369337 0.482137 0.794439
vn -0.369337 0.482137 0.794439
vn -0.517855 0.349426 0.780851
vn -0.517855 0.349426 0.780851
vn -0.557327 0.229148 0.798046
vn -0.557327 0.229148 0.798046
vn -0.579851 0.174324 0.795854
vn -0.579851 0.174324 0.795854
vn -0.666766 0.093133 0.739425
vn -0.666766 0.093133 0.739425
vn -0.714519 -0.134955 0.686476
vn -0.714520 -0.134955 0.686476
vn -0.541973 -0.411997 0.732478
vn -0.541973 -0.411997 0.732478
vn -0.297340 -0.536104 0.790052
vn -0.297340 -0.536104 0.790052
vn -0.088717 -0.567835 0.818347
vn -0.088717 -0.567835 0.818347
vn 0.088717 -0.567835 0.818348
vn 0.088717 -0.567835 0.818347
vn 0.297340 -0.536104 0.790052
vn 0.297340 -0.536104 0.790052
vn 0.541973 -0.411997 0.732478
vn 0.541973 -0.411997 0.732478
vn 0.714520 -0.134956 0.686475
vn 0.714520 -0.134956 0.686476
vn 0.666765 0.093133 0.739426
vn 0.666765 0.093133 0.739426
vn 0.579852 0.174324 0.795853
vn 0.579852 0.174324 0.795853
vn 0.557327 0.229148 0.798046
vn 0.557327 0.229148 0.798046
vn 0.517854 0.349426 0.780851
vn 0.517854 0.349426 0.780851
vn 0.369338 0.482137 0.794439
vn 0.369338 0.482137 0.794439
vn -0.185227 0.775921 -0.603023
vn -0.185227 0.775921 -0.603023
vn -0.185227 0.775921 -0.603023
vn -0.185227 0.775921 -0.603023
vn -0.500368 0.655926 -0.565148
vn -0.500368 0.655926 -0.565148
vn -0.704089 0.483015 -0.520534
vn -0.704089 0.483015 -0.520534
vn -0.800039 0.335588 -0.497311
vn -0.800039 0.335588 -0.497311
vn -0.834985 0.243963 -0.493236
vn -0.834985 0.243963 -0.493236
vn -0.859082 0.103897 -0.501182
vn -0.859082 0.103897 -0.501182
vn -0.825651 -0.166814 -0.538956
vn -0.825651 -0.166814 -0.538956
vn -0.646582 -0.490121 -0.584562
vn -0.646582 -0.490121 -0.584562
vn -0.388637 -0.695599 -0.604238
vn -0.388637 -0.695599 -0.604238
vn -0.124002 -0.783731 -0.608597
vn -0.124002 -0.783731 -0.608597
vn 0.124002 -0.783731 -0.608597
vn 0.124002 -0.783731 -0.608597
vn 0.388636 -0.695599 -0.604238
vn 0.388636 -0.695599 -0.604238
vn 0.646582 -0.490121 -0.584562
vn 0.646582 -0.490121 -0.584562
vn 0.825650 -0.166815 -0.538957
vn 0.825650 -0.166815 -0.538957
vn 0.859082 0.103897 -0.501182
vn 0.859082 0.103897 -0.501182
vn 0.834985 0.243963 -0.493236
vn 0.834985 0.243963 -0.493236
vn 0.800039 0.335588 -0.497311
vn 0.800039 0.335588 -0.497311
vn 0.704088 0.483015 -0.520535
vn 0.704088 0.483015 -0.520535
vn 0.500370 0.655926 -0.565147
vn 0.500370 0.655926 -0.565147
vn -0.014203 0.059448 -0.998130
vn -0.014203 0.059448 -0.998130
vn -0.014203 0.059448 -0.998130
vn -0.041007 0.053649 -0.997717
vn -0.063060 0.042952 -0.997085
vn -0.075560 0.031395 -0.996647
vn -0.079271 0.023491 -0.996576
vn -0.079288 0.010272 -0.996799
vn -0.069949 -0.013694 -0.997457
vn -0.050345 -0.038237 -0.998000
vn -0.029453 -0.052871 -0.998167
vn -0.009349 -0.059452 -0.998187
vn 0.009349 -0.059452 -0.998187
vn 0.029453 -0.052871 -0.998167
vn 0.050345 -0.038237 -0.998000
vn 0.069949 -0.013694 -0.997457
vn 0.079288 0.010272 -0.996799
vn 0.079271 0.023491 -0.996576
vn 0.075560 0.031395 -0.996647
vn 0.063061 0.042952 -0.997085
vn 0.041007 0.053649 -0.997717
vn 0.367978 -0.073628 -0.926915
vn 0.367978 -0.073628 -0.926915
vn 0.367978 -0.073628 -0.926915
vn 0.367978 -0.073628 -0.926915
vn 0.409256 0.050592 -0.911016
vn 0.409256 0.050592 -0.911016
vn 0.406308 0.119239 -0.905923
vn 0.406308 0.119239 -0.905923
vn 0.387187 0.161934 -0.907669
vn 0.387187 0.161934 -0.907669
vn 0.327087 0.223889 -0.918089
vn 0.327087 0.223889 -0.918089
vn 0.216801 0.284026 -0.933984
vn 0.216801 0.284026 -0.933984
vn 0.076002 0.318297 -0.944939
vn 0.076002 0.318297 -0.944939
vn -0.076003 0.318297 -0.944939
vn -0.076003 0.318297 -0.944939
vn -0.216800 0.284027 -0.933984
vn -0.216800 0.284027 -0.933984
vn -0.327086 0.223889 -0.918090
vn -0.327086 0.223889 -0.918090
vn -0.387187 0.161934 -0.907669
vn -0.387187 0.161934 -0.907669
vn -0.406308 0.119239 -0.905923
vn -0.406308 0.119239 -0.905923
vn -0.409256 0.050592 -0.911016
vn -0.409256 0.050592 -0.911016
vn -0.367978 -0.073628 -0.926915
vn -0.367978 -0.073628 -0.926915
vn -0.269490 -0.204403 -0.941060
vn -0.269490 -0.204403 -0.941060
vn -0.158317 -0.283620 -0.945778
vn -0.158317 -0.283620 -0.945778
vn -0.050352 -0.318846 -0.946468
vn -0.050352 -0.318846 -0.946468
vn 0.050352 -0.318846 -0.946468
vn 0.050352 -0.318846 -0.946468
vn 0.158317 -0.283621 -0.945777
vn 0.158317 -0.283621 -0.945777
g toilet_lid_Mesh
f 1/1/1 2/2/2 3/3/3
f 1/1/1 3/3/3 4/4/4
f 1/1/1 4/4/4 5/5/5
f 1/1/1 5/5/5 6/6/6
f 1/1/1 6/6/6 7/7/7
f 1/1/1 7/7/7 8/8/8
f 1/1/1 8/8/8 9/9/9
f 1/1/1 9/9/9 10/10/10
f 1/1/1 10/10/10 11/11/11
f 1/1/1 11/11/11 12/12/12
f 1/1/1 12/12/12 13/13/13
f 1/1/1 13/13/13 14/14/14
f 1/1/1 14/14/14 15/15/15
f 1/1/1 15/15/15 16/16/16
f 1/1/1 16/16/16 17/17/17
f 1/1/1 17/17/17 18/18/18
f 1/1/1 18/18/18 19/19/19
f 1/1/1 19/19/19 20/20/20
f 1/1/1 20/20/20 21/21/21
f 1/1/1 21/21/21 2/22/2
f 3/3/3 2/2/2 22/23/22 23/24/23
f 4/4/4 3/3/3 23/24/23 24/25/24
f 5/5/5 4/4/4 24/25/24 25/26/25
f 6/6/6 5/5/5 25/26/25 26/27/26
f 7/7/7 6/6/6 26/27/26 27/28/27
f 8/8/8 7/7/7 27/28/27 28/29/28
f 9/9/9 8/8/8 28/29/28 29/30/29
f 10/10/10 9/9/9 29/30/29 30/31/30
f 11/11/11 10/10/10 30/31/30 31/32/31
f 12/12/12 11/11/11 31/32/31 32/33/32
f 13/13/13 12/12/12 32/33/32 33/34/33
f 14/14/14 13/13/13 33/34/33 34/35/34
f 15/15/15 14/14/14 34/35/34 35/36/35
f 16/16/16 15/15/15 35/36/35 36/37/36
f 17/17/17 16/16/16 36/37/36 37/38/37
f 18/18/18 17/17/17 37/38/37 38/39/38
f 19/19/19 18/18/18 38/39/38 39/40/39
f 20/20/20 19/19/19 39/40/39 40/41/40
f 21/21/21 20/20/20 40/41/40 41/42/41
f 2/22/2 21/21/21 41/42/41 22/43/22
f 23/24/23 22/23/22 42/44/42 43/45/43
f 24/25/24 23/24/23 43/45/43 44/46/44
f 25/26/25 24/25/24 44/46/44 45/47/45
f 26/27/26 25/26/25 45/47/45 46/48/46
f 27/28/27 26/27/26 46/48/46 47/49/47
f 28/29/28 27/28/27 47/49/47 48/50/48
f 29/30/29 28/29/28 48/50/48 49/51/49
f 30/31/30 29/30/29 49/51/49 50/52/50
f 31/32/31 30/31/30 50/52/50 51/53/51
f 32/33/32 31/32/31 51/53/51 52/54/52
f 33/34/33 32/33/32 52/54/52 53/55/53
f 34/35/34 33/34/33 53/55/53 54/56/54
f 35/36/35 34/35/34 54/56/54 55/57/55
f 36/37/36 35/36/35 55/57/55 56/58/56
f 37/38/37 36/37/36 56/58/56 57/59/57
f 38/39/38 37/38/37 57/59/57 58/60/58
f 39/40/39 38/39/38 58/60/58 59/61/59
f 40/41/40 39/40/39 59/61/59 60/62/60
f 41/42/41 40/41/40 60/62/60 61/63/61
f 22/43/22 41/42/41 61/63/61 42/64/42
f 43/45/62 42/44/63 62/65/64 63/66/65
f 44/46/66 43/45/62 63/66/65 64/67/67
f 45/47/68 44/46/66 64/67/67 65/68/69
f 46/48/70 45/47/68 65/68/69 66/69/71
f 47/49/72 46/48/70 66/69/71 67/70/73
f 48/50/74 47/49/72 67/70/73 68/71/75
f 49/51/76 48/50/74 68/71/75 69/72/77
f 50/52/78 49/51/76 69/72/77 70/73/79
f 51/53/80 50/52/78 70/73/79 71/74/81
f 52/54/82 51/53/80 71/74/81 72/75/83
f 53/55/84 52/54/82 72/75/83 73/76/85
f 54/56/86 53/55/84 73/76/85 74/77/87
f 55/57/88 54/56/86 74/77/87 75/78/89
f 56/58/90 55/57/88 75/78/89 76/79/91
f 57/59/92 56/58/90 76/79/91 77/80/93
f 58/60/94 57/59/92 77/80/93 78/81/95
f 59/61/96 58/60/94 78/81/95 79/82/97
f 60/62/98 59/61/96 79/82/97 80/83/99
f 61/63/100 60/62/98 80/83/99 81/84/101
f 42/64/63 61/63/100 81/84/101 62/85/64
f 63/66/102 62/65/103 82/86/104 83/87/105
f 64/67/106 63/66/102 83/87/105 84/88/107
f 65/68/108 64/67/106 84/88/107 85/89/109
f 66/69/110 65/68/108 85/89/109 86/90/111
f 67/70/112 66/69/110 86/90/111 87/91/113
f 68/71/114 67/70/112 87/91/113 88/92/115
f 69/72/116 68/71/114 88/92/115 89/93/117
f 70/73/118 69/72/116 89/93/117 90/94/119
f 71/74/120 70/73/118 90/94/119 91/95/121
f 72/75/122 71/74/120 91/95/121 92/96/123
f 73/76/124 72/75/122 92/96/123 93/97/125
f 74/77/126 73/76/124 93/97/125 94/98/127
f 75/78/128 74/77/126 94/98/127 95/99/129
f 76/79/130 75/78/128 95/99/129 96/100/131
f 77/80/132 76/79/130 96/100/131 97/101/133
f 78/81/134 77/80/132 97/101/133 98/102/135
f 79/82/136 78/81/134 98/102/135 99/103/137
f 80/83/138 79/82/136 99/103/137 100/104/139
f 81/84/140 80/83/138 100/104/139 101/105/141
f 62/85/103 81/84/140 101/105/141 82/106/104
f 83/87/142 82/86/143 130/107/144 131/108/145
f 84/88/146 83/87/142 131/108/145 132/109/147
f 85/89/148 84/88/146 132/109/147 133/110/149
f 86/90/150 85/89/148 133/110/149 134/111/151
f 87/91/152 86/90/150 134/111/151 135/112/153
f 88/92/154 87/91/152 135/112/153 136/113/155
f 89/93/156 88/92/154 136/113/155 137/114/157
f 90/94/158 89/93/156 137/114/157 138/115/159
f 91/95/160 90/94/158 138/115/159 139/116/161
f 92/96/162 91/95/160 139/116/161 140/117/163
f 93/97/164 92/96/162 140/117/163 141/118/165
f 94/98/166 93/97/164 141/118/165 142/119/167
f 95/99/168 94/98/166 142/119/167 123/120/169
f 96/100/170 95/99/168 123/120/169 124/121/171
f 97/101/172 96/100/170 124/121/171 125/122/173
f 98/102/174 97/101/172 125/122/173 126/123/175
f 99/103/176 98/102/174 126/123/175 127/124/177
f 100/104/178 99/103/176 127/124/177 128/125/179
f 101/105/180 100/104/178 128/125/179 129/126/181
f 82/106/143 101/105/180 129/126/181 130/127/144
f 103/128/182 102/129/183 122/130/184
f 104/131/185 103/128/182 122/130/184
f 105/132/186 104/131/185 122/130/184
f 106/133/187 105/132/186 122/130/184
f 107/134/188 106/133/187 122/130/184
f 108/135/189 107/134/188 122/130/184
f 109/136/190 108/135/189 122/130/184
f 110/137/191 109/136/190 122/130/184
f 111/138/192 110/137/191 122/130/184
f 112/139/193 111/138/192 122/130/184
f 113/140/194 112/139/193 122/130/184
f 114/141/195 113/140/194 122/130/184
f 115/142/196 114/141/195 122/130/184
f 116/143/197 115/142/196 122/130/184
f 117/144/198 116/143/197 122/130/184
f 118/145/199 117/144/198 122/130/184
f 119/146/200 118/145/199 122/130/184
f 120/147/201 119/146/200 122/130/184
f 121/148/202 120/147/201 122/130/184
f 102/149/183 121/148/202 122/130/184
f 124/121/203 123/120/204 162/150/205 143/151/206
f 125/122/207 124/121/203 143/151/206 144/152/208
f 126/123/209 125/122/207 144/152/208 145/153/210
f 127/124/211 126/123/209 145/153/210 146/154/212
f 128/125/213 127/124/211 146/154/212 147/155/214
f 129/126/215 128/125/213 147/155/214 148/156/216
f 130/127/217 129/126/215 148/156/216 149/157/218
f 131/108/219 130/107/217 149/158/218 150/159/220
f 132/109/221 131/108/219 150/159/220 151/160/222
f 133/110/223 132/109/221 151/160/222 152/161/224
f 134/111/225 133/110/223 152/161/224 153/162/226
f 135/112/227 134/111/225 153/162/226 154/163/228
f 136/113/229 135/112/227 154/163/228 155/164/230
f 137/114/231 136/113/229 155/164/230 156/165/232
f 138/115/233 137/114/231 156/165/232 157/166/234
f 139/116/235 138/115/233 157/166/234 158/167/236
f 140/117/237 139/116/235 158/167/236 159/168/238
f 141/118/239 140/117/237 159/168/238 160/169/240
f 142/119/241 141/118/239 160/169/240 161/170/242
f 123/120/204 142/119/241 161/170/242 162/150/205
f 144/152/208 143/151/206 116/143/197 117/144/198
f 145/153/210 144/152/208 117/144/198 118/145/199
f 146/154/212 145/153/210 118/145/199 119/146/200
f 147/155/214 146/154/212 119/146/200 120/147/201
f 148/156/216 147/155/214 120/147/201 121/148/202
f 149/157/218 148/156/216 121/148/202 102/149/183
f 150/159/220 149/158/218 102/129/183 103/128/182
f 151/160/222 150/159/220 103/128/182 104/131/185
f 152/161/224 151/160/222 104/131/185 105/132/186
f 153/162/226 152/161/224 105/132/186 106/133/187
f 154/163/228 153/162/226 106/133/187 107/134/188
f 155/164/230 154/163/228 107/134/188 108/135/189
f 156/165/232 155/164/230 108/135/189 109/136/190
f 157/166/234 156/165/232 109/136/190 110/137/191
f 158/167/236 157/166/234 110/137/191 111/138/192
f 159/168/238 158/167/236 111/138/192 112/139/193
f 160/169/240 159/168/238 112/139/193 113/140/194
f 161/170/242 160/169/240 113/140/194 114/141/195
f 162/150/205 161/170/242 114/141/195 115/142/196
f 143/151/206 162/150/205 115/142/196 116/143/197
