# This file uses centimeters as units for non-parametric coordinates.

mtllib toilet_handle_2.mtl
v 0.493730 0.300012 -0.173212
v 0.493730 0.173212 -0.300012
v 0.493730 -0.000000 -0.346424
v 0.493730 -0.173212 -0.300012
v 0.493730 -0.300012 -0.173212
v 0.493730 -0.346424 0.000000
v 0.493730 -0.300012 0.173212
v 0.493730 -0.173212 0.300012
v 0.493730 -0.000000 0.346424
v 0.493730 0.173212 0.300012
v 0.493730 0.300012 0.173212
v 0.493730 0.346424 0.000000
v -2.227199 0.300012 -0.173212
v -2.227199 0.173212 -0.300012
v -2.227199 0.000000 -0.346424
v -2.227199 -0.173212 -0.300012
v -2.227199 -0.300012 -0.173212
v -2.227199 -0.346424 0.000000
v -2.227199 -0.300012 0.173212
v -2.227199 -0.173212 0.300012
v -2.227199 0.000000 0.346424
v -2.227199 0.173212 0.300012
v -2.227199 0.300012 0.173212
v -2.227199 0.346424 0.000000
v 0.493730 -0.000000 0.000000
v -2.227199 0.000000 0.000000
v -1.475392 0.173212 0.300012
v -1.475392 0.000000 0.346424
v -1.475392 -0.173212 0.300012
v -1.475392 -0.300012 0.173212
v -1.475392 -0.346424 0.000000
v -1.475392 -0.300012 -0.173212
v -1.475392 -0.173212 -0.300012
v -1.475392 0.000000 -0.346424
v -1.475392 0.173212 -0.300012
v -1.475392 0.300012 -0.173212
v -1.475392 0.346424 0.000000
v -1.475392 0.300012 0.173212
v -1.475392 0.173212 2.027559
v -1.475392 0.000000 2.073971
v -2.227199 0.173212 2.027559
v -2.227199 0.000000 2.073971
v -1.475392 -0.173212 2.027559
v -2.227199 -0.173212 2.027559
vt 0.870677 0.720429
vt 0.855648 0.705400
vt 0.835118 0.699899
vt 0.814589 0.705400
vt 0.799560 0.720429
vt 0.794059 0.740958
vt 0.799560 0.761488
vt 0.814589 0.776517
vt 0.835118 0.782017
vt 0.855648 0.776517
vt 0.870677 0.761488
vt 0.876178 0.740958
vt 0.802271 0.782017
vt 0.807746 0.782017
vt 0.813220 0.782017
vt 0.818695 0.782017
vt 0.824169 0.782017
vt 0.829644 0.782017
vt 0.835118 0.782017
vt 0.840593 0.782017
vt 0.846068 0.782017
vt 0.851542 0.782017
vt 0.857017 0.782017
vt 0.862491 0.782017
vt 0.867966 0.782017
vt 0.802271 0.880807
vt 0.807746 0.880807
vt 0.813220 0.880807
vt 0.818695 0.880807
vt 0.824169 0.880807
vt 0.829644 0.880807
vt 0.835118 0.880807
vt 0.840593 0.880807
vt 0.846068 0.880807
vt 0.851542 0.880807
vt 0.857017 0.880807
vt 0.862491 0.880807
vt 0.867966 0.880807
vt 0.870677 0.901089
vt 0.855648 0.886060
vt 0.835118 0.880560
vt 0.814589 0.886060
vt 0.799560 0.901089
vt 0.794059 0.921619
vt 0.799560 0.942148
vt 0.814589 0.957177
vt 0.835118 0.962678
vt 0.855648 0.957177
vt 0.870677 0.942148
vt 0.876178 0.921619
vt 0.835118 0.739316
vt 0.835118 0.919976
vt 0.851542 0.853511
vt 0.846068 0.853511
vt 0.840593 0.853511
vt 0.835118 0.853511
vt 0.829644 0.853511
vt 0.824169 0.853511
vt 0.818695 0.853511
vt 0.813220 0.853511
vt 0.807746 0.853511
vt 0.867966 0.853511
vt 0.802271 0.853511
vt 0.862491 0.853511
vt 0.857017 0.853511
vt 0.846068 0.853511
vt 0.851542 0.853511
vt 0.851542 0.880807
vt 0.846068 0.880807
vt 0.840593 0.853511
vt 0.840593 0.880807
vn 0.000000 0.707107 -0.707107
vn 0.000000 0.707107 -0.707107
vn 0.000000 0.707107 -0.707107
vn 0.000000 0.707107 -0.707107
vn 0.000000 0.258819 -0.965926
vn 0.000000 0.258819 -0.965926
vn 0.000000 0.258819 -0.965926
vn 0.000000 0.258819 -0.965926
vn -0.000000 -0.258819 -0.965926
vn -0.000000 -0.258819 -0.965926
vn -0.000000 -0.258819 -0.965926
vn -0.000000 -0.258819 -0.965926
vn 0.000000 -0.707107 -0.707107
vn 0.000000 -0.707107 -0.707107
vn 0.000000 -0.707107 -0.707107
vn 0.000000 -0.707107 -0.707107
vn 0.000000 -0.965926 -0.258819
vn 0.000000 -0.965926 -0.258819
vn 0.000000 -0.965926 -0.258819
vn 0.000000 -0.965926 -0.258819
vn 0.000000 -0.965926 0.258819
vn 0.000000 -0.965926 0.258819
vn 0.000000 -0.965926 0.258819
vn 0.000000 -0.965926 0.258819
vn 0.000000 -0.707107 0.707107
vn 0.000000 -0.707107 0.707107
vn 0.000000 -0.707107 0.707107
vn 0.000000 -0.707107 0.707107
vn 0.000000 -0.258819 0.965926
vn 0.000000 -0.258819 0.965926
vn 0.000000 -0.258819 0.965926
vn 0.000000 -0.258819 0.965926
vn 0.000000 0.258819 0.965926
vn 0.000000 0.258819 0.965926
vn 0.000000 0.258819 0.965926
vn 0.000000 0.258819 0.965926
vn 0.000000 0.707107 0.707107
vn 0.000000 0.707107 0.707107
vn 0.000000 0.707107 0.707107
vn 0.000000 0.707107 0.707107
vn 0.000000 0.965926 0.258819
vn 0.000000 0.965926 0.258819
vn 0.000000 0.965926 0.258819
vn 0.000000 0.965926 0.258819
vn 0.000000 0.965926 -0.258819
vn 0.000000 0.965926 -0.258819
vn 0.000000 0.965926 -0.258819
vn 0.000000 0.965926 -0.258819
vn 1.000000 0.000000 0.000000
vn 1.000000 0.000000 0.000000
vn 1.000000 0.000000 0.000000
vn 1.000000 0.000000 0.000000
vn 1.000000 0.000000 0.000000
vn 1.000000 0.000000 0.000000
vn 1.000000 0.000000 0.000000
vn 1.000000 0.000000 0.000000
vn 1.000000 0.000000 0.000000
vn 1.000000 0.000000 0.000000
vn 1.000000 0.000000 0.000000
vn 1.000000 0.000000 0.000000
vn 1.000000 0.000000 0.000000
vn -1.000000 -0.000000 0.000000
vn -1.000000 0.000000 0.000000
vn -1.000000 0.000000 0.000000
vn -1.000000 0.000000 0.000000
vn -1.000000 -0.000001 0.000000
vn -1.000000 0.000000 0.000000
vn -1.000000 0.000000 0.000000
vn -1.000000 0.000000 0.000000
vn -1.000000 -0.000000 0.000000
vn -1.000000 0.000000 0.000000
vn -1.000000 0.000000 0.000000
vn -1.000000 0.000000 0.000000
vn -1.000000 0.000000 0.000000
vn 0.000000 0.258819 0.965926
vn 0.000000 0.258819 0.965926
vn 0.000000 0.258819 0.965926
vn 0.000000 0.258819 0.965926
vn 0.000000 -0.258819 0.965926
vn 0.000000 -0.258819 0.965926
vn 0.000000 -0.258819 0.965926
vn 0.000000 -0.258819 0.965926
vn 0.000000 -0.707107 0.707107
vn 0.000000 -0.707107 0.707107
vn 0.000000 -0.965926 0.258819
vn 0.000000 -0.965926 0.258819
vn 0.000000 -0.965926 -0.258819
vn 0.000000 -0.965926 -0.258819
vn 0.000000 -0.707107 -0.707107
vn 0.000000 -0.707107 -0.707107
vn -0.000000 -0.258819 -0.965926
vn -0.000000 -0.258819 -0.965926
vn 0.000000 0.258819 -0.965926
vn 0.000000 0.258819 -0.965926
vn 0.000000 0.707107 -0.707107
vn 0.000000 0.707107 -0.707107
vn 0.000000 0.965926 -0.258819
vn 0.000000 0.965926 -0.258819
vn 0.000000 0.965926 0.258819
vn 0.000000 0.965926 0.258819
vn 0.000000 0.707107 0.707107
vn 0.000000 0.707107 0.707107
vn 1.000000 0.000000 0.000000
vn 1.000000 0.000001 0.000000
vn 1.000000 0.000001 0.000000
vn 1.000000 0.000000 0.000000
vn 0.000000 1.000000 0.000000
vn 0.000000 1.000000 0.000000
vn 0.000000 1.000000 0.000000
vn 0.000000 1.000000 0.000000
vn -1.000000 0.000000 0.000000
vn -1.000000 0.000000 0.000000
vn 1.000000 -0.000001 0.000000
vn 1.000000 -0.000001 0.000000
vn -1.000000 0.000000 0.000000
vn 0.000000 -1.000000 0.000000
vn 0.000000 -1.000000 0.000000
vn 0.000000 -1.000000 0.000000
vn 0.000000 -1.000000 0.000000
s 1
usemtl initialShadingGroup
f 1/13/1 2/14/2 35/61/3 36/63/4
s 2
f 2/14/5 3/15/6 34/60/7 35/61/8
s 3
f 3/15/9 4/16/10 33/59/11 34/60/12
s 4
f 4/16/13 5/17/14 32/58/15 33/59/16
s 5
f 5/17/17 6/18/18 31/57/19 32/58/20
s 6
f 6/18/21 7/19/22 30/56/23 31/57/24
s 7
f 7/19/25 8/20/26 29/55/27 30/56/28
s off
f 8/20/29 9/21/30 28/54/31 29/55/32
f 9/21/33 10/22/34 27/53/35 28/54/36
s 8
f 10/22/37 11/23/38 38/65/39 27/53/40
s 9
f 11/23/41 12/24/42 37/64/43 38/65/44
s 10
f 12/24/45 1/25/46 36/62/47 37/64/48
s 11
f 2/2/49 1/1/50 25/51/51
f 3/3/52 2/2/49 25/51/51
f 4/4/53 3/3/52 25/51/51
f 5/5/54 4/4/53 25/51/51
f 6/6/55 5/5/54 25/51/51
f 7/7/56 6/6/55 25/51/51
f 8/8/57 7/7/56 25/51/51
f 9/9/58 8/8/57 25/51/51
f 10/10/59 9/9/58 25/51/51
f 11/11/60 10/10/59 25/51/51
f 12/12/61 11/11/60 25/51/51
f 1/1/50 12/12/61 25/51/51
s 12
f 13/49/62 14/48/63 26/52/64
f 14/48/63 15/47/65 26/52/64
f 15/47/65 16/46/66 26/52/64
f 16/46/66 17/45/67 26/52/64
f 17/45/67 18/44/68 26/52/64
f 18/44/68 19/43/69 26/52/64
f 19/43/69 20/42/70 26/52/64
f 20/42/70 21/41/71 26/52/64
f 21/41/71 22/40/72 26/52/64
f 22/40/72 23/39/73 26/52/64
f 23/39/73 24/50/74 26/52/64
f 24/50/74 13/49/62 26/52/64
s off
f 40/66/75 39/67/76 41/68/77 42/69/78
f 43/70/79 40/66/80 42/69/81 44/71/82
s 7
f 30/56/28 29/55/27 20/33/83 19/32/84
s 6
f 31/57/24 30/56/23 19/32/85 18/31/86
s 5
f 32/58/20 31/57/19 18/31/87 17/30/88
s 4
f 33/59/16 32/58/15 17/30/89 16/29/90
s 3
f 34/60/12 33/59/11 16/29/91 15/28/92
s 2
f 35/61/8 34/60/7 15/28/93 14/27/94
s 1
f 36/63/4 35/61/3 14/27/95 13/26/96
s 10
f 37/64/48 36/62/47 13/38/97 24/37/98
s 9
f 38/65/44 37/64/43 24/37/99 23/36/100
s 8
f 27/53/40 38/65/39 23/36/101 22/35/102
s 13
f 28/54/103 27/53/104 39/67/105 40/66/106
s off
f 27/53/107 22/35/108 41/68/109 39/67/110
s 12
f 22/35/72 21/34/71 42/69/111 41/68/112
s 13
f 29/55/113 28/54/103 40/66/106 43/70/114
s 12
f 21/34/71 20/33/70 44/71/115 42/69/111
s off
f 20/33/116 29/55/117 43/70/118 44/71/119
