# This file uses centimeters as units for non-parametric coordinates.

v 0.756161 -2.468238 2.750488
v 1.455493 -2.468238 2.295882
v 2.052007 -2.468238 1.587814
v 2.505437 -2.468238 0.695598
v 2.762591 -2.468238 -0.293432
v 2.756127 -2.468238 -1.282461
v 2.436513 -2.468238 -2.174677
v 1.812203 -2.468238 -2.882744
v 0.959854 -2.468238 -3.337351
v 0.000000 -2.468238 -3.493997
v -0.959854 -2.468238 -3.337351
v -1.812203 -2.468238 -2.882744
v -2.436513 -2.468238 -2.174677
v -2.756126 -2.468238 -1.282461
v -2.762590 -2.468238 -0.293432
v -2.505436 -2.468238 0.695597
v -2.052006 -2.468238 1.587813
v -1.455492 -2.468238 2.295879
v -0.756161 -2.468238 2.750486
v 0.000000 -2.468238 2.907133
v 0.512701 0.000000 1.791151
v 0.975214 0.000000 1.479820
v 1.342267 0.000000 0.994911
v 1.581308 0.000000 0.383890
v 1.678867 0.000000 -0.293432
v 1.620217 0.000000 -0.970754
v 1.398108 0.000000 -1.581775
v 1.025612 0.000000 -2.066683
v 0.540920 0.000000 -2.378014
v 0.000000 0.000000 -2.485291
v -0.540919 0.000000 -2.378014
v -1.025612 0.000000 -2.066683
v -1.398108 0.000000 -1.581774
v -1.620217 0.000000 -0.970753
v -1.678866 0.000000 -0.293432
v -1.581307 0.000000 0.383890
v -1.342266 0.000000 0.994910
v -0.975214 0.000000 1.479819
v -0.512700 0.000000 1.791150
v 0.000000 0.000000 1.898427
v 0.000000 -2.468238 -0.293432
v 0.000000 0.000000 -0.293432
vt 0.188245 0.112182
vt 0.192250 0.112182
vt 0.192250 0.232624
vt 0.188245 0.232624
vt 0.196255 0.112182
vt 0.196255 0.232624
vt 0.200259 0.112182
vt 0.200259 0.232624
vt 0.204264 0.112182
vt 0.204264 0.232624
vt 0.208269 0.112182
vt 0.208269 0.232624
vt 0.212273 0.112182
vt 0.212273 0.232624
vt 0.216278 0.112182
vt 0.216278 0.232624
vt 0.220283 0.112182
vt 0.220283 0.232624
vt 0.224287 0.112182
vt 0.224287 0.232624
vt 0.228292 0.112182
vt 0.228292 0.232624
vt 0.232297 0.112182
vt 0.232297 0.232624
vt 0.236301 0.112182
vt 0.236301 0.232624
vt 0.240306 0.112182
vt 0.240306 0.232624
vt 0.244311 0.112182
vt 0.244311 0.232624
vt 0.248315 0.112182
vt 0.248315 0.232624
vt 0.252320 0.112182
vt 0.252320 0.232624
vt 0.256325 0.112182
vt 0.256325 0.232624
vt 0.260329 0.112182
vt 0.260329 0.232624
vt 0.264334 0.112182
vt 0.264334 0.232624
vt 0.268339 0.112182
vt 0.268339 0.232624
vt 0.268790 0.032700
vt 0.275901 0.046655
vt 0.228292 0.060121
vt 0.257716 0.021625
vt 0.243761 0.014515
vt 0.228292 0.012065
vt 0.212823 0.014515
vt 0.198869 0.021625
vt 0.187794 0.032700
vt 0.180683 0.046655
vt 0.178234 0.062124
vt 0.180683 0.077593
vt 0.187794 0.091547
vt 0.198869 0.102622
vt 0.212823 0.109732
vt 0.228292 0.112182
vt 0.243761 0.109732
vt 0.257716 0.102622
vt 0.268790 0.091547
vt 0.275901 0.077593
vt 0.278351 0.062124
vt 0.275901 0.297850
vt 0.268790 0.311804
vt 0.228292 0.280379
vt 0.257716 0.322879
vt 0.243761 0.329990
vt 0.228292 0.332439
vt 0.212823 0.329990
vt 0.198869 0.322879
vt 0.187794 0.311804
vt 0.180683 0.297850
vt 0.178234 0.282381
vt 0.180683 0.266912
vt 0.187794 0.252957
vt 0.198869 0.241883
vt 0.212823 0.234772
vt 0.228292 0.232322
vt 0.243761 0.234772
vt 0.257716 0.241883
vt 0.268790 0.252957
vt 0.275901 0.266912
vt 0.278351 0.282381
vn 0.514341 0.356006 0.780201
vn 0.514341 0.356006 0.780201
vn 0.514341 0.356006 0.780201
vn 0.514341 0.356006 0.780201
vn 0.730339 0.344427 0.589894
vn 0.730339 0.344427 0.589894
vn 0.849794 0.352999 0.391460
vn 0.849794 0.352999 0.391460
vn 0.904667 0.380122 0.192575
vn 0.904667 0.380122 0.192575
vn 0.910625 0.411700 -0.035583
vn 0.910625 0.411700 -0.035583
vn 0.849288 0.430161 -0.306058
vn 0.849288 0.430161 -0.306058
vn 0.695375 0.422915 -0.581030
vn 0.695376 0.422914 -0.581030
vn 0.456073 0.397705 -0.796133
vn 0.456073 0.397705 -0.796133
vn 0.160403 0.377249 -0.912115
vn 0.160403 0.377249 -0.912115
vn -0.160403 0.377249 -0.912115
vn -0.160403 0.377249 -0.912115
vn -0.456073 0.397705 -0.796133
vn -0.456073 0.397705 -0.796133
vn -0.695376 0.422915 -0.581030
vn -0.695376 0.422915 -0.581030
vn -0.849288 0.430161 -0.306058
vn -0.849288 0.430161 -0.306058
vn -0.910625 0.411700 -0.035584
vn -0.910625 0.411700 -0.035584
vn -0.904667 0.380122 0.192575
vn -0.904667 0.380122 0.192575
vn -0.849794 0.352999 0.391461
vn -0.849794 0.352999 0.391461
vn -0.730339 0.344427 0.589894
vn -0.730339 0.344427 0.589894
vn -0.514341 0.356006 0.780201
vn -0.514341 0.356006 0.780201
vn -0.189054 0.371681 0.908907
vn -0.189054 0.371681 0.908907
vn 0.000000 -1.000000 0.000000
vn 0.000000 -1.000000 0.000000
vn 0.000000 -1.000000 0.000000
vn 0.000000 -1.000000 0.000000
vn 0.000000 -1.000000 0.000000
vn 0.000000 -1.000000 0.000000
vn 0.000000 -1.000000 0.000000
vn 0.000000 -1.000000 0.000000
vn 0.000000 -1.000000 0.000000
vn 0.000000 -1.000000 0.000000
vn 0.000000 -1.000000 0.000000
vn 0.000000 -1.000000 0.000000
vn 0.000000 -1.000000 0.000000
vn 0.000000 -1.000000 0.000000
vn 0.000000 -1.000000 0.000000
vn 0.000000 -1.000000 0.000000
vn 0.000000 -1.000000 0.000000
vn 0.000000 -1.000000 0.000000
vn 0.000000 -1.000000 0.000000
vn 0.000000 -1.000000 0.000000
vn 0.000000 -1.000000 0.000000
vn 0.000000 -1.000000 0.000000
vn 0.000000 -1.000000 0.000000
vn 0.000000 -1.000000 0.000000
vn 0.000000 -1.000000 0.000000
vn 0.000000 -1.000000 0.000000
vn 0.000000 -1.000000 0.000000
vn 0.000000 -1.000000 0.000000
vn 0.000000 -1.000000 0.000000
vn 0.000000 -1.000000 0.000000
vn 0.000000 -1.000000 0.000000
vn 0.000000 -1.000000 0.000000
vn 0.000000 -1.000000 0.000000
vn 0.000000 -1.000000 0.000000
vn 0.000000 -1.000000 0.000000
vn 0.000000 -1.000000 0.000000
vn 0.000000 -1.000000 0.000000
vn 0.000000 -1.000000 0.000000
vn 0.000000 -1.000000 0.000000
vn 0.000000 -1.000000 0.000000
vn 0.000000 -1.000000 0.000000
vn 0.000000 -1.000000 0.000000
vn 0.000000 -1.000000 0.000000
vn 0.000000 -1.000000 0.000000
vn 0.000000 -1.000000 0.000000
vn 0.000000 -1.000000 0.000000
vn 0.000000 -1.000000 0.000000
vn 0.000000 -1.000000 0.000000
vn 0.000000 -1.000000 0.000000
vn 0.000000 -1.000000 0.000000
vn 0.000000 -1.000000 0.000000
vn 0.000000 -1.000000 0.000000
vn 0.000000 -1.000000 0.000000
vn 0.000000 -1.000000 0.000000
vn 0.000000 -1.000000 0.000000
vn 0.000000 -1.000000 0.000000
vn 0.000000 -1.000000 0.000000
vn 0.000000 -1.000000 0.000000
vn 0.000000 -1.000000 0.000000
vn 0.000000 -1.000000 0.000000
vn 0.000000 1.000000 0.000000
vn 0.000000 1.000000 0.000000
vn 0.000000 1.000000 0.000000
vn 0.000000 1.000000 0.000000
vn 0.000000 1.000000 0.000000
vn 0.000000 1.000000 0.000000
vn 0.000000 1.000000 0.000000
vn 0.000000 1.000000 0.000000
vn 0.000000 1.000000 0.000000
vn 0.000000 1.000000 0.000000
vn 0.000000 1.000000 0.000000
vn 0.000000 1.000000 0.000000
vn 0.000000 1.000000 0.000000
vn 0.000000 1.000000 0.000000
vn 0.000000 1.000000 0.000000
vn 0.000000 1.000000 0.000000
vn 0.000000 1.000000 0.000000
vn 0.000000 1.000000 0.000000
vn 0.000000 1.000000 0.000000
vn 0.000000 1.000000 0.000000
vn 0.000000 1.000000 0.000000
vn 0.000000 1.000000 0.000000
vn 0.000000 1.000000 0.000000
vn 0.000000 1.000000 0.000000
vn -0.000001 1.000000 0.000000
vn -0.000001 1.000000 0.000000
vn -0.000001 1.000000 0.000000
vn 0.000001 1.000000 0.000000
vn 0.000001 1.000000 0.000000
vn 0.000001 1.000000 0.000000
vn 0.000000 1.000000 0.000000
vn 0.000000 1.000000 0.000000
vn 0.000000 1.000000 0.000000
vn 0.000000 1.000000 0.000000
vn 0.000000 1.000000 0.000000
vn 0.000000 1.000000 0.000000
vn 0.000000 1.000000 0.000000
vn 0.000000 1.000000 0.000000
vn 0.000000 1.000000 0.000000
vn 0.000000 1.000000 0.000000
vn 0.000000 1.000000 0.000000
vn 0.000000 1.000000 0.000000
vn 0.000000 1.000000 0.000000
vn 0.000000 1.000000 0.000000
vn 0.000000 1.000000 0.000000
vn 0.000000 1.000000 0.000000
vn 0.000000 1.000000 0.000000
vn 0.000000 1.000000 0.000000
vn 0.000000 1.000000 0.000000
vn 0.000000 1.000000 0.000000
vn 0.000000 1.000000 0.000000
vn 0.000000 1.000000 0.000000
vn 0.000000 1.000000 0.000000
vn 0.000000 1.000000 0.000000
vn 0.000000 1.000000 0.000000
vn 0.000000 1.000000 0.000000
vn 0.000000 1.000000 0.000000
vn 0.000000 1.000000 0.000000
vn 0.000000 1.000000 0.000000
vn 0.000000 1.000000 0.000000
g toilet_base_1_Mesh
f 1/1/1 2/2/2 22/3/3 21/4/4
f 2/2/2 3/5/5 23/6/6 22/3/3
f 3/5/5 4/7/7 24/8/8 23/6/6
f 4/7/7 5/9/9 25/10/10 24/8/8
f 5/9/9 6/11/11 26/12/12 25/10/10
f 6/11/11 7/13/13 27/14/14 26/12/12
f 7/13/13 8/15/15 28/16/16 27/14/14
f 8/15/15 9/17/17 29/18/18 28/16/16
f 9/17/17 10/19/19 30/20/20 29/18/18
f 10/19/19 11/21/21 31/22/22 30/20/20
f 11/21/21 12/23/23 32/24/24 31/22/22
f 12/23/23 13/25/25 33/26/26 32/24/24
f 13/25/25 14/27/27 34/28/28 33/26/26
f 14/27/27 15/29/29 35/30/30 34/28/28
f 15/29/29 16/31/31 36/32/32 35/30/30
f 16/31/31 17/33/33 37/34/34 36/32/32
f 17/33/33 18/35/35 38/36/36 37/34/34
f 18/35/35 19/37/37 39/38/38 38/36/36
f 19/37/37 20/39/39 40/40/40 39/38/38
f 20/39/39 1/41/1 21/42/4 40/40/40
f 2/43/41 1/44/42 41/45/43
f 3/46/44 2/43/45 41/45/46
f 4/47/47 3/46/48 41/45/49
f 5/48/50 4/47/51 41/45/52
f 6/49/53 5/48/54 41/45/55
f 7/50/56 6/49/57 41/45/58
f 8/51/59 7/50/60 41/45/61
f 9/52/62 8/51/63 41/45/64
f 10/53/65 9/52/66 41/45/67
f 11/54/68 10/53/69 41/45/70
f 12/55/71 11/54/72 41/45/73
f 13/56/74 12/55/75 41/45/76
f 14/57/77 13/56/78 41/45/79
f 15/58/80 14/57/81 41/45/82
f 16/59/83 15/58/84 41/45/85
f 17/60/86 16/59/87 41/45/88
f 18/61/89 17/60/90 41/45/91
f 19/62/92 18/61/93 41/45/94
f 20/63/95 19/62/96 41/45/97
f 1/44/98 20/63/99 41/45/100
f 21/64/101 22/65/102 42/66/103
f 22/65/104 23/67/105 42/66/106
f 23/67/107 24/68/108 42/66/109
f 24/68/110 25/69/111 42/66/112
f 25/69/113 26/70/114 42/66/115
f 26/70/116 27/71/117 42/66/118
f 27/71/119 28/72/120 42/66/121
f 28/72/122 29/73/123 42/66/124
f 29/73/125 30/74/126 42/66/127
f 30/74/128 31/75/129 42/66/130
f 31/75/131 32/76/132 42/66/133
f 32/76/134 33/77/135 42/66/136
f 33/77/137 34/78/138 42/66/139
f 34/78/140 35/79/141 42/66/142
f 35/79/143 36/80/144 42/66/145
f 36/80/146 37/81/147 42/66/148
f 37/81/149 38/82/150 42/66/151
f 38/82/152 39/83/153 42/66/154
f 39/83/155 40/84/156 42/66/157
f 40/84/158 21/64/159 42/66/160
