# This file uses centimeters as units for non-parametric coordinates.

v -3.192765 -0.924478 -2.174879
v -3.306746 -1.113058 -1.450640
v -3.306746 -1.157696 -0.675713
v -3.192765 -1.047967 -0.004412
v -3.306746 1.531313 -2.526431
v -3.587886 1.529559 -1.775253
v -3.587887 1.570380 -0.987348
v -3.306746 1.633245 -0.290157
v -3.306746 4.135749 -3.161547
v -3.587886 4.276282 -2.408298
v -3.587886 4.367498 -1.618715
v -3.306746 4.413440 -0.922981
v -3.192765 6.708226 -3.529541
v -3.306746 6.934212 -2.832216
v -3.306746 7.022896 -2.051706
v -3.192765 6.975159 -1.334733
v -1.128370 6.732190 -3.743547
v -1.155194 7.173011 -3.046044
v -1.155194 7.267160 -2.251138
v -1.128370 7.028229 -1.471909
v 1.128371 6.723198 -3.861074
v 1.155194 7.165837 -3.139814
v 1.155194 7.261239 -2.328529
v 1.128371 7.022567 -1.545915
v 3.192765 6.691751 -3.744883
v 3.306746 6.919116 -3.029523
v 3.306746 7.009089 -2.232174
v 3.192765 6.963166 -1.491492
v 3.306746 4.107674 -3.528514
v 3.587887 4.246470 -2.797956
v 3.587887 4.337820 -2.006616
v 3.306746 4.387853 -1.257415
v 3.306746 1.519034 -2.821417
v 3.587887 1.521156 -2.108258
v 3.587887 1.562153 -1.318476
v 3.306746 1.627977 -0.554498
v 3.192765 -0.919547 -2.338734
v 3.306746 -1.103180 -1.622146
v 3.306746 -1.147827 -0.847043
v 3.192765 -1.040274 -0.148573
v 1.128370 -0.989938 -2.191813
v 1.155194 -1.420276 -1.449848
v 1.155194 -1.506586 -0.662694
v 1.128370 -1.214585 0.045818
v -1.128370 -0.989938 -2.191813
v -1.155194 -1.420276 -1.449848
v -1.155194 -1.506586 -0.662694
v -1.128370 -1.214585 0.045818
v 1.155194 1.573977 -0.288833
v -1.155194 1.573977 -0.288833
v 1.155194 4.354647 -1.219020
v -1.155194 4.364426 -1.090247
v 1.155194 1.512047 -2.720198
v -1.155194 1.512047 -2.720198
v 1.155194 4.028595 -3.647782
v -1.155194 4.039665 -3.505701
vt 0.170379 0.096831
vt 0.187477 0.096831
vt 0.187477 0.113930
vt 0.170379 0.113930
vt 0.204576 0.096831
vt 0.204576 0.113930
vt 0.221675 0.096831
vt 0.221675 0.113930
vt 0.187477 0.131029
vt 0.170379 0.131029
vt 0.204576 0.131029
vt 0.221675 0.131029
vt 0.187477 0.148127
vt 0.170379 0.148127
vt 0.204576 0.148127
vt 0.221675 0.148127
vt 0.187477 0.165226
vt 0.170379 0.165226
vt 0.204576 0.165226
vt 0.221675 0.165226
vt 0.187477 0.182325
vt 0.170379 0.182325
vt 0.204576 0.182325
vt 0.221675 0.182325
vt 0.187477 0.199423
vt 0.170379 0.199423
vt 0.204576 0.199423
vt 0.221675 0.199423
vt 0.187477 0.216522
vt 0.170379 0.216522
vt 0.204576 0.216522
vt 0.221675 0.216522
vt 0.187477 0.233620
vt 0.170379 0.233620
vt 0.204576 0.233620
vt 0.221675 0.233620
vt 0.187477 0.250719
vt 0.170379 0.250719
vt 0.204576 0.250719
vt 0.221675 0.250719
vt 0.187477 0.267818
vt 0.170379 0.267818
vt 0.204576 0.267818
vt 0.221675 0.267818
vt 0.187477 0.284916
vt 0.170379 0.284916
vt 0.204576 0.284916
vt 0.221675 0.284916
vt 0.187477 0.302015
vt 0.170379 0.302015
vt 0.204576 0.302015
vt 0.221675 0.302015
vt 0.255872 0.096831
vt 0.272971 0.096831
vt 0.272971 0.113930
vt 0.255872 0.113930
vt 0.238773 0.096831
vt 0.238773 0.113930
vt 0.272971 0.131029
vt 0.255872 0.131029
vt 0.238773 0.131029
vt 0.272971 0.148127
vt 0.255872 0.148127
vt 0.238773 0.148127
vt 0.119083 0.096831
vt 0.136181 0.096831
vt 0.136181 0.113930
vt 0.119083 0.113930
vt 0.153280 0.096831
vt 0.153280 0.113930
vt 0.136181 0.131029
vt 0.119083 0.131029
vt 0.153280 0.131029
vt 0.136181 0.148127
vt 0.119083 0.148127
vt 0.153280 0.148127
vn -0.956465 -0.109977 -0.270332
vn -0.956465 -0.109977 -0.270332
vn -0.956465 -0.109977 -0.270332
vn -0.956465 -0.109977 -0.270332
vn -0.994561 -0.104155 -0.000254
vn -0.994561 -0.104155 -0.000254
vn -0.958709 -0.038918 0.281715
vn -0.958709 -0.038918 0.281715
vn -0.936056 -0.081137 -0.342367
vn -0.936056 -0.081137 -0.342367
vn -1.000000 0.000000 0.000000
vn -0.926318 0.083282 0.367421
vn -0.962293 0.031792 -0.270152
vn -0.962293 0.031792 -0.270152
vn -0.994576 0.103341 -0.011841
vn -0.956526 0.115785 0.267680
vn -0.100083 0.893707 -0.437345
vn -0.100083 0.893707 -0.437345
vn -0.100083 0.893707 -0.437345
vn -0.100083 0.893707 -0.437345
vn -0.121672 0.985953 -0.114424
vn -0.121672 0.985953 -0.114424
vn -0.053707 0.979772 0.192775
vn -0.053707 0.979772 0.192775
vn -0.021446 0.848681 -0.528470
vn -0.021446 0.848681 -0.528470
vn -0.001527 0.993107 -0.117200
vn 0.012118 0.956218 0.292406
vn 0.082372 0.900088 -0.427851
vn 0.082372 0.900088 -0.427851
vn 0.119800 0.986271 -0.113655
vn 0.065639 0.979759 0.189114
vn 0.960275 0.048766 -0.274761
vn 0.960275 0.048766 -0.274761
vn 0.960275 0.048766 -0.274761
vn 0.960275 0.048766 -0.274761
vn 0.994545 0.103633 -0.011828
vn 0.994545 0.103633 -0.011828
vn 0.962297 0.094806 0.254943
vn 0.962297 0.094806 0.254943
vn 0.930825 -0.092908 -0.353458
vn 0.930825 -0.092908 -0.353458
vn 1.000000 0.000000 0.000000
vn 0.936049 0.085757 0.341260
vn 0.951697 -0.127702 -0.279221
vn 0.951697 -0.127702 -0.279221
vn 0.994486 -0.104871 -0.000244
vn 0.964178 -0.027802 0.263796
vn 0.054737 -0.918389 -0.391875
vn 0.054737 -0.918389 -0.391875
vn 0.054737 -0.918389 -0.391875
vn 0.054737 -0.918389 -0.391875
vn 0.147944 -0.985539 -0.082614
vn 0.147944 -0.985539 -0.082614
vn 0.145332 -0.947833 0.283710
vn 0.145332 -0.947833 0.283710
vn 0.000000 -0.865032 -0.501716
vn 0.000000 -0.865032 -0.501716
vn 0.000000 -0.994042 -0.108996
vn 0.000000 -0.924558 0.381042
vn -0.082418 -0.915288 -0.394278
vn -0.082418 -0.915288 -0.394278
vn -0.149957 -0.985237 -0.082592
vn -0.120467 -0.949775 0.288818
vn 0.100514 0.131255 0.986240
vn 0.100514 0.131255 0.986240
vn 0.100514 0.131255 0.986240
vn 0.100514 0.131255 0.986240
vn 0.000000 0.119153 0.992876
vn 0.000000 0.119153 0.992876
vn -0.006121 0.112543 0.993628
vn -0.006121 0.112543 0.993628
vn 0.061929 0.282186 0.957359
vn 0.061929 0.282186 0.957359
vn 0.027230 0.296701 0.954582
vn 0.043578 0.249096 0.967498
vn -0.003120 0.106299 0.994329
vn -0.003120 0.106299 0.994329
vn 0.044414 0.131607 0.990307
vn 0.071091 0.147861 0.986450
vn -0.053949 -0.198723 -0.978570
vn -0.053949 -0.198723 -0.978570
vn -0.053949 -0.198723 -0.978570
vn -0.053949 -0.198723 -0.978570
vn 0.000000 -0.206629 -0.978419
vn 0.000000 -0.206629 -0.978419
vn -0.052663 -0.175962 -0.982987
vn -0.052663 -0.175962 -0.982987
vn 0.010093 -0.304933 -0.952320
vn 0.010093 -0.304933 -0.952320
vn -0.029872 -0.321435 -0.946460
vn -0.126602 -0.264634 -0.956003
vn 0.056482 -0.079501 -0.995233
vn 0.056482 -0.079501 -0.995233
vn -0.056919 -0.083316 -0.994896
vn -0.132300 -0.109817 -0.985108
g toilet_tank_1_Mesh
f 1/1/1 2/2/2 6/3/3 5/4/4
f 2/2/2 3/5/5 7/6/6 6/3/3
f 3/5/5 4/7/7 8/8/8 7/6/6
f 5/4/4 6/3/3 10/9/9 9/10/10
f 6/3/3 7/6/6 11/11/11 10/9/9
f 7/6/6 8/8/8 12/12/12 11/11/11
f 9/10/10 10/9/9 14/13/13 13/14/14
f 10/9/9 11/11/11 15/15/15 14/13/13
f 11/11/11 12/12/12 16/16/16 15/15/15
f 13/14/17 14/13/18 18/17/19 17/18/20
f 14/13/18 15/15/21 19/19/22 18/17/19
f 15/15/21 16/16/23 20/20/24 19/19/22
f 17/18/20 18/17/19 22/21/25 21/22/26
f 18/17/19 19/19/22 23/23/27 22/21/25
f 19/19/22 20/20/24 24/24/28 23/23/27
f 21/22/26 22/21/25 26/25/29 25/26/30
f 22/21/25 23/23/27 27/27/31 26/25/29
f 23/23/27 24/24/28 28/28/32 27/27/31
f 25/26/33 26/25/34 30/29/35 29/30/36
f 26/25/34 27/27/37 31/31/38 30/29/35
f 27/27/37 28/28/39 32/32/40 31/31/38
f 29/30/36 30/29/35 34/33/41 33/34/42
f 30/29/35 31/31/38 35/35/43 34/33/41
f 31/31/38 32/32/40 36/36/44 35/35/43
f 33/34/42 34/33/41 38/37/45 37/38/46
f 34/33/41 35/35/43 39/39/47 38/37/45
f 35/35/43 36/36/44 40/40/48 39/39/47
f 37/38/49 38/37/50 42/41/51 41/42/52
f 38/37/50 39/39/53 43/43/54 42/41/51
f 39/39/53 40/40/55 44/44/56 43/43/54
f 41/42/52 42/41/51 46/45/57 45/46/58
f 42/41/51 43/43/54 47/47/59 46/45/57
f 43/43/54 44/44/56 48/48/60 47/47/59
f 45/46/58 46/45/57 2/49/61 1/50/62
f 46/45/57 47/47/59 3/51/63 2/49/61
f 47/47/59 48/48/60 4/52/64 3/51/63
f 44/53/65 40/54/66 36/55/67 49/56/68
f 48/57/69 44/53/65 49/56/68 50/58/70
f 4/7/71 48/57/69 50/58/70 8/8/72
f 49/56/68 36/55/67 32/59/73 51/60/74
f 50/58/70 49/56/68 51/60/74 52/61/75
f 8/8/72 50/58/70 52/61/75 12/12/76
f 51/60/74 32/59/73 28/62/77 24/63/78
f 52/61/75 51/60/74 24/63/78 20/64/79
f 12/12/76 52/61/75 20/64/79 16/16/80
f 37/65/81 41/66/82 53/67/83 33/68/84
f 41/66/82 45/69/85 54/70/86 53/67/83
f 45/69/85 1/1/87 5/4/88 54/70/86
f 33/68/84 53/67/83 55/71/89 29/72/90
f 53/67/83 54/70/86 56/73/91 55/71/89
f 54/70/86 5/4/88 9/10/92 56/73/91
f 29/72/90 55/71/89 21/74/93 25/75/94
f 55/71/89 56/73/91 17/76/95 21/74/93
f 56/73/91 9/10/92 13/14/96 17/76/95
