# This file uses centimeters as units for non-parametric coordinates.

v 0.000000 0.926050 0.000000
v 0.000000 1.318061 1.914779
v 0.395929 1.318061 1.821063
v 0.759864 1.318061 1.549089
v 1.073765 1.318061 1.125479
v 1.330211 1.318061 0.591699
v 1.508429 1.318061 0.000000
v 1.560019 1.318061 -0.591699
v 1.429973 1.318061 -1.125479
v 1.097439 1.318061 -1.549089
v 0.595703 1.318061 -1.821063
v 0.000000 1.318061 -1.914780
v -0.595704 1.318061 -1.821063
v -1.097440 1.318061 -1.549089
v -1.429974 1.318061 -1.125479
v -1.560020 1.318061 -0.591699
v -1.508429 1.318061 0.000000
v -1.330212 1.318061 0.591700
v -1.073766 1.318061 1.125480
v -0.759864 1.318061 1.549090
v -0.395930 1.318061 1.821064
v 0.000000 2.225121 3.061308
v 0.631056 2.225121 2.911477
v 1.209848 2.225121 2.476650
v 1.708699 2.225121 1.799392
v 2.118831 2.225121 0.945996
v 2.408740 2.225121 0.000000
v 2.498719 2.225121 -0.945996
v 2.296170 2.225121 -1.799392
v 1.764889 2.225121 -2.476651
v 0.958653 2.225121 -2.911477
v 0.000000 2.225121 -3.061308
v -0.958653 2.225121 -2.911478
v -1.764889 2.225121 -2.476651
v -2.296171 2.225121 -1.799392
v -2.498720 2.225121 -0.945996
v -2.408740 2.225121 0.000000
v -2.118832 2.225121 0.945997
v -1.708701 2.225121 1.799393
v -1.209849 2.225121 2.476651
v -0.631057 2.225121 2.911479
v 0.000000 3.342510 3.625829
v 0.741665 3.342510 3.448368
v 1.413888 3.342510 2.933357
v 1.988451 3.342510 2.131209
v 2.471996 3.342510 1.120443
v 2.837965 3.342510 0.000000
v 2.980422 3.342510 -1.120443
v 2.765287 3.342510 -2.131209
v 2.136350 3.342510 -2.933358
v 1.162442 3.342510 -3.448369
v 0.000000 3.342510 -3.625830
v -1.162442 3.342510 -3.448369
v -2.136350 3.342510 -2.933358
v -2.765287 3.342510 -2.131209
v -2.980423 3.342510 -1.120443
v -2.837966 3.342510 0.000000
v -2.471997 3.342510 1.120444
v -1.988452 3.342510 2.131210
v -1.413889 3.342510 2.933359
v -0.741666 3.342510 3.448371
v 0.000000 3.342510 4.333889
v 0.886500 3.342510 4.121774
v 1.686223 3.342510 3.506190
v 2.320887 3.342510 2.547396
v 2.806106 3.342510 1.339245
v 3.221758 3.342510 0.000000
v 3.437530 3.342510 -1.339246
v 3.227587 3.342510 -2.547397
v 2.496270 3.342510 -3.506191
v 1.377204 3.342510 -4.121775
v 0.000000 3.342510 -4.333890
v -1.377204 3.342510 -4.121775
v -2.496270 3.342510 -3.506191
v -3.227587 3.342510 -2.547397
v -3.437531 3.342510 -1.339246
v -3.221759 3.342510 0.000000
v -2.806107 3.342510 1.339246
v -2.320888 3.342510 2.547398
v -1.686224 3.342510 3.506193
v -0.886500 3.342510 4.121776
v 0.000000 2.867631 4.565172
v 0.936128 2.867631 4.341736
v 1.786467 2.867631 3.693301
v 2.480236 2.867631 2.683340
v 3.015002 2.867631 1.410716
v 3.426085 2.867631 0.000000
v 3.594425 2.867631 -1.410716
v 3.335810 2.867631 -2.683341
v 2.570522 2.867631 -3.693302
v 1.410560 2.867631 -4.341737
v 0.000000 2.867631 -4.565173
v -1.410560 2.867631 -4.341737
v -2.570522 2.867631 -3.693302
v -3.335811 2.867631 -2.683342
v -3.594426 2.867631 -1.410716
v -3.426086 2.867631 0.000000
v -3.015003 2.867631 1.410716
v -2.480237 2.867631 2.683342
v -1.786468 2.867631 3.693304
v -0.936129 2.867631 4.341739
v 0.000000 -0.639979 1.307847
v 0.267923 -0.639979 1.243836
v 0.510959 -0.639979 1.058070
v 0.708035 -0.639979 0.768733
v 0.859519 -0.639979 0.404147
v 0.979281 -0.639979 0.000000
v 1.031641 -0.639979 -0.404147
v 0.960269 -0.639979 -0.768734
v 0.740516 -0.639979 -1.058071
v 0.407049 -0.639979 -1.243837
v 0.000000 -0.639979 -1.307848
v -0.407050 -0.639979 -1.243837
v -0.740517 -0.639979 -1.058071
v -0.960270 -0.639979 -0.768734
v -1.031642 -0.639979 -0.404147
v -0.979282 -0.639979 0.000000
v -0.859520 -0.639979 0.404147
v -0.708036 -0.639979 0.768734
v -0.510960 -0.639979 1.058071
v -0.267924 -0.639979 1.243837
v 0.000000 -0.873561 0.000000
v -3.079455 1.488091 -2.473207
v -3.314948 1.488091 -1.300242
v -3.155425 1.488091 0.000000
v -2.774428 1.488091 1.300242
v -2.283355 1.488091 2.473207
v -1.645687 1.488091 3.404078
v -0.862543 1.488091 4.001733
v 0.000000 1.488091 4.207670
v 0.862542 1.488091 4.001731
v 1.645686 1.488091 3.404076
v 2.283354 1.488091 2.473206
v 2.774427 1.488091 1.300241
v 3.155424 1.488091 0.000000
v 3.314947 1.488091 -1.300242
v 3.079455 1.488091 -2.473206
v 2.373558 1.488091 -3.404076
v 1.303212 1.488091 -4.001732
v 0.000000 1.488091 -4.207670
v -1.303212 1.488091 -4.001732
v -2.373558 1.488091 -3.404076
v -2.155218 0.000000 -0.844994
v -2.049549 0.000000 0.000000
v -1.800985 0.000000 0.844994
v -1.482680 0.000000 1.607275
v -1.069087 0.000000 2.212224
v -0.560418 0.000000 2.600625
v 0.000000 0.000000 2.734458
v 0.560417 0.000000 2.600623
v 1.069086 0.000000 2.212222
v 1.482679 0.000000 1.607274
v 1.800984 0.000000 0.844994
v 2.049548 0.000000 0.000000
v 2.155217 0.000000 -0.844994
v 2.003491 0.000000 -1.607274
v 1.544500 0.000000 -2.212223
v 0.848349 0.000000 -2.600624
v 0.000000 0.000000 -2.734458
v -0.848350 0.000000 -2.600624
v -1.544500 0.000000 -2.212223
v -2.003492 0.000000 -1.607274
vt 0.194329 0.293875
vt 0.076299 0.264368
vt 0.088102 0.264368
vt 0.099905 0.264368
vt 0.111708 0.264368
vt 0.123511 0.264368
vt 0.135314 0.264368
vt 0.147117 0.264368
vt 0.158920 0.264368
vt 0.170723 0.264368
vt 0.182526 0.264368
vt 0.194329 0.264368
vt 0.206132 0.264368
vt 0.217934 0.264368
vt 0.229737 0.264368
vt 0.241540 0.264368
vt 0.253343 0.264368
vt 0.265146 0.264368
vt 0.276949 0.264368
vt 0.288752 0.264368
vt 0.300555 0.264368
vt 0.312358 0.264368
vt 0.076299 0.234861
vt 0.088102 0.234861
vt 0.099905 0.234861
vt 0.111708 0.234861
vt 0.123511 0.234861
vt 0.135314 0.234861
vt 0.147117 0.234861
vt 0.158920 0.234861
vt 0.170723 0.234861
vt 0.182526 0.234861
vt 0.194329 0.234861
vt 0.206132 0.234861
vt 0.217934 0.234861
vt 0.229737 0.234861
vt 0.241540 0.234861
vt 0.253343 0.234861
vt 0.265146 0.234861
vt 0.276949 0.234861
vt 0.288752 0.234861
vt 0.300555 0.234861
vt 0.312358 0.234861
vt 0.076299 0.205353
vt 0.088102 0.205353
vt 0.099905 0.205353
vt 0.111708 0.205353
vt 0.123511 0.205353
vt 0.135314 0.205353
vt 0.147117 0.205353
vt 0.158920 0.205353
vt 0.170723 0.205353
vt 0.182526 0.205353
vt 0.194329 0.205353
vt 0.206132 0.205353
vt 0.217934 0.205353
vt 0.229737 0.205353
vt 0.241540 0.205353
vt 0.253343 0.205353
vt 0.265146 0.205353
vt 0.276949 0.205353
vt 0.288752 0.205353
vt 0.300555 0.205353
vt 0.312358 0.205353
vt 0.076299 0.175846
vt 0.088102 0.175846
vt 0.099905 0.175846
vt 0.111708 0.175846
vt 0.123511 0.175846
vt 0.135314 0.175846
vt 0.147117 0.175846
vt 0.158920 0.175846
vt 0.170723 0.175846
vt 0.182526 0.175846
vt 0.194329 0.175846
vt 0.206132 0.175846
vt 0.217934 0.175846
vt 0.229737 0.175846
vt 0.241540 0.175846
vt 0.253343 0.175846
vt 0.265146 0.175846
vt 0.276949 0.175846
vt 0.288752 0.175846
vt 0.300555 0.175846
vt 0.312358 0.175846
vt 0.076299 0.146339
vt 0.088102 0.146339
vt 0.099905 0.146339
vt 0.111708 0.146339
vt 0.123511 0.146339
vt 0.135314 0.146339
vt 0.147117 0.146339
vt 0.158920 0.146339
vt 0.170723 0.146339
vt 0.182526 0.146339
vt 0.194329 0.146339
vt 0.206132 0.146339
vt 0.217934 0.146339
vt 0.229737 0.146339
vt 0.241540 0.146339
vt 0.253343 0.146339
vt 0.265146 0.146339
vt 0.276949 0.146339
vt 0.288752 0.146339
vt 0.300555 0.146339
vt 0.312358 0.146339
vt 0.076299 0.133098
vt 0.088102 0.133098
vt 0.099905 0.133098
vt 0.111708 0.133098
vt 0.123511 0.133098
vt 0.135314 0.133098
vt 0.147117 0.133098
vt 0.158920 0.133098
vt 0.170723 0.133098
vt 0.182526 0.133098
vt 0.194329 0.133098
vt 0.206132 0.133098
vt 0.217934 0.133098
vt 0.229737 0.133098
vt 0.241540 0.133098
vt 0.253343 0.133098
vt 0.265146 0.133098
vt 0.276949 0.133098
vt 0.288752 0.133098
vt 0.300555 0.133098
vt 0.312358 0.133098
vt 0.088102 0.116831
vt 0.076299 0.116831
vt 0.194329 0.087324
vt 0.099905 0.116831
vt 0.111708 0.116831
vt 0.123511 0.116831
vt 0.135314 0.116831
vt 0.147117 0.116831
vt 0.158920 0.116831
vt 0.170723 0.116831
vt 0.182526 0.116831
vt 0.194329 0.116831
vt 0.206132 0.116831
vt 0.217934 0.116831
vt 0.229737 0.116831
vt 0.241540 0.116831
vt 0.253343 0.116831
vt 0.265146 0.116831
vt 0.276949 0.116831
vt 0.288752 0.116831
vt 0.300555 0.116831
vt 0.312358 0.116831
vt 0.229737 0.122877
vt 0.241540 0.122877
vt 0.253343 0.122877
vt 0.265146 0.122877
vt 0.276949 0.122877
vt 0.288752 0.122877
vt 0.300555 0.122877
vt 0.312358 0.122877
vt 0.076299 0.122877
vt 0.088102 0.122877
vt 0.099905 0.122877
vt 0.111708 0.122877
vt 0.123511 0.122877
vt 0.135314 0.122877
vt 0.147117 0.122877
vt 0.158920 0.122877
vt 0.170723 0.122877
vt 0.182526 0.122877
vt 0.194329 0.122877
vt 0.206132 0.122877
vt 0.217934 0.122877
vn -0.047421 0.978577 -0.200344
vn -0.047421 0.978577 -0.200343
vn -0.047421 0.978577 -0.200343
vn -0.134831 0.974305 -0.180419
vn -0.199075 0.968818 -0.147518
vn -0.234452 0.965580 -0.112639
vn -0.250807 0.965085 -0.075542
vn -0.251465 0.967618 -0.021926
vn -0.223841 0.973099 0.054535
vn -0.165647 0.977575 0.130033
vn -0.097037 0.979050 0.179013
vn -0.031538 0.979192 0.200469
vn 0.031538 0.979192 0.200469
vn 0.097037 0.979050 0.179013
vn 0.165647 0.977575 0.130033
vn 0.223841 0.973099 0.054535
vn 0.251465 0.967618 -0.021926
vn 0.250807 0.965085 -0.075542
vn 0.234452 0.965580 -0.112639
vn 0.199075 0.968818 -0.147517
vn 0.134831 0.974305 -0.180419
vn -0.145584 0.775847 -0.613895
vn -0.145584 0.775847 -0.613895
vn -0.400207 0.744916 -0.533793
vn -0.567319 0.709027 -0.418843
vn -0.652566 0.689803 -0.313577
vn -0.694434 0.687800 -0.211409
vn -0.707111 0.704099 -0.065101
vn -0.654249 0.739832 0.156866
vn -0.501166 0.770836 0.393249
vn -0.297180 0.780540 0.549947
vn -0.096740 0.780669 0.617412
vn 0.096740 0.780669 0.617412
vn 0.297180 0.780540 0.549947
vn 0.501166 0.770836 0.393249
vn 0.654249 0.739832 0.156866
vn 0.707112 0.704099 -0.065102
vn 0.694434 0.687800 -0.211408
vn 0.652565 0.689803 -0.313577
vn 0.567319 0.709027 -0.418843
vn 0.400207 0.744916 -0.533793
vn -0.208193 0.440661 -0.873198
vn -0.208193 0.440661 -0.873198
vn -0.553650 0.402161 -0.729203
vn -0.755993 0.357203 -0.548526
vn -0.850228 0.333132 -0.407598
vn -0.897567 0.336474 -0.284884
vn -0.923821 0.368452 -0.103913
vn -0.884924 0.421421 0.198276
vn -0.699925 0.456946 0.548913
vn -0.418780 0.456751 0.784858
vn -0.136345 0.447924 0.883614
vn 0.136344 0.447924 0.883615
vn 0.418779 0.456751 0.784858
vn 0.699925 0.456946 0.548913
vn 0.884924 0.421421 0.198276
vn 0.923821 0.368452 -0.103913
vn 0.897567 0.336474 -0.284883
vn 0.850228 0.333132 -0.407598
vn 0.755993 0.357203 -0.548526
vn 0.553651 0.402162 -0.729203
vn 0.000000 1.000000 0.000000
vn 0.000000 1.000000 0.000000
vn 0.000000 1.000000 0.000000
vn 0.000000 1.000000 0.000000
vn 0.000000 1.000000 0.000000
vn 0.000000 1.000000 0.000000
vn 0.000000 1.000000 0.000000
vn 0.000000 1.000000 0.000000
vn -0.000001 1.000000 0.000000
vn -0.000001 1.000000 0.000000
vn 0.000001 1.000000 0.000000
vn 0.000001 1.000000 0.000000
vn 0.000000 1.000000 0.000000
vn 0.000000 1.000000 0.000000
vn 0.000000 1.000000 0.000000
vn 0.000000 1.000000 0.000000
vn 0.000000 1.000000 0.000000
vn 0.000000 1.000000 0.000000
vn 0.000000 1.000000 0.000000
vn 0.000000 1.000000 0.000000
vn 0.000000 1.000000 0.000000
vn 0.000000 1.000000 0.000000
vn 0.000000 1.000000 0.000000
vn 0.000000 1.000000 0.000000
vn -0.000001 1.000000 0.000000
vn -0.000001 1.000000 0.000000
vn 0.000000 1.000000 0.000000
vn 0.000000 1.000000 0.000000
vn 0.000000 1.000000 0.000000
vn 0.000000 1.000000 0.000000
vn 0.000000 1.000000 0.000000
vn 0.000000 1.000000 0.000000
vn 0.000000 1.000000 0.000000
vn 0.000000 1.000000 0.000000
vn 0.000000 1.000000 0.000000
vn 0.000000 1.000000 0.000000
vn 0.000000 1.000000 0.000000
vn 0.000000 1.000000 0.000000
vn 0.000000 1.000000 0.000000
vn 0.000000 1.000000 0.000000
vn 0.210005 0.428504 0.878796
vn 0.210005 0.428504 0.878796
vn 0.210005 0.428504 0.878796
vn 0.210005 0.428504 0.878796
vn 0.557397 0.399826 0.727632
vn 0.557397 0.399826 0.727632
vn 0.765134 0.384741 0.516280
vn 0.765134 0.384741 0.516280
vn 0.846040 0.403998 0.347854
vn 0.846040 0.403998 0.347854
vn 0.877100 0.401454 0.263687
vn 0.877100 0.401454 0.263687
vn 0.929970 0.343922 0.129897
vn 0.929970 0.343922 0.129897
vn 0.937275 0.300295 -0.177028
vn 0.937275 0.300295 -0.177028
vn 0.749321 0.337719 -0.569618
vn 0.749321 0.337719 -0.569618
vn 0.445614 0.394850 -0.803443
vn 0.445614 0.394850 -0.803443
vn 0.139442 0.428940 -0.892506
vn 0.139442 0.428940 -0.892506
vn -0.139442 0.428940 -0.892506
vn -0.139442 0.428940 -0.892506
vn -0.445614 0.394850 -0.803443
vn -0.445614 0.394850 -0.803443
vn -0.749320 0.337719 -0.569618
vn -0.749320 0.337719 -0.569618
vn -0.937275 0.300295 -0.177029
vn -0.937275 0.300295 -0.177029
vn -0.929970 0.343922 0.129897
vn -0.929970 0.343922 0.129897
vn -0.877100 0.401453 0.263687
vn -0.877100 0.401453 0.263687
vn -0.846040 0.403998 0.347854
vn -0.846040 0.403998 0.347854
vn -0.765134 0.384741 0.516280
vn -0.765134 0.384741 0.516280
vn -0.557397 0.399826 0.727631
vn -0.557397 0.399826 0.727632
vn 0.225150 -0.244441 0.943163
vn 0.225150 -0.244441 0.943163
vn 0.225150 -0.244441 0.943163
vn 0.225150 -0.244441 0.943163
vn 0.591282 -0.222708 0.775104
vn 0.591282 -0.222708 0.775104
vn 0.808083 -0.199227 0.554356
vn 0.808083 -0.199227 0.554356
vn 0.905758 -0.187758 0.379934
vn 0.905758 -0.187758 0.379934
vn 0.943156 -0.185793 0.275568
vn 0.943156 -0.185793 0.275568
vn 0.974751 -0.189638 0.117886
vn 0.958615 -0.208676 -0.193679
vn 0.774870 -0.233618 -0.587366
vn 0.774870 -0.233618 -0.587366
vn 0.472859 -0.245170 -0.846343
vn 0.472859 -0.245170 -0.846343
vn 0.151402 -0.247801 -0.956908
vn 0.151402 -0.247801 -0.956908
vn -0.151402 -0.247801 -0.956908
vn -0.151402 -0.247801 -0.956908
vn -0.472859 -0.245169 -0.846343
vn -0.472859 -0.245169 -0.846343
vn -0.774870 -0.233618 -0.587366
vn -0.958615 -0.208676 -0.193679
vn -0.974751 -0.189638 0.117887
vn -0.974751 -0.189638 0.117887
vn -0.943156 -0.185794 0.275569
vn -0.943156 -0.185794 0.275569
vn -0.905758 -0.187759 0.379933
vn -0.905758 -0.187759 0.379933
vn -0.808083 -0.199227 0.554356
vn -0.808083 -0.199227 0.554356
vn -0.591282 -0.222708 0.775104
vn -0.591282 -0.222708 0.775104
vn 0.041969 -0.983555 0.175663
vn 0.041969 -0.983555 0.175663
vn 0.041969 -0.983555 0.175663
vn 0.120785 -0.980020 0.158022
vn 0.184847 -0.974669 0.125904
vn 0.220752 -0.971008 0.091721
vn 0.231468 -0.970421 0.068591
vn 0.231910 -0.972273 0.030046
vn 0.205623 -0.977803 -0.040253
vn 0.148614 -0.982433 -0.112873
vn 0.087056 -0.983870 -0.156273
vn 0.027638 -0.984047 -0.175751
vn -0.027638 -0.984047 -0.175751
vn -0.087056 -0.983870 -0.156273
vn -0.148614 -0.982433 -0.112873
vn -0.205622 -0.977803 -0.040253
vn -0.231910 -0.972273 0.030046
vn -0.231468 -0.970421 0.068592
vn -0.220752 -0.971008 0.091721
vn -0.184846 -0.974669 0.125904
vn -0.120785 -0.980020 0.158022
vn -0.756867 -0.635782 -0.151440
vn -0.756867 -0.635782 -0.151440
vn -0.799017 -0.593140 0.098774
vn -0.781112 -0.580790 0.229232
vn -0.748256 -0.584961 0.312943
vn -0.653065 -0.611293 0.447020
vn -0.457377 -0.657088 0.599201
vn -0.167294 -0.693635 0.700631
vn 0.167296 -0.693634 0.700631
vn 0.457377 -0.657088 0.599201
vn 0.653065 -0.611294 0.447019
vn 0.748256 -0.584961 0.312944
vn 0.781111 -0.580791 0.229232
vn 0.799017 -0.593140 0.098774
vn 0.756867 -0.635782 -0.151440
vn 0.584068 -0.680156 -0.443004
vn 0.349679 -0.696631 -0.626442
vn 0.111530 -0.699123 -0.706249
vn -0.111530 -0.699123 -0.706249
vn -0.349679 -0.696631 -0.626442
g toilet_bowl_1_Mesh
f 1/1/1 2/2/2 3/3/3
f 1/1/1 3/3/3 4/4/4
f 1/1/1 4/4/4 5/5/5
f 1/1/1 5/5/5 6/6/6
f 1/1/1 6/6/6 7/7/7
f 1/1/1 7/7/7 8/8/8
f 1/1/1 8/8/8 9/9/9
f 1/1/1 9/9/9 10/10/10
f 1/1/1 10/10/10 11/11/11
f 1/1/1 11/11/11 12/12/12
f 1/1/1 12/12/12 13/13/13
f 1/1/1 13/13/13 14/14/14
f 1/1/1 14/14/14 15/15/15
f 1/1/1 15/15/15 16/16/16
f 1/1/1 16/16/16 17/17/17
f 1/1/1 17/17/17 18/18/18
f 1/1/1 18/18/18 19/19/19
f 1/1/1 19/19/19 20/20/20
f 1/1/1 20/20/20 21/21/21
f 1/1/1 21/21/21 2/22/2
f 3/3/3 2/2/2 22/23/22 23/24/23
f 4/4/4 3/3/3 23/24/23 24/25/24
f 5/5/5 4/4/4 24/25/24 25/26/25
f 6/6/6 5/5/5 25/26/25 26/27/26
f 7/7/7 6/6/6 26/27/26 27/28/27
f 8/8/8 7/7/7 27/28/27 28/29/28
f 9/9/9 8/8/8 28/29/28 29/30/29
f 10/10/10 9/9/9 29/30/29 30/31/30
f 11/11/11 10/10/10 30/31/30 31/32/31
f 12/12/12 11/11/11 31/32/31 32/33/32
f 13/13/13 12/12/12 32/33/32 33/34/33
f 14/14/14 13/13/13 33/34/33 34/35/34
f 15/15/15 14/14/14 34/35/34 35/36/35
f 16/16/16 15/15/15 35/36/35 36/37/36
f 17/17/17 16/16/16 36/37/36 37/38/37
f 18/18/18 17/17/17 37/38/37 38/39/38
f 19/19/19 18/18/18 38/39/38 39/40/39
f 20/20/20 19/19/19 39/40/39 40/41/40
f 21/21/21 20/20/20 40/41/40 41/42/41
f 2/22/2 21/21/21 41/42/41 22/43/22
f 23/24/23 22/23/22 42/44/42 43/45/43
f 24/25/24 23/24/23 43/45/43 44/46/44
f 25/26/25 24/25/24 44/46/44 45/47/45
f 26/27/26 25/26/25 45/47/45 46/48/46
f 27/28/27 26/27/26 46/48/46 47/49/47
f 28/29/28 27/28/27 47/49/47 48/50/48
f 29/30/29 28/29/28 48/50/48 49/51/49
f 30/31/30 29/30/29 49/51/49 50/52/50
f 31/32/31 30/31/30 50/52/50 51/53/51
f 32/33/32 31/32/31 51/53/51 52/54/52
f 33/34/33 32/33/32 52/54/52 53/55/53
f 34/35/34 33/34/33 53/55/53 54/56/54
f 35/36/35 34/35/34 54/56/54 55/57/55
f 36/37/36 35/36/35 55/57/55 56/58/56
f 37/38/37 36/37/36 56/58/56 57/59/57
f 38/39/38 37/38/37 57/59/57 58/60/58
f 39/40/39 38/39/38 58/60/58 59/61/59
f 40/41/40 39/40/39 59/61/59 60/62/60
f 41/42/41 40/41/40 60/62/60 61/63/61
f 22/43/22 41/42/41 61/63/61 42/64/42
f 43/45/62 42/44/63 62/65/64 63/66/65
f 44/46/66 43/45/62 63/66/65 64/67/67
f 45/47/68 44/46/66 64/67/67 65/68/69
f 46/48/70 45/47/68 65/68/69 66/69/71
f 47/49/72 46/48/70 66/69/71 67/70/73
f 48/50/74 47/49/72 67/70/73 68/71/75
f 49/51/76 48/50/74 68/71/75 69/72/77
f 50/52/78 49/51/76 69/72/77 70/73/79
f 51/53/80 50/52/78 70/73/79 71/74/81
f 52/54/82 51/53/80 71/74/81 72/75/83
f 53/55/84 52/54/82 72/75/83 73/76/85
f 54/56/86 53/55/84 73/76/85 74/77/87
f 55/57/88 54/56/86 74/77/87 75/78/89
f 56/58/90 55/57/88 75/78/89 76/79/91
f 57/59/92 56/58/90 76/79/91 77/80/93
f 58/60/94 57/59/92 77/80/93 78/81/95
f 59/61/96 58/60/94 78/81/95 79/82/97
f 60/62/98 59/61/96 79/82/97 80/83/99
f 61/63/100 60/62/98 80/83/99 81/84/101
f 42/64/63 61/63/100 81/84/101 62/85/64
f 63/66/102 62/65/103 82/86/104 83/87/105
f 64/67/106 63/66/102 83/87/105 84/88/107
f 65/68/108 64/67/106 84/88/107 85/89/109
f 66/69/110 65/68/108 85/89/109 86/90/111
f 67/70/112 66/69/110 86/90/111 87/91/113
f 68/71/114 67/70/112 87/91/113 88/92/115
f 69/72/116 68/71/114 88/92/115 89/93/117
f 70/73/118 69/72/116 89/93/117 90/94/119
f 71/74/120 70/73/118 90/94/119 91/95/121
f 72/75/122 71/74/120 91/95/121 92/96/123
f 73/76/124 72/75/122 92/96/123 93/97/125
f 74/77/126 73/76/124 93/97/125 94/98/127
f 75/78/128 74/77/126 94/98/127 95/99/129
f 76/79/130 75/78/128 95/99/129 96/100/131
f 77/80/132 76/79/130 96/100/131 97/101/133
f 78/81/134 77/80/132 97/101/133 98/102/135
f 79/82/136 78/81/134 98/102/135 99/103/137
f 80/83/138 79/82/136 99/103/137 100/104/139
f 81/84/140 80/83/138 100/104/139 101/105/141
f 62/85/103 81/84/140 101/105/141 82/106/104
f 83/87/142 82/86/143 130/107/144 131/108/145
f 84/88/146 83/87/142 131/108/145 132/109/147
f 85/89/148 84/88/146 132/109/147 133/110/149
f 86/90/150 85/89/148 133/110/149 134/111/151
f 87/91/152 86/90/150 134/111/151 135/112/153
f 88/92/115 87/91/152 135/112/153 136/113/154
f 89/93/117 88/92/115 136/113/154 137/114/155
f 90/94/156 89/93/117 137/114/155 138/115/157
f 91/95/158 90/94/156 138/115/157 139/116/159
f 92/96/160 91/95/158 139/116/159 140/117/161
f 93/97/162 92/96/160 140/117/161 141/118/163
f 94/98/164 93/97/162 141/118/163 142/119/165
f 95/99/129 94/98/164 142/119/165 123/120/166
f 96/100/131 95/99/129 123/120/166 124/121/167
f 97/101/168 96/100/131 124/121/167 125/122/169
f 98/102/170 97/101/168 125/122/169 126/123/171
f 99/103/172 98/102/170 126/123/171 127/124/173
f 100/104/174 99/103/172 127/124/173 128/125/175
f 101/105/176 100/104/174 128/125/175 129/126/177
f 82/106/143 101/105/176 129/126/177 130/127/144
f 103/128/178 102/129/179 122/130/180
f 104/131/181 103/128/178 122/130/180
f 105/132/182 104/131/181 122/130/180
f 106/133/183 105/132/182 122/130/180
f 107/134/184 106/133/183 122/130/180
f 108/135/185 107/134/184 122/130/180
f 109/136/186 108/135/185 122/130/180
f 110/137/187 109/136/186 122/130/180
f 111/138/188 110/137/187 122/130/180
f 112/139/189 111/138/188 122/130/180
f 113/140/190 112/139/189 122/130/180
f 114/141/191 113/140/190 122/130/180
f 115/142/192 114/141/191 122/130/180
f 116/143/193 115/142/192 122/130/180
f 117/144/194 116/143/193 122/130/180
f 118/145/195 117/144/194 122/130/180
f 119/146/196 118/145/195 122/130/180
f 120/147/197 119/146/196 122/130/180
f 121/148/198 120/147/197 122/130/180
f 102/149/179 121/148/198 122/130/180
f 124/121/167 123/120/166 162/150/199 143/151/200
f 125/122/169 124/121/167 143/151/200 144/152/201
f 126/123/171 125/122/169 144/152/201 145/153/202
f 127/124/173 126/123/171 145/153/202 146/154/203
f 128/125/175 127/124/173 146/154/203 147/155/204
f 129/126/177 128/125/175 147/155/204 148/156/205
f 130/127/144 129/126/177 148/156/205 149/157/206
f 131/108/145 130/107/144 149/158/206 150/159/207
f 132/109/147 131/108/145 150/159/207 151/160/208
f 133/110/149 132/109/147 151/160/208 152/161/209
f 134/111/151 133/110/149 152/161/209 153/162/210
f 135/112/153 134/111/151 153/162/210 154/163/211
f 136/113/154 135/112/153 154/163/211 155/164/212
f 137/114/155 136/113/154 155/164/212 156/165/213
f 138/115/157 137/114/155 156/165/213 157/166/214
f 139/116/159 138/115/157 157/166/214 158/167/215
f 140/117/161 139/116/159 158/167/215 159/168/216
f 141/118/163 140/117/161 159/168/216 160/169/217
f 142/119/165 141/118/163 160/169/217 161/170/218
f 123/120/166 142/119/165 161/170/218 162/150/199
f 144/152/201 143/151/200 116/143/193 117/144/194
f 145/153/202 144/152/201 117/144/194 118/145/195
f 146/154/203 145/153/202 118/145/195 119/146/196
f 147/155/204 146/154/203 119/146/196 120/147/197
f 148/156/205 147/155/204 120/147/197 121/148/198
f 149/157/206 148/156/205 121/148/198 102/149/179
f 150/159/207 149/158/206 102/129/179 103/128/178
f 151/160/208 150/159/207 103/128/178 104/131/181
f 152/161/209 151/160/208 104/131/181 105/132/182
f 153/162/210 152/161/209 105/132/182 106/133/183
f 154/163/211 153/162/210 106/133/183 107/134/184
f 155/164/212 154/163/211 107/134/184 108/135/185
f 156/165/213 155/164/212 108/135/185 109/136/186
f 157/166/214 156/165/213 109/136/186 110/137/187
f 158/167/215 157/166/214 110/137/187 111/138/188
f 159/168/216 158/167/215 111/138/188 112/139/189
f 160/169/217 159/168/216 112/139/189 113/140/190
f 161/170/218 160/169/217 113/140/190 114/141/191
f 162/150/199 161/170/218 114/141/191 115/142/192
f 143/151/200 162/150/199 115/142/192 116/143/193
