# This file uses centimeters as units for non-parametric coordinates.

mtllib toilet_base_1.mtl
v 0.756161 -2.468238 2.750488
v 1.455493 -2.468238 2.295882
v 2.052007 -2.468238 1.587814
v 2.505437 -2.468238 0.695598
v 2.762591 -2.468238 -0.293432
v 2.756127 -2.468238 -1.282461
v 2.436513 -2.468238 -2.174677
v 1.812203 -2.468238 -2.882744
v 0.959854 -2.468238 -3.337351
v 0.000000 -2.468238 -3.493997
v -0.959854 -2.468238 -3.337351
v -1.812203 -2.468238 -2.882744
v -2.436513 -2.468238 -2.174677
v -2.756126 -2.468238 -1.282461
v -2.762590 -2.468238 -0.293432
v -2.505436 -2.468238 0.695597
v -2.052006 -2.468238 1.587813
v -1.455492 -2.468238 2.295879
v -0.756161 -2.468238 2.750486
v 0.000000 -2.468238 2.907133
v 0.512701 0.000000 1.791151
v 0.975214 0.000000 1.479820
v 1.342267 0.000000 0.994911
v 1.581308 0.000000 0.383890
v 1.678867 0.000000 -0.293432
v 1.620217 0.000000 -0.970754
v 1.398108 0.000000 -1.581775
v 1.025612 0.000000 -2.066683
v 0.540920 0.000000 -2.378014
v 0.000000 0.000000 -2.485291
v -0.540919 0.000000 -2.378014
v -1.025612 0.000000 -2.066683
v -1.398108 0.000000 -1.581774
v -1.620217 0.000000 -0.970753
v -1.678866 0.000000 -0.293432
v -1.581307 0.000000 0.383890
v -1.342266 0.000000 0.994910
v -0.975214 0.000000 1.479819
v -0.512700 0.000000 1.791150
v 0.000000 0.000000 1.898427
v 0.000000 -2.468238 -0.293432
v 0.000000 0.000000 -0.293432
vt 0.188245 0.112182
vt 0.192250 0.112182
vt 0.192250 0.232624
vt 0.188245 0.232624
vt 0.196255 0.112182
vt 0.196255 0.232624
vt 0.200259 0.112182
vt 0.200259 0.232624
vt 0.204264 0.112182
vt 0.204264 0.232624
vt 0.208269 0.112182
vt 0.208269 0.232624
vt 0.212273 0.112182
vt 0.212273 0.232624
vt 0.216278 0.112182
vt 0.216278 0.232624
vt 0.220283 0.112182
vt 0.220283 0.232624
vt 0.224287 0.112182
vt 0.224287 0.232624
vt 0.228292 0.112182
vt 0.228292 0.232624
vt 0.232297 0.112182
vt 0.232297 0.232624
vt 0.236301 0.112182
vt 0.236301 0.232624
vt 0.240306 0.112182
vt 0.240306 0.232624
vt 0.244311 0.112182
vt 0.244311 0.232624
vt 0.248315 0.112182
vt 0.248315 0.232624
vt 0.252320 0.112182
vt 0.252320 0.232624
vt 0.256325 0.112182
vt 0.256325 0.232624
vt 0.260329 0.112182
vt 0.260329 0.232624
vt 0.264334 0.112182
vt 0.264334 0.232624
vt 0.268339 0.112182
vt 0.268339 0.232624
vt 0.268790 0.032700
vt 0.275901 0.046655
vt 0.228292 0.060121
vt 0.257716 0.021625
vt 0.243761 0.014515
vt 0.228292 0.012065
vt 0.212823 0.014515
vt 0.198869 0.021625
vt 0.187794 0.032700
vt 0.180683 0.046655
vt 0.178234 0.062124
vt 0.180683 0.077593
vt 0.187794 0.091547
vt 0.198869 0.102622
vt 0.212823 0.109732
vt 0.228292 0.112182
vt 0.243761 0.109732
vt 0.257716 0.102622
vt 0.268790 0.091547
vt 0.275901 0.077593
vt 0.278351 0.062124
vt 0.275901 0.297850
vt 0.268790 0.311804
vt 0.228292 0.280379
vt 0.257716 0.322879
vt 0.243761 0.329990
vt 0.228292 0.332439
vt 0.212823 0.329990
vt 0.198869 0.322879
vt 0.187794 0.311804
vt 0.180683 0.297850
vt 0.178234 0.282381
vt 0.180683 0.266912
vt 0.187794 0.252957
vt 0.198869 0.241883
vt 0.212823 0.234772
vt 0.228292 0.232322
vt 0.243761 0.234772
vt 0.257716 0.241883
vt 0.268790 0.252957
vt 0.275901 0.266912
vt 0.278351 0.282381
vn 0.514341 0.356006 0.780201
vn 0.514341 0.356006 0.780201
vn 0.514341 0.356006 0.780201
vn 0.514341 0.356006 0.780201
vn 0.730339 0.344427 0.589894
vn 0.730339 0.344427 0.589894
vn 0.730339 0.344427 0.589894
vn 0.730339 0.344427 0.589894
vn 0.849794 0.352999 0.391460
vn 0.849794 0.352999 0.391460
vn 0.849794 0.352999 0.391460
vn 0.849794 0.352999 0.391460
vn 0.904667 0.380122 0.192575
vn 0.904667 0.380122 0.192575
vn 0.904667 0.380122 0.192575
vn 0.904667 0.380122 0.192575
vn 0.910625 0.411700 -0.035583
vn 0.910625 0.411700 -0.035583
vn 0.910625 0.411700 -0.035583
vn 0.910625 0.411700 -0.035583
vn 0.849288 0.430161 -0.306058
vn 0.849288 0.430161 -0.306058
vn 0.849288 0.430161 -0.306058
vn 0.849288 0.430162 -0.306058
vn 0.695375 0.422915 -0.581030
vn 0.695375 0.422915 -0.581030
vn 0.695376 0.422914 -0.581030
vn 0.695375 0.422915 -0.581030
vn 0.456073 0.397705 -0.796133
vn 0.456073 0.397705 -0.796133
vn 0.456073 0.397705 -0.796133
vn 0.456073 0.397705 -0.796133
vn 0.160403 0.377249 -0.912115
vn 0.160403 0.377249 -0.912115
vn 0.160403 0.377249 -0.912115
vn 0.160403 0.377249 -0.912115
vn -0.160403 0.377249 -0.912115
vn -0.160403 0.377249 -0.912115
vn -0.160403 0.377249 -0.912115
vn -0.160403 0.377249 -0.912115
vn -0.456073 0.397705 -0.796133
vn -0.456073 0.397705 -0.796133
vn -0.456073 0.397705 -0.796133
vn -0.456073 0.397705 -0.796133
vn -0.695376 0.422915 -0.581030
vn -0.695376 0.422915 -0.581030
vn -0.695376 0.422915 -0.581030
vn -0.695376 0.422915 -0.581030
vn -0.849288 0.430161 -0.306058
vn -0.849288 0.430161 -0.306058
vn -0.849288 0.430161 -0.306058
vn -0.849288 0.430161 -0.306058
vn -0.910625 0.411700 -0.035584
vn -0.910625 0.411700 -0.035584
vn -0.910625 0.411700 -0.035584
vn -0.910625 0.411700 -0.035584
vn -0.904667 0.380122 0.192575
vn -0.904667 0.380122 0.192575
vn -0.904667 0.380122 0.192575
vn -0.904667 0.380122 0.192575
vn -0.849794 0.352999 0.391461
vn -0.849794 0.352999 0.391461
vn -0.849794 0.352999 0.391461
vn -0.849794 0.352999 0.391461
vn -0.730339 0.344427 0.589894
vn -0.730339 0.344427 0.589894
vn -0.730339 0.344427 0.589894
vn -0.730339 0.344427 0.589894
vn -0.514341 0.356006 0.780201
vn -0.514341 0.356006 0.780201
vn -0.514341 0.356006 0.780201
vn -0.514341 0.356006 0.780201
vn -0.189054 0.371681 0.908907
vn -0.189054 0.371681 0.908907
vn -0.189054 0.371681 0.908907
vn -0.189054 0.371681 0.908907
vn 0.189051 0.371681 0.908907
vn 0.189051 0.371681 0.908907
vn 0.189051 0.371681 0.908907
vn 0.189051 0.371681 0.908907
vn 0.000000 -1.000000 0.000000
vn 0.000000 -1.000000 0.000000
vn 0.000000 -1.000000 0.000000
vn 0.000000 -1.000000 0.000000
vn 0.000000 -1.000000 0.000000
vn 0.000000 -1.000000 0.000000
vn 0.000000 -1.000000 0.000000
vn 0.000000 -1.000000 0.000000
vn 0.000000 -1.000000 0.000000
vn 0.000000 -1.000000 0.000000
vn 0.000000 -1.000000 0.000000
vn 0.000000 -1.000000 0.000000
vn 0.000000 -1.000000 0.000000
vn 0.000000 -1.000000 0.000000
vn 0.000000 -1.000000 0.000000
vn 0.000000 -1.000000 0.000000
vn 0.000000 -1.000000 0.000000
vn 0.000000 -1.000000 0.000000
vn 0.000000 -1.000000 0.000000
vn 0.000000 -1.000000 0.000000
vn 0.000000 -1.000000 0.000000
vn 0.000000 -1.000000 0.000000
vn 0.000000 -1.000000 0.000000
vn 0.000000 -1.000000 0.000000
vn 0.000000 -1.000000 0.000000
vn 0.000000 -1.000000 0.000000
vn 0.000000 -1.000000 0.000000
vn 0.000000 -1.000000 0.000000
vn 0.000000 -1.000000 0.000000
vn 0.000000 -1.000000 0.000000
vn 0.000000 -1.000000 0.000000
vn 0.000000 -1.000000 0.000000
vn 0.000000 -1.000000 0.000000
vn 0.000000 -1.000000 0.000000
vn 0.000000 -1.000000 0.000000
vn 0.000000 -1.000000 0.000000
vn 0.000000 -1.000000 0.000000
vn 0.000000 -1.000000 0.000000
vn 0.000000 -1.000000 0.000000
vn 0.000000 -1.000000 0.000000
vn 0.000000 -1.000000 0.000000
vn 0.000000 -1.000000 0.000000
vn 0.000000 -1.000000 0.000000
vn 0.000000 -1.000000 0.000000
vn 0.000000 -1.000000 0.000000
vn 0.000000 -1.000000 0.000000
vn 0.000000 -1.000000 0.000000
vn 0.000000 -1.000000 0.000000
vn 0.000000 -1.000000 0.000000
vn 0.000000 -1.000000 0.000000
vn 0.000000 -1.000000 0.000000
vn 0.000000 -1.000000 0.000000
vn 0.000000 -1.000000 0.000000
vn 0.000000 -1.000000 0.000000
vn 0.000000 -1.000000 0.000000
vn 0.000000 -1.000000 0.000000
vn 0.000000 -1.000000 0.000000
vn 0.000000 -1.000000 0.000000
vn 0.000000 -1.000000 0.000000
vn 0.000000 -1.000000 0.000000
vn 0.000000 1.000000 0.000000
vn 0.000000 1.000000 0.000000
vn 0.000000 1.000000 0.000000
vn 0.000000 1.000000 0.000000
vn 0.000000 1.000000 0.000000
vn 0.000000 1.000000 0.000000
vn 0.000000 1.000000 0.000000
vn 0.000000 1.000000 0.000000
vn 0.000000 1.000000 0.000000
vn 0.000000 1.000000 0.000000
vn 0.000000 1.000000 0.000000
vn 0.000000 1.000000 0.000000
vn 0.000000 1.000000 0.000000
vn 0.000000 1.000000 0.000000
vn 0.000000 1.000000 0.000000
vn 0.000000 1.000000 0.000000
vn 0.000000 1.000000 0.000000
vn 0.000000 1.000000 0.000000
vn 0.000000 1.000000 0.000000
vn 0.000000 1.000000 0.000000
vn 0.000000 1.000000 0.000000
vn 0.000000 1.000000 0.000000
vn 0.000000 1.000000 0.000000
vn 0.000000 1.000000 0.000000
vn -0.000001 1.000000 0.000000
vn -0.000001 1.000000 0.000000
vn -0.000001 1.000000 0.000000
vn 0.000001 1.000000 -0.000000
vn 0.000001 1.000000 -0.000000
vn 0.000001 1.000000 -0.000000
vn 0.000000 1.000000 0.000000
vn 0.000000 1.000000 0.000000
vn 0.000000 1.000000 0.000000
vn 0.000000 1.000000 0.000000
vn 0.000000 1.000000 0.000000
vn 0.000000 1.000000 0.000000
vn 0.000000 1.000000 0.000000
vn 0.000000 1.000000 0.000000
vn 0.000000 1.000000 0.000000
vn 0.000000 1.000000 0.000000
vn 0.000000 1.000000 0.000000
vn 0.000000 1.000000 0.000000
vn 0.000000 1.000000 0.000000
vn 0.000000 1.000000 0.000000
vn 0.000000 1.000000 0.000000
vn 0.000000 1.000000 0.000000
vn 0.000000 1.000000 0.000000
vn 0.000000 1.000000 0.000000
vn 0.000000 1.000000 0.000000
vn 0.000000 1.000000 0.000000
vn 0.000000 1.000000 0.000000
vn 0.000000 1.000000 0.000000
vn 0.000000 1.000000 0.000000
vn 0.000000 1.000000 0.000000
vn 0.000000 1.000000 0.000000
vn 0.000000 1.000000 0.000000
vn 0.000000 1.000000 0.000000
vn 0.000000 1.000000 0.000000
vn 0.000000 1.000000 0.000000
vn 0.000000 1.000000 0.000000
s off
usemtl toilet_base_1_initialShadingGroup
f 1/1/1 2/2/2 22/3/3 21/4/4
f 2/2/5 3/5/6 23/6/7 22/3/8
f 3/5/9 4/7/10 24/8/11 23/6/12
f 4/7/13 5/9/14 25/10/15 24/8/16
f 5/9/17 6/11/18 26/12/19 25/10/20
f 6/11/21 7/13/22 27/14/23 26/12/24
f 7/13/25 8/15/26 28/16/27 27/14/28
f 8/15/29 9/17/30 29/18/31 28/16/32
f 9/17/33 10/19/34 30/20/35 29/18/36
f 10/19/37 11/21/38 31/22/39 30/20/40
f 11/21/41 12/23/42 32/24/43 31/22/44
f 12/23/45 13/25/46 33/26/47 32/24/48
f 13/25/49 14/27/50 34/28/51 33/26/52
f 14/27/53 15/29/54 35/30/55 34/28/56
f 15/29/57 16/31/58 36/32/59 35/30/60
f 16/31/61 17/33/62 37/34/63 36/32/64
f 17/33/65 18/35/66 38/36/67 37/34/68
f 18/35/69 19/37/70 39/38/71 38/36/72
f 19/37/73 20/39/74 40/40/75 39/38/76
f 20/39/77 1/41/78 21/42/79 40/40/80
f 2/43/81 1/44/82 41/45/83
f 3/46/84 2/43/85 41/45/86
f 4/47/87 3/46/88 41/45/89
f 5/48/90 4/47/91 41/45/92
f 6/49/93 5/48/94 41/45/95
f 7/50/96 6/49/97 41/45/98
f 8/51/99 7/50/100 41/45/101
f 9/52/102 8/51/103 41/45/104
f 10/53/105 9/52/106 41/45/107
f 11/54/108 10/53/109 41/45/110
f 12/55/111 11/54/112 41/45/113
f 13/56/114 12/55/115 41/45/116
f 14/57/117 13/56/118 41/45/119
f 15/58/120 14/57/121 41/45/122
f 16/59/123 15/58/124 41/45/125
f 17/60/126 16/59/127 41/45/128
f 18/61/129 17/60/130 41/45/131
f 19/62/132 18/61/133 41/45/134
f 20/63/135 19/62/136 41/45/137
f 1/44/138 20/63/139 41/45/140
f 21/64/141 22/65/142 42/66/143
f 22/65/144 23/67/145 42/66/146
f 23/67/147 24/68/148 42/66/149
f 24/68/150 25/69/151 42/66/152
f 25/69/153 26/70/154 42/66/155
f 26/70/156 27/71/157 42/66/158
f 27/71/159 28/72/160 42/66/161
f 28/72/162 29/73/163 42/66/164
f 29/73/165 30/74/166 42/66/167
f 30/74/168 31/75/169 42/66/170
f 31/75/171 32/76/172 42/66/173
f 32/76/174 33/77/175 42/66/176
f 33/77/177 34/78/178 42/66/179
f 34/78/180 35/79/181 42/66/182
f 35/79/183 36/80/184 42/66/185
f 36/80/186 37/81/187 42/66/188
f 37/81/189 38/82/190 42/66/191
f 38/82/192 39/83/193 42/66/194
f 39/83/195 40/84/196 42/66/197
f 40/84/198 21/64/199 42/66/200
