# This file uses centimeters as units for non-parametric coordinates.

mtllib toilet_tank_1.mtl
v -3.192765 -0.924478 -2.174879
v -3.306746 -1.113058 -1.450640
v -3.306746 -1.157696 -0.675713
v -3.192765 -1.047967 -0.004412
v -3.306746 1.531313 -2.526431
v -3.587886 1.529559 -1.775253
v -3.587887 1.570380 -0.987348
v -3.306746 1.633245 -0.290157
v -3.306746 4.135749 -3.161547
v -3.587886 4.276282 -2.408298
v -3.587886 4.367498 -1.618715
v -3.306746 4.413440 -0.922981
v -3.192765 6.708226 -3.529541
v -3.306746 6.934212 -2.832216
v -3.306746 7.022896 -2.051706
v -3.192765 6.975159 -1.334733
v -1.128370 6.732190 -3.743547
v -1.155194 7.173011 -3.046044
v -1.155194 7.267160 -2.251138
v -1.128370 7.028229 -1.471909
v 1.128371 6.723198 -3.861074
v 1.155194 7.165837 -3.139814
v 1.155194 7.261239 -2.328529
v 1.128371 7.022567 -1.545915
v 3.192765 6.691751 -3.744883
v 3.306746 6.919116 -3.029523
v 3.306746 7.009089 -2.232174
v 3.192765 6.963166 -1.491492
v 3.306746 4.107674 -3.528514
v 3.587887 4.246470 -2.797956
v 3.587887 4.337820 -2.006616
v 3.306746 4.387853 -1.257415
v 3.306746 1.519034 -2.821417
v 3.587887 1.521156 -2.108258
v 3.587887 1.562153 -1.318476
v 3.306746 1.627977 -0.554498
v 3.192765 -0.919547 -2.338734
v 3.306746 -1.103180 -1.622146
v 3.306746 -1.147827 -0.847043
v 3.192765 -1.040274 -0.148573
v 1.128370 -0.989938 -2.191813
v 1.155194 -1.420276 -1.449848
v 1.155194 -1.506586 -0.662694
v 1.128370 -1.214585 0.045818
v -1.128370 -0.989938 -2.191813
v -1.155194 -1.420276 -1.449848
v -1.155194 -1.506586 -0.662694
v -1.128370 -1.214585 0.045818
v 1.155194 1.573977 -0.288833
v -1.155194 1.573977 -0.288833
v 1.155194 4.354647 -1.219020
v -1.155194 4.364426 -1.090247
v 1.155194 1.512047 -2.720198
v -1.155194 1.512047 -2.720198
v 1.155194 4.028595 -3.647782
v -1.155194 4.039665 -3.505701
vt 0.170379 0.096831
vt 0.187477 0.096831
vt 0.187477 0.113930
vt 0.170379 0.113930
vt 0.204576 0.096831
vt 0.204576 0.113930
vt 0.221675 0.096831
vt 0.221675 0.113930
vt 0.187477 0.131029
vt 0.170379 0.131029
vt 0.204576 0.131029
vt 0.221675 0.131029
vt 0.187477 0.148127
vt 0.170379 0.148127
vt 0.204576 0.148127
vt 0.221675 0.148127
vt 0.187477 0.165226
vt 0.170379 0.165226
vt 0.204576 0.165226
vt 0.221675 0.165226
vt 0.187477 0.182325
vt 0.170379 0.182325
vt 0.204576 0.182325
vt 0.221675 0.182325
vt 0.187477 0.199423
vt 0.170379 0.199423
vt 0.204576 0.199423
vt 0.221675 0.199423
vt 0.187477 0.216522
vt 0.170379 0.216522
vt 0.204576 0.216522
vt 0.221675 0.216522
vt 0.187477 0.233620
vt 0.170379 0.233620
vt 0.204576 0.233620
vt 0.221675 0.233620
vt 0.187477 0.250719
vt 0.170379 0.250719
vt 0.204576 0.250719
vt 0.221675 0.250719
vt 0.187477 0.267818
vt 0.170379 0.267818
vt 0.204576 0.267818
vt 0.221675 0.267818
vt 0.187477 0.284916
vt 0.170379 0.284916
vt 0.204576 0.284916
vt 0.221675 0.284916
vt 0.187477 0.302015
vt 0.170379 0.302015
vt 0.204576 0.302015
vt 0.221675 0.302015
vt 0.255872 0.096831
vt 0.272971 0.096831
vt 0.272971 0.113930
vt 0.255872 0.113930
vt 0.238773 0.096831
vt 0.238773 0.113930
vt 0.272971 0.131029
vt 0.255872 0.131029
vt 0.238773 0.131029
vt 0.272971 0.148127
vt 0.255872 0.148127
vt 0.238773 0.148127
vt 0.119083 0.096831
vt 0.136181 0.096831
vt 0.136181 0.113930
vt 0.119083 0.113930
vt 0.153280 0.096831
vt 0.153280 0.113930
vt 0.136181 0.131029
vt 0.119083 0.131029
vt 0.153280 0.131029
vt 0.136181 0.148127
vt 0.119083 0.148127
vt 0.153280 0.148127
vn -0.956465 -0.109977 -0.270332
vn -0.956465 -0.109977 -0.270332
vn -0.956465 -0.109977 -0.270332
vn -0.956465 -0.109977 -0.270332
vn -0.994561 -0.104155 -0.000254
vn -0.994561 -0.104155 -0.000254
vn -0.994561 -0.104155 -0.000254
vn -0.994561 -0.104155 -0.000254
vn -0.958709 -0.038918 0.281715
vn -0.958709 -0.038918 0.281715
vn -0.958709 -0.038918 0.281715
vn -0.958709 -0.038918 0.281715
vn -0.936056 -0.081137 -0.342367
vn -0.936056 -0.081137 -0.342367
vn -0.936056 -0.081137 -0.342367
vn -0.936056 -0.081137 -0.342367
vn -1.000000 0.000000 0.000000
vn -1.000000 0.000000 0.000000
vn -1.000000 0.000000 0.000000
vn -1.000000 0.000000 0.000000
vn -0.926318 0.083282 0.367421
vn -0.926318 0.083282 0.367421
vn -0.926318 0.083282 0.367421
vn -0.926318 0.083282 0.367421
vn -0.962293 0.031792 -0.270152
vn -0.962293 0.031792 -0.270152
vn -0.962293 0.031792 -0.270152
vn -0.962293 0.031792 -0.270152
vn -0.994576 0.103341 -0.011841
vn -0.994576 0.103341 -0.011841
vn -0.994576 0.103341 -0.011841
vn -0.994576 0.103341 -0.011841
vn -0.956526 0.115785 0.267680
vn -0.956526 0.115785 0.267680
vn -0.956526 0.115785 0.267680
vn -0.956526 0.115785 0.267680
vn -0.100083 0.893707 -0.437345
vn -0.100083 0.893707 -0.437345
vn -0.100083 0.893707 -0.437345
vn -0.100083 0.893707 -0.437345
vn -0.121672 0.985953 -0.114424
vn -0.121672 0.985953 -0.114424
vn -0.121672 0.985953 -0.114424
vn -0.121672 0.985953 -0.114424
vn -0.053707 0.979772 0.192775
vn -0.053707 0.979772 0.192775
vn -0.053707 0.979772 0.192775
vn -0.053707 0.979772 0.192775
vn -0.021446 0.848681 -0.528470
vn -0.021446 0.848681 -0.528470
vn -0.021446 0.848681 -0.528470
vn -0.021446 0.848681 -0.528470
vn -0.001527 0.993107 -0.117200
vn -0.001527 0.993107 -0.117200
vn -0.001527 0.993107 -0.117200
vn -0.001527 0.993107 -0.117200
vn 0.012118 0.956218 0.292406
vn 0.012118 0.956218 0.292406
vn 0.012118 0.956218 0.292406
vn 0.012118 0.956218 0.292406
vn 0.082372 0.900088 -0.427851
vn 0.082372 0.900088 -0.427851
vn 0.082372 0.900088 -0.427851
vn 0.082372 0.900088 -0.427851
vn 0.119800 0.986271 -0.113655
vn 0.119800 0.986271 -0.113655
vn 0.119800 0.986271 -0.113655
vn 0.119800 0.986271 -0.113655
vn 0.065639 0.979759 0.189114
vn 0.065639 0.979759 0.189114
vn 0.065639 0.979759 0.189114
vn 0.065639 0.979759 0.189114
vn 0.960275 0.048766 -0.274761
vn 0.960275 0.048766 -0.274761
vn 0.960275 0.048766 -0.274761
vn 0.960275 0.048766 -0.274761
vn 0.994545 0.103633 -0.011828
vn 0.994545 0.103633 -0.011828
vn 0.994545 0.103633 -0.011828
vn 0.994545 0.103633 -0.011828
vn 0.962297 0.094806 0.254943
vn 0.962297 0.094806 0.254943
vn 0.962297 0.094806 0.254943
vn 0.962297 0.094806 0.254943
vn 0.930825 -0.092908 -0.353458
vn 0.930825 -0.092908 -0.353458
vn 0.930825 -0.092908 -0.353458
vn 0.930825 -0.092908 -0.353458
vn 1.000000 0.000000 0.000000
vn 1.000000 0.000000 0.000000
vn 1.000000 0.000000 0.000000
vn 1.000000 0.000000 0.000000
vn 0.936049 0.085757 0.341260
vn 0.936049 0.085757 0.341260
vn 0.936049 0.085757 0.341260
vn 0.936049 0.085757 0.341260
vn 0.951697 -0.127702 -0.279221
vn 0.951697 -0.127702 -0.279221
vn 0.951697 -0.127702 -0.279221
vn 0.951697 -0.127702 -0.279221
vn 0.994486 -0.104871 -0.000244
vn 0.994486 -0.104871 -0.000244
vn 0.994486 -0.104871 -0.000244
vn 0.994486 -0.104871 -0.000244
vn 0.964178 -0.027802 0.263796
vn 0.964178 -0.027802 0.263796
vn 0.964178 -0.027802 0.263796
vn 0.964178 -0.027802 0.263796
vn 0.054737 -0.918389 -0.391875
vn 0.054737 -0.918389 -0.391875
vn 0.054737 -0.918389 -0.391875
vn 0.054737 -0.918389 -0.391875
vn 0.147944 -0.985539 -0.082614
vn 0.147944 -0.985539 -0.082614
vn 0.147944 -0.985539 -0.082614
vn 0.147944 -0.985539 -0.082614
vn 0.145332 -0.947833 0.283710
vn 0.145332 -0.947833 0.283710
vn 0.145332 -0.947833 0.283710
vn 0.145332 -0.947833 0.283710
vn 0.000000 -0.865032 -0.501716
vn 0.000000 -0.865032 -0.501716
vn 0.000000 -0.865032 -0.501716
vn 0.000000 -0.865032 -0.501716
vn 0.000000 -0.994042 -0.108996
vn 0.000000 -0.994042 -0.108996
vn 0.000000 -0.994042 -0.108996
vn 0.000000 -0.994042 -0.108996
vn 0.000000 -0.924558 0.381042
vn 0.000000 -0.924558 0.381042
vn 0.000000 -0.924558 0.381042
vn 0.000000 -0.924558 0.381042
vn -0.082418 -0.915288 -0.394278
vn -0.082418 -0.915288 -0.394278
vn -0.082418 -0.915288 -0.394278
vn -0.082418 -0.915288 -0.394278
vn -0.149957 -0.985237 -0.082592
vn -0.149957 -0.985237 -0.082592
vn -0.149957 -0.985237 -0.082592
vn -0.149957 -0.985237 -0.082592
vn -0.120467 -0.949775 0.288818
vn -0.120467 -0.949775 0.288818
vn -0.120467 -0.949775 0.288818
vn -0.120467 -0.949775 0.288818
vn 0.100514 0.131255 0.986240
vn 0.100514 0.131255 0.986240
vn 0.100514 0.131255 0.986240
vn 0.100514 0.131255 0.986240
vn 0.000000 0.119153 0.992876
vn 0.000000 0.119153 0.992876
vn 0.000000 0.119153 0.992876
vn 0.000000 0.119153 0.992876
vn -0.006121 0.112543 0.993628
vn -0.006121 0.112543 0.993628
vn -0.006121 0.112543 0.993628
vn -0.006121 0.112543 0.993628
vn 0.061929 0.282186 0.957359
vn 0.061929 0.282186 0.957359
vn 0.061929 0.282186 0.957359
vn 0.061929 0.282186 0.957359
vn 0.027230 0.296701 0.954582
vn 0.027230 0.296701 0.954582
vn 0.027230 0.296701 0.954582
vn 0.027230 0.296701 0.954582
vn 0.043578 0.249096 0.967498
vn 0.043578 0.249096 0.967498
vn 0.043578 0.249096 0.967498
vn 0.043578 0.249096 0.967498
vn -0.003120 0.106299 0.994329
vn -0.003120 0.106299 0.994329
vn -0.003120 0.106299 0.994329
vn -0.003120 0.106299 0.994329
vn 0.044414 0.131607 0.990307
vn 0.044414 0.131607 0.990307
vn 0.044414 0.131607 0.990307
vn 0.044414 0.131607 0.990307
vn 0.071091 0.147861 0.986450
vn 0.071091 0.147861 0.986450
vn 0.071091 0.147861 0.986450
vn 0.071091 0.147861 0.986450
vn -0.053949 -0.198723 -0.978570
vn -0.053949 -0.198723 -0.978570
vn -0.053949 -0.198723 -0.978570
vn -0.053949 -0.198723 -0.978570
vn 0.000000 -0.206629 -0.978419
vn 0.000000 -0.206629 -0.978419
vn 0.000000 -0.206629 -0.978419
vn 0.000000 -0.206629 -0.978419
vn -0.052663 -0.175962 -0.982987
vn -0.052663 -0.175962 -0.982987
vn -0.052663 -0.175962 -0.982987
vn -0.052663 -0.175962 -0.982987
vn 0.010093 -0.304933 -0.952320
vn 0.010093 -0.304933 -0.952320
vn 0.010093 -0.304933 -0.952320
vn 0.010093 -0.304933 -0.952320
vn -0.029872 -0.321435 -0.946460
vn -0.029872 -0.321435 -0.946460
vn -0.029872 -0.321435 -0.946460
vn -0.029872 -0.321435 -0.946460
vn -0.126602 -0.264634 -0.956003
vn -0.126602 -0.264634 -0.956003
vn -0.126602 -0.264634 -0.956003
vn -0.126602 -0.264634 -0.956003
vn 0.056482 -0.079501 -0.995233
vn 0.056482 -0.079501 -0.995233
vn 0.056482 -0.079501 -0.995233
vn 0.056482 -0.079501 -0.995233
vn -0.056919 -0.083316 -0.994896
vn -0.056919 -0.083316 -0.994896
vn -0.056919 -0.083316 -0.994896
vn -0.056919 -0.083316 -0.994896
vn -0.132300 -0.109817 -0.985108
vn -0.132300 -0.109817 -0.985108
vn -0.132300 -0.109817 -0.985108
vn -0.132300 -0.109817 -0.985108
s off
usemtl toilet_tank_1_initialShadingGroup
f 1/1/1 2/2/2 6/3/3 5/4/4
f 2/2/5 3/5/6 7/6/7 6/3/8
f 3/5/9 4/7/10 8/8/11 7/6/12
f 5/4/13 6/3/14 10/9/15 9/10/16
f 6/3/17 7/6/18 11/11/19 10/9/20
f 7/6/21 8/8/22 12/12/23 11/11/24
f 9/10/25 10/9/26 14/13/27 13/14/28
f 10/9/29 11/11/30 15/15/31 14/13/32
f 11/11/33 12/12/34 16/16/35 15/15/36
f 13/14/37 14/13/38 18/17/39 17/18/40
f 14/13/41 15/15/42 19/19/43 18/17/44
f 15/15/45 16/16/46 20/20/47 19/19/48
f 17/18/49 18/17/50 22/21/51 21/22/52
f 18/17/53 19/19/54 23/23/55 22/21/56
f 19/19/57 20/20/58 24/24/59 23/23/60
f 21/22/61 22/21/62 26/25/63 25/26/64
f 22/21/65 23/23/66 27/27/67 26/25/68
f 23/23/69 24/24/70 28/28/71 27/27/72
f 25/26/73 26/25/74 30/29/75 29/30/76
f 26/25/77 27/27/78 31/31/79 30/29/80
f 27/27/81 28/28/82 32/32/83 31/31/84
f 29/30/85 30/29/86 34/33/87 33/34/88
f 30/29/89 31/31/90 35/35/91 34/33/92
f 31/31/93 32/32/94 36/36/95 35/35/96
f 33/34/97 34/33/98 38/37/99 37/38/100
f 34/33/101 35/35/102 39/39/103 38/37/104
f 35/35/105 36/36/106 40/40/107 39/39/108
f 37/38/109 38/37/110 42/41/111 41/42/112
f 38/37/113 39/39/114 43/43/115 42/41/116
f 39/39/117 40/40/118 44/44/119 43/43/120
f 41/42/121 42/41/122 46/45/123 45/46/124
f 42/41/125 43/43/126 47/47/127 46/45/128
f 43/43/129 44/44/130 48/48/131 47/47/132
f 45/46/133 46/45/134 2/49/135 1/50/136
f 46/45/137 47/47/138 3/51/139 2/49/140
f 47/47/141 48/48/142 4/52/143 3/51/144
f 44/53/145 40/54/146 36/55/147 49/56/148
f 48/57/149 44/53/150 49/56/151 50/58/152
f 4/7/153 48/57/154 50/58/155 8/8/156
f 49/56/157 36/55/158 32/59/159 51/60/160
f 50/58/161 49/56/162 51/60/163 52/61/164
f 8/8/165 50/58/166 52/61/167 12/12/168
f 51/60/169 32/59/170 28/62/171 24/63/172
f 52/61/173 51/60/174 24/63/175 20/64/176
f 12/12/177 52/61/178 20/64/179 16/16/180
f 37/65/181 41/66/182 53/67/183 33/68/184
f 41/66/185 45/69/186 54/70/187 53/67/188
f 45/69/189 1/1/190 5/4/191 54/70/192
f 33/68/193 53/67/194 55/71/195 29/72/196
f 53/67/197 54/70/198 56/73/199 55/71/200
f 54/70/201 5/4/202 9/10/203 56/73/204
f 29/72/205 55/71/206 21/74/207 25/75/208
f 55/71/209 56/73/210 17/76/211 21/74/212
f 56/73/213 9/10/214 13/14/215 17/76/216
