# This file uses centimeters as units for non-parametric coordinates.

mtllib towel_rack_mount_1.mtl
v -6.341362 -0.221033 1.147337
v -5.918798 -0.221033 1.147337
v -6.341362 0.221033 1.147337
v -5.918798 0.221033 1.147337
v -6.588274 0.479341 -1.147337
v -5.671885 0.479341 -1.147337
v -6.588274 -0.479342 -1.147337
v -5.671885 -0.479342 -1.147337
v -5.918798 0.221033 -0.764891
v -6.341362 0.221033 -0.764891
v -6.341362 -0.221033 -0.764891
v -5.918798 -0.221033 -0.764891
v -5.918798 0.221033 -0.382446
v -6.341362 0.221033 -0.382446
v -6.341362 -0.221033 -0.382446
v -5.918798 -0.221033 -0.382446
v -5.918798 0.221033 0.000000
v -6.341362 0.221033 0.000000
v -6.341362 -0.221033 0.000000
v -5.918798 -0.221033 0.000000
v -5.799680 0.345649 0.382446
v -6.460479 0.345649 0.382446
v -6.460479 -0.345649 0.382446
v -5.799680 -0.345649 0.382446
v -5.870764 0.271284 0.764891
v -6.389396 0.271284 0.764891
v -6.389396 -0.271284 0.764891
v -5.870764 -0.271284 0.764891
v -5.790808 0.349024 -0.000000
v -6.469352 0.349024 0.000000
v -5.790808 0.349024 -0.382446
v -6.469352 0.349024 -0.382446
v -6.469352 -0.349024 -0.382446
v -6.469352 -0.349024 0.000000
v -5.790808 -0.349024 -0.382446
v -5.790808 -0.349024 -0.000000
v 5.918718 -0.221033 1.147337
v 6.341282 -0.221033 1.147337
v 5.918718 0.221033 1.147337
v 6.341282 0.221033 1.147337
v 5.671806 0.479341 -1.147337
v 6.588194 0.479341 -1.147337
v 5.671806 -0.479342 -1.147337
v 6.588194 -0.479342 -1.147337
v 6.341282 0.221033 -0.764891
v 5.918718 0.221033 -0.764891
v 5.918718 -0.221033 -0.764891
v 6.341282 -0.221033 -0.764891
v 6.341282 0.221033 -0.382446
v 5.918718 0.221033 -0.382446
v 5.918718 -0.221033 -0.382446
v 6.341282 -0.221033 -0.382446
v 6.341282 0.221033 0.000000
v 5.918718 0.221033 0.000000
v 5.918718 -0.221033 0.000000
v 6.341282 -0.221033 0.000000
v 6.460400 0.345649 0.382446
v 5.799601 0.345649 0.382446
v 5.799601 -0.345649 0.382446
v 6.460400 -0.345649 0.382446
v 6.389316 0.271284 0.764891
v 5.870684 0.271284 0.764891
v 5.870684 -0.271284 0.764891
v 6.389316 -0.271284 0.764891
v 6.469273 0.349024 -0.000000
v 5.790728 0.349024 0.000000
v 6.469273 0.349024 -0.382446
v 5.790728 0.349024 -0.382446
v 5.790728 -0.349024 -0.382446
v 5.790728 -0.349024 0.000000
v 6.469273 -0.349024 -0.382446
v 6.469273 -0.349024 -0.000000
vt 0.111610 0.424000
vt 0.148377 0.424000
vt 0.111610 0.460767
vt 0.148377 0.460767
vt 0.111610 0.497533
vt 0.148377 0.497533
vt 0.111610 0.534300
vt 0.148377 0.534300
vt 0.111610 0.571066
vt 0.148377 0.571066
vt 0.185143 0.424000
vt 0.185143 0.460767
vt 0.074844 0.424000
vt 0.074844 0.460767
vt 0.148377 0.491406
vt 0.179015 0.460767
vt 0.080971 0.460767
vt 0.111610 0.491406
vt 0.080971 0.424000
vt 0.111610 0.540427
vt 0.148377 0.540427
vt 0.179015 0.424000
vt 0.148377 0.485278
vt 0.172888 0.460767
vt 0.087099 0.460767
vt 0.111610 0.485278
vt 0.087099 0.424000
vt 0.111610 0.546555
vt 0.148377 0.546555
vt 0.172888 0.424000
vt 0.148377 0.479150
vt 0.166760 0.460767
vt 0.093227 0.460767
vt 0.111610 0.479150
vt 0.093227 0.424000
vt 0.111610 0.552683
vt 0.148377 0.552683
vt 0.166760 0.424000
vt 0.148377 0.473022
vt 0.160632 0.460767
vt 0.099355 0.460767
vt 0.111610 0.473022
vt 0.099355 0.424000
vt 0.111610 0.558811
vt 0.148377 0.558811
vt 0.160632 0.424000
vt 0.148377 0.466895
vt 0.154504 0.460767
vt 0.105482 0.460767
vt 0.111610 0.466895
vt 0.105482 0.424000
vt 0.111610 0.564938
vt 0.148377 0.564938
vt 0.154504 0.424000
vt 0.111610 0.479150
vt 0.148377 0.479150
vt 0.148377 0.485278
vt 0.111610 0.485278
vt 0.093227 0.424000
vt 0.093227 0.460767
vt 0.087099 0.460767
vt 0.087099 0.424000
vt 0.111610 0.546555
vt 0.148377 0.546555
vt 0.148377 0.552683
vt 0.111610 0.552683
vt 0.166760 0.460767
vt 0.166760 0.424000
vt 0.172888 0.424000
vt 0.172888 0.460767
vt 0.111610 0.424000
vt 0.148377 0.424000
vt 0.148377 0.460767
vt 0.111610 0.460767
vt 0.148377 0.466895
vt 0.111610 0.466895
vt 0.111610 0.497533
vt 0.148377 0.497533
vt 0.148377 0.534300
vt 0.111610 0.534300
vt 0.111610 0.564938
vt 0.148377 0.564938
vt 0.148377 0.571066
vt 0.111610 0.571066
vt 0.154504 0.424000
vt 0.154504 0.460767
vt 0.105482 0.424000
vt 0.105482 0.460767
vt 0.111610 0.491406
vt 0.148377 0.491406
vt 0.074844 0.424000
vt 0.080971 0.424000
vt 0.080971 0.460767
vt 0.074844 0.460767
vt 0.148377 0.540427
vt 0.111610 0.540427
vt 0.179015 0.460767
vt 0.179015 0.424000
vt 0.185143 0.424000
vt 0.185143 0.460767
vt 0.111610 0.485278
vt 0.148377 0.485278
vt 0.087099 0.424000
vt 0.087099 0.460767
vt 0.148377 0.546555
vt 0.111610 0.546555
vt 0.172888 0.460767
vt 0.172888 0.424000
vt 0.111610 0.479150
vt 0.148377 0.479150
vt 0.148377 0.485278
vt 0.111610 0.485278
vt 0.087099 0.424000
vt 0.093227 0.424000
vt 0.093227 0.460767
vt 0.087099 0.460767
vt 0.111610 0.546555
vt 0.148377 0.546555
vt 0.148377 0.552683
vt 0.111610 0.552683
vt 0.166760 0.460767
vt 0.166760 0.424000
vt 0.172888 0.424000
vt 0.172888 0.460767
vt 0.111610 0.473022
vt 0.148377 0.473022
vt 0.148377 0.479150
vt 0.111610 0.479150
vt 0.093227 0.424000
vt 0.099355 0.424000
vt 0.099355 0.460767
vt 0.093227 0.460767
vt 0.111610 0.552683
vt 0.148377 0.552683
vt 0.148377 0.558811
vt 0.111610 0.558811
vt 0.160632 0.460767
vt 0.160632 0.424000
vt 0.166760 0.424000
vt 0.166760 0.460767
vn 0.000000 0.000000 1.000000
vn 0.000000 0.000000 1.000000
vn 0.000000 0.000000 1.000000
vn 0.000000 0.000000 1.000000
vn 0.000000 0.991478 0.130272
vn 0.000000 0.991478 0.130272
vn 0.000000 0.991478 0.130272
vn 0.000000 0.991478 0.130272
vn 0.000000 -0.991478 0.130274
vn 0.000000 -0.991478 0.130274
vn 0.000000 -0.991478 0.130274
vn 0.000000 -0.991478 0.130274
vn 0.992205 0.000000 0.124618
vn 0.992205 0.000000 0.124618
vn 0.992205 0.000000 0.124618
vn 0.992205 0.000000 0.124618
vn -0.992205 0.000000 0.124618
vn -0.992205 0.000000 0.124618
vn -0.992205 0.000000 0.124618
vn -0.992205 0.000000 0.124618
vn 0.000000 0.828691 0.559707
vn 0.000000 0.828691 0.559707
vn 0.000000 0.828691 0.559707
vn 0.000000 0.828691 0.559707
vn -0.840123 0.000000 0.542396
vn -0.840123 0.000000 0.542396
vn -0.840123 0.000000 0.542396
vn -0.840123 0.000000 0.542396
vn 0.000000 -0.828690 0.559708
vn 0.000000 -0.828690 0.559708
vn 0.000000 -0.828690 0.559708
vn 0.000000 -0.828690 0.559708
vn 0.840123 0.000000 0.542396
vn 0.840123 0.000000 0.542396
vn 0.840123 0.000000 0.542396
vn 0.840123 0.000000 0.542396
vn 0.000000 1.000000 0.000000
vn 0.000000 1.000000 0.000000
vn 0.000000 1.000000 0.000000
vn 0.000000 1.000000 0.000000
vn -1.000000 0.000000 0.000000
vn -1.000000 0.000000 0.000000
vn -1.000000 0.000000 0.000000
vn -1.000000 0.000000 0.000000
vn 0.000000 -1.000000 0.000000
vn 0.000000 -1.000000 0.000000
vn 0.000000 -1.000000 0.000000
vn 0.000000 -1.000000 0.000000
vn 1.000000 0.000000 0.000000
vn 1.000000 0.000000 0.000000
vn 1.000000 0.000000 0.000000
vn 1.000000 0.000000 0.000000
vn 0.000000 1.000000 0.000000
vn 0.000000 1.000000 0.000000
vn 0.000000 1.000000 0.000000
vn 0.000000 1.000000 0.000000
vn -1.000000 0.000000 0.000000
vn -1.000000 0.000000 0.000000
vn -1.000000 0.000000 0.000000
vn -1.000000 0.000000 0.000000
vn 0.000000 -1.000000 0.000000
vn 0.000000 -1.000000 0.000000
vn 0.000000 -1.000000 0.000000
vn 0.000000 -1.000000 0.000000
vn 1.000000 0.000000 0.000000
vn 1.000000 0.000000 0.000000
vn 1.000000 0.000000 0.000000
vn 1.000000 0.000000 0.000000
vn 0.000000 0.950800 -0.309805
vn 0.000000 0.950800 -0.309805
vn 0.000000 0.950800 -0.309805
vn 0.000000 0.950800 -0.309805
vn -0.954761 0.000000 -0.297374
vn -0.954761 0.000000 -0.297374
vn -0.954761 0.000000 -0.297374
vn -0.954761 0.000000 -0.297374
vn 0.000000 -0.950799 -0.309807
vn 0.000000 -0.950799 -0.309807
vn 0.000000 -0.950799 -0.309807
vn 0.000000 -0.950799 -0.309807
vn 0.954761 0.000000 -0.297374
vn 0.954761 0.000000 -0.297374
vn 0.954761 0.000000 -0.297374
vn 0.954761 0.000000 -0.297374
vn 0.000000 0.981616 0.190869
vn 0.000000 0.981616 0.190869
vn 0.000000 0.981616 0.190869
vn 0.000000 0.981616 0.190869
vn -0.983162 0.000000 0.182737
vn -0.983162 0.000000 0.182737
vn -0.983162 0.000000 0.182737
vn -0.983162 0.000000 0.182737
vn 0.000000 -0.981615 0.190872
vn 0.000000 -0.981615 0.190872
vn 0.000000 -0.981615 0.190872
vn 0.000000 -0.981615 0.190872
vn 0.983162 0.000000 0.182737
vn 0.983162 0.000000 0.182737
vn 0.983162 0.000000 0.182737
vn 0.983162 0.000000 0.182737
vn 0.000000 0.000000 1.000000
vn 0.000000 0.000000 1.000000
vn 0.000000 0.000000 1.000000
vn 0.000000 0.000000 1.000000
vn 0.000000 0.000000 -1.000000
vn 0.000000 0.000000 -1.000000
vn 0.000000 0.000000 -1.000000
vn 0.000000 0.000000 -1.000000
vn 0.000000 0.000000 1.000000
vn 0.000000 0.000000 1.000000
vn 0.000000 0.000000 1.000000
vn 0.000000 0.000000 1.000000
vn 0.000000 0.000000 -1.000000
vn 0.000000 0.000000 -1.000000
vn 0.000000 0.000000 -1.000000
vn 0.000000 0.000000 -1.000000
vn 0.000000 0.000000 -1.000000
vn 0.000000 0.000000 -1.000000
vn 0.000000 0.000000 -1.000000
vn 0.000000 0.000000 -1.000000
vn 0.000000 -0.000000 1.000000
vn 0.000000 -0.000000 1.000000
vn 0.000000 -0.000000 1.000000
vn 0.000000 -0.000000 1.000000
vn 0.000000 0.000000 1.000000
vn 0.000000 0.000000 1.000000
vn 0.000000 0.000000 1.000000
vn 0.000000 0.000000 1.000000
vn -0.000000 0.000000 -1.000000
vn -0.000000 0.000000 -1.000000
vn -0.000000 0.000000 -1.000000
vn -0.000000 0.000000 -1.000000
vn 0.000000 0.000000 1.000000
vn 0.000000 0.000000 1.000000
vn 0.000000 0.000000 1.000000
vn 0.000000 0.000000 1.000000
vn 0.000000 0.991479 0.130271
vn 0.000000 0.991479 0.130271
vn 0.000000 0.991479 0.130271
vn 0.000000 0.991479 0.130271
vn 0.000000 -0.991478 0.130273
vn 0.000000 -0.991478 0.130273
vn 0.000000 -0.991478 0.130273
vn 0.000000 -0.991478 0.130273
vn 0.992205 0.000000 0.124618
vn 0.992205 0.000000 0.124618
vn 0.992205 0.000000 0.124618
vn 0.992205 0.000000 0.124618
vn -0.992205 0.000000 0.124618
vn -0.992205 0.000000 0.124618
vn -0.992205 0.000000 0.124618
vn -0.992205 0.000000 0.124618
vn 0.000000 0.828690 0.559708
vn 0.000000 0.828690 0.559708
vn 0.000000 0.828690 0.559708
vn 0.000000 0.828690 0.559708
vn -0.840123 0.000000 0.542396
vn -0.840123 0.000000 0.542396
vn -0.840123 0.000000 0.542396
vn -0.840123 0.000000 0.542396
vn 0.000000 -0.828690 0.559709
vn 0.000000 -0.828690 0.559709
vn 0.000000 -0.828690 0.559709
vn 0.000000 -0.828690 0.559709
vn 0.840123 0.000000 0.542396
vn 0.840123 0.000000 0.542396
vn 0.840123 0.000000 0.542396
vn 0.840123 0.000000 0.542396
vn 0.000000 1.000000 0.000000
vn 0.000000 1.000000 0.000000
vn 0.000000 1.000000 0.000000
vn 0.000000 1.000000 0.000000
vn -1.000000 0.000000 0.000000
vn -1.000000 0.000000 0.000000
vn -1.000000 0.000000 0.000000
vn -1.000000 0.000000 0.000000
vn 0.000000 -1.000000 0.000000
vn 0.000000 -1.000000 0.000000
vn 0.000000 -1.000000 0.000000
vn 0.000000 -1.000000 0.000000
vn 1.000000 0.000000 0.000000
vn 1.000000 0.000000 0.000000
vn 1.000000 0.000000 0.000000
vn 1.000000 0.000000 0.000000
vn 0.000000 1.000000 0.000000
vn 0.000000 1.000000 0.000000
vn 0.000000 1.000000 0.000000
vn 0.000000 1.000000 0.000000
vn -1.000000 0.000000 0.000000
vn -1.000000 0.000000 0.000000
vn -1.000000 0.000000 0.000000
vn -1.000000 0.000000 0.000000
vn 0.000000 -1.000000 0.000000
vn 0.000000 -1.000000 0.000000
vn 0.000000 -1.000000 0.000000
vn 0.000000 -1.000000 0.000000
vn 1.000000 0.000000 0.000000
vn 1.000000 0.000000 0.000000
vn 1.000000 0.000000 0.000000
vn 1.000000 0.000000 0.000000
vn 0.000000 0.950800 -0.309806
vn 0.000000 0.950800 -0.309806
vn 0.000000 0.950800 -0.309806
vn 0.000000 0.950800 -0.309806
vn -0.954761 0.000000 -0.297374
vn -0.954761 0.000000 -0.297374
vn -0.954761 0.000000 -0.297374
vn -0.954761 0.000000 -0.297374
vn 0.000000 -0.950799 -0.309808
vn 0.000000 -0.950799 -0.309808
vn 0.000000 -0.950799 -0.309808
vn 0.000000 -0.950799 -0.309808
vn 0.954761 0.000000 -0.297374
vn 0.954761 0.000000 -0.297374
vn 0.954761 0.000000 -0.297374
vn 0.954761 0.000000 -0.297374
vn 0.000000 0.981616 0.190869
vn 0.000000 0.981616 0.190869
vn 0.000000 0.981616 0.190869
vn 0.000000 0.981616 0.190869
vn -0.983162 0.000000 0.182737
vn -0.983162 0.000000 0.182737
vn -0.983162 0.000000 0.182737
vn -0.983162 0.000000 0.182737
vn 0.000000 -0.981615 0.190871
vn 0.000000 -0.981615 0.190871
vn 0.000000 -0.981615 0.190871
vn 0.000000 -0.981615 0.190871
vn 0.983162 0.000000 0.182737
vn 0.983162 0.000000 0.182737
vn 0.983162 0.000000 0.182737
vn 0.983162 0.000000 0.182737
vn 0.000000 0.000000 1.000000
vn 0.000000 0.000000 1.000000
vn 0.000000 0.000000 1.000000
vn 0.000000 0.000000 1.000000
vn 0.000000 0.000000 -1.000000
vn 0.000000 0.000000 -1.000000
vn 0.000000 0.000000 -1.000000
vn 0.000000 0.000000 -1.000000
vn 0.000000 0.000000 1.000000
vn 0.000000 0.000000 1.000000
vn 0.000000 0.000000 1.000000
vn 0.000000 0.000000 1.000000
vn 0.000000 0.000000 -1.000000
vn 0.000000 0.000000 -1.000000
vn 0.000000 0.000000 -1.000000
vn 0.000000 0.000000 -1.000000
vn 0.000000 0.000000 -1.000000
vn 0.000000 0.000000 -1.000000
vn 0.000000 0.000000 -1.000000
vn 0.000000 0.000000 -1.000000
vn 0.000000 -0.000000 1.000000
vn 0.000000 -0.000000 1.000000
vn 0.000000 -0.000000 1.000000
vn 0.000000 -0.000000 1.000000
vn 0.000000 0.000000 1.000000
vn 0.000000 0.000000 1.000000
vn 0.000000 0.000000 1.000000
vn 0.000000 0.000000 1.000000
vn -0.000000 0.000000 -1.000000
vn -0.000000 0.000000 -1.000000
vn -0.000000 0.000000 -1.000000
vn -0.000000 0.000000 -1.000000
s off
usemtl initialShadingGroup
f 1/1/1 2/2/2 4/4/3 3/3/4
f 3/3/5 4/4/6 25/47/7 26/50/8
f 27/52/9 28/53/10 2/10/11 1/9/12
f 2/2/13 28/54/14 25/48/15 4/4/16
f 27/51/17 1/1/18 3/3/19 26/49/20
f 10/18/21 9/15/22 6/6/23 5/5/24
f 7/13/25 11/19/26 10/17/27 5/14/28
f 7/7/29 8/8/30 12/21/31 11/20/32
f 9/16/33 12/22/34 8/11/35 6/12/36
f 14/26/37 13/23/38 9/15/39 10/18/40
f 11/19/41 15/27/42 14/25/43 10/17/44
f 11/20/45 12/21/46 16/29/47 15/28/48
f 13/24/49 16/30/50 12/22/51 9/16/52
f 30/55/53 29/56/54 31/57/55 32/58/56
f 33/62/57 34/59/58 30/60/59 32/61/60
f 33/63/61 35/64/62 36/65/63 34/66/64
f 29/67/65 36/68/66 35/69/67 31/70/68
f 22/42/69 21/39/70 17/31/71 18/34/72
f 19/35/73 23/43/74 22/41/75 18/33/76
f 19/36/77 20/37/78 24/45/79 23/44/80
f 21/40/81 24/46/82 20/38/83 17/32/84
f 26/50/85 25/47/86 21/39/87 22/42/88
f 23/43/89 27/51/90 26/49/91 22/41/92
f 23/44/93 24/45/94 28/53/95 27/52/96
f 25/48/97 28/54/98 24/46/99 21/40/100
f 18/34/101 17/31/102 29/56/103 30/55/104
f 13/23/105 14/26/106 32/58/107 31/57/108
f 19/35/109 18/33/110 30/60/111 34/59/112
f 14/25/113 15/27/114 33/62/115 32/61/116
f 15/28/117 16/29/118 35/64/119 33/63/120
f 20/37/121 19/36/122 34/66/123 36/65/124
f 17/32/125 20/38/126 36/68/127 29/67/128
f 16/30/129 13/24/130 31/70/131 35/69/132
f 37/71/133 38/72/134 40/73/135 39/74/136
f 39/74/137 40/73/138 61/75/139 62/76/140
f 63/81/141 64/82/142 38/83/143 37/84/144
f 38/72/145 64/85/146 61/86/147 40/73/148
f 63/87/149 37/71/150 39/74/151 62/88/152
f 46/89/153 45/90/154 42/78/155 41/77/156
f 43/91/157 47/92/158 46/93/159 41/94/160
f 43/80/161 44/79/162 48/95/163 47/96/164
f 45/97/165 48/98/166 44/99/167 42/100/168
f 50/101/169 49/102/170 45/90/171 46/89/172
f 47/92/173 51/103/174 50/104/175 46/93/176
f 47/96/177 48/95/178 52/105/179 51/106/180
f 49/107/181 52/108/182 48/98/183 45/97/184
f 66/109/185 65/110/186 67/111/187 68/112/188
f 69/113/189 70/114/190 66/115/191 68/116/192
f 69/117/193 71/118/194 72/119/195 70/120/196
f 65/121/197 72/122/198 71/123/199 67/124/200
f 58/125/201 57/126/202 53/127/203 54/128/204
f 55/129/205 59/130/206 58/131/207 54/132/208
f 55/133/209 56/134/210 60/135/211 59/136/212
f 57/137/213 60/138/214 56/139/215 53/140/216
f 62/76/217 61/75/218 57/126/219 58/125/220
f 59/130/221 63/87/222 62/88/223 58/131/224
f 59/136/225 60/135/226 64/82/227 63/81/228
f 61/86/229 64/85/230 60/138/231 57/137/232
f 54/128/233 53/127/234 65/110/235 66/109/236
f 49/102/237 50/101/238 68/112/239 67/111/240
f 55/129/241 54/132/242 66/115/243 70/114/244
f 50/104/245 51/103/246 69/113/247 68/116/248
f 51/106/249 52/105/250 71/118/251 69/117/252
f 56/134/253 55/133/254 70/120/255 72/119/256
f 53/140/257 56/139/258 72/122/259 65/121/260
f 52/108/261 49/107/262 67/124/263 71/123/264
