# This file uses centimeters as units for non-parametric coordinates.

v -5.994081 0.572680 4.964549
v -2.185672 0.331944 5.164619
v 2.185672 0.331944 5.164619
v 5.994081 0.572681 4.964549
v -6.405222 3.915099 5.162649
v -5.360484 1.389007 5.710675
v 5.360485 1.389007 5.710675
v 6.405222 3.915099 5.162649
v -6.405222 7.627153 5.162437
v -5.360484 10.493032 5.708611
v 5.360485 10.493032 5.708611
v 6.405222 7.627153 5.162437
v -5.994081 10.752779 4.964549
v -2.185672 11.210308 5.161775
v 2.185672 11.210309 5.161775
v 5.994081 10.752779 4.964549
v -5.915673 10.524549 1.366934
v -2.113206 11.146923 1.341146
v 2.113206 11.146925 1.341146
v 5.915673 10.524549 1.366934
v -5.483792 9.916592 -1.900549
v -1.935234 10.394068 -1.977117
v 1.935234 10.394068 -1.977117
v 5.483792 9.916592 -1.900549
v -5.083325 9.449015 -4.771638
v -1.798350 9.610703 -4.903749
v 1.798350 9.610703 -4.903749
v 5.083324 9.449015 -4.771638
v -5.270155 6.662518 -4.903749
v -1.841570 6.699686 -5.267863
v 1.841570 6.699686 -5.267864
v 5.270155 6.662518 -4.903749
v -5.270155 3.608274 -4.903749
v -1.841570 3.572039 -5.267863
v 1.841570 3.572039 -5.267864
v 5.270155 3.608274 -4.903749
v -5.083325 0.815707 -4.771962
v -1.798350 0.660089 -4.903749
v 1.798350 0.660089 -4.903749
v 5.083324 0.815707 -4.771962
v -5.483792 0.603148 -1.890408
v -1.935234 0.185929 -1.960624
v 1.935234 0.185929 -1.960624
v 5.483792 0.603148 -1.890408
v -5.915673 0.477615 1.383336
v -2.113206 0.000000 1.369432
v 2.113206 0.000000 1.369432
v 5.915673 0.477616 1.383335
v 6.010592 3.646638 -1.968766
v 6.563351 3.778971 1.355493
v 6.010592 6.933359 -1.969136
v 6.563351 7.367953 1.353867
v -6.010592 3.646638 -1.968766
v -6.563351 3.778971 1.355493
v -6.010592 6.933359 -1.969136
v -6.563351 7.367953 1.353867
v -5.085589 1.622504 6.088256
v 5.085589 1.622504 6.088257
v 5.085589 10.259659 6.086299
v -5.085589 10.259659 6.086299
v -4.061064 2.492546 6.313205
v 4.061064 2.492546 6.313206
v 4.061064 9.389689 6.311642
v -4.061064 9.389689 6.311642
v -5.699733 10.220571 0.899788
v -6.286971 7.150657 0.858960
v -6.286971 3.712805 0.859958
v -5.699733 0.540381 0.913059
v -2.024220 0.092965 0.870999
v 2.024220 0.092965 0.870999
v 5.699733 0.540381 0.913059
v 6.286972 3.712804 0.859958
v 6.286971 7.150657 0.858960
v 5.699733 10.220571 0.899788
v 2.024220 10.770496 0.848609
v -2.024220 10.770496 0.848610
vt 0.586499 0.794387
vt 0.601678 0.794387
vt 0.601678 0.809566
vt 0.586499 0.809566
vt 0.616857 0.794387
vt 0.616857 0.809566
vt 0.632035 0.794387
vt 0.632035 0.809566
vt 0.601678 0.824745
vt 0.586499 0.824745
vt 0.054644 0.804051
vt 0.181033 0.804051
vt 0.181033 0.942043
vt 0.054644 0.942043
vt 0.632035 0.824745
vt 0.616857 0.824745
vt 0.601678 0.839924
vt 0.586499 0.839924
vt 0.616857 0.839924
vt 0.632035 0.839924
vt 0.601678 0.855103
vt 0.586499 0.855103
vt 0.616857 0.855103
vt 0.632035 0.855103
vt 0.601678 0.862692
vt 0.586499 0.862692
vt 0.616857 0.862692
vt 0.632035 0.862692
vt 0.586499 0.870281
vt 0.601678 0.870281
vt 0.601678 0.885460
vt 0.586499 0.885460
vt 0.616857 0.870281
vt 0.616857 0.885460
vt 0.632035 0.870281
vt 0.632035 0.885460
vt 0.601678 0.900639
vt 0.586499 0.900639
vt 0.616857 0.900639
vt 0.632035 0.900639
vt 0.601678 0.915818
vt 0.586499 0.915818
vt 0.616857 0.915818
vt 0.632035 0.915818
vt 0.601678 0.930996
vt 0.586499 0.930996
vt 0.616857 0.930996
vt 0.632035 0.930996
vt 0.601678 0.946175
vt 0.586499 0.946175
vt 0.616857 0.946175
vt 0.632035 0.946175
vt 0.586499 0.953765
vt 0.601678 0.953765
vt 0.601678 0.961354
vt 0.586499 0.961354
vt 0.616857 0.953765
vt 0.616857 0.961354
vt 0.632035 0.953765
vt 0.632035 0.961354
vt 0.601678 0.976533
vt 0.586499 0.976533
vt 0.616857 0.976533
vt 0.632035 0.976533
vt 0.662393 0.794387
vt 0.677572 0.794387
vt 0.677572 0.809566
vt 0.662393 0.809566
vt 0.647214 0.794387
vt 0.654804 0.794387
vt 0.654804 0.809566
vt 0.647214 0.809566
vt 0.677572 0.824745
vt 0.662393 0.824745
vt 0.654804 0.824745
vt 0.647214 0.824745
vt 0.677572 0.839924
vt 0.662393 0.839924
vt 0.654804 0.839924
vt 0.647214 0.839924
vt 0.540963 0.794387
vt 0.556141 0.794387
vt 0.556141 0.809566
vt 0.540963 0.809566
vt 0.563731 0.794387
vt 0.571320 0.794387
vt 0.571320 0.809566
vt 0.563731 0.809566
vt 0.556141 0.824745
vt 0.540963 0.824745
vt 0.571320 0.824745
vt 0.563731 0.824745
vt 0.556141 0.839924
vt 0.540963 0.839924
vt 0.571320 0.839924
vt 0.563731 0.839924
vt 0.034424 0.781973
vt 0.201253 0.781973
vt 0.196976 0.786644
vt 0.038702 0.786644
vt 0.201253 0.964118
vt 0.196976 0.959449
vt 0.034424 0.964118
vt 0.038702 0.959449
vn -0.379382 -0.446318 0.810475
vn -0.017170 -0.459878 0.887816
vn -0.464889 -0.281234 0.839515
vn -0.461621 -0.026877 0.886670
vn -0.017170 -0.459878 0.887816
vn 0.017170 -0.459878 0.887816
vn 0.464889 -0.281235 0.839515
vn -0.464889 -0.281234 0.839515
vn 0.017170 -0.459878 0.887816
vn 0.379383 -0.446318 0.810474
vn 0.461621 -0.026877 0.886670
vn 0.464889 -0.281235 0.839515
vn -0.461621 -0.026877 0.886670
vn -0.464889 -0.281234 0.839515
vn -0.456294 0.489420 0.743145
vn -0.469136 0.023836 0.882804
vn 0.000000 0.000227 1.000000
vn 0.000000 0.000227 1.000000
vn 0.000000 0.000227 1.000000
vn 0.000000 0.000227 1.000000
vn 0.464889 -0.281235 0.839515
vn 0.461621 -0.026877 0.886670
vn 0.469136 0.023836 0.882804
vn 0.456294 0.489420 0.743144
vn -0.469136 0.023836 0.882804
vn -0.456294 0.489420 0.743145
vn -0.015996 0.608379 0.793486
vn -0.501144 0.590269 0.632801
vn -0.456294 0.489420 0.743145
vn 0.456294 0.489420 0.743144
vn 0.015996 0.608379 0.793486
vn -0.015996 0.608379 0.793486
vn 0.456294 0.489420 0.743144
vn 0.469136 0.023836 0.882804
vn 0.501145 0.590269 0.632801
vn 0.015996 0.608379 0.793486
vn -0.139439 0.989351 -0.041728
vn -0.064642 0.997508 -0.028284
vn -0.065634 0.992122 -0.106705
vn -0.140878 0.984187 -0.107378
vn -0.064642 0.997508 -0.028284
vn 0.064642 0.997508 -0.028284
vn 0.065634 0.992122 -0.106705
vn -0.065634 0.992122 -0.106705
vn 0.064642 0.997508 -0.028284
vn 0.139439 0.989351 -0.041728
vn 0.140878 0.984187 -0.107378
vn 0.065634 0.992122 -0.106705
vn -0.140878 0.984187 -0.107378
vn -0.065634 0.992122 -0.106705
vn -0.068350 0.972322 -0.223425
vn -0.142471 0.961870 -0.233472
vn -0.065634 0.992122 -0.106705
vn 0.065634 0.992122 -0.106705
vn 0.068350 0.972322 -0.223426
vn -0.068350 0.972322 -0.223425
vn 0.065634 0.992122 -0.106705
vn 0.140878 0.984187 -0.107378
vn 0.142471 0.961869 -0.233472
vn 0.068350 0.972322 -0.223426
vn -0.121581 0.978075 -0.169078
vn -0.057105 0.981155 -0.184589
vn -0.044410 0.969587 -0.240686
vn -0.097490 0.970948 -0.218531
vn -0.057105 0.981155 -0.184589
vn 0.057105 0.981155 -0.184589
vn 0.044410 0.969586 -0.240686
vn -0.044410 0.969587 -0.240686
vn 0.057105 0.981155 -0.184589
vn 0.121581 0.978075 -0.169078
vn 0.097490 0.970948 -0.218531
vn 0.044410 0.969586 -0.240686
vn -0.076055 0.089563 -0.993073
vn -0.035175 0.108242 -0.993502
vn -0.043889 0.051605 -0.997703
vn -0.092086 0.041329 -0.994893
vn -0.035175 0.108242 -0.993502
vn 0.035175 0.108242 -0.993502
vn 0.043889 0.051605 -0.997703
vn -0.043889 0.051605 -0.997703
vn 0.035175 0.108242 -0.993502
vn 0.076055 0.089563 -0.993073
vn 0.092086 0.041329 -0.994893
vn 0.043889 0.051605 -0.997703
vn -0.092086 0.041329 -0.994893
vn -0.043889 0.051605 -0.997703
vn -0.043863 -0.051569 -0.997706
vn -0.092007 -0.041288 -0.994902
vn -0.043889 0.051605 -0.997703
vn 0.043889 0.051605 -0.997703
vn 0.043863 -0.051569 -0.997706
vn -0.043863 -0.051569 -0.997706
vn 0.043889 0.051605 -0.997703
vn 0.092086 0.041329 -0.994893
vn 0.092007 -0.041288 -0.994902
vn 0.043863 -0.051569 -0.997706
vn -0.092007 -0.041288 -0.994902
vn -0.043863 -0.051569 -0.997706
vn -0.035149 -0.108124 -0.993516
vn -0.075910 -0.089393 -0.993099
vn -0.043863 -0.051569 -0.997706
vn 0.043863 -0.051569 -0.997706
vn 0.035149 -0.108124 -0.993516
vn -0.035149 -0.108124 -0.993516
vn 0.043863 -0.051569 -0.997706
vn 0.092007 -0.041288 -0.994902
vn 0.075911 -0.089393 -0.993099
vn 0.035149 -0.108124 -0.993516
vn -0.086539 -0.988436 -0.124518
vn -0.039370 -0.988865 -0.143515
vn -0.049067 -0.994939 -0.087688
vn -0.104481 -0.991673 -0.075284
vn -0.039370 -0.988865 -0.143515
vn 0.039370 -0.988865 -0.143515
vn 0.049067 -0.994939 -0.087688
vn -0.049067 -0.994939 -0.087688
vn 0.039370 -0.988865 -0.143515
vn 0.086539 -0.988436 -0.124518
vn 0.104481 -0.991673 -0.075284
vn 0.049067 -0.994939 -0.087688
vn -0.120038 -0.990611 -0.065433
vn -0.057296 -0.996683 -0.057795
vn -0.045818 -0.998017 0.043173
vn -0.097739 -0.994635 0.033888
vn -0.057296 -0.996683 -0.057795
vn 0.057296 -0.996683 -0.057795
vn 0.045818 -0.998016 0.043173
vn -0.045818 -0.998017 0.043173
vn 0.057296 -0.996683 -0.057795
vn 0.120038 -0.990611 -0.065433
vn 0.097739 -0.994635 0.033888
vn 0.045818 -0.998016 0.043173
vn -0.097739 -0.994635 0.033888
vn -0.045818 -0.998017 0.043173
vn -0.043999 -0.996386 0.072658
vn -0.095170 -0.993908 0.055589
vn -0.045818 -0.998017 0.043173
vn 0.045818 -0.998016 0.043173
vn 0.043999 -0.996386 0.072658
vn -0.043999 -0.996386 0.072658
vn 0.045818 -0.998016 0.043173
vn 0.097739 -0.994635 0.033888
vn 0.095170 -0.993908 0.055589
vn 0.043999 -0.996386 0.072658
vn 0.978539 -0.153222 -0.137788
vn 0.972766 -0.125956 -0.194579
vn 0.973347 -0.060010 -0.221349
vn 0.984891 -0.073431 -0.156839
vn 0.985950 -0.161636 -0.042139
vn 0.972455 -0.178554 -0.149830
vn 0.983545 -0.086674 -0.158516
vn 0.996494 -0.076761 -0.033284
vn 0.987355 -0.157754 0.015590
vn 0.985950 -0.161636 -0.042139
vn 0.996494 -0.076761 -0.033284
vn 0.996996 -0.071456 0.029890
vn 0.984891 -0.073431 -0.156839
vn 0.973347 -0.060010 -0.221349
vn 0.971930 0.055985 -0.228511
vn 0.983894 0.073131 -0.163111
vn 0.996494 -0.076761 -0.033284
vn 0.983545 -0.086674 -0.158516
vn 0.980895 0.087498 -0.173751
vn 0.996096 0.077212 -0.042795
vn 0.996996 -0.071456 0.029890
vn 0.996494 -0.076761 -0.033284
vn 0.996096 0.077212 -0.042795
vn 0.996658 0.078717 0.021840
vn 0.983894 0.073131 -0.163111
vn 0.971930 0.055985 -0.228511
vn 0.970080 0.127178 -0.206810
vn 0.976089 0.157329 -0.149992
vn 0.996096 0.077212 -0.042795
vn 0.980895 0.087498 -0.173751
vn 0.963064 0.182410 -0.198075
vn 0.984396 0.168714 -0.050009
vn 0.996658 0.078717 0.021840
vn 0.996096 0.077212 -0.042795
vn 0.984396 0.168714 -0.050009
vn 0.986094 0.166189 -0.000323
vn -0.972766 -0.125955 -0.194579
vn -0.978539 -0.153222 -0.137788
vn -0.984891 -0.073431 -0.156839
vn -0.973347 -0.060010 -0.221349
vn -0.972456 -0.178553 -0.149830
vn -0.985950 -0.161636 -0.042139
vn -0.996494 -0.076761 -0.033284
vn -0.983545 -0.086674 -0.158516
vn -0.985950 -0.161636 -0.042139
vn -0.987355 -0.157754 0.015590
vn -0.996996 -0.071456 0.029890
vn -0.996494 -0.076761 -0.033284
vn -0.973347 -0.060010 -0.221349
vn -0.984891 -0.073431 -0.156839
vn -0.983894 0.073131 -0.163111
vn -0.971930 0.055985 -0.228511
vn -0.983545 -0.086674 -0.158516
vn -0.996494 -0.076761 -0.033284
vn -0.996096 0.077211 -0.042795
vn -0.980895 0.087498 -0.173751
vn -0.996494 -0.076761 -0.033284
vn -0.996996 -0.071456 0.029890
vn -0.996658 0.078717 0.021840
vn -0.996096 0.077211 -0.042795
vn -0.971930 0.055985 -0.228511
vn -0.983894 0.073131 -0.163111
vn -0.976089 0.157329 -0.149992
vn -0.970080 0.127178 -0.206810
vn -0.980895 0.087498 -0.173751
vn -0.996096 0.077211 -0.042795
vn -0.984396 0.168714 -0.050009
vn -0.963064 0.182410 -0.198075
vn -0.996096 0.077211 -0.042795
vn -0.996658 0.078717 0.021840
vn -0.986094 0.166189 -0.000323
vn -0.984396 0.168714 -0.050009
vn 0.000000 -0.850511 0.525958
vn 0.000000 -0.850511 0.525958
vn 0.000000 -0.850511 0.525958
vn 0.000000 -0.850511 0.525958
vn 0.464889 -0.281235 0.839515
vn 0.456294 0.489420 0.743144
vn 0.808480 0.000133 0.588524
vn 0.808480 0.000133 0.588524
vn 0.456294 0.489420 0.743144
vn -0.456294 0.489420 0.743145
vn 0.000000 0.850702 0.525648
vn 0.000000 0.850702 0.525648
vn -0.456294 0.489420 0.743145
vn -0.464889 -0.281234 0.839515
vn -0.808480 0.000133 0.588524
vn -0.808480 0.000133 0.588524
vn 0.000000 -0.250318 0.968164
vn 0.000000 -0.250318 0.968164
vn 0.000000 -0.250318 0.968164
vn 0.000000 -0.250318 0.968164
vn 0.214634 0.000221 0.976695
vn 0.214634 0.000221 0.976695
vn 0.214634 0.000221 0.976695
vn 0.214634 0.000221 0.976695
vn 0.000000 0.250749 0.968052
vn 0.000000 0.250749 0.968052
vn 0.000000 0.250749 0.968052
vn 0.000000 0.250749 0.968052
vn -0.214635 0.000221 0.976694
vn -0.214635 0.000221 0.976694
vn -0.214635 0.000221 0.976694
vn -0.214635 0.000221 0.976694
vn -0.983894 0.073131 -0.163111
vn -0.980895 0.087498 -0.173751
vn -0.963064 0.182410 -0.198075
vn -0.976089 0.157329 -0.149992
vn -0.984891 -0.073431 -0.156839
vn -0.983545 -0.086674 -0.158516
vn -0.980895 0.087498 -0.173751
vn -0.983894 0.073131 -0.163111
vn -0.978539 -0.153222 -0.137788
vn -0.972456 -0.178553 -0.149830
vn -0.983545 -0.086674 -0.158516
vn -0.984891 -0.073431 -0.156839
vn -0.104481 -0.991673 -0.075284
vn -0.049067 -0.994939 -0.087688
vn -0.057296 -0.996683 -0.057795
vn -0.120038 -0.990611 -0.065433
vn -0.049067 -0.994939 -0.087688
vn 0.049067 -0.994939 -0.087688
vn 0.057296 -0.996683 -0.057795
vn -0.057296 -0.996683 -0.057795
vn 0.049067 -0.994939 -0.087688
vn 0.104481 -0.991673 -0.075284
vn 0.120038 -0.990611 -0.065433
vn 0.057296 -0.996683 -0.057795
vn 0.983545 -0.086674 -0.158516
vn 0.972455 -0.178554 -0.149830
vn 0.978539 -0.153222 -0.137788
vn 0.984891 -0.073431 -0.156839
vn 0.980895 0.087498 -0.173751
vn 0.983545 -0.086674 -0.158516
vn 0.984891 -0.073431 -0.156839
vn 0.983894 0.073131 -0.163111
vn 0.963064 0.182410 -0.198075
vn 0.980895 0.087498 -0.173751
vn 0.983894 0.073131 -0.163111
vn 0.976089 0.157329 -0.149992
vn 0.068350 0.972322 -0.223426
vn 0.142471 0.961869 -0.233472
vn 0.121581 0.978075 -0.169078
vn 0.057105 0.981155 -0.184589
vn -0.068350 0.972322 -0.223425
vn 0.068350 0.972322 -0.223426
vn 0.057105 0.981155 -0.184589
vn -0.057105 0.981155 -0.184589
vn -0.142471 0.961870 -0.233472
vn -0.068350 0.972322 -0.223425
vn -0.057105 0.981155 -0.184589
vn -0.121581 0.978075 -0.169078
g tv_main_1_Mesh
f 1/1/1 2/2/2 6/3/3 5/4/4
f 2/2/5 3/5/6 7/6/7 6/3/8
f 3/5/9 4/7/10 8/8/11 7/6/12
f 5/4/13 6/3/14 10/9/15 9/10/16
f 61/11/17 62/12/18 63/13/19 64/14/20
f 7/6/21 8/8/22 12/15/23 11/16/24
f 9/10/25 10/9/26 14/17/27 13/18/28
f 10/9/29 11/16/30 15/19/31 14/17/32
f 11/16/33 12/15/34 16/20/35 15/19/36
f 13/18/37 14/17/38 18/21/39 17/22/40
f 14/17/41 15/19/42 19/23/43 18/21/44
f 15/19/45 16/20/46 20/24/47 19/23/48
f 17/22/49 18/21/50 76/25/51 65/26/52
f 18/21/53 19/23/54 75/27/55 76/25/56
f 19/23/57 20/24/58 74/28/59 75/27/60
f 21/29/61 22/30/62 26/31/63 25/32/64
f 22/30/65 23/33/66 27/34/67 26/31/68
f 23/33/69 24/35/70 28/36/71 27/34/72
f 25/32/73 26/31/74 30/37/75 29/38/76
f 26/31/77 27/34/78 31/39/79 30/37/80
f 27/34/81 28/36/82 32/40/83 31/39/84
f 29/38/85 30/37/86 34/41/87 33/42/88
f 30/37/89 31/39/90 35/43/91 34/41/92
f 31/39/93 32/40/94 36/44/95 35/43/96
f 33/42/97 34/41/98 38/45/99 37/46/100
f 34/41/101 35/43/102 39/47/103 38/45/104
f 35/43/105 36/44/106 40/48/107 39/47/108
f 37/46/109 38/45/110 42/49/111 41/50/112
f 38/45/113 39/47/114 43/51/115 42/49/116
f 39/47/117 40/48/118 44/52/119 43/51/120
f 68/53/121 69/54/122 46/55/123 45/56/124
f 69/54/125 70/57/126 47/58/127 46/55/128
f 70/57/129 71/59/130 48/60/131 47/58/132
f 45/56/133 46/55/134 2/61/135 1/62/136
f 46/55/137 47/58/138 3/63/139 2/61/140
f 47/58/141 48/60/142 4/64/143 3/63/144
f 44/65/145 40/66/146 36/67/147 49/68/148
f 48/69/149 71/70/150 72/71/151 50/72/152
f 4/7/153 48/69/154 50/72/155 8/8/156
f 49/68/157 36/67/158 32/73/159 51/74/160
f 50/72/161 72/71/162 73/75/163 52/76/164
f 8/8/165 50/72/166 52/76/167 12/15/168
f 51/74/169 32/73/170 28/77/171 24/78/172
f 52/76/173 73/75/174 74/79/175 20/80/176
f 12/15/177 52/76/178 20/80/179 16/20/180
f 37/81/181 41/82/182 53/83/183 33/84/184
f 68/85/185 45/86/186 54/87/187 67/88/188
f 45/86/189 1/1/190 5/4/191 54/87/192
f 33/84/193 53/83/194 55/89/195 29/90/196
f 67/88/197 54/87/198 56/91/199 66/92/200
f 54/87/201 5/4/202 9/10/203 56/91/204
f 29/90/205 55/89/206 21/93/207 25/94/208
f 66/92/209 56/91/210 17/95/211 65/96/212
f 56/91/213 9/10/214 13/18/215 17/95/216
f 6/97/217 7/98/218 58/99/219 57/100/220
f 7/98/221 11/101/222 59/102/223 58/99/224
f 11/101/225 10/103/226 60/104/227 59/102/228
f 10/103/229 6/97/230 57/100/231 60/104/232
f 57/100/233 58/99/234 62/12/235 61/11/236
f 58/99/237 59/102/238 63/13/239 62/12/240
f 59/102/241 60/104/242 64/14/243 63/13/244
f 60/104/245 57/100/246 61/11/247 64/14/248
f 55/89/249 66/92/250 65/96/251 21/93/252
f 53/83/253 67/88/254 66/92/255 55/89/256
f 41/82/257 68/85/258 67/88/259 53/83/260
f 41/50/261 42/49/262 69/54/263 68/53/264
f 42/49/265 43/51/266 70/57/267 69/54/268
f 43/51/269 44/52/270 71/59/271 70/57/272
f 72/71/273 71/70/274 44/65/275 49/68/276
f 73/75/277 72/71/278 49/68/279 51/74/280
f 74/79/281 73/75/282 51/74/283 24/78/284
f 75/27/285 74/28/286 24/35/287 23/33/288
f 76/25/289 75/27/290 23/33/291 22/30/292
f 65/26/293 76/25/294 22/30/295 21/29/296
