# This file uses centimeters as units for non-parametric coordinates.

mtllib tv_main_1.mtl
v -5.994081 0.572680 4.964549
v -2.185672 0.331944 5.164619
v 2.185672 0.331944 5.164619
v 5.994081 0.572681 4.964549
v -6.405222 3.915099 5.162649
v -5.360484 1.389007 5.710675
v 5.360485 1.389007 5.710675
v 6.405222 3.915099 5.162649
v -6.405222 7.627153 5.162437
v -5.360484 10.493032 5.708611
v 5.360485 10.493032 5.708611
v 6.405222 7.627153 5.162437
v -5.994081 10.752779 4.964549
v -2.185672 11.210308 5.161775
v 2.185672 11.210309 5.161775
v 5.994081 10.752779 4.964549
v -5.915673 10.524549 1.366934
v -2.113206 11.146923 1.341146
v 2.113206 11.146925 1.341146
v 5.915673 10.524549 1.366934
v -5.483792 9.916592 -1.900549
v -1.935234 10.394068 -1.977117
v 1.935234 10.394068 -1.977117
v 5.483792 9.916592 -1.900549
v -5.083325 9.449015 -4.771638
v -1.798350 9.610703 -4.903749
v 1.798350 9.610703 -4.903749
v 5.083324 9.449015 -4.771638
v -5.270155 6.662518 -4.903749
v -1.841570 6.699686 -5.267863
v 1.841570 6.699686 -5.267864
v 5.270155 6.662518 -4.903749
v -5.270155 3.608274 -4.903749
v -1.841570 3.572039 -5.267863
v 1.841570 3.572039 -5.267864
v 5.270155 3.608274 -4.903749
v -5.083325 0.815707 -4.771962
v -1.798350 0.660089 -4.903749
v 1.798350 0.660089 -4.903749
v 5.083324 0.815707 -4.771962
v -5.483792 0.603148 -1.890408
v -1.935234 0.185929 -1.960624
v 1.935234 0.185929 -1.960624
v 5.483792 0.603148 -1.890408
v -5.915673 0.477615 1.383336
v -2.113206 0.000000 1.369432
v 2.113206 0.000000 1.369432
v 5.915673 0.477616 1.383335
v 6.010592 3.646638 -1.968766
v 6.563351 3.778971 1.355493
v 6.010592 6.933359 -1.969136
v 6.563351 7.367953 1.353867
v -6.010592 3.646638 -1.968766
v -6.563351 3.778971 1.355493
v -6.010592 6.933359 -1.969136
v -6.563351 7.367953 1.353867
v -5.085589 1.622504 6.088256
v 5.085589 1.622504 6.088257
v 5.085589 10.259659 6.086299
v -5.085589 10.259659 6.086299
v -4.061064 2.492546 6.313205
v 4.061064 2.492546 6.313206
v 4.061064 9.389689 6.311642
v -4.061064 9.389689 6.311642
v -5.699733 10.220571 0.899788
v -6.286971 7.150657 0.858960
v -6.286971 3.712805 0.859958
v -5.699733 0.540381 0.913059
v -2.024220 0.092965 0.870999
v 2.024220 0.092965 0.870999
v 5.699733 0.540381 0.913059
v 6.286972 3.712804 0.859958
v 6.286971 7.150657 0.858960
v 5.699733 10.220571 0.899788
v 2.024220 10.770496 0.848609
v -2.024220 10.770496 0.848610
vt 0.479794 0.808633
vt 0.494973 0.808633
vt 0.510152 0.808633
vt 0.525330 0.808633
vt 0.479794 0.823812
vt 0.494973 0.823812
vt 0.510152 0.823812
vt 0.525330 0.823812
vt 0.479794 0.838991
vt 0.494973 0.838991
vt 0.510152 0.838991
vt 0.525330 0.838991
vt 0.479794 0.854170
vt 0.494973 0.854170
vt 0.510152 0.854170
vt 0.525330 0.854170
vt 0.479794 0.869349
vt 0.494973 0.869349
vt 0.510152 0.869349
vt 0.525330 0.869349
vt 0.479794 0.884527
vt 0.494973 0.884527
vt 0.510152 0.884527
vt 0.525330 0.884527
vt 0.479794 0.899706
vt 0.494973 0.899706
vt 0.510152 0.899706
vt 0.525330 0.899706
vt 0.479794 0.914885
vt 0.494973 0.914885
vt 0.510152 0.914885
vt 0.525330 0.914885
vt 0.479794 0.930064
vt 0.494973 0.930064
vt 0.510152 0.930064
vt 0.525330 0.930064
vt 0.479794 0.945242
vt 0.494973 0.945242
vt 0.510152 0.945242
vt 0.525330 0.945242
vt 0.479794 0.960421
vt 0.494973 0.960421
vt 0.510152 0.960421
vt 0.525330 0.960421
vt 0.479794 0.975600
vt 0.494973 0.975600
vt 0.510152 0.975600
vt 0.525330 0.975600
vt 0.479794 0.990779
vt 0.494973 0.990779
vt 0.510152 0.990779
vt 0.525330 0.990779
vt 0.570867 0.808633
vt 0.555688 0.808633
vt 0.540509 0.808633
vt 0.570867 0.823812
vt 0.555688 0.823812
vt 0.540509 0.823812
vt 0.570867 0.838991
vt 0.555688 0.838991
vt 0.540509 0.838991
vt 0.570867 0.854170
vt 0.555688 0.854170
vt 0.540509 0.854170
vt 0.434258 0.808633
vt 0.449436 0.808633
vt 0.464615 0.808633
vt 0.434258 0.823812
vt 0.449436 0.823812
vt 0.464615 0.823812
vt 0.434258 0.838991
vt 0.449436 0.838991
vt 0.464615 0.838991
vt 0.434258 0.854170
vt 0.449436 0.854170
vt 0.464615 0.854170
vt 0.032775 0.822060
vt 0.159164 0.822060
vt 0.159164 0.960052
vt 0.032775 0.960052
vt 0.012555 0.799982
vt 0.179384 0.799982
vt 0.175107 0.804653
vt 0.016833 0.804653
vt 0.457026 0.854170
vt 0.479794 0.876938
vt 0.457026 0.838991
vt 0.457026 0.823812
vt 0.457026 0.808633
vt 0.479794 0.968011
vt 0.494973 0.968011
vt 0.510152 0.968011
vt 0.525330 0.968011
vt 0.548099 0.808633
vt 0.548099 0.823812
vt 0.548099 0.838991
vt 0.525330 0.876938
vt 0.548099 0.854170
vt 0.510152 0.876938
vt 0.494973 0.876938
vt 0.179384 0.982127
vt 0.175107 0.977458
vt 0.012555 0.982127
vt 0.016833 0.977458
vn -0.379382 -0.446318 0.810475
vn -0.017170 -0.459878 0.887816
vn -0.464889 -0.281234 0.839515
vn -0.461621 -0.026877 0.886670
vn 0.017170 -0.459878 0.887816
vn 0.464889 -0.281235 0.839515
vn 0.379383 -0.446318 0.810474
vn 0.461621 -0.026877 0.886670
vn -0.456294 0.489420 0.743145
vn -0.469136 0.023836 0.882804
vn 0.000000 0.000227 1.000000
vn 0.000000 0.000227 1.000000
vn 0.000000 0.000227 1.000000
vn 0.000000 0.000227 1.000000
vn 0.469136 0.023836 0.882804
vn 0.456294 0.489420 0.743144
vn -0.015996 0.608379 0.793486
vn -0.501144 0.590269 0.632801
vn 0.015996 0.608379 0.793486
vn 0.501145 0.590269 0.632801
vn -0.139439 0.989351 -0.041728
vn -0.064642 0.997508 -0.028284
vn -0.065634 0.992122 -0.106705
vn -0.140878 0.984187 -0.107378
vn 0.064642 0.997508 -0.028284
vn 0.065634 0.992122 -0.106705
vn 0.139439 0.989351 -0.041728
vn 0.140878 0.984187 -0.107378
vn -0.068350 0.972322 -0.223425
vn -0.142471 0.961870 -0.233472
vn 0.068350 0.972322 -0.223426
vn 0.142471 0.961869 -0.233472
vn -0.121581 0.978075 -0.169078
vn -0.057105 0.981155 -0.184589
vn -0.044410 0.969587 -0.240686
vn -0.097490 0.970948 -0.218531
vn 0.057105 0.981155 -0.184589
vn 0.044410 0.969586 -0.240686
vn 0.121581 0.978075 -0.169078
vn 0.097490 0.970948 -0.218531
vn -0.076055 0.089563 -0.993073
vn -0.035175 0.108242 -0.993502
vn -0.043889 0.051605 -0.997703
vn -0.092086 0.041329 -0.994893
vn 0.035175 0.108242 -0.993502
vn 0.043889 0.051605 -0.997703
vn 0.076055 0.089563 -0.993073
vn 0.092086 0.041329 -0.994893
vn -0.043863 -0.051569 -0.997706
vn -0.092007 -0.041288 -0.994902
vn 0.043863 -0.051569 -0.997706
vn 0.092007 -0.041288 -0.994902
vn -0.035149 -0.108124 -0.993516
vn -0.075910 -0.089393 -0.993099
vn 0.035149 -0.108124 -0.993516
vn 0.075911 -0.089393 -0.993099
vn -0.086539 -0.988436 -0.124518
vn -0.039370 -0.988865 -0.143515
vn -0.049067 -0.994939 -0.087688
vn -0.104481 -0.991673 -0.075284
vn 0.039370 -0.988865 -0.143515
vn 0.049067 -0.994939 -0.087688
vn 0.086539 -0.988436 -0.124518
vn 0.104481 -0.991673 -0.075284
vn -0.120038 -0.990611 -0.065433
vn -0.057296 -0.996683 -0.057795
vn -0.045818 -0.998017 0.043173
vn -0.097739 -0.994635 0.033888
vn 0.057296 -0.996683 -0.057795
vn 0.045818 -0.998016 0.043173
vn 0.120038 -0.990611 -0.065433
vn 0.097739 -0.994635 0.033888
vn -0.043999 -0.996386 0.072658
vn -0.095170 -0.993908 0.055589
vn 0.043999 -0.996386 0.072658
vn 0.095170 -0.993908 0.055589
vn 0.978539 -0.153222 -0.137788
vn 0.972766 -0.125956 -0.194579
vn 0.973347 -0.060010 -0.221349
vn 0.984891 -0.073431 -0.156839
vn 0.985950 -0.161636 -0.042139
vn 0.972456 -0.178554 -0.149830
vn 0.983545 -0.086674 -0.158516
vn 0.996494 -0.076761 -0.033284
vn 0.987355 -0.157754 0.015590
vn 0.996996 -0.071456 0.029890
vn 0.971930 0.055985 -0.228511
vn 0.983894 0.073131 -0.163111
vn 0.980895 0.087498 -0.173751
vn 0.996096 0.077212 -0.042795
vn 0.996658 0.078717 0.021840
vn 0.970080 0.127178 -0.206810
vn 0.976089 0.157329 -0.149992
vn 0.963064 0.182410 -0.198075
vn 0.984396 0.168714 -0.050009
vn 0.986094 0.166189 -0.000323
vn -0.972766 -0.125955 -0.194579
vn -0.978539 -0.153222 -0.137788
vn -0.984891 -0.073431 -0.156839
vn -0.973347 -0.060010 -0.221349
vn -0.972456 -0.178553 -0.149830
vn -0.985950 -0.161636 -0.042139
vn -0.996494 -0.076761 -0.033284
vn -0.983545 -0.086674 -0.158516
vn -0.987355 -0.157754 0.015590
vn -0.996996 -0.071456 0.029890
vn -0.983894 0.073131 -0.163111
vn -0.971930 0.055985 -0.228511
vn -0.996096 0.077211 -0.042795
vn -0.980895 0.087498 -0.173751
vn -0.996658 0.078717 0.021840
vn -0.976089 0.157329 -0.149992
vn -0.970080 0.127178 -0.206810
vn -0.984396 0.168714 -0.050009
vn -0.963064 0.182410 -0.198075
vn -0.986094 0.166189 -0.000323
vn -0.000000 -0.850511 0.525958
vn -0.000000 -0.850511 0.525958
vn -0.000000 -0.850511 0.525958
vn -0.000000 -0.850511 0.525958
vn 0.808480 0.000133 0.588524
vn 0.808480 0.000133 0.588524
vn 0.000000 0.850702 0.525648
vn 0.000000 0.850702 0.525648
vn -0.808480 0.000133 0.588524
vn -0.808480 0.000133 0.588524
vn 0.000000 -0.250318 0.968164
vn 0.000000 -0.250318 0.968164
vn 0.000000 -0.250318 0.968164
vn 0.000000 -0.250318 0.968164
vn 0.214634 0.000221 0.976695
vn 0.214634 0.000221 0.976695
vn 0.214634 0.000221 0.976695
vn 0.214634 0.000221 0.976694
vn 0.000000 0.250749 0.968052
vn 0.000000 0.250749 0.968052
vn 0.000000 0.250749 0.968052
vn 0.000000 0.250749 0.968052
vn -0.214635 0.000221 0.976694
vn -0.214635 0.000221 0.976694
vn -0.214635 0.000221 0.976694
vn -0.214635 0.000221 0.976694
s 1
usemtl initialShadingGroup
f 1/1/1 2/2/2 6/6/3 5/5/4
f 2/2/2 3/3/5 7/7/6 6/6/3
f 3/3/5 4/4/7 8/8/8 7/7/6
f 5/5/4 6/6/3 10/10/9 9/9/10
s off
f 61/77/11 62/78/12 63/79/13 64/80/14
s 1
f 7/7/6 8/8/8 12/12/15 11/11/16
f 9/9/10 10/10/9 14/14/17 13/13/18
f 10/10/9 11/11/16 15/15/19 14/14/17
f 11/11/16 12/12/15 16/16/20 15/15/19
s 2
f 13/13/21 14/14/22 18/18/23 17/17/24
f 14/14/22 15/15/25 19/19/26 18/18/23
f 15/15/25 16/16/27 20/20/28 19/19/26
f 17/17/24 18/18/23 76/100/29 65/86/30
f 18/18/23 19/19/26 75/99/31 76/100/29
f 19/19/26 20/20/28 74/97/32 75/99/31
f 21/21/33 22/22/34 26/26/35 25/25/36
f 22/22/34 23/23/37 27/27/38 26/26/35
f 23/23/37 24/24/39 28/28/40 27/27/38
s 3
f 25/25/41 26/26/42 30/30/43 29/29/44
f 26/26/42 27/27/45 31/31/46 30/30/43
f 27/27/45 28/28/47 32/32/48 31/31/46
f 29/29/44 30/30/43 34/34/49 33/33/50
f 30/30/43 31/31/46 35/35/51 34/34/49
f 31/31/46 32/32/48 36/36/52 35/35/51
f 33/33/50 34/34/49 38/38/53 37/37/54
f 34/34/49 35/35/51 39/39/55 38/38/53
f 35/35/51 36/36/52 40/40/56 39/39/55
s 4
f 37/37/57 38/38/58 42/42/59 41/41/60
f 38/38/58 39/39/61 43/43/62 42/42/59
f 39/39/61 40/40/63 44/44/64 43/43/62
f 68/90/65 69/91/66 46/46/67 45/45/68
f 69/91/66 70/92/69 47/47/70 46/46/67
f 70/92/69 71/93/71 48/48/72 47/47/70
f 45/45/68 46/46/67 2/50/73 1/49/74
f 46/46/67 47/47/70 3/51/75 2/50/73
f 47/47/70 48/48/72 4/52/76 3/51/75
s 5
f 44/54/77 40/53/78 36/56/79 49/57/80
f 48/55/81 71/94/82 72/95/83 50/58/84
f 4/4/85 48/55/81 50/58/84 8/8/86
f 49/57/80 36/56/79 32/59/87 51/60/88
f 50/58/84 72/95/83 73/96/89 52/61/90
f 8/8/86 50/58/84 52/61/90 12/12/91
f 51/60/88 32/59/87 28/62/92 24/63/93
f 52/61/90 73/96/89 74/98/94 20/64/95
f 12/12/91 52/61/90 20/64/95 16/16/96
s 6
f 37/65/97 41/66/98 53/69/99 33/68/100
f 68/89/101 45/67/102 54/70/103 67/88/104
f 45/67/102 1/1/105 5/5/106 54/70/103
f 33/68/100 53/69/99 55/72/107 29/71/108
f 67/88/104 54/70/103 56/73/109 66/87/110
f 54/70/103 5/5/106 9/9/111 56/73/109
f 29/71/108 55/72/107 21/75/112 25/74/113
f 66/87/110 56/73/109 17/76/114 65/85/115
f 56/73/109 9/9/111 13/13/116 17/76/114
s off
f 6/81/117 7/82/118 58/83/119 57/84/120
s 1
f 7/82/6 11/101/16 59/102/121 58/83/122
f 11/101/16 10/103/9 60/104/123 59/102/124
f 10/103/9 6/81/3 57/84/125 60/104/126
s off
f 57/84/127 58/83/128 62/78/129 61/77/130
f 58/83/131 59/102/132 63/79/133 62/78/134
f 59/102/135 60/104/136 64/80/137 63/79/138
f 60/104/139 57/84/140 61/77/141 64/80/142
s 6
f 55/72/107 66/87/110 65/85/115 21/75/112
f 53/69/99 67/88/104 66/87/110 55/72/107
f 41/66/98 68/89/101 67/88/104 53/69/99
s 4
f 41/41/60 42/42/59 69/91/66 68/90/65
f 42/42/59 43/43/62 70/92/69 69/91/66
f 43/43/62 44/44/64 71/93/71 70/92/69
s 5
f 72/95/83 71/94/82 44/54/77 49/57/80
f 73/96/89 72/95/83 49/57/80 51/60/88
f 74/98/94 73/96/89 51/60/88 24/63/93
s 2
f 75/99/31 74/97/32 24/24/39 23/23/37
f 76/100/29 75/99/31 23/23/37 22/22/34
f 65/86/30 76/100/29 22/22/34 21/21/33
