# This file uses centimeters as units for non-parametric coordinates.

v -4.546579 1.369759 2.738175
v -2.259926 0.391504 3.509446
v 2.259928 0.391504 3.509446
v 4.546577 1.369759 2.738176
v -5.164211 3.429452 2.990099
v -4.367062 1.435560 4.426397
v 4.367062 1.435561 4.426397
v 5.164207 3.429452 2.990099
v -5.164211 6.873328 2.988098
v -4.367064 8.852399 4.424424
v 4.367062 8.852399 4.424424
v 5.164211 6.873329 2.988097
v -4.546579 9.614033 2.734039
v -2.259926 11.048768 3.504399
v 2.259928 11.048768 3.504399
v 4.546577 9.614033 2.734039
v -4.631145 9.494361 1.275172
v -2.744316 11.951145 1.351022
v 2.744316 11.951147 1.351022
v 4.631142 9.494362 1.275172
v -3.880491 8.226016 -5.177979
v -2.198826 9.408236 -5.923069
v 2.198826 9.408236 -5.923069
v 3.880493 8.226016 -5.177979
v -4.165407 5.822198 -5.321527
v -2.304655 5.983444 -5.937963
v 2.304655 5.983444 -5.937963
v 4.165405 5.822198 -5.321527
v -4.165407 2.959070 -5.320062
v -2.304655 2.069314 -5.936841
v 2.304655 2.069314 -5.936841
v 4.165405 2.959070 -5.320062
v -3.880491 1.361566 -5.174933
v -2.198826 0.346749 -5.919772
v 2.198826 0.346749 -5.919772
v 3.880493 1.361566 -5.174934
v -4.631145 1.353055 1.283226
v -2.744316 -0.254681 1.365500
v 2.744316 -0.254681 1.365500
v 4.631142 1.353055 1.283226
v 5.338913 3.339854 1.339490
v 5.338913 6.778611 1.337626
v -5.338915 3.339854 1.339490
v -5.338915 6.778611 1.337626
v -3.117681 2.636025 4.105842
v 3.117680 2.636025 4.105843
v 3.117680 7.930964 4.104951
v -3.117681 7.930964 4.104951
v -2.387083 3.311267 4.686500
v 2.387081 3.311267 4.686500
v 2.387081 7.365391 4.685910
v -2.387083 7.365391 4.685910
v -4.618933 9.357274 -0.109172
v -5.241005 6.363550 -0.127152
v -5.241005 3.403130 -0.124745
v -4.618933 1.206276 -0.101924
v -2.507235 -0.347166 -0.000124
v 2.507236 -0.347166 -0.000124
v 4.618935 1.206275 -0.101924
v 5.241005 3.403130 -0.124745
v 5.241005 6.363550 -0.127152
v 4.618935 9.357274 -0.109172
v 2.507236 11.688042 -0.013069
v -2.507235 11.688042 -0.013069
vt 0.583066 0.811403
vt 0.595845 0.811403
vt 0.595845 0.824182
vt 0.583066 0.824182
vt 0.608624 0.811403
vt 0.608624 0.824182
vt 0.621403 0.811403
vt 0.621403 0.824182
vt 0.595845 0.836961
vt 0.583066 0.836961
vt 0.060526 0.824141
vt 0.178567 0.824141
vt 0.178567 0.943239
vt 0.060526 0.943239
vt 0.621403 0.836961
vt 0.608624 0.836961
vt 0.595845 0.849740
vt 0.583066 0.849740
vt 0.608624 0.849740
vt 0.621403 0.849740
vt 0.595845 0.862519
vt 0.583066 0.862519
vt 0.608624 0.862519
vt 0.621403 0.862519
vt 0.595845 0.868908
vt 0.583066 0.868908
vt 0.608624 0.868908
vt 0.621403 0.868908
vt 0.595845 0.888077
vt 0.583066 0.888077
vt 0.608624 0.888077
vt 0.621403 0.888077
vt 0.595845 0.900856
vt 0.583066 0.900856
vt 0.608624 0.900856
vt 0.621403 0.900856
vt 0.595845 0.913635
vt 0.583066 0.913635
vt 0.608624 0.913635
vt 0.621403 0.913635
vt 0.595845 0.926414
vt 0.583066 0.926414
vt 0.608624 0.926414
vt 0.621403 0.926414
vt 0.583066 0.945582
vt 0.595845 0.945582
vt 0.595845 0.951972
vt 0.583066 0.951972
vt 0.608624 0.945582
vt 0.608624 0.951972
vt 0.621403 0.945582
vt 0.621403 0.951972
vt 0.595845 0.964751
vt 0.583066 0.964751
vt 0.608624 0.964751
vt 0.621403 0.964751
vt 0.634182 0.811403
vt 0.640572 0.811403
vt 0.640572 0.824182
vt 0.634182 0.824182
vt 0.640572 0.836961
vt 0.634182 0.836961
vt 0.640572 0.849740
vt 0.634182 0.849740
vt 0.544729 0.824182
vt 0.544729 0.811403
vt 0.563898 0.811403
vt 0.563898 0.824182
vt 0.570287 0.811403
vt 0.570287 0.824182
vt 0.544729 0.836961
vt 0.563898 0.836961
vt 0.570287 0.836961
vt 0.544729 0.849740
vt 0.563898 0.849740
vt 0.570287 0.849740
vt 0.608624 0.824182
vt 0.595845 0.824182
vt 0.608624 0.836961
vt 0.595845 0.836961
vt 0.042462 0.804304
vt 0.196631 0.804304
vt 0.196631 0.959854
vt 0.042462 0.959854
vt 0.659740 0.811403
vt 0.659740 0.824182
vt 0.659740 0.836961
vt 0.659740 0.849740
vn -0.727729 -0.677964 0.103808
vn -0.727729 -0.677964 0.103808
vn -0.727729 -0.677964 0.103808
vn -0.727729 -0.677964 0.103808
vn 0.000000 -0.659890 0.751363
vn 0.000000 -0.659890 0.751362
vn 0.000000 -0.659890 0.751363
vn 0.000000 -0.659890 0.751363
vn 0.727729 -0.677963 0.103808
vn 0.727729 -0.677963 0.103808
vn 0.727729 -0.677963 0.103808
vn 0.727729 -0.677963 0.103808
vn -0.874364 0.000177 0.485270
vn -0.874364 0.000177 0.485270
vn -0.874364 0.000177 0.485270
vn -0.874364 0.000177 0.485270
vn 0.000000 0.000145 1.000000
vn 0.000000 0.000145 1.000000
vn 0.000000 0.000145 1.000000
vn 0.000000 0.000145 1.000000
vn 0.874365 0.000177 0.485270
vn 0.874365 0.000177 0.485270
vn 0.874365 0.000177 0.485270
vn 0.874365 0.000177 0.485270
vn -0.796610 0.514943 0.316616
vn -0.796610 0.514943 0.316616
vn -0.796610 0.514943 0.316616
vn -0.796610 0.514943 0.316616
vn 0.000000 0.386358 0.922349
vn 0.000000 0.386358 0.922349
vn 0.000000 0.386358 0.922349
vn 0.000000 0.386358 0.922349
vn 0.796610 0.514943 0.316616
vn 0.796610 0.514943 0.316616
vn 0.796610 0.514943 0.316616
vn 0.796610 0.514943 0.316616
vn -0.686529 0.680686 0.255626
vn -0.686529 0.680686 0.255626
vn -0.686529 0.680686 0.255626
vn -0.686529 0.680686 0.255626
vn 0.000000 0.922294 0.386490
vn 0.000000 0.922294 0.386490
vn 0.000000 0.922294 0.386490
vn 0.000000 0.922294 0.386490
vn 0.686530 0.680685 0.255626
vn 0.686530 0.680685 0.255626
vn 0.686530 0.680685 0.255626
vn 0.686530 0.680685 0.255626
vn -0.754644 0.636058 -0.161064
vn -0.754645 0.636058 -0.161064
vn -0.754644 0.636058 -0.161064
vn -0.754645 0.636058 -0.161064
vn -0.000000 0.981902 -0.189388
vn -0.000000 0.981902 -0.189388
vn -0.000000 0.981902 -0.189388
vn -0.000000 0.981902 -0.189388
vn 0.754645 0.636058 -0.161063
vn 0.754645 0.636058 -0.161063
vn 0.754645 0.636058 -0.161063
vn 0.754645 0.636058 -0.161063
vn -0.678045 0.681122 -0.276274
vn -0.678045 0.681122 -0.276274
vn -0.678045 0.681122 -0.276274
vn -0.678045 0.681122 -0.276274
vn 0.000000 0.932989 -0.359904
vn 0.000000 0.932989 -0.359904
vn 0.000000 0.932989 -0.359904
vn 0.000000 0.932989 -0.359904
vn 0.678045 0.681122 -0.276275
vn 0.678045 0.681122 -0.276275
vn 0.678045 0.681122 -0.276275
vn 0.678045 0.681122 -0.276275
vn -0.374871 0.050295 -0.925712
vn -0.374871 0.050295 -0.925712
vn -0.374871 0.050295 -0.925712
vn -0.374871 0.050295 -0.925712
vn 0.000000 0.004349 -0.999991
vn 0.000000 0.004349 -0.999991
vn 0.000000 0.004349 -0.999991
vn 0.000000 0.004349 -0.999991
vn 0.374871 0.050295 -0.925712
vn 0.374871 0.050295 -0.925712
vn 0.374871 0.050295 -0.925712
vn 0.374871 0.050295 -0.925712
vn -0.314619 -0.000362 -0.949218
vn -0.314618 -0.000362 -0.949218
vn -0.314619 -0.000362 -0.949218
vn -0.314619 -0.000362 -0.949218
vn 0.000000 -0.000287 -1.000000
vn 0.000000 -0.000287 -1.000000
vn 0.000000 -0.000287 -1.000000
vn 0.000000 -0.000287 -1.000000
vn 0.314619 -0.000362 -0.949218
vn 0.314619 -0.000362 -0.949218
vn 0.314619 -0.000362 -0.949218
vn 0.314619 -0.000362 -0.949218
vn -0.399808 -0.091609 -0.912010
vn -0.399808 -0.091609 -0.912010
vn -0.399808 -0.091609 -0.912010
vn -0.399808 -0.091609 -0.912010
vn 0.000000 -0.009908 -0.999951
vn 0.000000 -0.009908 -0.999951
vn 0.000000 -0.009908 -0.999951
vn 0.000000 -0.009908 -0.999951
vn 0.399807 -0.091608 -0.912010
vn 0.399807 -0.091608 -0.912010
vn 0.399807 -0.091608 -0.912010
vn 0.399807 -0.091608 -0.912010
vn -0.620476 -0.784134 0.011973
vn -0.620476 -0.784134 0.011973
vn -0.620476 -0.784134 0.011973
vn -0.620476 -0.784134 0.011973
vn 0.000000 -0.997715 0.067569
vn 0.000000 -0.997715 0.067569
vn 0.000000 -0.997715 0.067569
vn 0.000000 -0.997715 0.067569
vn 0.620476 -0.784134 0.011975
vn 0.620476 -0.784134 0.011975
vn 0.620476 -0.784134 0.011975
vn 0.620476 -0.784134 0.011975
vn -0.546225 -0.804152 0.234472
vn -0.546225 -0.804152 0.234472
vn -0.546225 -0.804152 0.234472
vn -0.546225 -0.804152 0.234472
vn 0.000000 -0.957457 0.288577
vn 0.000000 -0.957457 0.288577
vn 0.000000 -0.957457 0.288577
vn 0.000000 -0.957457 0.288577
vn 0.546226 -0.804152 0.234472
vn 0.546226 -0.804152 0.234472
vn 0.546226 -0.804152 0.234472
vn 0.546226 -0.804152 0.234472
vn 0.952705 -0.302609 -0.027949
vn 0.952705 -0.302609 -0.027949
vn 0.952705 -0.302609 -0.027949
vn 0.952705 -0.302609 -0.027949
vn 0.944452 -0.316179 0.089671
vn 0.944452 -0.316179 0.089671
vn 0.944452 -0.316179 0.089671
vn 0.944452 -0.316179 0.089671
vn 0.997773 -0.000044 -0.066700
vn 0.997773 -0.000044 -0.066700
vn 0.997773 -0.000044 -0.066700
vn 0.997773 -0.000044 -0.066700
vn 0.994445 0.000059 0.105255
vn 0.994445 0.000059 0.105255
vn 0.994445 0.000059 0.105255
vn 0.994445 0.000059 0.105255
vn 0.970852 0.225497 -0.081223
vn 0.970852 0.225497 -0.081223
vn 0.970852 0.225497 -0.081223
vn 0.970852 0.225497 -0.081223
vn 0.968870 0.239074 0.064303
vn 0.968870 0.239074 0.064303
vn 0.968870 0.239074 0.064303
vn 0.968870 0.239074 0.064303
vn -0.958005 -0.236195 -0.162602
vn -0.958005 -0.236195 -0.162602
vn -0.958005 -0.236195 -0.162602
vn -0.958005 -0.236195 -0.162602
vn -0.952705 -0.302609 -0.027952
vn -0.952705 -0.302609 -0.027952
vn -0.952705 -0.302609 -0.027952
vn -0.952705 -0.302609 -0.027952
vn -0.944452 -0.316179 0.089671
vn -0.944452 -0.316179 0.089671
vn -0.944452 -0.316179 0.089671
vn -0.944452 -0.316179 0.089671
vn -0.979233 -0.000135 -0.202738
vn -0.979233 -0.000135 -0.202738
vn -0.979233 -0.000135 -0.202738
vn -0.979233 -0.000135 -0.202738
vn -0.997773 -0.000044 -0.066701
vn -0.997773 -0.000044 -0.066701
vn -0.997773 -0.000044 -0.066701
vn -0.997773 -0.000044 -0.066701
vn -0.994445 0.000059 0.105255
vn -0.994445 0.000059 0.105255
vn -0.994445 0.000059 0.105255
vn -0.994445 0.000059 0.105255
vn -0.965646 0.168193 -0.198091
vn -0.965646 0.168193 -0.198091
vn -0.965646 0.168193 -0.198091
vn -0.965646 0.168193 -0.198091
vn -0.970852 0.225497 -0.081225
vn -0.970852 0.225497 -0.081225
vn -0.970852 0.225497 -0.081225
vn -0.970852 0.225497 -0.081225
vn -0.968870 0.239074 0.064304
vn -0.968870 0.239074 0.064304
vn -0.968870 0.239074 0.064304
vn -0.968870 0.239074 0.064304
vn 0.000000 0.257987 0.966148
vn 0.000000 0.257987 0.966148
vn 0.000000 0.257987 0.966148
vn 0.000000 0.257987 0.966148
vn -0.248105 0.000218 0.968733
vn -0.248105 0.000218 0.968733
vn -0.248105 0.000218 0.968733
vn -0.248105 0.000218 0.968733
vn 0.000000 -0.327582 0.944823
vn 0.000000 -0.327582 0.944823
vn 0.000000 -0.327582 0.944823
vn 0.000000 -0.327582 0.944823
vn 0.248105 0.000218 0.968733
vn 0.248105 0.000218 0.968733
vn 0.248105 0.000218 0.968733
vn 0.248105 0.000218 0.968733
vn 0.000000 -0.652006 0.758214
vn 0.000000 -0.652006 0.758214
vn 0.000000 -0.652006 0.758214
vn 0.000000 -0.652006 0.758214
vn 0.622300 0.000124 0.782779
vn 0.622300 0.000124 0.782779
vn 0.622300 0.000124 0.782779
vn 0.622300 0.000124 0.782779
vn 0.000000 0.716531 0.697555
vn 0.000000 0.716531 0.697555
vn 0.000000 0.716531 0.697555
vn 0.000000 0.716531 0.697555
vn -0.622300 0.000124 0.782779
vn -0.622300 0.000124 0.782779
vn -0.622300 0.000124 0.782779
vn -0.622300 0.000124 0.782779
vn -0.570312 -0.813036 -0.117120
vn -0.570312 -0.813036 -0.117120
vn -0.570312 -0.813036 -0.117120
vn -0.570312 -0.813036 -0.117120
vn 0.000000 -0.993200 -0.116425
vn 0.000000 -0.993199 -0.116425
vn 0.000000 -0.993199 -0.116425
vn 0.000000 -0.993199 -0.116425
vn 0.570312 -0.813036 -0.117121
vn 0.570312 -0.813036 -0.117121
vn 0.570312 -0.813036 -0.117121
vn 0.570312 -0.813036 -0.117121
vn 0.958005 -0.236193 -0.162602
vn 0.958005 -0.236193 -0.162602
vn 0.958005 -0.236193 -0.162602
vn 0.958005 -0.236193 -0.162602
vn 0.979233 -0.000135 -0.202739
vn 0.979233 -0.000135 -0.202739
vn 0.979233 -0.000135 -0.202739
vn 0.979233 -0.000135 -0.202739
vn 0.965646 0.168192 -0.198091
vn 0.965646 0.168192 -0.198091
vn 0.965646 0.168192 -0.198091
vn 0.965646 0.168192 -0.198091
g tv_main_3_Mesh
f 1/1/1 2/2/2 6/3/3 5/4/4
f 2/2/5 3/5/6 7/6/7 6/3/8
f 3/5/9 4/7/10 8/8/11 7/6/12
f 5/4/13 6/3/14 10/9/15 9/10/16
f 49/11/17 50/12/18 51/13/19 52/14/20
f 7/6/21 8/8/22 12/15/23 11/16/24
f 9/10/25 10/9/26 14/17/27 13/18/28
f 10/9/29 11/16/30 15/19/31 14/17/32
f 11/16/33 12/15/34 16/20/35 15/19/36
f 13/18/37 14/17/38 18/21/39 17/22/40
f 14/17/41 15/19/42 19/23/43 18/21/44
f 15/19/45 16/20/46 20/24/47 19/23/48
f 17/22/49 18/21/50 64/25/51 53/26/52
f 18/21/53 19/23/54 63/27/55 64/25/56
f 19/23/57 20/24/58 62/28/59 63/27/60
f 22/29/61 21/30/62 53/26/63 64/25/64
f 23/31/65 22/29/66 64/25/67 63/27/68
f 24/32/69 23/31/70 63/27/71 62/28/72
f 21/30/73 22/29/74 26/33/75 25/34/76
f 22/29/77 23/31/78 27/35/79 26/33/80
f 23/31/81 24/32/82 28/36/83 27/35/84
f 25/34/85 26/33/86 30/37/87 29/38/88
f 26/33/89 27/35/90 31/39/91 30/37/92
f 27/35/93 28/36/94 32/40/95 31/39/96
f 29/38/97 30/37/98 34/41/99 33/42/100
f 30/37/101 31/39/102 35/43/103 34/41/104
f 31/39/105 32/40/106 36/44/107 35/43/108
f 56/45/109 57/46/110 38/47/111 37/48/112
f 57/46/113 58/49/114 39/50/115 38/47/116
f 58/49/117 59/51/118 40/52/119 39/50/120
f 37/48/121 38/47/122 2/53/123 1/54/124
f 38/47/125 39/50/126 3/55/127 2/53/128
f 39/50/129 40/52/130 4/56/131 3/55/132
f 40/57/133 59/58/134 60/59/135 41/60/136
f 4/7/137 40/57/138 41/60/139 8/8/140
f 41/60/141 60/59/142 61/61/143 42/62/144
f 8/8/145 41/60/146 42/62/147 12/15/148
f 42/62/149 61/61/150 62/63/151 20/64/152
f 12/15/153 42/62/154 20/64/155 16/20/156
f 29/65/157 33/66/158 56/67/159 55/68/160
f 56/67/161 37/69/162 43/70/163 55/68/164
f 37/69/165 1/1/166 5/4/167 43/70/168
f 25/71/169 29/65/170 55/68/171 54/72/172
f 55/68/173 43/70/174 44/73/175 54/72/176
f 43/70/177 5/4/178 9/10/179 44/73/180
f 21/74/181 25/71/182 54/72/183 53/75/184
f 54/72/185 44/73/186 17/76/187 53/75/188
f 44/73/189 9/10/190 13/18/191 17/76/192
f 6/3/193 7/6/194 46/77/195 45/78/196
f 7/6/197 11/16/198 47/79/199 46/77/200
f 11/16/201 10/9/202 48/80/203 47/79/204
f 10/9/205 6/3/206 45/78/207 48/80/208
f 45/81/209 46/82/210 50/12/211 49/11/212
f 46/82/213 47/83/214 51/13/215 50/12/216
f 47/83/217 48/84/218 52/14/219 51/13/220
f 48/84/221 45/81/222 49/11/223 52/14/224
f 34/41/225 57/46/226 56/45/227 33/42/228
f 35/43/229 58/49/230 57/46/231 34/41/232
f 59/51/233 58/49/234 35/43/235 36/44/236
f 60/59/237 59/58/238 36/85/239 32/86/240
f 61/61/241 60/59/242 32/86/243 28/87/244
f 24/88/245 62/63/246 61/61/247 28/87/248
