# This file uses centimeters as units for non-parametric coordinates.

mtllib walllamp_base_2.mtl
v 0.866025 19.612278 0.092772
v 0.500000 19.978304 0.092772
v 0.000000 20.112278 0.092772
v -0.500000 19.978304 0.092772
v -0.866025 19.612278 0.092772
v -1.000000 19.112278 0.092772
v -0.866025 18.612278 0.092772
v -0.500000 18.246252 0.092772
v 0.000000 18.112278 0.092772
v 0.500000 18.246252 0.092772
v 0.866025 18.612278 0.092772
v 1.000000 19.112278 0.092772
v 0.000000 19.112278 0.092772
v -0.500000 0.000000 0.500000
v 0.500000 0.000000 0.500000
v -0.500000 0.000000 -0.500000
v 0.500000 0.000000 -0.500000
v 0.946849 19.658941 -0.092772
v 0.546663 20.059128 -0.092772
v 0.546663 20.059128 0.092772
v 0.946849 19.658941 0.092772
v 0.000000 20.205605 -0.092772
v 0.000000 20.205605 0.092772
v -0.546663 20.059128 -0.092772
v -0.546663 20.059128 0.092772
v -0.946849 19.658941 -0.092772
v -0.946849 19.658941 0.092772
v -1.093327 19.112278 -0.092772
v -1.093327 19.112278 0.092772
v -0.946849 18.565615 -0.092772
v -0.946849 18.565615 0.092772
v -0.546663 18.165428 -0.092772
v -0.546663 18.165428 0.092772
v 0.000000 18.018951 -0.092772
v 0.000000 18.018951 0.092772
v 0.546663 18.165428 -0.092772
v 0.546663 18.165428 0.092772
v 0.946849 18.565615 -0.092772
v 0.946849 18.565615 0.092772
v 1.093327 19.112278 -0.092772
v 1.093327 19.112278 0.092772
v 0.866025 19.612278 0.242880
v 0.500000 19.978304 0.242880
v 0.946849 19.658941 0.242880
v 0.546663 20.059128 0.242880
v 0.000000 20.112278 0.242880
v 0.000000 20.205605 0.242880
v -0.500000 19.978304 0.242880
v -0.546663 20.059128 0.242880
v -0.866025 19.612278 0.242880
v -0.946849 19.658941 0.242880
v -1.000000 19.112278 0.242880
v -1.093327 19.112278 0.242880
v -0.866025 18.612278 0.242880
v -0.946849 18.565615 0.242880
v -0.500000 18.246252 0.242880
v -0.546663 18.165428 0.242880
v -0.000000 18.112278 0.242880
v -0.000000 18.018951 0.242880
v 0.500000 18.246252 0.242880
v 0.546663 18.165428 0.242880
v 0.866025 18.612278 0.242880
v 0.946849 18.565615 0.242880
v 1.000000 19.112278 0.242880
v 1.093327 19.112278 0.242880
vt 0.141712 0.234492
vt 0.149081 0.234492
vt 0.156450 0.234492
vt 0.163819 0.234492
vt 0.171189 0.234492
vt 0.178558 0.234492
vt 0.185927 0.234492
vt 0.193296 0.234492
vt 0.200666 0.234492
vt 0.208035 0.234492
vt 0.215405 0.234492
vt 0.222774 0.234492
vt 0.230143 0.234492
vt 0.233792 0.261794
vt 0.213562 0.241564
vt 0.185927 0.234160
vt 0.158293 0.241564
vt 0.138062 0.261794
vt 0.130658 0.289429
vt 0.138062 0.317064
vt 0.158293 0.337294
vt 0.185927 0.344699
vt 0.213562 0.337294
vt 0.233792 0.317064
vt 0.241197 0.289429
vt 0.185927 0.287218
vt 0.064379 0.686596
vt 0.314379 0.686596
vt 0.314379 0.936596
vt 0.064379 0.936596
vt 0.141712 0.101513
vt 0.149081 0.101513
vt 0.149081 0.234492
vt 0.141712 0.234492
vt 0.156450 0.101513
vt 0.156450 0.234492
vt 0.163819 0.101513
vt 0.163819 0.234492
vt 0.171189 0.101513
vt 0.171189 0.234492
vt 0.178558 0.101513
vt 0.178558 0.234492
vt 0.185927 0.101513
vt 0.185927 0.234492
vt 0.193296 0.101513
vt 0.193296 0.234492
vt 0.200666 0.101513
vt 0.200666 0.234492
vt 0.208035 0.101513
vt 0.208035 0.234492
vt 0.215405 0.101513
vt 0.215405 0.234492
vt 0.222774 0.101513
vt 0.222774 0.234492
vt 0.230143 0.101513
vt 0.230143 0.234492
vt 0.149081 0.234492
vt 0.141712 0.234492
vt 0.141712 0.234492
vt 0.149081 0.234492
vt 0.156450 0.234492
vt 0.156450 0.234492
vt 0.163819 0.234492
vt 0.163819 0.234492
vt 0.171189 0.234492
vt 0.171189 0.234492
vt 0.178558 0.234492
vt 0.178558 0.234492
vt 0.185927 0.234492
vt 0.185927 0.234492
vt 0.193296 0.234492
vt 0.193296 0.234492
vt 0.200666 0.234492
vt 0.200666 0.234492
vt 0.208035 0.234492
vt 0.208035 0.234492
vt 0.215405 0.234492
vt 0.215405 0.234492
vt 0.222774 0.234492
vt 0.222774 0.234492
vt 0.230143 0.234492
vt 0.230143 0.234492
vn 0.707108 0.707106 0.000000
vn 0.707108 0.707106 0.000000
vn 0.707108 0.707106 0.000000
vn 0.707108 0.707106 0.000000
vn 0.258817 0.965926 0.000000
vn 0.258817 0.965926 0.000000
vn 0.258817 0.965926 0.000000
vn 0.258817 0.965926 0.000000
vn -0.258817 0.965926 0.000000
vn -0.258817 0.965926 0.000000
vn -0.258817 0.965926 0.000000
vn -0.258817 0.965926 0.000000
vn -0.707108 0.707106 0.000000
vn -0.707108 0.707106 0.000000
vn -0.707108 0.707106 0.000000
vn -0.707108 0.707106 0.000000
vn -0.965926 0.258819 0.000000
vn -0.965926 0.258819 0.000000
vn -0.965926 0.258819 0.000000
vn -0.965926 0.258819 0.000000
vn -0.965926 -0.258819 0.000000
vn -0.965926 -0.258819 0.000000
vn -0.965926 -0.258819 0.000000
vn -0.965926 -0.258819 0.000000
vn -0.707108 -0.707106 0.000000
vn -0.707108 -0.707106 0.000000
vn -0.707108 -0.707106 0.000000
vn -0.707108 -0.707106 0.000000
vn -0.258817 -0.965926 0.000000
vn -0.258817 -0.965926 0.000000
vn -0.258817 -0.965926 0.000000
vn -0.258817 -0.965926 0.000000
vn 0.258817 -0.965926 0.000000
vn 0.258817 -0.965926 0.000000
vn 0.258817 -0.965926 -0.000000
vn 0.258817 -0.965926 -0.000000
vn 0.707108 -0.707106 0.000000
vn 0.707108 -0.707106 0.000000
vn 0.707108 -0.707106 0.000000
vn 0.707108 -0.707106 0.000000
vn 0.965926 -0.258819 0.000000
vn 0.965926 -0.258819 0.000000
vn 0.965926 -0.258819 0.000000
vn 0.965926 -0.258819 0.000000
vn 0.965926 0.258819 0.000000
vn 0.965926 0.258819 0.000000
vn 0.965926 0.258819 0.000000
vn 0.965926 0.258819 0.000000
vn 0.000000 0.000000 1.000000
vn 0.000000 0.000000 1.000000
vn 0.000000 0.000000 1.000000
vn 0.000000 0.000000 1.000000
vn 0.000000 0.000000 1.000000
vn 0.000000 0.000000 1.000000
vn 0.000000 0.000000 1.000000
vn 0.000000 0.000000 1.000000
vn 0.000000 0.000000 1.000000
vn 0.000000 0.000000 1.000000
vn -0.000000 0.000000 1.000000
vn -0.000000 0.000000 1.000000
vn 0.000000 0.000000 1.000000
vn 0.000000 1.000000 0.000000
vn 0.000000 1.000000 0.000000
vn 0.000000 1.000000 0.000000
vn 0.000000 1.000000 0.000000
vn -0.000000 0.000000 1.000000
vn -0.000000 0.000000 1.000000
vn -0.000000 0.000000 1.000000
vn -0.000000 0.000000 1.000000
vn 0.000000 0.000000 1.000000
vn 0.000000 0.000000 1.000000
vn 0.000000 0.000000 1.000000
vn 0.000000 0.000000 1.000000
vn 0.000000 0.000000 1.000000
vn 0.000000 0.000000 1.000000
vn 0.000000 0.000000 1.000000
vn 0.000000 0.000000 1.000000
vn 0.000000 0.000000 1.000000
vn 0.000000 0.000000 1.000000
vn 0.000000 0.000000 1.000000
vn 0.000000 0.000000 1.000000
vn -0.000000 0.000000 1.000000
vn -0.000000 0.000000 1.000000
vn -0.000000 0.000000 1.000000
vn -0.000000 0.000000 1.000000
vn -0.000000 0.000000 1.000000
vn -0.000000 0.000000 1.000000
vn -0.000000 0.000000 1.000000
vn -0.000000 0.000000 1.000000
vn -0.707107 -0.707106 0.000000
vn -0.707107 -0.707106 0.000000
vn -0.707107 -0.707106 0.000000
vn -0.707107 -0.707106 0.000000
vn 0.707108 0.707106 0.000000
vn 0.707108 0.707106 0.000000
vn -0.258818 -0.965926 0.000000
vn -0.258818 -0.965926 0.000000
vn -0.258818 -0.965926 0.000000
vn -0.258818 -0.965926 0.000000
vn 0.258817 0.965926 0.000000
vn 0.258817 0.965926 0.000000
vn 0.258818 -0.965926 0.000000
vn 0.258818 -0.965926 0.000000
vn 0.258818 -0.965926 0.000000
vn 0.258818 -0.965926 0.000000
vn -0.258817 0.965926 0.000000
vn -0.258817 0.965926 0.000000
vn 0.707107 -0.707106 0.000000
vn 0.707107 -0.707106 0.000000
vn 0.707107 -0.707106 0.000000
vn 0.707107 -0.707106 0.000000
vn -0.707108 0.707106 0.000000
vn -0.707108 0.707106 0.000000
vn 0.965926 -0.258819 0.000000
vn 0.965926 -0.258819 0.000000
vn 0.965926 -0.258819 0.000000
vn 0.965926 -0.258819 0.000000
vn -0.965926 0.258819 0.000000
vn -0.965926 0.258819 0.000000
vn 0.965926 0.258819 0.000000
vn 0.965926 0.258819 0.000000
vn 0.965926 0.258819 0.000000
vn 0.965926 0.258819 0.000000
vn -0.965926 -0.258819 0.000000
vn -0.965926 -0.258819 0.000000
vn 0.707107 0.707106 0.000000
vn 0.707107 0.707106 0.000000
vn 0.707107 0.707106 0.000000
vn 0.707107 0.707106 0.000000
vn -0.707108 -0.707106 0.000000
vn -0.707108 -0.707106 0.000000
vn 0.258818 0.965926 -0.000000
vn 0.258818 0.965926 -0.000000
vn 0.258818 0.965926 -0.000000
vn 0.258818 0.965926 -0.000000
vn -0.258817 -0.965926 0.000000
vn -0.258817 -0.965926 0.000000
vn -0.258818 0.965926 0.000000
vn -0.258818 0.965926 0.000000
vn -0.258818 0.965926 0.000000
vn -0.258818 0.965926 0.000000
vn 0.258817 -0.965926 -0.000000
vn 0.258817 -0.965926 -0.000000
vn -0.707107 0.707106 0.000000
vn -0.707107 0.707106 0.000000
vn -0.707107 0.707106 0.000000
vn -0.707107 0.707106 0.000000
vn 0.707108 -0.707106 0.000000
vn 0.707108 -0.707106 0.000000
vn -0.965926 0.258819 0.000000
vn -0.965926 0.258819 0.000000
vn -0.965926 0.258819 0.000000
vn -0.965926 0.258819 0.000000
vn 0.965926 -0.258819 0.000000
vn 0.965926 -0.258819 0.000000
vn -0.965926 -0.258819 0.000000
vn -0.965926 -0.258819 0.000000
vn -0.965926 -0.258819 0.000000
vn -0.965926 -0.258819 0.000000
vn 0.965926 0.258819 0.000000
vn 0.965926 0.258819 0.000000
s 1
usemtl initialShadingGroup
f 18/31/1 19/32/2 20/33/3 21/34/4
s 2
f 19/32/5 22/35/6 23/36/7 20/33/8
s 3
f 22/35/9 24/37/10 25/38/11 23/36/12
s 4
f 24/37/13 26/39/14 27/40/15 25/38/16
s 5
f 26/39/17 28/41/18 29/42/19 27/40/20
s 6
f 28/41/21 30/43/22 31/44/23 29/42/24
s 7
f 30/43/25 32/45/26 33/46/27 31/44/28
s 8
f 32/45/29 34/47/30 35/48/31 33/46/32
s 9
f 34/47/33 36/49/34 37/50/35 35/48/36
s 10
f 36/49/37 38/51/38 39/52/39 37/50/40
s 11
f 38/51/41 40/53/42 41/54/43 39/52/44
s 12
f 40/53/45 18/55/46 21/56/47 41/54/48
s 13
f 13/26/49 1/24/50 2/23/51
f 13/26/49 2/23/51 3/22/52
f 13/26/49 3/22/52 4/21/53
f 13/26/49 4/21/53 5/20/54
f 13/26/49 5/20/54 6/19/55
f 13/26/49 6/19/55 7/18/56
f 13/26/49 7/18/56 8/17/57
f 13/26/49 8/17/57 9/16/58
f 13/26/49 9/16/58 10/15/59
f 13/26/49 10/15/59 11/14/60
f 13/26/49 11/14/60 12/25/61
f 1/24/50 13/26/49 12/25/61
s off
f 14/27/62 15/28/63 17/29/64 16/30/65
s 14
f 43/57/66 42/58/67 44/59/68 45/60/69
f 46/61/70 43/57/66 45/60/69 47/62/71
f 48/63/72 46/61/70 47/62/71 49/64/73
f 50/65/74 48/63/72 49/64/73 51/66/75
f 52/67/76 50/65/74 51/66/75 53/68/77
f 54/69/78 52/67/76 53/68/77 55/70/79
f 56/71/80 54/69/78 55/70/79 57/72/81
f 58/73/82 56/71/80 57/72/81 59/74/83
f 60/75/84 58/73/82 59/74/83 61/76/85
f 62/77/86 60/75/84 61/76/85 63/78/87
f 64/79/88 62/77/86 63/78/87 65/80/89
f 42/81/67 64/79/88 65/80/89 44/82/68
s off
f 2/2/90 1/1/91 42/58/92 43/57/93
s 1
f 21/34/4 20/33/3 45/60/94 44/59/95
s off
f 3/3/96 2/2/97 43/57/98 46/61/99
s 2
f 20/33/8 23/36/7 47/62/100 45/60/101
s off
f 4/4/102 3/3/103 46/61/104 48/63/105
s 3
f 23/36/12 25/38/11 49/64/106 47/62/107
s off
f 5/5/108 4/4/109 48/63/110 50/65/111
s 4
f 25/38/16 27/40/15 51/66/112 49/64/113
s off
f 6/6/114 5/5/115 50/65/116 52/67/117
s 5
f 27/40/20 29/42/19 53/68/118 51/66/119
s off
f 7/7/120 6/6/121 52/67/122 54/69/123
s 6
f 29/42/24 31/44/23 55/70/124 53/68/125
s off
f 8/8/126 7/7/127 54/69/128 56/71/129
s 7
f 31/44/28 33/46/27 57/72/130 55/70/131
s off
f 9/9/132 8/8/133 56/71/134 58/73/135
s 8
f 33/46/32 35/48/31 59/74/136 57/72/137
s off
f 10/10/138 9/9/139 58/73/140 60/75/141
s 9
f 35/48/36 37/50/35 61/76/142 59/74/143
s off
f 11/11/144 10/10/145 60/75/146 62/77/147
s 10
f 37/50/40 39/52/39 63/78/148 61/76/149
s off
f 12/12/150 11/11/151 62/77/152 64/79/153
s 11
f 39/52/44 41/54/43 65/80/154 63/78/155
s off
f 1/13/156 12/12/157 64/79/158 42/81/159
s 12
f 41/54/48 21/56/47 44/82/160 65/80/161
