# This file uses centimeters as units for non-parametric coordinates.

mtllib walllamp_base_3.mtl
v -1.151233 20.263512 -0.068772
v 1.151233 20.263512 -0.068772
v -1.151233 17.961044 -0.068772
v 1.151233 17.961044 -0.068772
v -0.899812 18.212463 0.254316
v 0.899812 18.212463 0.254316
v 0.899812 20.012093 0.254316
v -0.899812 20.012093 0.254316
v -1.122040 17.990236 0.225124
v -1.151233 17.961044 0.154648
v -1.051564 18.060713 0.254316
v 1.122040 17.990236 0.225124
v 1.151233 17.961044 0.154648
v 1.051564 18.060713 0.254316
v -1.122040 20.234320 0.225124
v -1.151233 20.263512 0.154648
v -1.051564 20.163843 0.254316
v 1.122040 20.234320 0.225124
v 1.151233 20.263512 0.154648
v 1.051564 20.163843 0.254316
v -0.870620 18.241655 0.424482
v -0.899812 18.212463 0.354005
v -0.800143 18.312132 0.453674
v 0.870620 18.241655 0.424482
v 0.800143 18.312132 0.453674
v 0.899812 18.212463 0.354005
v 0.870620 19.982901 0.424482
v 0.800143 19.912424 0.453674
v 0.899812 20.012093 0.354005
v -0.870620 19.982901 0.424482
v -0.800143 19.912424 0.453674
v -0.899812 20.012093 0.354005
v -0.500000 0.000000 0.500000
v 0.500000 0.000000 0.500000
v -0.500000 0.000000 -0.500000
v 0.500000 0.000000 -0.500000
vt 0.262329 0.201458
vt 0.226872 0.201458
vt 0.226872 0.236915
vt 0.262329 0.236915
vt 0.297786 0.130544
vt 0.297786 0.166001
vt 0.191414 0.130544
vt 0.191414 0.166001
vt 0.262329 0.130544
vt 0.262329 0.166001
vt 0.226872 0.166001
vt 0.226872 0.130544
vt 0.226872 0.272373
vt 0.226872 0.130544
vt 0.217379 0.130544
vt 0.226872 0.262880
vt 0.226929 0.130602
vt 0.262329 0.130544
vt 0.262329 0.272373
vt 0.262329 0.262880
vt 0.271821 0.130544
vt 0.262271 0.130602
vt 0.226872 0.166001
vt 0.226872 0.175493
vt 0.217379 0.166001
vt 0.226929 0.165943
vt 0.262329 0.166001
vt 0.271821 0.166001
vt 0.262329 0.175493
vt 0.262271 0.165943
vt 0.228838 0.132510
vt 0.227865 0.131537
vt 0.230164 0.133837
vt 0.260362 0.132510
vt 0.259036 0.133837
vt 0.261336 0.131537
vt 0.260362 0.164035
vt 0.259036 0.162708
vt 0.261336 0.165008
vt 0.228838 0.164035
vt 0.230164 0.162708
vt 0.227865 0.165008
vt 0.064379 0.686596
vt 0.314379 0.686596
vt 0.314379 0.936596
vt 0.064379 0.936596
vn -0.996824 0.000000 0.079642
vn -0.923879 0.000000 0.382684
vn -0.923879 0.000000 0.382684
vn -0.996824 0.000000 0.079642
vn -0.382683 0.000000 0.923880
vn -0.123199 -0.123198 0.984705
vn -0.123200 0.123200 0.984705
vn -0.382683 0.000000 0.923880
vn 0.000000 -0.382678 0.923882
vn 0.000000 -0.382678 0.923882
vn 0.123199 -0.123198 0.984705
vn 0.000000 -0.923883 0.382675
vn 0.000000 -0.996824 0.079639
vn 0.000000 -0.996824 0.079639
vn 0.000000 -0.923883 0.382675
vn 0.382684 0.000000 0.923880
vn 0.382684 0.000000 0.923880
vn 0.123200 0.123200 0.984705
vn 0.923879 0.000000 0.382684
vn 0.996824 0.000000 0.079642
vn 0.996824 0.000000 0.079642
vn 0.923879 0.000000 0.382684
vn 0.000000 0.996824 0.079639
vn 0.000000 0.923883 0.382675
vn 0.000000 0.923883 0.382675
vn 0.000000 0.996824 0.079639
vn 0.000000 0.382686 0.923878
vn 0.000000 0.382686 0.923878
vn -0.989772 0.000000 0.142660
vn -0.923880 0.000000 0.382684
vn -0.923880 0.000000 0.382684
vn -0.989772 0.000000 0.142660
vn -0.382684 0.000000 0.923879
vn -0.024719 -0.024719 0.999389
vn -0.024719 0.024719 0.999389
vn -0.382684 0.000000 0.923879
vn 0.000000 -0.382677 0.923882
vn 0.000000 -0.382677 0.923882
vn 0.024719 -0.024719 0.999389
vn 0.000000 -0.923883 0.382674
vn 0.000000 -0.989772 0.142656
vn 0.000000 -0.989772 0.142656
vn 0.000000 -0.923883 0.382674
vn 0.382684 0.000000 0.923879
vn 0.382684 0.000000 0.923879
vn 0.024719 0.024719 0.999389
vn 0.923880 0.000000 0.382684
vn 0.989772 0.000000 0.142660
vn 0.989772 0.000000 0.142660
vn 0.923880 0.000000 0.382684
vn 0.000000 0.382687 0.923878
vn 0.000000 0.382687 0.923878
vn 0.000000 0.923893 0.382650
vn 0.000000 0.989774 0.142645
vn 0.000000 0.989774 0.142645
vn 0.000000 0.923893 0.382650
vn 0.000000 1.000000 0.000000
vn 0.000000 1.000000 0.000000
vn 0.000000 -1.000000 0.000000
vn 0.000000 -1.000000 0.000000
vn 1.000000 0.000000 0.000000
vn 1.000000 0.000000 0.000000
vn -1.000000 0.000000 0.000000
vn -1.000000 0.000000 0.000000
vn -0.000000 0.000000 1.000000
vn 0.000000 0.000000 1.000000
vn -0.000000 0.000000 1.000000
vn 0.000000 0.000000 1.000000
vn 0.000000 -1.000000 0.000000
vn 0.000000 -1.000000 0.000000
vn 1.000000 0.000000 0.000000
vn 1.000000 0.000000 0.000000
vn 0.000000 1.000000 0.000000
vn 0.000000 1.000000 0.000000
vn -1.000000 0.000000 0.000000
vn -1.000000 0.000000 0.000000
vn 0.000000 1.000000 0.000000
vn 0.000000 1.000000 0.000000
vn 0.000000 1.000000 0.000000
vn 0.000000 1.000000 0.000000
s 1
usemtl initialShadingGroup
f 10/15/1 9/14/2 15/23/3 16/25/4
s 2
f 9/14/5 11/17/6 17/26/7 15/23/8
f 11/17/6 9/14/9 12/18/10 14/22/11
s 4
f 9/13/12 10/16/13 13/20/14 12/19/15
s 2
f 14/22/11 12/18/16 18/27/17 20/30/18
s 6
f 12/18/19 13/21/20 19/28/21 18/27/22
s 7
f 16/24/23 15/23/24 18/27/25 19/29/26
s 2
f 15/23/27 17/26/7 20/30/18 18/27/28
s 9
f 22/32/29 21/31/30 30/40/31 32/42/32
s 10
f 21/31/33 23/33/34 31/41/35 30/40/36
f 23/33/34 21/31/37 24/34/38 25/35/39
s 11
f 21/31/40 22/32/41 26/36/42 24/34/43
s 10
f 25/35/39 24/34/44 27/37/45 28/38/46
s 12
f 24/34/47 26/36/48 29/39/49 27/37/50
s 10
f 28/38/46 27/37/51 30/40/52 31/41/35
s 13
f 27/37/53 29/39/54 32/42/55 30/40/56
s 10
f 23/33/34 25/35/39 28/38/46 31/41/35
s 7
f 16/24/23 19/29/26 2/1/57 1/2/58
s 4
f 3/3/59 4/4/60 13/20/14 10/16/13
s 6
f 13/21/20 4/5/61 2/6/62 19/28/21
s 1
f 3/7/63 10/15/1 16/25/4 1/8/64
s 2
f 11/17/6 14/22/11 6/9/65 5/12/66
f 14/22/11 20/30/18 7/10/67 6/9/65
f 20/30/18 17/26/7 8/11/68 7/10/67
f 17/26/7 11/17/6 5/12/66 8/11/68
s 11
f 5/12/69 6/9/70 26/36/42 22/32/41
s 12
f 6/9/71 7/10/72 29/39/49 26/36/48
s 13
f 7/10/73 8/11/74 32/42/55 29/39/54
s 9
f 8/11/75 5/12/76 22/32/29 32/42/32
s off
f 33/43/77 34/44/78 36/45/79 35/46/80
