# This file uses centimeters as units for non-parametric coordinates.

mtllib window_base_1.mtl
v -0.500000 0.000000 0.200691
v 0.500000 0.000000 0.200691
v -0.500000 0.000000 0.000000
v 0.500000 0.000000 0.000000
v -6.516671 27.551014 0.254829
v 6.516671 27.551014 0.254829
v -6.516671 9.194420 0.254829
v 6.516671 9.194423 0.254829
v -6.516671 9.194420 0.694576
v 6.516671 9.194420 0.694576
v -6.516671 27.551018 0.694576
v 6.516671 27.551018 0.694576
v -6.516671 27.551018 0.000000
v 6.516671 27.551018 0.000000
v -6.516671 9.194420 0.000000
v 6.516671 9.194420 0.000000
v -5.444196 10.266895 0.694576
v 5.444196 10.266895 0.694576
v 5.444196 26.478540 0.694576
v -5.444196 26.478540 0.694576
v -5.444196 26.478540 0.000000
v 5.444196 26.478540 0.000000
v 5.444196 10.266895 0.000000
v -5.444196 10.266895 0.000000
v 0.000000 26.478540 0.694576
v 0.000000 27.551018 0.694576
v 0.000000 27.551018 0.000000
v 0.000000 26.478540 0.000000
v 0.000000 10.266895 0.000000
v 0.000000 9.194421 0.000000
v 0.000000 9.194421 0.694576
v 0.000000 10.266895 0.694576
v -5.444196 18.372719 0.694576
v -6.516671 18.372719 0.694576
v -6.516671 18.372719 0.000000
v -5.444196 18.372719 0.000000
v 0.000000 18.372719 0.000000
v 5.444196 18.372719 0.000000
v 6.516671 18.372719 0.000000
v 6.516671 18.372719 0.694576
v 5.444196 18.372719 0.694576
v 0.000000 18.372719 0.694576
v 0.484553 26.478540 0.694576
v 0.580010 27.551018 0.694576
v 0.580010 27.551018 0.000000
v 0.484553 26.478540 0.000000
v 0.484553 18.372719 0.000000
v 0.484553 10.266895 0.000000
v 0.580010 9.194420 0.000000
v 0.580010 9.194420 0.694576
v 0.484553 10.266895 0.694576
v 0.484553 18.372719 0.694576
v -0.484553 26.478540 0.694576
v -0.580010 27.551018 0.694576
v -0.580010 27.551018 0.000000
v -0.484553 26.478540 0.000000
v -0.484553 18.372719 0.000000
v -0.484553 10.266895 0.000000
v -0.580010 9.194421 0.000000
v -0.580010 9.194421 0.694576
v -0.484553 10.266895 0.694576
v -0.484553 18.372719 0.694576
v -5.444196 18.855612 0.000000
v -6.516671 18.948217 0.000000
v -6.516671 18.948217 0.694576
v -5.444196 18.855612 0.694576
v -0.484553 18.855612 0.694576
v 0.000000 18.855612 0.694576
v 0.484553 18.855612 0.694576
v 5.444196 18.855612 0.694576
v 6.516671 18.948217 0.694576
v 6.516671 18.948217 0.000000
v 5.444196 18.855612 0.000000
v 0.484553 18.855612 0.000000
v 0.000000 18.855612 0.000000
v -0.484553 18.855612 0.000000
v -5.444196 17.889826 0.694576
v -6.516671 17.797216 0.694576
v -6.516671 17.797216 0.000000
v -5.444196 17.889826 0.000000
v -0.484553 17.889826 0.000000
v 0.000000 17.889826 0.000000
v 0.484553 17.889826 0.000000
v 5.444196 17.889826 0.000000
v 6.516671 17.797216 0.000000
v 6.516671 17.797216 0.694576
v 5.444196 17.889826 0.694576
v 0.484553 17.889826 0.694576
v 0.000000 17.889826 0.694576
v -0.484553 17.889826 0.694576
vt 0.044674 0.935164
vt 0.071312 0.935164
vt 0.071312 0.961802
vt 0.044674 0.961802
vt 0.554846 0.548242
vt 0.554846 0.900835
vt 0.907439 0.900835
vt 0.907439 0.548242
vt 0.267496 0.193490
vt 0.281385 0.193490
vt 0.281385 0.249045
vt 0.267496 0.249045
vt 0.267496 0.304601
vt 0.281385 0.304601
vt 0.281385 0.360156
vt 0.267496 0.360156
vt 0.323051 0.137934
vt 0.378607 0.137934
vt 0.378607 0.151823
vt 0.323051 0.151823
vt 0.211940 0.137934
vt 0.267496 0.137934
vt 0.267496 0.151823
vt 0.211940 0.151823
vt 0.281385 0.137934
vt 0.281385 0.137934
vt 0.267496 0.137934
vt 0.323051 0.151823
vt 0.323051 0.137934
vt 0.267496 0.193490
vt 0.281385 0.193490
vt 0.267496 0.151823
vt 0.281385 0.249045
vt 0.267496 0.249045
vt 0.323051 0.290712
vt 0.323051 0.304601
vt 0.323051 0.304601
vt 0.323051 0.290712
vt 0.267496 0.304601
vt 0.281385 0.304601
vt 0.267496 0.290712
vt 0.267496 0.290712
vt 0.309163 0.193490
vt 0.295274 0.193490
vt 0.295274 0.193490
vt 0.309163 0.193490
vt 0.295274 0.249045
vt 0.309163 0.249045
vt 0.295274 0.249045
vt 0.309163 0.249045
vt 0.295274 0.304601
vt 0.295274 0.290712
vt 0.309163 0.290712
vt 0.309163 0.304601
vt 0.309163 0.304601
vt 0.295274 0.304601
vt 0.295274 0.360156
vt 0.309163 0.360156
vt 0.295274 0.137934
vt 0.295274 0.137934
vt 0.309163 0.137934
vt 0.309163 0.137934
vt 0.295274 0.151823
vt 0.309163 0.151823
vt 0.267496 0.179601
vt 0.267496 0.179601
vt 0.211940 0.179601
vt 0.211940 0.193490
vt 0.267496 0.262934
vt 0.267496 0.262934
vt 0.309163 0.262934
vt 0.295274 0.262934
vt 0.323051 0.249045
vt 0.323051 0.262934
vt 0.323051 0.262934
vt 0.323051 0.249045
vt 0.323051 0.179601
vt 0.378607 0.179601
vt 0.378607 0.193490
vt 0.323051 0.193490
vt 0.323051 0.179601
vt 0.323051 0.193490
vt 0.295274 0.179601
vt 0.309163 0.179601
vt 0.323051 0.360156
vt 0.281385 0.262934
vt 0.281385 0.290712
vt 0.281385 0.151823
vt 0.281385 0.179601
vt 0.267496 0.276823
vt 0.267496 0.276823
vt 0.211940 0.165712
vt 0.267496 0.165712
vt 0.267496 0.165712
vt 0.281385 0.165712
vt 0.295274 0.165712
vt 0.309163 0.165712
vt 0.323051 0.165712
vt 0.323051 0.165712
vt 0.378607 0.165712
vt 0.323051 0.276823
vt 0.323051 0.276823
vt 0.309163 0.276823
vt 0.295274 0.276823
vt 0.281385 0.276823
vn 0.000000 1.000000 0.000000
vn 0.000000 1.000000 0.000000
vn 0.000000 1.000000 0.000000
vn 0.000000 1.000000 0.000000
vn 0.000000 0.000000 1.000000
vn 0.000000 0.000000 1.000000
vn 0.000000 0.000000 1.000000
vn 0.000000 0.000000 1.000000
vn 0.000000 1.000000 0.000000
vn 0.000000 1.000000 0.000000
vn 0.000000 1.000000 0.000000
vn 0.000000 1.000000 0.000000
vn 0.000000 -1.000000 0.000000
vn 0.000000 -1.000000 0.000000
vn 0.000000 -1.000000 0.000000
vn 0.000000 -1.000000 0.000000
vn 1.000000 0.000000 0.000000
vn 1.000000 0.000000 0.000000
vn 1.000000 0.000000 0.000000
vn 1.000000 0.000000 0.000000
vn -1.000000 0.000000 0.000000
vn -1.000000 0.000000 0.000000
vn -1.000000 0.000000 0.000000
vn -1.000000 0.000000 0.000000
vn 0.000000 0.000000 1.000000
vn 0.000000 0.000000 1.000000
vn 0.000000 0.000000 1.000000
vn 0.000000 0.000000 1.000000
vn 0.000000 0.000000 1.000000
vn 0.000000 0.000000 1.000000
vn 0.000000 0.000000 1.000000
vn 0.000000 0.000000 1.000000
vn 0.000000 0.000000 1.000000
vn 0.000000 0.000000 1.000000
vn 0.000000 0.000000 1.000000
vn 0.000000 0.000000 1.000000
vn 0.000000 0.000000 1.000000
vn 0.000000 0.000000 1.000000
vn 0.000000 0.000000 1.000000
vn 0.000000 0.000000 1.000000
vn 0.000000 0.000000 -1.000000
vn 0.000000 0.000000 -1.000000
vn 0.000000 0.000000 -1.000000
vn 0.000000 0.000000 -1.000000
vn 0.000000 0.000000 -1.000000
vn 0.000000 0.000000 -1.000000
vn 0.000000 0.000000 -1.000000
vn 0.000000 0.000000 -1.000000
vn 0.000000 0.000000 -1.000000
vn 0.000000 0.000000 -1.000000
vn 0.000000 0.000000 -1.000000
vn 0.000000 0.000000 -1.000000
vn 0.000000 0.000000 -1.000000
vn 0.000000 0.000000 -1.000000
vn 0.000000 0.000000 -1.000000
vn 0.000000 0.000000 -1.000000
vn 0.000000 0.000000 1.000000
vn 0.000000 0.000000 1.000000
vn 0.000000 0.000000 1.000000
vn 0.000000 0.000000 1.000000
vn 0.000000 1.000000 0.000000
vn 0.000000 1.000000 0.000000
vn 0.000000 1.000000 0.000000
vn 0.000000 1.000000 0.000000
vn 0.000000 0.000000 -1.000000
vn 0.000000 0.000000 -1.000000
vn 0.000000 0.000000 -1.000000
vn 0.000000 0.000000 -1.000000
vn 0.000000 0.000000 -1.000000
vn 0.000000 0.000000 -1.000000
vn 0.000000 0.000000 -1.000000
vn 0.000000 0.000000 -1.000000
vn 0.000000 0.000000 -1.000000
vn 0.000000 0.000000 -1.000000
vn 0.000000 0.000000 -1.000000
vn 0.000000 0.000000 -1.000000
vn 0.000000 -1.000000 0.000000
vn 0.000000 -1.000000 0.000000
vn 0.000000 -1.000000 0.000000
vn 0.000000 -1.000000 0.000000
vn 0.000000 0.000000 1.000000
vn 0.000000 0.000000 1.000000
vn 0.000000 0.000000 1.000000
vn 0.000000 0.000000 1.000000
vn 0.000000 0.000000 1.000000
vn 0.000000 0.000000 1.000000
vn 0.000000 0.000000 1.000000
vn 0.000000 0.000000 1.000000
vn 0.000000 0.000000 1.000000
vn 0.000000 0.000000 1.000000
vn 0.000000 0.000000 1.000000
vn 0.000000 0.000000 1.000000
vn -1.000000 0.000000 0.000000
vn -1.000000 0.000000 0.000000
vn -1.000000 0.000000 0.000000
vn -1.000000 0.000000 0.000000
vn 0.000000 0.000000 -1.000000
vn 0.000000 0.000000 -1.000000
vn 0.000000 0.000000 -1.000000
vn 0.000000 0.000000 -1.000000
vn 0.000000 0.000000 -1.000000
vn 0.000000 0.000000 -1.000000
vn 0.000000 0.000000 -1.000000
vn 0.000000 0.000000 -1.000000
vn 0.000000 0.000000 -1.000000
vn 0.000000 0.000000 -1.000000
vn 0.000000 0.000000 -1.000000
vn 0.000000 0.000000 -1.000000
vn 1.000000 0.000000 0.000000
vn 1.000000 0.000000 0.000000
vn 1.000000 0.000000 0.000000
vn 1.000000 0.000000 0.000000
vn 0.000000 0.000000 1.000000
vn 0.000000 0.000000 1.000000
vn 0.000000 0.000000 1.000000
vn 0.000000 0.000000 1.000000
vn 0.000000 0.000000 1.000000
vn 0.000000 0.000000 1.000000
vn 0.000000 0.000000 1.000000
vn 0.000000 0.000000 1.000000
vn 0.000000 0.000000 1.000000
vn 0.000000 0.000000 1.000000
vn 0.000000 0.000000 1.000000
vn 0.000000 0.000000 1.000000
vn 0.000000 1.000000 0.000000
vn 0.000000 1.000000 0.000000
vn 0.000000 1.000000 0.000000
vn 0.000000 1.000000 0.000000
vn 0.000000 0.000000 -1.000000
vn 0.000000 0.000000 -1.000000
vn 0.000000 0.000000 -1.000000
vn 0.000000 0.000000 -1.000000
vn 0.000000 0.000000 -1.000000
vn 0.000000 0.000000 -1.000000
vn 0.000000 0.000000 -1.000000
vn 0.000000 0.000000 -1.000000
vn 0.000000 -1.000000 0.000000
vn 0.000000 -1.000000 0.000000
vn 0.000000 -1.000000 0.000000
vn 0.000000 -1.000000 0.000000
vn 0.000000 0.000000 1.000000
vn 0.000000 0.000000 1.000000
vn 0.000000 0.000000 1.000000
vn 0.000000 0.000000 1.000000
vn 0.000000 0.000000 1.000000
vn 0.000000 0.000000 1.000000
vn 0.000000 0.000000 1.000000
vn 0.000000 0.000000 1.000000
vn 0.000000 1.000000 0.000000
vn 0.000000 1.000000 0.000000
vn 0.000000 1.000000 0.000000
vn 0.000000 1.000000 0.000000
vn 0.000000 0.000000 -1.000000
vn 0.000000 0.000000 -1.000000
vn 0.000000 0.000000 -1.000000
vn 0.000000 0.000000 -1.000000
vn 0.000000 0.000000 -1.000000
vn 0.000000 0.000000 -1.000000
vn 0.000000 0.000000 -1.000000
vn 0.000000 0.000000 -1.000000
vn 0.000000 0.000000 -1.000000
vn 0.000000 0.000000 -1.000000
vn 0.000000 0.000000 -1.000000
vn 0.000000 0.000000 -1.000000
vn 0.000000 0.000000 -1.000000
vn 0.000000 0.000000 -1.000000
vn 0.000000 0.000000 -1.000000
vn 0.000000 0.000000 -1.000000
vn 0.000000 -1.000000 0.000000
vn 0.000000 -1.000000 0.000000
vn 0.000000 -1.000000 0.000000
vn 0.000000 -1.000000 0.000000
vn 0.000000 0.000000 1.000000
vn 0.000000 0.000000 1.000000
vn 0.000000 0.000000 1.000000
vn 0.000000 0.000000 1.000000
vn 0.000000 0.000000 1.000000
vn 0.000000 0.000000 1.000000
vn 0.000000 0.000000 1.000000
vn 0.000000 0.000000 1.000000
vn 0.000000 0.000000 1.000000
vn 0.000000 0.000000 1.000000
vn 0.000000 0.000000 1.000000
vn 0.000000 0.000000 1.000000
vn 0.000000 0.000000 -1.000000
vn 0.000000 0.000000 -1.000000
vn 0.000000 0.000000 -1.000000
vn 0.000000 0.000000 -1.000000
vn -1.000000 0.000000 0.000000
vn -1.000000 0.000000 0.000000
vn -1.000000 0.000000 0.000000
vn -1.000000 0.000000 0.000000
vn 0.000000 0.000000 1.000000
vn 0.000000 0.000000 1.000000
vn 0.000000 0.000000 1.000000
vn 0.000000 0.000000 1.000000
vn 0.000000 0.000000 1.000000
vn 0.000000 0.000000 1.000000
vn 0.000000 0.000000 1.000000
vn 0.000000 0.000000 1.000000
vn 0.000000 0.000000 1.000000
vn 0.000000 0.000000 1.000000
vn 0.000000 0.000000 1.000000
vn 0.000000 0.000000 1.000000
vn 0.000000 0.000000 1.000000
vn 0.000000 0.000000 1.000000
vn 0.000000 0.000000 1.000000
vn 0.000000 0.000000 1.000000
vn 0.000000 0.000000 1.000000
vn 0.000000 0.000000 1.000000
vn 0.000000 0.000000 1.000000
vn 0.000000 0.000000 1.000000
vn 0.000000 0.000000 1.000000
vn 0.000000 0.000000 1.000000
vn 0.000000 0.000000 1.000000
vn 0.000000 0.000000 1.000000
vn 1.000000 0.000000 0.000000
vn 1.000000 0.000000 0.000000
vn 1.000000 0.000000 0.000000
vn 1.000000 0.000000 0.000000
vn 0.000000 0.000000 -1.000000
vn 0.000000 0.000000 -1.000000
vn 0.000000 0.000000 -1.000000
vn 0.000000 0.000000 -1.000000
vn 0.000000 0.000000 -1.000000
vn 0.000000 0.000000 -1.000000
vn 0.000000 0.000000 -1.000000
vn 0.000000 0.000000 -1.000000
vn 0.000000 0.000000 -1.000000
vn 0.000000 0.000000 -1.000000
vn 0.000000 0.000000 -1.000000
vn 0.000000 0.000000 -1.000000
vn 0.000000 0.000000 -1.000000
vn 0.000000 0.000000 -1.000000
vn 0.000000 0.000000 -1.000000
vn 0.000000 0.000000 -1.000000
vn 0.000000 0.000000 -1.000000
vn 0.000000 0.000000 -1.000000
vn 0.000000 0.000000 -1.000000
vn 0.000000 0.000000 -1.000000
vn 0.000000 0.000000 1.000000
vn 0.000000 0.000000 1.000000
vn 0.000000 0.000000 1.000000
vn 0.000000 0.000000 1.000000
vn -1.000000 0.000000 0.000000
vn -1.000000 0.000000 0.000000
vn -1.000000 0.000000 0.000000
vn -1.000000 0.000000 0.000000
vn 0.000000 0.000000 -1.000000
vn 0.000000 0.000000 -1.000000
vn 0.000000 0.000000 -1.000000
vn 0.000000 0.000000 -1.000000
vn 0.000000 0.000000 -1.000000
vn 0.000000 0.000000 -1.000000
vn 0.000000 0.000000 -1.000000
vn 0.000000 0.000000 -1.000000
vn 0.000000 0.000000 -1.000000
vn 0.000000 0.000000 -1.000000
vn 0.000000 0.000000 -1.000000
vn 0.000000 0.000000 -1.000000
vn 0.000000 0.000000 -1.000000
vn 0.000000 0.000000 -1.000000
vn 0.000000 0.000000 -1.000000
vn 0.000000 0.000000 -1.000000
vn 0.000000 0.000000 -1.000000
vn 0.000000 0.000000 -1.000000
vn 0.000000 0.000000 -1.000000
vn 0.000000 0.000000 -1.000000
vn 0.000000 0.000000 -1.000000
vn 0.000000 0.000000 -1.000000
vn 0.000000 0.000000 -1.000000
vn 0.000000 0.000000 -1.000000
vn 1.000000 0.000000 0.000000
vn 1.000000 0.000000 0.000000
vn 1.000000 0.000000 0.000000
vn 1.000000 0.000000 0.000000
vn 0.000000 0.000000 1.000000
vn 0.000000 0.000000 1.000000
vn 0.000000 0.000000 1.000000
vn 0.000000 0.000000 1.000000
vn 0.000000 0.000000 1.000000
vn 0.000000 0.000000 1.000000
vn 0.000000 0.000000 1.000000
vn 0.000000 0.000000 1.000000
vn 0.000000 0.000000 1.000000
vn 0.000000 0.000000 1.000000
vn 0.000000 0.000000 1.000000
vn 0.000000 0.000000 1.000000
vn 0.000000 0.000000 1.000000
vn 0.000000 0.000000 1.000000
vn 0.000000 0.000000 1.000000
vn 0.000000 0.000000 1.000000
vn 0.000000 0.000000 1.000000
vn 0.000000 0.000000 1.000000
vn 0.000000 0.000000 1.000000
vn 0.000000 0.000000 1.000000
vn -1.000000 0.000000 0.000000
vn -1.000000 0.000000 0.000000
vn -1.000000 0.000000 0.000000
vn -1.000000 0.000000 0.000000
vn 0.000000 1.000000 0.000000
vn 0.000000 1.000000 0.000000
vn 0.000000 1.000000 0.000000
vn 0.000000 1.000000 0.000000
vn 1.000000 0.000000 0.000000
vn 1.000000 0.000000 0.000000
vn 1.000000 0.000000 0.000000
vn 1.000000 0.000000 0.000000
vn 0.000000 -1.000000 0.000000
vn 0.000000 -1.000000 0.000000
vn 0.000000 -1.000000 0.000000
vn 0.000000 -1.000000 0.000000
vn 0.000000 -1.000000 0.000000
vn 0.000000 -1.000000 0.000000
vn 0.000000 -1.000000 0.000000
vn 0.000000 -1.000000 0.000000
vn -1.000000 0.000000 0.000000
vn -1.000000 0.000000 0.000000
vn -1.000000 0.000000 0.000000
vn -1.000000 0.000000 0.000000
vn 0.000000 1.000000 0.000000
vn 0.000000 1.000000 0.000000
vn 0.000000 1.000000 0.000000
vn 0.000000 1.000000 0.000000
vn 1.000000 0.000000 0.000000
vn 1.000000 0.000000 0.000000
vn 1.000000 0.000000 0.000000
vn 1.000000 0.000000 0.000000
vn 0.000000 -1.000000 0.000000
vn 0.000000 -1.000000 0.000000
vn 0.000000 -1.000000 0.000000
vn 0.000000 -1.000000 0.000000
vn 1.000000 0.000000 0.000000
vn 1.000000 0.000000 0.000000
vn 1.000000 0.000000 0.000000
vn 1.000000 0.000000 0.000000
vn 0.000000 1.000000 0.000000
vn 0.000000 1.000000 0.000000
vn 0.000000 1.000000 0.000000
vn 0.000000 1.000000 0.000000
vn -1.000000 0.000000 0.000000
vn -1.000000 0.000000 0.000000
vn -1.000000 0.000000 0.000000
vn -1.000000 0.000000 0.000000
vn 1.000000 0.000000 0.000000
vn 1.000000 0.000000 0.000000
vn 1.000000 0.000000 0.000000
vn 1.000000 0.000000 0.000000
vn 0.000000 -1.000000 0.000000
vn 0.000000 -1.000000 0.000000
vn 0.000000 -1.000000 0.000000
vn 0.000000 -1.000000 0.000000
vn -1.000000 0.000000 0.000000
vn -1.000000 0.000000 0.000000
vn -1.000000 0.000000 0.000000
vn -1.000000 0.000000 0.000000
vn 0.000000 1.000000 0.000000
vn 0.000000 1.000000 0.000000
vn 0.000000 1.000000 0.000000
vn 0.000000 1.000000 0.000000
s off
usemtl initialShadingGroup
f 1/1/1 2/2/2 4/3/3 3/4/4
f 5/5/5 7/6/6 8/7/7 6/8/8
f 11/9/9 54/10/10 55/11/11 13/12/12
f 15/13/13 59/14/14 60/15/15 9/16/16
f 10/17/17 16/18/18 85/19/19 86/20/20
f 15/21/21 9/22/22 78/23/23 79/24/24
f 9/22/25 60/25/26 61/26/27 17/27/28
f 10/17/29 86/20/30 87/28/31 18/29/32
f 54/10/33 11/9/34 20/30/35 53/31/36
f 78/23/37 9/22/38 17/27/39 77/32/40
f 13/12/41 55/11/42 56/33/43 21/34/44
f 85/35/45 16/36/46 23/37/47 84/38/48
f 59/14/49 15/13/50 24/39/51 58/40/52
f 15/13/53 79/41/54 80/42/55 24/39/56
f 44/43/57 26/44/58 25/45/59 43/46/60
f 27/47/61 26/44/62 44/43/63 45/48/64
f 28/49/65 27/47/66 45/48/67 46/50/68
f 29/51/69 82/52/70 83/53/71 48/54/72
f 49/55/73 30/56/74 29/51/75 48/54/76
f 31/57/77 30/56/78 49/55/79 50/58/80
f 32/59/81 31/60/82 50/61/83 51/62/84
f 89/63/85 32/59/86 51/62/87 88/64/88
f 11/9/89 65/65/90 66/66/91 20/30/92
f 64/67/93 65/65/94 11/9/95 13/68/96
f 63/69/97 64/70/98 13/12/99 21/34/100
f 74/71/101 75/72/102 28/49/103 46/50/104
f 14/73/105 72/74/106 73/75/107 22/76/108
f 71/77/109 72/78/110 14/79/111 12/80/112
f 70/81/113 71/77/114 12/80/115 19/82/116
f 25/45/117 68/83/118 69/84/119 43/46/120
f 12/80/121 44/43/122 43/46/123 19/82/124
f 45/48/125 44/43/126 12/80/127 14/73/128
f 46/50/129 45/48/130 14/73/131 22/76/132
f 16/36/133 49/55/134 48/54/135 23/37/136
f 50/58/137 49/55/138 16/36/139 10/85/140
f 51/62/141 50/61/142 10/17/143 18/29/144
f 26/44/145 54/10/146 53/31/147 25/45/148
f 55/11/149 54/10/150 26/44/151 27/47/152
f 56/33/153 55/11/154 27/47/155 28/49/156
f 76/86/157 56/33/158 28/49/159 75/72/160
f 58/40/161 81/87/162 82/52/163 29/51/164
f 30/56/165 59/14/166 58/40/167 29/51/168
f 60/15/169 59/14/170 30/56/171 31/57/172
f 61/26/173 60/25/174 31/60/175 32/59/176
f 90/88/177 61/26/178 32/59/179 89/63/180
f 53/31/181 67/89/182 68/83/183 25/45/184
f 36/90/185 35/91/186 64/70/187 63/69/188
f 35/92/189 34/93/190 65/65/191 64/67/192
f 66/66/193 65/65/194 34/93/195 33/94/196
f 33/94/197 62/95/198 67/89/199 66/66/200
f 68/83/201 67/89/202 62/95/203 42/96/204
f 69/84/205 68/83/206 42/96/207 52/97/208
f 70/81/209 69/84/210 52/97/211 41/98/212
f 41/98/213 40/99/214 71/77/215 70/81/216
f 40/99/217 39/100/218 72/78/219 71/77/220
f 73/75/221 72/74/222 39/101/223 38/102/224
f 38/102/225 47/103/226 74/71/227 73/75/228
f 47/103/229 37/104/230 75/72/231 74/71/232
f 57/105/233 76/86/234 75/72/235 37/104/236
f 63/69/237 76/86/238 57/105/239 36/90/240
f 34/93/241 78/23/242 77/32/243 33/94/244
f 79/24/245 78/23/246 34/93/247 35/92/248
f 80/42/249 79/41/250 35/91/251 36/90/252
f 36/90/253 57/105/254 81/87/255 80/42/256
f 82/52/257 81/87/258 57/105/259 37/104/260
f 83/53/261 82/52/262 37/104/263 47/103/264
f 84/38/265 83/53/266 47/103/267 38/102/268
f 39/101/269 85/35/270 84/38/271 38/102/272
f 86/20/273 85/19/274 39/100/275 40/99/276
f 87/28/277 86/20/278 40/99/279 41/98/280
f 52/97/281 88/64/282 87/28/283 41/98/284
f 42/96/285 89/63/286 88/64/287 52/97/288
f 62/95/289 90/88/290 89/63/291 42/96/292
f 77/32/293 90/88/294 62/95/295 33/94/296
f 56/33/297 76/86/298 67/89/299 53/31/300
f 66/66/301 67/89/302 76/86/303 63/69/304
f 63/69/305 21/34/306 20/30/307 66/66/308
f 53/31/309 20/30/310 21/34/311 56/33/312
f 19/82/313 43/46/314 46/50/315 22/76/316
f 22/76/317 73/75/318 70/81/319 19/82/320
f 69/84/321 70/81/322 73/75/323 74/71/324
f 74/71/325 46/50/326 43/46/327 69/84/328
f 80/42/329 81/87/330 90/88/331 77/32/332
f 77/32/333 17/27/334 24/39/335 80/42/336
f 17/27/337 61/26/338 58/40/339 24/39/340
f 61/26/341 90/88/342 81/87/343 58/40/344
f 88/64/345 51/62/346 48/54/347 83/53/348
f 83/53/349 84/38/350 87/28/351 88/64/352
f 18/29/353 87/28/354 84/38/355 23/37/356
f 23/37/357 48/54/358 51/62/359 18/29/360
