# This file uses centimeters as units for non-parametric coordinates.

v -2.126702 8.991217 -0.282366
v 2.126702 8.991217 -0.282366
v -2.126702 3.000580 -0.282366
v 2.126702 3.000581 -0.282366
v -2.126702 3.000580 0.282366
v 2.126702 3.000580 0.282366
v -2.126702 8.991218 0.282366
v 2.126702 8.991218 0.282366
v -2.126702 8.991218 -0.282366
v 2.126702 8.991218 -0.282366
v -2.126702 3.000580 -0.282366
v 2.126702 3.000580 -0.282366
v -1.776702 3.350580 0.282366
v 1.776702 3.350580 0.282366
v 1.776702 8.641217 0.282366
v -1.776702 8.641217 0.282366
v -1.776702 8.641217 -0.282366
v 1.776702 8.641217 -0.282366
v 1.776702 3.350580 -0.282366
v -1.776702 3.350580 -0.282366
v 0.000000 8.641217 0.282366
v 0.000000 8.991218 0.282366
v 0.000000 8.991218 -0.282366
v 0.000000 8.641217 -0.282366
v 0.000000 3.350580 -0.282366
v 0.000000 3.000580 -0.282366
v 0.000000 3.000580 0.282366
v 0.000000 3.350580 0.282366
v -1.776702 5.995899 0.282366
v -2.126702 5.995899 0.282366
v -2.126702 5.995899 -0.282366
v -1.776702 5.995899 -0.282366
v 0.000000 5.995899 -0.282366
v 1.776702 5.995899 -0.282366
v 2.126702 5.995899 -0.282366
v 2.126702 5.995899 0.282366
v 1.776702 5.995899 0.282366
v 0.000000 5.995899 0.282366
v 0.158133 8.641217 0.282366
v 0.189285 8.991218 0.282366
v 0.189285 8.991218 -0.282366
v 0.158133 8.641217 -0.282366
v 0.158133 5.995899 -0.282366
v 0.158133 3.350580 -0.282366
v 0.189285 3.000580 -0.282366
v 0.189285 3.000580 0.282366
v 0.158133 3.350580 0.282366
v 0.158133 5.995899 0.282366
v -0.158133 8.641217 0.282366
v -0.189285 8.991218 0.282366
v -0.189285 8.991218 -0.282366
v -0.158133 8.641217 -0.282366
v -0.158133 5.995899 -0.282366
v -0.158133 3.350580 -0.282366
v -0.189285 3.000580 -0.282366
v -0.189285 3.000580 0.282366
v -0.158133 3.350580 0.282366
v -0.158133 5.995899 0.282366
v -1.776702 6.153490 -0.282366
v -2.126702 6.183712 -0.282366
v -2.126702 6.183712 0.282366
v -1.776702 6.153490 0.282366
v -0.158133 6.153490 0.282366
v 0.000000 6.153490 0.282366
v 0.158133 6.153490 0.282366
v 1.776702 6.153490 0.282366
v 2.126702 6.183712 0.282366
v 2.126702 6.183712 -0.282366
v 1.776702 6.153490 -0.282366
v 0.158133 6.153490 -0.282366
v 0.000000 6.153490 -0.282366
v -0.158133 6.153490 -0.282366
v -1.776702 5.838308 0.282366
v -2.126702 5.808085 0.282366
v -2.126702 5.808085 -0.282366
v -1.776702 5.838308 -0.282366
v -0.158133 5.838308 -0.282366
v 0.000000 5.838308 -0.282366
v 0.158133 5.838308 -0.282366
v 1.776702 5.838308 -0.282366
v 2.126702 5.808085 -0.282366
v 2.126702 5.808085 0.282366
v 1.776702 5.838308 0.282366
v 0.158133 5.838308 0.282366
v 0.000000 5.838308 0.282366
v -0.158133 5.838308 0.282366
vt 0.554846 0.548242
vt 0.907439 0.548242
vt 0.554846 0.900835
vt 0.907439 0.900835
vt 0.267496 0.193490
vt 0.281385 0.193490
vt 0.281385 0.249045
vt 0.267496 0.249045
vt 0.267496 0.304601
vt 0.281385 0.304601
vt 0.281385 0.360156
vt 0.267496 0.360156
vt 0.323051 0.137934
vt 0.378607 0.137934
vt 0.378607 0.151823
vt 0.323051 0.151823
vt 0.211940 0.137934
vt 0.267496 0.137934
vt 0.267496 0.151823
vt 0.211940 0.151823
vt 0.281385 0.137934
vt 0.281385 0.137934
vt 0.267496 0.137934
vt 0.323051 0.151823
vt 0.323051 0.137934
vt 0.267496 0.193490
vt 0.281385 0.193490
vt 0.267496 0.151823
vt 0.281385 0.249045
vt 0.267496 0.249045
vt 0.323051 0.290712
vt 0.323051 0.304601
vt 0.323051 0.304601
vt 0.323051 0.290712
vt 0.267496 0.304601
vt 0.281385 0.304601
vt 0.267496 0.290712
vt 0.267496 0.290712
vt 0.309163 0.193490
vt 0.295274 0.193490
vt 0.295274 0.193490
vt 0.309163 0.193490
vt 0.295274 0.249045
vt 0.309163 0.249045
vt 0.295274 0.249045
vt 0.309163 0.249045
vt 0.295274 0.304601
vt 0.295274 0.290712
vt 0.309163 0.290712
vt 0.309163 0.304601
vt 0.309163 0.304601
vt 0.295274 0.304601
vt 0.295274 0.360156
vt 0.309163 0.360156
vt 0.295274 0.137934
vt 0.295274 0.137934
vt 0.309163 0.137934
vt 0.309163 0.137934
vt 0.295274 0.151823
vt 0.309163 0.151823
vt 0.267496 0.179601
vt 0.267496 0.179601
vt 0.211940 0.179601
vt 0.211940 0.193490
vt 0.267496 0.262934
vt 0.267496 0.262934
vt 0.309163 0.262934
vt 0.295274 0.262934
vt 0.323051 0.249045
vt 0.323051 0.262934
vt 0.323051 0.262934
vt 0.323051 0.249045
vt 0.323051 0.179601
vt 0.378607 0.179601
vt 0.378607 0.193490
vt 0.323051 0.193490
vt 0.323051 0.179601
vt 0.323051 0.193490
vt 0.295274 0.179601
vt 0.309163 0.179601
vt 0.323051 0.360156
vt 0.281385 0.262934
vt 0.281385 0.290712
vt 0.281385 0.151823
vt 0.281385 0.179601
vt 0.267496 0.276823
vt 0.267496 0.276823
vt 0.211940 0.165712
vt 0.267496 0.165712
vt 0.267496 0.165712
vt 0.281385 0.165712
vt 0.295274 0.165712
vt 0.309163 0.165712
vt 0.323051 0.165712
vt 0.323051 0.165712
vt 0.378607 0.165712
vt 0.323051 0.276823
vt 0.323051 0.276823
vt 0.309163 0.276823
vt 0.295274 0.276823
vt 0.281385 0.276823
vn -0.000000 0.000000 1.000000
vn -0.000000 0.000000 1.000000
vn -0.000000 0.000000 1.000000
vn -0.000000 0.000000 1.000000
vn 0.000000 1.000000 0.000000
vn 0.000000 1.000000 0.000000
vn 0.000000 1.000000 0.000000
vn 0.000000 1.000000 0.000000
vn 0.000000 -1.000000 0.000000
vn 0.000000 -1.000000 0.000000
vn 0.000000 -1.000000 0.000000
vn 0.000000 -1.000000 0.000000
vn 1.000000 0.000000 0.000000
vn 1.000000 0.000000 0.000000
vn 1.000000 0.000000 0.000000
vn 1.000000 0.000000 0.000000
vn -1.000000 0.000000 0.000000
vn -1.000000 0.000000 0.000000
vn -1.000000 0.000000 0.000000
vn -1.000000 0.000000 0.000000
vn 0.000000 0.000000 1.000000
vn 0.000000 0.000000 1.000000
vn 0.000000 0.000000 1.000000
vn 0.000000 0.000000 1.000000
vn 0.000000 0.000000 1.000000
vn 0.000000 0.000000 1.000000
vn 0.000000 0.000000 1.000000
vn 0.000000 0.000000 1.000000
vn 0.000000 0.000000 1.000000
vn -0.000000 0.000000 1.000000
vn -0.000000 0.000000 1.000000
vn 0.000000 0.000000 1.000000
vn 0.000000 0.000000 1.000000
vn 0.000000 0.000000 1.000000
vn 0.000000 0.000000 -1.000000
vn 0.000000 0.000000 -1.000000
vn 0.000000 0.000000 -1.000000
vn 0.000000 0.000000 -1.000000
vn -0.000000 0.000000 -1.000000
vn -0.000000 0.000000 -1.000000
vn -0.000000 0.000000 -1.000000
vn -0.000000 0.000000 -1.000000
vn 0.000000 0.000000 -1.000000
vn 0.000000 0.000000 -1.000000
vn 0.000000 0.000000 -1.000000
vn 0.000000 0.000000 -1.000000
vn 0.000000 0.000000 -1.000000
vn 0.000000 0.000000 -1.000000
vn 0.000000 0.000000 1.000000
vn 0.000000 0.000000 1.000000
vn 0.000000 0.000000 1.000000
vn 0.000000 0.000000 1.000000
vn 0.000000 1.000000 0.000000
vn 0.000000 1.000000 0.000000
vn 0.000000 1.000000 0.000000
vn 0.000000 1.000000 0.000000
vn 0.000000 0.000000 -1.000000
vn 0.000000 0.000000 -1.000000
vn 0.000000 0.000000 -1.000000
vn 0.000000 0.000000 -1.000000
vn 0.000000 0.000000 -1.000000
vn 0.000000 0.000000 -1.000000
vn 0.000000 0.000000 -1.000000
vn 0.000000 0.000000 -1.000000
vn 0.000000 0.000000 -1.000000
vn 0.000000 0.000000 -1.000000
vn 0.000000 -1.000000 0.000000
vn 0.000000 -1.000000 0.000000
vn 0.000000 -1.000000 0.000000
vn 0.000000 -1.000000 0.000000
vn 0.000000 0.000000 1.000000
vn 0.000000 0.000000 1.000000
vn 0.000000 0.000000 1.000000
vn 0.000000 0.000000 1.000000
vn 0.000000 0.000000 1.000000
vn 0.000000 0.000000 1.000000
vn -0.000000 0.000000 1.000000
vn -0.000000 0.000000 1.000000
vn -1.000000 0.000000 0.000000
vn -1.000000 0.000000 0.000000
vn -1.000000 0.000000 0.000000
vn -1.000000 0.000000 0.000000
vn 0.000000 0.000000 -1.000000
vn 0.000000 0.000000 -1.000000
vn 0.000000 0.000000 -1.000000
vn 0.000000 0.000000 -1.000000
vn 0.000000 0.000000 -1.000000
vn 0.000000 0.000000 -1.000000
vn 0.000000 0.000000 -1.000000
vn 0.000000 0.000000 -1.000000
vn 1.000000 0.000000 0.000000
vn 1.000000 0.000000 0.000000
vn 1.000000 0.000000 0.000000
vn 1.000000 0.000000 0.000000
vn 0.000000 0.000000 1.000000
vn 0.000000 0.000000 1.000000
vn 0.000000 0.000000 1.000000
vn 0.000000 0.000000 1.000000
vn 0.000000 0.000000 1.000000
vn 0.000000 0.000000 1.000000
vn 0.000000 1.000000 0.000000
vn 0.000000 1.000000 0.000000
vn 0.000000 -1.000000 0.000000
vn 0.000000 -1.000000 0.000000
vn 0.000000 0.000000 -1.000000
vn 0.000000 0.000000 -1.000000
vn 0.000000 0.000000 1.000000
vn 0.000000 0.000000 1.000000
vn 0.000000 0.000000 -1.000000
vn 0.000000 0.000000 -1.000000
vn -1.000000 0.000000 0.000000
vn -1.000000 0.000000 0.000000
vn 0.000000 0.000000 1.000000
vn 0.000000 0.000000 1.000000
vn 0.000000 0.000000 1.000000
vn 0.000000 0.000000 1.000000
vn 0.000000 0.000000 1.000000
vn 0.000000 0.000000 1.000000
vn 0.000000 0.000000 1.000000
vn 1.000000 0.000000 0.000000
vn 1.000000 0.000000 0.000000
vn 0.000000 0.000000 -1.000000
vn 0.000000 0.000000 -1.000000
vn 0.000000 0.000000 -1.000000
vn 0.000000 0.000000 -1.000000
vn 0.000000 0.000000 -1.000000
vn -1.000000 0.000000 0.000000
vn -1.000000 0.000000 0.000000
vn -1.000000 0.000000 0.000000
vn -1.000000 0.000000 0.000000
vn 0.000000 1.000000 0.000000
vn 0.000000 1.000000 0.000000
vn 0.000000 1.000000 0.000000
vn 0.000000 1.000000 0.000000
vn 1.000000 0.000000 0.000000
vn 1.000000 0.000000 0.000000
vn 1.000000 0.000000 0.000000
vn 1.000000 0.000000 0.000000
vn 0.000000 -1.000000 0.000000
vn 0.000000 -1.000000 0.000000
vn 0.000000 -1.000000 0.000000
vn 0.000000 -1.000000 0.000000
vn 0.000000 -1.000000 0.000000
vn 0.000000 -1.000000 0.000000
vn 0.000000 -1.000000 0.000000
vn 0.000000 -1.000000 0.000000
vn -1.000000 0.000000 0.000000
vn -1.000000 0.000000 0.000000
vn -1.000000 0.000000 0.000000
vn -1.000000 0.000000 0.000000
vn 0.000000 1.000000 0.000000
vn 0.000000 1.000000 0.000000
vn 0.000000 1.000000 0.000000
vn 0.000000 1.000000 0.000000
vn 1.000000 0.000000 0.000000
vn 1.000000 0.000000 0.000000
vn 1.000000 0.000000 0.000000
vn 1.000000 0.000000 0.000000
vn 0.000000 -1.000000 0.000000
vn 0.000000 -1.000000 0.000000
vn 0.000000 -1.000000 0.000000
vn 0.000000 -1.000000 0.000000
vn 1.000000 0.000000 0.000000
vn 1.000000 0.000000 0.000000
vn 1.000000 0.000000 0.000000
vn 1.000000 0.000000 0.000000
vn 0.000000 1.000000 0.000000
vn 0.000000 1.000000 0.000000
vn 0.000000 1.000000 0.000000
vn 0.000000 1.000000 0.000000
vn -1.000000 0.000000 0.000000
vn -1.000000 0.000000 0.000000
vn -1.000000 0.000000 0.000000
vn -1.000000 0.000000 0.000000
vn 1.000000 0.000000 0.000000
vn 1.000000 0.000000 0.000000
vn 1.000000 0.000000 0.000000
vn 1.000000 0.000000 0.000000
vn 0.000000 -1.000000 0.000000
vn 0.000000 -1.000000 0.000000
vn 0.000000 -1.000000 0.000000
vn 0.000000 -1.000000 0.000000
vn -1.000000 0.000000 0.000000
vn -1.000000 0.000000 0.000000
vn -1.000000 0.000000 0.000000
vn -1.000000 0.000000 0.000000
vn 0.000000 1.000000 0.000000
vn 0.000000 1.000000 0.000000
vn 0.000000 1.000000 0.000000
vn 0.000000 1.000000 0.000000
g pPlane2
f 1/1/1 3/3/2 4/4/3 2/2/4
f 7/5/5 50/6/6 51/7/7 9/8/8
f 11/9/9 55/10/10 56/11/11 5/12/12
f 6/13/13 12/14/14 81/15/15 82/16/16
f 11/17/17 5/18/18 74/19/19 75/20/20
f 5/18/21 56/21/22 57/22/23 13/23/24
f 6/13/25 82/16/26 83/24/27 14/25/28
f 50/6/29 7/5/30 16/26/31 49/27/32
f 74/19/33 5/18/21 13/23/24 73/28/34
f 9/8/35 51/7/36 52/29/37 17/30/38
f 81/31/39 12/32/40 19/33/41 80/34/42
f 55/10/43 11/9/44 20/35/45 54/36/46
f 11/9/44 75/37/47 76/38/48 20/35/45
f 40/39/49 22/40/50 21/41/51 39/42/52
f 23/43/53 22/40/54 40/39/55 41/44/56
f 24/45/57 23/43/58 41/44/59 42/46/60
f 25/47/61 78/48/62 79/49/63 44/50/64
f 45/51/65 26/52/66 25/47/61 44/50/64
f 27/53/67 26/52/68 45/51/69 46/54/70
f 28/55/71 27/56/72 46/57/73 47/58/74
f 85/59/75 28/55/71 47/58/74 84/60/76
f 7/5/30 61/61/77 62/62/78 16/26/31
f 60/63/79 61/61/80 7/5/81 9/64/82
f 59/65/83 60/66/84 9/8/35 17/30/38
f 70/67/85 71/68/86 24/45/57 42/46/60
f 10/69/87 68/70/88 69/71/89 18/72/90
f 67/73/91 68/74/92 10/75/93 8/76/94
f 66/77/95 67/73/96 8/76/97 15/78/98
f 21/41/51 64/79/99 65/80/100 39/42/52
f 8/76/97 40/39/49 39/42/52 15/78/98
f 41/44/56 40/39/55 8/76/101 10/69/102
f 42/46/60 41/44/59 10/69/87 18/72/90
f 12/32/40 45/51/65 44/50/64 19/33/41
f 46/54/70 45/51/69 12/32/103 6/81/104
f 47/58/74 46/57/73 6/13/25 14/25/28
f 22/40/50 50/6/29 49/27/32 21/41/51
f 51/7/7 50/6/6 22/40/54 23/43/53
f 52/29/37 51/7/36 23/43/58 24/45/57
f 72/82/105 52/29/37 24/45/57 71/68/86
f 54/36/46 77/83/106 78/48/62 25/47/61
f 26/52/66 55/10/43 54/36/46 25/47/61
f 56/11/11 55/10/10 26/52/68 27/53/67
f 57/22/23 56/21/22 27/56/72 28/55/71
f 86/84/107 57/22/23 28/55/71 85/59/75
f 49/27/32 63/85/108 64/79/99 21/41/51
f 32/86/109 31/87/110 60/66/84 59/65/83
f 31/88/111 30/89/112 61/61/80 60/63/79
f 62/62/78 61/61/77 30/89/113 29/90/114
f 29/90/114 58/91/115 63/85/108 62/62/78
f 64/79/99 63/85/108 58/91/115 38/92/116
f 65/80/100 64/79/99 38/92/116 48/93/117
f 66/77/95 65/80/100 48/93/117 37/94/118
f 37/94/118 36/95/119 67/73/96 66/77/95
f 36/95/120 35/96/121 68/74/92 67/73/91
f 69/71/89 68/70/88 35/97/122 34/98/123
f 34/98/123 43/99/124 70/67/85 69/71/89
f 43/99/124 33/100/125 71/68/86 70/67/85
f 53/101/126 72/82/105 71/68/86 33/100/125
f 59/65/83 72/82/105 53/101/126 32/86/109
f 30/89/113 74/19/33 73/28/34 29/90/114
f 75/20/20 74/19/19 30/89/112 31/88/111
f 76/38/48 75/37/47 31/87/110 32/86/109
f 32/86/109 53/101/126 77/83/106 76/38/48
f 78/48/62 77/83/106 53/101/126 33/100/125
f 79/49/63 78/48/62 33/100/125 43/99/124
f 80/34/42 79/49/63 43/99/124 34/98/123
f 35/97/122 81/31/39 80/34/42 34/98/123
f 82/16/16 81/15/15 35/96/121 36/95/120
f 83/24/27 82/16/26 36/95/119 37/94/118
f 48/93/117 84/60/76 83/24/27 37/94/118
f 38/92/116 85/59/75 84/60/76 48/93/117
f 58/91/115 86/84/107 85/59/75 38/92/116
f 73/28/34 86/84/107 58/91/115 29/90/114
f 52/29/127 72/82/128 63/85/129 49/27/130
f 62/62/131 63/85/132 72/82/133 59/65/134
f 59/65/135 17/30/136 16/26/137 62/62/138
f 49/27/139 16/26/140 17/30/141 52/29/142
f 15/78/143 39/42/144 42/46/145 18/72/146
f 18/72/147 69/71/148 66/77/149 15/78/150
f 65/80/151 66/77/152 69/71/153 70/67/154
f 70/67/155 42/46/156 39/42/157 65/80/158
f 76/38/159 77/83/160 86/84/161 73/28/162
f 73/28/163 13/23/164 20/35/165 76/38/166
f 13/23/167 57/22/168 54/36/169 20/35/170
f 57/22/171 86/84/172 77/83/173 54/36/174
f 84/60/175 47/58/176 44/50/177 79/49/178
f 79/49/179 80/34/180 83/24/181 84/60/182
f 14/25/183 83/24/184 80/34/185 19/33/186
f 19/33/187 44/50/188 47/58/189 14/25/190
