# This file uses centimeters as units for non-parametric coordinates.

v 1.550307 6.000000 0.000000
v 1.432297 6.593277 0.000000
v 1.096232 7.096232 0.000000
v 0.593277 7.432297 0.000000
v -0.000000 7.550306 0.000000
v -0.593277 7.432296 0.000000
v -1.096232 7.096232 0.000000
v -1.432297 6.593276 0.000000
v -1.550306 6.000000 0.000000
v -1.432296 5.406723 0.000000
v -1.096232 4.903768 0.000000
v -0.593276 4.567704 0.000000
v 0.000001 4.449694 0.000000
v 0.593277 4.567704 0.000000
v 1.096233 4.903769 0.000000
v 1.432296 5.406724 0.000000
v 0.000000 6.000000 -0.000000
v 1.550307 6.000000 0.000000
v 1.432297 6.593277 0.000000
v 1.096232 7.096232 0.000000
v 0.593277 7.432297 0.000000
v -0.000000 7.550306 0.000000
v -0.593277 7.432296 0.000000
v -1.096232 7.096232 0.000000
v -1.432297 6.593276 0.000000
v -1.550306 6.000000 0.000000
v -1.432296 5.406723 0.000000
v -1.096232 4.903768 0.000000
v -0.593276 4.567704 0.000000
v 0.000001 4.449694 0.000000
v 0.593277 4.567704 0.000000
v 1.096233 4.903769 0.000000
v 1.432296 5.406724 0.000000
v 1.550307 6.000000 0.564731
v 1.432297 6.593277 0.564731
v 1.096232 7.096232 0.564731
v 0.593277 7.432297 0.564731
v -0.000000 7.550306 0.564731
v -0.593277 7.432296 0.564731
v -1.096232 7.096232 0.564731
v -1.432297 6.593276 0.564731
v -1.550306 6.000000 0.564731
v -1.432296 5.406723 0.564731
v -1.096232 4.903768 0.564731
v -0.593276 4.567704 0.564731
v 0.000001 4.449694 0.564731
v 0.593277 4.567704 0.564731
v 1.096233 4.903769 0.564731
v 1.432296 5.406724 0.564731
v 1.850307 6.000000 0.564731
v 1.709460 6.708082 0.564731
v 1.308364 7.308364 0.564731
v 0.708082 7.709460 0.564731
v -0.000000 7.850307 0.564731
v -0.708082 7.709460 0.564731
v -1.308365 7.308364 0.564731
v -1.709460 6.708081 0.564731
v -1.850307 6.000000 0.564731
v -1.709460 5.291918 0.564731
v -1.308364 4.691635 0.564731
v -0.708081 4.290540 0.564731
v 0.000000 4.149693 0.564731
v 0.708082 4.290540 0.564731
v 1.308365 4.691636 0.564731
v 1.709460 5.291919 0.564731
v 1.850307 6.000000 0.000000
v 1.709460 6.708082 0.000000
v 1.308364 7.308364 0.000000
v 0.708082 7.709460 0.000000
v -0.000000 7.850307 0.000000
v -0.708082 7.709460 0.000000
v -1.308365 7.308364 0.000000
v -1.709460 6.708081 0.000000
v -1.850307 6.000000 0.000000
v -1.709460 5.291918 0.000000
v -1.308364 4.691635 0.000000
v -0.708081 4.290540 0.000000
v 0.000000 4.149693 0.000000
v 0.708082 4.290540 0.000000
v 1.308365 4.691636 0.000000
v 1.709460 5.291919 0.000000
vt 0.944727 0.809334
vt 0.803787 0.750955
vt 0.956339 0.750955
vt 0.911658 0.858825
vt 0.862166 0.891894
vt 0.803787 0.903506
vt 0.745408 0.891894
vt 0.695917 0.858825
vt 0.662848 0.809334
vt 0.651236 0.750955
vt 0.662848 0.692576
vt 0.695917 0.643085
vt 0.745409 0.610016
vt 0.803787 0.598403
vt 0.862166 0.610016
vt 0.911658 0.643085
vt 0.944727 0.692576
vt 0.478406 0.098933
vt 0.159798 0.438781
vt 0.138558 0.438781
vt 0.138558 0.353819
vt 0.159798 0.353819
vt 0.181039 0.438781
vt 0.181039 0.353819
vt 0.202279 0.438781
vt 0.202279 0.353819
vt 0.223520 0.438781
vt 0.223520 0.353819
vt 0.244760 0.438781
vt 0.244760 0.353819
vt 0.266001 0.438781
vt 0.266001 0.353819
vt 0.287241 0.438781
vt 0.287241 0.353819
vt 0.308482 0.438781
vt 0.308482 0.353819
vt 0.329722 0.438781
vt 0.329722 0.353819
vt 0.350963 0.438781
vt 0.350963 0.353819
vt 0.372203 0.438781
vt 0.372203 0.353819
vt 0.393444 0.438781
vt 0.393444 0.353819
vt 0.414684 0.438781
vt 0.414684 0.353819
vt 0.435925 0.438781
vt 0.435925 0.353819
vt 0.457165 0.438781
vt 0.457165 0.353819
vt 0.478406 0.438781
vt 0.478406 0.353819
vt 0.138558 0.268857
vt 0.159798 0.268857
vt 0.181039 0.268857
vt 0.202279 0.268857
vt 0.223520 0.268857
vt 0.244760 0.268857
vt 0.266001 0.268857
vt 0.287241 0.268857
vt 0.308482 0.268857
vt 0.329722 0.268857
vt 0.350963 0.268857
vt 0.372203 0.268857
vt 0.393444 0.268857
vt 0.414684 0.268857
vt 0.435925 0.268857
vt 0.457165 0.268857
vt 0.478406 0.268857
vt 0.138558 0.183895
vt 0.159798 0.183895
vt 0.181039 0.183895
vt 0.202279 0.183895
vt 0.223520 0.183895
vt 0.244760 0.183895
vt 0.266001 0.183895
vt 0.287241 0.183895
vt 0.308482 0.183895
vt 0.329722 0.183895
vt 0.350963 0.183895
vt 0.372203 0.183895
vt 0.393444 0.183895
vt 0.414684 0.183895
vt 0.435925 0.183895
vt 0.457165 0.183895
vt 0.478406 0.183895
vt 0.138558 0.098933
vt 0.159798 0.098933
vt 0.181039 0.098933
vt 0.202279 0.098933
vt 0.223520 0.098933
vt 0.244760 0.098933
vt 0.266001 0.098933
vt 0.287241 0.098933
vt 0.308482 0.098933
vt 0.329722 0.098933
vt 0.350963 0.098933
vt 0.372203 0.098933
vt 0.393444 0.098933
vt 0.414684 0.098933
vt 0.435925 0.098933
vt 0.457165 0.098933
vn -0.000000 -0.000000 1.000000
vn -0.000000 0.000000 1.000000
vn -0.000000 0.000000 1.000000
vn -0.000000 -0.000000 1.000000
vn -0.000000 -0.000000 1.000000
vn 0.000000 -0.000000 1.000000
vn 0.000000 -0.000000 1.000000
vn 0.000000 -0.000000 1.000000
vn 0.000000 -0.000000 1.000000
vn 0.000000 0.000000 1.000000
vn 0.000000 0.000000 1.000000
vn 0.000000 0.000000 1.000000
vn 0.000000 0.000000 1.000000
vn -0.000000 0.000000 1.000000
vn -0.000000 0.000000 1.000000
vn -0.000000 0.000000 1.000000
vn -0.000000 0.000000 1.000000
vn -0.923880 -0.382683 0.000000
vn -1.000000 0.000000 0.000000
vn -1.000000 0.000000 0.000000
vn -0.923880 -0.382683 0.000000
vn -0.707107 -0.707107 0.000000
vn -0.707107 -0.707107 0.000000
vn -0.382683 -0.923880 0.000000
vn -0.382683 -0.923880 0.000000
vn 0.000000 -1.000000 0.000000
vn 0.000000 -1.000000 0.000000
vn 0.382684 -0.923880 0.000000
vn 0.382684 -0.923880 0.000000
vn 0.707107 -0.707107 0.000000
vn 0.707107 -0.707107 0.000000
vn 0.923880 -0.382683 0.000000
vn 0.923880 -0.382683 0.000000
vn 1.000000 0.000000 0.000000
vn 1.000000 0.000000 0.000000
vn 0.923879 0.382684 0.000000
vn 0.923879 0.382684 0.000000
vn 0.707106 0.707107 0.000000
vn 0.707106 0.707107 0.000000
vn 0.382683 0.923880 0.000000
vn 0.382683 0.923880 0.000000
vn -0.000000 1.000000 0.000000
vn -0.000000 1.000000 0.000000
vn -0.382684 0.923879 0.000000
vn -0.382684 0.923879 0.000000
vn -0.707107 0.707107 0.000000
vn -0.707107 0.707107 0.000000
vn -0.923880 0.382684 0.000000
vn -0.923880 0.382684 0.000000
vn 0.000000 0.000000 1.000000
vn 0.000000 0.000000 1.000000
vn 0.000000 0.000000 1.000000
vn 0.000000 0.000000 1.000000
vn 0.000000 0.000000 1.000000
vn 0.000000 0.000000 1.000000
vn 0.000000 0.000000 1.000000
vn 0.000000 0.000000 1.000000
vn 0.000000 0.000000 1.000000
vn 0.000000 0.000000 1.000000
vn -0.000000 0.000000 1.000000
vn -0.000000 0.000000 1.000000
vn -0.000000 0.000000 1.000000
vn -0.000000 0.000000 1.000000
vn 0.000000 0.000000 1.000000
vn 0.000000 0.000000 1.000000
vn -0.000000 0.000000 1.000000
vn -0.000000 0.000000 1.000000
vn -0.000000 0.000000 1.000000
vn -0.000000 0.000000 1.000000
vn 0.000000 0.000000 1.000000
vn 0.000000 0.000000 1.000000
vn 0.000000 0.000000 1.000000
vn 0.000000 0.000000 1.000000
vn -0.000000 0.000000 1.000000
vn -0.000000 0.000000 1.000000
vn -0.000000 0.000000 1.000000
vn -0.000000 0.000000 1.000000
vn -0.000000 0.000000 1.000000
vn -0.000000 0.000000 1.000000
vn -0.000000 0.000000 1.000000
vn -0.000000 0.000000 1.000000
vn 0.923880 0.382683 0.000000
vn 1.000000 0.000000 0.000000
vn 1.000000 0.000000 0.000000
vn 0.923880 0.382683 0.000000
vn 0.707107 0.707107 0.000000
vn 0.707107 0.707107 0.000000
vn 0.382683 0.923880 0.000000
vn 0.382683 0.923880 0.000000
vn 0.000000 1.000000 0.000000
vn 0.000000 1.000000 0.000000
vn -0.382684 0.923880 0.000000
vn -0.382684 0.923880 0.000000
vn -0.707107 0.707107 0.000000
vn -0.707107 0.707107 0.000000
vn -0.923880 0.382683 0.000000
vn -0.923880 0.382683 0.000000
vn -1.000000 -0.000000 0.000000
vn -1.000000 -0.000000 0.000000
vn -0.923880 -0.382684 0.000000
vn -0.923880 -0.382684 0.000000
vn -0.707106 -0.707107 0.000000
vn -0.707106 -0.707107 0.000000
vn -0.382683 -0.923880 0.000000
vn -0.382683 -0.923880 0.000000
vn 0.000000 -1.000000 0.000000
vn 0.000000 -1.000000 0.000000
vn 0.382684 -0.923879 0.000000
vn 0.382684 -0.923879 0.000000
vn 0.707107 -0.707107 0.000000
vn 0.707107 -0.707107 0.000000
vn 0.923880 -0.382684 0.000000
vn 0.923880 -0.382684 0.000000
vn 0.000000 0.000000 -1.000000
vn 0.000000 0.000000 -1.000000
vn 0.000000 0.000000 -1.000000
vn 0.000000 0.000000 -1.000000
vn 0.000000 0.000000 -1.000000
vn 0.000000 0.000000 -1.000000
vn 0.000000 0.000000 -1.000000
vn 0.000000 0.000000 -1.000000
vn 0.000000 0.000000 -1.000000
vn 0.000000 0.000000 -1.000000
vn 0.000000 0.000000 -1.000000
vn 0.000000 0.000000 -1.000000
vn 0.000000 0.000000 -1.000000
vn 0.000000 0.000000 -1.000000
vn 0.000000 0.000000 -1.000000
vn 0.000000 0.000000 -1.000000
vn 0.000000 0.000000 -1.000000
vn 0.000000 0.000000 -1.000000
vn 0.000000 0.000000 -1.000000
vn 0.000000 0.000000 -1.000000
vn 0.000000 0.000000 -1.000000
vn 0.000000 0.000000 -1.000000
vn 0.000000 0.000000 -1.000000
vn 0.000000 0.000000 -1.000000
vn 0.000000 0.000000 -1.000000
vn 0.000000 0.000000 -1.000000
vn 0.000000 0.000000 -1.000000
vn 0.000000 0.000000 -1.000000
vn 0.000000 0.000000 -1.000000
vn 0.000000 0.000000 -1.000000
vn 0.000000 0.000000 -1.000000
vn 0.000000 0.000000 -1.000000
g pPipe3
f 2/1/1 17/2/2 1/3/3
f 3/4/4 17/2/2 2/1/1
f 4/5/5 17/2/2 3/4/4
f 5/6/6 17/2/2 4/5/5
f 6/7/7 17/2/2 5/6/6
f 7/8/8 17/2/2 6/7/7
f 8/9/9 17/2/2 7/8/8
f 9/10/10 17/2/2 8/9/9
f 10/11/11 17/2/2 9/10/10
f 11/12/12 17/2/2 10/11/11
f 12/13/13 17/2/2 11/12/12
f 13/14/14 17/2/2 12/13/13
f 14/15/15 17/2/2 13/14/14
f 15/16/16 17/2/2 14/15/15
f 16/17/17 17/2/2 15/16/16
f 1/3/3 17/2/2 16/17/17
f 19/19/18 18/20/19 34/21/20 35/22/21
f 20/23/22 19/19/18 35/22/21 36/24/23
f 21/25/24 20/23/22 36/24/23 37/26/25
f 22/27/26 21/25/24 37/26/25 38/28/27
f 23/29/28 22/27/26 38/28/27 39/30/29
f 24/31/30 23/29/28 39/30/29 40/32/31
f 25/33/32 24/31/30 40/32/31 41/34/33
f 26/35/34 25/33/32 41/34/33 42/36/35
f 27/37/36 26/35/34 42/36/35 43/38/37
f 28/39/38 27/37/36 43/38/37 44/40/39
f 29/41/40 28/39/38 44/40/39 45/42/41
f 30/43/42 29/41/40 45/42/41 46/44/43
f 31/45/44 30/43/42 46/44/43 47/46/45
f 32/47/46 31/45/44 47/46/45 48/48/47
f 33/49/48 32/47/46 48/48/47 49/50/49
f 18/51/19 33/49/48 49/50/49 34/52/20
f 35/22/50 34/21/51 50/53/52 51/54/53
f 36/24/54 35/22/50 51/54/53 52/55/55
f 37/26/56 36/24/54 52/55/55 53/56/57
f 38/28/58 37/26/56 53/56/57 54/57/59
f 39/30/60 38/28/58 54/57/59 55/58/61
f 40/32/62 39/30/60 55/58/61 56/59/63
f 41/34/64 40/32/62 56/59/63 57/60/65
f 42/36/66 41/34/64 57/60/65 58/61/67
f 43/38/68 42/36/66 58/61/67 59/62/69
f 44/40/70 43/38/68 59/62/69 60/63/71
f 45/42/72 44/40/70 60/63/71 61/64/73
f 46/44/74 45/42/72 61/64/73 62/65/75
f 47/46/76 46/44/74 62/65/75 63/66/77
f 48/48/78 47/46/76 63/66/77 64/67/79
f 49/50/80 48/48/78 64/67/79 65/68/81
f 34/52/51 49/50/80 65/68/81 50/69/52
f 51/54/82 50/53/83 66/70/84 67/71/85
f 52/55/86 51/54/82 67/71/85 68/72/87
f 53/56/88 52/55/86 68/72/87 69/73/89
f 54/57/90 53/56/88 69/73/89 70/74/91
f 55/58/92 54/57/90 70/74/91 71/75/93
f 56/59/94 55/58/92 71/75/93 72/76/95
f 57/60/96 56/59/94 72/76/95 73/77/97
f 58/61/98 57/60/96 73/77/97 74/78/99
f 59/62/100 58/61/98 74/78/99 75/79/101
f 60/63/102 59/62/100 75/79/101 76/80/103
f 61/64/104 60/63/102 76/80/103 77/81/105
f 62/65/106 61/64/104 77/81/105 78/82/107
f 63/66/108 62/65/106 78/82/107 79/83/109
f 64/67/110 63/66/108 79/83/109 80/84/111
f 65/68/112 64/67/110 80/84/111 81/85/113
f 50/69/83 65/68/112 81/85/113 66/86/84
f 67/71/114 66/70/115 18/87/116 19/88/117
f 68/72/118 67/71/114 19/88/117 20/89/119
f 69/73/120 68/72/118 20/89/119 21/90/121
f 70/74/122 69/73/120 21/90/121 22/91/123
f 71/75/124 70/74/122 22/91/123 23/92/125
f 72/76/126 71/75/124 23/92/125 24/93/127
f 73/77/128 72/76/126 24/93/127 25/94/129
f 74/78/130 73/77/128 25/94/129 26/95/131
f 75/79/132 74/78/130 26/95/131 27/96/133
f 76/80/134 75/79/132 27/96/133 28/97/135
f 77/81/136 76/80/134 28/97/135 29/98/137
f 78/82/138 77/81/136 29/98/137 30/99/139
f 79/83/140 78/82/138 30/99/139 31/100/141
f 80/84/142 79/83/140 31/100/141 32/101/143
f 81/85/144 80/84/142 32/101/143 33/102/145
f 66/86/115 81/85/144 33/102/145 18/18/116
